<svg xmlns="http://www.w3.org/2000/svg" width="108.017" height="108" viewBox="0 0 108.017 108">
  <g id="Group_92" data-name="Group 92" transform="translate(0)">
    <path id="Path_3734" data-name="Path 3734" d="M733.251,241.96V231.5c.041-.153-.021-.207-.171-.177a14.134,14.134,0,0,1-5.331-3.5,11.314,11.314,0,0,1-3.155-7.578c-.024-5.115.074-10.231-.055-15.343a12.79,12.79,0,0,1,1.961-7.657,11.525,11.525,0,0,1,8.468-5.369,12.079,12.079,0,0,1,13.588,9.505,20.686,20.686,0,0,1,.379,4.8c-.046.9.128,1.222,1.141,1.2,3.589-.078,7.182-.089,10.771-.008a5.177,5.177,0,0,1,5.249,6.3c-.21.815.154.639.568.64q2.285.005,4.57,0h19.6c-.123-1.683-.243-3.3.835-4.767a5.033,5.033,0,0,1,4.123-2.171q5.6-.117,11.206,0c1.044.021,1.2-.322,1.2-1.253-.009-2.159-.221-4.325.626-6.439a12.192,12.192,0,0,1,20.8-3.6,12.953,12.953,0,0,1,2.689,7.627c.36,5.024.113,10.023.2,15.03a11.976,11.976,0,0,1-4.058,9.788,10.874,10.874,0,0,1-3.831,2.355,1,1,0,0,0-.8,1.094q.062,4.733,0,9.467c-.008.664.239.755.81.745,1.813-.032,3.627,0,5.44-.022.527-.008.736.085.751.7.067,2.8.091,2.8-2.665,2.8q-50.323,0-100.647.024c-1,0-1.246-.26-1.214-1.232.074-2.274.023-2.272,2.32-2.277,1.486,0,2.972-.021,4.458-.033.149.031.211-.023.171-.177m86.9.177c.149.031.211-.023.171-.175V231.933c.042-.152-.02-.207-.17-.176-2.353-.012-4.706.007-7.059-.043-2.7-.057-3.282.122-3.224,3.209.044,2.388.368,4.813-.357,7.213Zm-43.371-6.924q0-5.123.007-10.246c.041-.152-.02-.207-.169-.177-3.333-.013-6.665-.039-10-.034a11.193,11.193,0,0,1-5.846-1.787c-1.975-1.184-3.332-3.046-5.007-4.559-.256-.231-.409-.617-.834-.617q-2.659,0-5.317,0a1.158,1.158,0,0,0,.537.426,13.679,13.679,0,0,1,4.21,2.969,11.88,11.88,0,0,1,3.235,7.925,84.047,84.047,0,0,1-.22,13.059c4.01,0,8.065,0,12.121,0,.378,0,.517-.085.614-.517a8.389,8.389,0,0,1,2.017-3.653c1.215-1.4,2.9-1.9,4.485-2.625.142.029.2-.022.163-.169m28.184-20.906c3.047,0,6.1-.028,9.142.019.788.012,1.052-.15,1.034-1-.06-2.865-.023-5.732-.023-8.6,0-2.724,0-2.724,2.742-2.613a.757.757,0,0,0,.109,0c.447-.051.643.1.641.6-.016,4.281.041,8.563-.036,12.843-.029,1.595-.811,2.445-2.328,2.235a2.067,2.067,0,0,0-1.235.264c-2.56,1.287-5.148,2.521-7.682,3.858A7.571,7.571,0,0,0,803,228.337c-.214,3.943-.056,7.906-.065,11.861a1.9,1.9,0,0,0,.354,1.322,1.489,1.489,0,0,0,1.719.575,1.948,1.948,0,0,0,1.414-1.941c0-2.431-.016-4.862.02-7.292a5.109,5.109,0,0,1,3.846-4.428,22.817,22.817,0,0,1,4.094-.189c2.394-.027,4.859.356,7.167-.088,4.634-.893,7.26-3.852,7.455-8.758.193-4.854.044-9.721.039-14.583a11.933,11.933,0,0,0-.245-2.672c-1.274-5.39-5.812-7.708-10.729-6.691a8.313,8.313,0,0,0-6.428,7.981c.014,1.669,0,3.338-.01,5.006-.006,1.612-.752,2.38-2.322,2.381-4.426,0-8.852-.006-13.277.008a1.622,1.622,0,0,0-1.805,1.776c.01,1.2.523,1.693,1.811,1.7,2.975.008,5.949,0,8.924,0m-53.184,0c3.046,0,6.093.01,9.139-.007a2,2,0,0,0,1.946-1.538,1.816,1.816,0,0,0-1.349-1.848,2.86,2.86,0,0,0-1.07-.087c-4.316-.005-8.631,0-12.947-.006-1.452,0-1.978-.564-2.02-2.035a38.01,38.01,0,0,0-.214-6.266,8.284,8.284,0,0,0-2.738-5.146c-2.942-2.337-6.826-3.073-10.286-.92a8,8,0,0,0-4.155,7.006c-.043,5.223-.018,10.446-.015,15.668a9.949,9.949,0,0,0,.224,2.664c.941,3.457,4.4,6.49,8.094,6.448,2.828-.033,5.657.006,8.486,0,3.591-.01,5.842,2.238,5.832,5.8-.006,2.1-.014,4.208.007,6.311a1.631,1.631,0,0,0,1.567,1.816,1.9,1.9,0,0,0,1.885-1.822c-.077-4.158.332-8.334-.23-12.469a7.388,7.388,0,0,0-3.273-5.29c-2.628-1.762-5.582-2.907-8.355-4.394a3.275,3.275,0,0,0-1.64-.4c-1.616.01-2.147-.518-2.15-2.112q-.011-5.494,0-10.989c0-2.592,0-2.556,2.568-2.586.793-.01.941.241.932.975-.039,3.373.014,6.746-.039,10.118-.014.871.152,1.168,1.1,1.145,2.9-.071,5.8-.026,8.7-.026m55.591,3.5c-1.894,0-3.88-.428-5.53.133-1.356.461-2.314,2.095-3.447,3.21-.129.127-.252.261-.386.383a11.637,11.637,0,0,1-7.825,3.208c-3.009.046-6.02.029-9.03,0-.612-.005-.882.067-.871.8.048,3.046.027,6.093.015,9.14,0,.572.145.788.784,1a8.354,8.354,0,0,1,5.7,5.629c.23.778.514.87,1.15.863,1.741-.02,3.482-.007,5.223-.007h6.726a1.562,1.562,0,0,1-.411-1.353q-.008-5.767-.009-11.534a8.591,8.591,0,0,1,.022-1.629,12.272,12.272,0,0,1,6.926-9.218c.323-.156.727-.215.962-.631m-47.305-.016a6.72,6.72,0,0,0,1.885,1.735,7.2,7.2,0,0,0,4.334,1.741c7.721.016,15.442-.021,23.162.023a9.612,9.612,0,0,0,6.5-2.5c.154-.132.514-.25.336-.561a.717.717,0,0,0-.576-.437c-.253-.008-.507,0-.761,0H760.064Zm-12.422,24.381a1.592,1.592,0,0,1-.406-1.436c-.014-2.318,0-4.636-.018-6.954a1.938,1.938,0,0,0-1.982-2.052c-2.607-.022-5.215,0-7.822-.013-.418,0-.655.036-.651.565.023,3.115.018,6.229,0,9.344,0,.422.125.556.551.554,3.362-.015,6.724-.008,10.324-.008m35.625-.008c-.665-2.341-2.925-3.554-6.084-3.261a4.6,4.6,0,0,0-3.445,3.261Z" transform="translate(-724.534 -137.678)"/>
    <path id="Path_3735" data-name="Path 3735" d="M830.015,134q-6.635,0-13.27,0c-1.839,0-2.318-.466-2.318-2.264,0-8.34-.088-16.681.041-25.019.053-3.467,1.879-6.214,4.512-8.422a9.283,9.283,0,0,1,3.6-1.829,29.967,29.967,0,0,1,10.784-.6,14.95,14.95,0,0,1,4.56.77,13.156,13.156,0,0,1,4.2,2.778,12.974,12.974,0,0,1,3.317,6.041,7.507,7.507,0,0,1,.1,2.039c0,.8.325,1.014.959.569,1.211-.849,2.338-1.826,3.587-2.61.834-.523,1.624-1.106,2.443-1.646a18.408,18.408,0,0,0,2.352-1.773,7.971,7.971,0,0,1,1.617-1.116c1.355-.7,2.234-2.107,3.986-2.284,2.845-.287,5.685,1.429,5.949,4.416a5.272,5.272,0,0,1-.573,3.357c-.054.087-.049.254-.116.285-1.08.492-1.56,1.646-2.582,2.253-1.065.632-1.863,1.721-2.939,2.324a28.577,28.577,0,0,0-3.493,2.46c-1.03.8-2.106,1.618-3.113,2.486-2.159,1.862-4.376,3.669-6.68,5.347a2.8,2.8,0,0,0-1.186,2.711c.067,2.464.023,4.931.019,7.4,0,1.652-.693,2.329-2.375,2.33q-6.689,0-13.379,0m-.03-3.491c3.771,0,7.541-.022,11.311.018.78.008,1.061-.14,1.035-.992q-.1-3.315,0-6.634a1.571,1.571,0,0,0-.853-1.523q-4.388-2.9-8.739-5.863A5.921,5.921,0,0,1,830.445,110c.965-3.617,2.374-4.639,6.257-4.994,1.871-.171,2.991.944,4.213,1.924.286.23.582.7.878.614.456-.128.248-.678.271-1.056a1.631,1.631,0,0,0-.072-.529c-1.1-3.868-3.514-6.245-7.628-6.565-3.606-.28-7.215-.684-10.793.406a7.892,7.892,0,0,0-5.587,6.945c-.216,7.607-.049,15.225-.074,22.838,0,.792.249.946.981.939,3.7-.036,7.4-.016,11.094-.016m5.865-21.982c-.791,0-1.634.643-2.04,2a1.991,1.991,0,0,0,1.09,2.2c2.895,2.059,5.86,4.02,8.813,6,.349.234.848.5,1.191.1.585-.676,1.465-.86,2.108-1.428,1.735-1.534,3.678-2.8,5.377-4.4a72.165,72.165,0,0,1,5.779-4.553,32.86,32.86,0,0,1,3.434-2.492,2.516,2.516,0,0,0,1.277-1.426c.191-.68.384-1.529-.433-2.053a1.782,1.782,0,0,0-1.955-.247c-1.89.975-3.551,2.3-5.344,3.423-1.572.983-3.05,2.153-4.529,3.27-1.71,1.292-3.668,2.279-5.127,3.909a1.305,1.305,0,0,1-1.908.156c-1.323-.959-2.622-1.956-3.979-2.866-1.008-.676-1.894-1.653-3.753-1.587" transform="translate(-788.254 -69.564)"/>
    <path id="Path_3736" data-name="Path 3736" d="M952.514,6h21.973c1.868,0,2.494.637,2.494,2.534q0,11.477,0,22.954c0,1.66-.7,2.374-2.326,2.375q-22.136,0-44.273,0c-1.651,0-2.156-.518-2.157-2.207q0-11.749,0-23.5c0-1.657.515-2.156,2.208-2.157q11.041,0,22.082,0M952.6,9.48c-6.637,0-13.275.016-19.912-.021-.813,0-1.009.19-1,1q.057,9.467,0,18.934c-.005.818.2,1,1.007,1q19.911-.042,39.824,0c.813,0,1.009-.189,1-1q-.057-9.467,0-18.934c.005-.818-.2-1.006-1.007-1-6.637.036-13.275.02-19.912.02" transform="translate(-868.964 -5.997)"/>
    <path id="Path_3737" data-name="Path 3737" d="M856.457,18.313c.278,6.725-5.66,11.821-11.18,12.192-7.766.522-12.708-6.181-13.018-11.108A12.121,12.121,0,0,1,844.035,6.125c7.079-.045,12.584,5.206,12.422,12.188m-20.678-.029c-.333,4.385,4.117,9.175,9.169,8.711a8.622,8.622,0,0,0,8.179-8.765c-.106-5.149-3.609-8.536-8.948-8.619a8.488,8.488,0,0,0-8.4,8.673" transform="translate(-800.899 -6.088)"/>
    <path id="Path_3738" data-name="Path 3738" d="M1017.954,124.578a9.37,9.37,0,0,1,3.043-7.463,9.839,9.839,0,0,1,8.274-2.782,9.947,9.947,0,0,1,9.491,10.266,10.441,10.441,0,0,1-9.457,10.431c-6.6.774-11.857-5.479-11.35-10.453m3.477-.067a6.9,6.9,0,0,0,6.332,7.027,7.035,7.035,0,0,0,7.559-6.9c-.056-4.047-2.784-6.946-7.212-6.965-3.52-.015-6.574,2.491-6.68,6.836" transform="translate(-932.568 -82.776)"/>
    <path id="Path_3739" data-name="Path 3739" d="M740.73,114.4A9.968,9.968,0,0,1,751.3,124.679a10.429,10.429,0,0,1-9.481,10.4c-6.807.709-11-5.326-11.381-9.324-.641-6.8,5.161-11.9,10.292-11.356m.064,17.2a6.986,6.986,0,0,0,7.059-6.963c-.106-4.267-3.076-6.949-7.275-6.9-3.717.044-6.534,2.777-6.627,6.9a6.908,6.908,0,0,0,6.843,6.963" transform="translate(-728.686 -82.837)"/>
    <path id="Path_3740" data-name="Path 3740" d="M753.913,327.861c.15-.031.211.024.171.177l-.171-.177" transform="translate(-745.366 -234.218)" fill="#f4e9ce"/>
    <path id="Path_3741" data-name="Path 3741" d="M754.084,364.45c.041.153-.021.207-.171.177l.171-.177" transform="translate(-745.366 -260.169)" fill="#f4e9ce"/>
    <path id="Path_3742" data-name="Path 3742" d="M974.833,222.875c-2.974,0-5.949,0-8.924,0-1.287,0-1.8-.5-1.811-1.7A1.623,1.623,0,0,1,965.9,219.4c4.425-.014,8.852,0,13.277-.008,1.57,0,2.316-.769,2.322-2.381.006-1.669.025-3.338.011-5.006a8.312,8.312,0,0,1,6.427-7.981c4.918-1.017,9.455,1.3,10.73,6.691a11.96,11.96,0,0,1,.245,2.671c0,4.862.154,9.729-.039,14.583-.2,4.906-2.821,7.865-7.455,8.758-2.309.445-4.774.062-7.167.088a22.785,22.785,0,0,0-4.094.189,5.108,5.108,0,0,0-3.846,4.427c-.037,2.43-.023,4.861-.021,7.292a1.948,1.948,0,0,1-1.414,1.941,1.489,1.489,0,0,1-1.719-.575,1.9,1.9,0,0,1-.354-1.322c.008-3.954-.15-7.918.065-11.86a7.572,7.572,0,0,1,4.328-6.426c2.534-1.337,5.122-2.571,7.682-3.858a2.063,2.063,0,0,1,1.235-.264c1.516.21,2.3-.64,2.328-2.236.077-4.28.02-8.561.036-12.843,0-.5-.194-.647-.641-.6a.709.709,0,0,1-.109,0c-2.742-.11-2.742-.11-2.742,2.614,0,2.866-.037,5.733.023,8.6.018.848-.246,1.01-1.034,1-3.047-.046-6.094-.019-9.142-.02" transform="translate(-894.403 -146.248)" fill="#94b6e3"/>
    <path id="Path_3743" data-name="Path 3743" d="M760.375,222.761c-2.9,0-5.8-.045-8.7.026-.946.023-1.112-.274-1.1-1.144.053-3.372,0-6.746.039-10.118.009-.734-.139-.985-.932-.975-2.567.031-2.568-.006-2.568,2.586q0,5.495,0,10.99c0,1.593.534,2.121,2.15,2.112a3.274,3.274,0,0,1,1.64.4c2.774,1.487,5.728,2.632,8.356,4.394a7.388,7.388,0,0,1,3.273,5.29c.561,4.136.153,8.312.23,12.469a1.9,1.9,0,0,1-1.885,1.821,1.631,1.631,0,0,1-1.567-1.816c-.021-2.1-.013-4.207-.007-6.311.01-3.56-2.241-5.808-5.832-5.8-2.829.008-5.658-.03-8.486,0-3.7.043-7.153-2.991-8.094-6.448a9.936,9.936,0,0,1-.224-2.664c0-5.223-.028-10.446.015-15.668a8,8,0,0,1,4.155-7.006c3.46-2.153,7.344-1.417,10.286.92a8.282,8.282,0,0,1,2.738,5.146,38.022,38.022,0,0,1,.214,6.266c.042,1.471.567,2.033,2.019,2.036,4.316.008,8.632,0,12.947.006a2.862,2.862,0,0,1,1.07.087,1.816,1.816,0,0,1,1.349,1.848,1.994,1.994,0,0,1-1.945,1.538c-3.046.016-6.093.006-9.139.006" transform="translate(-733.13 -146.133)" fill="#94b6e3"/>
    <path id="Path_3744" data-name="Path 3744" d="M846.666,281.366h34.881c.254,0,.508,0,.761,0a.719.719,0,0,1,.576.437c.178.31-.182.429-.337.561a9.613,9.613,0,0,1-6.5,2.5c-7.72-.044-15.441-.007-23.162-.023a7.2,7.2,0,0,1-4.334-1.741,6.724,6.724,0,0,1-1.885-1.735" transform="translate(-811.135 -201.255)" fill="#94dbe3"/>
    <path id="Path_3745" data-name="Path 3745" d="M903.2,357.095h-9.529a4.6,4.6,0,0,1,3.445-3.261c3.159-.292,5.418.92,6.084,3.261" transform="translate(-844.462 -252.61)" fill="#94dbe3"/>
    <path id="Path_3746" data-name="Path 3746" d="M903.73,305.59l-.169-.177c.149-.03.211.024.169.177" transform="translate(-851.478 -218.301)" fill="#f4e9ce"/>
    <path id="Path_3747" data-name="Path 3747" d="M1053.374,329.535l-.17-.177c.15-.03.211.024.17.177" transform="translate(-957.587 -235.28)" fill="#f4e9ce"/>
    <path id="Path_3748" data-name="Path 3748" d="M903.557,341.426l.163-.169c.039.147-.021.2-.163.169" transform="translate(-851.475 -243.723)" fill="#f4e9ce"/>
    <path id="Path_3749" data-name="Path 3749" d="M1053.2,364.629l.17-.175c.04.153-.021.207-.17.175" transform="translate(-957.585 -260.172)" fill="#f4e9ce"/>
    <path id="Path_3750" data-name="Path 3750" d="M838.454,138.9c-3.7,0-7.4-.019-11.094.017-.733.007-.983-.147-.981-.939.025-7.613-.143-15.231.074-22.838a7.891,7.891,0,0,1,5.587-6.945c3.578-1.09,7.187-.687,10.793-.407,4.114.319,6.532,2.7,7.628,6.565a1.633,1.633,0,0,1,.072.529c-.023.378.185.929-.271,1.056-.3.083-.591-.384-.877-.613-1.222-.98-2.343-2.1-4.214-1.924-3.883.355-5.292,1.377-6.257,4.994a5.921,5.921,0,0,0,2.294,5.513q4.351,2.959,8.739,5.863a1.57,1.57,0,0,1,.853,1.522q-.1,3.315,0,6.634c.026.852-.255,1-1.035.992-3.77-.041-7.54-.018-11.311-.018" transform="translate(-796.723 -77.958)" fill="#ff9696"/>
    <path id="Path_3751" data-name="Path 3751" d="M882.985,124.082c1.858-.066,2.745.911,3.753,1.587,1.357.909,2.655,1.907,3.979,2.866a1.305,1.305,0,0,0,1.908-.156c1.459-1.63,3.417-2.617,5.127-3.909,1.479-1.117,2.957-2.287,4.529-3.27,1.794-1.121,3.454-2.449,5.345-3.423a1.783,1.783,0,0,1,1.955.247c.817.525.624,1.374.433,2.053a2.515,2.515,0,0,1-1.276,1.426,32.824,32.824,0,0,0-3.434,2.492,72.186,72.186,0,0,0-5.779,4.553c-1.7,1.6-3.642,2.868-5.377,4.4-.643.568-1.523.752-2.108,1.428-.342.4-.842.134-1.191-.1-2.953-1.977-5.918-3.938-8.813-6a1.991,1.991,0,0,1-1.09-2.2c.406-1.354,1.249-2,2.04-2" transform="translate(-835.389 -85.117)" fill="#94b6e3"/>
    <path id="Path_3752" data-name="Path 3752" d="M961.041,17.92c6.637,0,13.275.016,19.912-.021.808,0,1.012.183,1.007,1q-.058,9.467,0,18.934c.005.814-.191,1-1,1q-19.912-.042-39.824,0c-.808,0-1.012-.182-1.007-1q.058-9.467,0-18.934c0-.814.191-1.008,1-1,6.637.037,13.274.021,19.912.021m-7.011,15.674h7.94c2.576,0,2.541,0,2.576-2.565.011-.78-.214-.941-.96-.936-5.764.033-11.529.018-17.294.018-2.714,0-2.684,0-2.684,2.674,0,.692.2.832.851.825,3.19-.034,6.381-.016,9.571-.016m14.082-10.449h-8.049c-2.517,0-2.476,0-2.527,2.507-.017.83.214,1,1.014,1,5.764-.037,11.529-.02,17.293-.02,2.648,0,2.617,0,2.632-2.616,0-.724-.2-.892-.9-.884-3.154.038-6.308.016-9.462.016m-22.656,3.483c1.655,0,1.655,0,1.655-1.611,0-1.873,0-1.873-1.828-1.873-1.655,0-1.655,0-1.655,1.611,0,1.872,0,1.872,1.828,1.872m8.62-1.738c0-1.745,0-1.745-1.738-1.745s-1.745,0-1.745,1.738,0,1.745,1.738,1.745,1.745,0,1.745-1.738m24.38,7.068c0-1.846,0-1.846-1.854-1.846-1.63,0-1.63,0-1.63,1.636,0,1.846,0,1.846,1.854,1.846,1.63,0,1.63,0,1.63-1.636m-10.449-.2c0,1.834,0,1.834,1.866,1.834,1.617,0,1.617,0,1.617-1.649,0-1.834,0-1.834-1.866-1.834-1.617,0-1.617,0-1.617,1.649" transform="translate(-877.404 -14.436)" fill="#f4e9ce"/>
    <path id="Path_3753" data-name="Path 3753" d="M844.387,26.781a8.489,8.489,0,0,1,8.4-8.673c5.339.084,8.841,3.47,8.948,8.619a8.622,8.622,0,0,1-8.179,8.765c-5.052.464-9.5-4.327-9.169-8.711" transform="translate(-809.507 -14.584)" fill="#94b6e3"/>
    <path id="Path_3754" data-name="Path 3754" d="M1029.98,132.793c.105-4.346,3.159-6.851,6.68-6.836,4.428.019,7.156,2.918,7.212,6.965a7.035,7.035,0,0,1-7.56,6.9,6.9,6.9,0,0,1-6.332-7.027" transform="translate(-941.117 -91.058)" fill="#94b6e3"/>
    <path id="Path_3755" data-name="Path 3755" d="M749.47,139.82a6.908,6.908,0,0,1-6.843-6.963c.093-4.121,2.91-6.855,6.627-6.9,4.2-.049,7.169,2.632,7.275,6.9a6.986,6.986,0,0,1-7.059,6.963" transform="translate(-737.362 -91.059)" fill="#94b6e3"/>
    <path id="Path_3756" data-name="Path 3756" d="M962.521,63.314c-3.191,0-6.381-.019-9.571.016-.653.007-.851-.133-.851-.825,0-2.674-.03-2.674,2.684-2.674,5.765,0,11.53.015,17.294-.018.747,0,.971.157.96.936-.036,2.564,0,2.565-2.576,2.565Z" transform="translate(-885.895 -44.157)"/>
    <path id="Path_3757" data-name="Path 3757" d="M1010.548,35.89c3.154,0,6.308.021,9.463-.016.7-.008.905.16.9.883-.015,2.616.015,2.616-2.632,2.616-5.765,0-11.529-.017-17.294.02-.8.005-1.03-.166-1.013-1,.051-2.506.01-2.507,2.527-2.507Z" transform="translate(-919.84 -27.181)"/>
    <path id="Path_3758" data-name="Path 3758" d="M954,39.413c-1.828,0-1.828,0-1.828-1.872,0-1.611,0-1.611,1.655-1.611,1.828,0,1.828,0,1.828,1.873,0,1.61,0,1.61-1.655,1.61" transform="translate(-885.944 -27.222)"/>
    <path id="Path_3759" data-name="Path 3759" d="M979.594,37.675c0,1.738,0,1.738-1.745,1.738s-1.738,0-1.738-1.745,0-1.738,1.745-1.738,1.738,0,1.738,1.745" transform="translate(-902.923 -27.222)"/>
    <path id="Path_3760" data-name="Path 3760" d="M1063.394,61.722c0,1.636,0,1.636-1.63,1.636-1.853,0-1.853,0-1.853-1.847,0-1.636,0-1.636,1.629-1.636,1.854,0,1.854,0,1.854,1.847" transform="translate(-962.343 -44.201)"/>
    <path id="Path_3761" data-name="Path 3761" d="M1035.969,61.524c0-1.649,0-1.649,1.617-1.649,1.866,0,1.866,0,1.866,1.834,0,1.649,0,1.649-1.617,1.649-1.866,0-1.866,0-1.866-1.834" transform="translate(-945.366 -44.201)"/>
  </g>
</svg>
