<svg width="69" height="69" viewBox="0 0 69 69" fill="none" xmlns="http://www.w3.org/2000/svg">
<g clip-path="url(#clip0_119_19)">
<path d="M64.8039 37.2139C64.3743 38.5111 64.0648 39.8823 63.8833 41.293C63.3335 45.8557 63.4062 50.3507 64.8007 54.6421C65.0356 55.3651 65.0346 55.645 64.3923 55.7673C62.558 56.1165 60.7273 56.4682 58.8816 56.7C58.6863 56.724 58.4932 56.801 58.2259 56.8712V50.0692C58.2375 49.7818 58.2362 49.4937 58.2218 49.2066C58.1322 48.2422 58.2374 47.5714 59.0731 47.4199C59.3158 47.3423 59.528 47.1349 59.6663 46.8406C59.8047 46.5463 59.8583 46.1876 59.8163 45.8386C59.8156 45.5488 59.7417 45.2691 59.608 45.0507C59.4742 44.8324 59.2896 44.6901 59.0881 44.65C58.5533 44.5665 58.0136 44.5759 57.4804 44.6782C56.5449 44.8784 55.6028 45.0205 54.6649 45.1968C53.3557 45.4389 52.0482 45.6999 50.7366 45.9224C50.2319 46.008 49.7234 46.0602 49.2169 46.1295C49.0896 46.1189 48.9623 46.1465 48.8429 46.2104C48.7234 46.2743 48.6147 46.3731 48.5237 46.5004C48.4327 46.6278 48.3612 46.7809 48.3142 46.9499C48.2673 47.1188 48.2457 47.2999 48.2509 47.4815C48.2235 47.6773 48.2252 47.879 48.2555 48.0739C48.2859 48.2687 48.3443 48.4525 48.4272 48.6134C48.5101 48.7744 48.6156 48.909 48.737 49.0088C48.8584 49.1085 48.9931 49.1712 49.1324 49.1929C49.5993 49.2229 49.613 49.4941 49.613 49.9981C49.5982 52.5236 49.5959 55.0494 49.6059 57.5754C49.6059 58.1744 49.493 58.3832 49.043 58.4483C47.7524 58.6331 46.473 59.0147 45.1819 59.1491C44.2734 59.2432 43.3794 59.4503 42.4781 59.5769C42.2135 59.5896 41.9504 59.6398 41.6928 59.7267C40.9856 60.0227 40.5369 59.6086 40.0364 58.5663C39.47 57.1558 39.1111 55.5958 38.9814 53.9815C38.7701 52.1904 38.7296 50.367 38.8611 48.5606C38.8777 46.233 39.3866 43.9667 40.3212 42.0572C40.4421 41.8359 40.5971 41.6573 40.7742 41.5352C40.9513 41.413 41.1457 41.3507 41.3425 41.3529C42.6829 41.1955 44.0146 40.9088 45.3503 40.6786C46.2515 40.5238 47.1496 40.3851 48.049 40.2277C49.4051 39.9906 50.7606 39.7356 52.1172 39.5029C53.3682 39.2881 54.6203 39.1007 55.8707 38.8859C57.1853 38.66 58.4975 38.4016 59.8121 38.1817C61.174 37.9535 62.5376 37.745 63.9027 37.5561C64.2172 37.5303 64.5251 37.4173 64.8092 37.2233" fill="#EAEAEA"/>
<path d="M28.0605 39.277C26.6236 45.1957 26.5605 51.6154 27.8804 57.5891C26.6264 57.3846 25.3839 57.1861 24.1407 56.9764C23.195 56.8173 22.251 56.6419 21.3059 56.4767C19.9239 56.2345 18.5421 55.9855 17.1602 55.7588C16.2133 55.603 15.267 55.4267 14.3171 55.3549C13.1755 55.2693 12.9816 55.1529 12.6481 53.6204C11.5884 48.9993 11.5606 44.0239 12.5692 39.3797C12.6533 38.992 12.8031 38.6335 12.9112 38.2561C13.3679 36.6808 13.7487 36.4925 14.8939 37.0581C15.3664 37.2208 15.8498 37.31 16.3358 37.3243C17.7622 37.5536 19.1869 37.8103 20.6109 38.0388C21.9087 38.2459 23.2035 38.4718 24.5007 38.6703C25.6807 38.8517 26.8589 39.0682 28.0576 39.2693" fill="#FFCA3A"/>
<path d="M65.1454 9.7499C64.4267 13.0176 64.4945 16.5335 65.3378 19.7403C65.5019 20.3239 65.3426 20.4052 64.9617 20.4651C63.1652 20.7466 61.373 21.0769 59.5795 21.4004C58.7822 21.5441 57.9408 21.3764 57.1958 21.9138C56.4508 22.4512 55.6993 21.9318 54.9345 22.1226C53.1813 22.5598 51.395 22.7259 49.6285 23.1015C48.41 23.3582 47.165 23.3668 45.9531 23.7125C44.8428 24.0291 43.702 23.917 42.5922 24.2584C42.3263 24.3859 42.0544 24.4871 41.7787 24.5613C40.6846 24.7042 40.4129 23.6492 40.2194 22.6266C39.6597 20.0822 39.7373 17.34 40.4389 14.8679C40.5094 14.4861 40.6762 14.1548 40.9074 13.9371C41.1386 13.7194 41.4179 13.6307 41.6921 13.6879C42.5271 13.619 43.3573 13.4617 44.1759 13.2172C45.8876 12.9271 47.6007 12.6653 49.3143 12.4094C49.5114 12.3795 49.6693 12.3153 49.742 12.0509C49.7562 11.9978 49.7781 11.9498 49.8066 11.9101C49.8351 11.8704 49.8694 11.84 49.9069 11.8209C49.9445 11.8019 49.9843 11.7947 50.024 11.7998C50.0637 11.805 50.1021 11.8223 50.1366 11.8507C50.5572 12.0875 51.0078 12.1983 51.4598 12.176C51.9117 12.1538 52.3554 11.999 52.7635 11.7215C53.7435 11.1028 54.6742 11.7052 55.6163 11.3116C56.5704 10.9536 57.5563 10.7967 58.5424 10.8461C58.9315 10.8071 59.3173 10.7187 59.6954 10.5816C60.9199 10.2762 62.1798 10.3403 63.3886 9.90649C63.9641 9.71627 64.5576 9.66278 65.1454 9.74819" fill="#EAEAEA"/>
<path d="M65.1661 23.4883C64.513 26.9513 64.4175 30.2603 65.3536 33.5309C65.487 33.9981 65.4486 34.2214 65.0124 34.2813C62.8632 34.5765 60.7256 35.0147 58.5837 35.3569C57.2258 35.5734 55.8726 35.9055 54.4979 36.0064C53.6465 36.0689 52.8042 36.4702 51.9546 36.4933C51.3279 36.5104 50.6928 36.9049 50.0679 36.519C49.988 36.4702 49.9423 36.4172 49.8455 36.5096C49.2189 37.1086 48.51 36.9623 47.8142 37.0829C47.3035 37.1685 46.6889 36.7723 46.1962 37.4389C45.9661 37.7512 45.5201 37.6425 45.2395 37.61C44.5828 37.5381 43.9593 37.8154 43.3074 37.7914C42.8401 37.8578 42.3792 37.9955 41.9326 38.2022C41.626 38.3317 41.296 38.2846 41.0135 38.0709C40.731 37.8573 40.5188 37.4942 40.4223 37.0598C39.9852 35.415 39.8071 33.6535 39.9007 31.8999C39.9481 30.6177 40.1843 29.3641 40.594 28.2203C40.6597 28.0062 40.7666 27.8227 40.902 27.6908C41.0375 27.5588 41.1963 27.4838 41.3603 27.4742C41.9563 27.3218 42.6634 27.7454 43.1261 26.8281C43.1501 26.781 43.2678 26.7785 43.3188 26.8178C44.2237 27.5195 45.1861 27.0266 46.0032 26.704C47.0847 26.2762 48.1736 26.6946 49.2136 26.2188C49.2539 26.2 49.3252 26.2428 49.3444 26.212C49.7951 25.4419 50.3827 25.945 50.9067 25.8612C52.0282 25.682 53.1509 25.4975 54.2749 25.3075C56.698 24.8925 59.1201 24.4638 61.545 24.0547C62.7328 23.8537 63.9232 23.6817 65.1688 23.4883" fill="#EAEAEA"/>
<path d="M27.5246 26.1709C26.8529 25.6575 26.1704 26.5038 26.0574 27.5692C25.7572 30.1062 25.8143 32.7029 26.2255 35.2081C26.3385 35.8533 26.2459 35.8285 25.865 35.7814C24.3917 35.5991 22.9301 35.2928 21.4635 35.0318C20.1284 34.7947 18.7849 34.6527 17.4475 34.4328C16.1996 34.2257 14.9529 33.9964 13.7128 33.7157C13.2551 33.6157 12.7935 33.5534 12.3307 33.5292C10.509 33.4239 8.74191 32.7017 6.91358 32.6897C6.16657 32.6329 5.42371 32.4976 4.69068 32.285C3.94806 32.1215 3.80507 31.1349 3.63864 30.3956C3.04296 27.9999 3.05874 25.382 3.68353 23.0014C4.16419 21.2403 4.20468 21.29 5.53912 21.6151C6.95348 21.9626 8.38339 22.15 9.81036 22.3707C11.4759 22.6274 13.1286 23.069 14.7971 23.2778C16.0192 23.431 17.2306 23.751 18.4467 23.8579C19.9542 23.9906 21.422 24.516 22.9174 24.6221C24.2567 24.7171 25.5612 25.1201 26.895 25.216C27.1594 25.2348 27.3924 25.5095 27.6639 25.3597C27.6902 25.6458 27.6403 25.9355 27.524 26.1718" fill="#99E0D4"/>
<path d="M35.9067 58.9737C35.5926 59.0662 35.2656 58.9825 34.9937 58.74C34.7218 58.4975 34.5262 58.115 34.4474 57.6722C33.9669 56.0202 33.6448 54.2834 33.4902 52.5089C33.4236 51.2633 33.4067 50.0134 33.4397 48.7651C33.4064 46.8003 33.5855 44.8398 33.9704 42.9523C34.126 42.2677 34.293 41.5926 34.4618 40.9166C34.564 40.511 34.6715 40.3407 34.9623 40.3895C35.8636 40.5392 36.7683 40.6684 37.669 40.8301C38.0343 40.896 38.1498 41.157 37.963 41.6782C37.453 43.0762 37.0954 44.5766 36.9024 46.1278C36.7876 47.0691 36.4961 48.0104 36.7947 48.9996C36.9101 49.3838 36.6746 49.7192 36.6698 50.106C36.5806 52.9588 36.9054 55.8071 37.6238 58.4731C37.7608 58.9617 38.0037 59.3999 37.2677 59.2219C36.8312 59.0045 36.3677 58.9188 35.9067 58.9703" fill="#FFCA3A"/>
<path d="M2.20375 44.2795C2.12776 41.6272 2.49645 38.9872 3.27926 36.5781C3.46904 36.0929 3.77015 35.7154 4.1321 35.5087C4.49404 35.3019 4.89488 35.2786 5.26745 35.4426C5.5662 35.5614 5.87613 35.6122 6.18601 35.5932C6.67388 35.5316 6.7136 35.8242 6.54657 36.3779C5.4134 40.143 5.3258 44.1255 5.45257 48.1148C5.53206 49.9045 5.76518 51.6736 6.14699 53.3825C6.28278 54.0252 6.10796 54.038 5.78291 53.9695C5.72283 53.9567 5.66279 53.8429 5.60571 53.848C3.46496 54.0311 3.0691 51.7301 2.61007 49.5524C2.27354 47.8366 2.13618 46.054 2.20375 44.2752" fill="#FFCA3A"/>
<path d="M68.9997 57.2862C68.1994 58.6382 67.037 58.3909 65.9988 58.61C64.2786 58.9728 62.542 59.15 60.8242 59.5513C60.1886 59.684 59.5476 59.756 58.9053 59.7669C58.4186 59.7875 58.1952 60.0005 58.2132 60.769C58.251 62.3657 58.2089 63.9659 58.2311 65.5609C58.2527 65.9583 58.1786 66.3543 58.0207 66.6834C57.8629 67.0125 57.6308 67.255 57.363 67.3707C56.7742 67.6839 56.3956 67.138 56.0771 66.5381C55.3886 65.2426 54.7144 63.9317 53.9868 62.5386C53.2058 64.3758 52.4756 66.0752 51.7636 67.7917C51.6663 68.074 51.5286 68.3241 51.3591 68.5256C51.1895 68.7271 50.9921 68.8756 50.7797 68.9615C50.1494 69.1686 49.6193 68.4481 49.6097 67.3776C49.5953 65.6833 49.5779 63.9881 49.6182 62.2955C49.635 61.5853 49.4609 61.4184 49.0121 61.498C47.1573 61.8266 45.2976 62.097 43.4482 62.4701C42.5568 62.6914 41.6553 62.8178 40.7507 62.8483C39.7058 62.8389 38.6986 62.4367 37.6688 62.3281C36.3908 62.1937 35.1279 61.9336 33.8596 61.6991C32.4176 61.433 30.9707 61.2713 29.5335 60.9581C28.2039 60.6688 26.8544 60.567 25.5157 60.3445C24.1621 60.1186 22.812 59.8251 21.4584 59.6001C20.1221 59.3776 18.7795 59.2261 17.4432 59.0011C16.134 58.7811 14.8325 58.4414 13.5202 58.2806C12.6394 58.1719 11.7659 57.9948 10.8898 57.8527C9.46768 57.6285 8.04679 57.4086 6.63064 57.1245C5.84956 56.9671 5.05575 56.8139 4.26927 56.7334C2.87654 56.5905 2.09485 55.3643 1.46578 53.8317C0.770612 51.956 0.329676 49.9106 0.166131 47.8024C-0.0201337 45.9746 -0.0503366 44.1213 0.0760656 42.2831C0.25271 39.2744 0.599373 36.2641 2.04197 33.827C2.25526 33.4668 2.17227 33.2177 2.05752 32.8986C1.37819 31.0256 1.04963 28.9348 1.10346 26.8282C1.15934 24.5417 1.31682 22.3229 2.18983 20.3291C2.25378 20.1885 2.28707 20.024 2.28547 19.8565C2.28386 19.689 2.24735 19.5259 2.18073 19.3878C0.744147 15.6817 0.794039 11.8225 1.67906 7.9213C2.11166 6.01136 3.18126 4.36241 4.84076 4.49847C5.34562 4.53673 5.84938 4.4002 6.3091 4.10056C6.75912 3.80535 7.23503 4.0612 7.69647 4.009C8.86508 3.87808 9.98691 3.35011 11.1603 3.30048C11.5814 3.37654 12.0083 3.34612 12.4218 3.21063C13.0663 2.93586 13.735 2.79352 14.4077 2.7879C15.6298 2.67153 16.829 2.25224 18.0397 2.10334C18.7048 2.02291 19.3418 1.82524 19.9853 1.72426C20.8133 1.59591 21.6795 1.63869 22.4954 1.41792C23.911 1.03199 25.3632 1.18089 26.7764 0.605854C27.4773 0.375414 28.1963 0.275036 28.9154 0.307213C29.8502 0.296088 30.7715 0.0393742 31.713 0.0847267C32.3174 0.113821 32.951 0.699979 33.5386 -0.00683594C34.4399 0.964392 35.5588 0.421017 36.5346 0.873687C37.4349 1.16172 38.3531 1.32167 39.2756 1.35118C40.3414 1.5343 41.4145 1.82353 42.505 1.8646C43.6226 1.90995 44.7328 2.2702 45.8521 2.4054C47.058 2.55087 48.2392 2.94707 49.4571 3.01125C50.5693 3.07029 51.6737 3.40316 52.7834 3.6034C53.8096 3.78823 54.8358 3.95681 55.8627 4.13394C57.259 4.37525 58.6527 4.64736 60.0515 4.85102C60.752 4.95542 61.4593 5.18303 62.1394 5.21213C63.1897 5.25748 64.1937 5.69133 65.241 5.67935C66.1687 5.66908 67.0688 6.08837 68.0048 6.08666C68.4645 6.08666 68.7714 6.64031 69.0003 7.19908V8.1686C68.5623 8.93274 67.7183 8.99607 67.4251 10.0041C66.6213 12.7355 66.58 15.8009 67.3101 18.574C67.3812 18.9226 67.5037 19.2456 67.6695 19.5212C67.8353 19.7969 68.0406 20.019 68.2715 20.1725C68.5607 20.3621 68.8109 20.6544 68.9979 21.0213V21.9806C68.7191 22.1577 68.632 22.6703 68.2956 22.7627C67.6449 22.9424 67.4329 23.6937 67.2383 24.4638C66.6709 26.8441 66.6416 29.4178 67.1546 31.8229C67.2814 32.4904 67.4059 33.3709 67.9526 33.6533C68.3798 33.8796 68.7456 34.2926 68.9979 34.8333V35.9842C68.7534 36.2606 68.4775 36.4754 68.182 36.6192C67.8898 36.713 67.6178 36.9068 67.3899 37.1838C67.162 37.4609 66.9852 37.8127 66.8742 38.2091C66.1758 39.9798 65.8014 41.9723 65.7855 44.0031C65.7221 45.6869 65.7535 47.3752 65.8796 49.0518C66.0117 50.7822 66.3862 52.4574 66.981 53.9781C67.172 54.447 67.368 55.0742 67.7669 55.1333C68.0245 55.1731 68.2714 55.3021 68.486 55.5089C68.7006 55.7158 68.8762 55.9943 68.9979 56.3201L68.9997 57.2862ZM27.5239 26.1753C28.2269 26.6322 28.294 27.2748 28.1444 28.8279C27.8345 31.247 28.0277 33.7423 28.6997 36.0073C28.7748 36.2392 28.8361 36.3958 29.0254 36.3667C29.4265 36.343 29.8278 36.4062 30.2156 36.5541C30.6656 36.6808 30.8105 36.4061 30.7114 35.7566C30.3204 32.8746 30.3818 29.9051 30.8915 27.0609C31.0568 26.0101 31.0058 25.8629 30.2121 25.7286C29.3649 25.5805 28.5116 25.4847 27.6615 25.3658C27.3899 25.5155 27.1566 25.2408 26.8928 25.222C25.5614 25.127 24.2542 24.724 22.915 24.629C21.4195 24.5229 19.9517 23.9975 18.446 23.8648C17.2293 23.7579 16.0179 23.437 14.7952 23.2847C13.1261 23.0759 11.4728 22.6361 9.80847 22.3776C8.38149 22.156 6.95248 21.9686 5.53752 21.622C4.20308 21.2943 4.16468 21.2464 3.68281 23.0083C3.05697 25.3884 3.0403 28.0066 3.63587 30.4024C3.8041 31.1418 3.94676 32.1284 4.68879 32.2919C5.42183 32.5043 6.16469 32.6396 6.91169 32.6966C8.73942 32.7086 10.5065 33.4308 12.3283 33.5361C12.791 33.5599 13.2523 33.6219 13.7101 33.7218C14.9508 34.0033 16.1983 34.2352 17.4462 34.4397C18.783 34.6622 20.1259 34.8034 21.4616 35.0387C22.927 35.2954 24.3899 35.606 25.8631 35.7883C26.2416 35.8353 26.3336 35.8602 26.2236 35.215C25.8121 32.7098 25.7551 30.113 26.0555 27.5761C26.1685 26.5107 26.8504 25.661 27.5215 26.1787M14.0694 9.35204C13.1111 9.15438 12.1557 8.93959 11.1961 8.76588C10.6848 8.67346 10.3189 8.68887 10.0942 9.68577C9.66582 11.5846 9.7687 13.4868 9.73806 15.4002C9.73778 16.5921 9.89916 17.773 10.2133 18.8778C10.28 19.1345 10.3335 19.4819 10.5888 19.4665C11.275 19.4254 11.9406 19.8841 12.658 19.5957C12.3903 17.4194 12.323 15.2027 12.4579 13.0016C12.5108 11.5769 12.6665 10.586 13.8922 10.6673C14.6943 11.3108 14.7891 11.6085 14.6131 12.8981C14.5939 13.0549 14.5855 13.2139 14.5878 13.373C14.514 15.469 14.6046 17.5702 14.8577 19.6377C14.928 20.0655 15.0253 20.2127 15.3227 20.258C16.8428 20.4908 18.3605 20.7911 19.8824 20.9922C20.4832 21.0718 21.1184 21.6143 21.6051 21.4757C22.8067 21.1334 23.8762 22.132 25.0455 21.818C25.4618 21.7076 25.9282 22.3947 26.2803 22.2878C27.4405 21.9369 28.5374 22.4469 29.6447 22.6001C32.2793 22.9629 34.9022 23.5046 37.5338 23.9316C38.3582 24.0651 38.2306 23.6466 38.0786 22.9338C37.6311 20.4876 37.6148 17.9218 38.0311 15.4644C38.135 14.8528 38.2689 14.2523 38.4318 13.6674C37.7986 12.7475 37.0258 13.1959 36.3685 12.9195C35.7557 12.6986 35.1269 12.582 34.4947 12.5721C33.263 12.472 32.0366 12.2144 30.8091 12.0244C29.0895 11.7583 27.3699 11.511 25.6516 11.2252C24.2432 10.9933 22.8391 10.7203 21.432 10.4739C20.1378 10.2471 18.8485 9.96644 17.5465 9.82611C16.3833 9.70117 15.2477 9.19373 14.0677 9.34862M64.7983 37.2165C64.5142 37.4107 64.206 37.5237 63.8914 37.5493C62.5276 37.737 61.164 37.9455 59.8009 38.1748C58.4863 38.3948 57.175 38.6532 55.8597 38.8791C54.61 39.0947 53.3566 39.2821 52.1069 39.4961C50.7502 39.7288 49.3948 39.9838 48.0381 40.2209C47.1398 40.3783 46.2385 40.5161 45.3402 40.6718C44.0046 40.902 42.6732 41.1852 41.3327 41.3461C41.1359 41.3435 40.9413 41.4056 40.7642 41.5278C40.587 41.65 40.4318 41.8288 40.3112 42.0504C39.3762 43.9597 38.8672 46.226 38.8502 48.5537C38.72 50.3604 38.7617 52.1838 38.974 53.9746C39.1037 55.5889 39.4624 57.1488 40.0284 58.5595C40.5289 59.6009 40.9782 60.0142 41.6854 59.7199C41.943 59.633 42.2061 59.5829 42.4707 59.5701C43.372 59.4469 44.2678 59.2398 45.1745 59.1423C46.4662 59.0079 47.7455 58.6288 49.0367 58.4414C49.4861 58.3773 49.6024 58.165 49.5994 57.5686C49.5862 55.0434 49.5923 52.5199 49.6073 49.9922C49.6073 49.4873 49.5948 49.2169 49.1268 49.1861C48.9874 49.1645 48.8528 49.1019 48.7313 49.0022C48.6099 48.9025 48.5042 48.7678 48.4212 48.6069C48.3383 48.4459 48.2797 48.2621 48.2493 48.0672C48.2189 47.8723 48.2173 47.6705 48.2446 47.4747C48.2395 47.2931 48.261 47.112 48.308 46.943C48.3549 46.7741 48.4262 46.621 48.5172 46.4936C48.6082 46.3663 48.7169 46.2675 48.8364 46.2036C48.9558 46.1397 49.0833 46.1121 49.2107 46.1227C49.716 46.0533 50.2257 46.0003 50.7304 45.9156C52.0402 45.694 53.3489 45.4321 54.6581 45.1899C55.5966 45.0188 56.5381 44.8716 57.4736 44.6714C58.0067 44.5692 58.5465 44.5597 59.0813 44.6431C59.2828 44.6835 59.4673 44.8258 59.6011 45.044C59.735 45.2623 59.8091 45.5419 59.81 45.8317C59.8521 46.1806 59.7986 46.5393 59.6604 46.8335C59.5222 47.1278 59.31 47.3353 59.0675 47.4131C58.2317 47.5645 58.1254 48.2354 58.2155 49.1998C58.23 49.4869 58.2313 49.775 58.2196 50.0623V56.8661C58.487 56.7933 58.6786 56.7172 58.8739 56.6949C60.7184 56.463 62.5517 56.1113 64.3867 55.7622C65.0277 55.6398 65.0294 55.36 64.795 54.637C63.3999 50.3456 63.3279 45.8505 63.8777 41.2879C64.059 39.8775 64.3684 38.5066 64.7977 37.2096M28.0549 39.2736C26.8532 39.0691 25.6786 38.8526 24.4986 38.6746C23.2008 38.4752 21.9053 38.2467 20.6088 38.0422C19.1842 37.8137 17.7598 37.557 16.3346 37.3277C15.8486 37.3132 15.3652 37.224 14.8926 37.0616C13.7511 36.4951 13.3676 36.6842 12.9097 38.2596C12.8004 38.6369 12.6521 38.9955 12.5679 39.3831C11.5598 44.0273 11.5868 49.0024 12.6454 53.6238C12.9801 55.1564 13.1731 55.2727 14.3147 55.3583C15.2652 55.4293 16.2115 55.6065 17.1584 55.7622C18.5403 55.9898 19.9221 56.2388 21.304 56.4801C22.2486 56.6453 23.1929 56.8224 24.138 56.9799C25.3812 57.1895 26.6255 57.3881 27.8789 57.5926C26.5577 51.6194 26.6197 45.1995 28.0561 39.2804M65.1418 9.75337C64.5537 9.66795 63.9598 9.72144 63.3839 9.91168C62.1756 10.3455 60.9157 10.2813 59.6906 10.5868C59.3127 10.7244 58.9268 10.8132 58.5377 10.8521C57.552 10.803 56.5665 10.9598 55.6127 11.3176C54.67 11.7112 53.7393 11.1088 52.7594 11.7275C52.3512 12.0052 51.9071 12.1599 51.455 12.1822C51.0029 12.2044 50.5525 12.0936 50.1319 11.8567C50.0974 11.8284 50.0589 11.8111 50.0192 11.806C49.9796 11.8009 49.9397 11.8082 49.9022 11.8273C49.8647 11.8465 49.8305 11.877 49.8021 11.9168C49.7738 11.9566 49.7519 12.0047 49.7379 12.0578C49.664 12.3222 49.5057 12.3864 49.3093 12.4163C47.5957 12.673 45.8847 12.9349 44.1717 13.2241C43.3531 13.4686 42.5227 13.6262 41.6877 13.6956C41.4136 13.6383 41.1345 13.727 40.9035 13.9447C40.6725 14.1625 40.5057 14.4939 40.4356 14.8756C39.7335 17.3475 39.6559 20.0899 40.2158 22.6343C40.4081 23.6569 40.6801 24.712 41.7742 24.5691C42.0501 24.4946 42.3221 24.3934 42.5884 24.2662C43.6981 23.9239 44.8392 24.0368 45.9484 23.7202C47.1621 23.3737 48.4059 23.3677 49.6249 23.1093C51.3908 22.7336 53.1774 22.5676 54.9306 22.1303C55.6949 21.9395 56.4544 22.4563 57.1922 21.9215C57.9301 21.3867 58.7777 21.5502 59.5744 21.4081C61.3685 21.0847 63.1623 20.7544 64.9587 20.4728C65.3397 20.4129 65.4995 20.3316 65.3343 19.748C64.4907 16.5413 64.423 13.0252 65.1424 9.75765M65.16 23.496C63.9151 23.6894 62.7253 23.8623 61.5362 24.0625C59.1137 24.4724 56.6917 24.9011 54.2661 25.3153C53.1446 25.5075 52.0233 25.6921 50.9017 25.8689C50.3784 25.9545 49.7907 25.453 49.3395 26.2189C49.3209 26.2506 49.2486 26.2078 49.2084 26.2266C48.1683 26.7015 47.0785 26.2848 45.9982 26.7118C45.1817 27.0344 44.219 27.5281 43.3136 26.8256C43.2625 26.7862 43.1443 26.7888 43.1208 26.8359C42.6588 27.7532 41.9516 27.3296 41.355 27.4819C41.1912 27.4917 41.0326 27.5668 40.8973 27.6987C40.7621 27.8307 40.6557 28.0141 40.5902 28.2281C40.1799 29.3715 39.9433 30.6253 39.8961 31.9076C39.8023 33.6611 39.9806 35.4224 40.4183 37.0667C40.5146 37.501 40.7267 37.8641 41.0091 38.0777C41.2915 38.2914 41.6217 38.3386 41.9283 38.2091C42.3753 38.0024 42.8366 37.8647 43.3042 37.7983C43.9549 37.8223 44.5791 37.5416 45.2346 37.6178C45.5158 37.6486 45.9609 37.7573 46.1916 37.4466C46.6843 36.78 47.2997 37.1797 47.8104 37.0907C48.505 36.97 49.2145 37.1181 49.8406 36.5173C49.9379 36.4241 49.9827 36.4771 50.0627 36.5268C50.6887 36.9118 51.3245 36.5182 51.9499 36.5002C52.7995 36.4771 53.6412 36.0724 54.4932 36.0133C55.8655 35.9124 57.2182 35.5803 58.5761 35.3638C60.7199 35.0216 62.8586 34.5834 65.0048 34.2882C65.441 34.2283 65.48 34.0058 65.3454 33.5386C64.4099 30.269 64.5042 26.9591 65.1579 23.496M14.2167 6.09864C15.172 6.31856 16.1092 6.58126 17.0742 6.69763C18.8586 6.90643 20.6328 7.29663 22.4118 7.61496C23.4224 7.79466 24.4309 7.99061 25.4427 8.15405C26.7645 8.36798 28.0861 8.53998 29.4079 8.7616C30.7298 8.98323 32.047 9.24337 33.3653 9.48468C34.2347 9.64384 35.1171 9.92708 35.9619 9.98954C36.8817 10.0353 37.7984 10.1628 38.707 10.3712C40.0687 10.6604 41.452 10.6803 42.8175 10.4302C44.1633 10.2488 45.4976 9.91167 46.8429 9.73711C47.1956 9.6909 47.5358 9.22368 47.7755 9.39483C48.4196 9.84664 48.9993 9.34263 49.5827 9.27417C50.5945 9.15523 51.604 8.90279 52.6194 8.73935C53.5952 8.5819 54.6302 9.00805 55.5447 8.19512C55.5615 8.18058 55.5887 8.19512 55.6121 8.19512C56.377 8.15001 57.1367 7.99666 57.8802 7.73732C57.8641 7.65063 57.8291 7.57347 57.7802 7.51702C57.7312 7.46056 57.6708 7.42773 57.608 7.42327C55.1259 7.01596 52.6463 6.57356 50.1612 6.22529C49.6151 6.14913 49.0745 6.0028 48.5265 5.93434C46.6117 5.69475 44.7009 5.33535 42.8016 4.90321C41.7274 4.66105 40.5788 4.95884 39.588 4.04751C39.5074 3.99439 39.4192 3.96817 39.3304 3.97084C39.2416 3.97351 39.1545 4.005 39.0755 4.06291C38.5197 4.31963 37.968 4.5558 37.4681 3.79336C37.3648 3.67139 37.2373 3.59861 37.1034 3.58525C36.9696 3.5719 36.8363 3.61865 36.722 3.71892C36.3982 3.91145 35.92 4.17159 35.6809 3.86439C35.1515 3.17982 34.6084 3.32443 34.0033 3.39289C32.9038 3.51782 31.8143 3.08142 30.7076 3.18325C30.013 3.24657 29.3258 3.39461 28.6366 3.50499C27.4951 3.68726 26.3076 3.4836 25.2153 4.00644C24.0401 4.56949 22.8008 3.99274 21.6279 4.68501C20.955 5.08292 20.1637 4.63196 19.3874 5.03328C18.5103 5.36896 17.6036 5.52173 16.6957 5.48681C15.8493 5.48614 15.0094 5.69609 14.2138 6.1072M35.8977 58.9899C36.3586 58.9385 36.8222 59.0241 37.2586 59.2415C37.9946 59.4195 37.7518 58.9848 37.6154 58.4928C36.8964 55.8269 36.5713 52.9786 36.6601 50.1257C36.6686 49.7389 36.9005 49.4043 36.7857 49.0192C36.4853 48.0326 36.7795 47.0853 36.8931 46.1475C37.0861 44.5961 37.444 43.0957 37.9542 41.6978C38.1423 41.1767 38.0253 40.9157 37.66 40.8498C36.7587 40.6881 35.8575 40.5588 34.9562 40.4091C34.6648 40.3612 34.5567 40.5315 34.4557 40.9362C34.2851 41.6122 34.1197 42.2874 33.9634 42.9719C33.5783 44.8593 33.3993 46.8198 33.4324 48.7848C33.3998 50.0331 33.4169 51.283 33.4835 52.5285C33.6378 54.3032 33.9598 56.0401 34.4411 57.6918C34.5194 58.1347 34.715 58.5173 34.9867 58.7598C35.2584 59.0023 35.5854 59.086 35.8994 58.9934M2.20303 44.2795C2.13522 46.0584 2.27278 47.841 2.60994 49.5566C3.06897 51.7344 3.46362 54.0354 5.60559 53.8523C5.66206 53.8471 5.72033 53.9609 5.78161 53.9738C6.10726 54.0414 6.28088 54.0294 6.14569 53.3868C5.76352 51.678 5.52992 49.9088 5.45039 48.119C5.32422 44.1289 5.41208 40.1464 6.54585 36.3821C6.71288 35.8285 6.67317 35.5359 6.18529 35.5975C5.87521 35.6166 5.56509 35.5657 5.26615 35.4468C4.89341 35.2826 4.49238 35.3058 4.13021 35.5125C3.76803 35.7192 3.4667 36.0969 3.27678 36.5824C2.49411 38.9915 2.12542 41.6314 2.20127 44.2837M38.543 27.1619C38.2974 27.1975 38.0497 27.1938 37.8046 27.1508C36.508 26.6724 35.1611 26.7691 33.8561 26.3986C33.7364 26.361 33.6112 26.3863 33.5037 26.47C33.3962 26.5537 33.3137 26.6901 33.2714 26.8538C33.1113 27.401 32.9939 27.9714 32.9211 28.555C32.3948 31.0305 32.6243 33.4804 32.8947 35.9517C32.8924 36.1412 32.9215 36.3289 32.9795 36.4995C33.0374 36.6702 33.1225 36.8191 33.2283 36.9342C33.334 37.0493 33.4574 37.1275 33.5882 37.1624C33.719 37.1973 33.8538 37.188 33.9816 37.1352C34.1137 37.1448 34.2447 37.1734 34.3727 37.2207C35.5413 37.3756 36.7003 37.6657 37.8774 37.7239C38.2547 37.7427 38.1963 37.4629 38.1326 37.16C37.9043 36.0755 37.7737 34.9541 37.7439 33.8227C37.6274 31.5429 37.9021 29.2569 38.5442 27.1619M7.90183 18.8889C7.76438 17.92 7.66169 16.9418 7.59378 15.9581C7.45564 13.5826 7.60253 11.1909 8.02857 8.88568C8.16495 8.22765 8.00223 8.17031 7.64894 8.17116C6.91845 8.14286 6.19144 8.02028 5.4765 7.80493C4.18712 7.47206 4.13346 7.46264 3.66902 9.22796C3.07286 11.6328 3.06782 14.2546 3.65465 16.6641C3.81327 17.3914 4.0024 18.3147 4.64889 18.4371C5.72317 18.7071 6.81116 18.8581 7.90183 18.8889ZM11.0257 36.4078C10.587 36.4047 10.1492 36.3474 9.71752 36.2367C9.43874 36.1631 9.04046 35.9568 8.86322 36.6157C8.68297 37.2943 8.4541 37.9472 8.27265 38.6267C7.57689 41.2263 7.58419 43.9432 7.58058 46.6703C7.62008 48.9088 7.90818 51.1243 8.4343 53.2345C8.58691 53.907 8.84279 54.5112 9.4262 54.548C9.77588 54.5702 10.1261 54.548 10.4812 54.548C9.38766 48.3869 9.31091 42.3601 11.0257 36.4078ZM32.2067 58.201C31.6945 56.2477 31.3897 54.1965 31.302 52.1152C31.2016 48.706 31.1425 45.2747 31.9116 41.9468C32.048 41.3572 32.4224 40.6436 32.2721 40.202C32.0733 39.6287 31.422 39.9641 30.9948 39.7511C30.6025 39.5551 30.3587 39.6586 30.2235 40.2405C30.1478 40.5666 30.0335 40.8746 29.9428 41.1938C29.1196 44.0809 29.121 47.111 29.1342 50.1582C29.1824 52.4602 29.5235 54.7307 30.1411 56.8592C30.2282 57.2973 30.4245 57.6751 30.6929 57.9223C30.9613 58.1695 31.2838 58.2692 31.6 58.2027C31.7767 58.195 31.9549 58.2027 32.2091 58.2027" fill="#472B3C"/>
<path d="M14.0719 9.34517C15.2514 9.18943 16.3875 9.69772 17.5513 9.82265C18.8509 9.96213 20.1429 10.2428 21.4371 10.4696C22.8436 10.7169 24.2489 10.9898 25.6567 11.2209C27.3745 11.5033 29.094 11.754 30.8136 12.0201C32.0417 12.2101 33.2673 12.4677 34.499 12.5678C35.1311 12.5773 35.7603 12.694 36.3731 12.9152C37.0304 13.1907 37.8037 12.744 38.437 13.6622C38.2736 14.2471 38.1393 14.8475 38.035 15.4592C37.6197 17.9165 37.6357 20.4817 38.0823 22.9278C38.2343 23.6406 38.3618 24.0591 37.5381 23.9256C34.9064 23.4977 32.2833 22.9578 29.6492 22.5941C28.5389 22.4409 27.4417 21.9318 26.2845 22.2826C25.9324 22.3896 25.4667 21.7025 25.0503 21.8128C23.8805 22.1226 22.808 21.1283 21.6087 21.4705C21.1226 21.6092 20.4901 21.0667 19.8875 20.9871C18.365 20.786 16.8483 20.4856 15.327 20.2529C15.0266 20.2075 14.9323 20.0612 14.8626 19.6325C14.6097 17.565 14.5192 15.4639 14.5924 13.3679C14.5903 13.2088 14.5988 13.0498 14.6176 12.8929C14.7978 11.6042 14.6998 11.3065 13.8965 10.663C13.9558 10.2243 14.016 9.78529 14.0769 9.34603" fill="#5E5EEA"/>
<path d="M14.2212 6.09087C15.0168 5.67973 15.8567 5.46978 16.7031 5.47049C17.6111 5.5054 18.5177 5.35262 19.3948 5.01695C20.1711 4.61563 20.9618 5.06659 21.6353 4.66868C22.807 3.97641 24.0472 4.55316 25.2236 3.98925C26.3153 3.46556 27.5037 3.67007 28.6435 3.48781C29.3338 3.37742 30.0207 3.23109 30.7153 3.16606C31.822 3.06423 32.9107 3.50065 34.0102 3.37571C34.6158 3.30726 35.1578 3.16435 35.6871 3.84721C35.9274 4.15526 36.408 3.89427 36.7289 3.70173C36.8431 3.60134 36.9767 3.55452 37.1106 3.56787C37.2444 3.58123 37.372 3.65409 37.4752 3.77618C37.9745 4.53862 38.5266 4.30244 39.0811 4.04573C39.1603 3.98793 39.2475 3.95651 39.3364 3.95384C39.4253 3.95117 39.5135 3.97733 39.5943 4.03033C40.5838 4.94251 41.7345 4.64472 42.8082 4.88603C44.708 5.31388 46.6185 5.67756 48.5334 5.91716C49.0813 5.98562 49.6222 6.13195 50.1678 6.20811C52.6534 6.55553 55.1325 6.99792 57.6145 7.40609C57.6774 7.41055 57.7375 7.44338 57.7864 7.49983C57.8353 7.55629 57.8703 7.63345 57.8864 7.72014C57.1427 7.97949 56.3828 8.13284 55.6178 8.17794C55.5955 8.17794 55.5686 8.16596 55.5518 8.17794C54.6379 8.99 53.6014 8.56472 52.6268 8.72217C51.6108 8.88561 50.6016 9.1389 49.5892 9.25785C49.0058 9.3263 48.4258 9.83032 47.7829 9.37765C47.5426 9.2065 47.2021 9.67628 46.85 9.71992C45.5041 9.89107 44.1684 10.2333 42.8243 10.413C41.4587 10.6633 40.0754 10.6434 38.7135 10.354C37.8049 10.1458 36.8879 10.0183 35.9682 9.97236C35.127 9.90989 34.2403 9.63008 33.3715 9.46749C32.0533 9.22618 30.7357 8.96605 29.4156 8.74528C28.0956 8.52451 26.7719 8.35165 25.4501 8.13772C24.4389 7.97428 23.4295 7.77833 22.4195 7.59777C20.6411 7.28116 18.8664 6.8901 17.0819 6.68131C16.1176 6.56836 15.1795 6.3048 14.2235 6.08232" fill="#5E5EEA"/>
<path d="M38.5472 27.1576C37.9042 29.2522 37.6292 31.5384 37.7462 33.8184C37.7759 34.9498 37.9065 36.0712 38.135 37.1557C38.1987 37.4577 38.255 37.7375 37.8789 37.7196C36.7024 37.6614 35.5434 37.3721 34.3742 37.2164C34.246 37.169 34.1148 37.1404 33.9825 37.1308C33.8547 37.1837 33.7199 37.193 33.5891 37.1581C33.4583 37.1232 33.3352 37.045 33.2295 36.9299C33.1238 36.8147 33.0386 36.6658 32.9807 36.4952C32.9228 36.3245 32.8938 36.1369 32.8962 35.9474C32.6258 33.477 32.3959 31.0262 32.9235 28.5507C32.9966 27.9669 33.114 27.3962 33.2738 26.8487C33.3159 26.685 33.3981 26.5486 33.5055 26.4649C33.6129 26.3812 33.738 26.3558 33.8576 26.3934C35.1626 26.7639 36.511 26.6672 37.8076 27.1456C38.0528 27.1886 38.3007 27.1923 38.5466 27.1567" fill="#99E0D4"/>
<path d="M7.90421 18.8846C6.81354 18.854 5.72613 18.703 4.65187 18.4328C4.00477 18.3105 3.81504 17.3872 3.65762 16.6598C3.07103 14.2503 3.07587 11.6287 3.67141 9.2237C4.13585 7.45923 4.18861 7.46778 5.4786 7.80065C6.19352 8.01609 6.92084 8.13869 7.65133 8.1669C8.00461 8.1669 8.16734 8.22337 8.03095 8.88141C7.6051 11.1863 7.45792 13.5777 7.59588 15.953C7.63193 16.9157 7.79366 17.8698 7.90421 18.8846Z" fill="#5E5EEA"/>
<path d="M11.0281 36.4035C9.31393 42.3575 9.39038 48.3834 10.4839 54.5445C10.1282 54.5445 9.77769 54.5625 9.42921 54.5445C8.8446 54.5077 8.58812 53.9045 8.43731 53.231C7.91045 51.1211 7.62215 48.9055 7.58301 46.6669C7.58661 43.9372 7.58292 41.2212 8.27508 38.6232C8.45533 37.9447 8.68418 37.2909 8.86623 36.6123C9.04287 35.9534 9.44144 36.1605 9.72083 36.2333C10.1523 36.3439 10.5896 36.4012 11.0281 36.4044" fill="#FFCA3A"/>
<path d="M32.2099 58.195C31.9563 58.195 31.7784 58.1881 31.6006 58.195C31.2845 58.2614 30.9623 58.1617 30.694 57.9145C30.4258 57.6673 30.23 57.2894 30.1431 56.8515C29.5251 54.7235 29.1835 52.4532 29.1353 50.1513C29.1215 47.1042 29.1211 44.0758 29.943 41.1878C30.0343 40.8686 30.1477 40.5606 30.224 40.2346C30.3592 39.6527 30.6027 39.55 30.9956 39.7451C31.4222 39.9581 32.0741 39.6227 32.2724 40.196C32.425 40.6384 32.0506 41.3521 31.9118 41.9408C31.144 45.2687 31.201 48.7009 31.3019 52.1092C31.3897 54.1905 31.6946 56.2416 32.2067 58.195" fill="#FFCA3A"/>
<path d="M14.0725 9.34513C14.014 9.78382 13.955 10.2228 13.8953 10.6621C12.6696 10.5765 12.5136 11.5717 12.4613 12.9964C12.3263 15.1975 12.3931 17.4142 12.6605 19.5905C11.9437 19.878 11.2786 19.4194 10.5925 19.4613C10.3341 19.4767 10.2831 19.125 10.2164 18.8726C9.90218 17.7678 9.74098 16.5869 9.7417 15.395C9.77174 13.4808 9.66859 11.5785 10.097 9.68057C10.3223 8.68367 10.687 8.6674 11.1995 8.75982C12.1608 8.93096 13.1142 9.14831 14.0713 9.34598" fill="#99E0D4"/>
<path d="M27.5225 26.171C27.6389 25.9348 27.6888 25.645 27.6624 25.3589C28.5126 25.477 29.3652 25.5728 30.213 25.7209C31.0073 25.8595 31.0577 26.0024 30.8913 27.0532C30.3823 29.8975 30.3209 32.8668 30.7111 35.7489C30.8103 36.3984 30.666 36.6739 30.2148 36.5464C29.8273 36.3987 29.4264 36.3358 29.0257 36.3599C28.8358 36.3881 28.7752 36.2324 28.7001 36.0005C28.0285 33.7352 27.8355 31.2403 28.1444 28.8211C28.2952 27.2714 28.2266 26.6288 27.5242 26.1684" fill="#5E5EEA"/>
</g>
<defs>
<clipPath id="clip0_119_19">
<rect width="69" height="69" fill="white"/>
</clipPath>
</defs>
</svg>
