<svg width="69" height="69" viewBox="0 0 69 69" fill="none" xmlns="http://www.w3.org/2000/svg">
<g clip-path="url(#clip0_119_53)">
<path d="M26.6983 0C26.4818 0.109007 26.2347 0.146878 25.9941 0.107906C25.9941 0.0721503 25.9994 0.0357559 26.0034 0H26.6983Z" fill="#B1897F"/>
<path d="M26.0025 0C25.9985 0.0357559 25.9958 0.0715119 25.9932 0.107906C25.8503 0.0957748 25.6638 0.252845 25.5854 0H26.0025Z" fill="#A1BEE0"/>
<path d="M2.27318 67.9133C2.34334 66.8123 2.52963 65.7212 2.82913 64.657H22.9125C22.9329 65.3083 22.4264 65.9487 22.9 66.6191C23.0153 66.7825 22.794 66.9811 22.6978 67.1471C22.5704 67.3835 22.5045 67.6466 22.5061 67.9133H2.27246" fill="#5B8DC9"/>
<path d="M52.6667 64.6588C52.9121 65.2485 53.0501 65.875 53.0745 66.5105C53.2243 66.9677 53.3269 67.4383 53.3808 67.9152H33.1129C33.0578 66.8229 32.9202 65.736 32.7012 64.6633H52.6661" fill="#5B8DC9"/>
<path d="M24.778 67.9337C24.8828 67.0315 24.9823 66.1286 25.0929 65.2271C25.2089 64.2847 25.3347 63.3429 25.4572 62.4011C25.6337 61.0456 25.8478 59.6932 25.9769 58.3332C26.083 57.2133 26.2193 56.0985 26.4136 54.9919C26.4351 54.8212 26.4916 54.6563 26.5799 54.5071C26.6682 54.3579 26.7865 54.2273 26.9278 54.1232C27.069 54.019 27.2304 53.9433 27.4023 53.9006C27.5742 53.8579 27.7532 53.8491 27.9287 53.8746C28.2551 53.9112 28.5592 54.0531 28.7923 54.2775C29.0254 54.502 29.1739 54.7959 29.2138 55.112C29.2962 55.7894 29.4431 56.4611 29.4938 57.1405C29.6522 58.0386 29.7479 58.9461 29.7803 59.8567C29.8067 60.2312 29.8703 60.6024 29.9701 60.9651C30.0577 61.5863 29.9246 62.3538 30.2691 62.8059C30.6775 63.3416 30.0109 64.0356 30.7045 64.4021C30.1084 64.881 31.0509 65.4467 30.6142 65.9345C30.5892 65.9633 30.5741 66.0418 30.5919 66.0584C31.1979 66.6165 30.5958 67.329 30.8494 67.9305H24.7754" fill="#B1897F"/>
<path d="M64.4891 64.6761C64.4891 65.7543 64.4891 66.8328 64.4891 67.9114L55.5913 67.8846C55.6071 66.8145 55.6229 65.7443 55.6387 64.6742H64.4899" fill="#5B8DC9"/>
<path d="M22.9126 64.6589H2.8291C2.97468 63.5958 3.10319 62.5301 3.26918 61.4696C3.51224 59.9104 3.804 58.3575 4.03652 56.797C4.49301 53.7361 5.27423 50.7952 7.35115 48.3389C9.23024 46.091 11.7669 44.4468 14.6279 43.6223C15.5758 43.3413 16.5383 43.3305 17.4763 43.1172C17.7476 43.0534 17.9373 43.1223 17.9828 43.4633C18.0816 44.1778 18.2008 44.8922 18.3674 45.5946C18.7561 47.2311 18.6797 48.9512 19.3253 50.5398C19.4089 50.7454 19.4925 50.9516 19.5887 51.1508C19.6162 51.2328 19.662 51.3078 19.7228 51.3708C19.7836 51.4337 19.8579 51.4829 19.9405 51.5149C20.023 51.547 20.1118 51.561 20.2006 51.5562C20.2894 51.5513 20.376 51.5275 20.4543 51.4866C21.292 51.1249 22.1034 50.7085 22.883 50.2403C23.2215 50.0845 23.4165 49.9951 23.5508 50.4836C23.7657 51.3145 24.2082 52.0738 24.8314 52.6813C25.0126 52.8537 24.9882 52.989 24.8683 53.1225C24.0613 54.0215 24.1747 55.188 23.9382 56.2396C23.7208 57.207 23.7254 58.219 23.595 59.2074C23.3974 60.6919 23.1221 62.1687 22.9936 63.6577C22.9659 63.9821 22.9626 64.3262 22.9099 64.6601" fill="#A1BEE0"/>
<path d="M52.6667 64.6608H32.7017C32.5146 63.2886 32.2907 61.9197 32.1517 60.5431C32.0325 59.3568 31.8606 58.1807 31.7117 56.9956C31.5721 55.8865 31.5694 54.7027 31.0596 53.7297C30.8851 53.4731 30.8061 53.1664 30.8357 52.8604C30.8653 52.5544 31.0016 52.2673 31.2223 52.0466C31.5996 51.5366 31.8954 50.9744 32.0997 50.3788C32.2058 50.0315 32.3349 50.0992 32.5859 50.2205C33.3473 50.5895 34.0508 51.0607 34.8511 51.3698C34.9878 51.4365 35.1384 51.472 35.2915 51.4734C35.4445 51.4748 35.5958 51.4421 35.7338 51.3779C35.8718 51.3137 35.9927 51.2197 36.0873 51.103C36.1818 50.9864 36.2475 50.8502 36.2792 50.7051C36.5809 49.0974 36.8444 47.4826 37.1191 45.8704C37.262 45.032 37.4023 44.1937 37.5321 43.3534C37.5564 43.1957 37.5979 43.098 37.7784 43.121C39.9446 43.2925 42.0518 43.8916 43.9703 44.8814C46.5484 46.2817 48.6174 48.4195 49.8948 51.0026C50.6169 52.5553 51.0925 54.2049 51.3057 55.8954C51.5541 57.4981 51.888 59.088 52.081 60.6976C52.2404 62.0263 52.6442 63.3155 52.6673 64.6633" fill="#A1BEE0"/>
<path d="M57.4187 34.4905C56.8644 35.6246 56.6208 36.878 56.7113 38.1299C56.7343 39.1624 56.7548 40.1961 56.7238 41.2279C56.6797 42.7214 58.3436 44.3489 59.908 44.1963C60.2148 44.1816 60.5071 44.0652 60.7359 43.8665C60.9647 43.6679 61.1161 43.3991 61.1648 43.1051C61.1187 42.8207 60.9741 42.56 60.7547 42.366C60.5354 42.1719 60.2544 42.0561 59.958 42.0375C59.19 41.9813 58.9561 41.763 58.9482 41.0089C58.9338 39.6393 58.9199 38.2697 58.9482 36.9008C58.9231 36.3246 59.133 35.762 59.5325 35.3347C59.932 34.9074 60.4891 34.6497 61.0831 34.6175C62.5334 34.34 64.0383 34.5918 65.3088 35.3244C65.7596 35.5996 66.1276 35.9851 66.3756 36.4421C66.6237 36.8992 66.7431 37.4115 66.7217 37.9275C66.7718 39.1828 66.7434 40.4419 66.7296 41.6985C66.7019 42.6292 66.4445 43.5399 65.979 44.3543C65.5134 45.1687 64.8533 45.8631 64.0539 46.3793C63.2878 46.9361 63.5342 47.5925 63.4137 48.2029C63.3346 48.8721 63.3284 49.5475 63.3952 50.218C63.4018 50.5015 63.3807 50.6649 63 50.6649C61.0311 50.6471 59.0622 50.6496 57.094 50.6649C56.7706 50.6649 56.7126 50.5436 56.7179 50.2697C56.7323 49.4843 56.704 48.6977 56.7277 47.913C56.7381 47.6408 56.6929 47.3692 56.5948 47.1139C56.4966 46.8586 56.3475 46.6246 56.156 46.4253C55.1283 45.4479 54.5282 44.1245 54.4802 42.7297C54.4 40.7387 54.4526 38.7447 54.6377 36.7603C54.8096 35.5159 55.6257 34.8551 57.4168 34.4905" fill="#F7CFBE"/>
<path d="M64.4889 64.6761H55.6378C55.6273 60.8451 55.6145 57.0122 55.5996 53.1774C55.5996 52.8715 55.7116 52.8057 56.0014 52.807C58.7074 52.8155 61.4134 52.8155 64.1194 52.807C64.4105 52.807 64.5218 52.8747 64.5205 53.1786C64.5025 57.0096 64.492 60.8425 64.4889 64.6774" fill="#A1BEE0"/>
<path d="M21.5977 24.7916C20.0109 24.7967 18.9385 23.6423 18.9082 21.9496C18.915 21.2851 19.1882 20.6492 19.6699 20.1764C20.1517 19.7036 20.8043 19.4309 21.4897 19.4161C21.8653 19.3899 22.2425 19.4384 22.5981 19.5586C22.9537 19.6787 23.2803 19.868 23.5578 20.1147C23.8353 20.3615 24.0579 20.6605 24.212 20.9936C24.3661 21.3267 24.4484 21.6868 24.4539 22.0518C24.455 22.4144 24.3817 22.7736 24.2381 23.1085C24.0945 23.4433 23.8836 23.7471 23.6176 24.0021C23.3516 24.2571 23.0359 24.4581 22.6889 24.5936C22.3419 24.729 21.9704 24.7961 21.5964 24.7909" fill="#A1BEE0"/>
<path d="M55.5914 67.8852C55.3588 68.0716 55.5254 68.3909 55.2573 68.6201C54.5328 69.2395 53.8299 69.1009 53.5216 68.2096C53.4806 68.1097 53.4336 68.0123 53.3807 67.9178C53.3268 67.4409 53.2242 66.9703 53.0744 66.5131C53.0498 65.8777 52.9119 65.2512 52.6666 64.6614C52.6436 63.3167 52.2398 62.0244 52.0804 60.6957C51.8874 59.0873 51.5534 57.4956 51.3051 55.8936C51.092 54.203 50.6164 52.5534 49.8941 51.0007C48.6167 48.4177 46.5476 46.2799 43.9697 44.8795C42.0511 43.8898 39.9439 43.2907 37.7778 43.1191C37.5947 43.098 37.5551 43.1938 37.5308 43.3522C37.399 44.1924 37.2607 45.0308 37.1178 45.8691C36.8424 47.4813 36.5796 49.0961 36.2779 50.7038C36.2462 50.8491 36.1806 50.9853 36.086 51.102C35.9914 51.2187 35.8704 51.3128 35.7323 51.377C35.5943 51.4412 35.4429 51.4739 35.2898 51.4724C35.1366 51.4709 34.9859 51.4354 34.8492 51.3685C34.0495 51.0614 33.346 50.5902 32.5838 50.2192C32.3335 50.0979 32.2038 50.0277 32.0978 50.3776C31.8936 50.9731 31.5978 51.5354 31.2203 52.0453C30.9997 52.266 30.8633 52.5531 30.8337 52.8591C30.8041 53.1652 30.8831 53.4718 31.0577 53.7284C31.5675 54.7015 31.5701 55.8853 31.7098 56.9943C31.8587 58.1768 32.0299 59.3568 32.1498 60.5418C32.2888 61.9184 32.5127 63.2874 32.6998 64.6595C32.9191 65.7322 33.0569 66.8191 33.1121 67.9114C33.0686 68.1502 32.9857 68.4643 32.7874 68.5148C32.3777 68.6201 31.9884 68.9317 31.6314 68.9164C31.1453 68.8953 30.8903 68.4286 30.8501 67.9293C30.5959 67.3284 31.198 66.6159 30.5919 66.0572C30.5742 66.0406 30.592 65.962 30.615 65.9333C31.0517 65.4429 30.1084 64.8772 30.7052 64.4009C30.0123 64.0363 30.6782 63.3429 30.2698 62.8047C29.926 62.3526 30.0584 61.5858 29.9708 60.9639C29.8712 60.6011 29.8077 60.2299 29.7811 59.8554C29.7488 58.9448 29.653 58.0374 29.4945 57.1393C29.4438 56.4605 29.2969 55.7882 29.2145 55.1108C29.1746 54.7947 29.0262 54.5008 28.7931 54.2763C28.56 54.0519 28.2558 53.91 27.9294 53.8734C27.7539 53.8478 27.5749 53.8566 27.4029 53.8992C27.231 53.9419 27.0696 54.0175 26.9283 54.1217C26.7871 54.2259 26.6688 54.3565 26.5805 54.5058C26.4922 54.655 26.4357 54.8199 26.4144 54.9907C26.22 56.0985 26.085 57.2121 25.9777 58.332C25.8459 59.692 25.6344 61.0443 25.4579 62.3999C25.3354 63.3416 25.2096 64.2828 25.093 65.2259C24.9823 66.1274 24.8829 67.0303 24.7781 67.9325C24.5805 68.5486 24.2011 69.009 23.4897 68.9694C23.3534 68.9629 23.2196 68.9304 23.0963 68.8736C22.973 68.8169 22.8625 68.737 22.7711 68.6387C22.6798 68.5403 22.6094 68.4254 22.5641 68.3006C22.5187 68.1758 22.4993 68.0435 22.5069 67.9114C22.5054 67.6447 22.5712 67.3816 22.6986 67.1452C22.7948 66.9792 23.0161 66.78 22.9008 66.6171C22.4272 65.9461 22.9338 65.3063 22.9134 64.655C22.9654 64.3217 22.9687 63.9776 22.997 63.6532C23.1287 62.1636 23.4021 60.6874 23.5984 59.2029C23.7301 58.2151 23.7242 57.2025 23.9415 56.2352C24.178 55.1829 24.0655 54.017 24.8717 53.118C24.9916 52.9846 25.016 52.8492 24.8348 52.6768C24.2116 52.0694 23.7692 51.3101 23.5543 50.4791C23.4226 49.9906 23.2249 50.08 22.8863 50.2365C22.1059 50.706 21.2933 51.1235 20.4544 51.486C20.3761 51.5269 20.2896 51.5506 20.2008 51.5555C20.1121 51.5604 20.0234 51.5463 19.9409 51.5143C19.8584 51.4822 19.7841 51.433 19.7234 51.3701C19.6627 51.3072 19.617 51.2321 19.5895 51.1502C19.4907 50.9509 19.407 50.7447 19.326 50.5385C18.6804 48.9505 18.7569 47.2298 18.3676 45.5933C18.2009 44.891 18.0817 44.1765 17.9829 43.462C17.9355 43.121 17.7477 43.054 17.4763 43.1159C16.537 43.3292 15.576 43.34 14.6287 43.621C11.7678 44.4453 9.23113 46.0893 7.35195 48.3369C5.27503 50.79 4.49383 53.7342 4.03668 56.7951C3.80416 58.3556 3.50969 59.9084 3.26926 61.4677C3.10326 62.5282 2.97417 63.5939 2.82926 64.657C2.52985 65.7212 2.34357 66.8123 2.27331 67.9133C1.96898 68.4011 1.82209 69.0466 1.00727 68.9904C0.74791 68.981 0.501514 68.8781 0.316233 68.702C0.130952 68.5258 0.0201079 68.289 0.00537109 68.0378C0.0596825 66.9195 0.218195 65.8082 0.478981 64.7176C0.68384 63.2012 0.951244 61.6899 1.2694 60.1919C1.69032 58.2126 1.87738 56.1949 2.41226 54.222C2.58866 53.2397 2.84058 52.2716 3.16585 51.3257C3.79237 49.7946 4.62519 48.3505 5.64261 47.0312C6.87185 45.5148 8.38742 44.239 10.1086 43.2717C11.8701 42.2677 13.802 41.5759 15.8137 41.2285C17.7224 40.9722 19.6513 40.8867 21.5762 40.9731C22.0926 40.9801 22.2282 40.8716 22.2776 40.3346C22.3771 39.2645 22.0103 38.7435 20.9715 38.2199C19.1889 37.3302 17.6245 36.0794 16.3844 34.5523C15.1442 33.0252 14.2573 31.2575 13.7836 29.369C13.7217 29.1481 13.5432 28.9406 13.7118 28.6207C13.8021 28.4509 13.5656 28.0403 13.1249 28.0212C11.9757 27.9691 10.8928 27.4842 10.1071 26.6696C9.32134 25.855 8.89482 24.7752 8.9184 23.6602C8.90897 22.8493 9.14887 22.0541 9.60758 21.3758C10.0663 20.6976 10.723 20.1672 11.4939 19.8522C11.9175 19.6607 11.851 19.5151 11.7258 19.2373C11.1852 18.095 10.7467 16.9099 10.415 15.695C10.0104 14.042 9.91273 12.3325 10.1265 10.6463C10.3413 8.82301 11.079 7.09455 12.256 5.65712C13.2083 4.44694 14.484 3.5123 15.9449 2.95435C17.0276 2.54185 18.1649 2.27981 19.3233 2.17602C19.6352 2.1429 19.9346 2.03852 20.1968 1.87146C21.4711 1.10181 22.8931 0.590513 24.377 0.368432C24.5858 0.334592 24.9534 0.349277 25.0298 1.8666e-05H25.5858C25.6608 0.255418 25.8492 0.0957935 25.9935 0.107925C26.2343 0.146992 26.4816 0.10912 26.6983 1.8666e-05H33.9263C34.1342 0.151456 34.38 0.24625 34.6384 0.274573C37.0617 0.624763 39.2959 1.74657 40.989 3.46324C42.616 5.01867 43.7236 7.012 44.168 9.18482C44.4979 10.5158 44.5506 11.8973 44.3228 13.2482C43.9216 15.1069 43.4664 16.9585 42.9309 18.7834C42.7524 19.3887 42.9816 19.5802 43.4407 19.6287C44.112 19.7473 44.7345 20.049 45.2351 20.4984C46.4932 21.4478 46.8878 23.4802 46.3549 25.0145C46.1415 25.4181 45.8994 25.8068 45.6303 26.1778C45.0006 27.4976 43.805 27.859 42.5159 27.9918C42.006 28.0442 41.8816 28.2983 41.8658 28.6035C41.7999 29.8537 41.1458 30.9142 40.6689 32.0048C39.4358 34.7024 37.2688 36.8974 34.5428 38.2103C33.6154 38.6911 33.1972 39.2147 33.3671 40.1942C33.3879 40.3277 33.3879 40.4635 33.3671 40.597C33.323 40.9086 33.4777 40.9584 33.7623 40.9642C35.1884 40.9923 36.6132 40.9923 38.0406 41.0555C39.7979 41.2349 41.5255 41.6248 43.1838 42.2163C44.1802 42.5952 45.1218 43.0979 45.9847 43.7116C47.3907 44.5469 48.6403 45.6072 49.6807 46.8473C51.3087 48.7106 52.4481 50.9276 53.002 53.3096C53.0533 53.5407 52.911 53.9889 53.3912 54.1211C53.3912 53.2783 53.415 52.4699 53.3814 51.6635C53.3511 51.4862 53.3877 51.3043 53.4845 51.1511C53.5813 50.9978 53.7317 50.8835 53.9083 50.829C54.623 50.7083 54.5012 50.2492 54.5012 49.8074C54.5012 49.4243 54.5051 49.0412 54.5012 48.6626C54.4894 48.2579 54.3541 47.8658 54.1126 47.5356C53.4443 46.6904 52.9172 45.7486 52.5507 44.7447C52.0316 43.1242 52.2326 41.4411 52.2023 39.7983C52.143 38.779 52.2114 37.7566 52.4058 36.7533C52.6111 35.4128 53.3114 34.1901 54.3767 33.3124C55.0678 32.8325 55.8813 32.5454 56.7289 32.4824C57.8323 32.3413 57.8389 32.3891 57.8389 31.2948C57.8389 21.3729 57.8389 11.4511 57.8389 1.52922C57.7916 1.00345 57.8881 0.474876 58.1188 -0.00317383H59.2307C59.5188 0.167121 59.7515 0.412786 59.9019 0.705563C60.0524 0.998339 60.1144 1.32633 60.0811 1.65181C60.0569 11.7507 60.0515 21.8494 60.0647 31.9479V32.6407C62.5678 32.2359 64.9668 32.3138 67.074 33.8449C68.0302 34.5943 68.654 35.6702 68.817 36.8516C69.0186 38.2902 69.0665 39.7452 68.9599 41.1934C68.9124 43.4365 68.4158 45.6329 66.5325 47.0676C65.1901 48.0892 65.8027 49.2966 65.6275 50.4427C65.5879 50.7019 65.8468 50.7045 65.9832 50.7715C66.2232 50.8752 66.4245 51.0477 66.5602 51.2657C66.6959 51.4838 66.7594 51.737 66.742 51.9911C66.7345 57.2199 66.7323 62.4488 66.7354 67.6777C66.7534 67.9885 66.6504 68.2945 66.4467 68.5352C66.2429 68.7758 65.9533 68.9335 65.6353 68.977C65.028 69.0294 64.6612 68.6865 64.4939 67.9076C64.4939 66.8289 64.4939 65.7505 64.4939 64.6723C64.5022 60.8413 64.5125 57.0084 64.5248 53.1736C64.5248 52.869 64.4154 52.8007 64.1243 52.8019C61.4183 52.8105 58.7123 52.8105 56.0064 52.8019C55.7165 52.8019 55.6026 52.8658 55.6046 53.1729C55.6248 57.0039 55.6377 60.8368 55.6434 64.6716C55.6276 65.7418 55.6118 66.8119 55.5959 67.882M13.8218 18.3166C14.003 17.7324 14.1459 17.2491 14.302 16.7695C15.1507 14.2452 16.5003 11.9059 18.2747 9.88334C19.6639 8.25325 20.0703 8.20281 21.5023 9.76075C22.0807 10.423 22.8035 10.9526 23.6185 11.3114C24.4335 11.6703 25.3204 11.8494 26.2154 11.8359C30.0149 11.8308 33.8144 11.8359 37.6112 11.8359C38.0123 11.8359 38.4122 11.8225 38.6157 12.2534C38.8637 12.6746 39.085 13.11 39.2784 13.5573C39.6459 14.6714 40.0444 15.7786 40.4976 16.8615C40.6234 17.1622 40.6149 17.6124 41.0806 17.7694C41.0984 17.0251 41.2489 16.2894 41.5252 15.5947C42.1091 13.9075 42.3273 12.1216 42.1662 10.3488C41.8252 8.07916 40.6533 6.00414 38.8645 4.50279C37.0757 3.00145 34.7894 2.17398 32.4232 2.17155C30.4159 2.10293 28.4063 2.1317 26.4019 2.25775C24.8117 2.35176 23.2567 2.75179 21.8278 3.4345C21.0017 3.84633 20.2173 4.41332 19.2588 4.42226C18.2959 4.45251 17.3523 4.69256 16.4982 5.12461C15.5448 5.5454 14.6989 6.16469 14.0206 6.93842C13.3423 7.71214 12.8482 8.62127 12.5736 9.60112C11.7396 12.5791 12.3614 15.4715 13.8192 18.3205M38.7975 21.557C38.8698 21.8023 38.9139 22.0545 38.9292 22.3092C38.8019 23.4008 38.3602 24.4357 37.6547 25.2954C36.9051 26.22 35.7918 26.5054 34.7563 26.9351C34.6906 26.9548 34.6213 26.9606 34.5531 26.952C34.4848 26.9434 34.4194 26.9206 34.3611 26.8853C34.2246 26.7694 34.0497 26.705 33.8683 26.7038C33.6869 26.7027 33.5111 26.7648 33.373 26.8789C33.1603 27.036 32.9844 26.9006 32.8013 26.8182C32.6079 26.7081 32.4024 26.6192 32.1886 26.5533C31.3062 26.3523 30.5282 25.8498 29.9972 25.1377C29.4555 24.456 29.0989 23.6533 28.9603 22.8034C28.7442 21.7179 28.8602 21.6943 27.6975 21.6911C27.5124 21.6911 27.3267 21.6962 27.1422 21.6822C26.7938 21.6553 26.7062 21.7811 26.6752 22.1342C26.5854 23.224 26.199 24.2712 25.5554 25.169C24.7782 26.2659 23.4884 26.476 22.3712 26.8993C21.2942 27.308 20.1559 26.7716 19.1968 26.2985C17.4658 25.4499 16.7392 23.9054 16.7017 22.0633C16.6931 21.6579 16.6173 21.5078 16.1707 21.5385C15.7913 21.5647 15.539 21.5423 15.5568 22.0582C15.6023 23.3589 15.6023 24.662 15.5661 25.9627C15.5173 28.0543 16.1007 30.1142 17.2444 31.8886C18.1757 33.4724 19.4773 34.8224 21.0446 35.8301C22.612 36.8378 24.4013 37.475 26.2688 37.6906C28.543 38.0008 30.8608 37.6334 32.9146 36.6371C34.655 35.838 36.1862 34.6676 37.3937 33.2134C38.1435 32.359 38.7382 31.3875 39.1525 30.3402C39.644 29.0359 39.918 27.664 39.9641 26.2762C39.9733 24.8791 39.9641 23.4668 40.0405 22.0659C40.0603 21.6956 39.8982 21.5251 39.5056 21.5551C39.279 21.573 39.0498 21.5583 38.7903 21.5583M57.416 34.4917C55.6217 34.8563 54.8088 35.5171 54.6368 36.7616C54.4516 38.746 54.3991 40.7399 54.4795 42.7309C54.527 44.1258 55.1272 45.4493 56.1552 46.4265C56.3468 46.6259 56.4959 46.8599 56.5941 47.1152C56.6924 47.3704 56.7377 47.642 56.7276 47.9142C56.7039 48.699 56.7316 49.4856 56.7177 50.2709C56.7125 50.5449 56.7698 50.6681 57.0939 50.6662C59.0628 50.6528 61.031 50.6502 62.9999 50.6662C63.3793 50.67 63.4003 50.504 63.3951 50.2192C63.3284 49.5488 63.3346 48.8733 63.4136 48.2041C63.5341 47.595 63.2877 46.938 64.0538 46.3806C64.8532 45.8644 65.5134 45.17 65.9789 44.3556C66.4445 43.5411 66.7018 42.6304 66.7295 41.6997C66.744 40.4425 66.7717 39.184 66.7216 37.9288C66.743 37.4127 66.6236 36.9004 66.3755 36.4434C66.1274 35.9863 65.7595 35.6008 65.3086 35.3256C64.0382 34.5931 62.5333 34.3412 61.083 34.6181C60.4889 34.6502 59.9318 34.9078 59.5322 35.3351C59.1326 35.7625 58.9228 36.3252 58.9481 36.9014C58.9191 38.2704 58.933 39.6399 58.9481 41.0095C58.956 41.7636 59.1898 41.9819 59.9579 42.0381C60.2542 42.0568 60.5352 42.1727 60.7545 42.3667C60.9738 42.5608 61.1185 42.8214 61.1647 43.1057C61.1161 43.3998 60.9648 43.6688 60.7359 43.8676C60.5071 44.0663 60.2148 44.1828 59.9079 44.1975C58.3434 44.3495 56.6802 42.722 56.7237 41.2292C56.754 40.1973 56.7335 39.1636 56.7111 38.1312C56.6203 36.8793 56.8637 35.6259 57.4179 34.4917M15.8888 19.3676C16.7451 19.4512 17.5145 19.5157 18.1495 18.6474C18.4872 18.2328 18.914 17.8945 19.4002 17.6559C19.8864 17.4173 20.4203 17.2841 20.9649 17.2657C21.8944 17.1416 22.8412 17.2752 23.6956 17.6512C24.55 18.0271 25.2771 18.63 25.7926 19.3899C25.8502 19.4962 25.9452 19.579 26.0604 19.6231C26.1756 19.6673 26.3033 19.67 26.4203 19.6307C27.1758 19.3902 27.9836 19.3481 28.7613 19.5087C29.0038 19.5726 29.3957 19.9116 29.627 19.5579C29.8495 19.2638 30.1019 18.9922 30.3805 18.747C30.8589 18.2442 31.4473 17.8514 32.1025 17.5973C32.7577 17.3432 33.4632 17.2343 34.1674 17.2784C34.8289 17.2926 35.4795 17.4449 36.0747 17.725C36.6699 18.0051 37.1958 18.4064 37.6164 18.9015C37.7636 19.1141 37.9782 19.2745 38.2277 19.3586C38.4773 19.4427 38.7482 19.4458 38.9998 19.3676C38.4513 17.8573 37.9023 16.3462 37.353 14.8343C37.2968 14.5728 37.1418 14.3411 36.9184 14.1847C36.695 14.0282 36.4193 13.9584 36.1456 13.9889C32.6504 14.0368 29.1546 14.008 25.6588 14.0125C24.9163 13.9899 24.1823 13.8517 23.4851 13.6032C22.245 13.1744 21.1104 12.5004 20.1533 11.6239C19.9162 11.4196 19.7305 11.3998 19.6264 11.6705C19.5058 11.9834 19.2246 12.1481 19.0395 12.4003C17.4964 14.4797 16.423 16.8512 15.8895 19.3599M21.5933 24.7872C21.9673 24.7924 22.3387 24.7253 22.6857 24.5898C23.0327 24.4544 23.3485 24.2533 23.6145 23.9983C23.8805 23.7433 24.0915 23.4396 24.235 23.1047C24.3786 22.7699 24.452 22.4106 24.4508 22.048C24.4453 21.683 24.363 21.323 24.2089 20.9899C24.0548 20.6568 23.8322 20.3577 23.5547 20.111C23.2772 19.8642 22.9505 19.6749 22.5949 19.5548C22.2393 19.4347 21.8622 19.3862 21.4866 19.4123C20.8011 19.4272 20.1485 19.6998 19.6666 20.1726C19.1847 20.6454 18.9114 21.2813 18.9044 21.9459C18.9347 23.6385 20.0064 24.7923 21.5933 24.7872ZM31.1413 22.0972C31.1356 22.7773 31.3968 23.4341 31.872 23.9346C32.3471 24.4351 33.0007 24.7419 33.7004 24.7929C34.0616 24.8186 34.4245 24.7735 34.7673 24.6603C35.1102 24.5471 35.426 24.3681 35.6959 24.1339C35.9658 23.8998 36.1843 23.6153 36.3383 23.2975C36.4923 22.9797 36.5786 22.6351 36.5921 22.2843C36.7239 20.3509 35.1732 19.4787 33.7807 19.418C33.4225 19.4154 33.0676 19.484 32.7377 19.6194C32.4079 19.7549 32.1102 19.9544 31.863 20.2056C31.6157 20.4569 31.4242 20.7546 31.3002 21.0803C31.1762 21.4061 31.1223 21.753 31.1419 22.0997M24.4725 40.795C24.2834 41.4335 24.6549 41.936 25.2004 42.4174C25.9183 43.0508 26.5981 43.7257 27.2621 44.4127C27.6046 44.7671 27.8445 44.8099 28.2068 44.428C28.8334 43.7377 29.507 43.0888 30.223 42.4857C30.5621 42.2278 30.8282 41.8906 30.9962 41.5057C31.1641 41.1209 31.2286 40.701 31.1834 40.2855C31.1591 39.6291 30.9108 39.5084 30.3858 39.6201C28.7732 39.9367 27.1163 39.9809 25.4882 39.751C24.4771 39.6284 24.4738 39.6527 24.4725 40.795ZM35.4585 43.5993C35.473 43.266 35.3498 43.1127 35.06 43.1127C34.2958 43.1127 33.5317 43.1178 32.7683 43.1127C32.7 43.1166 32.6334 43.1351 32.5733 43.1668C32.5132 43.1984 32.461 43.2425 32.4205 43.296C31.598 44.0975 30.7777 44.9007 29.9596 45.7057C29.6902 45.9707 29.6961 46.1603 30.0748 46.3652C31.3554 47.0574 32.6175 47.7833 33.8855 48.4972C34.2913 48.7251 34.5356 48.8107 34.6489 48.1779C34.7596 47.5573 34.7062 46.9322 34.8465 46.3174C35.0587 45.3941 35.0271 44.4204 35.4592 43.6037M20.1975 43.1159C20.3812 44.2684 20.5216 45.3551 20.7376 46.4272C20.8181 47.0749 20.944 47.7166 21.1144 48.3478C21.2007 48.5949 21.285 48.7194 21.5327 48.5808C22.8797 47.8312 24.2156 47.0631 25.5686 46.3237C25.9283 46.1271 25.8657 46.0045 25.6134 45.7663C24.7683 44.9727 23.9416 44.1605 23.1156 43.3471C23.0506 43.2714 22.9689 43.2109 22.8765 43.17C22.7842 43.1291 22.6835 43.1089 22.582 43.1108C21.7994 43.1242 21.0162 43.1159 20.1975 43.1159ZM27.6884 51.7433C28.1159 51.7692 28.54 51.655 28.8925 51.4191C29.245 51.1832 29.5055 50.8394 29.6322 50.4427C29.7377 50.0652 29.8802 49.6983 30.0577 49.347C30.0983 49.2993 30.1261 49.2425 30.1384 49.1818C30.1506 49.121 30.147 49.0583 30.1279 48.9992C30.1088 48.9402 30.0748 48.8867 30.0289 48.8436C29.9831 48.8006 29.9268 48.7693 29.8654 48.7526C29.318 48.4972 28.816 48.1492 28.2844 47.8542C28.126 47.7453 27.9352 47.6896 27.7411 47.6957C27.547 47.7019 27.3602 47.7694 27.2095 47.8881C26.7584 48.1871 26.2775 48.4416 25.7741 48.6479C25.7029 48.6694 25.6374 48.7056 25.582 48.754C25.5266 48.8024 25.4827 48.8619 25.4533 48.9284C25.4239 48.9949 25.4098 49.0667 25.4118 49.139C25.4139 49.2113 25.4321 49.2822 25.4652 49.347C25.6448 49.9128 25.8943 50.4554 26.2082 50.9631C26.3655 51.2045 26.5839 51.403 26.8426 51.5395C27.1013 51.6761 27.3918 51.7463 27.6864 51.7433M13.3522 23.8409H13.3567C13.3567 23.415 13.3567 22.9898 13.3567 22.5639C13.3567 22.2159 13.4568 21.7607 13.0932 21.6004C12.7158 21.4338 12.3219 21.7364 11.9656 21.9069C11.8088 22.0039 11.6743 22.131 11.5703 22.2804C10.3102 23.7796 11.2377 25.3452 12.6111 25.8413C12.9991 25.9824 13.4417 25.9901 13.3627 25.319C13.3302 24.8271 13.3265 24.3339 13.3515 23.8416M42.2689 21.5525C42.2689 22.9164 42.2926 24.1915 42.257 25.4653C42.2432 25.9473 42.5205 25.8956 42.8202 25.8707C43.4509 25.5376 43.9812 25.051 44.359 24.459C44.7582 23.4412 44.0395 22.6712 43.7662 21.8028C43.7477 21.7441 43.556 21.6853 43.4671 21.7077C43.0605 21.7647 42.6456 21.7114 42.2689 21.5525Z" fill="black"/>
<path d="M13.8165 18.3198C12.3588 15.4708 11.737 12.5778 12.5702 9.60048C12.845 8.62071 13.3391 7.71165 14.0174 6.93795C14.6957 6.16425 15.5416 5.54491 16.4948 5.12397C17.349 4.69203 18.2926 4.45198 19.2555 4.42162C20.2146 4.41268 20.9991 3.84697 21.8244 3.43386C23.2534 2.75115 24.8084 2.35112 26.3986 2.25711C28.4029 2.13106 30.4125 2.10229 32.4199 2.17091C34.786 2.17348 37.0722 3.00099 38.861 4.50231C40.6498 6.00363 41.8218 8.07857 42.1629 10.3482C42.324 12.1209 42.106 13.9067 41.5226 15.5941C41.2462 16.2887 41.0958 17.0245 41.0779 17.7688C40.6122 17.6117 40.6208 17.1616 40.495 16.8609C40.0412 15.7754 39.6433 14.6702 39.2751 13.556C39.0819 13.1089 38.8608 12.6737 38.613 12.2528C38.4102 11.8218 38.0096 11.8352 37.6091 11.8352C33.8097 11.8352 30.0103 11.8352 26.2135 11.8352C25.3185 11.8487 24.4314 11.6696 23.6164 11.3108C22.8014 10.952 22.0787 10.4223 21.5004 9.76011C20.0664 8.20281 19.6599 8.25325 18.2727 9.88334C16.4982 11.9059 15.1486 14.2451 14.3 16.7695C14.1445 17.2491 14.0009 17.7324 13.8198 18.3173" fill="#B1897F"/>
<path d="M38.7947 21.557C39.0535 21.557 39.2827 21.5717 39.5093 21.5538C39.9046 21.5225 40.064 21.6936 40.0442 22.0646C39.9698 23.4693 39.9784 24.8778 39.9678 26.2749C39.9218 27.6627 39.6478 29.0346 39.1563 30.3389C38.7417 31.3861 38.1471 32.3576 37.3975 33.2122C36.19 34.6663 34.6587 35.8367 32.9183 36.6358C30.8645 37.6321 28.5468 37.9995 26.2725 37.6893C24.405 37.4737 22.6157 36.8365 21.0484 35.8288C19.4811 34.8212 18.1795 33.4711 17.2482 31.8873C16.1043 30.113 15.5206 28.0531 15.5691 25.9614C15.6054 24.6607 15.6054 23.3569 15.56 22.0569C15.5422 21.5404 15.7944 21.5634 16.1738 21.5372C16.6204 21.5059 16.6962 21.656 16.7048 22.062C16.7423 23.9041 17.4696 25.4461 19.2 26.2972C20.1591 26.7678 21.2973 27.3067 22.3743 26.898C23.4941 26.4741 24.7819 26.2647 25.5592 25.1677C26.2027 24.2699 26.5892 23.2227 26.679 22.1329C26.71 21.7798 26.7982 21.6534 27.146 21.6802C27.3305 21.6949 27.5162 21.6892 27.7013 21.6892C28.8632 21.6924 28.748 21.7141 28.9641 22.8014C29.1025 23.6515 29.459 24.4541 30.0009 25.1358C30.5319 25.8478 31.31 26.3504 32.1924 26.5513C32.4062 26.6175 32.6116 26.7066 32.805 26.817C32.9888 26.8993 33.164 27.034 33.3768 26.877C33.5148 26.7629 33.6906 26.7007 33.872 26.7019C34.0534 26.7031 34.2284 26.7675 34.3648 26.8834C34.4231 26.9187 34.4886 26.9415 34.5569 26.9501C34.6251 26.9587 34.6943 26.9529 34.76 26.9332C35.7936 26.5035 36.9068 26.218 37.6584 25.2935C38.3637 24.4336 38.8053 23.3988 38.933 22.3072C38.9171 22.0526 38.873 21.8005 38.8012 21.5551M27.7711 34.5051C28.3595 34.507 28.9419 34.3905 29.4814 34.1628C30.0209 33.9352 30.5057 33.6015 30.9052 33.1828C31.0636 33.0608 31.1758 32.8913 31.2241 32.7008C31.2723 32.5104 31.254 32.3098 31.172 32.1305C31.1215 31.9622 31.0274 31.8091 30.8988 31.6858C30.7702 31.5625 30.6112 31.4731 30.4369 31.426C30.2627 31.3789 30.0789 31.3756 29.903 31.4166C29.7271 31.4575 29.5649 31.5413 29.4317 31.66C28.6663 32.1848 27.8752 32.5813 26.9286 32.1708C26.6133 32.0046 26.3114 31.8155 26.0255 31.6051C25.9195 31.5197 25.7965 31.4564 25.6642 31.4193C25.5318 31.3821 25.3929 31.3719 25.2563 31.3891C25.1196 31.4064 24.9881 31.4508 24.87 31.5196C24.7518 31.5884 24.6497 31.6801 24.5698 31.7889C24.3941 32.0108 24.3109 32.2886 24.3368 32.5672C24.3626 32.8458 24.4957 33.1047 24.7094 33.2926C25.1095 33.6843 25.5871 33.9936 26.1136 34.2021C26.64 34.4106 27.2044 34.5138 27.7731 34.5058" fill="#F7CFBE"/>
<path d="M15.8906 19.3695C16.4242 16.8608 17.4976 14.4894 19.0406 12.4099C19.225 12.1583 19.5069 11.993 19.6275 11.6801C19.7316 11.4094 19.9173 11.4292 20.1544 11.6335C21.1116 12.5098 22.2461 13.1839 23.4861 13.6128C24.1834 13.8613 24.9174 13.9995 25.6599 14.0221C29.1557 14.0183 32.6515 14.047 36.1466 13.9991C36.4194 13.9679 36.6944 14.0363 36.9179 14.1911C37.1414 14.3459 37.2974 14.5759 37.3553 14.8362C37.9082 16.3456 38.4572 17.8567 39.0021 19.3695C38.7506 19.4479 38.4797 19.4448 38.2301 19.3607C37.9806 19.2766 37.766 19.1161 37.6188 18.9034C37.1982 18.4084 36.6723 18.0071 36.0771 17.727C35.4819 17.4469 34.8314 17.2945 34.1699 17.2804C33.4656 17.2363 32.7601 17.3452 32.105 17.5993C31.4498 17.8534 30.8614 18.2462 30.3829 18.7489C30.1043 18.9941 29.8518 19.2657 29.6293 19.5598C29.3981 19.9135 29.0062 19.5771 28.7638 19.5107C27.9858 19.3499 27.1778 19.392 26.422 19.6326C26.305 19.6719 26.1773 19.6692 26.0621 19.6251C25.947 19.5809 25.8519 19.4982 25.7943 19.3919C25.2788 18.6319 24.5518 18.0291 23.6974 17.6531C22.843 17.2772 21.8961 17.1435 20.9666 17.2676C20.422 17.2861 19.8881 17.4192 19.4019 17.6578C18.9158 17.8965 18.489 18.2348 18.1512 18.6493C17.5162 19.5177 16.7469 19.4532 15.8906 19.3695Z" fill="#F7CFBE"/>
<path d="M31.1421 22.101C31.1225 21.7543 31.1764 21.4073 31.3004 21.0816C31.4244 20.7558 31.6159 20.4581 31.8631 20.2069C32.1104 19.9556 32.4081 19.7561 32.7379 19.6206C33.0678 19.4852 33.4227 19.4166 33.7809 19.4193C35.1734 19.4831 36.7267 20.3528 36.5923 22.2855C36.5787 22.6363 36.4922 22.9809 36.3382 23.2986C36.1842 23.6164 35.9658 23.9008 35.6959 24.1349C35.426 24.3691 35.1103 24.5481 34.7674 24.6614C34.4246 24.7746 34.0618 24.8198 33.7006 24.7941C33.0007 24.7431 32.3471 24.4363 31.8719 23.9356C31.3968 23.435 31.1357 22.778 31.1415 22.0978" fill="#A1BEE0"/>
<path d="M24.4717 40.795C24.4717 39.6534 24.4763 39.6285 25.4875 39.7511C27.1156 39.981 28.7724 39.9367 30.3849 39.6202C30.9119 39.5084 31.1583 39.6285 31.1827 40.2855C31.2278 40.7009 31.1633 41.1207 30.9953 41.5054C30.8273 41.8901 30.5613 42.2272 30.2223 42.4851C29.5063 43.0883 28.8327 43.7372 28.2059 44.4274C27.8436 44.8105 27.6039 44.7665 27.2614 44.4127C26.5974 43.7257 25.9176 43.0502 25.1996 42.4174C24.6542 41.936 24.2827 41.4309 24.4717 40.795Z" fill="#F7CFBE"/>
<path d="M35.4569 43.6018C35.0255 44.4185 35.0565 45.3896 34.8444 46.3155C34.7034 46.9303 34.7567 47.5554 34.6467 48.176C34.5334 48.8114 34.2897 48.7258 33.884 48.4953C32.6153 47.7815 31.3539 47.0561 30.0733 46.3633C29.6946 46.1584 29.6887 45.9694 29.9581 45.7038C30.7762 44.8984 31.5965 44.0952 32.419 43.2941C32.4596 43.2407 32.5118 43.1966 32.5719 43.1649C32.632 43.1333 32.6985 43.1148 32.7668 43.1108C33.5309 43.1185 34.2943 43.1108 35.0584 43.1108C35.3489 43.1108 35.4721 43.2641 35.4536 43.5974" fill="#A1BEE0"/>
<path d="M20.1953 43.1114C21.0141 43.1114 21.7973 43.1197 22.5798 43.1063C22.6814 43.1044 22.7821 43.1246 22.8745 43.1655C22.9668 43.2064 23.0485 43.2669 23.1134 43.3426C23.9388 44.156 24.7661 44.9676 25.6113 45.7618C25.8636 45.9987 25.9261 46.1226 25.5665 46.3193C24.2141 47.0586 22.8776 47.8267 21.5312 48.577C21.2836 48.7149 21.2019 48.5904 21.1129 48.3433C20.9425 47.7121 20.8166 47.0704 20.7361 46.4227C20.5201 45.3507 20.3798 44.2646 20.196 43.1114" fill="#A1BEE0"/>
<path d="M27.685 51.7394C27.3905 51.7424 27.1001 51.6724 26.8414 51.5359C26.5827 51.3995 26.3643 51.2011 26.207 50.9598C25.8931 50.4521 25.6436 49.9095 25.4639 49.3438C25.4309 49.279 25.4128 49.2081 25.4108 49.1359C25.4088 49.0637 25.423 48.9919 25.4524 48.9255C25.4818 48.8591 25.5256 48.7997 25.5809 48.7513C25.6362 48.7029 25.7017 48.6668 25.7728 48.6453C26.2762 48.4389 26.757 48.1844 27.2081 47.8854C27.3589 47.7667 27.5456 47.6991 27.7398 47.693C27.9339 47.6868 28.1248 47.7426 28.2832 47.8516C28.8102 48.1466 29.3148 48.4901 29.8641 48.75C29.9256 48.7665 29.9818 48.7978 30.0277 48.8408C30.0735 48.8838 30.1075 48.9372 30.1267 48.9962C30.1458 49.0553 30.1494 49.1179 30.1371 49.1786C30.1249 49.2393 30.0971 49.2961 30.0565 49.3438C29.8792 49.6951 29.7367 50.062 29.6309 50.4394C29.5043 50.8361 29.2437 51.18 28.8912 51.4159C28.5386 51.6517 28.1146 51.7659 27.687 51.7401" fill="#B1897F"/>
<path d="M13.3522 23.8358C13.3271 24.3283 13.3308 24.8218 13.3633 25.3139C13.443 25.9849 12.9997 25.9773 12.6124 25.8362C11.2383 25.3375 10.3115 23.7745 11.5717 22.2753C11.6757 22.1259 11.8102 21.9988 11.9669 21.9017C12.3232 21.7313 12.7172 21.4286 13.0953 21.5953C13.4589 21.7562 13.3588 22.2108 13.3588 22.5588C13.3588 22.9846 13.3588 23.4099 13.3588 23.8358H13.3522Z" fill="#F7CFBE"/>
<path d="M42.2675 21.5461C42.6442 21.7049 43.0591 21.7589 43.4657 21.7019C43.5546 21.6789 43.7464 21.7383 43.7648 21.7971C44.0375 22.6648 44.7561 23.4355 44.3576 24.4532C43.9797 25.0452 43.4495 25.5318 42.8189 25.8649C42.5218 25.8898 42.2425 25.9409 42.2564 25.4595C42.2919 24.1857 42.2682 22.9106 42.2682 21.5468" fill="#F7CFBE"/>
<path d="M27.7639 34.5076C27.1953 34.5157 26.6308 34.4125 26.1043 34.204C25.5779 33.9955 25.1004 33.6862 24.7002 33.2945C24.4864 33.1067 24.3533 32.8477 24.3274 32.5691C24.3015 32.2905 24.3847 32.0127 24.5606 31.7908C24.6405 31.6821 24.7428 31.5904 24.8609 31.5217C24.979 31.453 25.1105 31.4086 25.2471 31.3913C25.3837 31.3741 25.5225 31.3843 25.6549 31.4214C25.7872 31.4585 25.9103 31.5217 26.0163 31.6069C26.3022 31.8174 26.6041 32.0065 26.9195 32.1727C27.8687 32.5845 28.6597 32.188 29.4225 31.6619C29.5557 31.5432 29.7179 31.4594 29.8938 31.4185C30.0697 31.3775 30.2535 31.3808 30.4277 31.4279C30.6019 31.475 30.7609 31.5644 30.8896 31.6877C31.0182 31.811 31.1122 31.9641 31.1628 32.1324C31.2448 32.3117 31.2631 32.5123 31.2148 32.7027C31.1665 32.8932 31.0545 33.0627 30.8961 33.1847C30.4965 33.6034 30.0116 33.9371 29.4721 34.1647C28.9326 34.3923 28.3503 34.5089 27.7619 34.507" fill="black"/>
</g>
<defs>
<clipPath id="clip0_119_53">
<rect width="69" height="69" fill="white"/>
</clipPath>
</defs>
</svg>
