<svg width="69" height="69" viewBox="0 0 69 69" fill="none" xmlns="http://www.w3.org/2000/svg">
<g clip-path="url(#clip0_119_37)">
<path d="M1.50546 48.3503C2.40925 48.4436 2.92448 48.8703 2.9655 49.5495C2.98871 49.9283 2.84921 50.3004 2.57664 50.5869C2.30407 50.8734 1.91982 51.0517 1.50546 51.0841C1.22766 51.0608 0.960627 50.9747 0.728432 50.8337C0.496237 50.6926 0.306137 50.501 0.175446 50.2762C-0.332761 49.3478 0.305512 48.4518 1.50546 48.3503Z" fill="black"/>
<path d="M48.5223 61.9445C48.5255 51.3268 48.523 40.7093 48.5146 30.092C48.5146 29.4991 48.662 29.1592 49.2981 28.9595C50.797 28.4883 52.1611 27.7216 53.6933 27.2999C54.741 27.0114 55.1735 26.2929 55.1763 25.2123C55.1805 22.7658 55.1805 20.319 55.1763 17.8721C55.1763 17.4726 55.1415 17.2563 55.7554 17.4757C58.9061 18.5988 62.0819 19.668 65.2487 20.7473C65.5587 20.8526 65.658 20.8456 65.5009 21.259C65.1157 22.2737 64.5973 23.2433 64.3143 24.3086C64.1219 24.8559 63.8896 25.3908 63.6191 25.9099C63.2207 26.804 62.9022 27.7578 62.517 28.6513C62.0484 29.7388 61.5681 30.8302 61.1093 31.9247C60.0553 34.4378 58.954 36.9345 57.9745 39.4748C56.9066 42.2327 55.7158 44.9507 54.5882 47.6902C53.2589 50.9205 51.9665 54.1635 50.6052 57.3824C49.9601 58.9076 49.2543 60.4105 48.735 61.9775L48.5216 61.9451" fill="white"/>
<path d="M55.1785 12.6062C55.2017 12.2033 55.1983 11.7994 55.1682 11.3969C55.0986 10.8832 55.2717 10.7767 55.8084 10.9105C57.6855 11.3785 59.5717 11.8154 61.455 12.2631C61.5153 12.2703 61.5728 12.2903 61.6231 12.3216C61.6733 12.3528 61.7148 12.3945 61.7441 12.4431C61.7733 12.4917 61.7896 12.546 61.7916 12.6014C61.7936 12.6569 61.7811 12.712 61.7553 12.7622C61.4591 13.787 61.149 14.8086 60.8744 15.8384C60.7715 16.2246 60.4831 16.2189 60.2029 16.1378C58.729 15.7072 57.2538 15.276 55.8001 14.7915C55.5879 14.7414 55.4045 14.6197 55.2868 14.451C55.1691 14.2824 55.1259 14.0793 55.166 13.8827C55.205 13.4583 55.2095 13.0318 55.1792 12.6068" fill="white"/>
<path d="M21.729 4.95778C21.8583 4.4809 21.9772 4.06237 22.0843 3.64193C22.2024 3.17837 22.377 3.03188 22.9881 3.18852C25.3845 3.80237 27.8101 4.32427 30.2107 4.95778H21.729Z" fill="white"/>
<path d="M48.5221 61.9452L48.7355 61.9775C48.7438 62.1386 48.7278 62.3282 48.506 62.2895C48.4094 62.2724 48.4366 62.0625 48.5221 61.9452Z" fill="#7F6D47"/>
<path d="M22.1659 0C22.8166 0.646193 23.7697 0.57073 24.5803 0.781266C27.8937 1.62848 31.2379 2.37551 34.5687 3.16628C37.0513 3.75604 39.5304 4.35848 42.0138 4.94569C42.2302 4.98323 42.4508 4.99601 42.6706 4.98374C46.0916 4.98586 49.5125 4.98691 52.933 4.98691C53.2687 4.97925 53.6037 5.01729 53.9271 5.09979C54.8413 5.34901 55.0985 5.60203 55.1089 6.47271C55.1228 7.98768 55.1243 7.98134 56.7275 8.35866C59.1816 8.937 61.634 9.52062 64.0848 10.1095C64.4127 10.2076 64.6927 10.407 64.8766 10.6733C65.0605 10.9395 65.1369 11.256 65.0924 11.5681C64.6154 13.305 64.1837 15.0559 63.624 16.768C63.4579 17.2754 63.7143 17.3667 64.041 17.4808C65.2549 17.9101 66.4779 18.3185 67.7015 18.7257C68.9925 19.1556 69.2629 19.7301 68.7805 20.8862C67.5597 23.809 66.4015 26.7533 65.1362 29.6602C64.6996 30.6647 64.1628 31.6647 63.8041 32.6705C63.006 34.9052 62.059 37.0848 61.1726 39.2859C60.0776 42.0089 58.9514 44.7224 57.8321 47.4372C56.7844 49.9776 55.7923 52.5401 54.6306 55.0368C54.3407 55.6582 54.0085 56.3222 53.7589 56.9392C53.4807 57.4647 53.2773 58.0205 53.1539 58.5931C52.9984 59.3329 52.7432 60.0524 52.3941 60.7352C51.4374 63.0633 50.4718 65.3885 49.4971 67.7108C49.4104 68.1133 49.1587 68.4705 48.7932 68.7096C48.4277 68.9487 47.9762 69.0517 47.5304 68.9975C32.2972 68.9734 17.0636 68.9681 1.82996 68.9816C0.62028 68.9816 0.099631 68.565 0.0961549 67.4787C0.0822505 63.5732 0.0858674 59.6677 0.107187 55.7622C0.112054 54.8332 0.502814 54.4939 1.51019 54.4109C2.59543 54.5231 3.03964 55.0076 3.03964 56.1453C3.04798 59.2881 3.06188 62.4315 3.02572 65.5737C3.01877 66.1673 3.18358 66.3023 3.82805 66.3017C17.4877 66.2827 31.1471 66.2827 44.8064 66.3017C45.4814 66.3017 45.5928 66.1254 45.5921 65.5598C45.574 53.4818 45.5693 41.4039 45.5781 29.326C45.5781 29.1916 45.5865 29.0559 45.5781 28.9221C45.4814 28.5197 45.5567 28.0989 45.7884 27.7454C46.0202 27.3919 46.391 27.1323 46.8253 27.0196C48.3972 26.3937 49.9644 25.7583 51.5425 25.1451C51.7692 25.0827 51.9644 24.949 52.0933 24.7677C52.2222 24.5865 52.2766 24.3695 52.2467 24.1552C52.2157 18.9019 52.2157 13.6489 52.2467 8.39607C52.2467 7.81964 52.1173 7.6592 51.4541 7.65983C35.5799 7.6797 19.7057 7.6797 3.83144 7.65983C3.17932 7.65983 3.03335 7.80505 3.03404 8.391C3.05536 19.7278 3.05958 31.0648 3.0466 42.4021C3.0466 42.7141 2.95977 43.0286 2.9855 43.3368C3.06753 44.3254 2.45502 44.7839 1.51647 45.016C1.32134 45.0072 1.13008 44.9631 0.953809 44.8863C0.777534 44.8095 0.619686 44.7014 0.489593 44.5685C0.3595 44.4356 0.259698 44.2803 0.195957 44.1119C0.132216 43.9435 0.105895 43.7651 0.11839 43.5873C0.104485 43.2962 0.0961549 43.0045 0.0961549 42.7134C0.0961549 30.9074 0.0961549 19.1013 0.0961549 7.2952C0.0961549 7.00392 0.10145 6.71263 0.11211 6.42135C0.0923318 6.22196 0.122092 6.02107 0.199182 5.83362C0.276272 5.64617 0.398647 5.47698 0.557316 5.33865C0.715985 5.20032 0.906786 5.0964 1.11556 5.03463C1.32434 4.97285 1.54578 4.95481 1.76326 4.98184C3.65774 4.97613 5.55293 4.98184 7.44741 4.98184C10.8922 4.98184 14.3377 4.95901 17.7819 5.00023C18.5077 5.00911 18.8101 4.81506 18.9415 4.17584C19.1438 3.20053 19.4282 2.23916 19.7 1.27717C19.7542 0.993397 19.8872 0.727023 20.0863 0.503446C20.2854 0.27987 20.544 0.106545 20.8374 0H22.1659ZM48.5232 61.9451C48.4383 62.0625 48.4104 62.2724 48.507 62.2895C48.7288 62.3282 48.7455 62.1379 48.7365 61.9775C49.2551 60.4105 49.9614 58.9076 50.6066 57.3825C51.9679 54.1636 53.261 50.9205 54.5895 47.6902C55.7172 44.9513 56.9075 42.2328 57.976 39.4749C58.9591 36.9383 60.0568 34.4379 61.1115 31.9247C61.571 30.8302 62.0507 29.7388 62.5192 28.6513C62.9044 27.7571 63.2228 26.8034 63.6211 25.9099C63.8918 25.3909 64.1241 24.856 64.3164 24.3087C64.5944 23.2433 65.1173 22.2743 65.5038 21.2591C65.6609 20.8456 65.5616 20.8532 65.2516 20.7473C62.0828 19.6693 58.9091 18.5988 55.7583 17.4758C55.1444 17.257 55.1778 17.4758 55.1792 17.8721C55.1866 20.3186 55.1866 22.7654 55.1792 25.2123C55.1792 26.2904 54.7453 27.0114 53.6962 27.2999C52.1668 27.7216 50.7999 28.4883 49.301 28.9595C48.6649 29.1592 48.5162 29.4991 48.5176 30.0921C48.5366 40.7093 48.5391 51.3268 48.5252 61.9445M55.1812 12.6081C55.2108 13.0331 55.2062 13.4595 55.1673 13.884C55.127 14.0805 55.1701 14.2837 55.2878 14.4524C55.4055 14.6211 55.5892 14.7427 55.8014 14.7927C57.2551 15.2772 58.7304 15.7084 60.2043 16.139C60.4824 16.2208 60.7721 16.2259 60.875 15.8397C61.1531 14.8104 61.4605 13.7882 61.7566 12.7634C61.7824 12.7132 61.7947 12.6581 61.7928 12.6027C61.7908 12.5472 61.7747 12.493 61.7454 12.4443C61.7162 12.3957 61.6746 12.3541 61.6244 12.3228C61.5742 12.2915 61.5165 12.2715 61.4562 12.2644C59.5728 11.8173 57.6868 11.3766 55.8097 10.9117C55.273 10.7779 55.1012 10.8845 55.17 11.3981C55.1995 11.8007 55.2033 12.2045 55.1812 12.6074M21.7293 4.95774H30.211C27.8104 4.3236 25.3848 3.80233 22.9884 3.18848C22.3773 3.03248 22.2027 3.17833 22.0846 3.64189C21.9768 4.06233 21.8593 4.48087 21.7293 4.95774Z" fill="black"/>
<path d="M1.50524 45.0237C2.44448 44.7916 3.0563 44.3331 2.97427 43.3445C2.94855 43.0363 3.03537 42.7217 3.03537 42.4097C3.03908 31.0725 3.03525 19.7355 3.02366 8.39865C3.02366 7.8127 3.16826 7.66685 3.82038 7.66748C19.6951 7.68651 35.5693 7.68651 51.443 7.66748C52.1063 7.66748 52.2376 7.82729 52.2355 8.40372C52.2096 13.657 52.2096 18.9102 52.2355 24.1635C52.2655 24.3777 52.2114 24.5947 52.0826 24.776C51.9538 24.9572 51.7586 25.0909 51.532 25.1534C49.9538 25.7666 48.3868 26.402 46.815 27.0279C46.3807 27.1406 46.0099 27.4002 45.7784 27.7538C45.5469 28.1073 45.472 28.5282 45.5691 28.9304C45.5789 29.0648 45.5691 29.1999 45.5691 29.3343C45.5691 41.4122 45.5738 53.4899 45.583 65.5674C45.583 66.1324 45.4724 66.3106 44.7974 66.3094C31.1376 66.2874 17.478 66.2874 3.81834 66.3094C3.17387 66.3094 3.00977 66.1756 3.01602 65.582C3.05217 62.4392 3.03828 59.2964 3.02994 56.1535C3.02994 55.0159 2.58434 54.5314 1.50049 54.4192C1.50049 53.3094 1.50049 52.1994 1.50049 51.0893C1.91485 51.0569 2.29893 50.8785 2.5715 50.592C2.84406 50.3055 2.98357 49.9334 2.96035 49.5546C2.92211 48.8755 2.40428 48.4487 1.50049 48.3555C1.50049 47.2457 1.50049 46.1357 1.50049 45.0256M24.483 13.7477C20.5611 13.6856 16.7676 15.0221 13.9096 17.4727C11.0516 19.9232 9.35488 23.2944 9.18051 26.8687C9.07351 28.7189 9.3738 30.5699 10.0636 32.3125C10.7534 34.0551 11.8189 35.654 13.197 37.015C14.5752 38.376 16.2381 39.4715 18.0879 40.2368C19.9376 41.0021 21.9368 41.4219 23.9672 41.4712C26.0407 41.4967 28.0985 41.14 30.0173 40.4226C31.9361 39.7052 33.6764 38.6419 35.1338 37.2963C36.5913 35.9507 37.7361 34.3506 38.4993 32.5918C39.2625 30.833 39.6285 28.9518 39.5756 27.0609C39.4255 23.4954 37.772 20.1204 34.96 17.64C32.1481 15.1595 28.3947 13.7651 24.483 13.7477ZM16.0013 63.5997C17.7957 63.5997 19.5894 63.594 21.383 63.6047C21.7227 63.6356 22.0624 63.5474 22.3334 63.3581C22.5833 63.2205 22.7792 63.0144 22.8928 62.7691C23.0064 62.5239 23.0321 62.2521 22.9661 61.9927C22.891 61.6654 22.6866 61.3746 22.3917 61.1759C22.0969 60.9771 21.7322 60.8841 21.3671 60.9147C17.7056 60.8927 14.044 60.8927 10.3825 60.9147C9.47042 60.9204 8.99208 61.4854 9.01502 62.3612C9.01526 62.5316 9.05404 62.7001 9.12891 62.8562C9.20378 63.0123 9.3132 63.1526 9.45021 63.2685C9.58723 63.3843 9.74896 63.4731 9.92529 63.5293C10.1016 63.5855 10.2888 63.608 10.4751 63.5952C12.3181 63.5997 14.1596 63.5952 16.0047 63.5952M32.7248 63.5952C34.5428 63.5952 36.3615 63.6041 38.1795 63.5914C38.3772 63.6027 38.5754 63.5773 38.762 63.517C38.9487 63.4566 39.1199 63.3624 39.2656 63.2401C39.4114 63.1177 39.5286 62.9698 39.61 62.8052C39.6915 62.6405 39.7356 62.4625 39.7397 62.2819C39.7474 62.1012 39.7145 61.9211 39.6429 61.7524C39.5714 61.5838 39.4628 61.4304 39.3237 61.3016C39.1846 61.1727 39.0181 61.0713 38.8343 61.0034C38.6506 60.9356 38.4535 60.9028 38.2554 60.9071C34.643 60.8927 31.0309 60.8927 27.419 60.9071C26.468 60.9122 25.9756 61.4696 26.0055 62.3821C26.0093 62.5525 26.0516 62.7204 26.1297 62.8752C26.2079 63.03 26.3201 63.1684 26.4595 63.2819C26.599 63.3953 26.7625 63.4813 26.94 63.5345C27.1176 63.5876 27.3052 63.6068 27.4912 63.5908C29.2355 63.594 30.9805 63.5908 32.7255 63.5908M24.3829 58.2006C26.0292 58.2006 27.677 58.2063 29.3239 58.2006C29.5227 58.2173 29.7229 58.1961 29.9122 58.1384C30.1015 58.0806 30.2755 57.9876 30.4233 57.8653C30.571 57.7429 30.6893 57.5938 30.7706 57.4275C30.8518 57.2612 30.8942 57.0813 30.8951 56.8993C30.9082 56.7166 30.8787 56.5335 30.8087 56.362C30.7388 56.1904 30.6299 56.0343 30.4891 55.9038C30.3484 55.7733 30.1791 55.6715 29.9922 55.6049C29.8052 55.5383 29.605 55.5085 29.4046 55.5175C26.0369 55.4955 22.6687 55.4955 19.3001 55.5175C18.3483 55.5226 17.8493 56.0844 17.884 56.9893C17.8871 57.1598 17.9287 57.3278 18.0064 57.4829C18.0841 57.638 18.1961 57.7767 18.3353 57.8904C18.4746 58.0042 18.6382 58.0904 18.8157 58.1438C18.9932 58.1972 19.1809 58.2165 19.367 58.2006C21.0355 58.2037 22.7102 58.2006 24.3829 58.2006Z" fill="#FFDA8F"/>
<path d="M24.4887 13.7432C28.4004 13.7606 32.1537 15.155 34.9657 17.6355C37.7777 20.1159 39.4311 23.4909 39.5812 27.0564C39.6342 28.9473 39.2681 30.8284 38.5049 32.5872C37.7418 34.3459 36.5972 35.946 35.1398 37.2916C33.6825 38.6371 31.9422 39.7005 30.0234 40.4179C28.1047 41.1353 26.047 41.4921 23.9735 41.4667C21.943 41.4174 19.9439 40.9978 18.094 40.2325C16.2442 39.4672 14.5811 38.3717 13.2029 37.0107C11.8246 35.6497 10.7591 34.0507 10.0693 32.3081C9.37941 30.5654 9.07916 28.7144 9.18617 26.8642C9.36054 23.2899 11.0573 19.9187 13.9152 17.4682C16.7732 15.0176 20.5668 13.6811 24.4887 13.7432ZM35.6504 31.7598C36.2163 31.08 36.233 30.2633 36.4478 29.4959C36.8173 27.8235 36.7385 26.0944 36.2178 24.4558C35.9495 23.3993 35.4453 22.4046 34.7369 21.5336C33.9029 20.4419 32.8953 19.4694 31.7474 18.6483C30.2932 17.612 28.5881 16.9086 26.7746 16.5968C25.1443 16.3083 23.4681 16.31 21.8385 16.6019C19.9075 16.9584 18.1019 17.7419 16.5805 18.8836C15.0591 20.0254 13.8683 21.4904 13.1127 23.1501C11.9711 25.4755 11.782 28.0973 12.5796 30.5391C12.661 30.801 12.5795 31.1815 12.8805 31.3159C13.2219 31.47 13.4215 31.0578 13.7316 30.9887C13.8706 30.9583 13.9965 30.9012 14.1299 30.8619C15.4314 30.4567 16.7355 30.0591 18.0314 29.6405C18.3095 29.5517 18.5474 29.4909 18.3882 29.0457C17.9718 28.0085 17.7859 26.9061 17.8416 25.8027C17.8974 24.6993 18.1935 23.6171 18.7127 22.6193C19.209 21.7159 19.9159 20.9224 20.7838 20.2945C21.3948 19.8486 22.0981 19.5194 22.8516 19.3265C23.6051 19.1337 24.3933 19.0811 25.1695 19.172C25.9457 19.2629 26.6939 19.4954 27.3695 19.8556C28.0452 20.2157 28.6344 20.6963 29.1021 21.2685C29.79 22.0632 30.2991 22.9739 30.6004 23.9483C30.9016 24.9228 30.9891 25.942 30.8577 26.9473C30.8732 27.6905 30.6973 28.4266 30.3439 29.0964C30.0589 29.4896 30.1471 29.5403 30.5691 29.6627C31.6773 29.9887 32.7709 30.3558 33.8638 30.7236C34.5472 30.9532 35.3522 31.0185 35.6497 31.7624M32.7994 34.616C32.7994 34.1626 32.7728 33.8684 32.8055 33.5798C32.841 33.2729 32.7014 33.1829 32.3934 33.0934C31.1239 32.7237 29.8648 32.323 28.6106 31.9101C28.3624 31.8283 28.2025 31.7751 27.9598 31.9545C26.967 32.72 25.7124 33.1455 24.4125 33.1577C23.1125 33.1698 21.8486 32.7679 20.8388 32.0211C20.7032 31.9121 20.5351 31.8427 20.3559 31.8218C20.1767 31.8009 19.9947 31.8295 19.8334 31.9038C18.8872 32.264 17.9029 32.5379 16.9324 32.8449C15.8124 33.1981 15.8665 33.1993 15.7942 34.2666C15.719 34.6482 15.7625 35.0415 15.9198 35.4017C16.077 35.7619 16.3418 36.0748 16.6841 36.3047C19.312 38.022 22.1284 39.036 25.4641 38.7037C27.3008 38.5502 29.0733 38.0098 30.6421 37.1253C31.678 36.5254 33.2713 36.1342 32.7972 34.616M20.8214 25.4209C20.8312 27.3976 21.0132 28.0342 21.7008 28.9664C21.961 29.415 22.3505 29.7903 22.8272 30.052C23.3038 30.3136 23.8497 30.4518 24.406 30.4516C24.9507 30.4204 25.4783 30.2658 25.9409 30.0017C26.4035 29.7376 26.7865 29.3724 27.0553 28.9392C27.7442 27.9922 28.067 26.8627 27.9726 25.7296C27.8781 24.5964 27.3718 23.5244 26.5339 22.6833C26.0828 22.2035 25.4533 21.8928 24.7662 21.8109C24.0791 21.7289 23.3829 21.8816 22.8117 22.2394C22.2324 22.5932 21.7513 23.065 21.406 23.6174C21.0607 24.1698 20.8608 24.7879 20.8221 25.4228" fill="black"/>
<path d="M16.0102 63.5932C14.1665 63.5932 12.3257 63.5932 10.4805 63.5932C10.2943 63.6059 10.1071 63.5834 9.93078 63.5271C9.75449 63.4708 9.59287 63.382 9.45587 63.2662C9.31888 63.1504 9.20947 63.0101 9.13457 62.8541C9.05967 62.698 9.02086 62.5296 9.02051 62.3592C8.99479 61.4847 9.47591 60.9184 10.388 60.9127C14.0495 60.8895 17.7111 60.8895 21.3726 60.9127C21.7376 60.8824 22.1021 60.9755 22.3969 61.1742C22.6917 61.373 22.8963 61.6635 22.9716 61.9908C23.0374 62.2501 23.0116 62.5218 22.8979 62.767C22.7843 63.0122 22.5886 63.2184 22.3389 63.3561C22.0677 63.5454 21.7277 63.6336 21.3878 63.6027C19.5942 63.592 17.7998 63.5977 16.0062 63.5958" fill="black"/>
<path d="M32.7295 63.5939C30.9845 63.5939 29.2395 63.5939 27.4952 63.5939C27.3092 63.6099 27.1216 63.5907 26.9441 63.5375C26.7666 63.4844 26.603 63.3984 26.4636 63.285C26.3241 63.1715 26.2119 63.0331 26.1338 62.8782C26.0557 62.7234 26.0133 62.5556 26.0095 62.3852C25.9803 61.4733 26.4725 60.9152 27.4236 60.9108C31.035 60.8922 34.6473 60.8922 38.2601 60.9108C38.4582 60.9065 38.6553 60.9393 38.839 61.0071C39.0228 61.075 39.1893 61.1764 39.3284 61.3053C39.4675 61.4341 39.5761 61.5875 39.6476 61.7562C39.7192 61.9248 39.7521 62.105 39.7444 62.2856C39.7403 62.4662 39.6961 62.6441 39.6147 62.8087C39.5333 62.9733 39.4163 63.1212 39.2707 63.2435C39.125 63.3659 38.9538 63.4601 38.7672 63.5205C38.5807 63.5809 38.3825 63.6063 38.1849 63.5951C36.3662 63.6078 34.5476 63.5989 32.7295 63.5951" fill="black"/>
<path d="M24.3843 58.2043C22.7123 58.2043 21.0409 58.2043 19.3689 58.2043C19.1828 58.2202 18.9951 58.2009 18.8176 58.1475C18.6401 58.0942 18.4767 58.0079 18.3375 57.8942C18.1982 57.7804 18.0862 57.6417 18.0085 57.4866C17.9309 57.3316 17.8891 57.1635 17.886 56.9931C17.8512 56.0882 18.3505 55.5269 19.3022 55.5212C22.6713 55.5022 26.0393 55.5022 29.4065 55.5212C29.6069 55.5123 29.8072 55.542 29.9941 55.6086C30.1811 55.6752 30.3505 55.777 30.4913 55.9075C30.632 56.038 30.7409 56.1941 30.8109 56.3657C30.8808 56.5373 30.9102 56.7204 30.8971 56.903C30.8962 57.0851 30.8537 57.2649 30.7725 57.4312C30.6913 57.5975 30.5732 57.7465 30.4254 57.8688C30.2776 57.9911 30.1035 58.0841 29.9142 58.1417C29.7249 58.1994 29.5246 58.2205 29.3259 58.2037C27.6782 58.2119 26.0313 58.2037 24.3843 58.2037" fill="black"/>
<path d="M35.6504 31.7598C35.3529 31.016 34.5479 30.9513 33.8645 30.7211C32.7716 30.3533 31.678 29.9861 30.5699 29.6602C30.1472 29.5333 30.0589 29.4864 30.3446 29.0939C30.6979 28.424 30.8741 27.688 30.8591 26.9448C30.9901 25.9393 30.9024 24.9202 30.6009 23.9457C30.2994 22.9713 29.7901 22.0606 29.1022 21.266C28.6345 20.6938 28.0453 20.2132 27.3697 19.8531C26.6942 19.4929 25.9461 19.2604 25.17 19.1695C24.3939 19.0786 23.6056 19.1312 22.8522 19.324C22.0987 19.5168 21.3956 19.846 20.7847 20.292C19.9168 20.9199 19.2099 21.7134 18.7136 22.6167C18.1942 23.6145 17.8979 24.6967 17.842 25.8001C17.7861 26.9035 17.9718 28.0059 18.3882 29.0432C18.5474 29.4871 18.3069 29.5505 18.0323 29.638C16.7357 30.0565 15.4321 30.4535 14.1307 30.8593C13.9979 30.9012 13.8686 30.9583 13.7323 30.9862C13.4222 31.0553 13.2226 31.4669 12.8813 31.3128C12.5844 31.1783 12.6617 30.7985 12.5803 30.5366C11.7837 28.0946 11.9728 25.4731 13.1135 23.1475C13.8693 21.488 15.0604 20.0231 16.5819 18.8815C18.1034 17.7398 19.9089 16.9564 21.8399 16.6C23.4695 16.3082 25.1457 16.3065 26.776 16.5949C28.5892 16.9068 30.2942 17.6103 31.7483 18.6464C32.8961 19.4677 33.9034 20.4401 34.7376 21.5317C35.446 22.4026 35.9502 23.3974 36.2185 24.4538C36.739 26.0925 36.8176 27.8216 36.4478 29.494C36.233 30.2613 36.2163 31.0794 35.6504 31.7579" fill="#DFEDFF"/>
<path d="M32.8008 34.6154C33.2735 36.1335 31.6802 36.5248 30.6457 37.1247C29.0771 38.0093 27.3048 38.5496 25.4684 38.7031C22.1313 39.0354 19.3156 38.0208 16.6883 36.3041C16.3461 36.0741 16.0815 35.7613 15.9242 35.4011C15.7669 35.0408 15.7234 34.6476 15.7986 34.266C15.8681 33.1987 15.8166 33.1968 16.9366 32.8442C17.9099 32.5386 18.8922 32.2634 19.8377 31.9032C19.999 31.8287 20.1811 31.8001 20.3605 31.821C20.5398 31.8419 20.7081 31.9114 20.8437 32.0205C21.8536 32.7672 23.1174 33.1692 24.4174 33.157C25.7174 33.1449 26.9721 32.7194 27.9649 31.9539C28.2076 31.7744 28.3673 31.8271 28.6155 31.9095C29.8669 32.3223 31.1289 32.7238 32.3983 33.0935C32.7063 33.1829 32.8461 33.2729 32.8106 33.5798C32.7772 33.8684 32.803 34.1626 32.803 34.616" fill="#EAAACB"/>
<path d="M20.8262 25.4196C20.8647 24.7847 21.0644 24.1665 21.4097 23.6141C21.755 23.0616 22.2365 22.5899 22.8159 22.2362C23.3872 21.8782 24.0833 21.7254 24.7706 21.8074C25.4578 21.8893 26.0877 22.2002 26.5388 22.6801C27.3766 23.5212 27.8829 24.5932 27.9773 25.7264C28.0718 26.8595 27.749 27.989 27.0602 28.936C26.7914 29.3692 26.4083 29.7344 25.9456 29.9985C25.483 30.2626 24.9554 30.4172 24.4107 30.4484C23.8544 30.4486 23.3085 30.3105 22.8319 30.0488C22.3552 29.7871 21.9658 29.4118 21.7056 28.9632C21.018 28.0304 20.8359 27.3944 20.8269 25.4177" fill="#EAAACB"/>
</g>
<defs>
<clipPath id="clip0_119_37">
<rect width="69" height="69" fill="white"/>
</clipPath>
</defs>
</svg>
