<svg width="69" height="69" viewBox="0 0 69 69" fill="none" xmlns="http://www.w3.org/2000/svg">
<path d="M68.0731 40.4082H48.66C49.1055 41.2627 49.5319 42.0479 49.9299 42.8486C50.7331 44.4956 51.2642 46.2736 51.5006 48.1068C51.689 49.1073 51.7717 50.1265 51.7473 51.146C51.6594 52.9753 51.356 54.7862 50.8444 56.5375C49.8981 59.5971 48.1824 62.3321 45.878 64.4543C45.0757 65.2026 44.2864 66.037 43.1731 66.3218C43.1164 66.3367 43.038 66.3691 43.0189 66.4157C42.9178 66.6217 42.7686 66.7974 42.5851 66.9264C42.4016 67.0554 42.1899 67.1333 41.9698 67.153C41.3589 67.3548 40.7714 67.6277 40.2184 67.9666C37.886 68.8388 35.3999 69.1649 32.9346 68.922C30.4693 68.6791 28.0844 67.8731 25.9476 66.5607C24.4391 65.6681 23.0601 64.5538 21.8525 63.2516C19.6339 60.7933 18.1309 57.7214 17.5203 54.3975C17.259 53.1795 17.1348 51.9335 17.1501 50.6851C17.219 48.4891 17.6146 46.3179 18.3226 44.2501C18.8064 42.8868 19.6358 41.7579 20.327 40.4199H19.6154C13.5973 40.4199 7.57914 40.4199 1.56064 40.4199C1.31324 40.4377 1.06474 40.4251 0.820136 40.3823C0.586765 40.3582 0.371529 40.2396 0.220047 40.0519C0.0685651 39.8641 -0.0073742 39.6218 0.00851719 39.3764C0.0264135 37.068 -0.0339817 34.7578 0.0308152 32.45C0.117628 31.1346 0.505878 29.8607 1.16259 28.7364C1.76513 27.5452 2.59379 26.4961 3.5976 25.6536C4.60141 24.8112 5.75912 24.1933 6.99925 23.8381C7.36335 23.7293 7.92187 23.8627 8.05208 23.4885C8.18661 23.1001 7.67128 22.8205 7.46887 22.4729C6.64808 21.1767 6.20649 19.6571 6.19848 18.1011C6.19048 16.5451 6.61641 15.0206 7.42382 13.7153C7.97249 12.7351 8.71525 11.8898 9.60195 11.2364C10.4886 10.583 11.4985 10.1368 12.5637 9.92778C14.1076 9.59614 15.7116 9.77183 17.1569 10.4309C18.6022 11.09 19.8187 12.2005 20.6405 13.611C21.1788 14.5172 21.5494 15.5217 21.7328 16.5719C22.1134 18.7156 21.6721 20.9301 20.5048 22.7344C20.2641 23.1086 20.0931 23.5112 20.7589 23.7093C21.4248 23.9073 22.0549 24.2012 22.7066 24.4453C23.0151 24.5618 23.3083 24.3559 23.5965 24.3054C24.769 24.1002 25.984 24.3559 27.13 23.9171C27.7774 23.7237 28.3797 23.3917 28.8988 22.9422C29.0169 22.8552 29.1138 22.7403 29.1816 22.6066C29.2494 22.473 29.2862 22.3245 29.289 22.1731C29.2918 22.0218 29.2606 21.8718 29.1979 21.7355C29.1351 21.5992 29.0425 21.4804 28.9277 21.3886C27.8122 20.3081 27.0353 18.8981 26.6999 17.3448C26.619 16.9907 26.416 16.9933 26.1587 16.981C25.6527 16.9542 25.1719 16.7421 24.7997 16.3815C24.4276 16.021 24.1877 15.5349 24.1222 15.008C24.0541 13.9738 24.0434 12.9363 24.0901 11.9008C24.0952 11.5638 24.1832 11.2339 24.3453 10.943C24.5075 10.652 24.7384 10.4098 25.0158 10.2398C25.1706 10.1606 25.2985 10.0333 25.3819 9.87517C25.4652 9.71706 25.5001 9.53585 25.4818 9.3562C25.4003 8.19213 25.5813 7.0243 26.0101 5.94727C26.439 4.87024 27.1036 3.91428 27.9502 3.1568C28.5143 2.61888 28.5507 1.72233 29.2153 1.24461C29.9357 0.661526 30.7848 0.278572 31.6838 0.131219C33.1069 -0.00207221 34.5369 -0.0338643 35.9641 0.0360621C38.7059 0.0878479 40.9398 1.20124 42.4215 3.72191C43.1101 4.97682 43.4798 6.39622 43.4953 7.84406C43.5132 8.19685 43.5033 8.55093 43.4953 8.90372C43.4842 9.52774 43.4175 10.1297 44.1198 10.4968C44.3098 10.635 44.4676 10.8163 44.5815 11.0274C44.6954 11.2384 44.7625 11.4737 44.7777 11.7157C45.0793 12.9623 45.0496 14.2717 44.6918 15.5019C44.5325 15.9217 44.2606 16.2841 43.9088 16.545C43.5571 16.8059 43.1408 16.9543 42.7103 16.9719C42.3629 17.0088 42.2419 17.1066 42.1648 17.4969C41.8481 18.9416 41.1199 20.2511 40.077 21.2514C39.3865 21.9589 39.4452 22.6146 40.2401 23.1888C41.161 23.8028 42.2215 24.1479 43.3121 24.1883C43.9119 24.1851 44.5111 24.2284 45.1048 24.3177C46.3754 24.622 47.4719 23.7792 48.6777 23.6025C48.8728 23.574 48.7932 23.3215 48.671 23.1558C48.0332 22.3025 47.563 21.325 47.2876 20.2799C47.0122 19.2348 46.9371 18.1429 47.0666 17.0671C47.2143 15.8151 47.6418 14.6174 48.3144 13.5716C49.0056 12.405 49.9662 11.4403 51.1073 10.7667C52.4886 9.95109 54.0893 9.64048 55.6573 9.88377C57.3602 10.0638 58.9585 10.8291 60.2037 12.0607C61.4489 13.2923 62.2712 14.9211 62.5425 16.6936C62.9676 19.2628 62.2283 21.4734 60.73 23.5487C62.103 23.8035 63.4138 24.3428 64.5857 25.1353C65.6646 25.871 66.5898 26.8289 67.3052 27.9508C68.0206 29.0728 68.5113 30.3354 68.7476 31.6623C68.7828 31.8493 68.7754 32.1225 69 32.2481V39.88C68.6415 39.7984 68.6482 40.1933 68.4612 40.3331C68.3304 40.3461 68.1743 40.214 68.0737 40.4056M42.7603 12.174C42.6116 11.9947 42.4796 11.9953 42.4753 12.2549C42.4596 12.9985 42.4596 13.7425 42.4753 14.4869C42.4796 14.727 42.5986 14.7691 42.7609 14.5781C42.9543 13.7898 42.9543 12.963 42.7609 12.1746M50.6901 38.1523C50.7679 38.175 50.8229 38.1659 50.8093 38.0597C50.9023 36.2267 50.8956 34.3897 50.789 32.5575C50.7298 31.617 50.4525 30.7059 49.9811 29.9035C49.388 28.8164 48.5222 27.9206 47.4777 27.3134C46.4333 26.7063 45.2501 26.411 44.0569 26.4597C43.0665 26.466 42.0809 26.315 41.1336 26.0118C40.7788 25.8985 40.6966 26.0293 40.5781 26.2888C40.0881 27.3569 39.5982 28.425 39.0922 29.484C39.0342 29.6798 38.9279 29.8561 38.7842 29.9951C38.6405 30.134 38.4645 30.2307 38.2738 30.2755C38.083 30.3202 37.8844 30.3113 37.6979 30.2497C37.5115 30.1882 37.3438 30.0761 37.2119 29.9248C37.0268 29.7675 36.8632 29.5785 36.646 29.8129C36.4609 30.0109 36.1843 30.1365 36.3102 30.5592C36.4734 31.1795 36.5944 31.8111 36.6719 32.4494C36.6838 32.6221 36.7573 32.7838 36.8777 32.9023C36.9981 33.0208 37.1566 33.0875 37.3217 33.089C37.497 33.1097 37.6754 33.1148 37.8475 33.1537C40.1981 33.6477 42.4254 34.6477 44.3888 36.0906C44.6702 35.1915 45.0394 34.849 45.6065 34.9299C46.2193 35.0173 46.6073 35.585 46.6203 36.4246C46.6265 36.8486 46.6357 37.2732 46.6203 37.6966C46.6049 38.0403 46.6821 38.1944 47.0616 38.184C48.273 38.1517 49.4851 38.162 50.6977 38.1549M18.3288 38.1549C19.4963 38.1614 20.664 38.1549 21.8309 38.1814C22.2789 38.1918 22.4289 38.0054 22.4092 37.5535C22.3827 37.036 22.3856 36.5172 22.4177 36C22.4018 35.7419 22.482 35.4873 22.6415 35.29C22.8009 35.0927 23.0271 34.968 23.2725 34.9422C23.5157 34.8965 23.7665 34.9481 23.9753 35.0869C24.184 35.2257 24.3356 35.4416 24.4 35.6918C24.5444 36.2097 24.7436 35.9579 24.9442 35.8265C26.7808 34.5445 28.8393 33.6529 31.0031 33.2022C31.4017 33.1291 32.038 33.2443 32.1843 32.8067C32.4018 32.0141 32.5465 31.2015 32.6162 30.3799C32.6613 30.0517 32.3614 29.8957 32.1534 29.7488C31.9454 29.6018 31.8023 29.8252 31.6455 29.9585C31.5259 30.0942 31.3748 30.1951 31.2071 30.2515C31.0393 30.308 30.8605 30.3181 30.6879 30.2808C30.5154 30.2435 30.355 30.16 30.2222 30.0386C30.0894 29.9172 29.9887 29.7618 29.9299 29.5876C29.414 28.5033 28.9117 27.4119 28.3871 26.3329C28.2841 26.1218 28.2693 25.8364 27.8318 25.9865C26.7379 26.3412 25.5949 26.5003 24.4506 26.4571C23.9242 26.4673 23.4013 26.5502 22.8955 26.7038C21.4975 27.087 20.2666 27.9603 19.4072 29.1787C18.5479 30.3971 18.1119 31.8873 18.1715 33.4016C18.2332 34.9552 18.2048 36.5088 18.2177 38.0623C18.2011 38.1665 18.2536 38.1788 18.3313 38.1562M28.7166 10.7784C28.6731 10.7854 28.6341 10.81 28.6076 10.8469C28.5811 10.8837 28.5692 10.93 28.5747 10.9758C28.5951 12.4608 28.5031 13.9477 28.6216 15.4313C28.6277 15.5193 28.6333 15.6074 28.6395 15.6961C28.628 15.7491 28.6161 15.8024 28.6038 15.856C28.6882 16.7575 28.9548 17.6298 29.3859 18.4147C29.817 19.1996 30.4026 19.8791 31.1037 20.4079C31.7261 20.9005 32.4415 21.2478 33.2023 21.4265C33.9631 21.6051 34.7517 21.611 35.5148 21.4436C36.8229 21.1842 38.0102 20.4722 38.8871 19.4214C39.764 18.3707 40.2796 17.0419 40.3517 15.6475C40.4746 14.0451 40.4778 12.435 40.361 10.8321C39.71 10.7363 39.0496 10.6832 38.4091 10.5363C36.6392 10.1428 34.9376 9.46602 33.3641 8.52957C33.1512 8.40011 32.9224 8.22598 32.6656 8.54057C31.6353 9.74286 30.2395 10.5334 28.716 10.7777M63.8299 35.9184C63.8422 36.5288 63.8699 37.1392 63.86 37.749C63.8538 38.0817 63.9513 38.2022 64.279 38.1918C64.9732 38.1698 65.6706 38.153 66.3624 38.197C66.811 38.2255 66.8716 38.0338 66.8642 37.6306C66.842 36.4324 66.8432 35.2355 66.8592 34.0334C66.9359 32.1231 66.3633 30.2463 65.2435 28.7377C63.0707 25.8448 60.2159 25.2816 57.2452 25.9335C55.5165 26.4162 53.6887 26.3356 52.0047 25.7024C51.2709 25.5284 50.5094 25.5284 49.7756 25.7024L49.1962 25.8046C50.3765 26.6558 51.3388 27.799 51.9977 29.1331C52.6567 30.4672 52.9921 31.951 52.9742 33.4534C52.9859 34.8413 52.9963 36.2298 52.9648 37.617C52.9544 38.0953 53.1075 38.1996 53.5345 38.1937C55.6648 38.1724 57.7956 38.1873 59.9253 38.1814C60.5042 38.1814 61.2577 38.3756 61.6132 38.0714C61.9908 37.7477 61.694 36.9263 61.7366 36.3236C61.7397 36.2766 61.7397 36.2295 61.7366 36.1825C61.7134 36.044 61.7169 35.902 61.7468 35.7649C61.7767 35.6278 61.8323 35.4983 61.9106 35.3841C61.9888 35.2699 62.0881 35.1733 62.2024 35.0998C62.3168 35.0264 62.444 34.9776 62.5765 34.9565C62.8427 34.902 63.1186 34.9593 63.3449 35.1161C63.5712 35.2729 63.7299 35.5166 63.7866 35.7948C63.8008 35.8349 63.8157 35.8757 63.8299 35.9158M5.2121 35.9158L5.24976 35.7954C5.25719 35.673 5.28802 35.5534 5.34061 35.4438C5.3932 35.3342 5.46642 35.2369 5.55576 35.1577C5.64509 35.0785 5.74877 35.019 5.86055 34.9829C5.97232 34.9468 6.08983 34.9347 6.20617 34.9474C6.45007 34.9565 6.68307 35.0559 6.86381 35.2279C7.04454 35.3999 7.16139 35.6336 7.19361 35.8873C7.29171 36.4112 7.32312 36.9465 7.28687 37.4791C7.27021 37.9969 7.36263 38.2041 7.92914 38.1957C10.4408 38.1581 12.9544 38.1672 15.4666 38.1905C15.9233 38.1944 16.0837 38.0915 16.0714 37.5794C16.0374 36.0738 16.0523 34.5674 16.0616 33.0611C16.0766 31.8087 16.3417 30.5735 16.8398 29.4351C17.3379 28.2967 18.0578 27.2805 18.9533 26.452C19.1773 26.2273 19.5569 26.1613 19.6359 25.7321C18.3449 25.8033 17.0723 25.5736 15.835 26.0331C14.9078 26.3532 13.9155 26.4055 12.9623 26.1846C11.934 25.9339 10.8875 25.7741 9.83366 25.7069C8.68558 25.6554 7.54229 25.8912 6.4983 26.3949C5.45431 26.8987 4.53961 27.6557 3.82977 28.6037C2.91016 29.7052 2.34423 31.0824 2.21226 32.54C2.08143 34.247 2.18755 35.9708 2.17459 37.6908C2.17459 38.0287 2.21723 38.2086 2.60292 38.1886C3.31939 38.1568 4.03895 38.1653 4.75604 38.1886C5.07632 38.1983 5.18798 38.0908 5.18181 37.7503C5.1707 37.1399 5.20094 36.5288 5.2139 35.9184M49.5905 51.0664C49.629 49.929 49.5279 48.7911 49.2894 47.6809C48.557 43.7337 46.3753 40.2465 43.2146 37.9711C41.4406 36.6538 39.4175 35.7516 37.2822 35.3256C35.147 34.8997 32.9494 34.9599 30.8383 35.5022C29.6718 35.7699 28.5462 36.2056 27.4936 36.7968C25.1932 38.0448 23.2434 39.9013 21.8371 42.1825C19.9353 45.0839 19.0765 48.5989 19.4137 52.1021C19.5636 53.5191 19.5155 54.9652 20.2227 56.2734C20.5313 56.8424 20.6547 57.5189 20.9632 58.0859C21.8452 59.8165 23.0025 61.3763 24.3851 62.6981C25.7827 63.9807 27.374 65.0106 29.0937 65.7457C30.3117 66.3113 31.6209 66.6292 32.9519 66.6824C34.4021 66.6985 35.8832 67.0539 37.3303 66.47C37.8067 66.2758 38.4789 66.5076 38.8818 66.2435C39.963 65.5353 41.2157 65.2149 42.266 64.4776C42.6505 64.2076 43.1916 64.1992 43.4508 63.8432C43.7745 63.4068 44.1443 63.0103 44.5531 62.6612C45.8951 61.4487 46.9984 59.9727 47.8009 58.3164C48.6574 56.8158 49.1898 55.1365 49.3604 53.3967C49.4757 52.6232 49.5524 51.8438 49.5905 51.0618M8.36064 18.0128C8.36053 18.8194 8.51276 19.618 8.80871 20.3624C9.10466 21.1069 9.53843 21.7824 10.0848 22.3499C11.6535 24.0239 13.6363 24.2032 15.779 23.9261C17.4594 23.7086 19.8142 20.483 19.8123 18.0653C19.8228 17.2718 19.6833 16.4841 19.4019 15.7476C19.1206 15.011 18.7029 14.3402 18.173 13.774C17.643 13.2077 17.0114 12.7572 16.3146 12.4485C15.6177 12.1398 14.8694 11.979 14.1129 11.9754C13.3565 11.9717 12.6068 12.1254 11.9072 12.4274C11.2077 12.7294 10.5722 13.1738 10.0374 13.7349C9.5025 14.296 9.07888 14.9628 8.79108 15.6966C8.50328 16.4304 8.35706 17.2168 8.36064 18.0102M49.2061 17.816C49.0988 19.2951 49.5488 20.7593 50.4595 21.8942C50.8822 22.4854 51.4198 22.9756 52.0369 23.3321C52.654 23.6887 53.3363 23.9035 54.0386 23.9624C54.9053 24.0847 55.7873 23.9925 56.6139 23.6931C57.3883 23.4074 58.1056 22.9737 58.7293 22.414C59.3476 21.8183 59.83 21.0841 60.1406 20.266C60.4512 19.4479 60.5819 18.567 60.5233 17.6885C60.4824 16.5876 60.15 15.5204 59.5633 14.6066C58.9765 13.6928 58.1586 12.9686 57.2013 12.5151C54.6866 11.4581 52.2854 11.9008 50.4051 14.1982C49.9633 14.8026 49.5823 15.4534 49.2683 16.1401C49.0756 16.6751 49.054 17.2612 49.2067 17.8102M34.6533 2.2745C34.1164 2.2745 33.7566 2.2745 33.3974 2.2745C33.016 2.2745 32.6347 2.26673 32.2527 2.26673C31.7927 2.2433 31.3387 2.38299 30.9636 2.6633C30.5886 2.94361 30.3145 3.34821 30.1854 3.81189C30.107 4.1261 29.9274 4.40216 29.677 4.59321C29.1234 4.98935 28.6563 5.50432 28.3067 6.10403C27.9571 6.70374 27.7329 7.3745 27.649 8.07191C27.5645 8.60078 27.7984 8.66615 28.2155 8.61696C28.8942 8.55318 29.5487 8.32098 30.1249 7.93953C30.7011 7.55808 31.1826 7.03833 31.5295 6.42319C32.0275 5.59591 32.3558 5.48069 33.1957 5.91892C34.3507 6.60633 35.5422 7.22401 36.7644 7.76897C38.0555 8.27265 39.4128 8.56457 40.7886 8.63444C41.1114 8.64868 41.336 8.5943 41.3816 8.16319C41.4916 6.88379 41.1683 5.60466 40.4686 4.55039C39.7689 3.49612 38.7376 2.73411 37.5555 2.39814C36.5311 2.13921 35.5006 2.36772 34.6551 2.2745M37.5482 27.4178C37.7537 27.4365 37.7284 27.2741 37.771 27.186C38.0968 26.518 38.4011 25.8383 38.7423 25.1793C38.8904 24.8932 38.7423 24.7618 38.5904 24.5799C38.3775 24.321 38.1948 24.5534 38.0776 24.6446C37.5179 25.0894 36.9824 25.5697 36.4455 26.0454C36.3535 26.127 36.1683 26.2565 36.2998 26.3769C36.7058 26.7517 37.1464 27.0857 37.5482 27.4126M32.6113 26.261C32.5718 26.1982 32.5261 26.1401 32.4749 26.0875C31.8905 25.5625 31.3092 25.0337 30.7131 24.5242C30.5538 24.3877 30.386 24.4595 30.2447 24.622C30.1175 24.765 30.0367 24.8492 30.1613 25.0842C30.518 25.7548 30.8161 26.4591 31.145 27.1465C31.1853 27.248 31.2561 27.3328 31.3468 27.388C31.8404 27.1121 32.2717 26.7273 32.6113 26.261ZM33.1933 23.7675C33.5191 24.0867 33.7166 24.3054 33.9393 24.4919C34.1621 24.6783 34.4946 24.9049 34.7088 24.6906C35.063 24.332 35.5777 24.1475 35.872 23.5494C34.9919 23.7455 34.0909 23.8189 33.1925 23.7675M26.1698 13.3586C26.1698 13.7081 26.1698 14.057 26.1698 14.406C26.1698 14.5406 26.1531 14.705 26.3586 14.6901C26.4969 14.6804 26.5388 14.5723 26.5388 14.4487C26.5413 13.7271 26.5413 13.0058 26.5388 12.2847C26.5388 12.1649 26.5111 12.051 26.368 12.0381C26.1692 12.0199 26.1686 12.1675 26.168 12.3119C26.168 12.6614 26.168 13.0103 26.168 13.3592M34.3608 28.5596C34.6292 28.5726 34.9655 28.5422 35.0038 28.2612C35.0371 28.0191 34.7532 27.8521 34.478 27.8554C34.3479 27.8538 34.2205 27.8933 34.1122 27.9688C34.0038 28.0443 33.9198 28.1523 33.8708 28.2787C33.8159 28.5681 34.1398 28.5609 34.3608 28.5596Z" fill="black"/>
<path d="M68.0732 40.4082C68.1738 40.214 68.3305 40.3487 68.4613 40.3357C68.3497 40.4652 68.2615 40.7312 68.0732 40.4082Z" fill="#87523F"/>
<path d="M49.5941 51.0657C49.5554 51.8479 49.4782 52.6275 49.3627 53.4013C49.1923 55.141 48.6601 56.8203 47.8038 58.3209C47.0005 59.9793 45.8954 61.4566 44.551 62.6696C44.1424 63.0189 43.7727 63.4154 43.4489 63.8516C43.1897 64.2083 42.6466 64.2161 42.2639 64.486C41.2148 65.2233 39.9603 65.5437 38.8804 66.2519C38.4768 66.516 37.806 66.2862 37.329 66.4785C35.8825 67.0611 34.4014 66.7063 32.9512 66.6901C31.6204 66.6371 30.3113 66.3192 29.0936 65.7535C27.3737 65.0185 25.7822 63.9886 24.3844 62.7059C23.0019 61.3839 21.8447 59.8241 20.9625 58.0937C20.654 57.5241 20.5306 56.847 20.222 56.2812C19.5148 54.9723 19.5635 53.5262 19.413 52.1099C19.0759 48.6057 19.9351 45.0897 21.8376 42.1877C23.2441 39.9069 25.1939 38.0507 27.4941 36.8027C28.5467 36.2113 29.6722 35.7757 30.8388 35.508C32.9498 34.9657 35.1473 34.9054 37.2824 35.3314C39.4176 35.7573 41.4405 36.6595 43.2143 37.9769C46.3752 40.2523 48.5572 43.7395 49.2898 47.6867C49.5279 48.7968 49.6295 49.9344 49.5922 51.0716M34.4316 58.8252C36.9463 58.8252 39.4636 58.7676 41.9753 58.8517C42.5356 58.8366 43.0691 58.5973 43.4665 58.1828C43.864 57.7683 44.0952 57.21 44.1129 56.6223C44.0561 53.0194 44.0957 49.4151 44.0901 45.8121C44.1138 45.504 44.0737 45.1941 43.9726 44.9037C43.8715 44.6134 43.7117 44.3494 43.5042 44.1299C43.2967 43.9104 43.0463 43.7406 42.7703 43.632C42.4944 43.5235 42.1994 43.4789 41.9055 43.5011C40.8058 43.496 39.7048 43.4882 38.6051 43.5063C38.2348 43.5128 38.062 43.4493 38.0336 42.9807C38.039 42.6848 37.9844 42.3911 37.8733 42.119C37.7623 41.847 37.5974 41.6028 37.3896 41.4027C37.1817 41.2026 36.9357 41.0511 36.6677 40.9583C36.3998 40.8656 36.1161 40.8336 35.8355 40.8646C34.9154 40.8646 33.9941 40.8827 33.074 40.8646C31.8879 40.8387 30.7907 41.5812 30.9585 42.9477C31.011 43.3794 30.8493 43.5154 30.4333 43.5108C29.109 43.496 27.7834 43.4921 26.4604 43.5452C26.0597 43.573 25.6829 43.7545 25.4017 44.0551C25.1204 44.3557 24.9545 44.7544 24.9355 45.1751C24.9195 49.1082 24.9355 53.0414 24.9164 56.9751C24.9363 57.4733 25.1376 57.9444 25.4788 58.2915C25.82 58.6386 26.2751 58.8352 26.7504 58.8407C29.3096 58.7941 31.8725 58.8245 34.4298 58.8265" fill="#FFE177"/>
<path d="M5.20019 35.9203C5.18723 36.5308 5.15699 37.1418 5.16809 37.7523C5.17365 38.0921 5.06262 38.1996 4.74172 38.1905C4.02463 38.1698 3.30507 38.1614 2.5886 38.1905C2.20291 38.208 2.15658 38.0306 2.15967 37.6934C2.17324 35.9754 2.06711 34.2496 2.19794 32.542C2.32991 31.0843 2.89584 29.7072 3.81545 28.6056C4.52529 27.6577 5.43999 26.9006 6.48398 26.3969C7.52797 25.8932 8.67126 25.6573 9.81934 25.7088C10.8734 25.776 11.9201 25.9358 12.9486 26.1866C13.9016 26.4074 14.8937 26.3551 15.8207 26.0351C17.0586 25.5755 18.3304 25.8053 19.6214 25.7341C19.5425 26.1633 19.163 26.2286 18.9389 26.4533C18.0434 27.2817 17.3234 28.2979 16.8253 29.4363C16.3272 30.5747 16.062 31.81 16.0471 33.0624C16.0379 34.5687 16.0237 36.075 16.0571 37.5801C16.0688 38.0927 15.9084 38.1957 15.4517 38.1918C12.9394 38.1691 10.4259 38.1594 7.91422 38.197C7.34771 38.2054 7.25513 37.9963 7.27179 37.4804C7.30797 36.9478 7.27691 36.4126 7.17929 35.8886C7.14707 35.6349 7.03022 35.4012 6.84949 35.2292C6.66875 35.0572 6.43575 34.9578 6.19185 34.9487C6.07554 34.936 5.95797 34.9481 5.84623 34.9842C5.73448 35.0203 5.63087 35.0798 5.54159 35.159C5.4523 35.2382 5.37927 35.3355 5.32674 35.4451C5.27422 35.5547 5.2434 35.6743 5.23604 35.7967L5.19778 35.9171" fill="#82AEE3"/>
<path d="M51.9925 25.7004C53.6765 26.3336 55.5042 26.4142 57.233 25.9315C60.2037 25.2803 63.0586 25.8434 65.2321 28.7363C66.3516 30.245 66.9238 32.1219 66.8464 34.0321C66.831 35.2309 66.8292 36.4304 66.852 37.6292C66.8594 38.0319 66.7989 38.2241 66.3503 38.1956C65.6579 38.1523 64.9604 38.1684 64.2668 38.1911C63.9397 38.2015 63.8416 38.0811 63.8478 37.7477C63.8589 37.1379 63.83 36.5275 63.8183 35.9171C63.825 35.9009 63.8423 35.8782 63.8374 35.8705C63.8189 35.8438 63.7982 35.8189 63.7756 35.796C63.7189 35.5178 63.5602 35.2741 63.3339 35.1173C63.1076 34.9606 62.8317 34.9033 62.5655 34.9577C62.4329 34.9788 62.3056 35.0275 62.1913 35.1009C62.0769 35.1743 61.9777 35.271 61.8994 35.3852C61.8212 35.4994 61.7655 35.6289 61.7357 35.7661C61.7058 35.9032 61.7023 36.0452 61.7256 36.1838C61.7287 36.2307 61.7287 36.2779 61.7256 36.3249C61.6848 36.9269 61.9805 37.749 61.6022 38.0726C61.2461 38.3762 60.4913 38.1807 59.9143 38.1827C57.784 38.1885 55.6563 38.1736 53.5229 38.195C53.0965 38.1989 52.9435 38.0959 52.954 37.6182C52.9848 36.231 52.9749 34.8425 52.9626 33.4546C52.9807 31.9522 52.6454 30.4683 51.9864 29.1342C51.3275 27.8001 50.3651 26.6569 49.1846 25.8059L49.7634 25.7043H51.9931" fill="#82AEE3"/>
<path d="M40.3408 15.6482C40.2689 17.0426 39.7533 18.3715 38.8764 19.4222C37.9995 20.473 36.8119 21.185 35.5038 21.4443C34.7407 21.6117 33.9523 21.6058 33.1914 21.4272C32.4306 21.2486 31.715 20.9013 31.0927 20.4086C30.3915 19.8798 29.8059 19.2003 29.3749 18.4154C28.9438 17.6305 28.6771 16.7582 28.5928 15.8566C28.6607 15.8171 28.7335 15.779 28.6286 15.6967C28.6225 15.6087 28.6169 15.5207 28.6107 15.4326C28.6856 15.1894 28.7068 14.9315 28.6725 14.6785C28.6891 13.3787 28.6977 12.0789 28.7088 10.7797C30.2323 10.5354 31.6281 9.74483 32.6584 8.54254C32.9151 8.22794 33.144 8.40402 33.3563 8.53154C34.9298 9.46794 36.6314 10.1448 38.4012 10.5382C39.0418 10.6852 39.7015 10.7383 40.352 10.8341C40.3491 12.439 40.3463 14.0441 40.3438 15.6495" fill="#FFCEBF"/>
<path d="M18.206 38.0604C18.1936 36.5068 18.2214 34.9532 18.1597 33.3996C18.1 31.8854 18.536 30.3953 19.3953 29.1769C20.2545 27.9585 21.4853 27.0851 22.8831 26.7018C23.3889 26.5483 23.9118 26.4656 24.4383 26.4558C25.5827 26.4986 26.7259 26.3393 27.82 25.9846C28.2588 25.8344 28.2735 26.1199 28.3754 26.3309C28.8993 27.4106 29.401 28.5014 29.9181 29.5856C29.9768 29.76 30.0773 29.9155 30.2101 30.037C30.3429 30.1586 30.5035 30.2421 30.6761 30.2794C30.8487 30.3167 31.0275 30.3066 31.1953 30.25C31.3631 30.1935 31.5142 30.0924 31.6337 29.9565C31.7911 29.8232 31.9386 29.6044 32.141 29.7468C32.3434 29.8892 32.6489 30.0497 32.6045 30.3779C32.5346 31.1995 32.39 32.0121 32.1725 32.8048C32.0269 33.2423 31.3894 33.1284 30.9907 33.1996C28.827 33.6505 26.7686 34.5421 24.932 35.8239C24.732 35.9533 24.5326 36.2071 24.3882 35.6892C24.3237 35.4389 24.1721 35.2231 23.9632 35.0844C23.7543 34.9458 23.5033 34.8943 23.2601 34.9403C23.0148 34.9661 22.7887 35.0908 22.6294 35.2881C22.4701 35.4854 22.39 35.7399 22.4061 35.998C22.3733 36.5152 22.3702 37.034 22.3968 37.5516C22.4171 38.0047 22.2659 38.1892 21.8185 38.1788C20.6516 38.1516 19.4846 38.1587 18.317 38.1523L18.2029 38.0584" fill="white"/>
<path d="M50.689 38.1563C49.477 38.1627 48.2644 38.1524 47.0524 38.1854C46.6747 38.1958 46.5964 38.0411 46.6112 37.6973C46.6297 37.2746 46.6205 36.8493 46.6112 36.426C46.5989 35.5845 46.2107 35.0187 45.5973 34.9313C45.0314 34.8504 44.6618 35.1902 44.3804 36.092C42.4171 34.6488 40.1896 33.6488 37.8389 33.1551C37.6673 33.1175 37.4889 33.1117 37.3137 33.0903C37.1486 33.0888 36.9901 33.0222 36.8697 32.9037C36.7493 32.7852 36.6758 32.6235 36.6639 32.4508C36.5863 31.8123 36.4655 31.1804 36.3023 30.56C36.1789 30.1373 36.4541 30.0123 36.638 29.8136C36.8552 29.5793 37.0193 29.7683 37.2045 29.9256C37.3364 30.0768 37.5041 30.1889 37.6905 30.2505C37.8769 30.312 38.0756 30.3209 38.2663 30.2762C38.4571 30.2315 38.6332 30.1347 38.7769 29.9958C38.9206 29.8568 39.0269 29.6805 39.0849 29.4848C39.5903 28.4251 40.0809 27.357 40.5709 26.2896C40.6906 26.0306 40.772 25.9012 41.1262 26.0125C42.0737 26.3157 43.0595 26.4667 44.0501 26.4605C45.2433 26.4116 46.4264 26.7068 47.4709 27.3138C48.5154 27.9208 49.3813 28.8165 49.9744 29.9036C50.4458 30.706 50.723 31.6171 50.7821 32.5576C50.8888 34.3898 50.8957 36.2268 50.8026 38.0598L50.6841 38.153" fill="white"/>
<path d="M8.36487 18.0167C8.36835 17.2281 8.5199 16.448 8.81083 15.7208C9.10175 14.9936 9.52635 14.3336 10.0604 13.7786C10.5945 13.2235 11.2276 12.7842 11.9235 12.4858C12.6194 12.1874 13.3646 12.0357 14.1164 12.0394C14.8682 12.043 15.612 12.202 16.3052 12.5071C16.9985 12.8123 17.6276 13.2577 18.1567 13.8179C18.6859 14.3782 19.1046 15.0422 19.3891 15.7722C19.6736 16.5022 19.8182 17.2838 19.8148 18.0724C19.8148 20.4902 17.4624 23.7158 15.7814 23.9326C13.6388 24.2097 11.6559 24.031 10.0872 22.3564C9.54035 21.7887 9.10645 21.1126 8.81068 20.3676C8.5149 19.6225 8.36314 18.8232 8.36426 18.0161" fill="#FFCEBF"/>
<path d="M49.2087 17.8212C49.0564 17.2722 49.078 16.6862 49.2704 16.1511C49.5844 15.4644 49.9654 14.8137 50.4071 14.2092C52.2874 11.9118 54.6886 11.4697 57.2033 12.5261C58.1604 12.9798 58.9782 13.7041 59.565 14.6178C60.1517 15.5316 60.4842 16.5987 60.5253 17.6995C60.5841 18.578 60.4533 19.459 60.1428 20.2772C59.8322 21.0953 59.3498 21.8294 58.7314 22.425C58.1074 22.9845 57.3902 23.4181 56.6159 23.7041C55.7891 24.0035 54.9069 24.0957 54.04 23.9734C53.3378 23.9144 52.6556 23.6996 52.0385 23.343C51.4214 22.9864 50.8837 22.4963 50.4609 21.9052C49.5509 20.77 49.1012 19.306 49.2081 17.8271" fill="#FFCEBF"/>
<path d="M34.6545 2.28356C35.5006 2.37613 36.5319 2.15021 37.555 2.4072C38.7371 2.74317 39.7684 3.50519 40.4681 4.55946C41.1678 5.61372 41.4911 6.89285 41.3811 8.17225C41.3355 8.60336 41.1109 8.65774 40.7881 8.6435C39.4123 8.57343 38.0549 8.28129 36.7639 7.77738C35.5417 7.23257 34.35 6.61488 33.195 5.92734C32.3551 5.4891 32.0269 5.60368 31.5289 6.4316C31.1818 7.04676 30.7002 7.56651 30.1239 7.94795C29.5476 8.3294 28.8932 8.56159 28.2144 8.62537C27.7973 8.67457 27.564 8.60854 27.6485 8.08033C27.7325 7.38286 27.9566 6.71207 28.3063 6.11235C28.656 5.51264 29.1232 4.99769 29.6769 4.60162C29.9273 4.41054 30.1069 4.13449 30.1854 3.8203C30.3145 3.35651 30.5887 2.95183 30.9639 2.67151C31.339 2.39119 31.7933 2.25157 32.2534 2.27515C32.6348 2.27515 33.0168 2.28162 33.3975 2.28291C33.7573 2.28291 34.1158 2.28291 34.6533 2.28291" fill="#87523F"/>
<path d="M37.5476 27.4288C37.1452 27.0993 36.7059 26.7653 36.2992 26.393C36.1684 26.272 36.3535 26.1425 36.4455 26.061C36.983 25.5852 37.5173 25.1049 38.077 24.6602C38.1949 24.567 38.3769 24.3333 38.5899 24.5954C38.7386 24.7767 38.8898 24.9087 38.7411 25.1949C38.3992 25.8532 38.0956 26.5335 37.7698 27.2016C37.7272 27.2896 37.7525 27.4521 37.547 27.4333" fill="white"/>
<path d="M32.6106 26.2759C32.2715 26.7424 31.8405 27.1267 31.3468 27.4022C31.2563 27.3472 31.1854 27.2626 31.1449 27.1614C30.8166 26.474 30.5179 25.7697 30.1613 25.0991C30.0378 24.8641 30.1174 24.7806 30.2446 24.6369C30.3859 24.477 30.5531 24.4032 30.713 24.5398C31.3091 25.0499 31.8904 25.5755 32.4748 26.1031C32.5256 26.1558 32.5709 26.2139 32.61 26.2766" fill="white"/>
<path d="M33.1929 23.7811C34.0913 23.8325 34.9923 23.7592 35.8724 23.563C35.5774 24.1611 35.0628 24.345 34.7085 24.7042C34.4969 24.9185 34.1642 24.6945 33.939 24.5055C33.7137 24.3165 33.5187 24.1003 33.1929 23.7811Z" fill="#FFCEBF"/>
<path d="M26.1704 13.3728C26.1704 13.0239 26.1704 12.6744 26.1704 12.3255C26.1704 12.1837 26.1703 12.0335 26.3703 12.0517C26.5128 12.0646 26.5407 12.1811 26.5413 12.2989C26.5413 13.0205 26.5413 13.7418 26.5413 14.4629C26.5413 14.5866 26.4993 14.694 26.3611 14.7044C26.1556 14.7186 26.1759 14.5549 26.1716 14.4202C26.1679 14.0713 26.1716 13.7218 26.1716 13.3728" fill="#FFCEBF"/>
<path d="M42.7596 14.5801C42.5992 14.7743 42.4783 14.729 42.4734 14.4888C42.4594 13.7448 42.4594 13.0009 42.4734 12.2569C42.4789 11.9979 42.6103 11.9979 42.7596 12.176V14.5801Z" fill="#FFCEBF"/>
<path d="M40.3403 15.6482C40.3432 14.0428 40.3462 12.4377 40.3491 10.8328C40.4665 12.4357 40.4635 14.0458 40.3403 15.6482Z" fill="#82AEE3"/>
<path d="M34.3638 28.5739C34.1423 28.5739 33.8189 28.581 33.8739 28.2917C33.9228 28.1653 34.0069 28.0573 34.1152 27.9818C34.2235 27.9063 34.351 27.8667 34.481 27.8683C34.7563 27.8651 35.0402 28.0321 35.0068 28.2742C34.968 28.5551 34.631 28.5856 34.3638 28.5739Z" fill="#82AEE3"/>
<path d="M28.7057 10.7764C28.694 12.0762 28.6859 13.376 28.6692 14.6752C28.7035 14.9283 28.6824 15.1862 28.6075 15.4294C28.4896 13.945 28.581 12.4588 28.5606 10.9738C28.5551 10.9279 28.5668 10.8816 28.5933 10.8446C28.6198 10.8077 28.659 10.783 28.7025 10.7758" fill="#87523F"/>
<path d="M42.7588 14.58V12.1765C42.9519 12.9649 42.9519 13.7916 42.7588 14.58Z" fill="#87523F"/>
<path d="M51.9933 25.6998H49.7637C50.4976 25.5255 51.2594 25.5255 51.9933 25.6998Z" fill="#87523F"/>
<path d="M5.2002 35.9197L5.23846 35.7993C5.22612 35.8395 5.21315 35.8796 5.2002 35.9197Z" fill="#87523F"/>
<path d="M63.7742 35.796C63.7969 35.8188 63.8176 35.8437 63.8359 35.8705C63.8409 35.8782 63.8236 35.9015 63.8168 35.9171L63.7729 35.796" fill="#87523F"/>
<path d="M18.2067 38.0604L18.3208 38.1543C18.2418 38.1769 18.1901 38.1646 18.2067 38.0604Z" fill="#FFCEBF"/>
<path d="M50.689 38.1542L50.8081 38.061C50.8217 38.1678 50.7667 38.1769 50.689 38.1542Z" fill="#FFCEBF"/>
<path d="M28.6286 15.6942C28.7335 15.7764 28.6607 15.8146 28.5928 15.8541C28.6047 15.801 28.6167 15.7477 28.6286 15.6942Z" fill="#87523F"/>
<path d="M34.4333 58.8174C31.8736 58.8174 29.3112 58.7864 26.7545 58.833C26.2792 58.8274 25.824 58.6309 25.4826 58.2838C25.1413 57.9368 24.94 57.4656 24.9199 56.9674C24.9366 53.0343 24.923 49.1005 24.9385 45.1674C24.9574 44.7467 25.1234 44.348 25.4046 44.0474C25.6858 43.7468 26.0627 43.5652 26.4633 43.5374C27.7864 43.4843 29.112 43.4882 30.4363 43.5031C30.8516 43.5076 31.0139 43.3736 30.9615 42.9406C30.7955 41.5734 31.8908 40.831 33.0769 40.8569C33.9971 40.8769 34.9183 40.8569 35.839 40.8569C36.1196 40.826 36.4033 40.858 36.6711 40.9508C36.939 41.0436 37.185 41.1951 37.3928 41.3952C37.6007 41.5953 37.7657 41.8394 37.8767 42.1114C37.9878 42.3834 38.0425 42.6771 38.0372 42.9729C38.065 43.4416 38.2353 43.505 38.6081 43.4986C39.7084 43.4804 40.8087 43.4876 41.9097 43.4934C42.2035 43.4712 42.4984 43.5159 42.7742 43.6245C43.05 43.733 43.3002 43.9028 43.5076 44.1222C43.715 44.3416 43.8749 44.6055 43.976 44.8957C44.0771 45.1859 44.1171 45.4957 44.0935 45.8037C44.0985 49.4073 44.059 53.0116 44.1158 56.614C44.098 57.2015 43.8668 57.7596 43.4693 58.174C43.0719 58.5884 42.5383 58.8276 41.9781 58.8427C39.4658 58.7585 36.9493 58.8161 34.434 58.8148M34.4117 49.5031C34.1534 50.2316 34.139 51.0306 34.371 51.7688C34.4851 51.985 34.5185 51.704 34.6024 51.728C34.7441 51.3755 34.8171 50.9968 34.8171 50.6143C34.8171 50.2317 34.7441 49.853 34.6024 49.5005H34.4136M41.761 45.7059C37.0931 45.7059 32.4252 45.7169 27.7573 45.6956C27.2242 45.6956 26.981 45.7836 27.0489 46.4076C27.1035 46.9467 27.106 47.4902 27.0563 48.0298C27.0045 48.6254 27.2451 48.839 27.7777 48.9108C28.9761 49.072 30.1641 49.3141 31.3644 49.4578C31.9654 49.5297 32.2445 49.597 32.2154 48.7225C32.1986 48.5373 32.2211 48.3505 32.2814 48.1755C32.3418 48.0006 32.4384 47.8419 32.5642 47.7108C32.6901 47.5797 32.8421 47.4796 33.0093 47.4175C33.1765 47.3555 33.3546 47.3331 33.531 47.3521C34.2043 47.3521 34.8783 47.3624 35.551 47.3521C35.7403 47.334 35.9305 47.3727 36.0997 47.4637C36.2688 47.5547 36.4097 47.6942 36.5062 47.866C36.7145 48.1648 36.8215 48.528 36.8103 48.8979C36.7375 49.4462 36.9956 49.5154 37.4232 49.4805C37.8509 49.4455 38.249 49.3419 38.6686 49.3005C39.6239 49.2047 40.5699 48.9924 41.5196 48.8312C41.8195 48.7801 41.9757 48.6461 41.9597 48.2842C41.9239 47.4628 41.9288 46.6394 41.9171 45.8166C41.9103 45.7111 41.8658 45.6639 41.7628 45.7072M34.5031 56.5453C36.8156 56.5453 39.1277 56.5453 41.4395 56.5453C41.6974 56.5453 41.9751 56.6282 41.9689 56.1569C41.9479 54.5794 41.9541 53.0019 41.9689 51.4244C41.9689 51.0942 41.8349 50.9978 41.5653 51.0612C40.2076 51.3817 38.8254 51.5734 37.435 51.6341C37.0265 51.6516 36.7888 51.8659 36.6327 52.3533C36.4903 52.8561 36.192 53.2946 35.7851 53.5995C35.3782 53.9043 34.8859 54.0581 34.3863 54.0363C33.9325 54.0368 33.4907 53.8836 33.1265 53.5996C32.7623 53.3157 32.4952 52.916 32.3648 52.4601C32.1975 51.7137 31.7477 51.6225 31.1923 51.6186C29.9781 51.5783 28.7702 51.4155 27.5857 51.1324C26.9859 51.003 27.0587 51.2405 27.0587 51.6179C27.0587 53.0543 27.0792 54.4907 27.0489 55.9265C27.0384 56.4094 27.1496 56.5628 27.6321 56.5563C29.921 56.5285 32.2111 56.544 34.5005 56.544M34.5005 43.1173C34.097 43.1173 33.6928 43.1173 33.2892 43.1173C33.1843 43.1173 33.0535 43.0959 33.0375 43.2649C33.0317 43.2936 33.0325 43.3233 33.04 43.3516C33.0476 43.3798 33.0615 43.4057 33.0807 43.4271C33.0999 43.4484 33.1238 43.4646 33.1502 43.4742C33.1766 43.4839 33.2048 43.4867 33.2324 43.4824C34.0404 43.485 34.848 43.485 35.6552 43.4824C35.7867 43.4824 35.8527 43.3982 35.8404 43.2545C35.8287 43.1251 35.7304 43.1251 35.6453 43.1212C35.2639 43.1173 34.8825 43.1212 34.5011 43.1212" fill="black"/>
<path d="M34.4991 56.5492C32.2096 56.5492 29.92 56.5337 27.6311 56.5615C27.1479 56.5673 27.0376 56.4139 27.0475 55.931C27.0777 54.4959 27.0591 53.0588 27.0579 51.6224C27.0579 51.245 26.9844 51.0101 27.5849 51.1369C28.7692 51.4198 29.9767 51.5824 31.1907 51.6224C31.7461 51.6263 32.1953 51.7169 32.3631 52.464C32.4937 52.9198 32.761 53.3193 33.1252 53.6032C33.4894 53.8872 33.9311 54.0404 34.3849 54.0402C34.8845 54.0619 35.3767 53.9082 35.7836 53.6033C36.1905 53.2985 36.4887 52.8599 36.6311 52.3571C36.7848 51.8697 37.0224 51.6555 37.4334 51.638C38.8235 51.5772 40.2058 51.3855 41.5632 51.0651C41.8329 51.0004 41.9691 51.0981 41.9667 51.4282C41.9543 53.0058 41.9481 54.5833 41.9667 56.1608C41.9728 56.6321 41.6958 56.5492 41.4372 56.5492C39.1251 56.5492 36.813 56.5492 34.5009 56.5492" fill="#FFE177"/>
<path d="M41.9132 45.8204C41.9249 46.6431 41.9205 47.4665 41.9563 48.288C41.9717 48.6498 41.8157 48.7838 41.5158 48.835C40.5654 48.9962 39.6205 49.2085 38.6646 49.3043C38.245 49.3464 37.8389 49.4532 37.4193 49.4842C36.9996 49.5153 36.7337 49.4473 36.8065 48.9016C36.8179 48.5318 36.711 48.1686 36.5029 47.8698C36.4065 47.698 36.2656 47.5584 36.0964 47.4674C35.9273 47.3764 35.7369 47.3377 35.5476 47.3558C34.8743 47.3694 34.2011 47.361 33.5278 47.3558C33.3514 47.3369 33.1731 47.3593 33.0059 47.4213C32.8387 47.4833 32.6868 47.5835 32.561 47.7146C32.4351 47.8456 32.3385 48.0044 32.2782 48.1793C32.2179 48.3542 32.1953 48.541 32.2121 48.7262C32.2411 49.6014 31.9616 49.5341 31.3611 49.4616C30.1614 49.3179 28.9729 49.0732 27.7751 48.9146C27.2425 48.8427 27.0018 48.6291 27.0537 48.0336C27.1036 47.494 27.1011 46.9505 27.0463 46.4114C26.9784 45.7887 27.2215 45.6993 27.7547 45.6993C32.4226 45.7213 37.0905 45.7103 41.7589 45.7097L41.9132 45.8191" fill="#FFE177"/>
<path d="M34.4998 43.1224C34.8812 43.1224 35.2632 43.1224 35.6439 43.1224C35.7291 43.1224 35.829 43.1224 35.8395 43.2558C35.8518 43.3988 35.7858 43.4823 35.6543 43.4836C34.8467 43.4879 34.0389 43.4879 33.2309 43.4836C33.2033 43.4879 33.1751 43.4851 33.1487 43.4755C33.1222 43.4659 33.0985 43.4497 33.0794 43.4283C33.0602 43.4069 33.0462 43.381 33.0387 43.3528C33.0311 43.3246 33.0302 43.2948 33.036 43.2661C33.0514 43.0972 33.1828 43.1198 33.2877 43.1185C33.6913 43.1147 34.0956 43.1185 34.4992 43.1185L34.4998 43.1224Z" fill="#FFE177"/>
<path d="M34.6009 51.7332C34.5176 51.7079 34.4843 51.9921 34.3701 51.7739C34.3833 51.0179 34.3966 50.2626 34.4102 49.5083H34.599C34.599 50.251 34.599 50.9935 34.599 51.7357" fill="#82AEE3"/>
<path d="M34.4108 49.5063C34.3972 50.262 34.3837 51.0172 34.3701 51.772C34.1382 51.0338 34.1525 50.2348 34.4108 49.5063Z" fill="#87523F"/>
<path d="M34.6006 51.7331C34.6006 50.9908 34.6006 50.2483 34.6006 49.5056C34.7424 49.8581 34.8156 50.2368 34.8156 50.6193C34.8156 51.0019 34.7424 51.3806 34.6006 51.7331Z" fill="#87523F"/>
<path d="M41.9131 45.8205L41.7588 45.7111C41.8618 45.6677 41.9063 45.715 41.9131 45.8205Z" fill="#87523F"/>
</svg>
