<svg xmlns="http://www.w3.org/2000/svg" width="107.276" height="107.292" viewBox="0 0 107.276 107.292">
  <g id="Group_98" data-name="Group 98" transform="translate(0)">
    <path id="Path_3599" data-name="Path 3599" d="M5317.91,77.712a.575.575,0,0,0-.412.417,11.057,11.057,0,0,1-2.021,4.221,8.3,8.3,0,0,1-4.6,3.268,2.066,2.066,0,0,0-1.775,2.062,20.889,20.889,0,0,1-3.559,9.257,23.277,23.277,0,0,1-14.454,9.858,17.861,17.861,0,0,1-4.176.452c-4.364-.027-8.727-.055-13.089.023a2.146,2.146,0,0,1-2.241-2.115,2.027,2.027,0,0,1,2.356-2.1c4.153-.012,8.306-.062,12.457.012a17.792,17.792,0,0,0,10.482-3.22,18.7,18.7,0,0,0,7.019-8.561,23.041,23.041,0,0,0,1.445-9.077c-.017-1.792,0-1.844-1.8-1.755a14.74,14.74,0,0,1-8.219-1.722,11.93,11.93,0,0,0-5.407-1.915,8.6,8.6,0,0,0-5.234,1.158c-5.169,3.223-10.275,3.413-15.57.121a8.781,8.781,0,0,0-9.676-.039,14.8,14.8,0,0,1-6.139,2.354,14.555,14.555,0,0,1-9.366-2.325,8.859,8.859,0,0,0-9.688-.01,16.32,16.32,0,0,1-5.871,2.2,37.694,37.694,0,0,1-4.463.155c-.358.013-.681-.04-.673.512.043,2.955-.173,5.916.794,8.806a19.175,19.175,0,0,0,7.541,10.146,16.8,16.8,0,0,0,8.9,3.129c4.532.135,9.071.029,13.606.028,1.8,0,2.308.369,2.912,2.1-.634,1.787-1.05,2.083-2.917,2.084-4.643,0-9.29.136-13.924-.033a20.79,20.79,0,0,1-10.683-3.69A23.673,23.673,0,0,1,5219.5,89.3a17.542,17.542,0,0,1-.38-2.5c-.079-.682-.467-.771-.859-.887-4.236-1.265-6.528-4.273-7.566-8.4a5.724,5.724,0,0,1,0-1.356c0-3.211.057-6.424-.034-9.632-.046-1.589.649-2.385,2.425-2.41,3.21-.044,6.42-.013,9.632-.013h17.17c1.418,0,1.654-.282,1.378-1.668a46.914,46.914,0,0,0-3.293-9.822,9.249,9.249,0,0,0-3.217-3.692q-7.535-5.677-15.085-11.333c-2.367-1.784-4.717-3.594-7.067-5.4-1.8-1.383-2.584-5.4-1.4-7.452,2.369-4.109,4.706-8.241,7.223-12.259a5.97,5.97,0,0,1,7.517-2.474c5.313,2.073,10.569,4.306,15.788,6.609,3.251,1.435,6.567,2.712,9.821,4.134.169.074.282.277.546.128.662-.372,1.472-2.607,1.34-3.4a2.085,2.085,0,0,0-1.194-1.547c-1.024-.573-2.069-1.109-3.088-1.688a2.315,2.315,0,0,1-1.331-2.481c.462-1.263,1.456-1.989,2.752-1.431,2.191.945,4.48,1.93,5.962,3.936,1.8,2.441,1.4,4.971-.039,7.46q-4.394,7.618-8.76,15.252c-1.129,1.964-2.184,3.979-3.441,5.858a1.01,1.01,0,0,0,.185,1.5,62.754,62.754,0,0,1,5.6,6.3,57.889,57.889,0,0,1,5.705,8.77c.728,1.43,1.448,2.865,2.137,4.315.179.378.4.385.717.385,2.862,0,5.725-.042,8.586.023.77.018.742-.52.824-.891a54.443,54.443,0,0,1,4.877-13.021,59.633,59.633,0,0,1,7.293-11.168,43.368,43.368,0,0,1,3.762-4.142,1.025,1.025,0,0,0,.2-1.448q-4.189-7.317-8.391-14.626c-1.355-2.348-2.833-4.628-4.122-7.011-1.832-3.386-1.161-7.169,2.906-9.3A24.928,24.928,0,0,1,5277.663.84a1.967,1.967,0,0,1,2.615.8,2.082,2.082,0,0,1-.866,2.952c-1.016.6-2.053,1.161-3.088,1.725a2.17,2.17,0,0,0-1.145,3.066,19.885,19.885,0,0,0,1.068,1.95c.165.309.3.111.484.032q3.611-1.544,7.226-3.071c3.462-1.455,6.951-2.848,10.38-4.373,1.23-.547,2.451-1.283,3.671-1.7,1.651-.564,3.159-1.521,4.9-1.847.163-.031.487-.074.551-.37h2.3c.047.164.185.154.317.2a6.953,6.953,0,0,1,4.268,3.081c1.113,1.936,2.233,3.868,3.338,5.808,1.446,2.537,2.926,5.055,4.227,7.673V19.48c-.13.1-.342.189-.374.317a5.321,5.321,0,0,1-1.946,2.927c-2.372,1.879-4.783,3.707-7.193,5.534-5.12,3.878-10.256,7.73-15.361,11.625a5.857,5.857,0,0,0-1.736,1.708,36.16,36.16,0,0,0-3.515,9.082,24.788,24.788,0,0,0-.853,6.023,23.518,23.518,0,0,0,.23,3.575c.143.934.208,1.982.273,2.981.045.693.384.868,1.1.865,8.544-.034,17.088-.01,25.632-.034,1.474,0,2.835.124,3.746,1.478Zm-102.843-9.387c-.142-.03-.2.02-.162.167-.016,2.749-.135,5.5-.009,8.245.085,1.858,1.87,4.531,4.161,4.9,0-4.253-.01-8.5.013-12.743,0-.537-.2-.63-.666-.613-1.112.039-2.225.034-3.337.048m76.043-47.356a2.356,2.356,0,0,1-1.432,1.83,2.06,2.06,0,0,1-2.547-1.052c-1.408-2.437-2.846-4.86-4.19-7.332a1.044,1.044,0,0,0-1.586-.553,15.782,15.782,0,0,1-2.211.986c-.7.2-.605.381-.306.9,3.073,5.311,6.112,10.64,9.164,15.962.778,1.356,1.574,2.7,2.341,4.062.287.51.583.642,1.074.237q1.3-1.072,2.641-2.092c2.064-1.564,4.149-3.1,6.21-4.668q4.332-3.3,8.639-6.626c1.379-1.059,2.771-2.1,4.116-3.2a1.782,1.782,0,0,0,.341-2.485c-2.157-3.733-4.373-7.432-6.463-11.2a2.447,2.447,0,0,0-2.107-1.482,5.945,5.945,0,0,0-2.3.613c-.515.216-.787.476-.264,1.231a56.731,56.731,0,0,1,3.093,5.372,2.181,2.181,0,0,1-.791,2.768,2.026,2.026,0,0,1-2.752-.7c-1.074-1.77-2.128-3.554-3.127-5.367-.5-.913-.882-1.514-2.057-.711a5.2,5.2,0,0,1-1.854.767c-.606.119-.666.462-.347,1.052,1.236,2.284,2.889,4.342,3.645,6.893a1.853,1.853,0,0,1-1.579,2.483,2.137,2.137,0,0,1-2.21-1.335q-1.813-3.178-3.638-6.35c-.284-.5-.716-1.076-1.25-.633a8.385,8.385,0,0,1-2.583,1.209c-.559.213-.514.488-.27.9,1.119,1.892,2.282,3.76,3.318,5.7.467.871,1.246,1.618,1.28,2.82m-64.572-6.209c-.677-.274-1.342-.577-2.031-.817a2.187,2.187,0,0,0-2.712.855c-1.073,1.838-2.109,3.7-3.171,5.544-.255.442-.574.848-.822,1.293a36.345,36.345,0,0,1-2.11,3.771c-1.254,1.713-1.129,3.125.625,4.341.448.31.874.652,1.309.982q5.17,3.922,10.342,7.846c2.946,2.238,5.9,4.463,8.824,6.734.733.57,1.13.488,1.494-.345a15.846,15.846,0,0,1,.859-1.494c2.639-4.595,5.312-9.171,7.9-13.8.823-1.474,1.615-2.965,2.56-4.363.37-.547.248-.838-.295-.956a9.75,9.75,0,0,1-2.574-1.1c-.409-.223-.625-.183-.95.285-.853,1.232-1.362,2.65-2.225,3.871-1,1.414-1.517,3.141-2.784,4.383a1.776,1.776,0,0,1-2.916-.107,1.92,1.92,0,0,1-.234-2.406c1.29-2.417,2.707-4.759,4.144-7.089.323-.524.418-.875-.293-1.138-.977-.361-1.933-.779-2.884-1.207-.287-.129-.33-.117-.5.188-1.287,2.308-2.628,4.586-3.943,6.878-.756,1.318-1.909,1.75-3.066,1.095a2.227,2.227,0,0,1-.6-3.076c1.23-2.3,2.539-4.551,3.815-6.826-1.047-.451-2.135-.837-3.137-1.381-.6-.325-.764-.062-1,.359q-1.563,2.741-3.146,5.472c-1.067,1.846-2.692,2.062-3.845.509-.762-1.024-.167-1.94.3-2.826.973-1.857,2.232-3.554,3.081-5.478m60.184,23.286c-.195.179-.437.374-.647.6a54.708,54.708,0,0,0-5.643,7.093,57.48,57.48,0,0,0-6.389,12.342,40.153,40.153,0,0,0-1.727,5.234c-.07.332-.309.787.382.786q5.08-.008,10.156,0c.4,0,.527-.1.448-.549a34.448,34.448,0,0,1-.139-10.536,34.539,34.539,0,0,1,3.9-12.195c.6-1.093.651-1.917-.338-2.774m-54.364,30.24c-2.791,0-5.582.016-8.371-.013-.585-.006-.769.148-.756.747.04,1.778.005,3.558.018,5.337.014,2.113-.342,1.826,1.878,1.9a11.555,11.555,0,0,0,6.889-1.747,22.13,22.13,0,0,1,2.448-1.182,10.46,10.46,0,0,1,4.735-.654c.688,0,1.539.064,1.79-.748a20.965,20.965,0,0,0,.472-2.8c.111-.678-.148-.869-.835-.858-2.755.041-5.512.017-8.268.017m45.643,0c-2.024,0-4.048.011-6.071-.008-.481,0-.691.071-.78.644-.181,1.157-.22,2.334-.423,3.474-.185,1.049-.212,1.673.867,2.338a8.856,8.856,0,0,0,8.617.879c1.929-.823,3.577-2.246,5.7-2.671.507-.1.408-.42.249-.789a23.55,23.55,0,0,1-1.218-3.053c-.214-.784-.64-.832-1.284-.823-1.884.027-3.768.01-5.653.01m11.074,0c.183.481.316.86.467,1.231.671,1.659.987,3.5,3.483,3.594a8.1,8.1,0,0,1,4.028,1.78,11.242,11.242,0,0,0,6,1.55c.5.022,1.3.019,1.445-.249.281-.535.889-.892.866-1.638-.057-1.845-.043-3.693,0-5.539.013-.6-.171-.744-.753-.742-5.156.022-10.313.013-15.528.013m-37.638,7.956a9.04,9.04,0,0,0,4.876-1.249c.385-.2.764-.435.627-.938-.471-1.738-.957-3.472-1.474-5.2-.086-.287-.214-.595-.7-.589-2.859.033-5.719.022-8.579.01-.393,0-.554.1-.545.524a21.076,21.076,0,0,1-.591,4.133c-.057.308-.269.746.187,1.025,1.918,1.177,3.791,2.469,6.2,2.281m2.053-12.145a57.926,57.926,0,0,0-10.924-15.745c-.278-.289-.605-.9-.9-.724a2.035,2.035,0,0,0-.757,1.26,2.2,2.2,0,0,0,.469,1.405,34.006,34.006,0,0,1,4.111,12.647c.04.355-.19,1.177.742,1.166,2.367-.03,4.736-.01,7.264-.01m56.042,17.718c1.816-.993,3.242-2.136,3.748-4.026a22.566,22.566,0,0,0,.44-6.161c-.013-1.076.388-2.57-.159-3.123-.687-.7-2.169-.148-3.306-.219-.035,0-.07,0-.1,0-.52-.087-.631.155-.629.641.017,4.222.01,8.443.01,12.888m-49.889-13.5c.459,1.433.89,2.729,1.281,4.036.106.356.2.371.6.387a27.412,27.412,0,0,1,3.549-.088c1.411.233,1.586.025,1.506-1.391a21.768,21.768,0,0,1,.327-2.944Z" transform="translate(-5210.634 0)"/>
    <path id="Path_3600" data-name="Path 3600" d="M5289.417,302.264c-.6-1.735-1.113-2.1-2.913-2.1-4.536,0-9.074.107-13.606-.028A16.79,16.79,0,0,1,5264,297a19.173,19.173,0,0,1-7.542-10.146c-.967-2.889-.751-5.85-.793-8.805-.008-.552.315-.5.673-.512a37.688,37.688,0,0,0,4.462-.155,16.324,16.324,0,0,0,5.871-2.2,8.858,8.858,0,0,1,9.688.01,14.556,14.556,0,0,0,9.367,2.325,14.793,14.793,0,0,0,6.138-2.354,8.784,8.784,0,0,1,9.677.039c5.3,3.292,10.4,3.1,15.569-.12a8.609,8.609,0,0,1,5.235-1.158,11.938,11.938,0,0,1,5.406,1.916,14.742,14.742,0,0,0,8.219,1.722c1.8-.089,1.787-.037,1.8,1.755a23.035,23.035,0,0,1-1.446,9.078,18.7,18.7,0,0,1-7.02,8.561,17.789,17.789,0,0,1-10.481,3.22c-4.15-.074-8.3-.024-12.456-.012a2.027,2.027,0,0,0-2.356,2.1h-5.169c-.062-.158-.125-.315-.185-.475-.464-1.264-1.042-1.582-2.574-1.412-.916.1-1.385.692-1.5,1.887h-5.168m32.227-14.671v0c2.788,0,5.575.01,8.362,0a2.093,2.093,0,1,0,.1-4.172q-8.36-.04-16.724,0a2.084,2.084,0,0,0,.1,4.165c2.716.011,5.434,0,8.152,0m-31.425,4.186c2.162,0,4.324.016,6.486-.007a1.918,1.918,0,0,0,1.893-1.681c.134-1.351-.31-2.005-1.488-2.287a23.637,23.637,0,0,0-5.174-.192c-2.58-.047-5.16-.029-7.742,0a2.085,2.085,0,1,0-.044,4.17c2.023.008,4.046,0,6.068,0m18.895,4.19c1.391,0,2.784.01,4.175,0a2.27,2.27,0,0,0,2.268-1.969,2.186,2.186,0,0,0-2.029-2.184q-4.33-.1-8.664,0c-1.293.032-1.916.928-1.857,2.316a1.922,1.922,0,0,0,2.139,1.834c1.322.006,2.646,0,3.968,0m-37.635-8.376v.005c1.358,0,2.715.012,4.072,0a2.294,2.294,0,0,0,2.312-2.036,2.245,2.245,0,0,0-2.194-2.137q-4.173-.059-8.35,0a1.921,1.921,0,0,0-2.021,2.176,2,2,0,0,0,2.111,1.99c1.357.012,2.714,0,4.071,0" transform="translate(-5243.058 -197.109)" fill="#d8ec84"/>
    <path id="Path_3601" data-name="Path 3601" d="M5394.715,370.7c.114-1.195.583-1.785,1.5-1.887,1.532-.17,2.111.148,2.574,1.413.059.159.123.317.184.475a2.431,2.431,0,0,1-1.638,2.04,2.01,2.01,0,0,1-2.618-2.04" transform="translate(-5343.188 -265.548)"/>
    <path id="Path_3602" data-name="Path 3602" d="M5465.977,31.927c-.034-1.2-.812-1.949-1.279-2.82-1.035-1.936-2.2-3.8-3.318-5.7-.243-.412-.289-.686.271-.9a8.4,8.4,0,0,0,2.582-1.209c.534-.443.966.137,1.25.632q1.819,3.175,3.637,6.351a2.136,2.136,0,0,0,2.209,1.334,1.853,1.853,0,0,0,1.579-2.482c-.755-2.551-2.408-4.609-3.644-6.893-.319-.59-.258-.934.347-1.052a5.2,5.2,0,0,0,1.854-.767c1.174-.8,1.554-.2,2.056.711,1,1.813,2.054,3.6,3.127,5.367a2.027,2.027,0,0,0,2.753.7,2.183,2.183,0,0,0,.791-2.768,56.739,56.739,0,0,0-3.094-5.372c-.523-.755-.25-1.014.264-1.231a5.949,5.949,0,0,1,2.3-.613,2.448,2.448,0,0,1,2.108,1.482c2.089,3.769,4.306,7.469,6.462,11.2a1.781,1.781,0,0,1-.339,2.485c-1.344,1.1-2.737,2.139-4.116,3.2q-4.316,3.318-8.639,6.626c-2.061,1.569-4.146,3.1-6.211,4.668q-1.343,1.017-2.642,2.092c-.49.4-.785.273-1.072-.237-.767-1.362-1.565-2.706-2.342-4.062-3.051-5.322-6.091-10.651-9.163-15.962-.3-.52-.4-.7.306-.9a15.779,15.779,0,0,0,2.21-.986,1.044,1.044,0,0,1,1.586.553c1.345,2.472,2.783,4.894,4.191,7.332a2.059,2.059,0,0,0,2.547,1.051,2.351,2.351,0,0,0,1.432-1.83" transform="translate(-5385.502 -10.958)" fill="#fff5f5"/>
    <path id="Path_3603" data-name="Path 3603" d="M5237.409,50.226c-.851,1.927-2.109,3.624-3.083,5.481-.464.886-1.057,1.8-.3,2.825,1.154,1.554,2.78,1.337,3.846-.509q1.578-2.733,3.145-5.472c.24-.422.407-.684,1.005-.359,1,.544,2.09.93,3.136,1.381-1.277,2.275-2.585,4.53-3.815,6.826a2.228,2.228,0,0,0,.6,3.076c1.157.655,2.311.223,3.067-1.095,1.314-2.293,2.656-4.57,3.943-6.879.17-.3.215-.317.5-.188.95.427,1.906.845,2.882,1.207.711.263.616.614.294,1.138-1.437,2.33-2.854,4.672-4.145,7.089a1.919,1.919,0,0,0,.234,2.406,1.775,1.775,0,0,0,2.916.107c1.268-1.242,1.785-2.969,2.785-4.383.864-1.221,1.371-2.639,2.225-3.871.323-.468.54-.508.95-.286a9.743,9.743,0,0,0,2.574,1.1c.543.118.664.409.294.956-.945,1.4-1.737,2.889-2.562,4.363-2.583,4.626-5.255,9.2-7.9,13.8a15.881,15.881,0,0,0-.859,1.494c-.364.833-.759.915-1.494.345-2.92-2.272-5.879-4.5-8.824-6.734q-5.171-3.926-10.343-7.846c-.434-.329-.86-.671-1.307-.982-1.755-1.217-1.879-2.629-.626-4.341a35.985,35.985,0,0,0,2.11-3.771c.25-.445.568-.85.823-1.293,1.062-1.845,2.1-3.705,3.171-5.544a2.186,2.186,0,0,1,2.711-.855c.688.239,1.355.542,2.033.814" transform="translate(-5221.504 -35.469)" fill="#fff5f5"/>
    <path id="Path_3604" data-name="Path 3604" d="M5445.149,135.919c.988.857.935,1.681.339,2.774a36.34,36.34,0,0,0-3.761,22.731c.079.447-.043.55-.448.549q-5.077-.01-10.155,0c-.693,0-.453-.454-.382-.786a40.205,40.205,0,0,1,1.727-5.234,57.5,57.5,0,0,1,6.389-12.342,54.786,54.786,0,0,1,5.643-7.093c.212-.224.453-.419.648-.6" transform="translate(-5369.06 -97.873)" fill="#fe7b79"/>
    <path id="Path_3605" data-name="Path 3605" d="M5264.766,243.908c2.756,0,5.512.024,8.266-.017.689-.01.949.18.838.859a21.285,21.285,0,0,1-.472,2.8c-.251.812-1.1.75-1.79.748a10.464,10.464,0,0,0-4.735.654,22.1,22.1,0,0,0-2.449,1.182,11.555,11.555,0,0,1-6.89,1.747c-2.218-.076-1.864.211-1.877-1.9-.013-1.779.022-3.559-.017-5.337-.014-.6.168-.753.755-.747,2.79.029,5.581.013,8.372.013" transform="translate(-5243.042 -175.622)" fill="#fff5f5"/>
    <path id="Path_3606" data-name="Path 3606" d="M5432.336,243.925c1.884,0,3.769.017,5.653-.01.644-.009,1.07.039,1.284.823a23.466,23.466,0,0,0,1.218,3.053c.16.37.258.688-.249.789-2.119.425-3.766,1.849-5.7,2.671a8.856,8.856,0,0,1-8.617-.879c-1.078-.665-1.052-1.29-.867-2.338.2-1.14.243-2.316.424-3.474.09-.573.3-.648.78-.644,2.023.018,4.047.008,6.071.008" transform="translate(-5364.968 -175.639)" fill="#fe7b79"/>
    <path id="Path_3607" data-name="Path 3607" d="M5490.866,243.92c5.215,0,10.371.009,15.527-.013.583,0,.767.142.753.741-.039,1.846-.052,3.694,0,5.539.022.746-.583,1.1-.866,1.638-.142.267-.946.27-1.445.249a11.251,11.251,0,0,1-6-1.55,8.1,8.1,0,0,0-4.026-1.78c-2.5-.09-2.812-1.935-3.482-3.594-.152-.372-.286-.75-.468-1.231" transform="translate(-5412.425 -175.634)" fill="#fff5f5"/>
    <path id="Path_3608" data-name="Path 3608" d="M5339.719,251.866c-2.409.188-4.284-1.1-6.2-2.281-.455-.279-.244-.717-.187-1.025a20.93,20.93,0,0,0,.591-4.133c-.009-.422.154-.525.546-.524,2.86.012,5.721.023,8.579-.01.487-.006.615.3.7.589.517,1.725,1,3.458,1.473,5.2.136.5-.242.737-.626.938a9.044,9.044,0,0,1-4.875,1.249" transform="translate(-5298.917 -175.624)" fill="#fed98f"/>
    <path id="Path_3609" data-name="Path 3609" d="M5331.307,186.544c-2.528,0-4.9-.02-7.265.01-.932.012-.7-.811-.743-1.166a33.994,33.994,0,0,0-4.11-12.647,2.2,2.2,0,0,1-.469-1.406,2.032,2.032,0,0,1,.757-1.26c.3-.171.627.435.9.724a57.929,57.929,0,0,1,10.925,15.745" transform="translate(-5288.451 -122.447)" fill="#fed98f"/>
    <path id="Path_3610" data-name="Path 3610" d="M5225.885,243.966c1.113-.013,2.226-.008,3.337-.048.467-.016.667.076.666.613-.023,4.245-.013,8.49-.013,12.743-2.292-.367-4.075-3.039-4.162-4.9-.126-2.742-.006-5.5.009-8.245.053-.055.107-.111.162-.167" transform="translate(-5221.453 -175.641)" fill="#fff"/>
    <path id="Path_3611" data-name="Path 3611" d="M5563.917,257.127c0-4.444.008-8.666-.009-12.888,0-.487.109-.729.628-.642a1,1,0,0,0,.1,0c1.137.071,2.618-.476,3.306.219.546.553.146,2.047.158,3.123a22.545,22.545,0,0,1-.44,6.161c-.506,1.89-1.932,3.034-3.748,4.026" transform="translate(-5465.021 -175.312)" fill="#fff"/>
    <path id="Path_3612" data-name="Path 3612" d="M5385.713,244.057h7.259a22.006,22.006,0,0,0-.328,2.944c.081,1.415-.094,1.623-1.5,1.391a27.43,27.43,0,0,0-3.55.088c-.393-.016-.489-.031-.6-.387-.392-1.307-.822-2.6-1.282-4.036" transform="translate(-5336.706 -175.742)" fill="#fff5f5"/>
    <path id="Path_3613" data-name="Path 3613" d="M5226.023,244.072l-.162.167c-.039-.146.021-.2.162-.167" transform="translate(-5221.591 -175.746)" fill="#fff5f5"/>
    <path id="Path_3614" data-name="Path 3614" d="M5464.988,312.474c-2.718,0-5.435.008-8.154,0a2.083,2.083,0,0,1-.1-4.165q8.361-.045,16.725,0a2.093,2.093,0,1,1-.105,4.172c-2.787.013-5.574,0-8.362,0Z" transform="translate(-5386.402 -221.99)"/>
    <path id="Path_3615" data-name="Path 3615" d="M5358.136,327.366c-2.023,0-4.046.006-6.067,0a2.086,2.086,0,1,1,.044-4.171c2.58-.024,5.162-.042,7.741,0a23.629,23.629,0,0,1,5.173.192c1.178.282,1.623.937,1.489,2.287a1.92,1.92,0,0,1-1.895,1.681c-2.162.023-4.323.007-6.485.007" transform="translate(-5310.975 -232.696)"/>
    <path id="Path_3616" data-name="Path 3616" d="M5430.9,342.354c-1.322,0-2.644,0-3.966,0a1.923,1.923,0,0,1-2.14-1.834c-.06-1.388.565-2.284,1.856-2.316q4.332-.108,8.665,0a2.187,2.187,0,0,1,2.029,2.184,2.271,2.271,0,0,1-2.268,1.97c-1.391.013-2.784,0-4.176,0" transform="translate(-5364.841 -243.495)"/>
    <path id="Path_3617" data-name="Path 3617" d="M5296.262,312.453c-1.357,0-2.714.009-4.071,0a2,2,0,0,1-2.11-1.99,1.921,1.921,0,0,1,2.019-2.176q4.175-.059,8.351,0a2.245,2.245,0,0,1,2.194,2.137,2.293,2.293,0,0,1-2.312,2.036c-1.355.015-2.713,0-4.07,0Z" transform="translate(-5267.842 -221.969)"/>
  </g>
</svg>
