<svg width="69" height="69" viewBox="0 0 69 69" fill="none" xmlns="http://www.w3.org/2000/svg">
<g clip-path="url(#clip0_119_206)">
<path d="M68.9997 37.0941C67.3562 37.7787 67.6229 39.6536 66.7729 40.8799C63.8268 45.1352 57.9321 47.3142 53.0515 42.939C48.7473 39.0794 48.3474 34.0144 51.9788 28.9844C52.6199 28.0952 53.7821 27.6005 54.805 26.8504C53.8932 25.8502 53.1831 24.6764 52.715 23.3961C52.2636 21.9023 51.8719 20.3476 52.9482 19.3396C53.9947 18.3559 55.7706 18.5896 57.0043 19.1574C59.0774 20.11 60.9459 21.1427 63.3983 21.278C65.5952 21.3987 64.9181 23.7174 64.3144 24.9769C63.5004 26.6713 63.7634 27.4347 65.3503 28.3613C67.5223 29.6316 67.4644 32.5334 68.9991 34.3402L68.9997 37.0941ZM58.2081 43.0692C63.5035 42.899 66.5946 38.6622 66.3601 35.2338C66.0648 30.9088 62.9936 28.1435 58.2013 28.3626C57.2312 28.3704 56.2774 28.6184 55.4218 29.0855C54.5662 29.5525 53.8344 30.2246 53.289 31.044C50.0152 35.3571 52.2742 41.4776 58.2087 43.0698M54.5102 21.4698C55.1699 23.0302 55.27 25.0143 57.355 25.1871C57.728 25.2182 58.4327 23.7212 58.0689 22.7972C57.4278 21.1707 56.1773 20.8461 54.5102 21.4698Z" fill="#60286E"/>
<path d="M34.2617 68.9822C32.1967 68.9822 30.1305 68.9377 28.0673 68.9968C26.5215 69.0413 25.5863 68.5294 25.8648 66.7923C26.501 62.8191 25.6161 59.5464 22.1203 57.206C21.205 56.5938 20.679 55.3947 19.9166 54.517C19.0362 53.5008 19.1672 52.5831 19.9731 51.6101C21.7478 49.4698 23.4683 47.2818 25.2653 45.1618C26.9386 43.1873 31.0066 43.9647 31.716 46.4638C32.1258 47.9093 32.7595 48.6473 34.2605 48.6803C35.7989 48.714 36.4039 47.5803 37.083 46.533C37.5182 45.8586 36.5233 44.3565 37.9279 44.347C39.6311 44.3356 41.6036 43.4413 43.0269 45.0329C45.1784 47.4413 47.1856 49.9868 49.2531 52.4707C49.7325 53.0473 49.8003 53.7517 49.232 54.1778C47.1551 55.7383 46.458 58.7138 43.86 59.6804C42.6624 60.125 43.2059 61.0478 43.1878 61.7363C43.0013 68.9828 43.0169 68.9835 35.8797 68.9835H34.2631M28.0412 61.3145H28.0524C28.1172 62.3217 28.1088 63.3324 28.0275 64.3383C27.7054 66.5161 28.6567 66.9689 30.5961 66.8413C33.2876 66.6627 35.9873 66.6545 38.6797 66.8165C40.6521 66.9372 41.1409 66.1611 41.0221 64.3065C40.8822 62.1141 40.96 59.9046 40.9998 57.7014C41.0278 56.1238 40.904 54.3862 43.3005 56.1492C44.5273 57.0523 45.2641 55.5973 45.8685 54.8434C46.3834 54.202 47.4293 53.429 46.3766 52.2827C44.9141 50.6898 43.5921 48.9598 42.0966 47.4019C40.7977 46.0485 39.8364 45.9214 38.6805 47.9735C36.5694 51.7143 33.5443 52.3995 30.9805 49.6425C27.8093 46.2333 27.9411 46.1075 24.7624 49.5219C24.5759 49.7213 24.3824 49.9131 24.1946 50.1093C21.3896 53.0308 21.4039 53.1305 23.8072 56.0793C24.4869 56.9126 25.092 57.1628 25.6286 56.1022C25.9918 55.3845 26.4661 55.1337 27.1171 55.3909C27.4113 55.5099 27.6604 55.7222 27.8276 55.9966C27.9948 56.271 28.0715 56.593 28.0462 56.9152C28.0369 58.3829 28.0462 59.8506 28.0462 61.3183" fill="#60286E"/>
<path d="M34.1291 5.43588C35.2956 4.15296 36.3677 3.24984 37.0977 2.1168C38.9769 -0.804691 44.9991 -0.259769 47.0168 1.76114C49.7478 4.49655 49.6284 8.6076 46.7282 11.611C43.1348 15.3353 39.4332 18.9516 35.9088 22.7394C34.7087 24.0274 34.0893 23.8642 32.9688 22.6759C29.2914 18.7814 25.4785 15.0203 21.7358 11.1893C20.5624 10.0141 19.8765 8.42283 19.8206 6.74523C19.7647 5.06763 20.343 3.43238 21.4356 2.17841C23.8818 -0.469989 28.2517 -0.764679 30.7415 1.63857C31.903 2.76017 32.9067 4.05198 34.1317 5.43715M36.6326 18.4257C39.6453 15.4115 42.6922 12.4316 45.6551 9.36719C46.8701 8.11095 47.3134 6.59431 46.4354 4.85793C46.1111 4.11274 45.5851 3.47771 44.9193 3.02764C44.2535 2.57756 43.4755 2.33118 42.6772 2.3175C40.448 2.12125 39.2181 3.29366 37.8744 4.69534C34.5334 8.17891 34.5166 8.14016 31.2054 4.80394C30.384 3.9783 29.7131 2.9507 28.5695 2.50485C26.6823 2.50485 24.6428 1.67032 23.102 3.56294C21.3609 5.69945 21.6538 8.19923 24.0851 10.7695C26.6345 13.463 29.2635 16.0777 31.8577 18.7268C34.299 21.2189 34.299 21.2189 36.632 18.4245" fill="#60286E"/>
<path d="M20.5351 32.1402C20.1676 34.3898 21.0948 37.1309 19.9755 39.8098C19.0727 41.9723 17.6207 43.1244 15.4152 42.7313C13.0473 42.3096 11.1178 39.7043 11.4194 37.8143C11.7869 35.5095 14.1019 33.4098 16.3162 33.8677C18.1847 34.2545 18.4975 33.5825 18.3756 32.0227C18.3613 31.8404 18.3725 31.6563 18.3756 31.4727C18.4334 25.3884 18.4726 25.6253 12.6711 26.6186C9.56885 27.1495 8.63985 28.409 9.05709 31.4378C9.24651 33.4478 9.25846 35.4712 9.09261 37.4834C8.94027 41.2439 5.11302 44.0072 2.82227 42.5223C0.919522 41.2896 -0.253842 39.6809 0.0502244 37.4846C0.127066 36.9011 0.321164 36.34 0.620269 35.8366C0.919374 35.3332 1.31708 34.8983 1.78844 34.5593C2.25981 34.2202 2.79455 33.9843 3.35937 33.8663C3.92419 33.7482 4.50686 33.7507 5.07072 33.8734C6.8205 34.2113 7.04 33.5679 6.94921 32.1707C6.93118 31.897 6.94548 31.6207 6.94921 31.3451C6.97844 25.1324 6.97533 25.0962 12.8564 24.4618C14.263 24.31 15.6508 24.1963 17.0555 23.9289C20.2572 23.3186 20.5376 23.6711 20.5413 27.0282C20.5413 28.5874 20.5413 30.1466 20.5413 32.1396M13.9621 38.5034C13.8982 38.7769 13.8991 39.062 13.9646 39.3351C14.0302 39.6082 14.1586 39.8614 14.339 40.0738C14.5194 40.2862 14.7468 40.4516 15.0023 40.5563C15.2577 40.661 15.5341 40.7021 15.8082 40.6761C16.4424 40.6863 17.0548 40.4397 17.5117 39.9903C17.9685 39.5408 18.2326 38.925 18.2463 38.2773C18.2425 36.753 17.3217 36.0245 15.8616 35.968C14.2903 35.9045 13.8924 36.8756 13.9621 38.5034ZM6.88393 38.1991C6.55375 37.1372 6.23725 36.0614 4.73993 35.9432C4.4317 35.8883 4.11533 35.9034 3.81343 35.9873C3.51153 36.0712 3.23154 36.222 2.99305 36.4288C2.75456 36.6357 2.56347 36.8936 2.43348 37.1843C2.3035 37.475 2.23774 37.7913 2.24084 38.1109C2.20828 38.4047 2.23742 38.7022 2.32631 38.9836C2.41519 39.265 2.56171 39.5239 2.75623 39.7428C2.95075 39.9618 3.18881 40.136 3.4544 40.2536C3.72 40.3713 4.00702 40.4298 4.29649 40.4252C5.88709 40.5154 6.52017 39.6307 6.88393 38.1991Z" fill="#60286E"/>
<path d="M8.20425 48.6753C9.52995 48.81 9.05748 49.8649 9.08733 50.5698C9.20733 53.3986 9.91621 56.0216 12.332 57.6157C13.2547 58.2248 15.1773 60.4458 15.6138 56.9622C15.694 56.3208 16.22 56.31 16.631 56.3982C17.4132 56.5379 18.1373 56.9114 18.7116 57.4715C19.2859 58.0315 19.6847 58.753 19.8576 59.5446C20.1107 60.5506 17.4419 63.4244 16.4694 63.3228C16.1964 63.2942 15.7046 62.8839 15.7357 62.7677C16.3842 60.3632 14.4075 60.8434 13.2994 60.4718C9.20729 59.1013 6.25182 54.3113 6.93208 50.1589C7.06826 49.3257 7.37598 48.8106 8.20486 48.6747" fill="#60286E"/>
<path d="M54.1398 60.7621C52.5977 60.8027 51.4213 60.9462 51.3144 59.7941C51.2012 58.5709 52.356 58.7005 53.2551 58.5449C55.636 58.1327 57.5822 56.9228 58.5554 54.5818C58.9471 53.6387 60.6377 51.9906 57.7233 51.9042C56.7539 51.8756 57.0244 50.7801 57.2371 50.3888C57.9608 49.0551 58.7917 47.4464 60.516 47.6369C62.2086 47.8243 63.1014 49.3676 63.8283 50.8556C64.1821 51.5797 63.3308 52.082 63.1884 52.0516C61.2397 51.6387 61.4922 53.377 61.0687 54.3208C59.5416 57.7282 57.109 59.9644 54.1404 60.7627" fill="#60286E"/>
<path d="M14.4923 7.87976C15.7751 7.91533 16.8858 7.68923 16.9361 8.71112C16.8813 9.1257 16.6697 9.50185 16.3465 9.7589C16.0233 10.0159 15.6144 10.1334 15.2075 10.0861C13.4135 9.94132 12.1985 10.9607 11.1103 12.182C10.3803 13 9.09945 13.9787 11.3454 14.5598C11.4548 14.5904 11.5551 14.6475 11.6381 14.7264C11.7211 14.8052 11.7842 14.9034 11.822 15.0125C11.8597 15.1217 11.8711 15.2386 11.8551 15.3532C11.839 15.4678 11.7959 15.5767 11.7297 15.6706C10.8224 17.1428 9.62241 18.8462 7.97025 18.7191C6.66445 18.6201 5.5787 16.972 4.84434 15.6135C4.59562 15.1587 4.80201 14.3648 5.55253 14.5452C7.61819 15.0438 7.83464 13.275 8.41293 12.1235C8.99425 10.9511 9.8559 9.94749 10.9181 9.20575C11.9803 8.46401 13.2086 8.00814 14.4893 7.8804" fill="#60286E"/>
<path d="M61.4031 14.6424C61.5126 16.0193 61.4547 17.0171 60.5102 17.1492C59.4935 17.2915 59.2547 16.3699 59.2877 15.4668C59.3455 13.8676 58.4794 12.7555 57.4117 11.7521C57.0928 11.4523 56.7563 10.9855 56.2794 11.338C53.4023 13.4662 52.5747 10.2437 51.9199 9.02172C51.0189 7.3425 53.0061 6.32823 54.3636 5.45496C54.7988 5.17297 55.1502 5.06754 55.5339 5.45496C55.8448 5.77251 56.2999 6.17326 55.8839 6.59815C54.3083 8.20497 56.0897 8.10526 56.7911 8.46473C57.9982 9.02788 59.0504 9.88648 59.8548 10.9644C60.6592 12.0424 61.1908 13.3063 61.4025 14.6443" fill="#60286E"/>
<path d="M58.2023 28.3626C62.9946 28.1435 66.0656 30.9087 66.361 35.2338C66.5954 38.6634 63.5045 42.8989 58.2091 43.0692C58.1488 42.7168 58.0349 42.3763 57.8715 42.06C53.8011 36.6209 53.8676 33.613 58.2029 28.362" fill="#FF4975"/>
<path d="M58.2023 28.362C53.867 33.6124 53.8012 36.6184 57.8709 42.0593C58.0346 42.3756 58.1487 42.7161 58.2091 43.0685C52.2746 41.4769 50.0155 35.3558 53.2887 31.0428C54.5821 29.34 56.1075 28.3842 58.2011 28.3613" fill="#FE73A4"/>
<path d="M54.5098 21.4692C56.1768 20.8461 57.4272 21.1707 58.0683 22.7965C58.4321 23.72 57.7307 25.2176 57.3545 25.1864C55.2702 25.0137 55.1695 23.0271 54.5098 21.4692Z" fill="#5FCAFC"/>
<path d="M28.041 61.3139C28.041 59.8462 28.0341 58.3784 28.041 56.9107C28.0664 56.5885 27.9899 56.2665 27.8227 55.9921C27.6554 55.7177 27.4063 55.5054 27.112 55.3864C26.4616 55.1286 25.9865 55.3801 25.6234 56.0977C25.0868 57.1584 24.4818 56.9081 23.8021 56.0749C21.3995 53.1286 21.3845 53.0308 24.1902 50.1049C24.3767 49.9086 24.572 49.7168 24.7585 49.5174C27.9372 46.1031 27.8054 46.2288 30.9767 49.6381C33.5398 52.3951 36.5654 51.7098 38.6758 47.969C39.8324 45.9189 40.7937 46.0459 42.0958 47.3974C43.5881 48.9553 44.9133 50.6853 46.3752 52.2782C47.4279 53.4252 46.382 54.1975 45.8678 54.839C45.2628 55.5935 44.5265 57.0479 43.2996 56.1447C40.9032 54.3817 41.027 56.1193 40.999 57.6969C40.9604 59.8982 40.8815 62.1078 41.022 64.3021C41.1408 66.1566 40.6489 66.9327 38.679 66.812C35.9866 66.65 33.2869 66.6583 30.5955 66.8368C28.6567 66.9638 27.7046 66.511 28.0267 64.3338C28.1081 63.3279 28.1164 62.3172 28.0516 61.3101H28.0404" fill="#FFD30F"/>
<path d="M28.5677 2.5048C29.713 2.94938 30.3815 3.97761 31.2029 4.80389C34.5159 8.14011 34.5303 8.17885 37.8719 4.69529C39.2163 3.2936 40.4461 2.12119 42.6753 2.31744C43.4736 2.3312 44.2516 2.57762 44.9174 3.02768C45.5832 3.47775 46.1093 4.11273 46.4337 4.85787C47.3117 6.59172 46.8689 8.10772 45.6532 9.36714C42.6903 12.4315 39.6434 15.4115 36.6307 18.425L35.4805 17.2603C33.7263 13.9151 31.0792 11.4643 27.9882 9.45669C26.9784 7.03502 27.5019 4.74736 28.5683 2.50607" fill="#FF4975"/>
<path d="M28.5673 2.50426C27.5016 4.74555 26.9779 7.03321 27.9883 9.45487C27.8223 9.65684 27.5314 9.8461 27.5109 10.062C27.3567 11.7336 32.8927 17.7907 34.5517 17.7468C34.8626 17.7392 35.1703 17.4293 35.4794 17.2559L36.6298 18.4207C34.2961 21.2152 34.296 21.2152 31.8548 18.7236C29.2606 16.0746 26.6316 13.4592 24.0821 10.7664C21.6502 8.19736 21.3586 5.69631 23.0984 3.5598C24.6399 1.66718 26.6789 2.50425 28.5661 2.50171" fill="#FE73A4"/>
<path d="M13.9621 38.504C13.8925 36.8762 14.2904 35.9071 15.8623 35.968C17.3223 36.0246 18.2432 36.7524 18.2469 38.2773C18.2332 38.925 17.9692 39.5409 17.5123 39.9903C17.0555 40.4398 16.4431 40.6863 15.8089 40.6761C15.5347 40.7021 15.2584 40.661 15.0029 40.5563C14.7474 40.4515 14.52 40.2862 14.3395 40.0738C14.159 39.8615 14.0306 39.6083 13.965 39.3352C13.8993 39.0621 13.8984 38.777 13.9621 38.5034" fill="#5FCAFC"/>
<path d="M6.88451 38.1998C6.52138 39.6319 5.88967 40.5166 4.29783 40.4258C4.00831 40.4305 3.72111 40.3721 3.45544 40.2545C3.18977 40.1368 2.9517 39.9627 2.75711 39.7437C2.56252 39.5247 2.41596 39.2658 2.32704 38.9844C2.23812 38.7029 2.20886 38.4054 2.24142 38.1115C2.2383 37.7919 2.3042 37.4755 2.43422 37.1847C2.56423 36.894 2.75523 36.636 2.99379 36.4292C3.23235 36.2223 3.51264 36.0716 3.81462 35.9877C4.1166 35.9038 4.43284 35.8889 4.74111 35.9439C6.23844 36.062 6.55495 37.1379 6.88451 38.1998Z" fill="#5FCAFC"/>
<path d="M35.4801 17.259C35.1692 17.4305 34.865 17.7424 34.5522 17.75C32.8939 17.7906 27.3572 11.7342 27.5115 10.0652C27.5314 9.84987 27.8224 9.65997 27.9884 9.45801C31.0789 11.4656 33.7266 13.9165 35.4801 17.2616" fill="#60286E"/>
</g>
<defs>
<clipPath id="clip0_119_206">
<rect width="69" height="69" fill="white"/>
</clipPath>
</defs>
</svg>
