<svg width="69" height="69" viewBox="0 0 69 69" fill="none" xmlns="http://www.w3.org/2000/svg">
<g clip-path="url(#clip0_119_174)">
<path d="M39.1706 0C38.8921 0.264153 38.6131 0.153678 38.334 0H39.1706Z" fill="#544F57"/>
<path d="M31.085 0C30.918 0.185154 30.7057 0.151209 30.4941 0.108006C30.4967 0.0700535 30.5082 0.0331409 30.5274 0H31.085Z" fill="#544F57"/>
<path d="M30.5279 0C30.5087 0.0331409 30.4975 0.0700535 30.495 0.108006H29.985C29.9713 0.0742828 29.966 0.0379526 29.9692 0.00185154L30.5279 0Z" fill="#EAAC9D"/>
<path d="M18.9547 57.4365C19.6199 57.6334 20.0086 57.4705 20.375 56.7978C20.8772 55.8081 21.5953 54.9359 22.4797 54.2415C23.3641 53.547 24.3937 53.0469 25.4973 52.7756C26.6064 52.5586 27.7388 52.4741 28.8692 52.5238C29.1667 52.5195 29.2113 52.7133 29.2814 52.9558C29.5243 53.8885 30.0224 54.7404 30.7231 55.422C31.4239 56.1036 32.3013 56.5895 33.2631 56.8286C34.7021 57.178 36.2248 56.9748 37.5127 56.2616C38.8006 55.5484 39.7538 54.3805 40.1731 53.0021C40.2718 52.6108 40.5006 52.5306 40.9014 52.5133C42.9586 52.363 45.0063 52.9068 46.6966 54.0525C47.901 54.903 48.8208 56.0773 49.3421 57.4298C49.9608 58.9573 50.0857 60.5959 50.4552 62.182C50.6598 63.0603 50.8667 63.3843 51.8282 63.3652C53.8034 63.3257 55.7789 63.3707 57.7541 63.3411C58.2587 63.3337 58.3831 63.488 58.3608 63.9478C58.3206 64.7995 58.3275 65.6537 58.3409 66.5072C58.346 66.8325 58.2879 66.9825 57.8947 66.9806C54.619 66.9652 51.344 66.9769 48.0683 66.9664C47.703 66.9431 47.3613 66.7834 47.1151 66.5209C46.8688 66.2585 46.7374 65.9137 46.7483 65.5592C46.7444 64.5934 46.7392 63.6275 46.7526 62.6622C46.79 62.3508 46.7049 62.0373 46.5143 61.784C46.3569 61.6111 46.3035 61.1927 45.9409 61.3414C45.4885 61.5266 44.7149 61.3056 44.6946 62.0981C44.5665 63.714 44.6168 65.3386 44.8448 66.9442H24.5879C25.0868 65.5031 24.8861 64.0089 24.9064 62.5307C24.916 61.7438 24.5624 61.4464 23.7628 61.447C23.0268 61.447 22.814 61.6556 22.7955 62.4881C22.7751 63.4312 22.8008 64.3749 22.7862 65.3179C22.8057 65.5404 22.7746 65.7642 22.6953 65.9738C22.616 66.1834 22.4902 66.3737 22.327 66.5312C22.1637 66.6888 21.9668 66.8098 21.7501 66.8858C21.5335 66.9619 21.3024 66.991 21.0728 66.9713C18.0068 66.9713 14.9385 66.9547 11.8724 66.9868C11.2958 66.9929 11.1799 66.8115 11.2048 66.3079C11.2449 65.5012 11.2373 64.6902 11.2048 63.883C11.1895 63.4726 11.3099 63.3467 11.747 63.3522C13.5598 63.3763 15.3721 63.3312 17.1829 63.3738C18.3515 63.4016 18.7006 63.2584 19.016 62.0055C19.1635 61.4748 19.2458 60.9292 19.2618 60.3799C19.2961 60.1586 19.2399 59.9331 19.105 59.7514C18.9702 59.5697 18.7675 59.4462 18.54 59.4072C18.6793 58.7522 18.8183 58.0969 18.9572 57.4415" fill="#E7ECF1"/>
<path d="M57.41 44.2098C56.6511 44.3067 56.3432 44.6813 56.3388 45.5565C56.3318 47.1735 56.3185 48.7911 56.3484 50.4075C56.3567 50.9012 56.2209 51.066 55.687 51.0629C52.3654 51.0407 49.0425 51.05 45.7203 51.0537C44.9881 50.957 44.2625 50.8181 43.5474 50.6377C42.6967 50.5534 41.8417 50.5151 40.9866 50.5229C40.6368 50.5229 40.4248 50.4791 40.4229 50.0569C40.421 49.6348 40.6203 49.6187 40.9714 49.5805C46.1325 49.0201 50.2352 46.7668 52.9974 42.4428C53.6284 41.4306 54.132 40.3488 54.4973 39.2205C54.9691 38.8124 55.5774 38.5833 56.21 38.5756C56.3801 38.678 56.3316 38.8521 56.3323 39.0014C56.3393 39.6303 56.3325 40.2592 56.3369 40.8881C56.3129 41.1815 56.397 41.4735 56.5746 41.7123C56.7522 41.951 57.0118 42.1209 57.3067 42.1916C57.2322 42.8654 57.2664 43.5463 57.4084 44.2098" fill="#544F57"/>
<path d="M60.1943 4.09558C60.2 5.28982 60.1998 5.28859 61.4111 5.29044C61.7819 5.26735 62.154 5.27437 62.5236 5.31142C62.6572 5.31478 62.7885 5.34561 62.9088 5.40188C63.0291 5.45814 63.136 5.53856 63.2218 5.63778C63.3076 5.73701 63.3705 5.85277 63.4066 5.97739C63.4427 6.10202 63.4509 6.23265 63.4309 6.36063C63.4375 6.48806 63.4163 6.6154 63.3683 6.73424C63.3204 6.85308 63.2471 6.96071 63.153 7.05002C63.059 7.13933 62.9462 7.20829 62.8226 7.25234C62.699 7.29638 62.567 7.31451 62.4356 7.30553C61.8328 7.32898 61.2291 7.32898 60.6242 7.30553C60.2808 7.29195 60.1784 7.41477 60.1937 7.732C60.2244 8.29267 60.2223 8.85458 60.1877 9.41505C60.1947 9.64805 60.1255 9.87722 59.9899 10.0698C59.8543 10.2623 59.6592 10.4084 59.4327 10.4871C59.2397 10.5732 59.0225 10.5942 58.8157 10.5466C58.609 10.4991 58.4245 10.3858 58.2921 10.2248C58.1571 10.0471 58.0954 9.82705 58.1188 9.60761C58.1061 9.02437 58.0768 8.43805 58.1188 7.85729C58.1519 7.39132 57.9646 7.28393 57.5236 7.30738C56.9451 7.33824 56.3621 7.29689 55.7823 7.31479C55.1101 7.33515 54.8267 6.97781 54.7783 6.38902C54.7533 6.25732 54.7583 6.12189 54.7936 5.99239C54.8288 5.8629 54.8933 5.74254 54.9821 5.6399C55.0709 5.53726 55.1818 5.45487 55.3072 5.39863C55.4327 5.34238 55.5697 5.31366 55.7079 5.31451C56.31 5.26696 56.9148 5.26325 57.5174 5.3034C58.0271 5.3392 58.1545 5.15157 58.1169 4.69548C58.0774 4.18199 58.1124 3.66356 58.1085 3.14698C58.1041 2.59522 58.2667 2.18356 58.937 2.15949C59.6838 2.13048 60.1164 2.43352 60.1859 3.0902C60.2058 3.42644 60.2077 3.76345 60.1921 4.0999" fill="black"/>
<path d="M3.20529 24.9556C2.50886 24.9482 1.81254 24.9494 1.11675 24.9303C0.973937 24.9409 0.830451 24.9228 0.695181 24.8772C0.559911 24.8316 0.435723 24.7595 0.330549 24.6653C0.225376 24.5711 0.14137 24.4569 0.0838317 24.3299C0.0262939 24.2028 -0.00359623 24.0657 -0.00390387 23.9269C-0.00421151 23.7882 0.0253023 23.6509 0.0822761 23.5236C0.13925 23.3963 0.222683 23.2818 0.327438 23.1872C0.432193 23.0926 0.555758 23.0199 0.690825 22.9738C0.825892 22.9276 0.969536 22.9089 1.11239 22.9189C1.64542 22.8847 2.18009 22.887 2.71279 22.9257C3.3283 22.9936 3.46421 22.756 3.40814 22.2197C3.37407 21.7492 3.37218 21.277 3.40285 20.8063C3.42515 20.1317 3.75652 19.8151 4.41026 19.809C5.11114 19.8022 5.45019 20.0996 5.48268 20.8063C5.51132 21.3221 5.51132 21.839 5.48268 22.3548C5.45592 22.7782 5.56627 22.9343 6.04861 22.93C6.71104 22.8456 7.38364 22.8786 8.03386 23.0275C8.20225 23.0561 8.35938 23.1293 8.48747 23.2389C8.61556 23.3486 8.70976 23.4905 8.7597 23.6489C8.80965 23.8072 8.81323 23.9759 8.77028 24.1362C8.72733 24.2964 8.63957 24.4421 8.51641 24.5569C8.33609 24.7575 8.24562 25.1599 7.81234 25.0507C7.76519 24.889 7.64395 24.9272 7.52798 24.9538H5.71789L5.58006 24.9778C5.47412 25.6331 5.44521 26.2979 5.49357 26.9596C5.45152 27.6743 5.01366 28.1847 4.41026 28.1544C4.18163 28.1739 3.95442 28.1052 3.77775 27.9633C3.60108 27.8214 3.48924 27.6178 3.46663 27.3965C3.32645 26.6183 3.49334 25.8351 3.36272 25.0611C3.37928 24.9377 3.30232 24.9377 3.2112 24.9531" fill="black"/>
<path d="M62.3084 46.9136C63.6503 46.9303 63.6464 46.9303 63.6509 45.6392C63.6509 45.3478 63.691 45.0541 63.6655 44.7658C63.6425 44.655 63.644 44.5408 63.6698 44.4305C63.6957 44.3203 63.7454 44.2166 63.8154 44.1262C63.8855 44.0358 63.9744 43.9608 64.0765 43.9061C64.1786 43.8513 64.2915 43.8181 64.4078 43.8086C64.9985 43.716 65.5106 43.8654 65.6476 44.5295C65.7068 44.8347 65.7367 45.1446 65.7369 45.4552C65.7471 46.9291 65.7412 46.9291 67.2953 46.9291C67.4814 46.9291 67.6674 46.9229 67.8528 46.9291C68.5894 46.9593 69.0057 47.3339 68.9999 47.9598C68.9844 48.2368 68.8562 48.4967 68.6434 48.6824C68.4306 48.8682 68.1505 48.9647 67.8643 48.9509C67.1743 48.9861 66.2805 48.667 65.8536 49.0818C65.4598 49.4632 65.76 50.3217 65.7459 50.9697C65.7674 51.2245 65.6976 51.4787 65.5481 51.6894C65.3986 51.9001 65.1785 52.0544 64.9252 52.1263C64.7308 52.2085 64.5122 52.2195 64.3101 52.1572C64.108 52.0948 63.9361 51.9634 63.8266 51.7875C63.6757 51.4395 63.6146 51.0612 63.6484 50.6852C63.6146 50.1298 63.8987 49.4175 63.5342 49.0627C63.1697 48.7078 62.4319 48.9935 61.8604 48.9491C61.4781 48.9195 61.0627 49.041 60.7288 48.788C60.5568 48.6957 60.4177 48.555 60.33 48.3845C60.2423 48.2141 60.2101 48.0218 60.2376 47.8332C60.2677 47.6143 60.3713 47.4111 60.5325 47.255C60.6937 47.0988 60.9036 46.9984 61.1295 46.9692C61.5208 46.934 61.9146 46.9278 62.3078 46.9075" fill="black"/>
<path d="M7.52588 24.9556C7.64248 24.9285 7.76277 24.8908 7.81055 25.0525C7.62514 25.2698 7.56538 25.1414 7.52588 24.9556Z" fill="#E7ECF1"/>
<path d="M5.5752 24.9798L5.71271 24.9557C5.67575 25.0143 5.63445 25.0439 5.5752 24.9798Z" fill="#E7ECF1"/>
<path d="M3.20703 24.9556C3.29815 24.9383 3.37575 24.939 3.35855 25.0636L3.20703 24.9556Z" fill="#E7ECF1"/>
<path d="M18.9576 57.4364C18.114 56.6872 18.0857 56.5773 18.6088 55.6602C19.1169 54.7082 19.8116 53.8613 20.6541 53.1668C20.4585 53.0517 20.2258 53.0112 20.0011 53.0532C17.5161 53.0483 15.0313 53.0532 12.5463 53.0489C11.3835 53.0489 11.1087 52.7891 11.1074 51.6633C11.1032 47.1291 11.1064 42.5951 11.1171 38.0613C11.1298 37.8677 11.0946 37.6739 11.0144 37.4961C10.9342 37.3184 10.8111 37.1617 10.6557 37.0393C9.26314 35.833 8.39747 34.1582 8.23455 32.3555C8.12747 31.4458 8.30217 30.5258 8.73639 29.7126C9.1706 28.8993 9.8448 28.2295 10.6731 27.7884C10.8094 27.7361 10.9249 27.6434 11.0035 27.5236C11.0821 27.4038 11.1195 27.2629 11.1105 27.1212C11.1105 24.8093 11.1513 22.4973 11.1105 20.186C11.095 17.5993 11.6152 15.0358 12.64 12.6471C13.4278 10.6912 14.5598 8.88237 15.9858 7.30113C18.0071 4.96977 20.5455 3.11031 23.4119 1.86132C25.5095 0.984872 27.7226 0.394171 29.9877 0.10606H30.4973C30.7101 0.148645 30.9215 0.186293 31.0884 -0.00256348H38.3372C38.6163 0.151731 38.8954 0.261589 39.1738 -0.00256348H39.3138C39.8159 0.532531 40.5213 0.264675 41.1146 0.367744C44.4383 0.948642 47.5685 2.29652 50.2406 4.29732C53.3091 6.55523 55.6575 9.60629 57.0152 13.0995C57.4533 14.1904 57.7867 15.318 58.0111 16.4681C58.6674 19.8675 58.3896 23.2947 58.4501 26.7133C58.4609 27.273 58.4342 27.6785 59.1778 27.9637C60.3655 28.4191 60.8408 29.5356 61.0504 30.6941C61.2884 31.8166 61.2168 32.98 60.8432 34.0673C60.4697 35.1547 59.807 36.1275 58.9221 36.8881C58.7585 37.0252 58.6302 37.1974 58.5475 37.391C58.4647 37.5846 58.4297 37.7943 58.4454 38.0033C58.4786 38.9908 58.466 39.9783 58.4526 40.9658C58.4399 41.7144 58.12 42.0428 57.3127 42.1915C57.0178 42.1206 56.7585 41.9507 56.5809 41.712C56.4033 41.4733 56.319 41.1813 56.3429 40.888C56.3429 40.2591 56.343 39.6302 56.3385 39.0013C56.3385 38.8519 56.3854 38.6779 56.2166 38.5754C55.5836 38.5831 54.9749 38.8122 54.5026 39.2204C54.1375 40.3483 53.6343 41.4299 53.004 42.4421C50.2412 46.7666 46.1378 49.0193 40.9774 49.5797C40.6256 49.618 40.4269 49.6415 40.4289 50.0562C40.4308 50.471 40.6431 50.5203 40.9935 50.5222C41.8485 50.5144 42.7029 50.5527 43.5534 50.637C44.2683 50.8172 44.9937 50.9561 45.7257 51.0529C49.0479 51.0492 52.3714 51.0406 55.693 51.0622C56.2257 51.0659 56.3634 50.9024 56.3538 50.4068C56.3245 48.7904 56.3378 47.1727 56.3448 45.5557C56.3486 44.6812 56.6571 44.306 57.416 44.2091C58.3596 44.5399 58.457 44.6837 58.457 45.7662C58.457 47.7412 58.4608 49.7161 58.457 51.6942C58.457 52.6916 58.0893 53.044 57.0379 53.0464C54.5765 53.0526 52.1134 53.0464 49.652 53.0464H48.8829C49.6219 53.8615 50.2831 54.7399 50.8582 55.6707C51.5112 57.011 51.9441 58.4417 52.1419 59.9113C52.1514 59.9545 52.137 60.002 52.1459 60.0459C52.3868 61.3222 52.3867 61.3222 53.7432 61.3222C57.8084 61.3222 61.8734 61.3222 65.9381 61.3222C67.1851 61.3222 67.4596 61.6061 67.4825 62.8034C67.6125 64.1432 67.2793 65.4868 66.5352 66.6231C66.0455 67.3575 65.3717 67.9597 64.5767 68.3735C63.7817 68.7873 62.8912 68.9992 61.9888 68.9894C43.6149 68.9939 25.2413 68.9853 6.8678 68.9635C5.06269 68.9585 3.73744 67.8717 2.78996 66.3868C2.05955 65.1781 1.77807 63.7638 1.99225 62.3788C2.08464 61.5567 2.34309 61.3179 3.33007 61.3191C7.65073 61.324 11.9722 61.3098 16.2922 61.3339C16.8975 61.3376 17.1203 61.1839 17.177 60.5785C17.2656 59.6527 17.5673 59.4528 18.546 59.3984C18.7735 59.4373 18.9761 59.5608 19.111 59.7425C19.2458 59.9242 19.3022 60.1498 19.2678 60.3711C19.252 60.9204 19.1695 61.4661 19.0223 61.9968C18.7037 63.249 18.3571 63.3922 17.1892 63.3651C15.3783 63.3225 13.5657 63.3651 11.7536 63.3435C11.3165 63.3379 11.1961 63.4669 11.2107 63.8742C11.2419 64.6815 11.2496 65.4925 11.2107 66.2991C11.1865 66.8027 11.3011 66.9836 11.879 66.978C14.9451 66.9465 18.0118 66.9638 21.0785 66.9626C21.3081 66.9824 21.5394 66.9533 21.7561 66.8773C21.9728 66.8013 22.1699 66.6803 22.3332 66.5227C22.4965 66.3651 22.622 66.1748 22.7013 65.9652C22.7805 65.7555 22.8114 65.5316 22.7918 65.3092C22.8058 64.3661 22.7804 63.4225 22.8021 62.4794C22.8199 61.6468 23.0321 61.4382 23.7694 61.4382C24.5696 61.4382 24.9232 61.7357 24.9124 62.5226C24.8946 64.0038 25.0946 65.4949 24.5938 66.9361H44.8514C44.6233 65.3305 44.5732 63.7059 44.7018 62.09C44.7215 61.2969 45.4951 61.5185 45.9469 61.3333C46.3088 61.1852 46.3616 61.603 46.5202 61.7758C46.71 62.0295 46.7948 62.3428 46.7579 62.6541C46.7446 63.6193 46.7498 64.5852 46.7536 65.5511C46.7426 65.9055 46.874 66.2503 47.1201 66.5127C47.3662 66.7752 47.7078 66.9349 48.073 66.9583C51.3487 66.9688 54.6237 66.9583 57.9007 66.9725C58.2957 66.9725 58.3538 66.8243 58.3468 66.4991C58.3334 65.6461 58.3263 64.7914 58.367 63.9396C58.3893 63.4792 58.2647 63.3225 57.7607 63.333C55.7854 63.362 53.81 63.3169 51.8348 63.3564C50.872 63.3755 50.6664 63.0521 50.4612 62.1733C50.0923 60.5896 49.9673 58.9504 49.3486 57.421C48.8273 56.0686 47.9075 54.8943 46.7032 54.0438C45.0128 52.8982 42.9652 52.3544 40.908 52.5046C40.5066 52.5225 40.2791 52.6021 40.179 52.994C39.76 54.3724 38.8068 55.5404 37.519 56.2536C36.2311 56.9668 34.7086 57.17 33.2697 56.8205C32.3079 56.5812 31.4304 56.0953 30.7297 55.4137C30.029 54.7322 29.531 53.8803 29.288 52.9477C29.2185 52.7076 29.1721 52.5157 28.8745 52.5157C27.7446 52.4661 26.6126 52.5506 25.5038 52.7675C24.4003 53.0387 23.3707 53.5388 22.4863 54.2333C21.6019 54.9277 20.8838 55.8 20.3816 56.7896C20.0152 57.4624 19.6265 57.6259 18.9613 57.4284M65.3594 63.4632C65.3754 63.3718 65.3425 63.3311 65.2443 63.3583C63.7884 63.3521 62.3324 63.3539 60.8778 63.333C60.5426 63.328 60.4317 63.4323 60.4413 63.7533C60.4719 64.5105 60.4749 65.2691 60.4883 66.0269C60.3971 66.9675 60.3974 66.9681 61.355 66.9669C61.6787 66.9669 62.0024 66.9706 62.3248 66.9577C62.9293 66.8911 63.5041 66.6691 63.9902 66.3148C64.4763 65.9605 64.8559 65.4867 65.0894 64.9426C65.3559 64.4948 65.451 63.9703 65.3582 63.4613M4.07053 63.4613C4.02272 63.9697 4.11987 64.481 4.35147 64.9395C4.61292 65.4692 4.98595 65.9401 5.4463 66.322C6.26953 67.0354 7.2304 66.9718 8.20655 66.9669C9.15466 66.962 9.15462 66.9669 9.07115 66.0239C9.08389 65.2672 9.08445 64.5099 9.11439 63.7533C9.1265 63.436 9.02151 63.3268 8.68381 63.3317C7.18454 63.3533 5.68586 63.3515 4.18596 63.3576C4.08719 63.3305 4.05336 63.3706 4.06929 63.4626M38.3294 50.9338C38.3403 50.6203 38.3295 50.3049 38.364 49.9939C38.4066 49.6168 38.2236 49.5532 37.8808 49.5551C35.8367 49.5674 33.7929 49.5674 31.7492 49.5551C31.3536 49.5551 31.1613 49.6445 31.1976 50.0834C31.2441 50.6635 31.2027 51.2504 31.225 51.8331C31.2831 52.6875 31.6776 53.4877 32.3273 54.0684C32.977 54.6491 33.8321 54.966 34.7161 54.9535C35.2373 54.952 35.7519 54.8426 36.2259 54.6327C36.7 54.4227 37.1224 54.1171 37.4645 53.7362C37.8067 53.3554 38.0608 52.9081 38.2099 52.4244C38.3591 51.9406 38.3999 51.4316 38.3294 50.9314M33.33 47.498C35.9654 47.511 38.6002 47.6387 41.2356 47.4363C42.6313 47.3323 43.9971 46.9905 45.2702 46.4266C47.2125 45.5852 48.9219 44.3108 50.2587 42.7075C51.3183 41.3955 52.1259 39.9098 52.6434 38.3212C52.9729 37.1499 53.12 35.9376 53.0799 34.7242C53.1372 31.784 53.0907 28.8419 53.1091 25.8986C53.1336 25.7504 53.0994 25.5987 53.0133 25.4739C52.9272 25.3492 52.7954 25.2606 52.6446 25.2259C49.922 24.26 47.8998 22.4282 46.1177 20.2884C45.41 19.4571 44.7675 18.5756 44.1959 17.6512C44.0385 17.392 43.855 17.2297 43.6135 17.4704C42.5487 18.5264 41.0903 18.9751 39.8542 19.7712C38.9194 20.2854 37.9435 20.726 36.9359 21.0889C36.2388 21.3975 35.4889 21.6549 34.7587 21.9258C32.6427 22.7121 30.419 23.1688 28.2635 23.8354C27.0841 24.1995 25.8384 24.2513 24.666 24.629C23.9484 24.7273 23.2367 24.8637 22.5345 25.0376C20.6428 25.2845 18.7467 25.5073 16.8479 25.7128C16.5503 25.7455 16.4513 25.8177 16.459 26.1053C16.5418 29.685 16.2991 33.2646 16.5915 36.8393C16.704 38.1231 17.0997 39.3686 17.7514 40.4918C18.7106 42.2252 20.0294 43.7479 21.6248 44.9645C23.2928 46.2049 25.2478 47.033 27.3205 47.377C29.3127 47.6227 31.3263 47.6608 33.3269 47.4906M55.1927 27.6489C56.0076 27.5514 56.3345 27.2169 56.3364 26.4886C56.3402 25.0963 56.3116 23.7039 56.3448 22.3122C56.3832 20.4985 56.3011 18.6844 56.0984 16.881C55.9348 16.0099 55.6692 15.1597 55.3069 14.3468C53.7755 10.01 50.6132 6.39131 46.4502 4.21215C43.4623 2.65569 40.1024 1.89255 36.7116 2.00018C34.7364 2.02487 32.7612 2.00759 30.7891 2.01499C30.3062 2.01499 29.8041 1.79775 29.3421 2.07671C28.9551 2.27198 28.5327 2.39291 28.0983 2.43282C27.4286 2.55626 26.7921 2.88337 26.0791 2.72228C25.5573 3.44747 24.6385 3.47277 23.9128 3.82827C19.7636 5.79466 16.4876 9.14708 14.6884 13.268C14.0877 14.4343 13.6703 15.681 13.4498 16.9668C13.2405 18.282 13.1572 19.6132 13.2013 20.9433C13.3484 22.7732 13.2554 24.6229 13.228 26.4639C13.1944 26.6916 13.2406 26.9235 13.359 27.1229C13.4774 27.3222 13.661 27.4774 13.8811 27.5637C14.3908 27.8186 14.3608 27.6322 14.3589 27.2749C14.3545 26.4664 14.3589 25.6579 14.3589 24.85C14.3328 24.6347 14.3815 24.4171 14.4977 24.2318C14.6138 24.0465 14.7906 23.9042 14.9998 23.8273C15.8836 23.5311 16.8861 23.8995 17.7399 23.399C18.4102 23.857 19.1925 23.4897 19.7488 23.3521C21.0129 23.0392 22.3243 23.191 23.5662 22.7806C24.4085 22.5023 25.3809 22.5609 26.2079 22.3041C27.9792 21.7536 29.8161 21.4672 31.576 20.8766C33.8741 20.162 36.1212 19.3016 38.3027 18.3011C40.1759 17.4685 41.9117 16.3721 43.4535 15.0473C43.5636 14.9044 43.7114 14.7929 43.8813 14.7245C44.0513 14.6561 44.2371 14.6333 44.4193 14.6586C44.6015 14.6839 44.7734 14.7562 44.9167 14.8681C45.0601 14.9799 45.1695 15.1271 45.2338 15.2942C45.5682 15.9246 45.9374 16.5371 46.3398 17.1291C47.7276 19.0423 49.1436 20.9124 51.2017 22.2319C52.06 22.8248 53.0168 23.2709 54.0307 23.5508C54.8947 23.7613 55.1889 24.0551 55.1933 24.9025C55.1984 25.8214 55.1933 26.7404 55.1933 27.6637M19.362 50.9548C21.2678 50.8135 23.5738 51.2276 25.8383 50.6462C26.7769 50.4894 27.732 50.448 28.6813 50.5228C29.0808 50.5197 29.1274 50.329 29.1274 50.0173C29.1274 49.7057 29.0082 49.5995 28.6813 49.5822C27.6501 49.5099 26.6288 49.3376 25.633 49.0681C23.0381 48.4177 20.6705 47.1065 18.7753 45.2706C17.2489 43.8173 16.0826 42.0477 15.3638 40.0949C15.0918 39.3543 14.8432 38.6834 13.8269 38.6038C13.3286 38.565 13.2273 38.6396 13.2293 39.0865C13.2399 42.8562 13.2399 46.6261 13.2293 50.3963C13.2293 50.848 13.3918 50.9678 13.8359 50.9622C15.5563 50.9425 17.2708 50.9542 19.3639 50.9542M55.0648 35.0254C55.057 35.1372 55.057 35.2494 55.0648 35.3612C55.1215 35.7858 54.8443 36.4462 55.2132 36.582C55.6287 36.7344 56.2077 36.4301 56.6403 36.1271C56.6582 36.1141 56.6722 36.0938 56.6914 36.0814C57.5994 35.5406 58.3078 34.7356 58.7152 33.7814C59.1226 32.8273 59.2081 31.7728 58.9597 30.7687C58.8777 30.4487 58.7009 30.159 58.4507 29.9353C58.2006 29.7117 57.8881 29.5639 57.5522 29.5103C56.3887 29.4042 55.6834 29.706 55.3087 30.396C55.1074 30.7694 55.2031 30.8737 55.595 30.8687C56.1043 30.8398 56.6148 30.8398 57.1241 30.8687C57.364 30.8634 57.5997 30.93 57.7989 31.0595C57.9982 31.189 58.1514 31.375 58.2373 31.5921C58.3103 31.7918 58.3118 32.0096 58.2414 32.2103C58.171 32.4109 58.0326 32.5827 57.849 32.698C57.3603 33.0684 56.824 32.8332 56.3149 32.8672C55.4777 32.9233 55.0655 33.2875 55.0642 34.0836C55.0642 34.3971 55.0642 34.7107 55.0642 35.0248M14.3602 35.1433C14.3366 34.7852 14.3399 34.4259 14.3698 34.0682C14.397 33.9106 14.3859 33.749 14.3375 33.5962C14.289 33.4435 14.2043 33.3037 14.0904 33.1881C13.9766 33.0725 13.8366 32.9841 13.6813 32.93C13.5261 32.8759 13.3601 32.8576 13.1963 32.8764C12.7363 32.9296 12.2708 32.9163 11.8149 32.8369C11.608 32.7892 11.4276 32.6669 11.3106 32.4949C11.1936 32.3228 11.1488 32.1141 11.1852 31.9111C11.3381 31.3927 11.6126 30.8619 12.332 30.8552C12.8417 30.8514 13.3517 30.8416 13.8615 30.8638C14.1909 30.878 14.2811 30.7737 14.176 30.4756C13.8383 29.5227 11.937 29.0968 11.1896 29.814C10.3287 30.641 10.2703 31.6495 10.4525 32.7369C10.6137 33.633 11.027 34.4685 11.6469 35.1517C12.2668 35.8349 13.0693 36.3392 13.966 36.6091C14.2922 36.6924 14.4341 36.6838 14.3736 36.2845C14.3407 35.9045 14.3363 35.5227 14.3602 35.1421" fill="black"/>
<path d="M55.1915 27.6651C55.1915 26.7393 55.1954 25.8228 55.1915 24.9038C55.1864 24.0571 54.8923 23.7627 54.0283 23.5528C53.0144 23.2722 52.0571 22.826 51.1983 22.2333C49.1415 20.9138 47.7251 19.0425 46.338 17.1305C45.9354 16.5384 45.5659 15.9259 45.2307 15.2956C45.1666 15.1285 45.057 14.9813 44.9137 14.8694C44.7705 14.7575 44.5987 14.6851 44.4165 14.6599C44.2344 14.6346 44.0486 14.6574 43.8786 14.7258C43.7087 14.7943 43.5611 14.9058 43.4511 15.0487C41.9095 16.3734 40.1739 17.4699 38.3009 18.3025C36.1195 19.303 33.8723 20.1631 31.5742 20.8774C29.8143 21.468 27.9775 21.7544 26.2061 22.3049C25.3778 22.5617 24.4074 22.503 23.5644 22.7814C22.3226 23.1918 21.0105 23.0406 19.7476 23.3529C19.1913 23.4905 18.4096 23.8577 17.7387 23.3998C16.8823 23.9003 15.8792 23.5319 14.9987 23.8281C14.7901 23.9056 14.6144 24.0482 14.499 24.2335C14.3836 24.4187 14.3351 24.6359 14.3615 24.8508C14.3615 25.6593 14.3615 26.4672 14.3615 27.2757C14.3615 27.633 14.3908 27.82 13.8842 27.5651C13.6642 27.4786 13.4804 27.3235 13.3619 27.1242C13.2433 26.925 13.1969 26.693 13.23 26.4653C13.258 24.6243 13.3517 22.7746 13.2038 20.9446C13.1597 19.6145 13.2432 18.2833 13.453 16.9682C13.6729 15.682 14.0903 14.4351 14.6916 13.2688C16.4954 9.15453 19.7721 5.80945 23.9191 3.84878C24.6429 3.49329 25.5613 3.46798 26.0857 2.7428C26.7994 2.90388 27.4359 2.57678 28.1049 2.45334C28.5395 2.41306 28.9618 2.29194 29.3491 2.09661C29.8097 1.81518 30.3125 2.03489 30.7954 2.03489C32.7707 2.02749 34.7462 2.04477 36.7182 2.0207C40.109 1.91283 43.4687 2.67599 46.4566 4.23267C50.62 6.41135 53.7824 10.0302 55.3132 14.3674C55.6757 15.1802 55.9415 16.0304 56.1053 16.9015C56.3074 18.7049 56.3899 20.519 56.352 22.3327C56.3195 23.7238 56.3474 25.1168 56.3436 26.5085C56.3436 27.2349 56.015 27.5713 55.1968 27.6688" fill="#544F57"/>
<path d="M24.6644 24.6452C25.8361 24.2675 27.0824 24.2132 28.2618 23.8515C30.418 23.1855 32.6404 22.7288 34.7571 21.9419C35.4873 21.6704 36.2366 21.4112 36.9349 21.105C37.9421 20.7419 38.9176 20.301 39.852 19.7867C41.0868 18.9912 42.5446 18.5419 43.6112 17.4859C43.8533 17.2458 44.0369 17.4075 44.1942 17.6673C44.7662 18.5913 45.4086 19.4726 46.116 20.3039C47.9001 22.4418 49.9213 24.2743 52.6421 25.2414C52.793 25.2758 52.9248 25.3643 53.0111 25.4891C53.0973 25.614 53.1318 25.7658 53.1072 25.9141C53.0881 28.855 53.135 31.797 53.0776 34.7398C53.117 35.9531 52.97 37.1653 52.6408 38.3367C52.1234 39.9253 51.3155 41.411 50.2558 42.723C48.9192 44.3263 47.21 45.6007 45.2679 46.4421C43.9949 47.006 42.629 47.3478 41.2333 47.4518C38.5973 47.6511 35.9634 47.5234 33.3281 47.5104C33.2962 47.1679 32.9903 47.1469 32.7603 47.1272C32.4403 47.0858 32.1348 46.9723 31.8683 46.7957C30.1628 45.8641 28.6758 44.5991 27.5021 43.081C26.3284 41.5629 25.4935 39.8249 25.0505 37.9775C24.9549 37.5856 25.0791 37.4646 25.3855 37.3202C25.7061 37.217 25.9857 37.0197 26.1854 36.7558C26.3851 36.4918 26.495 36.1742 26.5 35.847C26.4949 35.5183 26.3764 35.2008 26.1633 34.9449C25.9503 34.6891 25.6551 34.5098 25.3246 34.4355C24.6925 34.217 24.6146 33.835 24.6802 33.311C24.7474 33.2932 24.8173 33.2865 24.8868 33.2912C26.01 33.5352 27.1856 33.3968 28.2158 32.8994C29.246 32.4019 30.0679 31.5759 30.543 30.5602C30.8099 29.9251 30.6575 29.3913 30.1114 29.174C29.9714 29.1139 29.8206 29.0814 29.6675 29.0785C29.5144 29.0755 29.3621 29.1021 29.2198 29.1568C29.0774 29.2114 28.9478 29.293 28.8383 29.3967C28.7289 29.5005 28.6418 29.6243 28.5823 29.761C27.9961 31.1231 25.9585 31.9322 24.6625 31.0237C24.6625 28.8986 24.6641 26.7734 24.6675 24.6483M43.7189 33.4258C44.4674 33.3893 45.1984 33.1921 45.8587 32.8485C46.519 32.5049 47.0922 32.0235 47.5369 31.4391C47.9489 31.0511 48.1905 30.524 48.2111 29.9677C48.2031 29.7658 48.1244 29.5724 47.988 29.4195C47.8516 29.2665 47.6655 29.163 47.4604 29.1259C46.9691 29.0586 46.4753 29.0253 46.2013 29.6369C45.8966 30.3045 45.3477 30.8391 44.66 31.1375C43.9723 31.4359 43.1949 31.4769 42.4778 31.2527C41.7036 30.9208 41.0816 30.3258 40.7293 29.5801C40.5902 29.3525 40.3673 29.1842 40.1055 29.1089C39.8437 29.0335 39.5623 29.0568 39.3175 29.174C39.0959 29.2656 38.9202 29.4378 38.8284 29.6535C38.7365 29.8692 38.7357 30.1113 38.8262 30.3275C39.2233 31.2622 39.9032 32.0584 40.7766 32.6114C41.65 33.1645 42.6757 33.4484 43.7189 33.4258ZM35.0775 40.7029C36.0097 40.657 36.9093 40.3549 37.6707 39.8321C38.4321 39.3092 39.0239 38.5871 39.3772 37.7504C39.4297 37.6388 39.4589 37.5182 39.4627 37.3957C39.4666 37.2732 39.445 37.1511 39.3996 37.0367C39.3541 36.9223 39.2856 36.8178 39.198 36.7293C39.1103 36.6409 39.0055 36.5702 38.8894 36.5216C38.7767 36.4548 38.6513 36.4107 38.5207 36.3917C38.3901 36.3727 38.2569 36.3792 38.129 36.4109C38.001 36.4426 37.8807 36.4988 37.7755 36.5762C37.6704 36.6536 37.5825 36.7507 37.5167 36.8616C37.3549 37.0986 37.2352 37.3621 37.0746 37.6022C36.8361 37.9081 36.5356 38.1637 36.1916 38.3532C35.8476 38.5428 35.4671 38.6624 35.0738 38.7047C34.6804 38.747 34.2825 38.7111 33.904 38.5992C33.5254 38.4873 33.1743 38.3018 32.8723 38.054C32.5018 37.6971 32.1751 37.3001 31.8982 36.8709C31.7603 36.6543 31.5408 36.4983 31.2862 36.4356C31.0316 36.3729 30.7618 36.4086 30.5339 36.5351C30.3349 36.5984 30.1686 36.7334 30.0694 36.9121C29.9703 37.0909 29.9459 37.2998 30.0013 37.4955C30.1587 37.9697 30.4077 38.4106 30.7352 38.7946C31.8458 40.0635 33.1915 40.8998 35.0769 40.7079M46.2815 34.1041C44.8798 34.1041 44.5098 34.1979 43.7497 34.7089C43.5357 34.8238 43.3567 34.9914 43.231 35.1947C43.1054 35.398 43.0375 35.6299 43.0341 35.8668C43.0307 36.1038 43.092 36.3374 43.2117 36.544C43.3314 36.7507 43.5052 36.923 43.7157 37.0437C44.4689 37.5087 45.3449 37.7528 46.238 37.7465C47.1311 37.7403 48.0032 37.484 48.7493 37.0085C48.9183 36.8985 49.0594 36.7529 49.1619 36.5826C49.2644 36.4122 49.3259 36.2215 49.3414 36.0249C49.3569 35.8283 49.3261 35.6309 49.2515 35.4474C49.1769 35.2639 49.0606 35.0992 48.9108 34.9656C48.5677 34.6397 48.1532 34.3927 47.6981 34.2431C47.2429 34.0936 46.7586 34.0452 46.2815 34.1016M34.6432 33.8078C35.2447 33.8078 35.8468 33.8152 36.4496 33.8078C36.7327 33.8026 37.0054 33.7032 37.2218 33.5261C37.4381 33.3491 37.5846 33.1053 37.6371 32.8358C37.6357 32.6923 37.6042 32.5506 37.5444 32.4194C37.4845 32.2882 37.3975 32.1702 37.289 32.0725C37.1804 31.9749 37.0527 31.8998 36.9131 31.8517C36.7736 31.8035 36.6254 31.7835 36.4776 31.7927C35.2958 31.7796 34.1145 31.7796 32.9336 31.7927C32.7864 31.7836 32.6388 31.8038 32.4999 31.8519C32.361 31.9 32.2338 31.9751 32.1259 32.0725C32.0181 32.1699 31.9319 32.2876 31.8727 32.4185C31.8135 32.5493 31.7824 32.6904 31.7815 32.8333C31.7879 32.9753 31.8245 33.1145 31.8892 33.2422C31.9538 33.3698 32.045 33.4831 32.157 33.5749C32.2691 33.6668 32.3997 33.7351 32.5403 33.7757C32.681 33.8164 32.8287 33.8283 32.9744 33.8109C33.5306 33.8072 34.0863 33.8109 34.6426 33.8109" fill="#FFCBBE"/>
<path d="M24.6758 33.306C24.6121 33.83 24.6871 34.2121 25.3205 34.4305C25.651 34.5048 25.9464 34.6841 26.1593 34.94C26.3721 35.1959 26.4903 35.5135 26.4949 35.842C26.4901 36.1692 26.3803 36.4868 26.1807 36.7507C25.9811 37.0147 25.7017 37.212 25.3811 37.3152C25.0747 37.4603 24.9492 37.5806 25.0461 37.9725C25.4888 39.8201 26.3233 41.5582 27.4971 43.0763C28.6708 44.5945 30.1578 45.8594 31.8636 46.7908C32.1303 46.9669 32.436 47.0802 32.7559 47.1216C32.9847 47.1413 33.2909 47.1623 33.3228 47.5049C31.3219 47.6752 29.3081 47.6371 27.3157 47.3913C25.2431 47.0472 23.2883 46.2193 21.62 44.9794C20.0247 43.7625 18.7059 42.2396 17.7466 40.506C17.0953 39.3827 16.7 38.1373 16.587 36.8536C16.2959 33.2789 16.5377 29.6943 16.4536 26.1196C16.4478 25.8314 16.5468 25.7592 16.8437 25.7271C18.7419 25.5209 20.6386 25.3012 22.5304 25.0519C23.2325 24.8778 23.9442 24.7414 24.6618 24.6433C24.6618 26.7685 24.6599 28.8936 24.6565 31.0188C24.3609 30.9103 24.0919 30.7435 23.8663 30.529C23.6407 30.3145 23.4636 30.057 23.3461 29.7727C23.2143 29.4908 22.9738 29.2698 22.6763 29.157C22.3787 29.0441 22.0476 29.0482 21.7532 29.1685C21.26 29.4474 21.1893 29.9918 21.5118 30.6997C21.8251 31.3209 22.2673 31.8729 22.8107 32.3212C23.3541 32.7695 23.9869 33.1046 24.6699 33.3054" fill="#EAAC9D"/>
<path d="M19.3612 50.9561C17.2674 50.9561 15.5495 50.9444 13.8323 50.9641C13.3863 50.9691 13.2231 50.85 13.2256 50.3976C13.2405 46.6278 13.2405 42.8579 13.2256 39.0878C13.2256 38.6403 13.3244 38.5656 13.8233 38.6051C14.8389 38.6848 15.0888 39.3556 15.3608 40.0962C16.0796 42.0485 17.2453 43.8179 18.7704 45.2719C20.6664 47.1077 23.0349 48.4189 25.6302 49.0694C26.6262 49.3392 27.6477 49.5114 28.6792 49.5835C29.0067 49.6008 29.1289 49.7008 29.125 50.0186C29.1212 50.3365 29.0762 50.521 28.6792 50.5247C27.7299 50.4497 26.7744 50.4912 25.8359 50.6482C23.572 51.2302 21.2663 50.816 19.3612 50.9567" fill="#544F57"/>
<path d="M34.7117 54.9616C33.8277 54.9742 32.9725 54.6574 32.3227 54.0767C31.6728 53.496 31.2781 52.6957 31.2201 51.8411C31.1984 51.2579 31.2405 50.6685 31.1927 50.0908C31.157 49.652 31.3495 49.5607 31.7452 49.5625C33.7893 49.5724 35.8326 49.5724 37.8758 49.5625C38.2193 49.5625 38.4023 49.6242 38.3596 50.0013C38.3246 50.3099 38.3359 50.6278 38.3257 50.9413C36.8462 50.9413 35.3662 50.9567 33.8867 50.9296C33.3725 50.9203 33.0831 51.0203 33.1736 51.5863C33.3265 52.5478 33.4171 53.5211 34.2569 54.2315C34.4873 54.4205 34.6477 54.677 34.7142 54.9622" fill="#EAAC9D"/>
<path d="M55.0611 35.0274C55.0611 34.7139 55.0611 34.4003 55.0611 34.0868C55.0611 33.2906 55.4745 32.9265 56.3118 32.8703C56.8215 32.8364 57.3572 33.0746 57.8465 32.7012C58.0298 32.5857 58.1679 32.4138 58.2382 32.2133C58.3086 32.0127 58.3075 31.795 58.2348 31.5952C58.1489 31.3782 57.9957 31.1922 57.7964 31.0627C57.5972 30.9332 57.3615 30.8666 57.1216 30.8719C56.6123 30.843 56.1018 30.843 55.5925 30.8719C55.2019 30.8768 55.1036 30.7725 55.3069 30.3991C55.6815 29.7091 56.3862 29.4067 57.5504 29.5135C57.8863 29.5671 58.1989 29.7148 58.4492 29.9384C58.6994 30.1621 58.8764 30.4519 58.9585 30.7719C59.2064 31.7762 59.1206 32.8306 58.713 33.7847C58.3054 34.7388 57.5969 35.5437 56.6889 36.0846C56.6704 36.0969 56.6576 36.1173 56.6385 36.1303C56.2058 36.4333 55.6274 36.7376 55.2114 36.5851C54.8431 36.45 55.1197 35.789 55.063 35.3644C55.0555 35.2526 55.0555 35.1404 55.063 35.0286" fill="#EAAC9D"/>
<path d="M14.3594 35.1459C14.3351 35.5265 14.3391 35.9083 14.3715 36.2883C14.4352 36.6882 14.2899 36.6962 13.9636 36.6129C13.0671 36.3429 12.2649 35.8386 11.6452 35.1554C11.0254 34.4722 10.6119 33.6367 10.4508 32.7407C10.2686 31.6533 10.3273 30.6423 11.1881 29.8178C11.9356 29.1006 13.8356 29.5265 14.1746 30.4794C14.2804 30.7775 14.1886 30.8818 13.856 30.8676C13.3463 30.8454 12.8366 30.8553 12.3268 30.859C11.6094 30.8645 11.3352 31.3971 11.1797 31.915C11.1433 32.1179 11.1882 32.3267 11.3051 32.4987C11.4221 32.6707 11.6026 32.793 11.8095 32.8407C12.2654 32.9201 12.7309 32.9334 13.1908 32.8802C13.3546 32.8613 13.5207 32.8797 13.6759 32.9338C13.8311 32.9879 13.9712 33.0762 14.085 33.1919C14.1988 33.3076 14.2831 33.4473 14.3314 33.6001C14.3797 33.7529 14.3905 33.9144 14.3631 34.072C14.3338 34.4297 14.3314 34.789 14.3557 35.1471" fill="#EAAC9D"/>
<path d="M34.7125 54.9616C34.6455 54.6766 34.4852 54.4202 34.2552 54.2309C33.4179 53.5205 33.328 52.5466 33.1719 51.5857C33.0807 51.0191 33.3714 50.9191 33.8849 50.929C35.3632 50.9561 36.8445 50.9395 38.3234 50.9407C38.3937 51.4409 38.3528 51.9499 38.2036 52.4335C38.0544 52.9172 37.8003 53.3644 37.4582 53.7452C37.116 54.126 36.6939 54.4315 36.2199 54.6414C35.7459 54.8513 35.2312 54.9607 34.71 54.9622" fill="#FFCBBE"/>
<path d="M4.18198 63.3664C5.68061 63.3602 7.17994 63.3621 8.67921 63.3405C9.01691 63.3356 9.12126 63.4454 9.10979 63.762C9.08048 64.5187 9.07929 65.276 9.06655 66.0326C7.48318 66.0826 5.92215 66.0474 4.61786 64.9834C4.55924 64.9359 4.43956 64.9587 4.3478 64.9489C4.11617 64.4904 4.01871 63.9791 4.06655 63.4707L4.18322 63.3658" fill="#FFCBBE"/>
<path d="M60.4833 66.0345C60.4699 65.2766 60.4665 64.5181 60.4366 63.7608C60.4232 63.4399 60.5367 63.3356 60.8712 63.3405C62.3272 63.3615 63.7825 63.3596 65.2384 63.3658L65.3551 63.4707C65.4467 63.9797 65.3513 64.5037 65.086 64.9519C63.7409 65.8475 62.1033 66.2334 60.4839 66.0363" fill="#FFCBBE"/>
<path d="M4.34619 64.9489C4.43794 64.9587 4.55792 64.9359 4.61718 64.9834C5.92147 66.0474 7.48442 66.0826 9.06525 66.0326C9.14872 66.975 9.14874 66.9707 8.20127 66.9763C7.22703 66.9812 6.26425 67.0448 5.44102 66.3313C4.98049 65.9496 4.60743 65.4787 4.34619 64.9489Z" fill="#EAAC9D"/>
<path d="M60.4844 66.0344C62.1034 66.2316 63.7406 65.8457 65.0852 64.9501C64.8517 65.4942 64.4721 65.9679 63.986 66.3222C63.4999 66.6765 62.925 66.8985 62.3206 66.9652C61.9975 66.9781 61.6739 66.9738 61.3508 66.9744C60.3951 66.9744 60.3945 66.9744 60.4844 66.0344Z" fill="#EAAC9D"/>
<path d="M4.18206 63.3664L4.06539 63.4707C4.05074 63.3794 4.08266 63.3386 4.18206 63.3664Z" fill="#EAAC9D"/>
<path d="M65.3538 63.4712L65.2378 63.3663C65.3366 63.3398 65.3704 63.3799 65.3538 63.4712Z" fill="#EAAC9D"/>
<path d="M24.6764 33.3085C23.9936 33.1076 23.3607 32.7725 22.8175 32.3242C22.2743 31.8759 21.8324 31.3239 21.5192 30.7028C21.1955 29.9949 21.2643 29.4505 21.7594 29.1709C22.0538 29.0505 22.3852 29.0463 22.6828 29.1592C22.9804 29.2721 23.2206 29.4931 23.3523 29.7751C23.4699 30.0595 23.6474 30.317 23.8731 30.5315C24.0988 30.746 24.3679 30.9128 24.6637 31.0212C25.9603 31.9297 27.9973 31.12 28.5841 29.7579C28.6434 29.6214 28.7303 29.4977 28.8395 29.3941C28.9487 29.2905 29.0779 29.209 29.22 29.1544C29.3621 29.0997 29.514 29.073 29.6668 29.0759C29.8196 29.0787 29.9703 29.111 30.1101 29.1709C30.6568 29.3882 30.8112 29.922 30.5423 30.5571C30.0675 31.5729 29.2457 32.3991 28.2154 32.8966C27.1851 33.394 26.0094 33.5323 24.8861 33.2881C24.8167 33.2832 24.7467 33.2899 24.6795 33.3079" fill="black"/>
<path d="M43.7195 33.4227C42.6764 33.4451 41.6507 33.1612 40.7773 32.6084C39.9039 32.0555 39.2235 31.2595 38.826 30.3251C38.7355 30.1087 38.7364 29.8666 38.8284 29.6509C38.9204 29.4352 39.0961 29.2631 39.3178 29.1716C39.5627 29.0544 39.8444 29.0311 40.1062 29.1064C40.368 29.1817 40.5909 29.35 40.73 29.5777C41.0821 30.3237 41.7042 30.9187 42.4788 31.2502C43.1957 31.4745 43.9731 31.4335 44.6607 31.1352C45.3482 30.8369 45.8973 30.3025 46.202 29.6351C46.476 29.0228 46.9698 29.0562 47.4617 29.1241C47.6667 29.1612 47.8524 29.2647 47.9887 29.4177C48.125 29.5706 48.2036 29.764 48.2115 29.9659C48.1909 30.5221 47.9493 31.0492 47.5373 31.4372C47.0927 32.0218 46.5197 32.5033 45.8594 32.8469C45.1991 33.1905 44.4682 33.3876 43.7195 33.4239" fill="black"/>
<path d="M35.0772 40.7005C33.1911 40.8949 31.8461 40.0586 30.7355 38.7872C30.4077 38.4033 30.1584 37.9624 30.0012 37.488C29.9458 37.2923 29.9702 37.0835 30.0694 36.9047C30.1685 36.726 30.3348 36.591 30.5339 36.5277C30.7618 36.401 31.0317 36.3652 31.2865 36.4279C31.5412 36.4905 31.7608 36.6468 31.8988 36.8635C32.1754 37.2928 32.5025 37.6899 32.8732 38.0466C33.1751 38.2944 33.5261 38.4799 33.9045 38.5917C34.283 38.7036 34.681 38.7395 35.0744 38.6972C35.4677 38.6549 35.8479 38.5353 36.1919 38.3458C36.5358 38.1562 36.8361 37.9007 37.0745 37.5948C37.2351 37.3572 37.3554 37.0937 37.516 36.8542C37.5819 36.7432 37.6702 36.6462 37.7755 36.5687C37.8807 36.4913 38.0009 36.4351 38.1289 36.4034C38.257 36.3717 38.3902 36.3652 38.5209 36.3842C38.6516 36.4032 38.7771 36.4474 38.8899 36.5141C39.0056 36.5633 39.1101 36.6342 39.1973 36.7227C39.2845 36.8112 39.3526 36.9155 39.398 37.0297C39.4433 37.1439 39.465 37.2657 39.4614 37.388C39.4579 37.5104 39.4293 37.6308 39.3774 37.7423C39.0243 38.5793 38.4324 39.3015 37.671 39.8245C36.9095 40.3475 36.01 40.6496 35.0778 40.6955" fill="black"/>
<path d="M46.2824 34.0936C46.7594 34.0371 47.2436 34.0855 47.6986 34.2351C48.1536 34.3846 48.5678 34.6316 48.9107 34.9576C49.0605 35.0911 49.1774 35.2558 49.252 35.4392C49.3267 35.6227 49.3574 35.8201 49.3419 36.0167C49.3265 36.2134 49.2652 36.404 49.1627 36.5744C49.0603 36.7448 48.9191 36.8905 48.7502 37.0005C48.0041 37.4761 47.132 37.7325 46.2388 37.7387C45.3457 37.745 44.4697 37.5008 43.7166 37.0356C43.506 36.9151 43.3321 36.7428 43.2123 36.5362C43.0924 36.3296 43.031 36.0961 43.0343 35.8591C43.0376 35.6222 43.1054 35.3903 43.2309 35.1869C43.3565 34.9835 43.5354 34.8159 43.7493 34.7009C44.5088 34.1898 44.8825 34.0966 46.2818 34.096" fill="#EAAC9D"/>
<path d="M34.6439 33.8004C34.0876 33.8004 33.5319 33.8004 32.9757 33.8004C32.83 33.818 32.6821 33.8061 32.5414 33.7655C32.4006 33.7249 32.2702 33.6566 32.1581 33.5647C32.0459 33.4729 31.9545 33.3596 31.8899 33.2319C31.8252 33.1042 31.7886 32.9649 31.7822 32.8228C31.7831 32.68 31.8142 32.5389 31.8734 32.4082C31.9326 32.2774 32.0185 32.1597 32.1263 32.0623C32.2341 31.9648 32.3615 31.8898 32.5003 31.8416C32.6391 31.7935 32.7865 31.7733 32.9337 31.7823C34.1146 31.7695 35.2959 31.7695 36.4776 31.7823C36.6255 31.773 36.7736 31.7929 36.9132 31.841C37.0528 31.8891 37.181 31.9642 37.2897 32.0618C37.3983 32.1594 37.4854 32.2775 37.5454 32.4088C37.6054 32.54 37.6369 32.6818 37.6384 32.8253C37.5858 33.0949 37.4389 33.3387 37.2225 33.5157C37.006 33.6928 36.7335 33.7922 36.4503 33.7974C35.8481 33.8066 35.2454 33.7974 34.6445 33.7974" fill="black"/>
</g>
<defs>
<clipPath id="clip0_119_174">
<rect width="69" height="69" fill="white"/>
</clipPath>
</defs>
</svg>
