<svg id="Group_156" data-name="Group 156" xmlns="http://www.w3.org/2000/svg" width="171.088" height="170.789" viewBox="0 0 171.088 170.789">
  <path id="Path_3851" data-name="Path 3851" d="M4451.823,84.191V77.508c.345-.223.344-.446,0-.669v-1c.57-.312.624-.963.9-1.453a7.193,7.193,0,0,1,4.478-3.238c1.33-.414,3.3.249,3.893-.585.688-.976.217-2.768.248-4.207,0-.111,0-.222,0-.334.019-3.039.528-3.548,3.575-3.549q21.3,0,42.6,0c.714,0,1.436.1,1.916-.648a29.25,29.25,0,0,1,7.822-7.8,32.98,32.98,0,0,1,11.945-5.324c1.764-.41,3.537-.485,5.292-.81a25.131,25.131,0,0,1,8.284.091,36.755,36.755,0,0,1,5.811,1.672c1.751.591,2.873,1.216,2.542,3.234-1.37,2.052-1.926,2.247-4.282,1.476a17.034,17.034,0,0,0-5.8-1.19c-.805.209-.958-1.172-1.766-.784-1.819.872-3.789.407-5.673.647a28.886,28.886,0,0,0-16.948,7.952c-5.553,5.37-8.335,12.088-9.013,19.7a26.315,26.315,0,0,0,.909,8.63,29.156,29.156,0,0,0,12.545,17.668,15.153,15.153,0,0,1,4.587,4.442c.85,1.37,1.367,3.342,2.589,3.98,1.366.714,3.365.167,5.081.279,1.125.073,1.528-.216,1.519-1.438-.058-7.851-.039-15.7-.016-23.553a1.417,1.417,0,0,0-1.1-1.642c-5.531-2.118-7.639-9.4-3.747-13.885,0-.108,0-.217,0-.325a3.73,3.73,0,0,1,1.3-1.354l.363-.251a8.961,8.961,0,0,1,9-1.249,8.154,8.154,0,0,1,5.471,6.554c.767,4.573-.815,8.016-4.571,9.978-1.365.713-1.959,1.542-1.715,3.041a10.854,10.854,0,0,1,.015,1.668q.048,10.349.1,20.7c-.465,1.4.054,1.873,1.484,1.758,1.528-.121,3.071-.079,4.607-.107.914.414.443-.389.578-.658.249-.47.607-.854.865-1.342a13.326,13.326,0,0,1,3.876-5.067,44.393,44.393,0,0,0,8.333-7.107,25.56,25.56,0,0,0,5.679-9.866,30.954,30.954,0,0,0,.895-14.947,29.3,29.3,0,0,0-9.572-16.578c-1.319-1.167-1.682-2.351-.908-3.9a3.182,3.182,0,0,1,4.165.118,25.465,25.465,0,0,1,3.968,4.23,4.332,4.332,0,0,0,4.2,2.078c13.919-.117,27.84-.051,41.76-.084a3.971,3.971,0,0,1,2.974,1.1.64.64,0,0,0,.421.626c.028,1.724.127,3.451.058,5.172-.045,1.1.156,1.569,1.4,1.526a12,12,0,0,1,3.183.516c3.331.816,4.938,3.694,4.941,7.611q.044,54.434.018,108.868c0,.278.008.557,0,.835a8.08,8.08,0,0,1-7.608,7.53c-20.145-.189-40.293-.092-60.44-.092-2.226,0-4.453.03-6.678-.018-.687-.015-1.28.1-1.361.807-.268,2.367-1.753,3.671-3.773,4.558H4531.35l-1.674-1.06-.368-.263a3.368,3.368,0,0,1-1.516-2.547c.035-1.678-.892-1.485-1.955-1.485q-33.446.016-66.89,0a7.407,7.407,0,0,1-1.927-.208c-2.765-.723-4.122-2.754-5.2-5.126v-.668q.516-.334,0-.669V94.216a.674.674,0,0,0,.315-.718c-.034-1.473,1.459-.984,2.078-1.618,1.976.59,2.655,1.89,2.652,3.959q-.073,46.021-.033,92.042c0,2.775.476,3.243,3.293,3.243H4524.1c3.571,0,3.571,0,3.571-3.489,0-2.191,0-2.192-2.195-2.192q-30.651,0-61.3,0c-2.079,0-3.125-1.15-2.969-3.193.054-.719.111-1.439.111-2.159q.009-51.033,0-102.065c0-.445.01-.891-.008-1.336-.01-.265.069-.665-.242-.728a5.652,5.652,0,0,0-2.94.052,1.87,1.87,0,0,0-1.286,1.929c-.022,1.614-.009,3.229-.014,4.844,0,2.247-.49,2.935-2.674,3.8a2.762,2.762,0,0,1-2.006-1.384c-.007-.371.068-.768-.331-1.01m88.189,36.585c-4-.029-8-.048-11.993-.1-.728-.008-.968.289-.966.991.023,4.556-.061,9.114.056,13.668a4.568,4.568,0,0,0,4.256,4.646c2.439.076,4.885-.014,7.327-.032,1.33.025,2.661.095,3.99.067a4.8,4.8,0,0,0,4.957-4.744c.1-4.494.021-8.993.042-13.49,0-.743-.179-1.138-1.017-1.115-2.216.063-4.435.073-6.652.1m53.216,62.2c-.307,1.831-1.108,2.46-3.212,2.461q-19.452.007-38.905,0c-4.068,0-4,0-4.094,4-.034,1.417.375,1.715,1.744,1.711q27.635-.073,55.27-.036c2.058,0,4.116-.039,6.174-.061,1.446.021,2.891.058,4.337.06,2.569.005,3.353-.785,3.353-3.361q0-54.271,0-108.541a7.574,7.574,0,0,0-.031-1.333c-.263-1.442-1.573-2.157-3.472-2.06-1.762.089-.936,1.4-.94,2.117q-.106,21.453-.094,42.907-.014,30.559-.005,61.117c0,2.492-.684,3.242-3.146,3.529-2.712-.017-5.425-.1-8.135-.031a2.85,2.85,0,0,1-3.283-2.483c.548-2.036,1.162-2.53,3.188-2.548,1-.009,2,0,3.006,0,3.4,0,3.316,0,3.423-3.332.045-1.413-.358-1.718-1.735-1.714q-31.734.072-63.469.033c-3.351,0-3.289,0-3.366,3.4-.03,1.3.316,1.656,1.64,1.648,10.856-.057,21.713-.032,32.569-.032,5.4,0,10.8-.009,16.2,0a2.614,2.614,0,0,1,2.983,2.545m-42.495-42.558-.238.027.231.226a9.381,9.381,0,0,1-8.958,4.326c-1.428-.132-1.94.375-1.925,1.873q.1,10.939-.008,21.879c-.017,1.444.414,1.687,1.751,1.684q32.483-.066,64.965.01c1.585,0,1.85-.478,1.847-1.923q-.059-49.6-.03-99.206a5.941,5.941,0,0,1,.006-.834c.117-.825-.243-1.019-1.033-1.018-12.909.023-25.817.016-38.909.016,1.625,2.907,2.2,6.025,2.947,9.105a26.941,26.941,0,0,1,.459,8.785,28.655,28.655,0,0,1-1.988,8.289c-1.568,3.774-3.2,7.471-5.921,10.549a46.031,46.031,0,0,1-9.377,8.139,8.735,8.735,0,0,0-2.607,3.508c-.477.919.491,1.323.654,2.007a4.377,4.377,0,0,1,.072.994c0,5.345.063,10.69-.028,16.033a8.291,8.291,0,0,1-1.909,5.531m-84.373-21.59q0,22.962,0,45.925c0,1.83-.659,4.335.268,5.314,1.065,1.125,3.574.32,5.454.322q30.56.03,61.12.009c.827,0,1.7.328,1.688-1.2-.082-7.57-.058-15.141-.014-22.712.005-1-.348-1.262-1.238-1.147a10.34,10.34,0,0,1-4.225-.486,9.891,9.891,0,0,1-7.334-9.55c-.111-2.5-.135-5.015,0-7.513.207-3.85-.683-7.756.571-11.553.12-.365-.168-.613-.317-.9a8.881,8.881,0,0,0-2.884-3.349,39,39,0,0,1-9.7-8.8,35.153,35.153,0,0,1-7.114-18.849,32.943,32.943,0,0,1,2.533-15.164c.562-1.4-.261-1.395-.975-1.668a3.44,3.44,0,0,0-1.161-.025c-11.634,0-23.268.028-34.9-.036-1.436-.008-1.82.3-1.814,1.786.062,16.533.039,33.066.039,49.6m34.231,61.6h30.878c3.394,0,3.319,0,3.421-3.318.042-1.375-.3-1.734-1.708-1.73q-31.712.076-63.425.035c-3.428,0-3.368,0-3.436,3.485-.023,1.243.291,1.566,1.556,1.56,10.9-.056,21.809-.032,32.714-.032m41.45,10.607c0-1.5-.049-3,.019-4.5.041-.9-.306-1.129-1.152-1.112-2.387.046-4.776.039-7.164,0-.764-.012-1.084.189-1.073,1.017q.061,4.5,0,9c-.01.808.284,1.05,1.063,1.038,2.387-.037,4.776-.042,7.164,0,.845.016,1.2-.213,1.158-1.117-.064-1.441-.017-2.887-.017-4.331m-.533-110.807c.178-2.128-1.638-3.59-5.007-4.032-1.6-.209-3.487,2.373-3.71,5.063-.085,1.035,2.4,3.464,3.676,3.593,2.79.28,4.784-1.548,5.042-4.624" transform="translate(-4451.822 -30.696)"/>
  <path id="Path_3852" data-name="Path 3852" d="M4452.154,130.571l-.332-.007v-1c.4.242.325.639.332,1.01" transform="translate(-4451.822 -76.065)" fill="#020202"/>
  <path id="Path_3853" data-name="Path 3853" d="M4451.823,113.1c.344.223.345.446,0,.669Z" transform="translate(-4451.822 -66.955)" fill="#020202"/>
  <path id="Path_3854" data-name="Path 3854" d="M4451.823,365.264q.517.334,0,.669Z" transform="translate(-4451.822 -206.506)" fill="#020202"/>
  <path id="Path_3855" data-name="Path 3855" d="M4451.823,150.452a.851.851,0,0,0,.315-.049.675.675,0,0,1-.315.718Z" transform="translate(-4451.822 -87.6)" fill="#020202"/>
  <path id="Path_3856" data-name="Path 3856" d="M4659.8,165.068a8.3,8.3,0,0,0,1.909-5.532c.091-5.343.033-10.688.028-16.033a4.379,4.379,0,0,0-.073-.995c-.163-.683-1.13-1.087-.653-2.006a8.723,8.723,0,0,1,2.606-3.508,46,46,0,0,0,9.376-8.139c2.719-3.078,4.354-6.775,5.922-10.549a28.667,28.667,0,0,0,1.988-8.289,26.969,26.969,0,0,0-.459-8.785c-.747-3.08-1.321-6.2-2.947-9.105,13.091,0,26,.007,38.909-.016.79,0,1.15.193,1.033,1.018a6.009,6.009,0,0,0-.006.834q0,49.6.031,99.207c0,1.444-.261,1.927-1.848,1.923q-32.482-.092-64.964-.01c-1.338,0-1.768-.24-1.751-1.684q.127-10.938.008-21.878c-.015-1.5.5-2.006,1.925-1.874a9.382,9.382,0,0,0,8.959-4.326,2.427,2.427,0,0,0,.006-.253m34.038-60.038c0-.022,0-.045,0-.068-1.05.054-2.1.066-3.149.171-1.379.138-1.715,1.152-1.811,2.324s.322,2.136,1.533,2.36a19.475,19.475,0,0,0,6.445.05,2.268,2.268,0,0,0,1.97-2.47,2.4,2.4,0,0,0-2.326-2.354c-.882-.064-1.773-.012-2.66-.012m-15.9,31.892c-1.224-.191-1.685.677-2.2,1.568a1.713,1.713,0,0,0,.431,2.2c1.163,1.272,2.4,2.482,3.624,3.693a2.392,2.392,0,0,0,3.6.169,2.351,2.351,0,0,0,.093-3.513c-1.078-1.2-2.248-2.316-3.414-3.431a2.409,2.409,0,0,0-2.131-.69" transform="translate(-4560.885 -55.341)" fill="#efe7e3"/>
  <path id="Path_3857" data-name="Path 3857" d="M4484.1,143.448c0-16.533.023-33.067-.039-49.6-.006-1.488.379-1.794,1.814-1.786,11.633.064,23.268.036,34.9.036a3.439,3.439,0,0,1,1.161.025c.714.274,1.537.272.975,1.669a32.935,32.935,0,0,0-2.533,15.163,35.14,35.14,0,0,0,7.114,18.849,39.006,39.006,0,0,0,9.7,8.8,8.888,8.888,0,0,1,2.884,3.349c.149.283.437.531.317.9-1.253,3.8-.364,7.7-.57,11.553-.134,2.5-.11,5.013,0,7.513a9.892,9.892,0,0,0,7.334,9.55,10.342,10.342,0,0,0,4.225.485c.89-.115,1.243.148,1.237,1.147-.043,7.571-.068,15.142.014,22.712.018,1.532-.86,1.2-1.687,1.2q-30.559.005-61.119-.01c-1.879,0-4.389.8-5.454-.322-.926-.979-.267-3.483-.268-5.314q-.01-22.962,0-45.925M4507.6,105c0-.023,0-.045,0-.067-1.05.054-2.1.063-3.149.174-1.375.145-1.71,1.158-1.8,2.332s.334,2.129,1.544,2.35a19.3,19.3,0,0,0,6.445.044,2.262,2.262,0,0,0,1.958-2.477,2.412,2.412,0,0,0-2.338-2.344c-.883-.061-1.774-.011-2.661-.011m15.612,31.9a1.73,1.73,0,0,0-1.741.656c-1.112,1.168-2.293,2.269-3.406,3.437-1.271,1.333-1.311,2.294-.233,3.547a2.69,2.69,0,0,0,3.592.09,42.056,42.056,0,0,0,3.767-3.775,2.137,2.137,0,0,0,.293-2.608c-.5-.733-1.09-1.618-2.272-1.347" transform="translate(-4469.561 -55.311)" fill="#f7f3f1"/>
  <path id="Path_3858" data-name="Path 3858" d="M4609.066,119.794q-.05-10.35-.1-20.7a10.787,10.787,0,0,0-.015-1.668c-.244-1.5.349-2.329,1.715-3.042,3.756-1.961,5.338-5.4,4.571-9.977a8.154,8.154,0,0,0-5.471-6.554,8.96,8.96,0,0,0-9,1.249c-.231-.075-.307.075-.363.251a3.731,3.731,0,0,0-1.3,1.354l-.235.111.235.213c-3.892,4.49-1.784,11.767,3.747,13.885a1.418,1.418,0,0,1,1.1,1.642c-.023,7.851-.042,15.7.016,23.554.009,1.223-.394,1.512-1.519,1.438-1.716-.112-3.714.435-5.081-.279-1.223-.638-1.74-2.61-2.59-3.98a15.15,15.15,0,0,0-4.586-4.442,29.156,29.156,0,0,1-12.545-17.668,26.314,26.314,0,0,1-.909-8.63c.678-7.613,3.46-14.332,9.013-19.7A28.883,28.883,0,0,1,4602.7,58.9c1.884-.24,3.854.225,5.673-.647.808-.387.961.994,1.766.785a34.6,34.6,0,0,1,7.695,5.189c7.877,7.613,11.747,16.757,10.364,27.858a31.659,31.659,0,0,1-8.834,18.383c-3.211,3.375-7.7,5.3-10.295,9.328" transform="translate(-4520.91 -36.564)" fill="#fdd835"/>
  <path id="Path_3859" data-name="Path 3859" d="M4457.112,126.841q-.03-2.647-.058-5.295c2.185-.866,2.67-1.554,2.675-3.8,0-1.614-.009-3.23.014-4.844a1.871,1.871,0,0,1,1.286-1.929,5.647,5.647,0,0,1,2.94-.051c.311.063.232.462.242.728.017.445.007.89.007,1.336q0,51.033,0,102.065c0,.719-.057,1.44-.111,2.158a2.662,2.662,0,0,0,2.97,3.193q30.651.007,61.3,0c2.194,0,2.194,0,2.194,2.192,0,3.489,0,3.489-3.57,3.489h-63.976c-2.816,0-3.292-.468-3.292-3.243q0-46.022.033-92.043c0-2.068-.676-3.37-2.652-3.959" transform="translate(-4454.717 -65.656)" fill="#ff5252"/>
  <path id="Path_3860" data-name="Path 3860" d="M4806.468,220.489c2.462-.287,3.146-1.037,3.146-3.529q.007-30.558.006-61.117.01-21.454.1-42.907c0-.712-.824-2.027.938-2.117,1.9-.1,3.208.618,3.472,2.06a7.522,7.522,0,0,1,.031,1.333q0,54.271,0,108.541c0,2.577-.784,3.367-3.353,3.362-1.446,0-2.892-.039-4.337-.061q0-2.783,0-5.565" transform="translate(-4648.085 -65.689)" fill="#ed4c4c"/>
  <path id="Path_3861" data-name="Path 3861" d="M4649.014,120.5c2.59-4.03,7.083-5.953,10.295-9.328a31.659,31.659,0,0,0,8.834-18.383c1.382-11.1-2.487-20.244-10.364-27.858a34.589,34.589,0,0,0-7.7-5.189,17.018,17.018,0,0,1,5.8,1.19c2.356.771,2.911.576,4.281-1.476.72,1.164,2.1,1.313,3.108,2.037.535.385,1.052.792,1.578,1.189-.774,1.552-.411,2.736.908,3.9a29.31,29.31,0,0,1,9.572,16.578,30.954,30.954,0,0,1-.895,14.947,25.569,25.569,0,0,1-5.679,9.866,44.424,44.424,0,0,1-8.333,7.107,13.317,13.317,0,0,0-3.876,5.067c-.257.487-.617.872-.865,1.341-.49-.042-.663.2-.578.659-1.537.029-3.079-.014-4.608.108-1.43.114-1.949-.361-1.484-1.759" transform="translate(-4560.858 -37.266)" fill="#fbc02d"/>
  <path id="Path_3862" data-name="Path 3862" d="M4728.166,353.285q0,2.783,0,5.565c-2.058.021-4.116.06-6.173.061q-27.635.007-55.27.035c-1.368,0-1.778-.294-1.744-1.711.1-4,.026-4,4.093-4q19.454,0,38.906,0c2.1,0,2.905-.629,3.212-2.46h5.559a2.851,2.851,0,0,0,3.283,2.484c2.71-.065,5.423.013,8.135.03" transform="translate(-4569.783 -198.485)" fill="#ff5252"/>
  <path id="Path_3863" data-name="Path 3863" d="M4707.847,341.359h-5.559a2.614,2.614,0,0,0-2.984-2.545c-5.4-.014-10.8-.005-16.2-.005-10.856,0-21.713-.025-32.57.033-1.323.007-1.67-.347-1.64-1.649.078-3.395.015-3.4,3.366-3.4q31.735,0,63.468-.033c1.377,0,1.781.3,1.735,1.714-.107,3.329-.027,3.332-3.422,3.332-1,0-2-.007-3.006,0-2.026.018-2.639.512-3.187,2.548" transform="translate(-4560.881 -189.073)" fill="#dcd2cd"/>
  <path id="Path_3864" data-name="Path 3864" d="M4518.558,338.805c-10.905,0-21.811-.024-32.714.032-1.265.007-1.579-.317-1.555-1.56.067-3.483.007-3.485,3.435-3.485q31.714,0,63.425-.036c1.41,0,1.75.355,1.708,1.731-.1,3.316-.027,3.318-3.421,3.318Z" transform="translate(-4469.788 -189.069)" fill="#ebe1dc"/>
  <path id="Path_3865" data-name="Path 3865" d="M4631.908,230.541c-2.443.018-4.888.109-7.327.032a4.567,4.567,0,0,1-4.256-4.646c-.118-4.553-.034-9.111-.056-13.668,0-.7.238-1,.964-.991,4,.047,8,.067,11.994.1.009,3.712-.019,7.424.039,11.135.043,2.774.132,5.536-1.358,8.043" transform="translate(-4545.037 -121.283)" fill="#78909c"/>
  <path id="Path_3866" data-name="Path 3866" d="M4646.341,230.529c1.49-2.506,1.4-5.268,1.358-8.043-.058-3.711-.03-7.423-.04-11.135,2.218-.031,4.437-.042,6.653-.1.838-.024,1.021.372,1.017,1.114-.023,4.5.057,9-.043,13.49a4.8,4.8,0,0,1-4.956,4.744c-1.329.028-2.661-.041-3.99-.067" transform="translate(-4559.47 -121.271)" fill="#607d8b"/>
  <path id="Path_3867" data-name="Path 3867" d="M4642.227,361.859c0,1.444-.047,2.89.017,4.332.041.9-.313,1.133-1.159,1.117-2.387-.045-4.776-.039-7.164,0-.779.012-1.073-.23-1.063-1.038q.054-4.5,0-9c-.011-.828.31-1.029,1.074-1.018,2.387.037,4.776.044,7.164,0,.846-.017,1.193.208,1.151,1.112-.067,1.5-.018,3-.018,4.5" transform="translate(-4552.007 -201.516)" fill="#d64545"/>
  <path id="Path_3868" data-name="Path 3868" d="M4641.841,115.682c-.257,3.076-2.251,4.9-5.042,4.624-1.276-.129-3.762-2.558-3.676-3.593.223-2.69,2.115-5.272,3.71-5.063,3.37.442,5.185,1.9,5.007,4.032" transform="translate(-4552.155 -66.147)" fill="#fbc02d"/>
  <path id="Path_3869" data-name="Path 3869" d="M4662.834,199.016c-.085-.464.087-.7.578-.659-.135.271.336,1.072-.578.659" transform="translate(-4568.586 -114.135)" fill="#772626"/>
  <path id="Path_3870" data-name="Path 3870" d="M4812.462,83.3c.583-.089.856.03.421.626a.641.641,0,0,1-.421-.626" transform="translate(-4651.403 -50.45)" fill="#020202"/>
  <path id="Path_3871" data-name="Path 3871" d="M4626.618,108.945c-.08-.071-.157-.142-.236-.214l.236-.111v.325" transform="translate(-4548.425 -64.476)" fill="#020202"/>
  <path id="Path_3872" data-name="Path 3872" d="M4673.007,255.475a2.3,2.3,0,0,1-.007.253l-.231-.226.238-.026" transform="translate(-4574.096 -145.747)" fill="#ebe1dc"/>
  <path id="Path_3873" data-name="Path 3873" d="M4629.819,105.253c.057-.176.132-.326.363-.251l-.363.251" transform="translate(-4550.327 -62.463)" fill="#020202"/>
  <path id="Path_3874" data-name="Path 3874" d="M4625.693,389.5c-.239.074-.314-.08-.369-.263l.369.263" transform="translate(-4547.839 -219.775)" fill="#020202"/>
  <path id="Path_3875" data-name="Path 3875" d="M4710.875,49.9c-1.123.182-1.642-.546-2.167-1.389a1.923,1.923,0,0,1,.214-2.547c1.716-1.568,2.926-3.681,5.324-4.57.842-.312,1-.318,1.528.309,2.125,2.517,2.157,2.491-.2,4.85q-1.239,1.24-2.479,2.479a2.548,2.548,0,0,1-2.22.867" transform="translate(-4593.776 -27.161)" fill="#020202"/>
  <path id="Path_3876" data-name="Path 3876" d="M4564.3,50.209a1.988,1.988,0,0,1-1.445-.305,24.179,24.179,0,0,1-4.252-4.167,2.42,2.42,0,0,1,.509-3.321,2.335,2.335,0,0,1,3.181-.086,42.546,42.546,0,0,1,4.1,4.117,1.979,1.979,0,0,1,.248,2.328c-.507.778-1.141,1.727-2.343,1.435" transform="translate(-4510.658 -27.468)" fill="#020202"/>
  <path id="Path_3877" data-name="Path 3877" d="M4642.757,14.266c-.226,1.022.322,2.383-.409,3.744a2.458,2.458,0,0,1-2.949,1.451,2.109,2.109,0,0,1-1.577-2.236c-.054-1.829-.1-3.666,0-5.492.092-1.749.647-2.106,2.874-1.911,1.222.107,2.274.526,2.074,2.136a21.063,21.063,0,0,0-.014,2.308" transform="translate(-4554.724 -9.774)"/>
  <path id="Path_3878" data-name="Path 3878" d="M4743.355,120.956c.886,0,1.777-.052,2.659.012a2.4,2.4,0,0,1,2.326,2.354,2.268,2.268,0,0,1-1.97,2.469,19.455,19.455,0,0,1-6.445-.05c-1.21-.224-1.629-1.177-1.532-2.36s.432-2.185,1.811-2.323c1.045-.1,2.1-.117,3.149-.171,0,.022,0,.045,0,.068" transform="translate(-4610.405 -71.266)" fill="#020202"/>
  <path id="Path_3879" data-name="Path 3879" d="M4710.873,192.409a2.409,2.409,0,0,1,2.131.69c1.166,1.115,2.336,2.233,3.413,3.431a2.351,2.351,0,0,1-.092,3.513,2.392,2.392,0,0,1-3.6-.169c-1.227-1.212-2.46-2.421-3.624-3.693a1.713,1.713,0,0,1-.431-2.2c.518-.891.979-1.759,2.2-1.568" transform="translate(-4593.828 -110.826)" fill="#020202"/>
  <path id="Path_3880" data-name="Path 3880" d="M4530.85,120.956c.887,0,1.777-.05,2.661.011a2.411,2.411,0,0,1,2.337,2.344,2.262,2.262,0,0,1-1.958,2.477,19.288,19.288,0,0,1-6.445-.043c-1.209-.221-1.631-1.167-1.544-2.35s.424-2.187,1.8-2.333c1.044-.11,2.1-.119,3.149-.174,0,.022,0,.045,0,.067" transform="translate(-4492.812 -71.266)" fill="#020202"/>
  <path id="Path_3881" data-name="Path 3881" d="M4564.337,192.4c1.182-.271,1.777.615,2.273,1.347a2.138,2.138,0,0,1-.293,2.608,42.062,42.062,0,0,1-3.768,3.775,2.689,2.689,0,0,1-3.591-.09c-1.079-1.253-1.038-2.214.233-3.547,1.112-1.167,2.293-2.269,3.405-3.437a1.73,1.73,0,0,1,1.741-.656" transform="translate(-4510.687 -110.812)" fill="#020202"/>
</svg>
