<svg id="Group_148" data-name="Group 148" xmlns="http://www.w3.org/2000/svg" width="157.031" height="170.925" viewBox="0 0 157.031 170.925">
  <path id="Path_3818" data-name="Path 3818" d="M31.437,210.434c-.219-.764-1.193-.938-1.337-1.8-.263-1.58.36-2.615,2.1-3.216,2.279-.79,4.544-1.635,6.864-2.281.833-.232,1.076-.531,1.074-1.313q-.021-10.61.008-21.219c0-.742-.219-.948-.943-.931-1.893.046-3.8-.128-5.677.052-2.384.229-3.477-1.076-3.468-3.544.081-22.445.047-44.89.047-67.335,0-2.672-.008-2.624-2.571-3.022a32.122,32.122,0,0,1-16.185-7.469,26.712,26.712,0,0,1-5.7-6.491,34.249,34.249,0,0,1-3.129-5.973A45.727,45.727,0,0,1,.643,80.234,24.857,24.857,0,0,1,.052,73.1C.138,71.852,1.185,71.2,2.9,71.44c1.012.141,1.309.7,1.669,1.9.517,1.715.277,3.422.736,5.1.777,2.843,1.373,5.728,2.88,8.3A28.885,28.885,0,0,0,26,100.5c.99.274,2.018.236,3.006.595.687.249,1.27-.246,1.62-.958a14.456,14.456,0,0,1,1.364-2.38c1.959-2.611,4.845-3.188,7.733-3.237,8.407-.145,16.818-.092,25.227-.023a11.209,11.209,0,0,1,6.115,1.369,9.628,9.628,0,0,1,3.816,5.787,13.493,13.493,0,0,1,.339,3.431q-.013,35.422-.007,70.844c0,2.751-1.005,3.757-3.747,3.759-1.782,0-3.565.031-5.346-.015-.718-.018-.951.178-.948.926q.041,10.776,0,21.553c0,.728.293.857.889,1.035,2,.6,3.973,1.281,5.955,1.938,3.416,1.133,3.826,2.559,1.53,5.308H71.538c-2.953-1.4-6.157-2.1-9.2-3.259a2.844,2.844,0,0,1-2.184-2.988c.044-7.681,0-15.364.046-23.045.007-1.121-.2-1.511-1.418-1.485-4.062.086-8.128.106-12.189-.008-1.362-.038-1.489.45-1.482,1.595.047,7.459.027,14.918.023,22.377,0,2.01-.654,2.817-2.544,3.561-3.015,1.186-6.209,1.864-9.15,3.253ZM52.81,99.548c-2.223-.021-4.446-.05-6.669-.056-.354,0-.928-.15-.945.387-.048,1.495-.008,2.994.049,4.49.01.251.328.431.634.445,2.4.1,4.023,1.562,5.62,3.138.309.3.526,1.319,1.384.666,1.417-1.589,3.045-3.271,5.059-3.563,2.358-.342,2.394-1.523,2.239-3.226a7.2,7.2,0,0,1,0-1.328c.078-.816-.3-1.047-1.065-1.027-2.1.055-4.205.054-6.308.075M52.492,124.5c1.994.017,3.992-.048,5.979.081,1.327.086,1.792-.208,1.746-1.662-.121-3.82-.021-7.646-.064-11.468-.006-.521.432-1.3-.366-1.564a1.787,1.787,0,0,0-1.755.631c-1.2,1.153-2.389,2.312-3.52,3.526a2.406,2.406,0,0,1-2.019.87,2.552,2.552,0,0,1-2.135-.973,27.557,27.557,0,0,0-3.952-3.757c-.711-.464-1.292-.689-1.281.606q.055,6.4-.007,12.8c-.009.86.318.994,1.061.974,2.1-.057,4.209-.049,6.314-.066m.314,50.121c2.1.02,4.207.017,6.309.071.728.019,1.088-.094,1.079-.967q-.065-6.564,0-13.128c.008-.874-.352-.986-1.079-.967-2.1.054-4.206.051-6.309.071-2.222-.02-4.446-.007-6.667-.076-.812-.025-1.025.239-1.019,1.031q.053,6.5,0,13.01c-.006.792.207,1.057,1.019,1.031,2.221-.069,4.444-.056,6.667-.076M52.8,154.566c2.113.019,4.227.011,6.34.073.786.023,1.053-.212,1.05-1.025q-.04-11.521,0-23.041c0-.814-.264-1.048-1.05-1.025-2.112.061-4.227.053-6.34.073-2.22-.02-4.442-.008-6.661-.075-.822-.025-1.019.274-1.016,1.05q.036,11.5,0,23c0,.777.195,1.075,1.016,1.049,2.219-.067,4.44-.055,6.661-.075M40.125,137.095q0-18.035,0-36.071c0-1.627-.359-1.917-1.942-1.426s-3.129,1.915-3.118,4.768c.087,22.266.048,44.532.048,66.8,0,3.53,0,3.465,3.509,3.547,1.26.03,1.54-.306,1.535-1.546-.052-12.024-.031-24.047-.031-36.071m25.063.013v33.885c0,3.788,0,3.752,3.842,3.709.946-.01,1.191-.269,1.19-1.2q-.038-34.553-.015-69.106a4.806,4.806,0,0,0-2.283-4.273,2.854,2.854,0,0,0-2.448-.541c-.638.261-.27,1.189-.271,1.809q-.029,17.861-.014,35.722" transform="translate(0.001 -39.509)"/>
  <path id="Path_3819" data-name="Path 3819" d="M180.952,274.23c-1.285-1.045-1.361-2.446-1.359-3.98q.05-30.15.023-60.3c0-2.375.854-3.218,3.25-3.224,1.837,0,3.678-.064,5.511.024,1.024.049,1.3-.226,1.291-1.273-.059-5.345-.033-10.69-.025-16.035a2.5,2.5,0,0,1,2.7-2.759q24.721-.022,49.441,0c2.155,0,2.977.946,2.985,3.222.018,5.178.032,10.356-.017,15.534-.009.982.163,1.37,1.253,1.31a46.552,46.552,0,0,1,5.676,0c2.436.166,3.076.7,3.083,3.083.063,20.434.029,40.868.052,61.3,0,1.4-.862,2.208-1.686,3.095Zm51.44-67.573c2.059.022,4.118.024,6.176.077.8.021,1.22-.166,1.212-1.1q-.054-6.431,0-12.863c.008-.932-.408-1.118-1.213-1.1-2.058.053-4.117.054-6.176.077q-18.284-.034-36.568-.086c-1,0-1.195.384-1.187,1.276.036,4.175.051,8.35-.008,12.525-.015,1.081.4,1.281,1.362,1.275,5.566-.037,11.133-.009,16.7-.02q9.851-.019,19.7-.065m9.7,5.122q-28.13-.021-56.26-.06c-.939,0-1.225.255-1.224,1.21q.039,27.548-.014,55.1c0,1.388.74,1.194,1.571,1.194q12.688,0,25.376,0,15.275-.012,30.55-.04c.778.014,1.555.05,2.332.037,1.714-.028,4,.573,4.991-.294,1.146-1,.356-3.341.359-5.094.029-16.788,0-33.576.048-50.363,0-1.369-.314-1.851-1.731-1.755-1.992.135-4,.059-6,.072" transform="translate(-99.388 -103.305)"/>
  <path id="Path_3820" data-name="Path 3820" d="M175.82,38.817c-.538-7.171,1.876-13.738,5.41-19.868A36.619,36.619,0,0,1,194.472,5.559,38.069,38.069,0,0,1,210.8.162c11.755-.946,22.166,2.227,30.928,10.274a38.462,38.462,0,0,1,12.269,24.487,36.821,36.821,0,0,1-5.538,24.834c-7.113,10.935-17.374,17.635-30.78,18.592C193.756,80.057,175.109,60,175.82,38.817m38.744,2.721c1.824.018,3.649.046,5.473.05a2.327,2.327,0,0,0,2.47-2.335,2.132,2.132,0,0,0-1.858-2.47,33.939,33.939,0,0,0-6.086-.143c-1.438-.019-2.876-.075-4.312-.047a2.5,2.5,0,0,0-2.683,2.607,2.465,2.465,0,0,0,2.684,2.39c1.437,0,2.875-.033,4.312-.052m16.079-32.7c-.049-.189-.129-.335-.366-.261-.728-.355-1.438-.751-2.186-1.057a39.487,39.487,0,0,0-10.906-2.463,33.037,33.037,0,0,0-10.046.759,32.488,32.488,0,0,0-12.71,5.9c-5.291,3.824-8.726,8.945-11.3,14.808a25.456,25.456,0,0,0-2.19,8,40.832,40.832,0,0,0,.136,9.6c.241,1.585,1.075,3.027,1.275,4.447a22.7,22.7,0,0,0,3.075,7.748,31.127,31.127,0,0,0,7.741,9.218,40.852,40.852,0,0,0,12.729,6.8c1.283.444,1.707,0,1.694-1.418q-.106-11.355,0-22.711a2.832,2.832,0,0,0-1.478-2.683c-3.489-2.457-4.192-5.107-3.336-8.3,1.058-3.944,3.491-5.624,7.491-5.641,3.117-.013,6.24-.124,9.349.032s5.875,1.094,7.218,4.37c1.468,3.581.223,8.125-3.375,9.669a1.241,1.241,0,0,0-.89,1.321c.046,8.515.029,17.03.029,25.669,3.457-1.075,6.871-2.006,9.713-4.268.437.13.75-.205,1.028-.391a36.685,36.685,0,0,0,9.123-8.434,26.83,26.83,0,0,0,4.194-7.459,34.291,34.291,0,0,0,2.179-8.069c.326-3.866.622-7.7-.192-11.513a34.111,34.111,0,0,0-10.738-18.826,23.289,23.289,0,0,0-7.275-4.852Zm-18.07,58.994v2c0,3.664,0,3.631,3.672,3.536,1.012-.026,1.375-.368,1.355-1.372-.046-2.386-.015-4.774-.015-7.161,0-2.516,0-2.516-2.507-2.516s-2.506,0-2.506,2.517Zm5.013-15.855V50.308c0-3.8,0-3.767-3.821-3.723-.916.01-1.251.216-1.214,1.185.075,1.942.022,3.888.022,5.833,0,3.9,0,3.872,3.988,3.72.771-.029,1.078-.19,1.042-1.016-.063-1.442-.017-2.889-.017-4.333" transform="translate(-97.259 0)"/>
  <path id="Path_3821" data-name="Path 3821" d="M77.166,68.468a16.819,16.819,0,0,1-14.591-8.33c-.575-.9-.839-1.329-1.87-.36a10.937,10.937,0,0,1-9.133,2.708A7.916,7.916,0,0,1,44.96,55.3a17.017,17.017,0,0,1,.3-4.07c.251-1.42-.395-2.883-.341-4.387a7.932,7.932,0,0,1,7.5-7.5,11.8,11.8,0,0,1,8.664,2.994c.656.61.9.285,1.223-.281A16.184,16.184,0,0,1,72.69,34.052,17.2,17.2,0,0,1,89.04,37.878a16.781,16.781,0,0,1,5.109,8A17.705,17.705,0,0,1,82.173,67.811a20.3,20.3,0,0,1-5.008.657M80.666,63a12.258,12.258,0,0,0,8.874-8.918c.167-.612.207-.928-.52-1.028-2.331-.32-4.3-1.54-6.35-2.573a20.28,20.28,0,0,1-5.256-5.706c-.209.389-.321.641-.472.868A17.558,17.558,0,0,1,66.36,52.948c-1.284.338-1.18.949-.887,1.756,2.4,6.593,8.755,10.049,15.193,8.3M53.643,44.376c-3.112.012-4.6,2.345-3.124,5.012a2.785,2.785,0,0,1-.042,2.985,3.3,3.3,0,0,0-.437,2.557c.526,2.086,2.43,3.106,4.8,2.446,3.868-1.079,5.332-4.058,5.057-7.411a6.312,6.312,0,0,0-6.25-5.589M80.6,38.923c.3,3.7,5.041,8.5,8.865,8.9-.293-3.7-5.052-8.511-8.865-8.9m-7.043.121a5.271,5.271,0,0,0-.544.163A13.31,13.31,0,0,0,65.5,47.046c-.276.682-.035.872.712.747,2.839-.473,7.432-4.818,8.045-7.686.112-.521.17-1.035-.7-1.063" transform="translate(-24.854 -18.491)"/>
  <path id="Path_3822" data-name="Path 3822" d="M83.579,171.779c0,12.024-.021,24.047.031,36.071.005,1.24-.275,1.576-1.535,1.546-3.508-.083-3.509-.017-3.509-3.547,0-22.266.039-44.532-.048-66.8-.011-2.854,1.538-4.279,3.118-4.769s1.942-.2,1.942,1.426q0,18.035,0,36.071" transform="translate(-43.453 -74.194)" fill="#dbf4ff"/>
  <path id="Path_3823" data-name="Path 3823" d="M145.858,171.893q0-17.861.014-35.721c0-.62-.367-1.548.271-1.809a2.854,2.854,0,0,1,2.448.541,4.806,4.806,0,0,1,2.283,4.273q-.011,34.553.015,69.106c0,.936-.244,1.195-1.19,1.2-3.842.043-3.842.079-3.842-3.709V171.893" transform="translate(-80.669 -74.294)" fill="#b0e7ff"/>
  <path id="Path_3824" data-name="Path 3824" d="M108.719,226.628c-2.22.02-4.442.008-6.661.075-.822.025-1.019-.273-1.016-1.049q.036-11.5,0-23c0-.776.194-1.074,1.016-1.049,2.219.067,4.44.055,6.661.075v24.946" transform="translate(-55.917 -111.571)" fill="#ff4996"/>
  <path id="Path_3825" data-name="Path 3825" d="M118.233,226.63V201.684c2.113-.02,4.227-.011,6.34-.073.786-.023,1.053.212,1.05,1.025q-.04,11.52,0,23.041c0,.814-.264,1.048-1.05,1.025-2.112-.062-4.227-.053-6.34-.073" transform="translate(-65.431 -111.573)" fill="#ff1b7c"/>
  <path id="Path_3826" data-name="Path 3826" d="M108.722,283.947c-2.222.02-4.446.007-6.667.076-.812.025-1.025-.239-1.019-1.031q.053-6.5,0-13.01c-.006-.791.206-1.057,1.019-1.031,2.221.069,4.444.056,6.667.076v14.92" transform="translate(-55.914 -148.839)" fill="#b0e7ff"/>
  <path id="Path_3827" data-name="Path 3827" d="M118.246,283.953v-14.92c2.1-.02,4.207-.017,6.309-.071.728-.019,1.088.094,1.079.967q-.065,6.564,0,13.128c.009.873-.351.986-1.079.967-2.1-.054-4.206-.051-6.309-.071" transform="translate(-65.438 -148.845)" fill="#82daff"/>
  <path id="Path_3828" data-name="Path 3828" d="M117.542,162.528a2.407,2.407,0,0,0,2.019-.87c1.132-1.214,2.325-2.373,3.52-3.526a1.787,1.787,0,0,1,1.755-.631c.8.266.36,1.044.366,1.564.043,3.823-.056,7.649.064,11.469.046,1.454-.418,1.748-1.746,1.662-1.986-.129-3.984-.064-5.978-.081v-9.587" transform="translate(-65.049 -87.128)" fill="#fff0d4"/>
  <path id="Path_3829" data-name="Path 3829" d="M108.4,162.522v9.587c-2.1.017-4.21.009-6.314.066-.743.02-1.07-.114-1.061-.974q.067-6.4.006-12.8c-.011-1.295.571-1.07,1.281-.606a27.532,27.532,0,0,1,3.952,3.757,2.553,2.553,0,0,0,2.135.973" transform="translate(-55.91 -87.122)" fill="#fff"/>
  <path id="Path_3830" data-name="Path 3830" d="M108.865,143.414c-.859.653-1.076-.362-1.384-.666-1.6-1.576-3.216-3.035-5.62-3.139-.306-.013-.624-.193-.634-.444-.058-1.5-.1-2.995-.05-4.49.017-.537.59-.388.945-.387,2.223.006,4.446.035,6.669.056q.037,4.535.074,9.07" transform="translate(-55.98 -74.306)" fill="#c17649"/>
  <path id="Path_3831" data-name="Path 3831" d="M118.327,143.414q-.037-4.535-.074-9.07c2.1-.021,4.206-.02,6.308-.075.767-.02,1.143.211,1.065,1.027a7.167,7.167,0,0,0,0,1.328c.155,1.7.118,2.885-2.239,3.226-2.014.292-3.642,1.974-5.059,3.563" transform="translate(-65.442 -74.305)" fill="#a35e43"/>
  <path id="Path_3832" data-name="Path 3832" d="M248.291,300.217q-15.275.021-30.55.04-12.688.01-25.376,0c-.831,0-1.575.194-1.571-1.194q.074-27.548.014-55.1c0-.956.285-1.212,1.224-1.21q28.13.058,56.26.06,0,2.632,0,5.264a11.065,11.065,0,0,0-1.759-.28q-23.965-.023-47.928,0a2.513,2.513,0,0,0-2.761,2.742c-.01,4.9.043,9.8-.034,14.7a2.906,2.906,0,0,0,1.439,2.433c.49.395,1.183.162,1.781.163q24.631.036,49.262.05,0,16.166,0,32.333" transform="translate(-105.587 -134.346)" fill="#1990c2"/>
  <path id="Path_3833" data-name="Path 3833" d="M251.024,212.85q-9.851.033-19.7.065c-5.566.011-11.133-.017-16.7.02-.965.006-1.377-.193-1.362-1.275.059-4.174.044-8.35.008-12.525-.008-.892.185-1.28,1.187-1.275q18.284.078,36.568.086v14.9" transform="translate(-118.02 -109.498)" fill="#696969"/>
  <path id="Path_3834" data-name="Path 3834" d="M319.541,248.053q0-2.632,0-5.264c2-.014,4.006.063,6-.072,1.417-.1,1.735.385,1.731,1.755-.048,16.788-.02,33.576-.049,50.363,0,1.753.788,4.1-.359,5.094-1,.867-3.278.267-4.991.294-.777.013-1.555-.023-2.332-.037q0-16.166,0-32.333c2.039-.432,2.657-1.082,2.673-3.119.038-4.659.045-9.319,0-13.977-.021-2.059-.627-2.593-2.67-2.7" transform="translate(-176.837 -134.316)" fill="#116f97"/>
  <path id="Path_3835" data-name="Path 3835" d="M297.819,212.86v-14.9c2.059-.022,4.118-.024,6.176-.076.8-.021,1.221.166,1.212,1.1q-.054,6.432,0,12.863c.008.931-.407,1.118-1.212,1.1-2.058-.053-4.118-.054-6.176-.077" transform="translate(-164.816 -109.507)" fill="#4f4f4f"/>
  <path id="Path_3836" data-name="Path 3836" d="M238.488,74.469c-2.843,2.262-6.256,3.194-9.713,4.268,0-8.638.017-17.154-.029-25.669a1.242,1.242,0,0,1,.891-1.321c3.6-1.543,4.842-6.087,3.374-9.669-1.343-3.276-4.1-4.214-7.218-4.37s-6.233-.044-9.35-.031c-4,.016-6.434,1.7-7.491,5.641-.856,3.191-.153,5.841,3.336,8.3a2.832,2.832,0,0,1,1.477,2.683q-.087,11.354,0,22.711c.013,1.413-.411,1.862-1.694,1.418a40.859,40.859,0,0,1-12.729-6.8,31.127,31.127,0,0,1-7.741-9.218,22.693,22.693,0,0,1-3.075-7.748c-.2-1.419-1.034-2.861-1.275-4.447a40.827,40.827,0,0,1-.136-9.6,25.453,25.453,0,0,1,2.19-8c2.57-5.863,6-10.984,11.3-14.808a32.469,32.469,0,0,1,12.71-5.9,33.039,33.039,0,0,1,10.047-.76,39.515,39.515,0,0,1,10.905,2.462c.748.306,1.458.7,2.186,1.057l.366.262-.014-.014c-.034.65.46.982.846,1.366,3.993,3.979,6.385,8.9,8.108,14.152,2.282,6.956,2.529,14.117,1.749,21.353a42.1,42.1,0,0,1-8.449,21.523c-.271.354-.621.646-.572,1.15" transform="translate(-103.434 -6.104)" fill="#dbf4ff"/>
  <path id="Path_3837" data-name="Path 3837" d="M300.322,79.3c-.049-.5.3-.8.572-1.15a42.1,42.1,0,0,0,8.449-21.523c.78-7.236.532-14.4-1.749-21.353-1.723-5.25-4.114-10.174-8.108-14.152-.386-.384-.879-.716-.846-1.366a23.273,23.273,0,0,1,7.275,4.851A34.108,34.108,0,0,1,316.654,43.43c.815,3.808.518,7.648.192,11.513a34.284,34.284,0,0,1-2.179,8.069,26.836,26.836,0,0,1-4.194,7.46,36.7,36.7,0,0,1-9.123,8.433c-.278.186-.591.521-1.028.391" transform="translate(-165.269 -10.932)" fill="#b0e7ff"/>
  <path id="Path_3838" data-name="Path 3838" d="M258.211,145.049v-3c0-2.517,0-2.517,2.506-2.517s2.507,0,2.507,2.516c0,2.387-.031,4.775.015,7.161.02,1-.343,1.346-1.355,1.372-3.673.1-3.672.128-3.672-3.536Z" transform="translate(-142.896 -77.22)" fill="#49c9ff"/>
  <path id="Path_3839" data-name="Path 3839" d="M263.193,109.69c0,1.444-.046,2.891.017,4.333.036.825-.271.987-1.042,1.016-3.989.152-3.988.177-3.988-3.72,0-1.944.053-3.891-.022-5.833-.037-.969.3-1.175,1.214-1.185,3.821-.044,3.821-.076,3.821,3.723v1.667" transform="translate(-142.866 -57.716)" fill="#82daff"/>
  <path id="Path_3840" data-name="Path 3840" d="M262.667,81.962a33.94,33.94,0,0,1,6.086.143,2.132,2.132,0,0,1,1.858,2.47,2.327,2.327,0,0,1-2.47,2.335c-1.824,0-3.649-.033-5.473-.05a7.789,7.789,0,0,0,0-4.9" transform="translate(-145.362 -45.322)" fill="#ff1b7c"/>
  <path id="Path_3841" data-name="Path 3841" d="M254,81.976a7.789,7.789,0,0,1,0,4.9c-1.438.019-2.875.054-4.312.052A2.465,2.465,0,0,1,247,84.536a2.5,2.5,0,0,1,2.683-2.607c1.437-.027,2.875.029,4.312.047" transform="translate(-136.693 -45.336)" fill="#ff4996"/>
  <path id="Path_3842" data-name="Path 3842" d="M298.219,19.435l-.366-.261c.237-.075.317.071.366.261" transform="translate(-164.834 -10.6)" fill="#b0e7ff"/>
  <path id="Path_3843" data-name="Path 3843" d="M105.915,77.081c-6.439,1.753-12.794-1.7-15.193-8.3-.293-.806-.4-1.417.887-1.756a17.563,17.563,0,0,0,10.582-7.305c.151-.227.262-.479.471-.868a20.275,20.275,0,0,0,5.257,5.706c-.383,4.219-.559,8.47-2,12.519" transform="translate(-50.102 -32.572)" fill="#c17649"/>
  <path id="Path_3844" data-name="Path 3844" d="M59.877,57.963a6.311,6.311,0,0,1,6.251,5.589c.276,3.353-1.189,6.332-5.057,7.411-2.367.66-4.271-.36-4.8-2.446a3.3,3.3,0,0,1,.437-2.557,2.784,2.784,0,0,0,.042-2.985c-1.476-2.667.012-5,3.124-5.012" transform="translate(-31.089 -32.077)" fill="#5f302b"/>
  <path id="Path_3845" data-name="Path 3845" d="M124.974,84.151c1.446-4.049,1.621-8.3,2-12.519,2.046,1.033,4.018,2.253,6.35,2.573.726.1.686.416.519,1.028a12.258,12.258,0,0,1-8.873,8.919" transform="translate(-69.161 -39.642)" fill="#a35e43"/>
  <path id="Path_3846" data-name="Path 3846" d="M124.82,45.753c3.813.393,8.573,5.2,8.865,8.9-3.825-.406-8.569-5.2-8.865-8.9" transform="translate(-69.076 -25.32)" fill="#5f302b"/>
  <path id="Path_3847" data-name="Path 3847" d="M98.932,46.023c.874.029.816.543.7,1.063-.613,2.868-5.207,7.213-8.045,7.686-.748.125-.988-.065-.712-.747a13.31,13.31,0,0,1,7.509-7.839,5.271,5.271,0,0,1,.544-.163" transform="translate(-50.232 -25.47)" fill="#5f302b"/>
  <path id="Path_3848" data-name="Path 3848" d="M254.505,254.317c2.042.112,2.649.646,2.67,2.705.048,4.658.041,9.318,0,13.977-.017,2.036-.635,2.687-2.673,3.119q-24.631-.021-49.263-.05c-.6,0-1.291.232-1.781-.163a2.906,2.906,0,0,1-1.439-2.433c.078-4.9.025-9.8.034-14.7a2.513,2.513,0,0,1,2.761-2.742q23.964-.022,47.928,0a11.057,11.057,0,0,1,1.759.28M244.5,259.089q-18.176-.025-36.352-.071c-.887,0-1.116.253-1.1,1.114q.08,3.917,0,7.838c-.018.861.212,1.117,1.1,1.114q18.175-.07,36.352-.071c2.225.017,4.451,0,6.674.068.8.024,1.041-.218,1.026-1.022q-.072-4.007,0-8.014c.014-.8-.224-1.046-1.026-1.023-2.223.066-4.449.051-6.674.068" transform="translate(-111.801 -140.579)"/>
  <path id="Path_3849" data-name="Path 3849" d="M250.72,275.2q-18.176.025-36.352.071c-.887,0-1.116-.253-1.1-1.114q.08-3.918,0-7.838c-.018-.861.212-1.117,1.1-1.114q18.175.07,36.352.071V275.2" transform="translate(-118.025 -146.767)" fill="#fff"/>
  <path id="Path_3850" data-name="Path 3850" d="M297.129,275.2v-9.922c2.225-.017,4.451,0,6.674-.068.8-.024,1.041.218,1.026,1.022q-.072,4.007,0,8.014c.014.8-.224,1.046-1.026,1.023-2.223-.066-4.449-.051-6.674-.068" transform="translate(-164.434 -146.769)" fill="#fff0d4"/>
</svg>
