<svg id="Group_157" data-name="Group 157" xmlns="http://www.w3.org/2000/svg" width="166.911" height="164.697" viewBox="0 0 166.911 164.697">
  <path id="Path_4134" data-name="Path 4134" d="M4953.042,171.237V157.55c.248-.071.278-.267.322-.489a16.692,16.692,0,0,1,7.9-11.305c3-1.9,6.29-2.25,9.651-2.549.307-.027.656.138.918-.146.349-.378.077-4.058-.361-4.327a13.511,13.511,0,0,1-3.066-2.851,14.083,14.083,0,0,1-3.585-8.742c-.187-5.1-.029-10.2-.07-15.306a6.683,6.683,0,0,1,.48-2.477c.51-1.321,1.138-2.6,1.726-3.914-2.234-.219-4.373.277-6.433-.234-4.021-1-6.139-3.955-7.485-7.625V19.7c.108-.4.22-.807.325-1.211a8.541,8.541,0,0,1,5.375-6.289,18.893,18.893,0,0,1,9.4-.752,2.375,2.375,0,0,1,2.216,2.055c-.4,2.074-1.022,2.6-3.082,2.608-1.193,0-2.387,0-3.579,0-4.139.009-5.772,1.648-5.773,5.813q0,34.493,0,68.987c0,.487.036.974.056,1.46a41.7,41.7,0,0,0-.019,4.264c.2,2.132,2.406,3.858,4.772,3.859q46.189.019,92.38.041a4.466,4.466,0,0,0,2.751-1.059c1.633-1.219,2.039-2.939,2.034-4.858q-.025-7.739,0-15.478c0-2.788.18-2.966,2.975-3.116,1.884.4,1.876,1.935,1.888,3.338q.067,7.574,0,15.15a12.606,12.606,0,0,1-.4,3.336c-1.4,4.9-5.083,7.487-10.048,7.534-2.962.028-5.925,0-9.054,0a14.653,14.653,0,0,1,2.571,8.948c-.029,4.159.11,8.313-.222,12.481a15.64,15.64,0,0,1-5.865,11.288,5.485,5.485,0,0,0-1,4.951c.46,1.124,1.61.349,2.428.437.593.064,1.127.3,1.711.342a14.947,14.947,0,0,1,11.481,6.78c.718,1.016,1.053.678,1.545-.064,3.184-4.8,7.769-6.925,13.41-7,2.3-.033,2.368-.008,2.266-2.27-.043-.941.381-1.852-.835-2.805a15.347,15.347,0,0,1-6.285-12.33c-.037-4.558.2-9.122.055-13.675-.139-4.27,3.646-9.8,7.141-10.705a1.346,1.346,0,0,0,1.158-1.459q-.057-15.476-.013-30.952c0-.753-.211-1.053-1.014-1.041-3.745.057-7.49.06-11.234.083l-26.094-.078c-3.509-.131-7.663-3.8-7.514-7.893.064-1.786-.041-3.579-.013-5.367a1.928,1.928,0,0,0-.974-1.823c-1.927-1.34-3.905-3.754-2.848-7.094a2.488,2.488,0,0,0-.914-3.044,10.752,10.752,0,0,1-2.271-2.309,1.936,1.936,0,0,0-2.178-.861c-1.144.142-2.25.553-3.421.012-.528-.245-.9.272-1.169.667a46.668,46.668,0,0,1-3.566,4.517c-.828.952-1.458,1.823-.719,3.486a5.6,5.6,0,0,1-.741,5.35c-3.285,4.533-8.827,4.134-11.476.3l-.259-.327a.78.78,0,0,1-.075-.3l-.258-.348c-.27-1.065-.89-2.049-.715-3.217a.917.917,0,0,0-.591-1.02c-1.684-.858-3.371-1.712-5.017-2.638a1.236,1.236,0,0,0-1.556.134,6.146,6.146,0,0,1-6.022.777,1.1,1.1,0,0,0-1.414.173c-1.863,1.792-3.75,3.56-5.629,5.337a1.113,1.113,0,0,0-.395,1.309,7.354,7.354,0,0,1-3.74,8.261c-2.648,1.317-5.89.528-8.148-1.984-3.267-3.633-1.16-8.857,1.957-10.435a7.77,7.77,0,0,1,5.147-.414,2.117,2.117,0,0,0,2.146-.547,49.037,49.037,0,0,1,4.352-4.091c1-.778,2.245-1.669,1.315-3.3a3.333,3.333,0,0,1,.223-3.009c1.669-4.2,4.258-5.008,8.113-4.494,2.92.389,5.141,2.878,5.325,6.54a1.653,1.653,0,0,0,.807,1.47c1.647.932,3.331,1.8,5.03,2.638a1,1,0,0,0,1.068-.146c1.519-1.289,3.376-1.25,5.161-1.066a1.9,1.9,0,0,0,1.858-.777,29.433,29.433,0,0,0,2.581-3.258c.817-1.321,2.741-2.1,1.8-4.346-1.064-2.542-.229-4.9,1.639-6.856a6.437,6.437,0,0,1,6.839-1.613c3.451,1.182,5.775,4.366,4.537,8.513-.137.457-.442.831.064,1.407,1.21,1.376,2.43,2.735,3.754,4,.253.242.438.725.9.524,1.252-.545,2.553-.141,3.825-.244a1.32,1.32,0,0,0,1.212-.566c2.274-3.38,5.138-6.292,7.664-9.474a1.209,1.209,0,0,0,.132-1.543c-2.036-4.11,1.45-9.478,5.578-9.344a7.306,7.306,0,0,0,.97.05,5.834,5.834,0,0,1,5.846,3.346,6.538,6.538,0,0,1-.306,7.128,6.726,6.726,0,0,1-6.51,2.951,2.185,2.185,0,0,0-2.4.876c-1.778,2.258-3.663,4.436-5.384,6.737-1.073,1.437-2.86,2.6-1.7,5,.762,1.57-.053,3.335-.5,4.975h7.7c4.443.037,8.886.06,13.328.124.823.012.982-.341.981-1.073-.018-9.492.028-18.985-.034-28.478-.021-3.106-1.322-4.482-4.277-5.194-2.566-.619-5.148-.18-7.723-.242-.648-.019-1.3-.054-1.947-.054q-33.331,0-66.662,0c-2.421,0-2.723-.233-3.458-2.607.557-1.949,2.081-2.277,3.807-2.277,19.384,0,38.768-.044,58.151.026,6.162.022,12.327-.309,18.494.262a9.658,9.658,0,0,1,8.264,8.166,70.3,70.3,0,0,1,.243,8.906c.04,7.058.015,14.117.01,21.176,0,.765-.142,1.429,1.093,1.414,5.863-.068,11.728-.029,17.592-.036.307,0,.663.115.9-.2.33-.433-.161-3.607-.59-4-3.482-3.174-5.689-6.931-5.623-11.823s-.008-9.773.026-14.659a7.436,7.436,0,0,1,.157-2.4c1.524-4.554,4.368-6.65,9.147-6.809,3.635-.121,7.276-.067,10.913,0a13.587,13.587,0,0,1,3.6.529c3.946,1.175,6.352,4.285,6.421,9.134a130.166,130.166,0,0,1-.212,15.415c-.411,3.944-1.859,7.363-4.921,9.8a4.258,4.258,0,0,0-1.658,4.117c.034.695.21.946.924.918,1.247-.05,2.5-.053,3.745-.006,5.069.189,9.145,2.028,11.845,6.622a15.259,15.259,0,0,1,1.712,7.331c.19,3.955.064,7.925.048,11.888-.025,5.757.219,11.522-.334,17.264a12.445,12.445,0,0,1-11.409,11.12c-.867.057-1.093.282-1.065,1.108.057,1.681.043,3.366.01,5.049a3.322,3.322,0,0,1-2.181,3.378l-.646-.016c-.233-.422-.638-.356-1.019-.354a1.984,1.984,0,0,1-.975-2.056c0-1.944-.053-3.889,0-5.831.03-1-.323-1.35-1.307-1.291-1.184.071-2.374.033-3.562.043l-1-.044c-.879-.336-.525.383-.618.72a5.425,5.425,0,0,1,2.563,4.6c.063.753.2,1.484.31,2.224-.7.119-.6.663-.6,1.141q-.006,5.212,0,10.423c0,.477-.1,1.022.6,1.141a11.51,11.51,0,0,1-.124,2.078,20.033,20.033,0,0,1-3.131,7.992l-.293.343c-1.689,1.7-4.192,2.8-3.65,6,.217,1.28.513,1.712,1.723,1.485a14.588,14.588,0,0,1,7.53,1.463c1.492.736,1.541.726,1.542-1.018.006-6.337.07-12.675-.038-19.01-.033-1.909.524-3.114,2.379-3.631,2.093.659,2.536,2.225,2.523,4.218-.051,7.765-.027,15.531-.011,23.3a3.3,3.3,0,0,0,.4,2.321,12.575,12.575,0,0,1,2.292,5.293c1.041,4.356.8,8.792.6,13.176-.194,4.261-3.258,6.15-6.979,6.133-13.9-.063-27.8-.025-41.706-.027a5,5,0,0,1-2.068-.08c-1.769-.894-3.4-1.309-5.148.069-.375.3-1.159.085-1.755.084-14.28-.022-28.562.034-42.84-.153-2.321-.03-4.61-.117-6.945-.072-14.657.285-29.322.145-43.983.12a8.7,8.7,0,0,1-1.528-.121c-2.528-.454-3.373-2.46-4.411-4.335m89.595-53.785q.013-2.648.026-5.3a6.593,6.593,0,0,0-4.969-6.408c-3.259-.76-6.581-.277-9.873-.322a7.34,7.34,0,0,0-5.729,2.893c-1.909,2.174-1.6,4.728-1.54,7.24a11.9,11.9,0,0,0,3.4,8.005c2.11,2.288,5.05,2.47,7.724,3.345.829.272,1.28-.661,2.1-.652,3.124.035,8.4-4.079,8.584-8.148.452-.067.795-.182.278-.659m-24.413,46.29.314-.253.393-.392c.325.182.6.263.594-.275,2.34.531,2.953,1.261,2.97,3.541q.016,2.1.029,4.2c-.053.242.029.34.277.261,5.7.006,11.4-.008,17.095.038.987.008,1.338-.278,1.308-1.284-.045-1.514.056-3.033.092-4.55a1.732,1.732,0,0,1,1.076-1.64c1.751-.878,3.562.347,3.73,2.536.123,1.6-.739,3.822.382,4.627s3.226.282,4.9.285c3.392.006,3.387.421,3.356-3.332-.027-3.4.417-6.874-.489-10.157-1.792-6.482-7.234-9.753-13.9-8.936-.373.046-.5.23-.708.506a6.812,6.812,0,0,1-6.122,3.04c-1.46-.09-2.93-.028-4.395-.024a5.6,5.6,0,0,1-5.1-2.658,1.472,1.472,0,0,0-1.416-.867,30.143,30.143,0,0,0-5.124.311c-4.356,1.013-8.751,6.067-8.694,11.016.027,2.387-.027,4.775-.011,7.163.027,4.019-.682,4,3.925,3.936,1.563-.021,3.569.651,4.567-.251,1.027-.928.213-2.969.33-4.518a7.045,7.045,0,0,0,0-1.3c-.059-.53.247-.789.624-1.028m-47.226.313c1.147,1.77.5,3.748.621,5.632.048.761.124,1.185,1.055,1.179q8.3-.054,16.605,0c.933.006,1.071-.428,1.055-1.195-.027-1.355-.056-2.716.027-4.068.11-1.789.914-2.566,2.428-2.514a2.559,2.559,0,0,1,2.4,2.693c.04,1.3.061,2.607,0,3.906-.047.953.335,1.2,1.232,1.178,1.9-.056,3.8-.044,5.7-.008,1.331.025,1.858-.581,1.786-1.889-.18-3.284.106-6.565-.271-9.868a11.878,11.878,0,0,0-3.34-7.232,11.76,11.76,0,0,0-9.767-3.466,2.207,2.207,0,0,0-2.073,1.013,5.651,5.651,0,0,1-3.553,2.291c-2.146.467-4.321.177-6.482.233a5.6,5.6,0,0,1-5.255-2.691c-.226-.36-.47-.8-.947-.8a22.152,22.152,0,0,0-4.868.064,12.228,12.228,0,0,0-9.449,11.321c-.9.221-.929.953-.935,1.656q-.025,3.4,0,6.792c.006.7.039,1.436.938,1.654a1.734,1.734,0,0,0,1.742.923c.97-.032,1.942.025,2.912-.014,1.336-.054,3.039.567,3.909-.238.889-.824.187-2.549.294-3.875.026-.322,0-.647.007-.97.032-1.921.9-2.7,2.9-2.614.08.838.652.956,1.336.911m37.735-15.644c.75.092,1.091-.232,1-.989,3.432-3.1,7.677-3.863,12.068-4.215.306-.025.657.129.9-.182.459-.583-.123-3.942-.717-4.428-3.7-3.028-6.095-6.856-6.324-11.673-.212-4.44-.028-8.9.023-13.352a14.151,14.151,0,0,1,.1-3.039,19.707,19.707,0,0,1,2.183-5.094H4994.4c2.216,2.648,2.494,5.8,2.547,8.876a119.014,119.014,0,0,1-.176,12.655,15.615,15.615,0,0,1-5.366,10.815,4.381,4.381,0,0,0-1.595,3.655c-.055,1.606.252,2.208,2.044,2.141,5.772-.213,10.249,2.34,13.611,6.936.635.868.895,1,1.552-.05a4.865,4.865,0,0,1,1.721-2.057m28.376-85.656c.157.275-.2,1.091.658.629,12.813.018,25.627.066,38.439.016,1.612-.006,2.264.958,2.933,2.024a5.067,5.067,0,0,1,.568,2.794c-.019,10.208.008,20.415-.036,30.623-.006,1.229.252,1.672,1.592,1.657q9.691-.111,19.383,0c1.311.014,1.618-.369,1.61-1.635-.055-8.524-.029-17.049-.025-25.573a13.466,13.466,0,0,1,.068-1.788,2.172,2.172,0,0,1,2.745-1.712c1.974.429,2.039,1.967,2.046,3.449q.053,12.949-.009,25.9c-.01,1.493.588,1.6,1.748,1.217,4.475-1.485,6.084-4.053,6.144-8.3q.2-13.843,0-27.69c-.052-3.825-1.947-7.07-6.311-8.077-1.806-.417-3.677-.131-5.509-.267a2.329,2.329,0,0,0-2.74,1.539,5.559,5.559,0,0,1-1.482,2.06c-4.515,3.845-10.3,3.291-13.437-2.313a2.139,2.139,0,0,0-2.2-1.28q-23.212.05-46.423.026c-1.03,0-2.273-.3-3.031.161s-.173,1.806-.311,2.75a3.184,3.184,0,0,0,3.58,3.793m22.528,101c0,2.159.038,3.951-.016,5.74-.029.959.264,1.372,1.282,1.348q3.255-.077,6.512.011c.916.025,1.09-.381,1.064-1.169-.042-1.3-.021-2.6-.007-3.907.021-1.823.8-2.694,2.394-2.69,1.537,0,2.438.981,2.475,2.74q.044,2.034,0,4.07c-.018.7.253.951.951.949q8.385-.025,16.771,0c.774,0,1.053-.259,1.043-1.033-.022-1.572-.027-3.149.064-4.718a2.12,2.12,0,0,1,2.832-1.94,2.488,2.488,0,0,1,1.949,2.579c.052,1.355.046,2.714.01,4.069-.021.767.256,1.058,1.039,1.043,2.007-.039,4.016-.008,6.023-.017,1.051,0,1.624-.505,1.571-1.6-.17-3.557.229-7.113-.324-10.68-1.205-7.753-7.656-11.067-14.58-10.106a.859.859,0,0,0-.721.557c-.92,2.251-2.816,2.868-4.992,2.933-1.735.052-3.475-.059-5.209.006a4.78,4.78,0,0,1-4.313-1.975c-1.06-1.632-2.364-1.525-3.915-1.571-4.982-.147-8.218,2.441-10.624,6.473-1.738,2.912-1.212,6.122-1.278,8.889m23.025-58.357c-1.3,0-2.6-.057-3.9.013a7.824,7.824,0,0,0-5.858,2.952c-2.3,2.742-.9,6.092-1.755,9.056-.2.679.693,1.158.943,1.815a10.5,10.5,0,0,0,4.956,5.955c2.3,1.168,4.608,2.217,7.449,1.18a19.326,19.326,0,0,0,4.879-2.032c4.415-3.2,4.832-7.886,4.222-12.775a7.074,7.074,0,0,0-7.032-6.159c-1.3-.035-2.6-.006-3.9-.006m-112.946,9.345a12.607,12.607,0,0,0,.023,2.43,11.462,11.462,0,0,0,4.857,7.559,10.363,10.363,0,0,0,8.052,1.624c4.643-.86,7.677-3.341,8.946-7.748a15.966,15.966,0,0,0,.285-7.2,7.154,7.154,0,0,0-5.474-5.7,46.322,46.322,0,0,0-10.354-.223,6.54,6.54,0,0,0-5.22,3.449,9.778,9.778,0,0,0-1.117,5.8M5093.1,27.971v.053c-2.062,0-4.127-.05-6.187.015a3.991,3.991,0,0,0-3.766,2.937c-.812,2.164-.295,4.3.162,6.424a10.056,10.056,0,0,0,10.609,7.76,10.714,10.714,0,0,0,7.386-3.913c2.145-2.5,2.063-5.5,1.994-8.526-.071-3.206-1.427-4.67-4.659-4.742-1.846-.041-3.692-.007-5.539-.007m.483,99.254a15.941,15.941,0,0,1-6,3.534c-5.247,1.465-10.306,1.163-14.722-2.512-.325-.27-.7-.5-1.01-.294-.348.233-.068.638,0,1.006.558,2.972,2.575,4.833,4.909,6.385a3.312,3.312,0,0,1,1.8,2.959c-.022,2.333.072,4.669-.028,7-.061,1.39.485,1.836,1.784,1.782,1.408-.059,2.821-.034,4.231-.007,1.472.029,2.167-.615,2.132-2.131-.051-2.115.067-4.236-.041-6.346a3.64,3.64,0,0,1,1.49-3.2c.7-.571,1.476-1.048,2.131-1.66a11.2,11.2,0,0,0,3.318-6.508m-123.768.066c.751,3.7,2.369,6.261,5.135,7.937a3.711,3.711,0,0,1,1.9,3.552c-.007,2.169.03,4.339-.013,6.507-.025,1.233.481,1.808,1.725,1.785,1.464-.026,2.928,0,4.393-.007,1.407-.007,2.041-.733,2.021-2.131-.028-1.843.112-3.7-.037-5.528a4.7,4.7,0,0,1,2.511-4.838,9.5,9.5,0,0,0,4.321-7.2c-3.332,2.555-6.716,4.118-10.812,4.165a16.488,16.488,0,0,1-11.146-4.244m50.94.281a10.952,10.952,0,0,0,5.221,7.793,3.324,3.324,0,0,1,1.739,3.165c-.046,2.167.044,4.338-.03,6.5-.05,1.447.467,2.119,1.965,2.047,1.352-.065,2.709-.022,4.064-.011,1.493.013,2.15-.714,2.117-2.2-.043-1.95.121-3.913-.047-5.851a4.213,4.213,0,0,1,2.285-4.3,10.4,10.4,0,0,0,4.2-5.626,1.108,1.108,0,0,0-.053-1.074c-.291-.326-.551.086-.793.264-5.379,3.969-11.086,4.241-17.086,1.572-1.258-.559-2.164-1.643-3.587-2.283m62.309-106.387c0,.65-.009,1.3,0,1.949.006.314-.021.661.416.757a8.66,8.66,0,0,0,3.953-1.918,2.167,2.167,0,0,1,2.19-1.328,2,2,0,0,1,2.169,1.334c.3.985.9,1.036,1.717,1.041a60.15,60.15,0,0,1,7.453.228c.851.111,1.778,1.369,2.444.366.456-.689.185-1.885.176-2.854a4.321,4.321,0,0,0-4.676-4.643c-3.575-.019-7.149-.006-10.724,0-3.536,0-5.121,1.572-5.123,5.071m13.68,28.6c-1.655.125-3.141.818-4.685.482-2.914-.634-2.905-.671-2.792,2.34.087,2.274,1.05,3.881,2.958,4.411a3.466,3.466,0,0,0,3.829-1.638c1.145-1.689.648-3.693.689-5.595M5016.27,33.077c-.033,1.41.526,2.2,1.832,2.252a2.039,2.039,0,0,0,2.071-2.129c-.032-1.364-.854-1.768-2.095-1.787-1.282-.019-1.918.487-1.809,1.664m15.573,12.691c-1.261,0-2.381.9-2.179,1.857a2.426,2.426,0,0,0,2.157,2.041c.8.1,2.188-1.317,2-2.139-.228-1.01-.687-1.974-1.981-1.76m-47.206-4.988c.213.861.349,1.961,1.694,2.042a2.479,2.479,0,0,0,2.258-2.122c-.091-1.308-.877-1.792-2.16-1.8-1.245-.006-1.768.563-1.792,1.877m66-14.1c.089-1.48-1.042-1.771-2.038-2.018-.783-.195-2.169,1.31-1.991,2.127a2.326,2.326,0,0,0,2,1.977,2.063,2.063,0,0,0,2.029-2.086m-78.51,29.374c-.178-1.144-.607-1.913-1.947-1.838-1.181.066-2,.48-2.122,1.694-.1.949,1.254,2.351,2.122,2.217a2.148,2.148,0,0,0,1.947-2.074m32.354-7.672a1.747,1.747,0,0,0-2.151,1.827,2.022,2.022,0,0,0,1.868,2.049,2.112,2.112,0,0,0,2.154-2.084c-.157-1.014-.529-2.038-1.871-1.792" transform="translate(-4953.042 -11.174)"/>
  <path id="Path_4135" data-name="Path 4135" d="M4976.415,16.383h5.444c.735,2.375,1.037,2.607,3.458,2.607q33.333,0,66.663,0c.649,0,1.3.036,1.948.055v3.8c-4.129-.135-7.615,5.234-5.579,9.343a1.21,1.21,0,0,1-.131,1.543c-2.527,3.182-5.39,6.093-7.664,9.473a1.319,1.319,0,0,1-1.212.566c-1.273.1-2.574-.3-3.825.244-.462.2-.648-.282-.9-.524-1.325-1.264-2.544-2.624-3.754-4-.507-.576-.2-.95-.064-1.407,1.239-4.147-1.085-7.331-4.537-8.513a6.437,6.437,0,0,0-6.839,1.613c-1.869,1.96-2.7,4.315-1.638,6.856.942,2.25-.981,3.025-1.8,4.346a29.3,29.3,0,0,1-2.581,3.259,1.9,1.9,0,0,1-1.859.777c-1.784-.184-3.642-.222-5.159,1.066a1,1,0,0,1-1.07.147c-1.7-.834-3.382-1.706-5.03-2.638a1.653,1.653,0,0,1-.807-1.47c-.185-3.662-2.405-6.151-5.325-6.54-3.855-.513-6.444.294-8.114,4.494a3.333,3.333,0,0,0-.222,3.009c.929,1.632-.312,2.523-1.315,3.3a49.169,49.169,0,0,0-4.352,4.091,2.12,2.12,0,0,1-2.147.548,7.765,7.765,0,0,0-5.146.414c-3.117,1.577-5.224,6.8-1.957,10.434,2.259,2.512,5.5,3.3,8.149,1.984a7.355,7.355,0,0,0,3.74-8.261,1.112,1.112,0,0,1,.394-1.309c1.879-1.776,3.765-3.544,5.629-5.336a1.1,1.1,0,0,1,1.415-.173,6.142,6.142,0,0,0,6.021-.777,1.237,1.237,0,0,1,1.556-.133c1.646.926,3.333,1.779,5.016,2.637a.917.917,0,0,1,.591,1.02c-.175,1.168.445,2.152.715,3.216-.066.229.076.3.259.349a.743.743,0,0,0,.074.3c-.065.23.069.3.259.327,2.648,3.836,8.19,4.235,11.476-.3a5.6,5.6,0,0,0,.741-5.349c-.74-1.663-.109-2.534.718-3.486a46.421,46.421,0,0,0,3.567-4.518c.265-.394.64-.911,1.169-.666,1.17.541,2.277.131,3.42-.012a1.938,1.938,0,0,1,2.179.861,10.752,10.752,0,0,0,2.271,2.31,2.487,2.487,0,0,1,.914,3.044c-1.057,3.34.921,5.754,2.848,7.094a1.929,1.929,0,0,1,.974,1.823c-.028,1.789.077,3.581.011,5.368-.148,4.092,4.007,7.761,7.516,7.893a27.118,27.118,0,0,1-3.687,4.8c-1.7,2.053-4.1,3.458-5.438,5.841-.434.02-.866.058-1.3.058q-29.154,0-58.308,0c-1.82,0-3.16,1.006-3.218,2.39-.06,1.423,1.3,2.489,3.214,2.491q10.585.006,21.173,0,14.981.017,29.964.049c-.858,1.482-2.552,1.681-3.837,2.507-1.375.883-3.147,1-4.31,2.278a3.285,3.285,0,0,0-1.873-.271c-13.608,0-27.217.041-40.827-.046-2.235-.014-3.649.878-3.287,3.627a34.819,34.819,0,0,1-6.753.324c-.02-.487-.056-.973-.056-1.46q0-34.494,0-68.986c0-4.165,1.635-5.8,5.773-5.813,1.193,0,2.386,0,3.58,0,2.061,0,2.684-.534,3.083-2.607" transform="translate(-4959.094 -14.057)" fill="#d9e0ed"/>
  <path id="Path_4136" data-name="Path 4136" d="M5136.733,118.246a3.184,3.184,0,0,1-3.581-3.793c.138-.944-.461-2.274.312-2.749.757-.466,2-.161,3.03-.162q23.211-.006,46.423-.025a2.137,2.137,0,0,1,2.2,1.279c3.139,5.6,8.922,6.158,13.437,2.313a5.565,5.565,0,0,0,1.482-2.06,2.328,2.328,0,0,1,2.74-1.539c1.832.135,3.7-.15,5.509.267,4.363,1.007,6.259,4.252,6.31,8.077q.185,13.843,0,27.69c-.06,4.248-1.669,6.816-6.143,8.3-1.16.385-1.758.276-1.749-1.217q.081-12.949.008-25.9c-.006-1.482-.071-3.019-2.045-3.449a2.172,2.172,0,0,0-2.745,1.712,13.456,13.456,0,0,0-.068,1.788c0,8.525-.028,17.049.025,25.573.009,1.266-.3,1.649-1.609,1.635q-9.691-.106-19.383,0c-1.34.015-1.6-.428-1.592-1.657.044-10.207.018-20.415.037-30.623a5.072,5.072,0,0,0-.568-2.794c-.669-1.066-1.321-2.03-2.933-2.023-12.812.049-25.626,0-38.439-.017-.1-.337-.255-.612-.658-.629" transform="translate(-5052.666 -66.665)" fill="#48bbed"/>
  <path id="Path_4137" data-name="Path 4137" d="M5033.375,149.756c1.342-2.382,3.734-3.788,5.439-5.841a27.066,27.066,0,0,0,3.686-4.8l26.094.078c-.009.589-.063,1.18-.019,1.764.148,1.954-.38,3.947.33,5.868-2.794.15-2.971.329-2.975,3.116q-.007,7.739,0,15.478c.006,1.919-.4,3.639-2.035,4.858a4.463,4.463,0,0,1-2.75,1.059q-46.189-.038-92.38-.041c-2.365,0-4.573-1.727-4.771-3.859a41.836,41.836,0,0,1,.017-4.264,34.813,34.813,0,0,0,6.753-.324,3.449,3.449,0,0,0,3.055,1.324c10.835-.033,21.669-.019,32.5-.019h9.426a2.438,2.438,0,0,0,2.584-1.735c.334-1.283.094-2.555-1.583-2.881,1.163-1.274,2.935-1.4,4.31-2.278,1.286-.826,2.979-1.024,3.837-2.507q13.83-.025,27.662-.053a21.9,21.9,0,0,0,4.474-.286,1.939,1.939,0,0,0,1.743-1.584,2.122,2.122,0,0,0-1.264-2.653,5.86,5.86,0,0,0-2.177-.378c-7.321.012-14.643-.021-21.964-.041" transform="translate(-4959.074 -81.976)" fill="#cfd6e5"/>
  <path id="Path_4138" data-name="Path 4138" d="M5191.7,333.663c.066-2.767-.46-5.977,1.278-8.889,2.406-4.032,5.643-6.619,10.624-6.472,1.551.046,2.856-.061,3.916,1.571a4.78,4.78,0,0,0,4.314,1.974c1.733-.065,3.473.046,5.208-.006,2.176-.066,4.073-.682,4.993-2.933a.858.858,0,0,1,.72-.557c6.924-.961,13.375,2.353,14.58,10.106.554,3.566.155,7.123.325,10.68.052,1.1-.52,1.6-1.571,1.6-2.008.009-4.017-.022-6.024.017-.783.015-1.059-.276-1.039-1.043.035-1.356.042-2.715-.01-4.07a2.487,2.487,0,0,0-1.949-2.579,2.12,2.12,0,0,0-2.832,1.94c-.092,1.569-.088,3.145-.065,4.717.011.773-.268,1.037-1.042,1.033q-8.385-.035-16.771,0c-.7,0-.969-.245-.952-.949.033-1.356.03-2.714,0-4.07-.037-1.759-.938-2.736-2.475-2.74-1.59,0-2.374.867-2.394,2.69-.014,1.3-.036,2.606.007,3.907.025.788-.148,1.194-1.064,1.17q-3.254-.087-6.512-.011c-1.019.024-1.312-.389-1.283-1.348.055-1.789.016-3.582.016-5.74" transform="translate(-5085.102 -181.079)" fill="#7885ed"/>
  <path id="Path_4139" data-name="Path 4139" d="M4963.905,329.8a12.229,12.229,0,0,1,9.45-11.321,22.143,22.143,0,0,1,4.867-.064c.478.006.723.442.948.8a5.6,5.6,0,0,0,5.254,2.691c2.162-.056,4.336.234,6.482-.233a5.652,5.652,0,0,0,3.553-2.291,2.21,2.21,0,0,1,2.074-1.013,11.758,11.758,0,0,1,9.765,3.466,11.879,11.879,0,0,1,3.34,7.232c.378,3.3.092,6.584.272,9.868.072,1.307-.455,1.913-1.786,1.888-1.9-.036-3.8-.047-5.7.009-.9.026-1.28-.225-1.232-1.178.065-1.3.045-2.6,0-3.906a2.561,2.561,0,0,0-2.4-2.693c-1.513-.051-2.317.725-2.428,2.514-.083,1.352-.055,2.713-.026,4.068.016.766-.123,1.2-1.055,1.194q-8.3-.051-16.606,0c-.931.006-1.007-.418-1.055-1.179-.119-1.884.527-3.862-.621-5.632-.327-.477-.608-1.021-1.335-.912-2-.087-2.87.693-2.9,2.614-.006.323.02.649-.007.97-.107,1.325.6,3.051-.294,3.875-.87.805-2.573.184-3.91.238-.969.039-1.941-.017-2.911.014a1.734,1.734,0,0,1-1.743-.922l0-10.1" transform="translate(-4959.053 -181.145)" fill="#7885ed"/>
  <path id="Path_4140" data-name="Path 4140" d="M5091.562,340.485q-.015-2.1-.029-4.2c-.017-2.279-.63-3.01-2.97-3.541-.251-.023-.564-.179-.593.275l-.393.392c-.223-.062-.293.065-.314.253-.377.24-.683.5-.624,1.029a7,7,0,0,1,0,1.3c-.118,1.549.7,3.591-.33,4.518-1,.9-3.005.23-4.568.251-4.6.064-3.9.084-3.924-3.935-.017-2.388.039-4.776.011-7.163-.057-4.948,4.337-10,8.695-11.016a30.085,30.085,0,0,1,5.123-.31,1.471,1.471,0,0,1,1.417.867,5.6,5.6,0,0,0,5.1,2.658c1.465,0,2.934-.067,4.395.024a6.81,6.81,0,0,0,6.122-3.04c.209-.276.335-.46.709-.506,6.667-.817,12.109,2.454,13.9,8.936.907,3.283.462,6.76.49,10.157.03,3.753.035,3.338-3.357,3.332-1.673,0-3.775.521-4.9-.285s-.259-3.03-.382-4.627c-.168-2.189-1.979-3.414-3.73-2.536a1.733,1.733,0,0,0-1.076,1.64c-.036,1.517-.136,3.035-.091,4.549.03,1.007-.321,1.292-1.308,1.284-5.7-.046-11.4-.032-17.095-.038l-.278-.261" transform="translate(-5022.08 -181.091)" fill="#48bbed"/>
  <path id="Path_4141" data-name="Path 4141" d="M5228.983,222.138c1.3,0,2.6-.029,3.9.006a7.074,7.074,0,0,1,7.032,6.159c.611,4.889.192,9.57-4.222,12.775a19.36,19.36,0,0,1-4.878,2.032c-2.841,1.037-5.145-.013-7.45-1.181a10.5,10.5,0,0,1-4.956-5.955c-.25-.657-1.14-1.136-.943-1.815.856-2.963-.549-6.314,1.755-9.056a7.821,7.821,0,0,1,5.859-2.952c1.3-.07,2.6-.012,3.9-.012" transform="translate(-5099.361 -127.911)" fill="#354968"/>
  <path id="Path_4142" data-name="Path 4142" d="M4990.315,231.4a9.779,9.779,0,0,1,1.117-5.8,6.537,6.537,0,0,1,5.22-3.449,46.317,46.317,0,0,1,10.353.223,7.155,7.155,0,0,1,5.474,5.7,15.972,15.972,0,0,1-.285,7.2c-1.271,4.407-4.3,6.889-8.946,7.749a10.367,10.367,0,0,1-8.053-1.624,11.462,11.462,0,0,1-4.857-7.56,12.646,12.646,0,0,1-.023-2.43" transform="translate(-4973.64 -127.832)" fill="#354968"/>
  <path id="Path_4143" data-name="Path 4143" d="M5125.95,234.77c-.184,4.069-5.46,8.182-8.584,8.147-.817-.009-1.269.924-2.1.652-2.674-.875-5.613-1.057-7.724-3.345a11.9,11.9,0,0,1-3.4-8.005c-.057-2.512-.37-5.066,1.54-7.24a7.339,7.339,0,0,1,5.729-2.893c3.292.044,6.615-.439,9.874.322a6.593,6.593,0,0,1,4.968,6.408c-.005,1.765-.017,3.531-.026,5.3-.175.185-.729.21-.278.659" transform="translate(-5036.633 -127.833)" fill="#354968"/>
  <path id="Path_4144" data-name="Path 4144" d="M5162.569,26.038v-3.8c2.574.062,5.156-.376,7.723.243,2.955.712,4.256,2.087,4.276,5.194.063,9.492.017,18.985.035,28.478,0,.732-.159,1.084-.98,1.073-4.444-.064-8.886-.087-13.33-.124a6.457,6.457,0,0,1,.181-1.765c1.545-5.159,1.711-10.5,2.1-15.82a6.726,6.726,0,0,0,6.509-2.952,6.536,6.536,0,0,0,.3-7.128,5.831,5.831,0,0,0-5.844-3.346,7.293,7.293,0,0,1-.97-.05" transform="translate(-5067.736 -17.244)" fill="#cfd6e5"/>
  <path id="Path_4145" data-name="Path 4145" d="M5253.79,48.768c1.846,0,3.693-.033,5.539.007,3.232.071,4.587,1.536,4.659,4.742.068,3.03.15,6.023-1.994,8.526a10.713,10.713,0,0,1-7.386,3.913A10.056,10.056,0,0,1,5244,58.2c-.457-2.128-.973-4.26-.162-6.424a3.991,3.991,0,0,1,3.766-2.937c2.06-.065,4.125-.015,6.187-.015Z" transform="translate(-5113.735 -31.972)" fill="#fbc1b9"/>
  <path id="Path_4146" data-name="Path 4146" d="M5278.067,232.21l-.021,5.816c-1.854.518-2.412,1.723-2.379,3.632.108,6.335.044,12.672.038,19.009,0,1.743-.049,1.754-1.542,1.018a14.589,14.589,0,0,0-7.531-1.463,7.04,7.04,0,0,1,1.225-5.753c.349-.513.87-.995.7-1.733l.293-.343c.6.068.832-.345,1.114-.771a16.052,16.052,0,0,0,2.815-8.67c.089-4.992.028-9.986.027-14.979a8.469,8.469,0,0,0-1.953-5.852c1.188-.01,2.378.027,3.562-.043.984-.059,1.336.294,1.307,1.291-.058,1.942,0,3.887,0,5.83a1.984,1.984,0,0,0,.974,2.056,1.107,1.107,0,0,0,.958.621l.415.335" transform="translate(-5126.485 -127.886)" fill="#354968"/>
  <path id="Path_4147" data-name="Path 4147" d="M5240.6,271.033a11.2,11.2,0,0,1-3.318,6.508c-.655.612-1.435,1.09-2.132,1.66a3.644,3.644,0,0,0-1.491,3.2c.109,2.11-.009,4.231.042,6.346.036,1.516-.66,2.159-2.132,2.131-1.41-.027-2.823-.052-4.232.007-1.3.054-1.844-.392-1.784-1.781.1-2.329.007-4.665.029-7a3.31,3.31,0,0,0-1.8-2.958c-2.333-1.552-4.352-3.413-4.909-6.385-.069-.368-.349-.773,0-1.005.309-.207.684.024,1.008.294,4.417,3.675,9.475,3.978,14.722,2.512a15.929,15.929,0,0,0,6-3.534" transform="translate(-5100.058 -154.982)" fill="#fbc1b9"/>
  <path id="Path_4148" data-name="Path 4148" d="M4990.594,271.18a16.488,16.488,0,0,0,11.146,4.244c4.1-.046,7.48-1.61,10.813-4.165a9.5,9.5,0,0,1-4.322,7.2,4.7,4.7,0,0,0-2.511,4.838c.149,1.831.009,3.685.038,5.529.021,1.4-.613,2.124-2.021,2.131-1.464.007-2.929-.02-4.393.007-1.242.022-1.75-.552-1.725-1.785.044-2.168.007-4.338.013-6.507a3.711,3.711,0,0,0-1.9-3.553c-2.765-1.676-4.384-4.234-5.135-7.937" transform="translate(-4973.824 -155.064)" fill="#fbc1b9"/>
  <path id="Path_4149" data-name="Path 4149" d="M5104.659,271.809c1.423.641,2.329,1.724,3.587,2.283,6,2.669,11.708,2.4,17.086-1.572.242-.179.5-.589.792-.264a1.11,1.11,0,0,1,.054,1.074,10.412,10.412,0,0,1-4.2,5.626,4.215,4.215,0,0,0-2.285,4.3c.167,1.937,0,3.9.047,5.851.033,1.489-.624,2.216-2.118,2.2-1.355-.012-2.713-.054-4.065.011-1.5.072-2.014-.6-1.964-2.048.075-2.166-.015-4.336.031-6.5a3.326,3.326,0,0,0-1.739-3.165,10.951,10.951,0,0,1-5.221-7.793" transform="translate(-5036.948 -155.412)" fill="#fbc1b9"/>
  <path id="Path_4150" data-name="Path 4150" d="M5244.17,27.3c.007-3.5,1.592-5.069,5.128-5.071,3.574,0,7.149-.014,10.724,0a4.319,4.319,0,0,1,4.675,4.643c.01.969.282,2.165-.175,2.853-.666,1-1.595-.255-2.445-.366a60.128,60.128,0,0,0-7.452-.228c-.812,0-1.418-.056-1.717-1.041a2,2,0,0,0-2.17-1.333,2.167,2.167,0,0,0-2.189,1.327A8.661,8.661,0,0,1,5244.595,30c-.437-.1-.41-.443-.417-.757-.012-.649,0-1.3-.008-1.949" transform="translate(-5114.155 -17.288)" fill="#354968"/>
  <path id="Path_4151" data-name="Path 4151" d="M5153.023,60.946c-.384,5.315-.55,10.661-2.1,15.82a6.421,6.421,0,0,0-.181,1.765h-7.7c.443-1.64,1.258-3.4.5-4.975-1.164-2.4.623-3.561,1.7-5,1.721-2.3,3.605-4.479,5.384-6.737a2.184,2.184,0,0,1,2.4-.876" transform="translate(-5058.19 -38.676)" fill="#d9e0ed"/>
  <path id="Path_4152" data-name="Path 4152" d="M5265.5,97.637c-.041,1.9.456,3.906-.69,5.594a3.464,3.464,0,0,1-3.829,1.638c-1.909-.529-2.871-2.136-2.957-4.41-.115-3.011-.123-2.973,2.791-2.34,1.544.336,3.029-.356,4.685-.482" transform="translate(-5121.804 -59.024)" fill="#fbc1b9"/>
  <path id="Path_4153" data-name="Path 4153" d="M5273.834,222.127a8.469,8.469,0,0,1,1.954,5.852c0,4.993.062,9.988-.028,14.979a16.047,16.047,0,0,1-2.815,8.671c-.282.425-.516.838-1.114.77a20.033,20.033,0,0,0,3.13-7.992,11.553,11.553,0,0,0,.125-2.078q0-6.353,0-12.706c-.111-.74-.246-1.47-.31-2.224a5.425,5.425,0,0,0-2.562-4.6.607.607,0,0,0,.618-.72l1,.044" transform="translate(-5129.463 -127.893)" fill="#243247"/>
  <path id="Path_4154" data-name="Path 4154" d="M5094.606,58.156c-.11-1.176.526-1.682,1.808-1.664,1.241.018,2.063.423,2.1,1.787a2.041,2.041,0,0,1-2.073,2.129c-1.305-.055-1.865-.842-1.831-2.252" transform="translate(-5031.378 -36.254)" fill="#fca71e"/>
  <path id="Path_4155" data-name="Path 4155" d="M5126.761,88.6c1.3-.214,1.754.749,1.982,1.76.185.822-1.205,2.238-2,2.139a2.427,2.427,0,0,1-2.157-2.041c-.2-.957.918-1.86,2.179-1.857" transform="translate(-5047.96 -54.004)" fill="#fca71e"/>
  <path id="Path_4156" data-name="Path 4156" d="M5023.788,75.138c.025-1.315.547-1.884,1.792-1.877,1.283.007,2.069.49,2.16,1.8a2.48,2.48,0,0,1-2.258,2.122c-1.346-.081-1.481-1.181-1.694-2.042" transform="translate(-4992.193 -45.534)" fill="#fca71e"/>
  <path id="Path_4157" data-name="Path 4157" d="M5166.556,43.372a2.064,2.064,0,0,1-2.029,2.086,2.327,2.327,0,0,1-2-1.977c-.178-.817,1.209-2.321,1.991-2.127,1,.248,2.126.538,2.039,2.019" transform="translate(-5068.963 -27.866)" fill="#fca71e"/>
  <path id="Path_4158" data-name="Path 4158" d="M4990.721,109.384a2.147,2.147,0,0,1-1.947,2.074c-.869.134-2.22-1.269-2.123-2.218.124-1.214.941-1.628,2.122-1.694,1.341-.075,1.77.694,1.948,1.838" transform="translate(-4971.639 -64.505)" fill="#fca71e"/>
  <path id="Path_4159" data-name="Path 4159" d="M5065.55,94.444c1.342-.246,1.713.778,1.871,1.792a2.113,2.113,0,0,1-2.155,2.084,2.022,2.022,0,0,1-1.868-2.049,1.747,1.747,0,0,1,2.152-1.827" transform="translate(-5014.114 -57.236)" fill="#fca71e"/>
  <path id="Path_4160" data-name="Path 4160" d="M5266.558,290.735c.167.739-.355,1.22-.7,1.733a7.039,7.039,0,0,0-1.226,5.753c-1.209.227-1.5-.2-1.722-1.485-.542-3.2,1.961-4.3,3.651-6" transform="translate(-5124.482 -165.886)" fill="#243247"/>
  <path id="Path_4161" data-name="Path 4161" d="M4962.732,344.045l0,10.1c-.9-.218-.932-.95-.937-1.654q-.026-3.4,0-6.792c.005-.7.037-1.436.935-1.656" transform="translate(-4957.88 -195.388)"/>
  <path id="Path_4162" data-name="Path 4162" d="M5278.373,238.968v12.706c-.7-.12-.6-.665-.6-1.141q0-5.212,0-10.423c0-.477-.1-1.022.6-1.141" transform="translate(-5132.749 -137.237)" fill="#010102"/>
  <path id="Path_4163" data-name="Path 4163" d="M4990.257,351.446c.728-.109,1.009.435,1.336.912-.684.044-1.255-.073-1.336-.912" transform="translate(-4973.637 -199.476)"/>
  <path id="Path_4164" data-name="Path 4164" d="M5273.307,221.975a.607.607,0,0,1-.618.72c.092-.337-.261-1.057.618-.72" transform="translate(-5129.938 -127.785)" fill="#010102"/>
  <path id="Path_4165" data-name="Path 4165" d="M5077.747,317.249a2.442,2.442,0,0,1,1-.989c.086.757-.255,1.081-1,.989" transform="translate(-5022.055 -180.012)"/>
  <path id="Path_4166" data-name="Path 4166" d="M5141.285,126.675c.4.017.561.292.659.629-.861.461-.5-.355-.659-.629" transform="translate(-5057.217 -75.093)" fill="#243247"/>
  <path id="Path_4167" data-name="Path 4167" d="M5290.347,243.251a1.106,1.106,0,0,1-.957-.622c.381,0,.785-.068,1.019.355a.564.564,0,0,1-.062.267" transform="translate(-5139.18 -139.261)" fill="#010102"/>
  <path id="Path_4168" data-name="Path 4168" d="M5152.825,249.81c-.452-.449.1-.474.277-.659.518.477.175.591-.277.659" transform="translate(-5063.507 -142.873)" fill="#010102"/>
  <path id="Path_4169" data-name="Path 4169" d="M5291.534,243.7a.547.547,0,0,0,.061-.267l.647.016c-.007.241-.018.48-.293.586l-.415-.335" transform="translate(-5140.366 -139.706)" fill="#cfd6e5"/>
  <path id="Path_4170" data-name="Path 4170" d="M5100.58,350.964c.029-.454.343-.3.593-.275.009.538-.269.457-.593.275" transform="translate(-5034.691 -199.04)"/>
  <path id="Path_4171" data-name="Path 4171" d="M5054.859,107.219c-.19-.026-.325-.1-.259-.326l.259.326" transform="translate(-5009.236 -64.146)" fill="#010102"/>
  <path id="Path_4172" data-name="Path 4172" d="M5054.114,105.78c-.182-.045-.325-.12-.259-.348l.259.348" transform="translate(-5008.823 -63.337)" fill="#010102"/>
  <path id="Path_4173" data-name="Path 4173" d="M5099,352.47c.022-.188.093-.315.315-.253l-.315.253" transform="translate(-5033.814 -199.902)"/>
  <path id="Path_4174" data-name="Path 4174" d="M5108.6,368.087l.278.261c-.249.079-.332-.019-.278-.261" transform="translate(-5039.123 -208.693)" fill="#3486aa"/>
  <path id="Path_4175" data-name="Path 4175" d="M5041.563,162.945c7.321.02,14.643.053,21.964.041a5.862,5.862,0,0,1,2.177.378,2.122,2.122,0,0,1,1.264,2.653,1.938,1.938,0,0,1-1.743,1.584,21.9,21.9,0,0,1-4.474.286q-13.83.032-27.662.053-14.982-.025-29.964-.049-10.587-.011-21.173,0c-1.91,0-3.273-1.067-3.214-2.491.057-1.384,1.4-2.39,3.218-2.39q29.154,0,58.308,0c.433,0,.866-.038,1.3-.058" transform="translate(-4967.261 -95.166)"/>
  <path id="Path_4176" data-name="Path 4176" d="M5025.145,184.451c1.677.326,1.916,1.6,1.583,2.881a2.439,2.439,0,0,1-2.584,1.735h-9.426c-10.835,0-21.669-.014-32.5.019a3.449,3.449,0,0,1-3.055-1.324c-.362-2.748,1.051-3.642,3.287-3.627,13.609.088,27.218.043,40.826.046a3.287,3.287,0,0,1,1.873.271" transform="translate(-4967.464 -106.892)"/>
</svg>
