<svg id="Group_149" data-name="Group 149" xmlns="http://www.w3.org/2000/svg" width="170.884" height="170.802" viewBox="0 0 170.884 170.802">
  <path id="Path_4105" data-name="Path 4105" d="M530.56,119.66a2.309,2.309,0,0,1,2.132-2.291c3.7-.23,7.445-.379,10.924,1.3a6.943,6.943,0,0,1,3.852,5.668c.181,1.438.828,1.672,1.9,1.67a8.091,8.091,0,0,1,7.348,4.006,8.986,8.986,0,0,1,1.274,4.8c.008,4.114.028,8.228-.014,12.342a2.271,2.271,0,0,0,1.3,2.287,9.218,9.218,0,0,1,1.752,14.064,9.455,9.455,0,0,1-7.175,3.225c-.672-.018-.912.115-.983.885-.576,6.313-2.98,11.677-8.211,15.562-.9.669-.345,1.765-.425,2.661a2.5,2.5,0,0,0,1.861,2.971c7.813,2.9,15.561,5.971,23.335,8.976,6.9,2.667,11.1,7.582,12.523,14.879,1.134,5.816.445,11.685.6,17.527a18.176,18.176,0,0,1-.224,4.615c-.608,2.673-2.405,4.065-4.731,5.041h-92.8a9.158,9.158,0,0,1-4.34-4.34V213.147a30.13,30.13,0,0,1,3.544-8.192,20.112,20.112,0,0,1,9.915-7.492c6.271-2.35,12.487-4.85,18.723-7.292.8-.313,1.572-.694,2.375-1,3.468-1.3,3.549-1.466,3.189-5.082-.074-.743-.572-1.038-.992-1.43a22,22,0,0,1-6.834-11.536,14.363,14.363,0,0,1-.505-3.026c0-1.045-.224-1.37-1.349-1.39a9.617,9.617,0,0,1-9.322-10.04,8.179,8.179,0,0,1,2.161-5.279,2.848,2.848,0,0,0,.828-2.2c-.026-6.117-.08-12.235.01-18.35a11.065,11.065,0,0,1,2.542-6.371,15.751,15.751,0,0,1,4.159-4.434c3.974-2.541,8.323-2.932,12.821-2.678.647.036,1.591.312,1.476,1.386-.066.612.531.8.706,1.247-.145,1.574-1.208,2.153-2.588,2.273a29.479,29.479,0,0,1-2.994.021c-3.307-.052-6.271.75-8.47,3.421-1.4,1.7-2.8,3.629-2.78,5.792.044,5.309-.048,10.619.058,15.927.036,1.83.949,2.971,2.789,3.076a56.178,56.178,0,0,0,8.958-.058c4.267.329,8.541.07,12.81.14,4.513.074,8.09-1.618,10.431-5.607a2.591,2.591,0,0,1,2.979-1.482,2.8,2.8,0,0,1,2.456,2.856,4.415,4.415,0,0,0,1.58,3.3,2.874,2.874,0,0,0,2.965.932c1.075-.44.88-1.535.879-2.473q-.008-6.831-.01-13.663a3.216,3.216,0,0,0-3.338-3.426c-3.939-.072-5.708-1.554-6.779-5.5a3.434,3.434,0,0,0-2.279-2.736,12.312,12.312,0,0,0-4.961-.458c-2.332.184-4.206-.193-5.058-2.67m4,62.8a16.016,16.016,0,0,0,13.3-14.8c.26-3.482.032-7,.168-10.494.063-1.634-.231-2.831-1.9-3.486a2.611,2.611,0,0,1-1.3-1.24c-.741-1.662-1.576-1.075-2.548-.278a14.745,14.745,0,0,1-7.94,3.274c-2.717.3-5.439-.057-8.144.259q-5.153-.049-10.305-.1c-.477,0-.868.036-.884.676-.1,4.077-.49,8.246.018,12.213.835,6.523,4.72,11.272,11.074,13.543a14.563,14.563,0,0,0,8.467.434m-37.405,29.705c2.519-1.025,4.139-.016,4.149,2.651.024,6.23,0,12.459.016,18.689,0,.6-.3,1.367.862,1.36,6.285-.033,12.57-.019,18.855-.01.518,0,.794-.1.849-.714.3-3.315.631-6.626.977-9.936a62.364,62.364,0,0,1,.845-6.977,9.3,9.3,0,0,0-.963-5.981.841.841,0,0,0-1.145-.408c-2.323.952-3.9-.389-5.332-1.814-3.218-3.21-6.336-6.519-9.487-9.8-.473-.492-.987-1.056-1.7-.732-1.744.8-3.649,1.215-5.283,2.262-3.34,1.08-6.717,2.013-9.4,4.534-2.8,2.632-4.738,5.75-4.873,9.57-.214,6.052-.036,12.116-.074,18.175-.009,1.382.572,1.857,1.9,1.827,2.5-.058,5-.078,7.5.01,1.152.041,1.485-.268,1.473-1.451-.063-6.114-.026-12.229-.032-18.344a3.742,3.742,0,0,1,.856-2.916m64.53,11.861h0c0-3.226-.04-6.453.015-9.678.035-2.062,1.106-2.915,3.071-2.518,1.723.349,1.911,1.721,1.913,3.143.009,6.174.031,12.348-.021,18.522-.009,1.1.29,1.417,1.391,1.38,2.5-.084,5.008-.1,7.507,0,1.468.056,2.037-.624,2-1.933-.163-6.042.381-12.1-.292-18.131s-3.965-10.068-9.511-12.328c-3.121-1.272-6.287-2.433-9.41-3.7a1.908,1.908,0,0,0-2.46.476q-4.96,5.272-10.06,10.412a4.461,4.461,0,0,1-4.6,1.3c-.57-.168-.854-.238-1.121.39-.636,1.5-1.453,2.923-1.233,4.654.275,2.166.451,4.354.751,6.506.506,3.617.869,7.246,1.223,10.875.1,1.041.317,1.475,1.436,1.468,6.063-.041,12.125-.052,18.187.01,1.113.011,1.248-.4,1.233-1.341-.051-3.17-.019-6.341-.019-9.511M531.28,199.134c.707-.24,1.859.493,2.168-.6.65-2.291,2.372-3.748,4.042-5.08,1.857-1.482,2.884-2.666,1.862-5.273-.528-1.347-.661-1.553-1.968-1.207a20.817,20.817,0,0,1-12.39-.176c-1.071-.371-1.69-.336-1.508,1.1a3.9,3.9,0,0,1-.366,2.06c-.424.885-.1,1.244.538,1.869,1.926,1.884,4.227,3.476,5.486,5.924.517,1,.906,1.664,2.136,1.376m4.7,35.711c-.162-2.058-.25-3.978-.476-5.882-.385-3.25-.944-6.48-1.262-9.736-.256-2.625-.146-2.635-2.864-2.635h-.668c-1.986,0-2.036.167-2.2,2.153-.208,2.551-.63,5.084-.913,7.631-.272,2.447-.481,4.9-.727,7.351-.082.816.163,1.163,1.083,1.141,2.664-.064,5.331-.023,8.024-.023m15.913-38.523c-2.128-.824-4.045-1.529-5.929-2.315-.665-.278-1.284-.425-1.829.074q-2.8,2.567-5.543,5.2a1.792,1.792,0,0,0-.281,2.479,26.088,26.088,0,0,0,3.6,3.863c.432.451.911.12,1.282-.277,2.826-3.028,5.6-6.1,8.7-9.027m-41.117-.031c1.168,1.143,2.2,2.147,3.226,3.159,1.066,1.054,2.1,2.139,3.193,3.165,1.12,1.053,2.1,3.119,3.328,2.954,1.284-.172,2.383-1.963,3.5-3.11,1.194-1.229,1.181-2.173-.064-3.39-1.776-1.737-3.615-3.408-5.421-5.115a.963.963,0,0,0-1.267-.234c-2.063.908-4.189,1.672-6.493,2.57M531.44,211.6c3.827-.094,2.771.656,4.361-2.878a7.943,7.943,0,0,0,.4-.9,1.016,1.016,0,0,0-.205-1.078c-1.4-1.486-2.532-3.3-5.133-2.671-1.235.3-3.734,1.663-4.2,2.852a1.3,1.3,0,0,0-.067.647c.462,2.892,1.786,4.027,4.674,4.027h.167m27.132-54.424a3.716,3.716,0,0,0-1.509-3.14c-.341-.283-.685-.459-1.036-.208-1.632,1.167-3.9,1.914-3.044,4.737a6.506,6.506,0,0,1,.022,2.155c-.041.749.313.928,1,.937a4.67,4.67,0,0,0,4.567-4.482M509.981,158.3c.471-1.683-.07-2.936-2.371-3.022a2.937,2.937,0,0,1-1.305-.619c-.781-.51-1.11-.212-1.5.548a4.376,4.376,0,0,0,1.717,5.866c2.556,1.395,3.45.891,3.455-1.949,0-.167,0-.333,0-.824" transform="translate(-480.466 -69.05)"/>
  <path id="Path_4106" data-name="Path 4106" d="M700.052,166.857c-6.454,0-12.91-.112-19.359.046-3.434.084-6.944-2.963-7.659-6.357a8.411,8.411,0,0,1,5.73-10.233,11.723,11.723,0,0,1,3.777-.306q18.609-.029,37.219.012a3.476,3.476,0,0,0,2.776-1.105,10.771,10.771,0,0,1,7.387-3.137,12.452,12.452,0,0,1,10.385,3.717,2.1,2.1,0,0,0,1.69.5c2.281,0,4.564-.053,6.843.012,5.132.145,8.389,2.975,8.91,8.1.317,3.117-1.433,5.512-3.845,7.387a6.38,6.38,0,0,1-4.52,1.4c-1.551-.106-3.119.063-4.67-.038a6.919,6.919,0,0,0-6.076,2.112,8.719,8.719,0,0,1-6.074,2.26c-3.113.088-6.116-.058-8.715-2.052-.126-.1-.354-.1-.427-.219-1.454-2.3-3.713-2.129-6.012-2.1-5.785.065-11.572.021-17.357.021Zm34.064-15.651c-4.276-.974-7.077-.673-9.164,2.371-2.714,3.958-2.532,6.447.434,10.232a6.935,6.935,0,0,0,9.085,1.728c3.3-1.345,4.6-4.16,4.562-7.354a7.216,7.216,0,0,0-4.916-6.977m-15.4,3.857c-.427-.025-.757-.061-1.085-.061q-17.77,0-35.54.008a9.347,9.347,0,0,0-1.655.15,3.365,3.365,0,0,0-2.418,4.177c.634,1.879,1.583,2.523,3.861,2.525q17.853.012,35.707,0c.347,0,.744.146,1.042-.174a10.927,10.927,0,0,1,.088-6.621m28.286,6.8c.721,0,1.442.015,2.162,0a3.674,3.674,0,0,0,3.621-3.3,3.762,3.762,0,0,0-3.415-3.526c-1.547-.086-3.1,0-4.654-.049-.723-.023-.871.222-.938.934-.1,1.023.477,1.911.359,2.918-.354,3.022-.338,3.023,2.7,3.023H747" transform="translate(-586.904 -84.826)"/>
  <path id="Path_4107" data-name="Path 4107" d="M738.111,98.834c-3.058,0-6.131.188-9.169-.056a7.878,7.878,0,0,0-6.762,2.379,9,9,0,0,1-5.689,2.424,12.146,12.146,0,0,1-9.328-3.177,4.967,4.967,0,0,0-3.821-1.62c-7.671.1-15.344.054-23.016.013-4.022-.021-8.626-4.8-7.392-9.578,1.337-5.169,3.862-7.281,9.155-7.289q11.008-.017,22.017.012a2.862,2.862,0,0,0,2.174-.845,11.935,11.935,0,0,1,8.027-3.374,12.89,12.89,0,0,1,10.216,3.725,2.251,2.251,0,0,0,1.853.477c7.395,0,14.789-.032,22.183.018,3.532.024,6.407,1.27,8.154,4.618,2.166,4.149.5,8.475-2.866,10.893a6.434,6.434,0,0,1-4.394,1.372c-.165-.014-.333.006-.5.006H738.111M715.287,82.785c-4.689,0-7.9,3.027-7.916,7.438a7.917,7.917,0,0,0,7.721,8.165,8.08,8.08,0,0,0,8.029-7.528c.306-4.031-3.227-8.732-7.834-8.074M739.1,93.826c3.278,0,6.556-.006,9.833,0a3.509,3.509,0,0,0,2.181-.566,3.377,3.377,0,0,0,1.3-4.136,3.2,3.2,0,0,0-3.168-2.173c-3.5-.035-7-.017-10.5-.018-3.222,0-6.444.007-9.667-.005-.78,0-1.283-.117-1.1,1.12a9.677,9.677,0,0,1-.163,4.578c-.324.946.183,1.225,1.118,1.213,3.388-.043,6.777-.017,10.167-.018m-47.776,0q5.171,0,10.342,0c.763,0,1.219.049.882-1.09a8.287,8.287,0,0,1,0-4.593c.34-1.168-.092-1.221-.968-1.218-3.336.013-6.672,0-10.008.006-3.447,0-6.9-.048-10.341.044a3.693,3.693,0,0,0-3.564,3.529,3.823,3.823,0,0,0,3.815,3.31c3.28.02,6.561.005,9.842.01" transform="translate(-586.866 -47.181)"/>
  <path id="Path_4108" data-name="Path 4108" d="M726.75,28.254a2.658,2.658,0,0,1-3.008,2.34c-3.892.013-7.789.117-11.673-.044a6.682,6.682,0,0,0-4.892,1.676c-5.517,4.61-11.977,3.733-16.914-.882a2.454,2.454,0,0,0-1.88-.765c-2.5.048-5.021-.179-7.5.057-3.142.3-6.661-3.089-7.616-5.458a8.468,8.468,0,0,1,8.019-11.511,56.846,56.846,0,0,1,5.834.03,4.787,4.787,0,0,0,3.975-1.413c4.375-4.249,13.248-3.759,17.086.648a2.551,2.551,0,0,0,2.244.726q19.1,0,38.2,0a8.7,8.7,0,0,1,8.638,5.924,8.55,8.55,0,0,1-7.941,11.021c-4.28-.056-8.564-.085-12.842.027a2.777,2.777,0,0,1-3.148-2.379c.806-2.456,1.07-2.659,3.557-2.663,4.11-.006,8.221.025,12.331-.017a3.225,3.225,0,0,0,3.2-3.989c-.5-2.244-1.43-2.917-4.144-2.919q-17.581-.011-35.161,0c-.437,0-.875.038-1.32.059a30.769,30.769,0,0,1,.118,6.865c3.943,0,7.883-.01,11.823,0,1.925.007,2.847.84,3.023,2.66m-24.4,1.019c3.334-1.169,4.711-3.648,4.656-8.384-.029-2.486-2.209-5.1-4.994-5.99a6.39,6.39,0,0,0-3.11-.636c-4.955.289-8.587,5.281-7.252,9.882,1.228,4.233,6.466,7.718,10.7,5.128M686.984,18.649c-2.512.128-4.738-.244-6.926.279a3.7,3.7,0,0,0-2.423,3.342c.027,1.3,1.526,3.219,2.788,3.281,2.121.1,4.252.029,6.434.029a10.23,10.23,0,0,1,.128-6.931" transform="translate(-586.828 -9.347)"/>
  <path id="Path_4109" data-name="Path 4109" d="M577.238,122.672c.852,2.477,2.726,2.854,5.058,2.67a12.3,12.3,0,0,1,4.961.458,3.432,3.432,0,0,1,2.279,2.736c1.07,3.948,2.84,5.43,6.779,5.5a3.215,3.215,0,0,1,3.338,3.426q.011,6.832.01,13.663c0,.938.2,2.033-.879,2.473a2.875,2.875,0,0,1-2.965-.932,4.417,4.417,0,0,1-1.58-3.3,2.8,2.8,0,0,0-2.456-2.856,2.591,2.591,0,0,0-2.978,1.482c-2.342,3.99-5.919,5.682-10.432,5.608-4.27-.07-8.543.188-12.81-.141a17.3,17.3,0,0,1-.7-3.4c.015-4.784-.15-9.574.055-14.349a13.246,13.246,0,0,1,5.157-10.192c1.2-.961,2.807-1.225,3.8-2.453,1.058-.679,2.247-.236,3.366-.393" transform="translate(-527.144 -72.062)" fill="#c464b0"/>
  <path id="Path_4110" data-name="Path 4110" d="M560.173,123.481c-.993,1.228-2.6,1.492-3.8,2.453a13.246,13.246,0,0,0-5.157,10.192c-.2,4.775-.039,9.565-.055,14.349a17.368,17.368,0,0,0,.7,3.4,56.227,56.227,0,0,1-8.958.059c-1.84-.1-2.752-1.247-2.789-3.076-.105-5.308-.014-10.618-.058-15.927-.017-2.163,1.377-4.088,2.78-5.792,2.2-2.671,5.163-3.473,8.471-3.422a29.344,29.344,0,0,0,2.993-.02c1.38-.12,2.444-.7,2.589-2.273l3.281.057" transform="translate(-513.445 -72.478)" fill="#b551a1"/>
  <path id="Path_4111" data-name="Path 4111" d="M775.234,39.8c-.175-1.82-1.1-2.653-3.023-2.659-3.94-.014-7.88,0-11.823,0a30.739,30.739,0,0,0-.118-6.865c.445-.021.882-.059,1.32-.059q17.581,0,35.161,0c2.714,0,3.644.675,4.144,2.919a3.225,3.225,0,0,1-3.2,3.989c-4.11.043-8.221.011-12.331.017-2.488,0-2.751.206-3.558,2.663h-6.574" transform="translate(-635.313 -20.89)" fill="#c9f0fe"/>
  <path id="Path_4112" data-name="Path 4112" d="M634.025,324.775c0,3.17-.032,6.341.019,9.511.015.943-.119,1.352-1.232,1.341-6.062-.062-12.125-.051-18.188-.01-1.119.008-1.334-.427-1.436-1.468-.354-3.629-.717-7.258-1.223-10.875-.3-2.152-.476-4.34-.751-6.506-.22-1.732.6-3.158,1.234-4.654.267-.627.551-.558,1.121-.39a4.46,4.46,0,0,0,4.6-1.3q5.1-5.139,10.059-10.412a1.909,1.909,0,0,1,2.46-.476c3.124,1.265,6.289,2.426,9.41,3.7,5.546,2.26,8.837,6.285,9.511,12.328s.129,12.088.292,18.131c.035,1.309-.533,1.989-2,1.933-2.5-.1-5.007-.084-7.507,0-1.1.037-1.4-.282-1.391-1.38.052-6.174.03-12.348.021-18.521,0-1.422-.19-2.795-1.913-3.143-1.966-.4-3.037.456-3.072,2.518-.055,3.225-.015,6.451-.015,9.678Z" transform="translate(-552.803 -169.803)" fill="#c9f0fe"/>
  <path id="Path_4113" data-name="Path 4113" d="M520.052,301.34c1.634-1.047,3.539-1.465,5.283-2.262.709-.324,1.222.24,1.7.732,3.151,3.276,6.269,6.586,9.487,9.8,1.429,1.425,3.01,2.766,5.332,1.814a.841.841,0,0,1,1.145.408,9.3,9.3,0,0,1,.963,5.981,62.369,62.369,0,0,0-.845,6.976c-.346,3.31-.679,6.622-.977,9.936-.055.609-.331.715-.849.714-6.285-.009-12.57-.023-18.855.01-1.162.006-.86-.765-.861-1.36-.013-6.23.008-12.459-.016-18.689-.01-2.667-1.63-3.675-4.149-2.651-.5-.436-.323-1.025-.323-1.556,0-3.577,1.318-6.765,2.97-9.848" transform="translate(-500.713 -169.633)" fill="#c9f0fe"/>
  <path id="Path_4114" data-name="Path 4114" d="M582.854,197.993c2.706-.316,5.427.043,8.144-.259a14.744,14.744,0,0,0,7.94-3.273c.971-.8,1.807-1.384,2.548.278a2.61,2.61,0,0,0,1.3,1.24c1.667.655,1.961,1.852,1.9,3.486-.136,3.495.092,7.011-.168,10.494a16.017,16.017,0,0,1-13.3,14.8,7.546,7.546,0,0,0-.986-1.1c-5.034-3.818-7.332-8.959-7.374-15.189-.024-3.491-.008-6.983-.009-10.474" transform="translate(-537.127 -111.355)" fill="#ffcebe"/>
  <path id="Path_4115" data-name="Path 4115" d="M505.948,304.262c-1.651,3.083-2.967,6.271-2.97,9.848,0,.531-.177,1.12.323,1.556a3.743,3.743,0,0,0-.856,2.916c.006,6.115-.031,12.23.032,18.344.012,1.183-.321,1.492-1.473,1.452-2.5-.088-5-.068-7.5-.011-1.329.031-1.91-.444-1.9-1.827.038-6.058-.141-12.124.073-18.175.135-3.82,2.071-6.938,4.874-9.57,2.684-2.52,6.062-3.453,9.4-4.533" transform="translate(-486.609 -172.555)" fill="#9be8fd"/>
  <path id="Path_4116" data-name="Path 4116" d="M568.7,203.221c0,3.491-.014,6.983.009,10.474.042,6.23,2.34,11.371,7.374,15.189a7.549,7.549,0,0,1,.986,1.1,14.567,14.567,0,0,1-8.467-.434c-6.355-2.271-10.239-7.02-11.074-13.543-.508-3.968-.123-8.136-.018-12.213.017-.64.407-.682.884-.677q5.152.054,10.305.1" transform="translate(-522.97 -116.583)" fill="#ffb1a0"/>
  <path id="Path_4117" data-name="Path 4117" d="M583.9,285.1c-1.23.288-1.619-.372-2.136-1.376-1.259-2.449-3.561-4.041-5.486-5.925-.639-.625-.962-.984-.539-1.869a3.894,3.894,0,0,0,.366-2.06c-.182-1.438.437-1.473,1.508-1.1a20.808,20.808,0,0,0,12.391.176c1.307-.346,1.44-.14,1.968,1.207,1.022,2.607,0,3.791-1.861,5.272-1.671,1.333-3.393,2.789-4.043,5.081-.309,1.089-1.461.356-2.168.6" transform="translate(-533.085 -155.016)" fill="#ffb1a0"/>
  <path id="Path_4118" data-name="Path 4118" d="M593.461,357.972c-2.693,0-5.36-.042-8.024.023-.92.022-1.165-.325-1.083-1.141.246-2.45.455-4.9.727-7.351.284-2.546.706-5.08.913-7.631.161-1.986.213-2.149,2.2-2.153h.667c2.718,0,2.608.011,2.864,2.635.318,3.255.877,6.486,1.262,9.736.226,1.9.314,3.824.475,5.882" transform="translate(-537.95 -192.177)" fill="#ff5ca8"/>
  <path id="Path_4119" data-name="Path 4119" d="M623.109,291.145c-3.1,2.925-5.873,6-8.7,9.028-.371.4-.849.727-1.282.276a26.125,26.125,0,0,1-3.6-3.863,1.792,1.792,0,0,1,.281-2.479q2.73-2.644,5.543-5.2c.545-.5,1.163-.351,1.829-.074,1.884.786,3.8,1.492,5.928,2.315" transform="translate(-551.685 -163.874)" fill="#9be8fd"/>
  <path id="Path_4120" data-name="Path 4120" d="M548.329,290.905c2.3-.9,4.429-1.661,6.493-2.569a.963.963,0,0,1,1.267.234c1.805,1.707,3.645,3.378,5.421,5.115,1.245,1.217,1.258,2.16.063,3.39-1.114,1.147-2.213,2.938-3.5,3.11-1.229.165-2.209-1.9-3.328-2.954-1.091-1.027-2.127-2.112-3.193-3.165-1.025-1.012-2.058-2.016-3.226-3.16" transform="translate(-518.022 -163.665)" fill="#9be8fd"/>
  <path id="Path_4121" data-name="Path 4121" d="M588.591,319.058h-.167c-2.887,0-4.212-1.136-4.674-4.027a1.3,1.3,0,0,1,.067-.647c.461-1.189,2.961-2.555,4.2-2.851,2.6-.625,3.736,1.184,5.133,2.671a1.016,1.016,0,0,1,.205,1.078,7.918,7.918,0,0,1-.4.9c-1.59,3.535-.534,2.784-4.36,2.878" transform="translate(-537.616 -176.509)" fill="#ff5ca8"/>
  <path id="Path_4122" data-name="Path 4122" d="M648.205,202.378a4.671,4.671,0,0,1-4.567,4.482c-.687-.009-1.041-.188-1-.938a6.5,6.5,0,0,0-.022-2.154c-.854-2.823,1.411-3.57,3.044-4.737.351-.251.695-.075,1.036.208a3.719,3.719,0,0,1,1.509,3.14" transform="translate(-570.098 -114.253)" fill="#ffb1a0"/>
  <path id="Path_4123" data-name="Path 4123" d="M539.527,204.36c0,.491,0,.658,0,.824,0,2.839-.9,3.344-3.455,1.949a4.376,4.376,0,0,1-1.717-5.866c.386-.761.715-1.058,1.5-.548a2.937,2.937,0,0,0,1.305.619c2.3.086,2.842,1.339,2.37,3.022" transform="translate(-510.012 -115.114)" fill="#ffb1a0"/>
  <path id="Path_4124" data-name="Path 4124" d="M725.009,166.545a10.932,10.932,0,0,0-.088,6.621c-.3.32-.7.173-1.042.174q-17.853.013-35.707,0c-2.277,0-3.226-.646-3.86-2.525a3.365,3.365,0,0,1,2.418-4.177,9.385,9.385,0,0,1,1.655-.15q17.769-.015,35.539-.008c.329,0,.658.036,1.086.061" transform="translate(-593.196 -96.307)" fill="#fff1af"/>
  <path id="Path_4125" data-name="Path 4125" d="M796.722,171.7a6.935,6.935,0,0,1-9.085-1.728c-2.965-3.785-3.148-6.275-.434-10.232,2.087-3.044,4.888-3.345,9.164-2.371a10.151,10.151,0,0,0-2.626,9.27c.42,1.961,1.034,3.938,2.981,5.061" transform="translate(-649.155 -90.99)" fill="#fac600"/>
  <path id="Path_4126" data-name="Path 4126" d="M806.9,172.316c-1.947-1.123-2.561-3.1-2.981-5.061a10.151,10.151,0,0,1,2.626-9.27,7.216,7.216,0,0,1,4.916,6.977c.042,3.194-1.261,6.009-4.561,7.354" transform="translate(-659.33 -91.604)" fill="#fedf2e"/>
  <path id="Path_4127" data-name="Path 4127" d="M834.947,173.332h-.166c-3.036,0-3.052,0-2.7-3.023.118-1.008-.456-1.895-.359-2.918.067-.712.214-.957.938-.934,1.551.05,3.107-.037,4.654.049a3.762,3.762,0,0,1,3.415,3.526,3.674,3.674,0,0,1-3.621,3.3c-.72.018-1.441,0-2.162,0" transform="translate(-674.849 -96.292)" fill="#c9f0fe"/>
  <path id="Path_4128" data-name="Path 4128" d="M758.216,89c4.607-.658,8.14,4.043,7.834,8.074a8.081,8.081,0,0,1-8.029,7.529,7.917,7.917,0,0,1-7.721-8.165c.02-4.41,3.227-7.437,7.916-7.438" transform="translate(-629.794 -53.39)" fill="#00abf1"/>
  <path id="Path_4129" data-name="Path 4129" d="M807.239,105.247c-3.389,0-6.778-.026-10.167.017-.934.012-1.442-.268-1.118-1.213a9.677,9.677,0,0,0,.163-4.578c-.179-1.238.324-1.124,1.1-1.121,3.222.013,6.444,0,9.666.006,3.5,0,7-.017,10.5.018a3.2,3.2,0,0,1,3.168,2.172,3.378,3.378,0,0,1-1.3,4.137,3.509,3.509,0,0,1-2.181.566c-3.278-.01-6.556,0-9.833,0" transform="translate(-655.006 -58.6)" fill="#c9f0fe"/>
  <path id="Path_4130" data-name="Path 4130" d="M697.44,105.237c-3.281,0-6.561.015-9.841-.005a3.823,3.823,0,0,1-3.815-3.31,3.694,3.694,0,0,1,3.564-3.529c3.445-.091,6.894-.04,10.341-.044,3.336,0,6.672.007,10.008-.005.876,0,1.308.05.968,1.218a8.287,8.287,0,0,0,0,4.593c.337,1.139-.119,1.091-.882,1.09-3.447-.006-6.895,0-10.342-.007" transform="translate(-592.983 -58.595)" fill="#62ddfc"/>
  <path id="Path_4131" data-name="Path 4131" d="M725.531,35.351c-4.234,2.589-9.472-.9-10.7-5.129-1.335-4.6,2.3-9.592,7.253-9.882a6.4,6.4,0,0,1,3.11.636c0,.489-.35.777-.615,1.129a10.172,10.172,0,0,0,.952,13.245" transform="translate(-610.012 -15.425)" fill="#fe3c97"/>
  <path id="Path_4132" data-name="Path 4132" d="M735.465,36.152a10.172,10.172,0,0,1-.952-13.245c.264-.353.613-.641.615-1.129,2.785.89,4.965,3.5,4.994,5.99.054,4.737-1.322,7.215-4.656,8.385" transform="translate(-619.946 -16.226)" fill="#ff5ca8"/>
  <path id="Path_4133" data-name="Path 4133" d="M693.148,30.164a10.23,10.23,0,0,0-.128,6.931c-2.182,0-4.312.076-6.434-.029-1.262-.062-2.76-1.977-2.788-3.281a3.7,3.7,0,0,1,2.423-3.342c2.188-.523,4.415-.151,6.926-.279" transform="translate(-592.992 -20.861)" fill="#ffcebe"/>
</svg>
