<svg id="Group_150" data-name="Group 150" xmlns="http://www.w3.org/2000/svg" width="171.092" height="169.084" viewBox="0 0 171.092 169.084">
  <path id="Path_4033" data-name="Path 4033" d="M976.548,170.416V21.388c.09-.054.246-.1.26-.165,1.319-6.333,6.643-9.855,12.567-9.856q72.66-.01,145.32.008a13.086,13.086,0,0,1,5.205,1.115c5.6,2.429,7.706,7.089,7.711,12.806q.064,70.57-.01,141.139a13.621,13.621,0,0,1-1.7,7.5c-2.276,3.579-5.283,6.445-9.7,6.452q-74.162.123-148.326.006c-3.375,0-6.107-1.8-8.361-4.359a19.3,19.3,0,0,1-2.961-5.619m76.89-141.688-.044.049-.271.288-.05.061c-.258.157-.615.211-.634.614l-3.732,4.008-.3.323-.03.033-.288.306-.041.045-.279.291-.044.055c-.259.156-.608.222-.631.619l-4.058,4.357c-.759.652-.759.669.007.941h.694c.277.017.555.047.832.048q48.827,0,97.654-.011c.449,0,1.013.276,1.349-.308.024-5.845.1-11.691.052-17.535-.031-3.632-4-7.541-7.63-7.544q-34.493-.027-68.987,0a1.928,1.928,0,0,0-1.646.56c-1.742,1.946-3.532,3.848-5.3,5.767l-.3.341-.022.025-.3.311-.028.029-.3.307-.034.038-.281.3-.042.052c-.259.16-.608.229-.627.628l-3.737,3.991-.3.336-.022.025-.3.313-.032.035-.287.3M980.61,40.447c.459.636,1.127.3,1.682.3q20.44.034,40.881.015c4.5,0,9.007-.039,13.511-.06a7.887,7.887,0,0,0,2.287-2.14c2.208-2.342,4.349-4.749,6.562-7.087q7.273-7.69,14.588-15.34c.177-.187.447-.359.288-.7a1.689,1.689,0,0,0-.32-.062c-23.984-.01-47.968-.068-71.952.029a7.863,7.863,0,0,0-7.546,7.516c-.185,5.835,0,11.682.019,17.524m.012,128.292a8.3,8.3,0,0,0,8.279,7.7q72.994-.019,145.989.037c2.475,0,4.215-1.251,5.977-2.521,2.052-1.479,2.55-3.833,2.814-6.212,1.36-.254.932-1.343.932-2.144q.026-59.349.015-118.7c0-.334,0-.668,0-1a.981.981,0,0,0-.966-1.121c-.583-.495-1.276-.232-1.908-.233q-53.453-.023-106.906-.013-26.288,0-52.577.014c-.576,0-1.219-.263-1.741.232-1.464.279-.95,1.455-.95,2.288q-.034,59.151-.019,118.3c0,.445-.006.89.008,1.335a.972.972,0,0,0,1.049,1.04c.388.161.273.437.163.712l-.153.284" transform="translate(-976.548 -11.363)"/>
  <path id="Path_4034" data-name="Path 4034" d="M985.455,85.812c.522-.5,1.165-.232,1.741-.232q26.288-.026,52.577-.014,53.453,0,106.906.013c.633,0,1.326-.262,1.908.233-.011.612-.031,1.224-.031,1.836q0,59.309.025,118.617c0,.833-.416,1.684.029,2.512-.265,2.379-.762,4.733-2.814,6.212-1.762,1.27-3.5,2.524-5.977,2.521q-72.994-.09-145.989-.037a8.3,8.3,0,0,1-8.279-7.7l.153-.284c.111-.275.226-.551-.162-.712-.018-.666-.053-1.332-.053-2q0-55.395,0-110.79c0-3.392-.02-6.785-.031-10.176m99.277,68.434c-.029-.64-.395-.363-.7-.256-2.282-.657-4.557-1.342-6.848-1.966-3.306-.9-6.626-1.745-9.936-2.631q-12.01-3.213-24.016-6.443c-2.859-.768-5.715-1.547-8.669-2.346a3.351,3.351,0,0,1,1.806-1.2,1.849,1.849,0,0,0,1.041-2.808c-.632-1.32-1.785-1.233-2.907-.63-2.027,1.089-4.074,2.15-6.026,3.364a2.033,2.033,0,0,0-.83,3.056c1.3,2.123,2.6,4.254,3.855,6.4a1.684,1.684,0,0,0,2.238.74,1.858,1.858,0,0,0,1.173-2.287,19.368,19.368,0,0,0-.853-2.1l.347-.475c6.978,1.875,13.952,3.763,20.935,5.619,4.383,1.165,8.766,2.34,13.174,3.4,3.195.769,6.4,1.552,9.547,2.438a88.562,88.562,0,0,1,8.952,2.575c1.384.553,2.068-.157,2.574-1.08.658-1.2-.138-1.907-1.186-2.381-.03-.638-.393-.359-.694-.253a8.3,8.3,0,0,0-2.981-.744m30.394-22.406c-5.453.014-10.906.046-16.359.028-1.206,0-2.089.43-2.3,1.61a7.872,7.872,0,0,0,0,2.826c.975,5.1,3.013,9.641,6.98,13.178a20.332,20.332,0,0,0,12.939,5.444,21.123,21.123,0,0,0,14.963-5.324,18.53,18.53,0,0,0,4.569-5.652l.265-.361a22.174,22.174,0,0,0,1.713-14.885c-2.137-8.863-10.35-15.764-19.5-15.823-2.885-.019-2.907.025-2.917,3.013q-.024,7.843-.057,15.687l-.3.26m-108.6,6.74.971-.665.625.047c.014.611.04,1.223.04,1.835q0,28.137,0,56.275c0,2.629.1,2.719,2.737,2.72q25.466,0,50.933,0,17.116.007,34.232.039c0,.171,0,.343,0,.514a10.5,10.5,0,0,0-2.417,2.659c-.617,1.241.317,1.854,1.029,2.446a1.527,1.527,0,0,0,2.21-.055c1.669-2.23,3.859-3.938,5.724-5.966,1.172-1.274,1.273-2.266-.024-3.35-1.828-1.528-3.519-3.188-5.188-4.879a3.478,3.478,0,0,0-.6-.571c-.854-.518-1.718-1.024-2.66-.135s-.7,1.828-.05,2.722c.595.825,1.265,1.6,2.045,2.57-1.993,0-3.8-.078-5.6.027-1.21.071-1.595-.225-1.573-1.519.085-5.167.049-10.335.03-15.5-.011-3.162-.072-6.325-.11-9.487.084-.012.234-.007.243-.041.065-.232-.125-.3-.284-.375a2.5,2.5,0,0,0-2.085-1.258c-4.11.04-8.22.033-12.33.014a1.56,1.56,0,0,0-1.8,1.666q-.044.831-.043,1.664,0,11.664.009,23.328c0,.916.02,1.57-1.265,1.513-2.77-.123-5.548-.081-8.323-.106l-.265-.3c-.019-.5-.055-1-.055-1.5q0-15.359,0-30.719c0-2.3-.59-2.879-2.925-2.881q-5.342-.005-10.685,0c-2.158,0-2.749.593-2.749,2.672,0,10.406-.027,20.813.035,31.219.008,1.336-.366,1.672-1.646,1.61-2.165-.106-4.344-.109-6.509,0-1.291.065-1.645-.289-1.639-1.614.056-11.909.033-23.818.033-35.727a4.887,4.887,0,0,0-.023-1.33c-.348-1.182-.572-2.524-2.269-2.521-4.063.005-8.125-.012-12.187.013-.908.005-1.748.242-1.946,1.342-.258.047-.516.1-.555.426-.049.411.224.525.555.578q0,19.214,0,38.43l-.269.3c-2.111.026-4.227-.021-6.332.106-1.217.073-1.439-.355-1.432-1.485.049-8.232.026-16.466.026-24.7v-31c.08.008.153-.007.183.022.722.689,1.461,1.36,2.15,2.081a1.342,1.342,0,0,0,1.883.273c1.354-.745,2.152-1.977.64-3.457-1.867-1.828-3.769-3.629-5.5-5.578-.68-.764-1.231-.937-2.027-.488-2.992,1.689-4.921,4.463-7.033,7.032-.649.79-.3,1.593.426,2.321s1.4.424,2.077.067a9.856,9.856,0,0,0,1.289-.966l.277-.359m94.237-9.662c3.114,0,6.229.025,9.343-.012,1.237-.015,2.4-.426,2.413-1.886.058-6.284.086-12.568.006-18.851-.026-2.036-.5-2.3-2.5-2.316a15.242,15.242,0,0,0-2.088.306,20.168,20.168,0,0,0-15.606,10.359,18.8,18.8,0,0,0-2.609,10.5c.06,1.277.554,1.975,2.028,1.927,3-.1,6.005-.029,9.009-.029m24.059,43.1q6.59,0,13.18,0c1.115,0,2.243-.256,2.458-1.44a2.215,2.215,0,0,0-2.381-2.5c-8.676-.032-17.351-.018-26.027-.007-1.329,0-2.326.608-2.219,2.027a1.967,1.967,0,0,0,2.31,1.946c4.225-.087,8.452-.03,12.679-.03m-.024,12.354v.009c4.4,0,8.794.009,13.191,0,1.689-.005,2.757-1.259,2.2-2.644a2.432,2.432,0,0,0-2.567-1.367q-12.606.016-25.213.008a3.617,3.617,0,0,0-1,.05,1.866,1.866,0,0,0-1.569,2.142c.176.932.435,1.894,1.936,1.851,4.338-.124,8.681-.044,13.023-.044m-116.215-69.551c4.334,0,8.667.03,13-.019,1.2-.013,2.36-.284,2.333-1.921-.02-1.253-.861-2-2.433-2.007q-12.917-.018-25.834,0a1.866,1.866,0,0,0-1.377.362,2.089,2.089,0,0,0-.7,2.389,2.065,2.065,0,0,0,2.173,1.193q6.417.007,12.834.005m.161-16.332c-4.227,0-8.453.024-12.679-.014-1.375-.012-2.453.291-2.545,1.873-.1,1.67,1.033,1.962,2.385,1.961q12.846-.009,25.692,0c1.327,0,2.327-.347,2.307-1.892-.019-1.5-.966-1.943-2.313-1.938-4.282.017-8.564.006-12.846.006" transform="translate(-981.477 -52.396)" fill="#deeeff"/>
  <path id="Path_4035" data-name="Path 4035" d="M1126.132,45.67l-.694,0q0-.471-.007-.941l4.058-4.357a.594.594,0,0,0,.631-.62l.043-.054.28-.292.041-.045.288-.306.03-.033.3-.324,3.732-4.008a.594.594,0,0,0,.634-.614l.049-.061.271-.288.044-.049.287-.3.032-.035.3-.313.022-.025.3-.336,3.737-3.991a.578.578,0,0,0,.627-.628l.042-.051.281-.3.034-.038.3-.307.029-.029.3-.311.022-.025.3-.341c1.772-1.919,3.562-3.821,5.3-5.767a1.927,1.927,0,0,1,1.646-.561q34.493,0,68.987,0c3.632,0,7.6,3.913,7.63,7.544.049,5.845-.028,11.69-.052,17.535q-49.209-.006-98.418-.006c-.481,0-1.012-.157-1.417.277m28.011-10.954c.515.492,1.159.3,1.75.3q28.525.014,57.049,0c.589,0,1.236.194,1.744-.313,1.866-.991,1.844-2.227-.066-3.727-.518-.5-1.164-.276-1.751-.276q-28.454-.018-56.908,0c-.586,0-1.233-.22-1.752.273-.878.423-1.756.974-1.627,2.046a1.762,1.762,0,0,0,1.561,1.7" transform="translate(-1058.941 -16.315)" fill="#2a428c"/>
  <path id="Path_4036" data-name="Path 4036" d="M985.519,45.391c-.024-5.842-.2-11.689-.018-17.524a7.862,7.862,0,0,1,7.546-7.516c23.983-.1,47.967-.039,71.952-.029a1.6,1.6,0,0,1,.322.064c.157.336-.113.509-.29.7q-7.293,7.672-14.588,15.34c-2.212,2.339-4.353,4.745-6.561,7.087a7.89,7.89,0,0,1-2.288,2.14c-.414-.408-.941-.265-1.425-.265q-27.324,0-54.649.007m25.705-7.042a13.958,13.958,0,0,0,6.643.006,2.2,2.2,0,0,0,2.032-2.519,8.512,8.512,0,0,1,.222-2.109c.6-2.513-.5-5.48-2.262-6.434a16.01,16.01,0,0,0-6.626-.009c-.9.414-1.911.688-2.355,1.728a14.253,14.253,0,0,0-.034,6.672c-.025,1.619.568,2.686,2.379,2.665M990.1,36.325c.408,1.338,1.157,2.224,2.71,2.04a13.351,13.351,0,0,0,6.362,0,2.249,2.249,0,0,0,2.2-2.261,23.717,23.717,0,0,0-.007-6.079,3.475,3.475,0,0,0-1.9-2.722,16.962,16.962,0,0,0-6.946-.013,4.694,4.694,0,0,0-2.4,1.721,18.523,18.523,0,0,0-.024,7.317m46.465-9.033a15.887,15.887,0,0,0-6.627,0c-1.443.482-2.649,1.2-2.691,2.94a28.7,28.7,0,0,0,.034,4.659c.314,2.231.318,3.609,2.934,3.485a13.127,13.127,0,0,0,6.35-.026,2.281,2.281,0,0,0,2.033-2.54c0-1.706-.019-3.411.005-5.116a3.2,3.2,0,0,0-2.039-3.4" transform="translate(-981.456 -16.307)" fill="#2b428c"/>
  <path id="Path_4037" data-name="Path 4037" d="M1350.536,209.151c-.445-.828-.029-1.678-.029-2.512q-.046-59.308-.026-118.617c0-.612.021-1.224.031-1.836a.981.981,0,0,1,.966,1.121c0,.334,0,.668,0,1q0,59.349-.015,118.7c0,.8.428,1.89-.932,2.144" transform="translate(-1183.403 -52.771)" fill="#000101"/>
  <path id="Path_4038" data-name="Path 4038" d="M984.169,86.186c.011,3.392.03,6.784.03,10.176q0,55.395,0,110.79c0,.666.034,1.332.053,2a.972.972,0,0,1-1.049-1.04c-.015-.445-.008-.89-.008-1.335q0-59.151.019-118.3c0-.834-.513-2.009.951-2.288" transform="translate(-980.192 -52.771)" fill="#000101"/>
  <path id="Path_4039" data-name="Path 4039" d="M1127,76.716c.4-.435.936-.277,1.417-.277q49.209,0,98.418.006c-.336.584-.9.308-1.349.308q-48.827.022-97.654.011c-.277,0-.555-.031-.832-.048" transform="translate(-1059.811 -47.361)" fill="#566591"/>
  <path id="Path_4040" data-name="Path 4040" d="M985.644,76.448q27.324-.005,54.648-.007c.484,0,1.01-.142,1.425.265-4.5.021-9.007.058-13.511.061q-20.44.012-40.88-.015c-.555,0-1.222.332-1.682-.3" transform="translate(-981.582 -47.365)" fill="#566591"/>
  <path id="Path_4041" data-name="Path 4041" d="M1124.728,74.989q0,.471.007.941c-.766-.272-.766-.289-.007-.941" transform="translate(-1058.237 -46.574)" fill="#2b428c"/>
  <path id="Path_4042" data-name="Path 4042" d="M1135.149,63.846a.594.594,0,0,1-.631.619c.023-.4.371-.463.631-.619" transform="translate(-1063.97 -40.408)" fill="#2b428c"/>
  <path id="Path_4043" data-name="Path 4043" d="M1159.829,37.64a.578.578,0,0,1-.628.628c.02-.4.369-.468.628-.628" transform="translate(-1077.63 -25.905)" fill="#2b428c"/>
  <path id="Path_4044" data-name="Path 4044" d="M1147.118,51.14a.593.593,0,0,1-.634.614c.019-.4.376-.457.634-.614" transform="translate(-1070.592 -33.376)" fill="#2b428c"/>
  <path id="Path_4045" data-name="Path 4045" d="M1160.98,36.854l-.281.3.281-.3" transform="translate(-1078.459 -25.47)" fill="#2b428c"/>
  <path id="Path_4046" data-name="Path 4046" d="M1136.306,63.071l-.279.292.279-.292" transform="translate(-1064.805 -39.979)" fill="#2b428c"/>
  <path id="Path_4047" data-name="Path 4047" d="M1149.732,48.792l-.3.313.3-.313" transform="translate(-1072.224 -32.077)" fill="#2b428c"/>
  <path id="Path_4048" data-name="Path 4048" d="M1150.456,47.984l-.305.336.305-.336" transform="translate(-1072.621 -31.63)" fill="#2b428c"/>
  <path id="Path_4049" data-name="Path 4049" d="M1137.032,62.286l-.288.306.288-.306" transform="translate(-1065.202 -39.544)" fill="#2b428c"/>
  <path id="Path_4050" data-name="Path 4050" d="M1137.756,61.488l-.3.323.3-.323" transform="translate(-1065.596 -39.103)" fill="#2b428c"/>
  <path id="Path_4051" data-name="Path 4051" d="M1163.17,34.5l-.3.341.3-.341" transform="translate(-1079.659 -24.168)" fill="#2b428c"/>
  <path id="Path_4052" data-name="Path 4052" d="M1161.7,36.082l-.3.307.3-.307" transform="translate(-1078.849 -25.043)" fill="#2b428c"/>
  <path id="Path_4053" data-name="Path 4053" d="M1148.285,50.357l-.271.288.271-.288" transform="translate(-1071.439 -32.943)" fill="#2b428c"/>
  <path id="Path_4054" data-name="Path 4054" d="M1162.441,35.321l-.3.311.3-.311" transform="translate(-1079.255 -24.622)" fill="#2b428c"/>
  <path id="Path_4055" data-name="Path 4055" d="M1149.005,49.571l-.287.3.287-.3" transform="translate(-1071.828 -32.508)" fill="#2b428c"/>
  <path id="Path_4056" data-name="Path 4056" d="M985.824,363.121l-.153.284.153-.284" transform="translate(-981.597 -206.029)" fill="#dcecfc"/>
  <path id="Path_4057" data-name="Path 4057" d="M1028.149,193.34l-.971.665c-.191.044-.332.126-.277.359a9.819,9.819,0,0,1-1.289.965c-.673.357-1.34.672-2.077-.067s-1.075-1.531-.426-2.321c2.111-2.569,4.041-5.343,7.032-7.032.8-.45,1.347-.276,2.028.488,1.735,1.948,3.637,3.75,5.5,5.577,1.512,1.48.714,2.711-.64,3.457a1.342,1.342,0,0,1-1.883-.273c-.688-.721-1.428-1.392-2.149-2.081-.031-.029-.1-.014-.183-.023v31c0,8.233.023,16.466-.026,24.7-.007,1.129.214,1.558,1.432,1.484,2.105-.127,4.221-.08,6.332-.106.255.05.318-.073.268-.3q0-19.214,0-38.43,0-.5,0-1c.2-1.1,1.037-1.336,1.945-1.342,4.063-.025,8.125-.008,12.188-.012,1.7,0,1.921,1.339,2.269,2.521a4.892,4.892,0,0,1,.023,1.33c0,11.909.024,23.818-.033,35.727-.006,1.325.348,1.68,1.639,1.615,2.165-.11,4.343-.107,6.508,0,1.28.063,1.654-.273,1.646-1.61-.062-10.406-.034-20.813-.035-31.219,0-2.079.591-2.667,2.749-2.672q5.342-.011,10.685,0c2.334,0,2.924.581,2.925,2.882q0,15.359,0,30.719c0,.5.036,1,.055,1.5-.047.22,0,.354.265.3,2.775.025,5.552-.017,8.323.106,1.285.057,1.267-.6,1.265-1.513q-.028-11.664-.009-23.328,0-.833.043-1.664a1.56,1.56,0,0,1,1.8-1.666c4.11.02,8.221.026,12.331-.014a2.5,2.5,0,0,1,2.085,1.258c-.13.152-.14.293.04.415.039,3.162.1,6.325.111,9.487.019,5.168.055,10.337-.03,15.5-.021,1.293.364,1.589,1.573,1.518,1.8-.1,3.611-.027,5.6-.027-.781-.974-1.45-1.746-2.046-2.57-.646-.895-.9-1.823.05-2.723s1.806-.383,2.66.136a3.463,3.463,0,0,1,.6.571c1.669,1.69,3.359,3.35,5.188,4.879,1.3,1.084,1.2,2.076.024,3.35-1.865,2.028-4.055,3.735-5.724,5.965a1.526,1.526,0,0,1-2.21.055c-.712-.591-1.647-1.205-1.029-2.446a10.488,10.488,0,0,1,2.417-2.659.29.29,0,0,0,.311-.37c-.009-.062-.2-.1-.312-.144q-17.116-.02-34.231-.039-25.467-.011-50.933,0c-2.634,0-2.737-.09-2.737-2.72q-.008-28.137,0-56.275c0-.611-.026-1.223-.04-1.834-.054-.113-.085-.3-.167-.324-.219-.068-.376.064-.457.277m69.216,56.783,8.027.006c.372-.087.324-.392.324-.656,0-7.516-.01-15.031.021-22.547,0-.916-.352-1.131-1.183-1.113-2,.042-4.013.1-6.011-.016-1.323-.075-1.551.443-1.542,1.635.051,7.125.018,14.252.043,21.377,0,.433-.325,1.014.322,1.313m-18.042.024c.606-.392.339-1.008.34-1.518q.026-13.81,0-27.621c0-.528.208-1.117-.264-1.576-.111-.289-.084-.671-.568-.669-2.394.007-4.788.015-7.182-.01-.808-.008-.689.528-.689,1.014q0,14.7-.017,29.4c0,.8.225,1.055,1.03,1.037,2.448-.057,4.9-.04,7.347-.051m-26.09-37.068c-.327-.579-.888-.346-1.35-.352-1.892-.026-3.79.071-5.676-.039-1.34-.078-1.684.381-1.678,1.69.048,11.41.024,22.82.04,34.231,0,.515-.256,1.129.336,1.531,2.334.015,4.671-.027,7,.07,1.147.048,1.369-.4,1.366-1.438q-.056-17.846-.04-35.693" transform="translate(-1002.125 -107.823)"/>
  <path id="Path_4058" data-name="Path 4058" d="M1273.318,177.863a18.53,18.53,0,0,1-4.569,5.651,21.123,21.123,0,0,1-14.963,5.324,20.333,20.333,0,0,1-12.939-5.443c-3.967-3.537-6-8.082-6.98-13.178a7.872,7.872,0,0,1,0-2.826c.215-1.179,1.1-1.614,2.3-1.61,5.453.017,10.906-.014,16.359-.029.252.088.331-.021.3-.259q.029-7.844.057-15.687c.009-2.989.031-3.031,2.917-3.013,9.146.059,17.359,6.961,19.5,15.823a22.176,22.176,0,0,1-1.713,14.885c-.186.049-.334.125-.265.361m-27.244-8.222c0-.041,0-.082,0-.123-2.337,0-4.674,0-7.011,0-.718,0-1.339-.035-1.132,1.056a17.225,17.225,0,0,0,26.86,11.223c.759-.522.726-.878.087-1.491-1.767-1.693-3.467-3.458-5.208-5.18-1.858-1.837-3.441-4.388-5.682-5.28-2.3-.916-5.248-.2-7.913-.2m25.863-2.073a14.06,14.06,0,0,0-.953-5.555c-2.224-6.216-6.719-9.808-13.083-11.2-.61-.133-1.036-.038-1.031.807.034,4.9.022,9.794.006,14.691a1.5,1.5,0,0,0,.471,1.169q5.147,5.121,10.269,10.267c.537.541.695.467,1.167-.182a15.959,15.959,0,0,0,3.154-10" transform="translate(-1118.879 -86.31)" fill="#000101"/>
  <path id="Path_4059" data-name="Path 4059" d="M1085.864,207.144a19.411,19.411,0,0,1,.853,2.1,1.858,1.858,0,0,1-1.173,2.287,1.684,1.684,0,0,1-2.238-.741c-1.258-2.15-2.551-4.281-3.855-6.4a2.033,2.033,0,0,1,.83-3.056c1.952-1.213,4-2.275,6.026-3.364,1.121-.6,2.275-.69,2.907.631a1.849,1.849,0,0,1-1.042,2.808,3.35,3.35,0,0,0-1.806,1.2c2.954.8,5.81,1.579,8.669,2.347q12.006,3.226,24.015,6.443c3.31.886,6.63,1.731,9.936,2.631,2.292.623,4.566,1.308,6.848,1.965.126.375.412.317.7.256a8.292,8.292,0,0,1,2.981.745c.129.367.412.308.694.253,1.048.474,1.844,1.181,1.186,2.381-.506.924-1.19,1.633-2.574,1.08a88.441,88.441,0,0,0-8.952-2.576c-3.143-.886-6.353-1.668-9.547-2.438-4.409-1.062-8.791-2.237-13.174-3.4-6.983-1.856-13.957-3.744-20.935-5.619l-.732.059.384.416" transform="translate(-1033.278 -114.396)" fill="#000101"/>
  <path id="Path_4060" data-name="Path 4060" d="M1229.955,154.125c-3,0-6.008-.067-9.009.029-1.473.047-1.967-.651-2.027-1.927a18.805,18.805,0,0,1,2.609-10.5,20.169,20.169,0,0,1,15.606-10.359,15.3,15.3,0,0,1,2.087-.306c2,.018,2.47.28,2.5,2.316.08,6.283.052,12.568-.006,18.851-.014,1.459-1.177,1.871-2.413,1.886-3.114.037-6.229.012-9.343.012m7.67-4.03c.106-.1.305-.208.306-.313.026-4.658.059-9.315.025-13.973-.009-1.18-.732-.765-1.331-.414a15.519,15.519,0,0,0-10.764,6.835,13.641,13.641,0,0,0-2.867,7.869c.421.556,1.025.31,1.546.315,2.5.026,5,.059,7.5,0,1.761-.044,3.541.281,5.285-.2a.715.715,0,0,0,.3-.113" transform="translate(-1110.666 -77.605)" fill="#000101"/>
  <path id="Path_4061" data-name="Path 4061" d="M1278.947,274.323c-4.227,0-8.455-.056-12.68.03a1.968,1.968,0,0,1-2.31-1.946c-.107-1.419.889-2.025,2.219-2.027,8.675-.012,17.351-.025,26.027.007a2.216,2.216,0,0,1,2.382,2.5c-.215,1.183-1.344,1.441-2.458,1.44q-6.59-.006-13.18,0" transform="translate(-1135.598 -154.699)"/>
  <path id="Path_4062" data-name="Path 4062" d="M1278.9,301.92c-4.341,0-8.685-.08-13.023.044-1.5.043-1.761-.919-1.936-1.852a1.866,1.866,0,0,1,1.569-2.142,3.6,3.6,0,0,1,1-.05q12.607,0,25.214-.008a2.431,2.431,0,0,1,2.566,1.367c.562,1.384-.506,2.638-2.2,2.644-4.4.014-8.794,0-13.191,0Z" transform="translate(-1135.572 -169.942)"/>
  <path id="Path_4063" data-name="Path 4063" d="M1018.494,146.247q-6.417,0-12.834,0a2.065,2.065,0,0,1-2.173-1.193,2.09,2.09,0,0,1,.7-2.389,1.868,1.868,0,0,1,1.377-.361q12.917-.007,25.834,0c1.572,0,2.412.753,2.432,2.007.026,1.637-1.134,1.907-2.334,1.921-4.333.049-8.667.019-13,.016" transform="translate(-991.385 -83.823)"/>
  <path id="Path_4064" data-name="Path 4064" d="M1018.738,114.561c4.282,0,8.564.011,12.846-.006,1.347-.005,2.294.44,2.313,1.937.021,1.546-.979,1.894-2.307,1.893q-12.846-.021-25.692,0c-1.352,0-2.482-.292-2.385-1.961.092-1.581,1.17-1.885,2.545-1.873,4.226.038,8.453.014,12.679.014" transform="translate(-991.468 -68.466)"/>
  <path id="Path_4065" data-name="Path 4065" d="M1062.506,241.063q0,.5,0,1c-.331-.053-.6-.167-.555-.577.039-.323.3-.379.556-.426" transform="translate(-1023.808 -138.481)" fill="#dcecfc"/>
  <path id="Path_4066" data-name="Path 4066" d="M1215.125,241.154c-.282.055-.566.114-.694-.253.3-.106.665-.385.694.253" transform="translate(-1108.194 -138.307)" fill="#dcecfc"/>
  <path id="Path_4067" data-name="Path 4067" d="M1206.89,238.915c-.286.061-.572.119-.7-.256.3-.107.669-.384.7.256" transform="translate(-1103.635 -137.067)" fill="#dcecfc"/>
  <path id="Path_4068" data-name="Path 4068" d="M1034.819,202.486c.081-.213.239-.345.458-.277.081.025.113.211.167.324l-.625-.047" transform="translate(-1008.796 -116.969)" fill="#b4bec9"/>
  <path id="Path_4069" data-name="Path 4069" d="M1216.884,270.391c-.18-.122-.17-.263-.04-.415.159.078.349.142.284.374-.009.034-.159.028-.243.041" transform="translate(-1109.477 -154.482)" fill="#3c3e40"/>
  <path id="Path_4070" data-name="Path 4070" d="M1233.146,339.26c.109.047.3.082.312.144a.289.289,0,0,1-.311.37c0-.172,0-.343,0-.514" transform="translate(-1118.552 -192.824)" fill="#b4bec9"/>
  <path id="Path_4071" data-name="Path 4071" d="M1032.008,204.7c-.054-.233.087-.315.277-.359l-.277.359" transform="translate(-1007.234 -118.158)" fill="#dcecfc"/>
  <path id="Path_4072" data-name="Path 4072" d="M1276.11,188.668c.034.239-.045.348-.3.26l.3-.26" transform="translate(-1142.164 -109.485)" fill="#b4bec9"/>
  <path id="Path_4073" data-name="Path 4073" d="M1322.343,215.919c-.069-.236.079-.312.265-.361l-.265.361" transform="translate(-1167.904 -124.366)" fill="#dcecfc"/>
  <path id="Path_4074" data-name="Path 4074" d="M1062.868,329.362c.049.225-.013.347-.268.3l.268-.3" transform="translate(-1024.17 -187.347)" fill="#dcecfc"/>
  <path id="Path_4075" data-name="Path 4075" d="M1158.766,329.662c-.263.055-.312-.079-.265-.3l.265.3" transform="translate(-1077.234 -187.348)" fill="#dcecfc"/>
  <path id="Path_4076" data-name="Path 4076" d="M1248.25,44.188c1.91,1.5,1.932,2.736.065,3.727l-60.542.013a1.763,1.763,0,0,1-1.561-1.7c-.129-1.072.75-1.623,1.627-2.046,2.447.015,4.894.043,7.341.042q26.535-.014,53.07-.038" transform="translate(-1092.571 -29.527)"/>
  <path id="Path_4077" data-name="Path 4077" d="M1250.282,43.789q-26.535.02-53.07.038c-2.447,0-4.894-.027-7.341-.042.52-.493,1.166-.272,1.752-.273q28.454-.018,56.908,0c.586,0,1.233-.22,1.751.276" transform="translate(-1094.603 -29.128)" fill="#566591"/>
  <path id="Path_4078" data-name="Path 4078" d="M1189.723,52.55l60.542-.013c-.507.507-1.154.313-1.744.313q-28.525.014-57.049,0c-.59,0-1.235.191-1.75-.3" transform="translate(-1094.521 -34.149)" fill="#3c3e40"/>
  <path id="Path_4079" data-name="Path 4079" d="M1081.946,47.039c-2.617.124-2.621-1.254-2.934-3.485a28.759,28.759,0,0,1-.035-4.659c.042-1.735,1.249-2.458,2.691-2.94l6.626,0a3.2,3.2,0,0,1,2.04,3.4c-.025,1.7-.007,3.41-.005,5.116a2.281,2.281,0,0,1-2.033,2.54l-6.35.025m1.072-5.51c-.239,1.249-.026,2.013,1.535,1.854,1.025-.1,2,.137,1.787-1.48-.136-1.021.218-2.139-1.522-1.914-1.042.135-2.27-.213-1.8,1.54" transform="translate(-1033.188 -24.973)"/>
  <path id="Path_4080" data-name="Path 4080" d="M995.923,37.669a4.7,4.7,0,0,1,2.4-1.721l6.947.013a3.474,3.474,0,0,1,1.9,2.723,23.711,23.711,0,0,1,.008,6.079,2.251,2.251,0,0,1-2.2,2.261l-6.362,0c-1.554.184-2.3-.7-2.71-2.04q.011-3.659.024-7.318m5.669,2.363c-1.225-.184-2.125-.218-2.049,1.547.06,1.4.292,2.007,1.816,1.817,1.078-.134,2.168.247,2.018-1.618-.109-1.361-.239-2.158-1.786-1.746" transform="translate(-987.257 -24.969)" fill="#000101"/>
  <path id="Path_4081" data-name="Path 4081" d="M1046.889,35.952c1.761.954,2.863,3.922,2.262,6.434a8.509,8.509,0,0,0-.223,2.108,2.2,2.2,0,0,1-2.031,2.519l-6.643-.006c-1.812.021-2.4-1.046-2.379-2.665q.017-3.336.033-6.673c.445-1.04,1.452-1.313,2.355-1.727l6.626.009m-3.648,4.088c-1.476-.409-1.7.307-1.734,1.624-.035,1.376.323,1.75,1.719,1.742,1.369-.008,1.783-.326,1.733-1.729-.046-1.293-.216-2.059-1.719-1.638" transform="translate(-1010.486 -24.966)"/>
  <path id="Path_4082" data-name="Path 4082" d="M995.485,39.8l-.024,7.318a18.532,18.532,0,0,1,.024-7.318" transform="translate(-986.819 -27.102)" fill="#566591"/>
  <path id="Path_4083" data-name="Path 4083" d="M1008.274,35.524l-6.947-.013a16.971,16.971,0,0,1,6.947.013" transform="translate(-990.261 -24.532)" fill="#566591"/>
  <path id="Path_4084" data-name="Path 4084" d="M1049.849,35.528l-6.626-.009a16,16,0,0,1,6.626.009" transform="translate(-1013.446 -24.542)" fill="#566591"/>
  <path id="Path_4085" data-name="Path 4085" d="M1091.73,35.527l-6.626,0a15.886,15.886,0,0,1,6.626,0" transform="translate(-1036.624 -24.541)" fill="#566591"/>
  <path id="Path_4086" data-name="Path 4086" d="M1037.438,39.811q-.017,3.336-.034,6.673a14.255,14.255,0,0,1,.034-6.673" transform="translate(-1010.017 -27.107)" fill="#3c3e40"/>
  <path id="Path_4087" data-name="Path 4087" d="M1043.2,60.719l6.643.006a13.963,13.963,0,0,1-6.643-.006" transform="translate(-1013.435 -38.677)" fill="#0f0f10"/>
  <path id="Path_4088" data-name="Path 4088" d="M1001.967,60.752l6.362,0a13.351,13.351,0,0,1-6.362,0" transform="translate(-990.615 -38.694)" fill="#0f0f10"/>
  <path id="Path_4089" data-name="Path 4089" d="M1085.726,60.744l6.35-.026a13.128,13.128,0,0,1-6.35.026" transform="translate(-1036.968 -38.677)" fill="#0f0f10"/>
  <path id="Path_4090" data-name="Path 4090" d="M1080.617,246.968q.01,17.846.04,35.693c0,1.041-.218,1.485-1.366,1.438-2.331-.1-4.668-.054-7-.069q-.012-17.824-.041-35.648c0-1.028.221-1.52,1.375-1.477,2.329.086,4.662.05,6.994.064" transform="translate(-1029.509 -141.712)" fill="#26a754"/>
  <path id="Path_4091" data-name="Path 4091" d="M1139.027,291.151c-2.449.012-4.9-.005-7.347.051-.806.019-1.032-.241-1.03-1.037q.035-14.7.017-29.4c0-.485-.119-1.022.689-1.014,2.394.025,4.788.017,7.182.01.484,0,.457.38.568.669-.01,1.057-.027,2.114-.029,3.171q-.027,13.772-.05,27.544" transform="translate(-1061.83 -148.826)" fill="#ffcc01"/>
  <path id="Path_4092" data-name="Path 4092" d="M1197.781,300.2l-8.027-.006c0-7.4.041-14.8-.042-22.2-.017-1.512.437-1.948,1.885-1.831a30.75,30.75,0,0,0,4.5,0c1.3-.087,1.721.315,1.71,1.666-.064,7.455-.03,14.912-.03,22.368" transform="translate(-1094.515 -157.898)" fill="#fa3c48"/>
  <path id="Path_4093" data-name="Path 4093" d="M1197.334,299.853c0-7.456-.034-14.912.03-22.368.012-1.351-.413-1.753-1.709-1.666a30.739,30.739,0,0,1-4.5,0c-1.449-.117-1.9.319-1.886,1.831.083,7.4.04,14.8.042,22.2-.647-.3-.321-.881-.322-1.313-.025-7.126.009-14.252-.043-21.378-.009-1.192.219-1.709,1.542-1.635,2,.113,4.008.059,6.011.016.831-.017,1.187.2,1.183,1.113-.031,7.515-.017,15.031-.021,22.547,0,.264.048.569-.324.656" transform="translate(-1094.068 -157.547)" fill="#de6168"/>
  <path id="Path_4094" data-name="Path 4094" d="M1080.184,246.556c-2.332-.014-4.665.021-6.994-.064-1.155-.042-1.378.449-1.375,1.477q.052,17.824.041,35.648c-.592-.4-.335-1.016-.336-1.532-.016-11.41.009-22.821-.04-34.231-.005-1.309.339-1.768,1.678-1.69,1.886.11,3.784.012,5.676.039.462.007,1.023-.227,1.35.352" transform="translate(-1029.076 -141.3)" fill="#3c3e40"/>
  <path id="Path_4095" data-name="Path 4095" d="M1149.408,291.992q.024-13.772.05-27.544c0-1.057.019-2.114.029-3.171.472.46.264,1.049.265,1.577q.02,13.81,0,27.621c0,.51.266,1.125-.34,1.518" transform="translate(-1072.21 -149.667)" fill="#3c3e40"/>
  <path id="Path_4096" data-name="Path 4096" d="M1251.219,197.629c2.665,0,5.613-.713,7.913.2,2.24.892,3.824,3.444,5.682,5.281,1.741,1.721,3.44,3.486,5.208,5.179.639.612.673.969-.086,1.491a17.224,17.224,0,0,1-26.86-11.222c-.207-1.091.414-1.058,1.132-1.056,2.337.006,4.674,0,7.011,0,0,.041,0,.082,0,.123" transform="translate(-1124.024 -114.298)" fill="#26a754"/>
  <path id="Path_4097" data-name="Path 4097" d="M1300.6,172.5a15.96,15.96,0,0,1-3.154,10c-.472.649-.63.723-1.167.182q-5.116-5.151-10.269-10.267a1.5,1.5,0,0,1-.471-1.169c.016-4.9.027-9.794-.006-14.691-.005-.845.421-.94,1.031-.807,6.364,1.387,10.859,4.98,13.083,11.2a14.062,14.062,0,0,1,.953,5.555" transform="translate(-1147.544 -91.239)" fill="#ffcc01"/>
  <path id="Path_4098" data-name="Path 4098" d="M1093.822,218.456l-.384-.416.732-.059-.347.475" transform="translate(-1041.236 -125.707)" fill="#deeeff"/>
  <path id="Path_4099" data-name="Path 4099" d="M1228.069,155.467a13.64,13.64,0,0,1,2.867-7.869,15.516,15.516,0,0,1,10.764-6.835c1.116-.068,1.024.7,1.022,1.442q-.019,6.629-.022,13.257a.714.714,0,0,1-.3.113l-14.332-.108" transform="translate(-1115.742 -82.972)" fill="#fa3c48"/>
  <path id="Path_4100" data-name="Path 4100" d="M1259.592,155.013q.009-6.629.022-13.257c0-.737.094-1.51-1.022-1.442.6-.351,1.322-.766,1.331.414.034,4.658,0,9.315-.025,13.973,0,.1-.2.209-.306.313" transform="translate(-1132.634 -82.523)" fill="#de6168"/>
  <path id="Path_4101" data-name="Path 4101" d="M1228.069,173.693l14.332.108c-1.744.485-3.524.159-5.285.2-2.5.063-5,.031-7.5,0-.521-.006-1.125.241-1.546-.316" transform="translate(-1115.742 -101.198)" fill="#3c3e40"/>
  <path id="Path_4102" data-name="Path 4102" d="M1088,46.492c-.47-1.753.758-1.405,1.8-1.54,1.739-.226,1.385.893,1.521,1.914.216,1.617-.761,1.376-1.787,1.48-1.561.159-1.774-.6-1.535-1.854" transform="translate(-1038.168 -29.935)" fill="#969ca3"/>
  <path id="Path_4103" data-name="Path 4103" d="M1006.1,44.958c1.547-.413,1.677.385,1.786,1.746.149,1.864-.941,1.484-2.019,1.618-1.524.19-1.756-.414-1.816-1.817-.076-1.765.824-1.73,2.049-1.547" transform="translate(-991.766 -29.895)" fill="#de6168"/>
  <path id="Path_4104" data-name="Path 4104" d="M1047.741,44.973c1.5-.422,1.673.344,1.719,1.638.05,1.4-.365,1.721-1.733,1.729-1.4.008-1.754-.367-1.719-1.742.033-1.317.258-2.033,1.734-1.624" transform="translate(-1014.986 -29.899)" fill="#ffcc01"/>
</svg>
