<svg id="Group_151" data-name="Group 151" xmlns="http://www.w3.org/2000/svg" width="139.212" height="168.589" viewBox="0 0 139.212 168.589">
  <path id="Path_4197" data-name="Path 4197" d="M1591.864,166.8c.15-1.28.526-1.594,1.842-1.532.927.043,1.48.678,1.487,1.809.018,2.783.006,5.567.006,8.35,0,3.3.018,6.593-.015,9.888-.007.654.122.871.828.857,2.85-.054,4.182,1.435,4.167,4.227-.057,10.987-.022,21.975-.024,32.962,0,3.2-1.3,4.888-4.383,5.625-.546.131-.355.466-.368.739-.082,1.781.02,3.559-.166,5.348a6.676,6.676,0,0,1-5.916,5.9c-2.14.124-22.365.05-24.541-.095-.8-.054-.985.23-.959.983.056,1.61.04,3.223.005,4.833-.012.591.113.833.773.832,8.093-.024,34.2-.016,42.29-.025,1.992,0,3.225-1.544,3.257-3.6.073-4.65.015-9.3.034-13.954,0-.547-.132-.673-.7-.756a5.215,5.215,0,0,1-4.447-4.977c.058-11.61.018-23.22.034-34.83a3.2,3.2,0,0,1,3.383-3.231,3.946,3.946,0,0,1,.658,0c.741.124.894-.2.888-.9-.032-4.1-.016-8.2-.016-12.306q0-2.747,0-5.494c0-1.765.311-2.219,1.508-2.19s1.844.661,1.826,2.3c-.063,5.823-.025,11.647-.025,17.47,0,1.419.012,1.505,1.441,1.3a2.937,2.937,0,0,1,2.934,1.307,3.717,3.717,0,0,1,.6,2.35c.021,11.317.045,22.635-.01,33.951a5,5,0,0,1-4.126,5.035c-.831.126-.64.658-.641,1.125-.011,4.615.071,9.232-.033,13.844-.076,3.41-1.687,5.583-5.061,6.7a6.452,6.452,0,0,1-2.059.159c-7.8,0-33.61.016-41.411-.016-.842,0-1.154.176-1.1,1.075a12.036,12.036,0,0,1-.416,4.053,6.771,6.771,0,0,1-6.218,4.517c-18.677-.033-37.355-.072-56.031.038a7.134,7.134,0,0,1-6.844-6.879q.12-46.147.042-92.295a6.345,6.345,0,0,1,5.577-6.618,13.008,13.008,0,0,1,2.362-.176q27.026-.009,54.054,0c2.5,0,4.734.682,6.257,2.86a7.07,7.07,0,0,1,1.184,3.262,13.869,13.869,0,0,1,.052,1.644q0,36.972-.029,73.946c0,1.192.35,1.445,1.445,1.388,1.716-.091,21.455-.1,23.171,0a3.5,3.5,0,0,0,3.645-3.468c.091-1.422,0-2.855.026-4.284.007-.447-.1-.593-.593-.66a5.268,5.268,0,0,1-3.766-2.174l-.179-.218a5.018,5.018,0,0,1-.657-3.081q0-17.14-.005-34.281a2.637,2.637,0,0,1,1.041-2.426l.238-.168a6.38,6.38,0,0,1,3.516-.743c.154.029.222-.023.171-.184q0-9.445,0-18.891c0-.077,0-.155,0-.232m-1.636,55.58-.029.682c-.272,1.881.206,2.928,2.55,2.732.761-.064,1.534.014,2.3-.019A1.615,1.615,0,0,0,1596.81,224c.034-1.825-.008-3.652.022-5.477.01-.58-.2-.758-.759-.74-1.313.041-2.627.03-3.941.041a5.428,5.428,0,0,1-.764-.037c-1-.188-1.253.249-1.179,1.194.089,1.127.033,2.265.04,3.4m18.11,1.564c.2,1.481.555,1.813,2.017,1.836.913.015,1.828.022,2.741,0a1.685,1.685,0,0,0,1.866-1.812c.038-1.827,0-3.655.02-5.483.007-.515-.15-.713-.682-.7-1.314.04-2.629.034-3.944.046a7.433,7.433,0,0,1-.969-.045c-.887-.153-1.091.251-1.041,1.066.073,1.184.041,2.376.053,3.564q-.03.657-.06,1.313l-.249.107.249.107m6.209-34.462c-1.647-.01-3.3.033-4.939-.052-.965-.05-1.281.184-1.274,1.226.052,7.028.027,14.058.027,21.087,0,2.869,0,2.869,2.886,2.708.842.013,1.689-.029,2.523.053.927.092,1.249-.15,1.231-1.171-.069-4.064-.029-8.131-.029-12.2,0-3.59.009-7.179-.015-10.769,0-.309.314-.871-.411-.886m-21.326,24.969c.876.013,1.755-.017,2.627.051.758.059.993-.187.99-.966-.028-7.71-.014-15.419-.028-23.128,0-.311.235-.754-.292-.92-1.866-.012-3.733,0-5.6-.05-.614-.015-.721.238-.72.778q.019,11.754,0,23.507c0,.538.1.82.719.777.765-.054,1.535-.035,2.3-.048M1497.7,249.218c-.008,1.61-.027,3.221-.022,4.832a3.058,3.058,0,0,0,3.066,3.06q2.8.011,5.6.008,25.106,0,50.212,0a3.815,3.815,0,0,0,3.173-1.282,4.226,4.226,0,0,0,.8-2.941q0-45.436,0-90.874c0-.329,0-.66-.025-.987a3.148,3.148,0,0,0-2.7-3.015c-2.825-.464-5.677-.141-8.518-.165-.4-.014-.8-.04-1.2-.04q-23.345-.011-46.69-.017c-2.425,0-3.75,1.47-3.749,3.085q.025,43.508.024,87.017c0,.439.021.878.033,1.316" transform="translate(-1479.073 -91.893)"/>
  <path id="Path_4198" data-name="Path 4198" d="M1553.455,161.9c2.84.024,5.693-.3,8.518.164a3.149,3.149,0,0,1,2.7,3.015c.029.328.026.658.026.988q0,45.437,0,90.874a4.227,4.227,0,0,1-.8,2.941,3.817,3.817,0,0,1-3.172,1.282q-25.106,0-50.213,0-2.8,0-5.6-.008a3.058,3.058,0,0,1-3.066-3.06c0-1.61.014-3.221.022-4.832a1.243,1.243,0,0,0,.716-.2,88.189,88.189,0,0,0,9.765-7.085c.882-.723,1.524-1.764,2.676-2.15-.007.4-.039.8-.016,1.2.062,1.1.855,1.565,1.732,1.959a1.851,1.851,0,0,0,2.119-.616,2.1,2.1,0,0,0,.641-2.345c-.515-1.455-1.708-1.554-2.963-1.57,1.291-1.914,3.173-3.28,4.651-5.022a2.882,2.882,0,0,1,.386.36,14.858,14.858,0,0,0,5.994,4.8,14.1,14.1,0,0,0,9.6.537,13.606,13.606,0,0,0,6.577-4.055,14.9,14.9,0,0,0,3.831-7.994,15.351,15.351,0,0,0-2.04-10.256,16.144,16.144,0,0,0-4.325-4.388,18.5,18.5,0,0,0-4.238-2.053c2.029-4,4.057-8.011,5.731-12.181a11.936,11.936,0,0,0,1.3-3.8c3.33-.014,6.66-.016,9.989-.054.422,0,.761.264,1.258.1a3.587,3.587,0,0,0,2.813-3.7q.045-11.807.013-23.613a3.314,3.314,0,0,0-2.6-3.158,17.416,17.416,0,0,0-2.686-.242l.658-5.836m-4.4,80.6a2.057,2.057,0,0,0-2.186,2.247,2.448,2.448,0,0,0,2.324,2.368,2.546,2.546,0,0,0,2.289-2.343,2.248,2.248,0,0,0-2.427-2.272m-2.186-29.682a2.448,2.448,0,0,0,2.248,2.429,2.691,2.691,0,0,0,2.367-2.36,2.372,2.372,0,0,0-2.394-2.255,2.025,2.025,0,0,0-2.221,2.185m8.747,13.858c-1.548,0-2.158.608-2.154,2.134a2.146,2.146,0,0,0,2.292,2.262,2.4,2.4,0,0,0,2.317-2.318,2.065,2.065,0,0,0-2.455-2.078m-22.471,22.417a2.143,2.143,0,0,0-2.316,2.253,2.413,2.413,0,0,0,2.252,2.148,2.063,2.063,0,0,0,2.362-2.277,2.036,2.036,0,0,0-2.3-2.123" transform="translate(-1483.243 -95.935)" fill="#c7cbd1"/>
  <path id="Path_4199" data-name="Path 4199" d="M1553.412,161.936q-.328,2.918-.657,5.836c-.439.013-.877.038-1.315.038q-19.437,0-38.876,0c-.366,0-.732-.007-1.1.006a3.1,3.1,0,0,0-3.057,3.173q0,11.752-.011,23.5c0,2.727,1.116,3.9,3.83,3.9q14.331.007,28.663,0c1.024,0,2.048.025,3.072.039a11.912,11.912,0,0,1-1.3,3.8c-1.674,4.169-3.7,8.176-5.731,12.181a13.383,13.383,0,0,0-1.485-.166,15.033,15.033,0,0,0-3.231-.284,17.443,17.443,0,0,0-6.434,2,16.092,16.092,0,0,0-4.755,4.67,9.046,9.046,0,0,0-1.334,2.715,20.038,20.038,0,0,0-1.016,3.774,27.341,27.341,0,0,0,.1,2.894,14.906,14.906,0,0,0,.937,4.477c.338,1.072,1.155,1.886,1.426,2.971-1.477,1.742-3.36,3.108-4.651,5.022a3.449,3.449,0,0,0-1.512,1.368c-1.153.386-1.795,1.427-2.677,2.15a88.25,88.25,0,0,1-9.766,7.085,1.242,1.242,0,0,1-.716.2c-.011-.439-.033-.878-.033-1.316q-.009-43.508-.024-87.017c0-1.615,1.324-3.086,3.749-3.085q23.345.005,46.69.017c.4,0,.8.026,1.2.04m-20.264,42.138c-1.7,0-2.22,1.077-2.339,2.345-.1,1.057,1.648,2.519,2.79,2.475.691-.026,1.985-2.107,1.991-3.2,0-.641-1.485-1.628-2.442-1.62m-18.187,8.845c.007.988.98,2.244,1.751,2.262,1.785.039,2.856-.821,2.864-2.3a2.216,2.216,0,0,0-2.474-2.212,2.031,2.031,0,0,0-2.141,2.251m-4.392,13.792a2.02,2.02,0,0,0-2.2,2.218,2.243,2.243,0,0,0,2.267,2.178,2.346,2.346,0,0,0,2.353-2.285,2.067,2.067,0,0,0-2.419-2.111" transform="translate(-1483.201 -95.973)" fill="#dee1e6"/>
  <path id="Path_4200" data-name="Path 4200" d="M1752.438,257.741c-.768.013-1.538-.007-2.3.048-.617.044-.72-.239-.719-.777q.019-11.753,0-23.507c0-.539.107-.793.72-.778,1.866.046,3.733.037,5.6.05a45.464,45.464,0,0,1-.435,5.44c-.214,2.648-.377,5.3-.721,7.936a102.249,102.249,0,0,1-2.141,11.587" transform="translate(-1620.251 -135.181)" fill="#4dabf4"/>
  <path id="Path_4201" data-name="Path 4201" d="M1712.218,257.724c-2.886.161-2.886.161-2.886-2.708,0-7.029.025-14.058-.027-21.087-.008-1.041.308-1.275,1.274-1.226,1.643.084,3.292.042,4.939.052a37.05,37.05,0,0,1-.281,5.993c-.311,3.571-.749,7.137-1.286,10.681a51.351,51.351,0,0,1-1.732,8.294" transform="translate(-1598.053 -135.164)" fill="#4dabf4"/>
  <path id="Path_4202" data-name="Path 4202" d="M1711.33,296.249c1.315-.013,2.63-.007,3.944-.046.532-.016.689.182.682.7-.024,1.827.018,3.656-.02,5.482a1.685,1.685,0,0,1-1.866,1.812c-.913.026-1.828.019-2.741,0-1.462-.024-1.817-.355-2.016-1.836,0-.071,0-.142,0-.213q.03-.657.061-1.313c1.009-1.376,1.328-3.047,1.957-4.586" transform="translate(-1598.058 -170.308)" fill="#1d7bd5"/>
  <path id="Path_4203" data-name="Path 4203" d="M1751.264,296.241c1.314-.01,2.628,0,3.941-.04.563-.018.768.16.759.74-.03,1.825.012,3.652-.022,5.477a1.616,1.616,0,0,1-1.763,1.773c-.765.033-1.538-.045-2.3.019-2.343.2-2.822-.852-2.55-2.732.232-.177.157-.443.2-.677a17.2,17.2,0,0,0,1.738-4.56" transform="translate(-1620.166 -170.307)" fill="#1d7bd5"/>
  <path id="Path_4204" data-name="Path 4204" d="M1715.828,257.8a51.363,51.363,0,0,0,1.732-8.294c.537-3.545.975-7.11,1.286-10.681a37.05,37.05,0,0,0,.281-5.993c.725.014.41.577.411.886.024,3.589.015,7.179.015,10.768,0,4.066-.041,8.132.029,12.2.017,1.021-.3,1.263-1.231,1.171-.835-.082-1.682-.041-2.523-.054" transform="translate(-1601.663 -135.237)" fill="#1d7bd5"/>
  <path id="Path_4205" data-name="Path 4205" d="M1756.184,257.8a102.278,102.278,0,0,0,2.141-11.587c.344-2.632.507-5.289.721-7.936a45.413,45.413,0,0,0,.435-5.44c.527.166.292.609.292.92.014,7.71,0,15.419.028,23.128,0,.778-.232,1.025-.99.966-.871-.068-1.751-.038-2.627-.051" transform="translate(-1623.997 -135.243)" fill="#1d7bd5"/>
  <path id="Path_4206" data-name="Path 4206" d="M1751.32,296.194a17.2,17.2,0,0,1-1.738,4.561.264.264,0,0,0-.166-.005c-.007-1.133.049-2.271-.04-3.4-.075-.945.179-1.381,1.179-1.194a5.309,5.309,0,0,0,.765.037" transform="translate(-1620.223 -170.26)" fill="#4dabf4"/>
  <path id="Path_4207" data-name="Path 4207" d="M1711.331,296.213c-.629,1.539-.947,3.21-1.957,4.586-.012-1.188.02-2.379-.053-3.564-.05-.815.153-1.219,1.041-1.066a7.6,7.6,0,0,0,.969.045" transform="translate(-1598.058 -170.272)" fill="#4dabf4"/>
  <path id="Path_4208" data-name="Path 4208" d="M1709,309.516v.213l-.25-.107.25-.107" transform="translate(-1597.749 -177.676)" fill="#2f3031"/>
  <path id="Path_4209" data-name="Path 4209" d="M1552.179,205.743c-1.024-.013-2.048-.038-3.072-.039q-14.331,0-28.663,0c-2.714,0-3.835-1.176-3.83-3.9q.021-11.751.011-23.5a3.1,3.1,0,0,1,3.057-3.173c.366-.013.732-.006,1.1-.006q19.438,0,38.876,0c.438,0,.876-.025,1.315-.038a17.413,17.413,0,0,1,2.686.242,3.314,3.314,0,0,1,2.6,3.158q.026,11.807-.013,23.614a3.587,3.587,0,0,1-2.813,3.7c-.5.167-.835-.1-1.258-.1-3.329.038-6.659.041-9.989.054m-32.239-7.329c-.006.732-.025,1.463-.015,2.194a4.029,4.029,0,0,0,.152,1.809c.13.227,1.054-.021,1.619-.022q20.026-.005,40.053.023c1.042,0,1.238-.314,1.232-1.276-.04-6.8-.022-13.608-.022-20.412,0-2.406,0-2.406-2.437-2.283q-19.938-.017-39.875-.05c-.719,0-.73.34-.729.874q.025,9.448.025,18.9c0,.083,0,.165,0,.248" transform="translate(-1491.416 -103.276)"/>
  <path id="Path_4210" data-name="Path 4210" d="M1542.068,301.971c-.271-1.086-1.089-1.9-1.427-2.971a14.9,14.9,0,0,1-.937-4.477,27.3,27.3,0,0,1-.1-2.893,20.034,20.034,0,0,1,1.016-3.774,9.049,9.049,0,0,1,1.333-2.715,16.1,16.1,0,0,1,4.755-4.67,17.444,17.444,0,0,1,6.434-2,15,15,0,0,1,3.231.285,13.149,13.149,0,0,1,1.485.166,18.486,18.486,0,0,1,4.238,2.053,16.15,16.15,0,0,1,4.325,4.388,15.351,15.351,0,0,1,2.041,10.256,14.9,14.9,0,0,1-3.831,7.993,13.6,13.6,0,0,1-6.577,4.056,14.1,14.1,0,0,1-9.6-.537,14.855,14.855,0,0,1-5.994-4.8,2.882,2.882,0,0,0-.386-.36m7.906-10.34a1.72,1.72,0,0,0-.234-.473c-1.379-1.407-2.778-2.795-4.152-4.207-.429-.442-.616-.363-.958.146a11.714,11.714,0,0,0-1.63,8.29c.143,1.131.261,2.531,1.444,3.328a.433.433,0,0,0,.024.554,12.273,12.273,0,0,0,2.668,3.094c4.2,3.307,8.517,3.318,12.934.793.717-.41.629-.805.131-1.3q-5.116-5.107-10.226-10.221m6.124-9.616c-.6-.089-1.2-.2-1.806-.264-2.649-.285-4.847.817-7.291,2.5l4.946,4.552q5.354,5.424,10.7,10.857c.481.491.676.148.887-.191a11.1,11.1,0,0,0,1.33-9.524c-1.355-4.311-4.177-7.131-8.765-7.933" transform="translate(-1504.123 -160.473)" fill="#010000"/>
  <path id="Path_4211" data-name="Path 4211" d="M1531.328,343.757a3.452,3.452,0,0,1,1.512-1.368c1.256.016,2.448.115,2.963,1.57a2.1,2.1,0,0,1-.641,2.345,1.851,1.851,0,0,1-2.119.616c-.877-.395-1.671-.859-1.732-1.959-.023-.4.009-.8.016-1.2" transform="translate(-1499.546 -195.869)" fill="#010000"/>
  <path id="Path_4212" data-name="Path 4212" d="M1604.845,342.48a2.249,2.249,0,0,1,2.427,2.273,2.546,2.546,0,0,1-2.289,2.343,2.449,2.449,0,0,1-2.325-2.368,2.058,2.058,0,0,1,2.186-2.247" transform="translate(-1539.034 -195.919)" fill="#010000"/>
  <path id="Path_4213" data-name="Path 4213" d="M1602.66,273.309a2.024,2.024,0,0,1,2.22-2.185,2.372,2.372,0,0,1,2.394,2.255,2.691,2.691,0,0,1-2.367,2.36,2.448,2.448,0,0,1-2.248-2.429" transform="translate(-1539.035 -156.43)" fill="#010000"/>
  <path id="Path_4214" data-name="Path 4214" d="M1619.576,307.018a2.065,2.065,0,0,1,2.456,2.078,2.4,2.4,0,0,1-2.317,2.318,2.147,2.147,0,0,1-2.293-2.262c0-1.526.606-2.131,2.154-2.134" transform="translate(-1547.205 -176.281)" fill="#010000"/>
  <path id="Path_4215" data-name="Path 4215" d="M1569.055,357.244a2.036,2.036,0,0,1,2.3,2.123,2.063,2.063,0,0,1-2.362,2.277,2.413,2.413,0,0,1-2.252-2.148,2.143,2.143,0,0,1,2.317-2.253" transform="translate(-1519.155 -204.09)" fill="#010000"/>
  <path id="Path_4216" data-name="Path 4216" d="M1569.13,256.361c.957-.008,2.445.978,2.441,1.619-.005,1.093-1.3,3.174-1.99,3.2-1.142.043-2.89-1.418-2.79-2.475.12-1.268.642-2.347,2.339-2.345" transform="translate(-1519.183 -148.26)" fill="#010000"/>
  <path id="Path_4217" data-name="Path 4217" d="M1531.31,273.375a2.03,2.03,0,0,1,2.141-2.251,2.216,2.216,0,0,1,2.474,2.212c-.008,1.48-1.079,2.34-2.864,2.3-.772-.017-1.744-1.273-1.752-2.261" transform="translate(-1499.549 -156.43)" fill="#010000"/>
  <path id="Path_4218" data-name="Path 4218" d="M1518.748,307.014a2.067,2.067,0,0,1,2.419,2.111,2.346,2.346,0,0,1-2.353,2.285,2.243,2.243,0,0,1-2.267-2.178,2.02,2.02,0,0,1,2.2-2.218" transform="translate(-1491.379 -176.277)" fill="#010000"/>
  <path id="Path_4219" data-name="Path 4219" d="M1524.038,202.281q-.009-9.448-.025-18.9c0-.534.009-.875.729-.874q19.937.048,39.875.05a19.034,19.034,0,0,1-5.817,7.293,42.2,42.2,0,0,1-10.332,6.127,80.632,80.632,0,0,1-17.568,5.236c-.022-1.17-.052-2.339-.064-3.509-.008-.781-.173-1.335-1.153-1.355s-1.3.478-1.3,1.338q-.012,2.086-.017,4.172c-1.41-.079-2.758.434-4.16.442a.277.277,0,0,0-.165-.024m6.786-12.688h0c0-.731.054-1.466-.015-2.191a1.154,1.154,0,0,0-1.238-1.125,1.1,1.1,0,0,0-1.17,1.171c-.041,1.387-.029,2.776-.008,4.164a1.144,1.144,0,0,0,1.246,1.227,1.1,1.1,0,0,0,1.183-1.165c.033-.693.007-1.388.007-2.082" transform="translate(-1495.511 -107.391)" fill="#4dabf4"/>
  <path id="Path_4220" data-name="Path 4220" d="M1530.881,201.228a80.608,80.608,0,0,0,17.568-5.236,42.207,42.207,0,0,0,10.332-6.126,19.038,19.038,0,0,0,5.816-7.293c2.437-.123,2.437-.123,2.437,2.283,0,6.8-.018,13.608.022,20.412.005.962-.19,1.279-1.232,1.276q-20.026-.06-40.053-.023c-.565,0-1.488.248-1.618.021a4.022,4.022,0,0,1-.152-1.808c-.01-.731.009-1.463.015-2.195l.168-.223c1.4-.009,2.749-.521,4.16-.443a1.187,1.187,0,0,0,1.373.891c.854-.122,1.1-.781,1.164-1.537" transform="translate(-1495.492 -107.402)" fill="#1d7bd5"/>
  <path id="Path_4221" data-name="Path 4221" d="M1524.232,226.8l-.168.224q0-.124,0-.248a.278.278,0,0,1,.165.024" transform="translate(-1495.539 -131.885)" fill="#3372a3"/>
  <path id="Path_4222" data-name="Path 4222" d="M1571.429,286.458c4.588.8,7.41,3.622,8.765,7.933a11.1,11.1,0,0,1-1.33,9.524c-.211.339-.406.682-.886.191q-5.33-5.448-10.7-10.857a58.758,58.758,0,0,0,4.151-6.792" transform="translate(-1519.454 -164.916)" fill="#ee3d3d"/>
  <path id="Path_4223" data-name="Path 4223" d="M1555.9,307.989q5.113,5.111,10.226,10.221c.5.5.586.893-.13,1.3-4.417,2.525-8.739,2.514-12.935-.793a12.287,12.287,0,0,1-2.668-3.094.433.433,0,0,1-.024-.554c.967-.642,1.394-1.738,2.157-2.559a18.965,18.965,0,0,0,3.374-4.525" transform="translate(-1510.047 -176.831)" fill="#ee3d3d"/>
  <path id="Path_4224" data-name="Path 4224" d="M1554.046,301.832a18.965,18.965,0,0,1-3.374,4.525c-.763.82-1.191,1.916-2.157,2.559-1.183-.8-1.3-2.2-1.444-3.328a11.706,11.706,0,0,1,1.631-8.29c.342-.508.528-.587.958-.146,1.373,1.412,2.773,2.8,4.152,4.207a1.723,1.723,0,0,1,.234.473" transform="translate(-1508.194 -170.675)" fill="#fe7d7d"/>
  <path id="Path_4225" data-name="Path 4225" d="M1565.3,286.075a58.755,58.755,0,0,1-4.151,6.792l-4.945-4.552c2.444-1.688,4.641-2.79,7.291-2.5.6.065,1.2.175,1.806.264" transform="translate(-1513.326 -164.533)" fill="#fe7d7d"/>
  <path id="Path_4226" data-name="Path 4226" d="M1536.223,194.26c0,.694.026,1.389-.007,2.082a1.1,1.1,0,0,1-1.183,1.165,1.144,1.144,0,0,1-1.245-1.227c-.021-1.388-.033-2.777.008-4.164a1.1,1.1,0,0,1,1.17-1.171,1.154,1.154,0,0,1,1.238,1.125c.069.724.015,1.46.015,2.191h0" transform="translate(-1500.91 -112.058)" fill="#fff"/>
  <path id="Path_4227" data-name="Path 4227" d="M1536.292,218.368c-.067.757-.31,1.415-1.164,1.537a1.187,1.187,0,0,1-1.373-.891q.008-2.086.016-4.172c.005-.86.311-1.359,1.3-1.338s1.145.575,1.153,1.355c.012,1.17.042,2.339.064,3.509" transform="translate(-1500.903 -124.542)" fill="#fff"/>
  <path id="Path_4228" data-name="Path 4228" d="M1510.252,14.3a33.894,33.894,0,0,1,6.723,2.881c2.162,1.121,4.39,2.074,6.585,3.108l5.7,2.893c.18.7.46,1.193,1.268.632l6.016,2.851c.18.7.46,1.194,1.267.633,2.219,1.017,4.447,2.013,6.653,3.056,4.325,2.046,8.638,4.118,12.956,6.179.507.306.873.805,1.514.941a1.216,1.216,0,0,1,1.032,1.185c.046.728-.627.759-.952,1.111-1.251,1.356-3.092,1.634-4.448,2.732-2.025.514-3.675,1.846-5.609,2.565-.987.367-1.93.85-2.892,1.28-1.041-.47-1.675-.134-1.921.97-2.969,1.36-5.777,3.064-8.88,4.136-.448-.024-1.062-.3-.908.594l-.09-.038c-.6.316-1.187.655-1.8.945-6.189,2.943-12.445,5.755-18.545,8.872a7.056,7.056,0,0,1-7.615-.243,20.5,20.5,0,0,0-3.1-1.562c-1.5-.649-2.921-1.622-4.371-2.147a44.931,44.931,0,0,1-7.884-3.4,3.069,3.069,0,0,0-1.636-.48c-.745-.355-1.283-1.084-2.187-1.232,0,6.866.089,13.7-.057,20.519a4.064,4.064,0,0,0,2.135,3.882c3.92,2.578,8.45,3.3,12.883,4.294,2.527.566,5.129.289,7.7.356a3.009,3.009,0,0,0,2.039-.638,1.273,1.273,0,0,0,1.635.6c2.543-.586,5.167-.153,7.741-.949,3.409-1.054,6.915-1.756,9.951-3.775a4.6,4.6,0,0,0,2.234-4.214c-.076-5.108.016-10.218-.056-15.326-.018-1.29.328-1.881,1.652-1.7,1.346-.24,1.6.372,1.577,1.636-.083,4.845-.2,9.7.01,14.535.231,5.43-2.942,7.649-6.874,9.529-2.212,1.058-4.691,1.25-6.968,1.975-5.707,1.82-11.515,1.519-17.306,1.413a34.509,34.509,0,0,1-9.11-1.453c-1.533-1.035-3.437-.843-5.092-1.6-3.012-1.373-5.727-2.989-7.249-6.087,0-6.456-.02-12.912-.009-19.368,0-2.306.069-4.612.106-6.918a4.524,4.524,0,0,1,3.926.1c3.336,1.636,6.6,3.467,10.047,4.812,3.039,1.185,5.667,3.208,8.838,4.064a1.275,1.275,0,0,1,.549.305,3.406,3.406,0,0,0,3.957.878c1.053-.371,1.764-1.161,2.727-1.529,1.6-.61,3.123-1.356,4.656-2.1,2.74-1.334,5.524-2.574,8.274-3.885,6.928-3.3,13.87-6.575,20.756-9.962a53.058,53.058,0,0,0,6.841-3.472c-.673-.363-1.161-.653-1.671-.9-3.567-1.7-7.143-3.381-10.708-5.086q-15.328-7.331-30.642-14.691a2.944,2.944,0,0,0-2.811.013c-4.129,1.913-8.158,4.029-12.3,5.921-6.645,3.034-13.173,6.323-19.761,9.485-3.5,1.679-7.016,3.318-10.525,4.975-.162.084-.438.142-.465.256-.077.337.252.322.465.391,1.871,1.158,4.069,1.639,5.907,2.875a10.414,10.414,0,0,0,3.927,1.512c.439.022.894.113,1.237-.283l.665-.038c.434.019.882.105,1.221-.283l.361-.031c.437.019.891.116,1.233-.282l.35-.031c.442.009.911.144,1.259-.276l.642-.044c.435.024.884.1,1.222-.285l.36-.028c.441.009.907.134,1.254-.278l.648-.045c.435.024.883.109,1.221-.282l.36-.029c.438.021.893.115,1.234-.284l.668-.039c.348.031.7.074.941-.268l.642-.044c.437.019.891.116,1.232-.282l.35-.032c.441.009.907.136,1.255-.277l.647-.045c.435.027.882.107,1.221-.283l.36-.028c.439.021.894.112,1.237-.284l.665-.039c.433.02.882.106,1.221-.282l.361-.032c.437.021.892.119,1.233-.282l.349-.031c.442.009.912.144,1.26-.276l.642-.044c.435.022.886.108,1.226-.284l.356-.029c.441.008.91.14,1.257-.277l.643-.047.906-.029a.538.538,0,0,0,.666-.218l1.263-.026c.33.486-.146,1.153.36,1.6q.015.453.031.906l-.078.318c-.428.092-.927-.079-1.264.344l-.648.045c-.433-.02-.882-.105-1.221.282l-.361.031c-.439-.009-.9-.133-1.25.276l-.332.038c-.442-.009-.911-.145-1.259.276l-.643.046c-.435-.025-.883-.107-1.221.283l-.36.028c-.441-.009-.907-.134-1.254.278l-.648.045c-.433-.019-.882-.105-1.221.283l-.361.031c-.439-.01-.9-.133-1.25.276l-.332.038c-.442-.009-.911-.144-1.259.276l-.642.046c-.435-.025-.883-.107-1.222.284l-.359.027c-.442-.009-.911-.141-1.259.277l-.644.046c-.433-.018-.882-.1-1.221.283l-.361.03c-.441-.011-.907-.138-1.254.276l-.647.047a.943.943,0,0,0-.947.265l-.635.046c-.437-.02-.89-.113-1.231.284l-.352.029c-.442-.008-.911-.141-1.259.278l-.644.046c-.433-.018-.882-.1-1.221.283l-.361.032c-.44-.01-.906-.138-1.253.275l-.328.039a2.357,2.357,0,0,0-1.6.309c-1.092-.033-.912.768-.912,1.422-.006,6.2.01,12.4-.021,18.6a1.325,1.325,0,0,0,.956,1.484,6.529,6.529,0,0,1,4.184,5.12c.4,1.886.009,3.766.288,5.63-.022,1.139-.058,2.277-.063,3.416-.011,2.483-.337,2.835-2.8,2.973q-4.428-.023-8.857-.049c-1.829-.013-2.184-.346-2.193-2.21-.015-3.058-.123-6.125.06-9.173a6.049,6.049,0,0,1,4.014-5.708,1.684,1.684,0,0,0,1.3-1.814c-.066-6.275-.048-12.551-.016-18.826,0-.96-.268-1.491-1.28-1.48-3.448-1.575-6.754-3.448-10.275-4.87a4.165,4.165,0,0,1-1.162-.753c-1.359-1.2-1.259-2.116.4-2.973,1.731-.9,3.51-1.7,5.271-2.534q6.318-3.005,12.636-6.01a11.866,11.866,0,0,0,1.038-.627c1.781-.789,3.585-1.531,5.339-2.376,6.577-3.167,13.12-6.4,19.717-9.528a15.873,15.873,0,0,1,4.723-1.782m-38.56,66.511c-.178.81.243,1,.955.993,1.838-.022,3.677-.039,5.514.005.879.021,1.049-.4,1.039-1.157-.028-2.153.047-4.308-.033-6.459a3.433,3.433,0,0,0-2.075-3.256c-3.379-1.124-5.407.307-5.437,3.864-.017,2,.022,4.006.036,6.009" transform="translate(-1460.192 -14.303)" fill="#060d1a"/>
  <path id="Path_4229" data-name="Path 4229" d="M1525.413,100.729a3.069,3.069,0,0,1,1.636.48,44.932,44.932,0,0,0,7.884,3.4c1.451.526,2.871,1.5,4.372,2.148a20.512,20.512,0,0,1,3.1,1.562,7.058,7.058,0,0,0,7.616.243c6.1-3.118,12.355-5.929,18.544-8.872.611-.29,1.2-.629,1.8-.945,1.159,1.092.486,2.532.721,3.8-1.324-.18-1.67.411-1.652,1.7.071,5.108-.021,10.218.055,15.326a4.6,4.6,0,0,1-2.235,4.214c-3.036,2.019-6.542,2.721-9.951,3.775-2.574.8-5.2.362-7.741.949a1.274,1.274,0,0,1-1.635-.6,16.383,16.383,0,0,0-2.957-3.789q-5.77-6.726-11.561-13.435-3.834-4.461-7.655-8.934a1.612,1.612,0,0,1-.339-1.023" transform="translate(-1496.286 -61.033)" fill="#2a428c"/>
  <path id="Path_4230" data-name="Path 4230" d="M1491.558,53.649a42.349,42.349,0,0,1-5.483-2.876l.925-.546.328-.039c.431-.032.9.123,1.253-.275l.361-.032c.418-.044.883.109,1.221-.283l.644-.046c.434-.029.908.125,1.259-.277l.352-.029c.422-.042.89.112,1.231-.284l.635-.045c.341,0,.7.052.947-.265l.647-.047c.431-.031.9.123,1.254-.276l.36-.03c.419-.044.883.108,1.222-.283l.644-.046c.434-.03.908.125,1.259-.278l.36-.027c.419-.044.883.108,1.222-.283l.642-.046c.434-.029.907.125,1.259-.276l.332-.038c.43-.033.9.121,1.25-.276l.361-.031c.418-.044.883.108,1.221-.282l.649-.045c.431-.032.9.122,1.254-.278l.359-.028c.419-.044.883.108,1.222-.284l.643-.046c.434-.029.907.125,1.259-.276l.332-.038c.43-.033.9.121,1.25-.276l.361-.032c.418-.044.883.109,1.221-.282l.648-.045c.443-.037.944.142,1.264-.344q.039-.159.077-.318a.546.546,0,0,0-.03-.907c-.506-.446-.031-1.113-.36-1.6a.754.754,0,0,0-1.263.026.54.54,0,0,1-.666.219.547.547,0,0,0-.906.028l-.643.046c-.433.03-.906-.125-1.258.277l-.355.029c-.421.042-.887-.11-1.227.284l-.642.044c-.434.029-.907-.125-1.26.276l-.349.031c-.423.041-.891-.113-1.233.282l-.361.032c-.418.044-.883-.108-1.221.283l-.665.038c-.425.039-.895-.114-1.237.284l-.36.028c-.418.044-.882-.108-1.221.283l-.647.045c-.432.032-.9-.123-1.255.277l-.35.032c-.423.04-.891-.113-1.233.282l-.642.044c-.339,0-.693-.048-.941.269l-.668.039c-.423.04-.892-.113-1.233.284l-.36.029c-.419.044-.883-.108-1.222.282l-.648.045c-.431.032-.9-.123-1.254.278l-.359.028c-.419.044-.885-.109-1.223.285l-.642.044c-.434.029-.907-.125-1.259.276l-.35.031c-.423.04-.891-.113-1.233.282l-.361.032c-.419.044-.883-.108-1.221.282l-.665.039c-.425.039-.894-.114-1.237.283a10.414,10.414,0,0,1-3.927-1.512c-1.838-1.237-4.036-1.717-5.907-2.875v-.647c3.509-1.657,7.027-3.3,10.525-4.975,6.587-3.162,13.116-6.45,19.761-9.485,4.142-1.892,8.171-4.008,12.3-5.921a2.946,2.946,0,0,1,2.811-.013q15.3,7.38,30.642,14.691c3.565,1.7,7.141,3.386,10.708,5.086.51.243,1,.533,1.672.9a53.083,53.083,0,0,1-6.841,3.472c-6.886,3.387-13.829,6.66-20.756,9.962-2.751,1.311-5.535,2.551-8.274,3.885-1.533.747-3.058,1.492-4.656,2.1-.964.368-1.674,1.159-2.727,1.53a3.407,3.407,0,0,1-3.957-.878,1.272,1.272,0,0,0-.549-.306c-3.171-.855-5.8-2.878-8.838-4.063-3.45-1.345-6.712-3.177-10.047-4.812a4.524,4.524,0,0,0-3.926-.1" transform="translate(-1467.673 -18.473)" fill="#162e68"/>
  <path id="Path_4231" data-name="Path 4231" d="M1522.631,101.662a1.61,1.61,0,0,0,.339,1.023q3.832,4.463,7.655,8.934,5.777,6.721,11.561,13.435a16.386,16.386,0,0,1,2.957,3.789,3.009,3.009,0,0,1-2.039.638c-2.57-.067-5.172.21-7.7-.356-4.432-.993-8.963-1.716-12.883-4.294a4.064,4.064,0,0,1-2.135-3.882c.145-6.824.057-13.653.057-20.519.9.148,1.442.877,2.187,1.232" transform="translate(-1493.504 -61.966)" fill="#162e68"/>
  <path id="Path_4232" data-name="Path 4232" d="M1485.893,150.534c-.014-2-.052-4.006-.036-6.009.029-3.558,2.058-4.988,5.436-3.864-.03,1.634-.076,3.267-.087,4.9-.022,3.609-1.678,5.167-5.314,4.973" transform="translate(-1474.393 -84.023)" fill="#b13997"/>
  <path id="Path_4233" data-name="Path 4233" d="M1485.892,151c3.636.194,5.292-1.363,5.314-4.973.01-1.634.057-3.267.087-4.9a3.433,3.433,0,0,1,2.076,3.256c.079,2.15,0,4.306.033,6.459.01.753-.16,1.178-1.039,1.157-1.837-.045-3.676-.027-5.515-.005-.712.008-1.133-.183-.955-.993" transform="translate(-1474.392 -84.488)" fill="#761865"/>
</svg>
