<svg id="Group_152" data-name="Group 152" xmlns="http://www.w3.org/2000/svg" width="165.754" height="165.98" viewBox="0 0 165.754 165.98">
  <path id="Path_3990" data-name="Path 3990" d="M2617.28,15.39c3.068.385,4.864,2.4,6.369,4.863a23.17,23.17,0,0,1,2.941,9.811c.123,1.123.6,1.482,1.509,1.4,3.984-.346,9.321,5.1,9.345,9.3.013,2.4.2,4.845.2,7.266q.034,60.378.018,120.756c0,5.987-3.08,10.188-8.192,11.8a5.115,5.115,0,0,1-1.582.245q-73.245.014-146.489.005c-2.8,0-7.3-2.4-9.119-7.33a6.694,6.694,0,0,1-.372-2.389q.01-64.887.013-129.775a9.554,9.554,0,0,1,5.036-8.528,7.157,7.157,0,0,1,3.9-1.37c2.076.027,1.851-1.71,2.085-3.044.709-4.033,1.7-7.954,4.818-10.905a7.477,7.477,0,0,1,5.863-2.35c.119.389.407.3.682.238,3.068.376,4.865,2.4,6.361,4.852a22.706,22.706,0,0,1,2.945,9.956c.1,1.076.623,1.078,1.247.92s1.646.755,1.848-.819c.505-3.956,1.272-7.889,3.685-11.205,1.77-2.433,4.086-4.063,7.292-3.942.119.389.407.3.682.238,3.068.382,4.864,2.4,6.366,4.859a23.859,23.859,0,0,1,2.957,9.8c.1.805.184,1.121,1.1,1.12q25.873-.044,51.747,0c.807,0,.919-.239,1.031-1.012.562-3.9,1.292-7.782,3.679-11.055,1.777-2.436,4.088-4.068,7.3-3.95.119.389.407.3.682.238,3.068.376,4.865,2.4,6.361,4.852a22.712,22.712,0,0,1,2.945,9.956c.1,1.076.623,1.078,1.247.92s1.647.755,1.848-.819c.505-3.956,1.272-7.889,3.685-11.205,1.769-2.433,4.086-4.063,7.292-3.942.119.389.407.3.682.238m-134.322,129.7a7.233,7.233,0,0,1-.353-2.781q.009-33.568,0-67.137c0-3.984,0-3.945-3.973-3.949-1.068,0-1.4.257-1.4,1.371q.049,48.933.013,97.866a3.9,3.9,0,0,0,.667,2.326,5.535,5.535,0,0,0,4.755,2.738q71.985-.046,143.97-.023a3.25,3.25,0,0,0,.833-.017c1.589-.435,3.2-.857,3.872-2.639a5.669,5.669,0,0,0,.969-3.851q0-47.108,0-94.215c0-3.531,0-3.439-3.515-3.57-1.571-.059-1.867.443-1.865,1.915.044,29.178.011,58.355.053,87.533.007,5.219-2.111,9.033-6.753,11.431a24.924,24.924,0,0,1-4.369.761q-51.623-.038-103.246-.011a6.025,6.025,0,0,1-2.27-.364,7.193,7.193,0,0,0-.6-.779q-12.252-12.235-24.523-24.45a9.683,9.683,0,0,0-2.275-2.153M2480.244,37.1a4.575,4.575,0,0,0-2.937,4.051c-.083,7.9-.032,15.8-.055,23.693,0,.776.22,1.09,1.035,1.066,2.111-.062,4.224-.056,6.336-.078.667.022,1.333.063,2,.063q71.816,0,143.631,0a6.577,6.577,0,0,1,.834.005c.911.118,1.255-.193,1.25-1.179-.038-7.515.032-15.03-.045-22.544-.035-3.514-2.39-5.672-5.916-5.683-4.287-.014-8.574,0-12.86,0-2.635,0-2.76.026-2.217,2.563.574,2.687,1.138,5.624,3.458,7.3,1.534,1.106,1.564,2.25,1.519,3.706-.056,1.819-1.234,2.587-2.885,1.845a10.651,10.651,0,0,1-4.2-3.834c-2.2-3.088-2.949-6.691-3.532-10.306-.185-1.148-.551-1.3-1.52-1.289-4.9.036-9.8.017-14.7.017-2.629,0-2.755.027-2.206,2.574.58,2.684,1.137,5.628,3.465,7.294,1.545,1.106,1.549,2.262,1.509,3.71-.049,1.818-1.24,2.584-2.892,1.83a10.721,10.721,0,0,1-4.193-3.838,22.236,22.236,0,0,1-3.484-10.145c-.207-1.52-.859-1.435-1.908-1.435q-32.568.021-65.135.011c-2.635,0-2.756.025-2.218,2.563.557,2.634,1.123,5.492,3.334,7.195,1.631,1.257,1.774,2.593,1.646,4.28-.041.554-.043,1.11-.063,1.666-.427.039-.894-.126-1.254.248-2.6-.536-4.28-2.287-5.741-4.324-2.235-3.116-2.986-6.77-3.569-10.435-.171-1.074-.509-1.214-1.418-1.208-4.887.033-9.774.016-14.66.016-2.841,0-2.98.033-2.324,2.764.612,2.547,1.144,5.364,3.333,7.008a4.008,4.008,0,0,1,1.639,4.1c-.051.607-.045,1.218-.065,1.828-.427.039-.894-.126-1.254.248-2.6-.542-4.291-2.286-5.748-4.338-2.259-3.18-3.009-6.888-3.588-10.624-.171-1.1-.582-1.2-1.377-.8-.339.167-.813-.011-1.031.419M2584.2,167.419c10.392.021,20.783.02,31.175.086a6.492,6.492,0,0,0,3.85-1.02l.388-.278a6.347,6.347,0,0,0,2.011-5.107q0-44.014.037-88.027c0-1.549-.422-1.86-1.9-1.858q-64.982.062-129.962.033a6.12,6.12,0,0,1-.835-.006c-.8-.111-1.064.2-1.028,1.01.075,1.666.058,3.337.078,5.006a2.061,2.061,0,0,0-.055.329q-.006,30.986-.036,61.972c0,1.148.449,1.214,1.358,1.208,4.788-.035,9.578-.025,14.366-.013a11.069,11.069,0,0,1,7.778,3.262c2.465,2.334,3.216,5.361,3.25,8.608.045,4.4.079,8.8-.028,13.195-.034,1.422.371,1.7,1.731,1.7q33.16-.07,66.32-.036c.5,0,1-.038,1.5-.059M2492.314,146.1l17.019,17.032c0-3.789.326-7.854-.093-11.84-.41-3.9-1.967-4.835-5.422-5.117-3.961-.323-7.969-.075-11.5-.075m.823-114.945h2.165c3.14,0,3.218-.014,2.656-3.052a11.8,11.8,0,0,0-3.24-6.761c-1.133-1.074-2.069-1.054-3.185.065-2.484,2.489-2.846,5.782-3.57,8.948-.157.684.236.825.846.811,1.442-.033,2.886-.01,4.329-.01m24.053,0h2.165c3.145,0,3.223-.014,2.662-3.046a11.642,11.642,0,0,0-3.357-6.878,1.869,1.869,0,0,0-2.948.052c-2.586,2.486-2.959,5.843-3.691,9.064-.154.677.221.833.84.818,1.442-.035,2.886-.011,4.329-.011m74.837,0h2.165c3.155,0,3.232-.014,2.679-3.029a11.819,11.819,0,0,0-3.224-6.769c-1.125-1.071-2.05-1.1-3.187.031-2.5,2.482-2.842,5.785-3.583,8.943-.154.654.179.853.822.836,1.442-.04,2.886-.013,4.329-.012m24.06,0h2.165c3.155,0,3.232-.014,2.679-3.029a11.819,11.819,0,0,0-3.224-6.769c-1.125-1.071-2.05-1.1-3.187.031-2.5,2.482-2.842,5.785-3.583,8.943-.153.654.18.853.823.836,1.442-.04,2.886-.013,4.329-.012" transform="translate(-2471.912 -14.865)"/>
  <path id="Path_3991" data-name="Path 3991" d="M2575.086,15.062c-.275.057-.563.15-.682-.239.445-.543.591-.228.682.239" transform="translate(-2528.632 -14.538)" fill="#fefefe"/>
  <path id="Path_3992" data-name="Path 3992" d="M2742.7,15.062c-.276.057-.563.15-.682-.239.445-.543.59-.228.682.239" transform="translate(-2621.389 -14.538)" fill="#fefefe"/>
  <path id="Path_3993" data-name="Path 3993" d="M2796.572,15.062c-.275.057-.563.15-.682-.239.445-.543.59-.228.682.239" transform="translate(-2651.205 -14.538)" fill="#fefefe"/>
  <path id="Path_3994" data-name="Path 3994" d="M2521.211,15.062c-.276.057-.563.15-.682-.239.445-.543.591-.228.682.239" transform="translate(-2498.817 -14.538)" fill="#fefefe"/>
  <path id="Path_3995" data-name="Path 3995" d="M2639.084,235.984a6.491,6.491,0,0,1-3.85,1.021c-10.391-.066-20.783-.066-31.174-.086a.653.653,0,0,0-.5-.583,109.824,109.824,0,0,1-13.571-4.7c-1.721-.717-3.752-.94-4.982-2.621a12.764,12.764,0,0,0,6.541-1.695,1.147,1.147,0,0,1,1.442.038,9.517,9.517,0,0,0,8.7,1.075c5.005-1.714,7.69-5.356,7.7-11.415q.041-23.033,0-46.066c0-.792.045-1.369.916-1.8a7.8,7.8,0,0,0,3.9-9.444c-.966-3.425-4.155-5.531-7.936-5.575-4.506-.053-9.017.1-13.519-.048-3.576-.116-6.739.517-9.076,3.476l-.231.023.231.208-.346.978c-.177.053-.34.113-.24.354-.91,3.8-.693,6.275,2.22,9.043.054.18.127.332.362.258.691.974,2.431.761,2.4,2.685-.129,7.738-.05,15.479-.066,23.219,0,.389.244.893-.283,1.172-.113-.047-.251-.059-.3-.13-2.689-4.2-5.38-8.4-8.316-12.437-.76-1.046-1.846-2.068-1.818-3.693.09-5.177.057-10.357.015-15.535a3.134,3.134,0,0,1,1.195-2.57c.705-.6,1.445-1.154,2.169-1.728.238.068.313-.075.351-.269a8.9,8.9,0,0,0,1.167-7.358c-1.121-3.689-4.079-5.565-7.874-5.654-4.67-.109-9.344.021-14.016-.047a13.059,13.059,0,0,0-6.03,1.1c-.529-.162-.678.134-.7.581a3.783,3.783,0,0,0-1.309,1.336c-.153.294-1.359-.44-.665.681.111.4-.195.661-.343.973-.177.053-.34.113-.239.354-.91,3.8-.694,6.27,2.218,9.044.054.18.128.333.363.259,2.336.864,2.464,2.689,2.389,4.849-.147,4.277-.08,8.563-.021,12.844a5.5,5.5,0,0,1-1.082,3.324q-6.327,9.228-12.607,18.488a44.37,44.37,0,0,1-4.528-4.613,136.706,136.706,0,0,1-14.994-19.4,146.067,146.067,0,0,1-13.065-25.565c-.468-1.211-.4-2.8-1.805-3.566-.021-1.669,0-3.34-.079-5.006-.037-.811.23-1.121,1.028-1.01a6.111,6.111,0,0,0,.834.006q64.982,0,129.963-.033c1.476,0,1.9.309,1.9,1.858q-.079,44.014-.037,88.027a6.35,6.35,0,0,1-2.011,5.107c-.246-.07-.319.1-.389.278" transform="translate(-2491.771 -84.365)" fill="#edeeed"/>
  <path id="Path_3996" data-name="Path 3996" d="M2527.628,78.648c.02-.555.021-1.112.064-1.666.127-1.686-.015-3.023-1.647-4.279-2.211-1.7-2.776-4.561-3.334-7.2-.538-2.538-.417-2.563,2.218-2.563q32.567,0,65.135-.01c1.05,0,1.7-.086,1.908,1.435a22.241,22.241,0,0,0,3.484,10.145,10.726,10.726,0,0,0,4.193,3.838c1.652.754,2.843-.013,2.892-1.83.04-1.448.037-2.6-1.509-3.71-2.327-1.666-2.885-4.61-3.465-7.294-.551-2.546-.423-2.574,2.205-2.574,4.9,0,9.8.019,14.7-.016.969-.007,1.335.141,1.52,1.289.584,3.615,1.331,7.218,3.532,10.306a10.649,10.649,0,0,0,4.2,3.834c1.65.741,2.829-.026,2.884-1.845.044-1.457.014-2.6-1.519-3.706-2.32-1.673-2.884-4.611-3.458-7.3-.542-2.537-.417-2.563,2.217-2.563,4.287,0,8.573-.01,12.86,0,3.525.011,5.881,2.169,5.917,5.683.077,7.514.006,15.03.045,22.545,0,.986-.339,1.3-1.25,1.179a6.575,6.575,0,0,0-.834-.005q-71.816,0-143.631,0c-.667,0-1.334-.041-2-.063-.375-3.688-1.523-7.221-2.18-10.858a156.371,156.371,0,0,1-2.2-17.875c.219-.43.692-.251,1.031-.419.8-.393,1.207-.3,1.377.8.579,3.735,1.33,7.444,3.588,10.624,1.458,2.051,3.15,3.8,5.749,4.338.419-.078.943.368,1.255-.249.02-.609.014-1.221.065-1.828a4.01,4.01,0,0,0-1.641-4.1c-2.188-1.644-2.72-4.461-3.332-7.008-.656-2.731-.517-2.765,2.325-2.765,4.886,0,9.773.017,14.66-.015.909-.006,1.247.134,1.418,1.208.584,3.665,1.334,7.319,3.569,10.435,1.461,2.037,3.145,3.788,5.741,4.324.419-.078.942.368,1.254-.249m58.425,8.345c5.252-.042,8.333-3.463,8.363-7.916.033-4.913-3.16-7.916-8.312-8.063-3.913-.112-7.661,3.641-7.682,8.043-.019,4.093,3.913,8.109,7.63,7.936m-50.34-8.072c-.362,4.21,3.781,8.088,7.43,8.082,5.03-.008,8.36-3.107,8.495-7.79.133-4.64-2.8-8.065-8.339-8.2a7.808,7.808,0,0,0-7.586,7.907m29.759-7.622a7.621,7.621,0,0,0-8.4,8.132c.239,3.4,3.917,7.8,7.929,7.575,5.116-.281,7.915-3.544,8.047-7.935.136-4.528-3.6-8.22-7.573-7.772" transform="translate(-2482.237 -41.313)" fill="#d4483e"/>
  <path id="Path_3997" data-name="Path 3997" d="M2507.865,154.246c1.408.769,1.337,2.356,1.8,3.566a146.107,146.107,0,0,0,13.065,25.566,136.7,136.7,0,0,0,14.993,19.4,44.257,44.257,0,0,0,4.528,4.613c-1.375,2.084-2.637,4.255-4.15,6.234-2.968,3.882-4.422,8.061-3.211,12.955,1.255,5.07,6.663,9.908,12.356,9.888,12.583-.046,25.166.014,37.749.03,1.231,1.681,3.262,1.9,4.983,2.62a109.664,109.664,0,0,0,13.57,4.7.654.654,0,0,1,.5.583c-.5.021-1,.059-1.5.059q-33.16,0-66.32.036c-1.361,0-1.766-.274-1.732-1.7.107-4.4.073-8.8.028-13.195-.033-3.248-.784-6.275-3.249-8.608a11.07,11.07,0,0,0-7.777-3.262c-4.789-.012-9.578-.022-14.366.013-.909.007-1.361-.059-1.359-1.208q.064-30.986.037-61.972a1.9,1.9,0,0,1,.056-.329" transform="translate(-2491.758 -91.853)" fill="#dfe0df"/>
  <path id="Path_3998" data-name="Path 3998" d="M2637.951,242.35c-.674,1.782-2.283,2.2-3.872,2.639a3.25,3.25,0,0,1-.833.017q-71.985,0-143.97.023a5.534,5.534,0,0,1-4.754-2.738,3.888,3.888,0,0,1-.667-2.325q.029-48.933-.013-97.866c0-1.115.33-1.373,1.4-1.372,3.973,0,3.973-.035,3.973,3.949q0,33.568,0,67.137a7.24,7.24,0,0,0,.353,2.781c-.749.673-.088,1.088.312,1.489q12.784,12.807,25.593,25.59c.4.4.822,1.054,1.49.3a6.018,6.018,0,0,0,2.27.364q51.623-.015,103.246.011a24.985,24.985,0,0,0,4.369-.761c.277.468.745.372,1.179.421a95.514,95.514,0,0,0,9.933.337" transform="translate(-2478.514 -84.373)" fill="#9d9e9d"/>
  <path id="Path_3999" data-name="Path 3999" d="M2815.152,242.325a95.514,95.514,0,0,1-9.933-.337c-.434-.049-.9.047-1.179-.421,4.642-2.4,6.76-6.212,6.753-11.431-.041-29.178-.008-58.355-.053-87.533,0-1.472.293-1.973,1.865-1.915,3.511.131,3.515.039,3.515,3.57q0,47.107,0,94.215a5.674,5.674,0,0,1-.969,3.852" transform="translate(-2655.715 -84.348)" fill="#bcbdbc"/>
  <path id="Path_4000" data-name="Path 4000" d="M2517.6,308.275c3.536,0,7.544-.248,11.5.075,3.456.282,5.013,1.217,5.422,5.117.419,3.986.093,8.051.093,11.84L2517.6,308.275" transform="translate(-2497.195 -177.044)" fill="#bcbdbc"/>
  <path id="Path_4001" data-name="Path 4001" d="M2486.861,64.333a156.427,156.427,0,0,0,2.2,17.875c.657,3.636,1.8,7.169,2.18,10.858-2.113.021-4.225.016-6.336.078-.815.024-1.037-.29-1.035-1.066.024-7.9-.028-15.8.056-23.693a4.573,4.573,0,0,1,2.936-4.051" transform="translate(-2478.529 -42.095)" fill="#c33e37"/>
  <path id="Path_4002" data-name="Path 4002" d="M2523.618,333.513c-.667.75-1.088.1-1.49-.3q-12.808-12.783-25.593-25.59c-.4-.4-1.061-.816-.311-1.489a9.686,9.686,0,0,1,2.275,2.153q12.281,12.205,24.523,24.451a7.116,7.116,0,0,1,.6.779" transform="translate(-2485.178 -175.907)" fill="#868686"/>
  <path id="Path_4003" data-name="Path 4003" d="M2572,98.133c-.312.617-.836.171-1.255.248.36-.375.827-.209,1.255-.248" transform="translate(-2526.606 -60.798)" fill="#020202"/>
  <path id="Path_4004" data-name="Path 4004" d="M2518.123,98.133c-.312.617-.836.171-1.254.248.36-.375.827-.209,1.254-.248" transform="translate(-2496.791 -60.798)" fill="#020202"/>
  <path id="Path_4005" data-name="Path 4005" d="M2801.775,353.676c.07-.177.143-.348.389-.278l-.389.278" transform="translate(-2654.461 -202.057)" fill="#020202"/>
  <path id="Path_4006" data-name="Path 4006" d="M2618.079,235.646c-12.583-.017-25.166-.075-37.749-.03-5.693.021-11.1-4.818-12.356-9.888-1.211-4.894.243-9.073,3.212-12.956,1.512-1.979,2.774-4.149,4.15-6.233q6.3-9.247,12.607-18.488a5.511,5.511,0,0,0,1.082-3.324c-.059-4.281-.126-8.567.021-12.844.074-2.159-.053-3.985-2.39-4.848l-.364-.259c-2.912-2.774-3.128-5.249-2.218-9.044q.12-.176.24-.353c.148-.313.454-.57.343-.974a.6.6,0,0,0,.665-.681,3.791,3.791,0,0,1,1.309-1.336c.406.013.668-.146.7-.581a13.053,13.053,0,0,1,6.03-1.1c4.671.068,9.346-.062,14.016.047,3.795.089,6.752,1.965,7.873,5.653a8.9,8.9,0,0,1-1.167,7.358l-.351.269c-.724.574-1.464,1.131-2.169,1.728a3.135,3.135,0,0,0-1.195,2.57c.042,5.178.075,10.358-.014,15.535-.028,1.625,1.058,2.646,1.817,3.692,2.937,4.042,5.627,8.236,8.316,12.437.046.071.185.083.3.131.528-.28.283-.783.283-1.172.017-7.74-.063-15.482.066-23.22.032-1.923-1.708-1.71-2.4-2.684l-.362-.259c-2.912-2.769-3.13-5.248-2.22-9.043l.24-.353.344-.978c0-.077,0-.154,0-.23,2.338-2.96,5.5-3.592,9.076-3.477,4.5.146,9.013,0,13.519.048,3.781.045,6.97,2.15,7.936,5.575a7.8,7.8,0,0,1-3.9,9.444c-.87.434-.916,1.011-.916,1.8q.021,23.033,0,46.066c-.01,6.058-2.695,9.7-7.7,11.415a9.519,9.519,0,0,1-8.7-1.075,1.147,1.147,0,0,0-1.442-.038,12.756,12.756,0,0,1-6.541,1.695m-23.716-72.3c4.391.025,8.783.078,13.175.06a2.556,2.556,0,0,0,2.552-2.572c.205-1.725-.871-2.659-3.227-2.716-5.055-.121-10.117,0-15.175.016-1.792.142-2.679,1.012-2.674,2.622a2.491,2.491,0,0,0,2.695,2.652c.884.023,1.77-.039,2.655-.063m29.4,2.807c-1.791.142-2.679,1.012-2.674,2.623a2.491,2.491,0,0,0,2.7,2.652c.884.023,1.77-.039,2.654-.063,4.331.025,8.661.072,12.992.065a2.684,2.684,0,1,0-.01-5.324c-5.219-.009-10.438.028-15.657.047m5.344,10.689c-2.683-.138-2.683-.138-2.683,2.486q0,20.782,0,41.564c0,1.613-.056,3.232.046,4.839a5.021,5.021,0,0,0,7.343,3.875c2.207-.84,3.294-2.6,3.3-5.44q.018-10.419,0-20.84c0-8.391-.019-16.783.024-25.174.005-1.074-.259-1.439-1.37-1.388-2.218.1-4.443.062-6.664.079m-32.079-8.019c-2.684-.138-2.684-.138-2.684,2.436,0,4.988-.007,9.977.007,14.965a7.478,7.478,0,0,1-.333,2.6l-3.763,5.683-.263.4-.41.6-.247.269a43.118,43.118,0,0,0-3.328,5.11,64.176,64.176,0,0,1,9.235.411c5.3.317,9.556,4.037,14.877,4.569,2.289.229,4.5.111,7.158.391-4.106-5.216-7.115-10.611-10.789-15.552a7.3,7.3,0,0,1-1.49-4.726c.108-5.284.008-10.573.063-15.858.012-1.076-.25-1.429-1.361-1.376-2.221.105-4.448.062-6.673.08m-20.407,46.02a9.12,9.12,0,0,0-.513,13.833c2.287,1.688,4.67,1.657,7.2,1.52l35.752.031a3.684,3.684,0,0,0,.5.006c2.027-.276,2.471-.864,1.787-2.732a8.385,8.385,0,0,1-.252-2.932c-.048-3.675-.1-7.353.018-11.025.054-1.644-.485-2.044-2.073-2.049-3.908-.015-7.837.409-11.715-.6a69.022,69.022,0,0,1-8.062-3.008c-5.308-2.111-10.908-1.638-16.443-1.689a.9.9,0,0,0-.916.48c-1.724,2.745-3.515,5.448-5.284,8.165" transform="translate(-2524.838 -91.001)"/>
  <path id="Path_4007" data-name="Path 4007" d="M2606.26,159.465a.6.6,0,0,1-.665.682c-.694-1.121.512-.387.665-.682" transform="translate(-2545.775 -94.742)" fill="#020202"/>
  <path id="Path_4008" data-name="Path 4008" d="M2610.981,155.117c-.033.436-.3.594-.7.581.023-.447.172-.743.7-.581" transform="translate(-2548.486 -92.31)" fill="#020202"/>
  <path id="Path_4009" data-name="Path 4009" d="M2677.413,178.422q0,.115,0,.23l-.231-.208Z" transform="translate(-2585.51 -105.233)" fill="#020202"/>
  <path id="Path_4010" data-name="Path 4010" d="M2676.59,181.127l-.239.353c-.1-.24.063-.3.239-.353" transform="translate(-2585.033 -106.73)" fill="#020202"/>
  <path id="Path_4011" data-name="Path 4011" d="M2670.969,182.222l.351-.269c-.037.194-.113.337-.351.269" transform="translate(-2582.072 -107.187)" fill="#020202"/>
  <path id="Path_4012" data-name="Path 4012" d="M2609.522,184.213l.364.259c-.236.074-.31-.079-.364-.259" transform="translate(-2548.067 -108.437)" fill="#020202"/>
  <path id="Path_4013" data-name="Path 4013" d="M2604.757,163.17l-.239.353c-.1-.24.063-.3.239-.353" transform="translate(-2545.28 -96.792)" fill="#020202"/>
  <path id="Path_4014" data-name="Path 4014" d="M2681.359,202.168l.363.259c-.235.074-.308-.079-.363-.259" transform="translate(-2587.822 -118.374)" fill="#020202"/>
  <path id="Path_4015" data-name="Path 4015" d="M2694.92,97.018c-3.717.174-7.649-3.842-7.63-7.935.02-4.4,3.769-8.155,7.681-8.044,5.152.147,8.345,3.15,8.312,8.063-.03,4.453-3.11,7.874-8.363,7.916m.186-5.347a3.025,3.025,0,0,0,2.928-2.544,2.952,2.952,0,0,0-2.858-2.782,2.673,2.673,0,0,0-.07,5.326" transform="translate(-2591.104 -51.339)"/>
  <path id="Path_4016" data-name="Path 4016" d="M2591.627,88.948a7.808,7.808,0,0,1,7.586-7.907c5.535.134,8.472,3.559,8.339,8.2-.135,4.683-3.465,7.782-8.5,7.79-3.648.006-7.791-3.872-7.429-8.082m7.882,2.729a3,3,0,0,0,2.8-2.68,2.964,2.964,0,0,0-2.989-2.645,2.674,2.674,0,0,0,.19,5.324" transform="translate(-2538.151 -51.34)"/>
  <path id="Path_4017" data-name="Path 4017" d="M2647.855,81.635c3.972-.447,7.709,3.243,7.573,7.772-.132,4.391-2.932,7.654-8.047,7.935-4.012.221-7.689-4.176-7.929-7.576a7.621,7.621,0,0,1,8.4-8.131m-.747,5.343c-2.06.005-2.29.248-2.276,2.408.011,1.757.84,2.65,2.424,2.609a2.508,2.508,0,0,0,2.584-2.7c0-1.791-.629-2.321-2.732-2.315" transform="translate(-2564.62 -51.65)"/>
  <path id="Path_4018" data-name="Path 4018" d="M2586.62,281.114c1.769-2.717,3.56-5.42,5.284-8.165a.9.9,0,0,1,.917-.48c5.535.051,11.135-.422,16.443,1.689a69.04,69.04,0,0,0,8.063,3.008c3.877,1.009,7.807.585,11.714.6,1.588.006,2.127.405,2.074,2.049-.12,3.672-.066,7.35-.018,11.025a8.391,8.391,0,0,0,.252,2.932c.684,1.868.24,2.456-1.787,2.732a3.684,3.684,0,0,1-.5-.006l-35.752-.031c-.247-.114-.488-.238-.739-.341a10.817,10.817,0,0,1-6.965-10.51c0-1.608.885-2.958,1.015-4.5" transform="translate(-2534.831 -157.272)" fill="#6dc2f1"/>
  <path id="Path_4019" data-name="Path 4019" d="M2613.142,214.37l3.763-5.683c1.7-1.381,3.035-2.932,3.014-5.331-.044-4.889-.007-9.778,0-14.667,2.225-.018,4.452.025,6.673-.08,1.11-.053,1.373.3,1.361,1.376-.056,5.286.045,10.574-.064,15.858a7.308,7.308,0,0,0,1.49,4.726c3.674,4.942,6.683,10.335,10.789,15.552-2.654-.28-4.869-.163-7.157-.391-5.322-.532-9.576-4.252-14.878-4.569a64.179,64.179,0,0,0-9.235-.411,43.19,43.19,0,0,1,3.328-5.11c.231.047.327-.03.246-.269l.411-.6c.175-.075.351-.149.263-.4" transform="translate(-2547.719 -110.867)" fill="#dfe0df"/>
  <path id="Path_4020" data-name="Path 4020" d="M2705.394,206.649c2.221-.018,4.446.022,6.664-.079,1.112-.051,1.375.314,1.37,1.388-.043,8.391-.023,16.783-.023,25.174q0,10.42,0,20.84c0,2.842-1.093,4.6-3.3,5.44a7.446,7.446,0,0,1-4.713-6.951q-.008-22.905.005-45.811" transform="translate(-2601.119 -120.807)" fill="#95c894"/>
  <path id="Path_4021" data-name="Path 4021" d="M2702.062,206.695q-.005,22.905-.005,45.811a7.446,7.446,0,0,0,4.713,6.951,5.021,5.021,0,0,1-7.344-3.874c-.1-1.608-.046-3.226-.046-4.839q0-20.782,0-41.564c0-2.624,0-2.624,2.683-2.485" transform="translate(-2597.786 -120.853)" fill="#7bb873"/>
  <path id="Path_4022" data-name="Path 4022" d="M2693.4,182.758c5.219-.019,10.438-.056,15.656-.047a2.684,2.684,0,1,1,.01,5.324c-4.331.008-8.66-.039-12.991-.064-1.3-1.529-2.952-2.875-2.676-5.212" transform="translate(-2594.468 -107.605)" fill="#dfe0df"/>
  <path id="Path_4023" data-name="Path 4023" d="M2621.564,164.776c5.059-.02,10.12-.136,15.175-.015,2.356.056,3.433.991,3.228,2.716a2.556,2.556,0,0,1-2.552,2.572c-4.391.018-8.783-.035-13.175-.06-1.3-1.526-2.951-2.876-2.676-5.213" transform="translate(-2554.714 -97.643)" fill="#dfe0df"/>
  <path id="Path_4024" data-name="Path 4024" d="M2629.843,188.736c0,4.889-.041,9.779,0,14.667.021,2.4-1.309,3.951-3.013,5.331a7.465,7.465,0,0,0,.333-2.6c-.014-4.988-.007-9.977-.007-14.965,0-2.575,0-2.575,2.684-2.436" transform="translate(-2557.647 -110.915)" fill="#bcbdbc"/>
  <path id="Path_4025" data-name="Path 4025" d="M2583.265,291.842c-.13,1.545-1.013,2.9-1.015,4.5a10.817,10.817,0,0,0,6.965,10.51c.251.1.492.226.739.341-2.533.137-4.915.168-7.2-1.52a9.119,9.119,0,0,1,.513-13.833" transform="translate(-2531.476 -168)" fill="#47a6eb"/>
  <path id="Path_4026" data-name="Path 4026" d="M2690.122,182.818c-.277,2.337,1.376,3.683,2.675,5.212-.885.024-1.771.086-2.655.063a2.491,2.491,0,0,1-2.695-2.652c0-1.61.882-2.48,2.674-2.623" transform="translate(-2591.191 -107.665)" fill="#bcbdbc"/>
  <path id="Path_4027" data-name="Path 4027" d="M2618.288,164.862c-.275,2.336,1.372,3.687,2.676,5.213-.885.023-1.771.085-2.655.062a2.491,2.491,0,0,1-2.695-2.652c0-1.61.883-2.48,2.674-2.623" transform="translate(-2551.438 -97.728)" fill="#bcbdbc"/>
  <path id="Path_4028" data-name="Path 4028" d="M2618.081,246.3c.088.248-.088.322-.263.4l.263-.4" transform="translate(-2552.658 -142.796)" fill="#020202"/>
  <path id="Path_4029" data-name="Path 4029" d="M2616.593,248.544c.081.239-.015.316-.247.269l.247-.269" transform="translate(-2551.843 -144.039)" fill="#020202"/>
  <path id="Path_4030" data-name="Path 4030" d="M2701.811,98.248a2.673,2.673,0,0,1,.07-5.326,2.952,2.952,0,0,1,2.858,2.782,3.025,3.025,0,0,1-2.928,2.544" transform="translate(-2597.81 -57.916)" fill="#f3bf42"/>
  <path id="Path_4031" data-name="Path 4031" d="M2606.165,98.258a2.674,2.674,0,0,1-.19-5.324,2.964,2.964,0,0,1,2.989,2.645,3,3,0,0,1-2.8,2.68" transform="translate(-2544.808 -57.921)" fill="#f3bf42"/>
  <path id="Path_4032" data-name="Path 4032" d="M2653.8,93.646c2.1-.006,2.729.524,2.732,2.315a2.507,2.507,0,0,1-2.584,2.7c-1.584.041-2.414-.852-2.424-2.609-.014-2.16.216-2.4,2.276-2.408" transform="translate(-2571.309 -58.317)" fill="#f3bf42"/>
</svg>
