<svg id="Group_153" data-name="Group 153" xmlns="http://www.w3.org/2000/svg" width="165.582" height="164.848" viewBox="0 0 165.582 164.848">
  <path id="Path_3957" data-name="Path 3957" d="M3105.995,51.965c2.056,1.229,4.142,2.411,6.16,3.7,1.76,1.125,2.46,4.2,1.561,6.214a46.012,46.012,0,0,1-3.251,5.426c-.353.568-.346.652.173,1.05a14.449,14.449,0,0,1,4.439,4.99c-.07.241.072.314.27.343a14.915,14.915,0,0,0,4.2,5.7,41,41,0,0,1,6.564,7.879,3.687,3.687,0,0,1,.675,1.782c.022.376.3.527.588.673a39.823,39.823,0,0,1,5.365,13.32,49.656,49.656,0,0,1,1.034,8.583,54.185,54.185,0,0,1-3.385,21.784,55.533,55.533,0,0,1-8.607,15.432,58.91,58.91,0,0,1-23.085,17.827,49.623,49.623,0,0,1-14.441,3.947,39.275,39.275,0,0,1-5.511.624c-.875-.029-.79.46-.825,1.042-.109,1.806.206,3.61-.288,5.427a5.427,5.427,0,0,1-5.18,4.239q-45.258.007-90.515-.036a12.087,12.087,0,0,1-7.819-3.067,15.194,15.194,0,0,1-5.533-8.8,21.561,21.561,0,0,1,.2-8.312c.624-3.132.947-6.3,1.534-9.439.725-3.871,1.349-7.762,1.963-11.653.506-3.21.9-6.438,1.4-9.648.67-4.271,1.406-8.533,2.1-12.8q.8-4.89,1.565-9.785a53.387,53.387,0,0,1,.869-5.29c.327-1.238-.033-1.463-1.118-1.372-4.058.339-6.718-1.609-8.381-5.168a3.848,3.848,0,0,1-.388-1.722c.037-4.342.006-8.684.02-13.027.008-2.611,3.312-6.326,5.965-6.424a43.42,43.42,0,0,1,4.634-.4c-.645-1.895-2.282-3.283-2.362-5.346.091-.241-.009-.305-.235-.252-1.359-2.12-1.766-4.58-2.3-6.955a32.655,32.655,0,0,1-.314-9.75,32.389,32.389,0,0,1,4.229-13.272,33.752,33.752,0,0,1,25.318-17.315,36.577,36.577,0,0,1,16.925,1.672,33.808,33.808,0,0,1,19.626,18,35.621,35.621,0,0,1,3.052,12.161c.481,5.363-.718,10.389-2.388,15.378-.18.042-.342.1-.236.337-.607,1.311-1.165,2.649-1.838,3.925-.552,1.046-.407,1.461.85,1.448A12.2,12.2,0,0,1,3043,75.3a1.805,1.805,0,0,0,2.246-1.108A20.507,20.507,0,0,1,3046.589,72l.257-.241c2.2-3.617,4.377-7.244,6.6-10.849,1.563-2.541,3.2-5.036,4.761-7.579,2.032-3.313,4.026-6.649,6.022-9.984,1.481-2.473,2.939-4.959,4.406-7.439l.273-.334c2.15-2.648,4.892-2.983,8.172-1a16.389,16.389,0,0,1,2.468,1.513c1.412,1.248,2.424,1.07,3.227-.6.1.026.087.338.283.109l-.231-.17c.555-.727.656-1.093-.418-1.644-2.953-1.514-4.886-5.15-1.83-8.774a40.962,40.962,0,0,0,3.788-5.239,5.52,5.52,0,0,1,7.309-2.009c4.26,2.4,8.475,4.872,12.7,7.33q6.971,4.057,13.927,8.14a7.1,7.1,0,0,1,3.282,3.067,4.993,4.993,0,0,1-.714,5.335c-1.878,2.456-3.48,5.136-5.711,7.3a4.5,4.5,0,0,1-5.376.885c-.758-.342-1.642-1.379-2.212-1.077-.951.5-1.285,1.769-1.574,2.87l-.247.123.25.23m-19.759-12.041-.371.227.477.084q6.256,3.727,12.51,7.454c2.394,1.43,2.341,1.409,3.589-1.015.392-.761.295-1.029-.411-1.434-3.941-2.259-7.84-4.595-11.781-6.855-2.364-1.355-2.425-1.306-3.9,1.057a1.576,1.576,0,0,0-.114.481m-101.2,42.059c-.055-.622.053-1.423-1.017-.917a2.554,2.554,0,0,0-1.913-.731c-1.833.078-3.672.008-5.508.03-2.008.024-2.9.913-2.917,2.953-.025,3.116-.009,6.233-.007,9.349,0,3.05.667,3.732,3.651,3.732q28.964,0,57.927,0a6.35,6.35,0,0,0,1.167-.016c1.324-.251,2.363-1.9,1.679-2.736a7.224,7.224,0,0,0-1.971-1.7,4.715,4.715,0,0,1-2.107-6.6c.9-1.687,2-3.269,3.144-5.121-1.613.44-3.165-.483-4.374.684a36.881,36.881,0,0,1-12.172,7.875,33.906,33.906,0,0,1-35.582-6.8M3085,97.732l.271-.337c.351-.648.629-1.11-.028-1.935-5.3-6.655-6.312-13.868-2.322-21.517a17.974,17.974,0,0,1,5.27-6.038c3.484-2.62,7.488-3.432,11.656-3.5a12.8,12.8,0,0,1,4.616.84.977.977,0,0,0,1.344-.532c.768-1.37,1.679-2.658,2.519-3.987.427-.677.319-1.013-.481-1.489q-16.485-9.825-32.893-19.78c-1.1-.667-1.882-.709-2.469.625a16.927,16.927,0,0,1-1.279,2.1c-4.792,7.613-9.417,15.331-14.151,22.978-3.139,5.069-6.363,10.1-9.279,15.314-.449.8-.752,1.079.265,1.716s2.061,1.28,3.078,1.942q8.118,5.284,16.252,10.542c4.334,2.8,8.689,5.563,13.019,8.367.435.281.766.7,1.189.046q1.714-2.673,3.424-5.349m23.664,2.345a3.02,3.02,0,0,0-2.276.315,18.584,18.584,0,0,1-15.137-.336c-.788-.375-1.162-.359-1.718.439a52.97,52.97,0,0,1-3.165,4.758c-.607.7-.981,1.394.075,2.291a3.447,3.447,0,0,1,.861,2.712c-.12,3.809-2.429,6.343-5.126,8.483a4.454,4.454,0,0,1-4.8.284,18.755,18.755,0,0,1-2.975-1.947c-.846-.661-1.291-.566-1.836.38q-2.1,3.65-4.391,7.194c-2.07,3.2-5.017,3.638-8.1,1.238A51.269,51.269,0,0,0,3054.69,122c-1.62-.953-2.88-2.606-2.7-4.39a9.64,9.64,0,0,1,1.452-4.611c1.294-1.859,2.368-3.872,3.546-5.813.21-.346.642-.835.333-1.072a26.424,26.424,0,0,0-3.133-1.99c-.264-.149-.487.074-.693.447-1.154,2.09-2.456,4.1-3.617,6.186a5.514,5.514,0,0,1-6.1,3.018c-.682-.1-1.052.1-.939.886.535,3.695,1.129,7.385,1.746,11.061.908,5.4,1.865,10.791,2.6,16.219.348,2.58.333,2.582,3.005,2.582q10.859,0,21.717,0a5.471,5.471,0,0,1,5.656,4.4c.208.945.74,1.024,1.423.93,1.871-.257,3.733-.517,5.588-.946a37.594,37.594,0,0,0,12.674-5.72l.391-.272.969-.749.367-.259a42.6,42.6,0,0,0,7.051-7.516,37.888,37.888,0,0,0,6.018-14.509,63.575,63.575,0,0,0,.549-6.518,16.871,16.871,0,0,0-.627-5.647,17.688,17.688,0,0,0-3.294-7.405q0-.119,0-.238m-100.031,1.671H2985.92c-2.059,0-2.054,0-2.521,1.862-.145.577.126,1.175-.567,1.734-.535.431.422,1.743,1.267,1.747,2.338.012,4.677,0,7.016,0,4.016,0,3.975,0,3.973,4.088,0,1.034-.258,1.3-1.291,1.285-3.562-.068-7.126-.015-10.69-.036-.685,0-1.016.041-1.123.928a43.564,43.564,0,0,1-1.391,8.147c-.652,2.021.386,1.625,1.447,1.625q9.939.007,19.877,0c3.858,0,3.79,0,3.872,3.863.028,1.307-.38,1.522-1.575,1.513-7.683-.055-15.367-.016-23.051-.042-1.13,0-1.781.042-1.851,1.555a53.043,53.043,0,0,1-1.03,6.926c-.3,1.674.044,2.22,1.677,2.223q6.932.013,13.865,0c3.947,0,3.889,0,3.942,3.956.017,1.228-.383,1.428-1.5,1.417-5.957-.056-11.915.008-17.873-.058-1.024-.011-1.606.338-1.633,1.242a23.134,23.134,0,0,1-.426,2.741c-.487,3.274-1.058,6.537-1.517,9.815-.438,3.131-1.224,6.216-1.156,9.416.094,4.36,4.49,8.868,8.847,8.887,8.241.038,16.481,0,24.722.03.92,0,1.258-.209,1.214-1.181-.077-1.723,0-3.452-.022-5.177a3.369,3.369,0,0,1,.891-2.531,6.991,6.991,0,0,1,4.881-1.844c2.112.092,4.232.06,6.346.007,1.429-.036,3.227.614,4.181-.3.851-.812.65-2.63,1.2-3.877s-.086-1.162-.9-1.161q-5.763,0-11.525,0a5.277,5.277,0,0,1-5.069-5.085c-.009-1.893.1-3.794-.031-5.678a4.727,4.727,0,0,1,3.6-4.958c1.914-.569,3.84-.28,5.754-.293,7.683-.049,15.367-.013,23.051-.036.545,0,1.625.38,1.326-.775-.255-.985-.113-1.984-.355-2.921-1.1-4.257-1.41-8.646-2.227-12.952-1-5.277-1.576-10.633-2.427-15.94-.256-1.6-.407-3.188-2.137-4.315-1.211-.789-2.337-2.51-1.637-4.106.813-1.85-.058-1.758-1.328-1.756q-11.693.02-23.385.007m-.588-16.092a19.322,19.322,0,0,0,6.444-.489,32.588,32.588,0,0,0,10.82-4.841,28.519,28.519,0,0,0,9.77-11.687,29.146,29.146,0,0,0-.386-25.382,33.191,33.191,0,0,0-7.184-9.151,35.182,35.182,0,0,0-7.09-4.581c-2.31-1.275-5.211-1.022-7.27-2.9a.5.5,0,0,0-.479-.027c-1.533,1.211-3.308.481-4.964.6a13.881,13.881,0,0,1-3.578-.293c-.991-.19-2.168.633-3.271.982a32.274,32.274,0,0,0-7.9,3.355,30.2,30.2,0,0,0-11.715,13.587A30.981,30.981,0,0,0,2979,58.111a26.314,26.314,0,0,0,3.16,11.7,32.237,32.237,0,0,0,13.43,13.246,12.958,12.958,0,0,0,4.014,1.82c2.866.351,5.716,1.311,8.442.777m109.85-.178c-.911,3.944-2.229,7.411-4.961,10.152-.651.653.085,1.046.293,1.4a42.405,42.405,0,0,1,2.879,6.146c2.564,6.673,2.069,13.371.616,20.112a39.347,39.347,0,0,1-8.255,16.649,41.035,41.035,0,0,1-14.611,11.418,37.845,37.845,0,0,1-15.172,3.833c-.779.019-.926.523-1.067,1-.957,3.222-2.438,4.366-5.764,4.369-2.506,0-5.012-.043-7.517.017-1.47.035-3.4-.65-4.255.338-.537.621.572,2.572.766,3.951.13.923.589,1.074,1.341,1.043,8.636-.351,17.334.881,25.9-1.3a54.775,54.775,0,0,0,14.956-6.038,54.022,54.022,0,0,0,13.85-12.063,51.054,51.054,0,0,0,8.76-15.618,45.575,45.575,0,0,0,2.512-11.017,51.638,51.638,0,0,0-.086-13.266,39.832,39.832,0,0,0-5.759-15.276,27.053,27.053,0,0,0-4.427-5.856M3099.117,70c-8.348,0-13.245,5.315-13.125,14.542.04,3.1,1.644,5.662,3.809,7.89a12.3,12.3,0,0,0,10.959,3.923c6.179-.87,11.665-5.458,11.834-13.247.144-6.635-5.091-13.658-13.478-13.108m-56.024,106.6h25.894c3.6,0,3.535,0,3.628-3.635.035-1.368-.292-1.751-1.711-1.747-17.819.054-35.639.035-53.458.035-3.691,0-3.636,0-3.707,3.719-.024,1.276.274,1.672,1.623,1.662,9.243-.065,18.488-.034,27.731-.034m-.011-21.387h25.894c3.613,0,3.51,0,3.652-3.622.062-1.6-.528-1.755-1.878-1.752q-26.646.062-53.292.028c-3.7,0-3.617,0-3.729,3.707-.046,1.493.489,1.677,1.789,1.669,9.188-.054,18.376-.029,27.564-.029m73.483-116.764c-.393-.275-.781-.59-1.207-.839q-12.6-7.368-25.2-14.738c-.75-.441-1.083-.37-1.577.364-1.066,1.587-2.226,3.118-3.44,4.6-.573.7-.618.988.239,1.469,2.62,1.472,5.172,3.06,7.769,4.574,5.568,3.247,11.16,6.451,16.712,9.725,1.98,1.168,1.93,1.229,3.28-.59.489-.659,1.061-1.257,1.553-1.914.623-.832,1.2-1.7,1.876-2.648m-34.614,72.324a2.622,2.622,0,0,0-1.049-1.021c-4.892-3.13-9.754-6.305-14.633-9.455q-6.936-4.479-13.89-8.931c-2.779-1.784-5.633-3.462-8.33-5.362-2.551-1.8-3.2-1.785-4.753.767-.323.531-.561.917.286,1.349a42.046,42.046,0,0,1,5.967,3.739c2.491,1.867,5.536,2.921,7.661,5.276a3.006,3.006,0,0,0,.663.42c2.984,1.872,6,3.7,8.947,5.627,5.275,3.436,10.51,6.933,15.778,10.38.328.214.829.756,1.116.412.829-1,1.5-2.122,2.237-3.2m-51.5,55.133h1.927q9.521,0,19.042,0c1.33,0,3.255.441,3.835-.237.7-.814-.537-2.462-.65-3.764s-.766-1.356-1.754-1.351c-5.345.024-10.69,0-16.035.016-1.61,0-3.522-.463-4.745.241-1.241.715-.861,2.886-1.4,4.358-.073.2-.119.4-.219.743m31.745-56.772c-.245-.071-.246.272-.377.492-1.313,2.2-2.61,4.4-3.967,6.571-.446.713-.4,1.115.321,1.614,1.614,1.115,3.195,2.286,4.715,3.525.654.533.913.552,1.342-.222.926-1.67,1.959-3.28,2.959-4.908.539-.878,1.577-1.774,1.524-2.607-.061-.964-1.58-1.175-2.4-1.829a43.732,43.732,0,0,0-4.119-2.637m-19.282-12.395a5.8,5.8,0,0,0-.529.654c-1.2,1.948-2.341,3.93-3.592,5.843-.36.55.025.669.259.884a49.523,49.523,0,0,0,5.326,4.057c.522.364.776.212,1.051-.25q1.929-3.238,3.873-6.466c.3-.5.377-.9-.325-1.141-1.618-.557-2.883-1.723-4.331-2.573-.517-.3-1.036-.6-1.731-1.009" transform="translate(-2968.263 -17.106)"/>
  <path id="Path_3958" data-name="Path 3958" d="M3323.806,178.869c-.285-.146-.566-.3-.588-.673.36.081,1.1-.168.588.673" transform="translate(-3164.698 -106.255)" fill="#fdfdfd"/>
  <path id="Path_3959" data-name="Path 3959" d="M3193.255,58.461l-.272.334c-.067-.24.071-.313.272-.334" transform="translate(-3092.615 -39.992)" fill="#020202"/>
  <path id="Path_3960" data-name="Path 3960" d="M3276.361,94.726l-.25-.23.247-.123c0,.117,0,.235,0,.353" transform="translate(-3138.629 -59.866)" fill="#fdfdfd"/>
  <path id="Path_3961" data-name="Path 3961" d="M2986.371,134.2c.226-.054.325.011.235.252l-.235-.252" transform="translate(-2978.284 -81.896)" fill="#fdfdfd"/>
  <path id="Path_3962" data-name="Path 3962" d="M3297.254,143.379c-.2-.029-.34-.1-.27-.343l.27.343" transform="translate(-3150.17 -86.797)" fill="#fdfdfd"/>
  <path id="Path_3963" data-name="Path 3963" d="M3143.89,139.455l-.257.241c-.043-.218.028-.313.257-.241" transform="translate(-3065.308 -84.802)" fill="#030303"/>
  <path id="Path_3964" data-name="Path 3964" d="M3129.441,134.365c-.106-.242.056-.3.236-.337l-.236.337" transform="translate(-3057.442 -81.812)" fill="#fdfdfd"/>
  <path id="Path_3965" data-name="Path 3965" d="M3015.323,206.624q11.693,0,23.385-.007c1.271,0,2.141-.094,1.328,1.756-.7,1.6.426,3.317,1.637,4.106,1.73,1.128,1.881,2.714,2.137,4.315.851,5.307,1.427,10.663,2.428,15.94.817,4.307,1.125,8.7,2.227,12.953.243.937.1,1.936.355,2.921.3,1.156-.781.773-1.326.775-7.685.023-15.368-.013-23.051.036-1.915.012-3.841-.276-5.755.293a4.728,4.728,0,0,0-3.6,4.958c.135,1.884.023,3.784.032,5.678a5.277,5.277,0,0,0,5.069,5.084q5.763.009,11.526,0c.813,0,1.452-.087.9,1.161s-.352,3.065-1.2,3.877c-.955.911-2.753.261-4.182.3-2.114.053-4.234.085-6.345-.007a6.992,6.992,0,0,0-4.881,1.844,3.368,3.368,0,0,0-.891,2.531c.023,1.726-.055,3.455.023,5.177.043.973-.295,1.185-1.215,1.181-8.24-.034-16.481.007-24.721-.03-4.358-.02-8.754-4.528-8.848-8.888-.069-3.2.717-6.285,1.156-9.416.459-3.278,1.03-6.54,1.517-9.815a23.229,23.229,0,0,0,.427-2.741c.027-.9.609-1.254,1.633-1.242,5.957.066,11.915,0,17.872.059,1.114.01,1.514-.189,1.5-1.417-.053-3.955,0-3.956-3.942-3.956q-6.933,0-13.865,0c-1.632,0-1.979-.549-1.677-2.223A53.012,53.012,0,0,0,2986,234.9c.07-1.513.721-1.559,1.851-1.555,7.684.026,15.368-.014,23.051.042,1.2.008,1.6-.206,1.575-1.513-.083-3.861-.015-3.863-3.873-3.863q-9.939,0-19.877,0c-1.06,0-2.1.4-1.446-1.626a43.592,43.592,0,0,0,1.391-8.147c.107-.887.438-.932,1.123-.928,3.563.021,7.128-.032,10.69.036,1.032.02,1.29-.251,1.291-1.285,0-4.088.044-4.088-3.973-4.088-2.338,0-4.677.008-7.016,0-.844,0-1.8-1.317-1.267-1.747.694-.559.422-1.156.567-1.733.468-1.861.463-1.862,2.521-1.862h22.717m-5.5,5.347c-2.729,0-2.729,0-2.729,2.784,0,2.563,0,2.563,2.617,2.563,2.73,0,2.73,0,2.73-2.784,0-2.563,0-2.563-2.617-2.563" transform="translate(-2974.949 -121.982)" fill="#ffeaa7"/>
  <path id="Path_3966" data-name="Path 3966" d="M3021.345,97.358c-2.727.535-5.577-.426-8.442-.777a12.968,12.968,0,0,1-4.015-1.82,32.236,32.236,0,0,1-13.43-13.246,26.311,26.311,0,0,1-3.16-11.7,30.971,30.971,0,0,1,2.246-13.285,30.2,30.2,0,0,1,11.714-13.587,32.264,32.264,0,0,1,7.9-3.356c1.1-.349,2.28-1.171,3.271-.982a13.878,13.878,0,0,0,3.578.293c1.657-.114,3.431.615,4.965-.6a.5.5,0,0,1,.479.026c2.059,1.878,4.959,1.624,7.27,2.9a35.232,35.232,0,0,1,7.09,4.582,33.194,33.194,0,0,1,7.183,9.15,29.281,29.281,0,0,1-9.384,37.069,32.593,32.593,0,0,1-10.82,4.841,19.318,19.318,0,0,1-6.443.489m-5.213-11.932c.661-.763,1.221-1.446,1.819-2.094,3.042-3.295,6.13-6.548,9.134-9.877,4.513-5,8.941-10.075,13.464-15.065,1.739-1.919,1.809-1.849-.036-3.513a8.122,8.122,0,0,1-1.058-1.063c-.7-.916-1.254-.927-2.055-.024-3.294,3.715-6.753,7.288-9.938,11.092-1.164,1.39-2.435,2.693-3.617,4.056-2.2,2.538-4.493,5.007-6.737,7.516-.381.426-.792.9-1.3.137a31.836,31.836,0,0,0-2.326-3.055c-1.577-1.864-2.937-3.909-4.47-5.811-.781-.968-1.7-1.515-2.817-.221a4.141,4.141,0,0,1-1.245,1.045c-1.786.835-1.014,1.731-.181,2.734,1.649,1.989,3.256,4.013,4.873,6.028q3.244,4.046,6.488,8.114" transform="translate(-2981.558 -28.808)" fill="#ff826e"/>
  <path id="Path_3967" data-name="Path 3967" d="M3183.022,124.862q-1.712,2.675-3.424,5.349c-.422.659-.754.235-1.188-.046-4.33-2.8-8.685-5.569-13.019-8.367q-8.138-5.253-16.252-10.542c-1.016-.661-2.055-1.3-3.077-1.942s-.714-.914-.266-1.716c2.916-5.213,6.14-10.245,9.279-15.314,4.735-7.648,9.36-15.365,14.151-22.978a16.931,16.931,0,0,0,1.279-2.1c.587-1.334,1.366-1.292,2.469-.625q16.424,9.928,32.893,19.78c.8.477.909.812.481,1.489-.84,1.329-1.751,2.618-2.519,3.987a.977.977,0,0,1-1.344.532,12.816,12.816,0,0,0-4.617-.84c-4.169.068-8.172.881-11.656,3.5a17.977,17.977,0,0,0-5.271,6.038c-3.99,7.649-2.976,14.863,2.323,21.518.656.824.379,1.287.028,1.935-.191.031-.32.112-.271.337" transform="translate(-3066.281 -44.237)" fill="#aab2bd"/>
  <path id="Path_3968" data-name="Path 3968" d="M3231.506,170.2a27.048,27.048,0,0,1,4.427,5.856,39.83,39.83,0,0,1,5.759,15.276,51.638,51.638,0,0,1,.086,13.266,45.6,45.6,0,0,1-2.512,11.017,51.064,51.064,0,0,1-8.76,15.618,54.036,54.036,0,0,1-13.85,12.063,54.766,54.766,0,0,1-14.956,6.038c-8.567,2.181-17.265.949-25.9,1.3-.752.031-1.211-.12-1.341-1.043-.193-1.379-1.3-3.33-.766-3.951.854-.988,2.784-.3,4.255-.338,2.5-.06,5.011-.014,7.517-.017,3.326,0,4.808-1.147,5.764-4.369.142-.477.289-.981,1.067-1a37.843,37.843,0,0,0,15.172-3.833,41.038,41.038,0,0,0,14.611-11.418,39.347,39.347,0,0,0,8.256-16.649c1.453-6.741,1.948-13.439-.616-20.112a42.432,42.432,0,0,0-2.879-6.146c-.208-.359-.944-.752-.293-1.405,2.731-2.741,4.049-6.208,4.96-10.152" transform="translate(-3081.869 -101.831)" fill="#ccd1d9"/>
  <path id="Path_3969" data-name="Path 3969" d="M2991.728,160.2a33.906,33.906,0,0,0,35.582,6.8,36.874,36.874,0,0,0,12.172-7.874c1.208-1.167,2.76-.244,4.374-.684-1.147,1.852-2.245,3.433-3.144,5.12a4.714,4.714,0,0,0,2.108,6.6,7.228,7.228,0,0,1,1.97,1.7c.684.832-.355,2.485-1.679,2.736a6.345,6.345,0,0,1-1.166.016q-28.964,0-57.927,0c-2.984,0-3.648-.682-3.651-3.732,0-3.116-.019-6.233.007-9.349.017-2.04.908-2.93,2.917-2.953,1.836-.021,3.675.048,5.508-.03a2.552,2.552,0,0,1,1.913.731c.262.391.5.8,1.017.917" transform="translate(-2974.957 -95.322)" fill="#fcd770"/>
  <path id="Path_3970" data-name="Path 3970" d="M3245,135.508c8.386-.55,13.622,6.473,13.477,13.108-.168,7.789-5.655,12.377-11.834,13.247a12.3,12.3,0,0,1-10.959-3.923c-2.164-2.228-3.769-4.792-3.809-7.89-.12-9.227,4.777-14.542,13.125-14.542M3245,156.558a7.942,7.942,0,0,0,8.146-7.919c.011-4.5-2.929-7.87-7.967-8.059-4.478-.169-7.705,3.127-8.015,7.55-.331,4.725,3.791,8.635,7.836,8.428" transform="translate(-3114.149 -82.614)" fill="#fbd66f"/>
  <path id="Path_3971" data-name="Path 3971" d="M3099.446,367.58c-9.244,0-18.488-.031-27.731.034-1.349.01-1.646-.386-1.622-1.662.071-3.718.015-3.719,3.707-3.719,17.82,0,35.639.018,53.458-.035,1.418,0,1.745.379,1.71,1.747-.093,3.633-.025,3.635-3.628,3.635h-25.894" transform="translate(-3024.616 -208.083)" fill="#969faa"/>
  <path id="Path_3972" data-name="Path 3972" d="M3099.418,319.7c-9.188,0-18.376-.025-27.563.029-1.3.008-1.835-.176-1.79-1.669.112-3.7.027-3.706,3.729-3.706q26.646,0,53.291-.028c1.351,0,1.941.154,1.878,1.752-.142,3.618-.039,3.622-3.651,3.622h-25.895" transform="translate(-3024.599 -181.59)" fill="#969faa"/>
  <path id="Path_3973" data-name="Path 3973" d="M3260.875,45.261c-.671.952-1.252,1.816-1.876,2.648-.492.657-1.064,1.254-1.553,1.914-1.35,1.819-1.3,1.757-3.28.59-5.552-3.274-11.145-6.477-16.711-9.725-2.6-1.514-5.149-3.1-7.769-4.574-.857-.481-.812-.772-.239-1.469,1.214-1.478,2.374-3.009,3.44-4.6.494-.735.827-.805,1.577-.364q12.584,7.4,25.2,14.738c.426.249.814.564,1.207.839" transform="translate(-3112.573 -23.915)" fill="#959ea9"/>
  <path id="Path_3974" data-name="Path 3974" d="M3169.608,194.594c-.736,1.079-1.408,2.206-2.237,3.2-.287.344-.788-.2-1.116-.412-5.268-3.447-10.5-6.944-15.779-10.38-2.951-1.923-5.962-3.755-8.947-5.627a2.971,2.971,0,0,1-.663-.42c-2.126-2.356-5.17-3.41-7.661-5.277a42.049,42.049,0,0,0-5.968-3.739c-.846-.432-.608-.817-.286-1.349,1.549-2.553,2.2-2.565,4.753-.767,2.7,1.9,5.551,3.578,8.33,5.362q6.949,4.459,13.89,8.931c4.879,3.15,9.742,6.326,14.633,9.455a2.621,2.621,0,0,1,1.049,1.021" transform="translate(-3055.92 -100.924)" fill="#cbd0d8"/>
  <path id="Path_3975" data-name="Path 3975" d="M3107.517,343.5c.1-.342.146-.547.218-.743.541-1.472.161-3.643,1.4-4.358,1.223-.7,3.135-.238,4.744-.241,5.345-.012,10.69.008,16.035-.016.988,0,1.641.045,1.754,1.352s1.346,2.951.65,3.764c-.58.678-2.505.234-3.835.237q-9.521.017-19.042,0Z" transform="translate(-3045.327 -194.697)" fill="#aab2bd"/>
  <path id="Path_3976" data-name="Path 3976" d="M3172.858,223.17a43.7,43.7,0,0,1,4.119,2.637c.816.653,2.335.865,2.4,1.829.053.833-.985,1.729-1.523,2.607-1,1.629-2.033,3.239-2.959,4.908-.429.774-.688.755-1.342.222-1.52-1.239-3.1-2.41-4.715-3.525-.723-.5-.767-.9-.321-1.614,1.357-2.169,2.654-4.375,3.968-6.571.131-.22.133-.564.377-.492" transform="translate(-3078.924 -131.139)" fill="#a8b0bb"/>
  <path id="Path_3977" data-name="Path 3977" d="M3130.136,195.427c.7.405,1.214.705,1.731,1.009,1.449.85,2.713,2.016,4.331,2.573.7.242.624.643.325,1.141q-1.938,3.232-3.872,6.466c-.275.461-.529.614-1.051.25a49.518,49.518,0,0,1-5.325-4.057c-.234-.215-.619-.334-.259-.884,1.25-1.913,2.4-3.895,3.591-5.843a5.858,5.858,0,0,1,.529-.654" transform="translate(-3055.483 -115.791)" fill="#a8b0bb"/>
  <path id="Path_3978" data-name="Path 3978" d="M3232.426,65.183a1.59,1.59,0,0,1,.114-.481c1.473-2.362,1.535-2.412,3.9-1.057,3.942,2.26,7.84,4.6,11.782,6.855.706.4.8.672.411,1.434-1.248,2.424-1.2,2.444-3.589,1.015q-6.251-3.733-12.51-7.454a.977.977,0,0,0-.106-.311" transform="translate(-3114.453 -42.365)" fill="#cbd0d8"/>
  <path id="Path_3979" data-name="Path 3979" d="M3004.555,161.044c-.513-.113-.755-.526-1.017-.917,1.07-.506.962.3,1.017.917" transform="translate(-2987.784 -96.167)" fill="#020101"/>
  <path id="Path_3980" data-name="Path 3980" d="M3231.966,68.2a.982.982,0,0,1,.106.311l-.478-.084Z" transform="translate(-3113.993 -45.382)" fill="#020202"/>
  <path id="Path_3981" data-name="Path 3981" d="M3224.717,58.125l.231.17c-.2.229-.185-.084-.283-.109l.052-.061" transform="translate(-3110.158 -39.806)" fill="#020101"/>
  <path id="Path_3982" data-name="Path 3982" d="M3229.655,197.224c-.049-.225.08-.305.271-.337l-.271.337" transform="translate(-3112.914 -116.599)" fill="#030303"/>
  <path id="Path_3983" data-name="Path 3983" d="M3282.366,203.13l-.237-.023.235-.215c0,.08,0,.159,0,.238" transform="translate(-3141.959 -119.922)" fill="#030303"/>
  <path id="Path_3984" data-name="Path 3984" d="M3260.125,296.8c.055-.182.129-.338.367-.259l-.367.259" transform="translate(-3129.782 -171.735)" fill="#020202"/>
  <path id="Path_3985" data-name="Path 3985" d="M3257.081,299.068c.071-.176.14-.354.39-.272l-.39.272" transform="translate(-3128.097 -172.985)" fill="#020202"/>
  <path id="Path_3986" data-name="Path 3986" d="M3042.962,218.606c2.617,0,2.617,0,2.617,2.563,0,2.784,0,2.784-2.729,2.784-2.617,0-2.617,0-2.617-2.563,0-2.784,0-2.784,2.729-2.784" transform="translate(-3008.092 -128.618)"/>
  <path id="Path_3987" data-name="Path 3987" d="M3030.483,103.849q-3.253-4.07-6.488-8.114c-1.616-2.015-3.224-4.039-4.873-6.028-.833-1-1.6-1.9.181-2.734a4.144,4.144,0,0,0,1.245-1.045c1.12-1.294,2.035-.748,2.816.221,1.534,1.9,2.894,3.947,4.47,5.811a31.836,31.836,0,0,1,2.326,3.055c.5.768.916.289,1.3-.137,2.243-2.509,4.537-4.977,6.737-7.516,1.182-1.364,2.453-2.667,3.616-4.056,3.186-3.8,6.645-7.378,9.938-11.092.8-.9,1.358-.892,2.055.024a8.108,8.108,0,0,0,1.058,1.063c1.845,1.664,1.775,1.594.036,3.513-4.523,4.99-8.951,10.066-13.464,15.065-3,3.329-6.092,6.582-9.134,9.877-.6.648-1.158,1.33-1.819,2.094" transform="translate(-2995.909 -47.232)" fill="#020101"/>
  <path id="Path_3988" data-name="Path 3988" d="M3251.523,162.871c-4.045.207-8.166-3.7-7.836-8.428.31-4.423,3.537-7.719,8.015-7.551,5.039.19,7.978,3.555,7.967,8.06a7.941,7.941,0,0,1-8.146,7.919m-.008-5.356a2.669,2.669,0,1,0-.014-5.321,2.67,2.67,0,0,0,.014,5.321" transform="translate(-3120.675 -88.928)" fill="#020101"/>
  <path id="Path_3989" data-name="Path 3989" d="M3258.2,164.093a2.67,2.67,0,0,1-.014-5.321,2.669,2.669,0,1,1,.014,5.321" transform="translate(-3127.356 -95.505)" fill="#cbd0d8"/>
</svg>
