<svg id="Group_154" data-name="Group 154" xmlns="http://www.w3.org/2000/svg" width="170.82" height="170.82" viewBox="0 0 170.82 170.82">
  <path id="Path_3882" data-name="Path 3882" d="M3477.589,146.619c3.884-.676,7.681.321,11.518.511,3,.149,5.965.51,8.936.809,2.87.289,5.786.207,8.614.928a4.79,4.79,0,0,0,1.332.022c3.231-.121,6.354.807,9.561.973,2.618.136,5.221.561,7.839.667,1.922.078,3.811.326,5.709.569a2.585,2.585,0,0,0,2.243-.959,13.682,13.682,0,0,1,5.142-3.238,15.82,15.82,0,0,1,14.506,1.421,5.051,5.051,0,0,1,1.425,1.1c1.512,2.019,3.49,1.546,5.532,1.257,1.941-.275,3.919-.288,5.878-.451,2.723-.226,5.437-.558,8.156-.813,1.558-.146,3.158-.285,4.712-.426,5.4-.487,10.775-1.172,16.193-1.474,4.021-.224,8.017-.879,12.03-1.28,5.239-.523,9.183,3.247,9.019,8.11-.006.167,0,.334,0,.5,0,2.819,0,2.819,2.868,2.408,3.977-.569,8.165,2.664,8.839,6.713a134.3,134.3,0,0,1,1.614,34.661c-.525,4.368-.792,8.823-2.289,13.029a7.253,7.253,0,0,1-6.747,4.747,115.584,115.584,0,0,1-15.047-1.318c-2.591-.311-5.212-.384-7.8-.713-3.621-.462-7.263-.708-10.877-1.261-2.8-.428-5.657-.511-8.669-.763,2.169,3.72,4.26,7.3,6.342,10.879,2.006,3.453,3.975,6.929,6.01,10.365,2.425,4.1-.525,8.072-4.419,8.59-3.521.469-6.989,1.341-10.481,2.032a4.81,4.81,0,0,0-2.566,1.912c-2.142,2.427-4.253,4.882-6.369,7.333a10.381,10.381,0,0,1-3.207,2.37h-2.673a7.654,7.654,0,0,1-3.392-3.027c-1.869-3.531-3.968-6.94-5.95-10.412-2.139-3.746-4.25-7.507-6.374-11.262l-.111-.458-.213.378a2.577,2.577,0,0,0-1.007,1.05c-1.062,2.1-2.048,4.306-3.283,6.243-1.417,2.223-2.856,4.441-4.159,6.737a94.71,94.71,0,0,1-6.587,10.75h-4.01a10.789,10.789,0,0,1-2.249-1.462c-2.2-2.379-4.262-4.895-6.471-7.27-.967-1.041-1.669-2.3-3.358-2.7-3.679-.865-7.4-1.494-11.091-2.283-4.026-.861-5.559-4.347-4.115-7.5,1.486-3.25,3.466-6.277,5.259-9.383,2.515-4.355,5.059-8.694,7.66-13.16a12.781,12.781,0,0,0-2.069.015c-3.644.672-7.35.811-11.01,1.326-2.529.355-5.095.4-7.6.964-2.694.609-4.115.015-5.035-1.993a2.315,2.315,0,0,1,1.774-2.609c3.644-.591,7.323-.987,11-1.384,3.583-.386,7.176-.673,10.764-1.019,1.334-.129,2.2-.624,1.867-2.233a6.176,6.176,0,0,1,0-2.327,3.512,3.512,0,0,0-1.366-3.515l-.39-.277c-4.58-4.037-6.9-8.96-5.592-15.121.767-3.626,2.344-6.848,5.544-9.069a3.328,3.328,0,0,0,1.784-2.8c-.03-1.392,0-2.784-.011-4.177,0-.41.144-.853-.585-.923-2.986-.29-5.961-.692-8.947-.973-2.4-.225-4.781-.553-7.184-.75-4.34-.355-8.64-1.156-12.975-1.587-3.855-.384-7.708-.754-11.538-1.345a2.769,2.769,0,0,0-3.2,1.931c-.42,1.473-.654,3-1.015,4.488-.454,1.874-.315,3.85-1,5.681-.229-.064-.308.03-.264.252a2.5,2.5,0,0,1,.256,1.748,69.329,69.329,0,0,0-.315,9.269c0,2.726-.2,5.47.037,8.176.4,4.609,1.018,9.2,1.653,13.788.415,3,1.666,4.308,3.821,4.095,2.262-.224,4.516-.578,6.755-.98,1.964-.352,3.381.268,4.158,2.009.13,2.268-1.212,2.807-3.187,3.01-2.329.24-4.667.453-6.981.753a8.461,8.461,0,0,1-7.571-2.97,13.549,13.549,0,0,1-2.008-6.049c-.433-2.671-.524-5.407-1.106-8.04-.277-1.253.169-2.6-.589-3.75V190a1.927,1.927,0,0,0,0-2.339v-1.671a1.122,1.122,0,0,0,0-1.671v-5.681c.8-1.56.364-3.29.577-4.926.482-3.706.769-7.487,1.866-11.022a7.878,7.878,0,0,1,9.155-5.3c2.079.378,2.26.451,2.069-1.473-.385-3.864,1.349-6.658,4.131-9.02.3-.114.824.543.916-.27m75.9,71.458.29-.3a11.764,11.764,0,0,1,4.316-2.147c1.778-.61,3.372.4,5.04.037.526-.095,1.057-.171,1.578-.288,4.55-1.016,8.561-5.381,8.152-10.283a17.74,17.74,0,0,1,.125-4.465c.5-2.909,2.558-4.7,4.56-6.46,4.38-3.854,3.893-12.437-1.268-15.662a7.552,7.552,0,0,1-2.149-2.482c-1.639-2.564-1.4-5.407-1.276-8.2.193-4.417-4.485-9.578-9.037-9.274l.009.009c-.115-.38-.4-.338-.688-.268a5.573,5.573,0,0,0-1.473-.019c-3.214.828-5.754-.575-8.181-2.391a12.249,12.249,0,0,0-.839-1.191c-2.014-2.254-4.344-3.89-7.552-3.745a9.071,9.071,0,0,0-8.612,3.368,12.9,12.9,0,0,1-2.011,1.993,8.792,8.792,0,0,1-6.631,2.176,10.688,10.688,0,0,0-4.352.109,10.331,10.331,0,0,0-6.959,5.9c-1.172,2.488-.813,5.068-.814,7.625a7.133,7.133,0,0,1-2.077,5.033c-.716.773-1.51,1.472-2.249,2.224-2.839,2.887-4.164,6.275-3,10.276a9.272,9.272,0,0,0,3.322,5.128,8.675,8.675,0,0,1,3.842,5.64,18.791,18.791,0,0,1,.119,4.475c-.209,3.517,1.7,6.049,3.69,8.622.982,1.269,2.453.958,3.628,1.54a6.611,6.611,0,0,0,4.31.562,8.389,8.389,0,0,1,8.6,3.175c2.331,2.9,5.1,4.51,8.863,4.222,3.822-.017,6.513-1.988,8.609-4.986Zm17.3.3c-1.355.25-1.893.736-.987,2.159,1.438,2.254,2.693,4.625,4.034,6.94q2.83,4.883,5.675,9.758c.295.506.507,1.175,1.335.785,1.292-.218,2.589-.413,3.875-.662,1.231-.239,1.554-.8.8-1.97-1.187-1.845-2.254-3.768-3.352-5.67q-3.868-6.7-7.715-13.422c-.313-.547-.69-.811-1.119-.2-.681.964-1.8,1.41-2.548,2.285m-46.753,29.389a17.312,17.312,0,0,1,1.928,2.247c.655,1.076.923.961,1.511-.067,3.62-6.33,7.307-12.622,10.958-18.934.575-.994,1.636-2.121,1.482-3.016-.18-1.039-1.885-1.121-2.869-1.723a4.684,4.684,0,0,0-.6-.262c-1.158-1.162-1.7-.888-2.51.581q-5.1,9.258-10.568,18.311c-.861,1.432-.59,2.148.667,2.863m40.389-4.3c-3.16-5.564-6.3-11.141-9.494-16.683-1.087-1.885-1.125-1.789-3.073-.639a32.587,32.587,0,0,1-3.412,1.538c1.124,1.968,2.219,3.915,3.341,5.845q4.159,7.152,8.339,14.294a13.5,13.5,0,0,0,1.787,2.91c1.469-.891,2.129-2.528,3.488-3.512a1.387,1.387,0,0,0,.233-1.809,10.584,10.584,0,0,0-1.209-1.944m52.513-32.134c.385.032.771.043,1.152.1,3.135.449,4.523-.68,4.884-3.746.354-3.015,1.108-6,1.261-9.019a137.811,137.811,0,0,0,.509-13.974c-.278-5.6-.671-11.159-1.458-16.7a13.989,13.989,0,0,0-.954-4.065c-.841-1.752-2.95-2.121-5.388-1.275a14.451,14.451,0,0,0-4.731.382c-3.332.547-6.709.575-10.034,1.183-2.567.47-5.241.335-7.823.746-3.934.626-7.916.741-11.853,1.3-1.463.209-3.409-.156-4.294.525-1.067.822-.228,2.9-.363,4.419a3.5,3.5,0,0,0,1.455,3.308c7.755,5.305,8.4,17.466,1.494,23.346a7.632,7.632,0,0,0-3,7.058c.243,2.558.239,2.822,2.844,2.772a66.033,66.033,0,0,1,8.836.781c4.061.468,8.135.783,12.2,1.243,2.6.294,5.179.791,7.781.906,2.516.112,4.941,1.071,7.49.708m-98.043-56.36c-3.572-.381-6.755-.874-9.954-1.019-2.942-.133-5.844-.609-8.778-.814s-5.873-.475-8.8-.859c-3.3-.434-6.653-.484-9.952-1.034a3.162,3.162,0,0,0-3.813,3.078c-.032.443,0,.891,0,1.336,0,2.912,0,2.826,2.891,2.952,2.622.115,5.247.422,7.84.758,4.44.574,8.905.92,13.333,1.568,2.53.369,5.085.508,7.616.9.971.15,2.379.816,3.137-.478a16.127,16.127,0,0,1,6.484-6.388m51.041.066a16.823,16.823,0,0,1,5.285,4.758c1.25,1.885,2.275,2.24,4.466,1.721a6.951,6.951,0,0,1,.939-.247c3.868-.347,7.76-.523,11.6-1.05,5.25-.72,10.515-1.208,15.79-1.661,3.159-.272,3.153-.346,3.114-3.491-.035-2.789-1.751-4.187-4.474-3.817-2.97.4-5.956.7-8.941.978-2.892.27-5.8.347-8.684.709-4.557.573-9.14.861-13.7,1.374-1.773.2-3.613-.024-5.4.727m-39.006,66.95c.226-.745-.045-.969-.322-1.15-1.322-.869-5.465-.314-6.826.581-1.041.685-.632,1.727-1.107,2.529-2.588,4.367-5.095,8.781-7.62,13.185-1.113,1.94-1.1,1.942.948,2.789.395.163.761.4,1.155.564.815.348,1.135,1.894,2.083,1.392.72-.383,1.064-1.565,1.458-2.444.323-.72.944-1.215,1.29-1.868,2.69-5.07,5.542-10.043,8.624-14.884a3.38,3.38,0,0,0,.317-.694m-16.176-6.327c-1.512,2.605-2.97,5.119-4.428,7.631q-3.709,6.39-7.424,12.776c-.21.361-.428.853.038.963,1.79.423,3.6.777,5.423,1.028.439.06.749-.526,1-.993.613-1.161,1.319-2.272,1.976-3.41q4.147-7.189,8.29-14.389a20.074,20.074,0,0,1-4.869-3.605m54.75,26.5c1.1-.928,2.058-2.094,3.6-2.382,1.405-.263,1.616-.813.81-2.156-3.009-5.01-5.854-10.118-8.783-15.177-.344-.594-.652-1.664-1.217-1.6-1.8.213-3.493-.81-5.355-.2-1.174.386-1.045.689-.56,1.517,1.971,3.363,3.894,6.753,5.835,10.133,1.86,3.235,3.721,6.468,5.673,9.86" transform="translate(-3458.875 -85.006)"/>
  <path id="Path_3883" data-name="Path 3883" d="M3458.875,239.557a1.926,1.926,0,0,1,0,2.339Z" transform="translate(-3458.875 -136.907)" fill="#040202"/>
  <path id="Path_3884" data-name="Path 3884" d="M3458.875,232.074a1.121,1.121,0,0,1,0,1.671Z" transform="translate(-3458.875 -132.766)" fill="#040202"/>
  <path id="Path_3885" data-name="Path 3885" d="M3633.015,36.185a4.235,4.235,0,0,1-2.376,2.356c-.459-.543-.6-.215-.685.251-4.995,2.25-9.966,4.554-15,6.718-1.41.606-2.122,1.215-2.092,2.931a49.106,49.106,0,0,1-.256,9.6c-.533,2.991-3.854,6.175-6.9,6.181q-20.38.044-40.76.009a4.212,4.212,0,0,1-3.194-1.263c-.052-.42-.049-.941-.656-.366a7.2,7.2,0,0,1-3.019-6.337c.108-2.5-.1-5.007.067-7.5.1-1.512-.271-2.479-1.712-2.972-.092-.47-.24-.778-.683-.238a8.3,8.3,0,0,1-2.325-1.1c-.092-.47-.241-.776-.683-.236a8.314,8.314,0,0,1-2.325-1.1c-.092-.47-.241-.776-.683-.236a8.291,8.291,0,0,1-2.324-1.1c-.093-.47-.242-.776-.683-.236a8.3,8.3,0,0,1-2.325-1.1c-.041-.417-.188-.81-.653-.824s-.589.407-.708.792a8.437,8.437,0,0,0-.079,4.572c.109.447.242.872.834.842,4.3,1.783,5.71,5.233,5.475,9.589-.091,1.689.256,3.373-.469,5.069-1.029,2.405-2.591,3.733-5.121,3.764-1.893.023-3.786.021-5.678-.022a4.926,4.926,0,0,1-4.8-4.923c.085-2.948-.48-5.933.49-8.839a4.545,4.545,0,0,1,1.027-1.937c.861-.048,2,.172,1.316-1.366,2.824-.852,2.988-3.035,2.675-5.42-.214-1.633.638-3.413-.665-4.9l-.263-.346a4.915,4.915,0,0,1-.679-3.345c.451-.084.784-.215.259-.675l.126-.326c1.061-.089,1.167-.567.548-1.342,1.466-2.065,3.943-2.321,5.988-3.35l.37-.264,2.637-1.073.37-.264c1.823-.967,3.548-1.184,5.008.65q-.031.315-.063.631c-.211.034-.459.065-.458.334s.249.3.46.332c-.318,1.986-2.108,2.238-3.5,2.9-2.151,1.029-4.424,1.81-6.856,3.228l16.124,7.07c0-1.853.022-3.4-.011-4.954a2.98,2.98,0,0,1,.532-1.661c1.32-2.235,3.386-2.856,5.764-2.859q16.6-.015,33.2,0c3.226,0,6.451-.023,9.676.007a5.17,5.17,0,0,1,5.467,4.315c.369,1.426.014,2.88.221,4.308.105,1.284.845.477,1.235.308,3.854-1.674,7.708-3.355,11.521-5.122.964-.447,2.627-.545,2.682-1.549.051-.934-1.726-.844-2.51-1.528-.008-.243.063-.532-.256-.63-.258-.08-.33.163-.439.324l-2.313-1.03c-.007-.242.063-.53-.251-.631-.257-.082-.332.157-.441.317l-2.315-1.023c-.008-.242.063-.532-.255-.63-.26-.08-.331.163-.44.323l-2.312-1.03c-.037-.767-.3-1.04-.965-.444l-2.043-.893c-.035-.764-.3-1.039-.963-.448l-2.044-.888c-.008-.243.063-.532-.255-.631-.259-.079-.331.163-.44.324a7.539,7.539,0,0,1-2.308-1.045c-.012-.24.055-.528-.266-.618-.256-.072-.327.167-.433.327l-2.313-1.03c-.008-.242.064-.532-.255-.631-.259-.079-.331.163-.439.324l-2.313-1.03c-.037-.767-.3-1.04-.965-.444a6.36,6.36,0,0,1-2.038-.908c-.011-.24.054-.526-.262-.619-.255-.075-.327.162-.435.321a7.753,7.753,0,0,1-2.311-1.039c-.047-.761-.319-1.018-.968-.433l-2.04-.9c-.047-.761-.319-1.018-.968-.433l-2.04-.9c-.011-.24.054-.526-.262-.619-.255-.075-.328.161-.435.321-1.379-.3-2.491-1.346-3.955-1.4-7.779,3.432-15.6,6.764-23.3,10.364-2.071.968-3.165.275-4.361-1.1-.143-1.052-.253-2.093.924-2.692.573.566.614.113.654-.342l-.019.018.381-.246c3.982-1.66,7.9-3.47,11.828-5.246,2.223-1,4.434-2.1,6.752-2.889a30.642,30.642,0,0,0,4.083-1.835,7.569,7.569,0,0,1,7.007.044c7.348,3.269,14.68,6.576,22.024,9.857,6.555,2.929,13.131,5.809,19.666,8.783a4.765,4.765,0,0,1,2.531,6.28c-.453.062-.894.13-.318.676m-93.957,23c5.291.324,5.291.324,5.226-4.953,0-.222.011-.444-.007-.665a2.944,2.944,0,0,0-2.017-2.913c-1.343-.37-2.772-.381-3.542,1.211-1.032,2.277-.4,4.67-.458,7.011-.01.433.466.36.8.308m68.76-22.656-5.286.1c-.665-.028-1.329-.079-1.993-.079q-18.661-.011-37.323-.012c-.63-.063-1.1.048-1.1.844.012,3.389-.008,6.777.024,10.166.005.573.2,1.159,1,.618l39.4-.018c1.329.017,2.661-.025,3.984.069,1.1.079,1.418-.329,1.4-1.409-.047-2.989.016-5.98.036-8.97.485-.063.631-.37.57-.811-.058-.418-.364-.495-.717-.495m-44.752,20.356c.4,1.715,1.275,2.357,3.365,2.359q16.269.014,32.539.012a9.663,9.663,0,0,1,2.122.215c4.395.974,6.9-.975,6.834-5.1-.017-.982-.338-1.173-1.239-1.171q-21.774.049-43.55.041c-.184-.254-.426-.381-.671-.131-.779.8-.393,3.159.6,3.771" transform="translate(-3499.964 -9.705)"/>
  <path id="Path_3886" data-name="Path 3886" d="M3568.5,29.741c1.2,1.379,2.29,2.072,4.361,1.1,7.7-3.6,15.526-6.932,23.3-10.364.09.621.625.708,1.075.907q5.477,2.427,10.953,4.86c5.48,2.421,10.969,4.82,16.442,7.255,2.841,1.263,5.686,2.522,8.47,3.9,1.856.92,2.147,3.56.424,4.507a54.177,54.177,0,0,1-9.556,4.217c-.207-1.429.148-2.882-.22-4.308a5.17,5.17,0,0,0-5.467-4.315c-3.225-.031-6.451-.007-9.677-.007q-16.6,0-33.2,0c-2.378,0-4.444.624-5.763,2.859a2.971,2.971,0,0,0-.532,1.661c.033,1.55.01,3.1.01,4.954L3553,39.905c2.433-1.417,4.706-2.2,6.857-3.228,1.393-.666,3.182-.918,3.5-2.9,0-.222,0-.444,0-.666l.063-.631c1.214-.58,2.435-1.146,3.64-1.746.522-.26,1.225-.278,1.443-.99" transform="translate(-3510.966 -15.668)" fill="#617881"/>
  <path id="Path_3887" data-name="Path 3887" d="M3555.662,82.909c-.592.03-.725-.4-.834-.842a8.435,8.435,0,0,1,.079-4.572c.118-.385.237-.8.708-.791s.612.406.653.823c-.718,0-.683.492-.672,1,.032,1.462.046,2.924.067,4.386" transform="translate(-3511.823 -46.782)"/>
  <path id="Path_3888" data-name="Path 3888" d="M3538.031,93.587c.685,1.538-.455,1.318-1.316,1.366a3.648,3.648,0,0,1,1.316-1.366" transform="translate(-3501.952 -56.126)"/>
  <path id="Path_3889" data-name="Path 3889" d="M3543.409,56.971c.62.775.513,1.254-.548,1.342-.176-.594.173-.974.548-1.342" transform="translate(-3505.327 -35.862)"/>
  <path id="Path_3890" data-name="Path 3890" d="M3595.774,127.836c.608-.576.6-.054.656.366-.246-.073-.571,0-.656-.366" transform="translate(-3534.636 -74.939)"/>
  <path id="Path_3891" data-name="Path 3891" d="M3499.644,147.568c-.092.813-.617.156-.916.27.154-.6.594-.237.916-.27" transform="translate(-3480.93 -85.955)" fill="#040202"/>
  <path id="Path_3892" data-name="Path 3892" d="M3583.8,89.636c.443-.54.591-.232.683.238-.277.063-.563.151-.683-.238" transform="translate(-3528.011 -53.781)"/>
  <path id="Path_3893" data-name="Path 3893" d="M3577.067,86.642c.441-.539.591-.234.683.236-.278.066-.562.152-.683-.236" transform="translate(-3524.283 -52.124)"/>
  <path id="Path_3894" data-name="Path 3894" d="M3570.333,83.649c.441-.539.591-.234.683.236-.278.066-.562.152-.683-.236" transform="translate(-3520.557 -50.468)"/>
  <path id="Path_3895" data-name="Path 3895" d="M3749.947,74.176c.087-.466.225-.794.684-.251-.122.372-.391.343-.684.251" transform="translate(-3619.957 -45.088)"/>
  <path id="Path_3896" data-name="Path 3896" d="M3563.6,80.656c.441-.539.591-.234.683.236-.278.066-.562.152-.683-.236" transform="translate(-3516.83 -48.811)"/>
  <path id="Path_3897" data-name="Path 3897" d="M3756.459,68.162c-.576-.546-.135-.614.318-.676-.038.257.073.585-.318.676" transform="translate(-3623.409 -41.681)"/>
  <path id="Path_3898" data-name="Path 3898" d="M3542.25,60.707c.524.46.192.59-.26.675-.055-.28-.158-.577.26-.675" transform="translate(-3504.843 -37.93)"/>
  <path id="Path_3899" data-name="Path 3899" d="M3590.435,34.423c-.041.455-.082.907-.654.342.089-.362.407-.283.654-.342" transform="translate(-3531.319 -23.384)"/>
  <path id="Path_3900" data-name="Path 3900" d="M3543.553,69.71l.263.346c-.191-.037-.337-.107-.263-.346" transform="translate(-3505.726 -42.912)" fill="#040202"/>
  <path id="Path_3901" data-name="Path 3901" d="M3557.926,48.856l-.37.264c.056-.183.131-.338.37-.264" transform="translate(-3513.486 -31.361)"/>
  <path id="Path_3902" data-name="Path 3902" d="M3564.66,45.863l-.37.264c.056-.183.132-.338.37-.264" transform="translate(-3517.213 -29.705)"/>
  <path id="Path_3903" data-name="Path 3903" d="M3591.585,33.888l-.381.246c.054-.194.154-.319.381-.246" transform="translate(-3532.107 -23.076)"/>
  <path id="Path_3904" data-name="Path 3904" d="M3491.417,232.765l-4.978.346c-.777-1.741-2.195-2.362-4.158-2.009-2.238.4-4.492.756-6.754.98-2.155.213-3.406-1.1-3.821-4.094-.635-4.585-1.252-9.178-1.653-13.788-.236-2.706-.038-5.449-.037-8.176a69.246,69.246,0,0,1,.315-9.269,2.5,2.5,0,0,0-.256-1.748l.263-.252c.687-1.831.547-3.807,1-5.681.361-1.491.595-3.015,1.014-4.488a2.77,2.77,0,0,1,3.2-1.931c3.829.591,7.683.961,11.537,1.345,4.336.431,8.636,1.232,12.976,1.587,2.4.2,4.788.525,7.184.75,2.987.28,5.962.682,8.948.973.728.071.582.514.585.923.011,1.392-.019,2.785.011,4.177a3.328,3.328,0,0,1-1.785,2.8c-3.2,2.222-4.777,5.444-5.544,9.07-1.3,6.161,1.012,11.084,5.592,15.121.07.177.143.35.39.277a3.511,3.511,0,0,1,1.366,3.515,6.171,6.171,0,0,0,0,2.327c.329,1.609-.533,2.1-1.867,2.233-3.587.346-7.181.632-10.764,1.019-3.674.4-7.352.793-11,1.383a2.317,2.317,0,0,0-1.773,2.609" transform="translate(-3464.997 -105.396)" fill="#ecf3fd"/>
  <path id="Path_3905" data-name="Path 3905" d="M3764.121,232.131c-2.549.363-4.974-.6-7.49-.708-2.6-.115-5.185-.612-7.781-.906-4.06-.46-8.134-.776-12.2-1.243a66.037,66.037,0,0,0-8.836-.781c-2.6.05-2.6-.214-2.844-2.772a7.632,7.632,0,0,1,3-7.058c6.91-5.88,6.261-18.04-1.494-23.346a3.5,3.5,0,0,1-1.455-3.308c.135-1.524-.7-3.6.363-4.419.885-.681,2.831-.317,4.295-.525,3.936-.56,7.917-.676,11.853-1.3,2.582-.411,5.256-.276,7.823-.746,3.325-.609,6.7-.636,10.034-1.183a14.448,14.448,0,0,1,4.731-.382,9.073,9.073,0,0,1,.529,1.392,89.972,89.972,0,0,1,2.081,16.206c.139,6.576.365,13.17-.574,19.736-.546,3.811-.812,7.662-2.042,11.346" transform="translate(-3606.063 -105.809)" fill="#ecf3fd"/>
  <path id="Path_3906" data-name="Path 3906" d="M3614.311,162.211c2.428,1.817,4.967,3.219,8.181,2.391a5.59,5.59,0,0,1,1.473.018.7.7,0,0,0,.688.268l-.01-.009c-.041.5.336.782.583,1.146a28.789,28.789,0,0,1,2.454,3.731c1.227,2.6.946,5.312.942,8.012a6.991,6.991,0,0,0,.669,2.871c.758,1.748,2.524,2.459,3.656,3.8a13.139,13.139,0,0,1-2.032,19.39,5.677,5.677,0,0,0-2.27,4.568c-.027,1.055-.023,2.112,0,3.168a11.9,11.9,0,0,1-3.661,8.968c-.42.422-.99.757-1.025,1.458-1.668.366-3.262-.647-5.04-.037a11.76,11.76,0,0,0-4.317,2.147q-.344-.046-.29.3l-.117-.041c-2.1-.167-4.179.056-5.626,1.694-.98,1.11-2.111,2.086-2.983,3.291-3.763.288-6.532-1.326-8.863-4.223a8.389,8.389,0,0,0-8.6-3.174,6.611,6.611,0,0,1-4.31-.562c-1.175-.583-2.645-.271-3.628-1.54-1.992-2.573-3.9-5.1-3.69-8.622a18.791,18.791,0,0,0-.118-4.475,8.675,8.675,0,0,0-3.842-5.64,9.268,9.268,0,0,1-3.321-5.128c-1.161-4,.164-7.389,3-10.276.739-.752,1.533-1.451,2.25-2.224a7.135,7.135,0,0,0,2.077-5.033c0-2.556-.358-5.137.814-7.625a10.33,10.33,0,0,1,6.96-5.9,10.672,10.672,0,0,1,4.352-.109,8.793,8.793,0,0,0,6.631-2.176,12.911,12.911,0,0,0,2.011-1.993,9.073,9.073,0,0,1,8.612-3.369,14.547,14.547,0,0,1,1.439,1.61,7.005,7.005,0,0,0,6.951,3.325m15.333,31.18a24.571,24.571,0,0,0-42.521-16.939c-5.793,6.189-7.586,13.749-6.365,21.679a21.458,21.458,0,0,0,7.089,12.628c4.929,4.329,10.6,7.364,17.347,7.236,12.622-.24,24.834-10.729,24.45-24.6" transform="translate(-3519.703 -91.326)" fill="#f0dc34"/>
  <path id="Path_3907" data-name="Path 3907" d="M3542.065,161.68a16.13,16.13,0,0,0-6.484,6.388c-.758,1.295-2.166.628-3.137.478-2.531-.392-5.086-.531-7.616-.9-4.428-.647-8.894-.994-13.333-1.567-2.594-.335-5.219-.643-7.84-.758-2.888-.127-2.892-.04-2.892-2.953,0-.445-.027-.893.005-1.336a3.162,3.162,0,0,1,3.813-3.077c3.3.549,6.649.6,9.952,1.034,2.927.385,5.875.654,8.8.859s5.835.681,8.777.814c3.2.145,6.383.637,9.954,1.019" transform="translate(-3482.051 -91.717)" fill="#d6e3fa"/>
  <path id="Path_3908" data-name="Path 3908" d="M3707.548,161.745c1.786-.751,3.625-.527,5.4-.727,4.559-.514,9.142-.8,13.7-1.374,2.879-.361,5.792-.439,8.684-.709,2.985-.279,5.971-.574,8.941-.978,2.723-.37,4.439,1.028,4.474,3.817.04,3.145.046,3.219-3.114,3.491-5.274.454-10.54.941-15.79,1.661-3.843.527-7.735.7-11.6,1.05a6.969,6.969,0,0,0-.938.247c-2.191.518-3.216.164-4.465-1.721a16.822,16.822,0,0,0-5.285-4.758" transform="translate(-3596.493 -91.717)" fill="#d6e3fa"/>
  <path id="Path_3909" data-name="Path 3909" d="M3692.322,231.5c.035-.7.605-1.035,1.025-1.458a11.9,11.9,0,0,0,3.661-8.967c-.022-1.056-.026-2.113,0-3.169a5.678,5.678,0,0,1,2.269-4.568,13.139,13.139,0,0,0,2.032-19.39c-1.132-1.339-2.9-2.051-3.656-3.8a6.979,6.979,0,0,1-.669-2.871c0-2.7.286-5.416-.942-8.012a28.744,28.744,0,0,0-2.454-3.732c-.247-.365-.623-.642-.582-1.146,4.551-.3,9.229,4.857,9.036,9.274-.122,2.789-.363,5.632,1.276,8.2a7.563,7.563,0,0,0,2.149,2.482c5.161,3.225,5.648,11.809,1.268,15.662-2,1.762-4.064,3.551-4.56,6.46a17.706,17.706,0,0,0-.125,4.465c.409,4.9-3.6,9.268-8.152,10.283-.521.116-1.052.192-1.577.288" transform="translate(-3588.067 -100.835)" fill="#ebc130"/>
  <path id="Path_3910" data-name="Path 3910" d="M3812.8,231.7c1.23-3.684,1.5-7.535,2.042-11.346.94-6.566.714-13.16.574-19.736a89.972,89.972,0,0,0-2.081-16.206,9.074,9.074,0,0,0-.529-1.392c2.438-.846,4.547-.477,5.389,1.275a14,14,0,0,1,.954,4.065c.787,5.539,1.18,11.1,1.458,16.7a137.882,137.882,0,0,1-.508,13.974c-.154,3.019-.907,6-1.262,9.019-.361,3.066-1.748,4.194-4.883,3.746-.381-.054-.768-.066-1.153-.1" transform="translate(-3654.738 -105.38)" fill="#d6e3fa"/>
  <path id="Path_3911" data-name="Path 3911" d="M3599.618,314.458a3.385,3.385,0,0,1-.318.694c-3.082,4.842-5.933,9.815-8.624,14.884-.346.653-.966,1.148-1.29,1.868-.394.879-.737,2.061-1.458,2.444-.947.5-1.268-1.044-2.083-1.392-.393-.168-.76-.4-1.155-.564-2.049-.848-2.061-.849-.948-2.789,2.525-4.4,5.032-8.818,7.62-13.185.476-.8.067-1.844,1.108-2.529,1.361-.895,5.5-1.451,6.826-.581.276.182.546.406.322,1.15" transform="translate(-3527.569 -177.48)" fill="#ebf2fc"/>
  <path id="Path_3912" data-name="Path 3912" d="M3569,302.257a20.079,20.079,0,0,0,4.869,3.606q-4.148,7.2-8.29,14.389c-.656,1.138-1.363,2.249-1.976,3.411-.247.467-.557,1.053-1,.993-1.822-.251-3.633-.6-5.423-1.028-.466-.11-.248-.6-.038-.963q3.722-6.382,7.424-12.776l4.429-7.631" transform="translate(-3513.128 -171.606)" fill="#da6570"/>
  <path id="Path_3913" data-name="Path 3913" d="M3691.883,334.69c-1.951-3.391-3.813-6.625-5.673-9.86-1.942-3.379-3.865-6.77-5.835-10.133-.485-.828-.614-1.131.56-1.517,1.862-.612,3.551.411,5.355.2.564-.067.873,1,1.217,1.6,2.929,5.059,5.775,10.167,8.783,15.177.806,1.342.6,1.893-.81,2.156-1.539.288-2.493,1.454-3.6,2.382" transform="translate(-3581.26 -177.541)" fill="#ebf2fc"/>
  <path id="Path_3914" data-name="Path 3914" d="M3671.109,346.382q-4.171-7.146-8.339-14.294c-1.122-1.931-2.217-3.877-3.341-5.845a32.568,32.568,0,0,0,3.412-1.538c1.948-1.15,1.986-1.246,3.073.639,3.2,5.542,6.334,11.12,9.494,16.683-1.666,1.221-2.51,3.254-4.3,4.354" transform="translate(-3569.863 -183.571)" fill="#da6570"/>
  <path id="Path_3915" data-name="Path 3915" d="M3617.183,325.439a4.655,4.655,0,0,1,.6.262c.984.6,2.69.685,2.869,1.723.155.895-.907,2.022-1.482,3.016-3.652,6.312-7.337,12.6-10.958,18.934-.587,1.028-.856,1.142-1.511.066a17.349,17.349,0,0,0-1.928-2.247,6.078,6.078,0,0,1,.311-.752q6.045-10.5,12.1-21" transform="translate(-3539.616 -184.435)" fill="#d74b58"/>
  <path id="Path_3916" data-name="Path 3916" d="M3709.46,305.082c.745-.874,1.866-1.32,2.547-2.284.429-.607.806-.343,1.12.2q3.847,6.717,7.715,13.421c1.1,1.9,2.166,3.824,3.352,5.67.751,1.168.428,1.731-.8,1.969-1.286.25-2.583.443-3.875.662a6.683,6.683,0,0,0-1.365-4.814c-.618-.911-1.115-1.9-1.674-2.854q-3.506-5.989-7.017-11.975" transform="translate(-3597.551 -171.712)" fill="#d74b58"/>
  <path id="Path_3917" data-name="Path 3917" d="M3615.737,324.544q-6.052,10.5-12.1,21a6.159,6.159,0,0,0-.311.752c-1.258-.715-1.529-1.431-.667-2.863q5.449-9.058,10.568-18.311c.81-1.469,1.353-1.743,2.511-.581" transform="translate(-3538.169 -183.54)" fill="#da6570"/>
  <path id="Path_3918" data-name="Path 3918" d="M3707.681,308.344q3.509,5.988,7.017,11.975c.558.952,1.056,1.943,1.673,2.854a6.685,6.685,0,0,1,1.365,4.814c-.827.39-1.04-.278-1.335-.785q-2.841-4.877-5.674-9.758c-1.342-2.316-2.6-4.686-4.034-6.94-.907-1.423-.368-1.909.987-2.159" transform="translate(-3595.772 -174.974)" fill="#da6570"/>
  <path id="Path_3919" data-name="Path 3919" d="M3685.583,368.873c1.789-1.1,2.633-3.133,4.3-4.354a10.6,10.6,0,0,1,1.21,1.944,1.387,1.387,0,0,1-.234,1.808c-1.36.984-2.019,2.621-3.488,3.512a13.514,13.514,0,0,1-1.787-2.91" transform="translate(-3584.337 -206.062)" fill="#d74b58"/>
  <path id="Path_3920" data-name="Path 3920" d="M3651.182,312.512c.872-1.2,2-2.182,2.983-3.291,1.447-1.638,3.526-1.862,5.625-1.694-2.1,3-4.787,4.968-8.608,4.986" transform="translate(-3565.3 -174.496)" fill="#ebc130"/>
  <path id="Path_3921" data-name="Path 3921" d="M3660.322,162.3a7,7,0,0,1-6.951-3.325,14.569,14.569,0,0,0-1.439-1.61c3.207-.145,5.537,1.492,7.552,3.745a12.385,12.385,0,0,1,.839,1.19" transform="translate(-3565.714 -91.418)" fill="#ebc130"/>
  <path id="Path_3922" data-name="Path 3922" d="M3693.025,174.036a.7.7,0,0,1-.688-.268c.292-.07.572-.113.688.268" transform="translate(-3588.075 -100.473)" fill="#ebc130"/>
  <path id="Path_3923" data-name="Path 3923" d="M3650.753,336.323l-.324-.08.213-.378.111.458" transform="translate(-3564.883 -190.205)" fill="#040202"/>
  <path id="Path_3924" data-name="Path 3924" d="M3470.494,209.773l-.264.252c-.044-.222.034-.316.264-.252" transform="translate(-3465.152 -120.413)" fill="#ebf2fc"/>
  <path id="Path_3925" data-name="Path 3925" d="M3670.713,307.3q-.054-.343.29-.3l-.29.3" transform="translate(-3576.104 -174.23)" fill="#040202"/>
  <path id="Path_3926" data-name="Path 3926" d="M3571.369,265.262c-.247.073-.32-.1-.39-.277l.39.277" transform="translate(-3520.915 -150.979)" fill="#040202"/>
  <path id="Path_3927" data-name="Path 3927" d="M3639.74,81.389l-39.4.018q.038-5.814.076-11.628,18.662,0,37.323.012c.664,0,1.329.052,1.993.079q.006,5.759.012,11.519" transform="translate(-3537.161 -42.95)" fill="#516874"/>
  <path id="Path_3928" data-name="Path 3928" d="M3600.242,107.144q21.775-.012,43.55-.041c.9,0,1.222.189,1.239,1.171.071,4.121-2.439,6.07-6.833,5.1a9.708,9.708,0,0,0-2.123-.215q-16.269-.015-32.538-.012c-2.091,0-2.968-.644-3.366-2.359q.036-1.82.072-3.64" transform="translate(-3537.069 -63.606)" fill="#82b7f9"/>
  <path id="Path_3929" data-name="Path 3929" d="M3688.555,81.382q-.006-5.76-.012-11.519l5.286-.1q.074.652.146,1.306c-.02,2.99-.083,5.981-.035,8.97.017,1.08-.3,1.488-1.4,1.409-1.323-.094-2.656-.052-3.984-.069" transform="translate(-3585.975 -42.943)" fill="#425768"/>
  <path id="Path_3930" data-name="Path 3930" d="M3677.468,46.128a54.177,54.177,0,0,0,9.556-4.217c1.723-.947,1.432-3.587-.424-4.507-2.784-1.38-5.63-2.638-8.47-3.9-5.473-2.435-10.963-4.834-16.443-7.255q-5.48-2.422-10.953-4.86c-.45-.2-.985-.286-1.075-.907,1.464.058,2.575,1.108,3.955,1.4l.7.3,2.04.9.968.433,2.039.9.969.433a7.729,7.729,0,0,0,2.311,1.038l.7.3a6.345,6.345,0,0,0,2.039.908l.965.444,2.313,1.029.695.307,2.313,1.029.7.292a7.52,7.52,0,0,0,2.309,1.045l.694.307,2.044.888.963.448,2.043.893.965.444,2.313,1.029.694.307,2.316,1.023.692.314,2.313,1.029.695.307c.785.684,2.562.594,2.51,1.528-.055,1-1.718,1.1-2.682,1.549-3.813,1.766-7.666,3.447-11.521,5.121-.39.169-1.129.976-1.236-.308" transform="translate(-3564.457 -15.668)" fill="#516874"/>
  <path id="Path_3931" data-name="Path 3931" d="M3545.651,102.354c.771-1.593,2.2-1.581,3.543-1.212a2.944,2.944,0,0,1,2.017,2.913c.018.221,0,.443.007.665.065,5.276.065,5.276-5.226,4.953,0-.936.065-1.876-.011-2.805-.123-1.5.387-3.056-.33-4.514" transform="translate(-3506.898 -60.194)" fill="#ebc130"/>
  <path id="Path_3932" data-name="Path 3932" d="M3599.149,69.761l-.076,11.628c-.794.541-.99-.046-1-.618-.033-3.388-.012-6.777-.024-10.166,0-.8.466-.907,1.1-.844" transform="translate(-3535.898 -42.932)"/>
  <path id="Path_3933" data-name="Path 3933" d="M3544.911,104.108c.717,1.459.207,3.01.33,4.514.075.929.012,1.869.01,2.805-.332.052-.809.125-.8-.308.056-2.341-.575-4.734.457-7.011" transform="translate(-3506.157 -61.948)" fill="#f0dc34"/>
  <path id="Path_3934" data-name="Path 3934" d="M3598.986,106.865q-.036,1.82-.072,3.64c-.992-.612-1.378-2.976-.6-3.771.244-.25.487-.122.671.131" transform="translate(-3535.813 -63.327)"/>
  <path id="Path_3935" data-name="Path 3935" d="M3700.526,71.071q-.073-.652-.146-1.305c.353,0,.658.077.716.495.061.441-.085.748-.57.811" transform="translate(-3592.526 -42.943)"/>
  <path id="Path_3936" data-name="Path 3936" d="M3665.611,26.349l-.968-.433c.648-.585.921-.328.968.433" transform="translate(-3572.749 -18.499)"/>
  <path id="Path_3937" data-name="Path 3937" d="M3712.746,47.318l-.964-.448c.666-.591.929-.315.964.448" transform="translate(-3598.836 -30.095)"/>
  <path id="Path_3938" data-name="Path 3938" d="M3719.479,50.311l-.965-.444c.664-.6.928-.323.965.444" transform="translate(-3602.561 -31.752)"/>
  <path id="Path_3939" data-name="Path 3939" d="M3685.807,35.346l-.965-.444c.664-.6.928-.323.965.444" transform="translate(-3583.927 -23.47)"/>
  <path id="Path_3940" data-name="Path 3940" d="M3672.345,29.342l-.968-.433c.648-.585.92-.328.968.433" transform="translate(-3576.476 -20.155)"/>
  <path id="Path_3941" data-name="Path 3941" d="M3575.622,48.753q0,.333,0,.666c-.211-.033-.459-.063-.46-.332s.247-.3.458-.334" transform="translate(-3523.23 -31.314)"/>
  <path id="Path_3942" data-name="Path 3942" d="M3740.016,59.44l-.694-.307c.108-.16.18-.4.439-.323.319.1.247.388.255.631" transform="translate(-3614.077 -36.871)"/>
  <path id="Path_3943" data-name="Path 3943" d="M3733.285,56.446l-.691-.314c.109-.159.183-.4.44-.317.315.1.244.389.251.631" transform="translate(-3610.353 -35.214)"/>
  <path id="Path_3944" data-name="Path 3944" d="M3706.345,44.475l-.695-.307c.108-.16.181-.4.439-.323.318.1.247.388.255.631" transform="translate(-3595.442 -28.589)"/>
  <path id="Path_3945" data-name="Path 3945" d="M3699.615,41.466l-.7-.292c.106-.16.177-.4.433-.326.32.09.254.378.266.618" transform="translate(-3591.717 -26.932)"/>
  <path id="Path_3946" data-name="Path 3946" d="M3692.875,38.49l-.694-.307c.108-.16.18-.4.439-.323.319.1.247.388.255.63" transform="translate(-3587.989 -25.277)"/>
  <path id="Path_3947" data-name="Path 3947" d="M3679.415,32.485l-.7-.3c.107-.159.179-.395.435-.32.316.092.251.379.262.618" transform="translate(-3580.539 -21.962)"/>
  <path id="Path_3948" data-name="Path 3948" d="M3726.547,53.455l-.694-.307c.108-.16.181-.4.439-.323.319.1.247.388.255.63" transform="translate(-3606.623 -33.559)"/>
  <path id="Path_3949" data-name="Path 3949" d="M3659.212,23.506l-.7-.3c.107-.159.179-.395.435-.32.315.092.251.379.261.618" transform="translate(-3569.358 -16.993)"/>
  <path id="Path_3950" data-name="Path 3950" d="M3644.023,207.6c.384,13.874-11.828,24.363-24.451,24.6-6.751.129-12.418-2.907-17.347-7.236a21.458,21.458,0,0,1-7.089-12.628c-1.221-7.931.572-15.49,6.365-21.679a24.571,24.571,0,0,1,42.522,16.939m-9,11.605a.585.585,0,0,0,.647-.644,17.9,17.9,0,0,0,3.31-8.362c.665-6.856-1.144-12.882-6.592-17.489-6.23-5.27-13.261-6.2-20.645-3.22-8.129,3.28-12.676,11.421-11.816,20.367a12.549,12.549,0,0,0,.825,4.262,24.25,24.25,0,0,0,8.577,10.022,17.646,17.646,0,0,0,9.421,3.046c6.7.077,12.284-2.395,16.272-7.981" transform="translate(-3534.082 -105.534)"/>
  <path id="Path_3951" data-name="Path 3951" d="M3641.29,225.328c-3.989,5.586-9.568,8.059-16.272,7.981a17.649,17.649,0,0,1-9.421-3.046,24.25,24.25,0,0,1-8.577-10.022,12.553,12.553,0,0,1-.825-4.262c-.86-8.946,3.687-17.087,11.816-20.367,7.384-2.98,14.415-2.05,20.645,3.22,5.448,4.608,7.256,10.634,6.592,17.49a17.9,17.9,0,0,1-3.31,8.362c-.3.134-.95-.091-.647.644m-2.031-12.064c.291-6.492-5.844-12.683-13.117-13.114-8.139-.483-14.065,6.89-13.959,13.024C3612.319,221,3618,227.4,3625.8,227.3a13.731,13.731,0,0,0,13.456-14.035" transform="translate(-3540.346 -111.658)" fill="#faef6c"/>
  <path id="Path_3952" data-name="Path 3952" d="M3684.811,263.435c-.3-.735.352-.51.648-.644a.585.585,0,0,1-.648.644" transform="translate(-3583.867 -149.765)" fill="#040202"/>
  <path id="Path_3953" data-name="Path 3953" d="M3646.805,220.941a13.731,13.731,0,0,1-13.456,14.035c-7.806.1-13.484-6.3-13.62-14.125-.107-6.134,5.82-13.508,13.959-13.024,7.273.432,13.408,6.622,13.117,13.114m-13.373-7.921c-5.616-1.328-10.721,6.5-7.872,11.757a9.626,9.626,0,0,0,7.539,5.173,8.537,8.537,0,0,0,5.126-1.7c1.929-1.217,3.546-3.23,3.659-5.194.123-2.139.441-4.632-1.451-6.759-1.976-2.221-4-3.6-7-3.278" transform="translate(-3547.892 -119.335)"/>
  <path id="Path_3954" data-name="Path 3954" d="M3639.319,236.227a9.625,9.625,0,0,1-7.539-5.173c-2.849-5.252,2.255-13.085,7.872-11.757.037.7.686.971,1.014,1.464,1.238,1.864,2.643,3.683,2.056,6.159-.653-2.312-2.56-1.564-4.1-1.656a1.973,1.973,0,0,0-2.083,1.219,2.25,2.25,0,0,0,.3,2.448c1.362,1.938,4.2,1.748,5.8-.352.545,1.166-.126,2.153-.477,3.183-.584,1.716-1.976,2.922-2.837,4.464" transform="translate(-3554.111 -125.613)" fill="#f0dc34"/>
  <path id="Path_3955" data-name="Path 3955" d="M3653.073,227.049c.587-2.476-.818-4.3-2.056-6.159-.328-.493-.977-.765-1.014-1.464,3-.326,5.026,1.057,7,3.278,1.892,2.127,1.574,4.62,1.451,6.759-.113,1.964-1.729,3.977-3.659,5.194a8.537,8.537,0,0,1-5.126,1.7c.86-1.543,2.252-2.749,2.837-4.464.351-1.03,1.022-2.017.477-3.183q.044-.829.088-1.659" transform="translate(-3564.463 -125.74)" fill="#ebc130"/>
  <path id="Path_3956" data-name="Path 3956" d="M3649.332,234.446q-.045.829-.089,1.659c-1.593,2.1-4.433,2.291-5.794.352a2.249,2.249,0,0,1-.3-2.448,1.973,1.973,0,0,1,2.083-1.218c1.541.091,3.448-.656,4.1,1.656" transform="translate(-3560.721 -133.137)"/>
</svg>
