<svg id="Group_155" data-name="Group 155" xmlns="http://www.w3.org/2000/svg" width="133.209" height="125.399" viewBox="0 0 133.209 125.399">
  <path id="Path_4177" data-name="Path 4177" d="M4005.928,333.294q0,.127,0,.253l-.236-.226.24-.027" transform="translate(-4005.688 -212.928)" fill="#010101"/>
  <path id="Path_4178" data-name="Path 4178" d="M4105.48,264.614c2.225.027,4.449.042,6.672.084,1.888.035,2.841.947,2.873,2.83.041,2.338.092,4.68-.021,7.013-.064,1.31.4,1.554,1.605,1.541,6.068-.061,12.137-.038,18.206-.022,1.954,0,2.745.779,2.749,2.443,0,1.414-.978,1.853-2.047,2.2a3.929,3.929,0,0,1-1.162.031h-107.9c-2.316,0-3.271-.583-3.523-2.126a2.1,2.1,0,0,1,2.033-2.512,13.149,13.149,0,0,1,1.669-.039c9.409,0,18.819-.03,28.227.032,1.344.009,1.685-.376,1.645-1.672-.077-2.555.025-5.115.054-7.673.237-.184.179-.416.106-.651.171-1.114,1.02-1.3,1.921-1.367.721-.05,1.446-.029,2.17-.03,2.722,0,2.755,0,2.935-2.685.275-4.1.5-8.194.984-12.273.123-1.028-.495-.694-1.056-.442-2.1.946-4.236,1.821-6.324,2.8-6.571,3.073-13.175,6.075-19.762,9.11-2.188,1.008-4.458,1.866-6.576,3.05-1.751.979-2.775.706-3.65-1.062-1.5-3.024-2.933-6.085-4.241-9.195a2.077,2.077,0,0,1,1.2-2.931c4.016-1.8,7.948-3.791,12.025-5.43,2.186-.878,4.173-2.133,6.379-2.939a12.541,12.541,0,0,1,11.02.9,7.177,7.177,0,0,1,3.138,2.737c.267.515.717.811,1.291.385a29.577,29.577,0,0,1,5.616-2.733c1.543-.706,1.6-1.732,1.627-2.953a29.282,29.282,0,0,1,1.38-8.728,3.724,3.724,0,0,1,2.156-2.7,1.4,1.4,0,0,1,1.48.139c1.4.692,1.593,1.514,1.06,3.126-.8,2.406-1.814,4.783-1.4,7.434a7.188,7.188,0,0,1-.164,3.259c-.292,1.012-1.141,2.163-.743,3.211.5,1.313.082,2.492.072,3.738-.014,1.7-.627,3.305-.514,5.019a36.828,36.828,0,0,1-.536,7.561c-.185,1.316.019,1.638,1.314,1.63,7.059-.043,14.119-.01,21.179-.024,4.945-.01,9.889-.052,14.834-.08m-19.7,11.443c6.513,0,13.027.015,19.539-.011,1.6-.006,3.746.693,4.675-.254,1.084-1.1.21-3.278.373-4.975.115-1.2-.375-1.475-1.513-1.467-7.069.048-14.139.024-21.209.024-8.239,0-16.479.047-24.716-.042-1.54-.017-1.931.467-1.8,1.871a17.322,17.322,0,0,1,0,3.336c-.135,1.312.4,1.554,1.61,1.546,7.682-.053,15.364-.027,23.046-.027m-32.859-27.1c-1.564-2.212-6.072-3.234-8.883-1.908-3.952,1.864-7.958,3.61-11.927,5.439-3.915,1.8-3.875,1.805-1.92,5.715.389.777.664.924,1.45.56,7.057-3.277,14.132-6.518,21.28-9.8" transform="translate(-4015.183 -155.464)"/>
  <path id="Path_4179" data-name="Path 4179" d="M4161.553,255.8c-4.945.028-9.89.07-14.834.08-7.06.014-14.119-.019-21.179.024-1.3.008-1.5-.314-1.314-1.63a36.894,36.894,0,0,0,.536-7.561c-.113-1.714.5-3.32.514-5.019.011-1.246.426-2.425-.071-3.738-.4-1.048.452-2.2.743-3.211a7.2,7.2,0,0,0,.164-3.259c-.411-2.651.607-5.028,1.4-7.434.532-1.612.336-2.434-1.06-3.126a13.977,13.977,0,0,0,2.047-2.4,2.715,2.715,0,0,0,3.233.02c1.6-.973,1.469-2.241,1.343-3.667a9.016,9.016,0,0,1,3.014-1.349,3.005,3.005,0,0,0,3.447,1.639,13.2,13.2,0,0,1,8.424,1.145c7.152,3.094,9.353,9.247,9.226,15.882-.007.412-.326.888-.2,1.222a15.113,15.113,0,0,1,.939,6.191,30.682,30.682,0,0,0,.543,5.533,36.927,36.927,0,0,0,.59,4.805c.485,1.833.549,2.533,2.442,2.72q.024,1.566.049,3.133m-19.482-34.922c-4.433-.063-7.521,2.469-7.6,6.226a7.7,7.7,0,0,0,7.336,8.139c3.246.093,6.979-3.293,7.05-6.4.117-5.062-2.308-7.906-6.79-7.97" transform="translate(-4071.256 -146.651)" fill="#4a7aff"/>
  <path id="Path_4180" data-name="Path 4180" d="M4176.281,221.587c-1.894-.187-1.957-.886-2.442-2.72a36.919,36.919,0,0,1-.59-4.8,30.6,30.6,0,0,1-.544-5.534,15.105,15.105,0,0,0-.938-6.19c-.125-.335.192-.81.2-1.222.127-6.635-2.074-12.788-9.227-15.882a13.2,13.2,0,0,0-8.423-1.145,3.005,3.005,0,0,1-3.447-1.639c.134-2.437.448-2.634,3.388-3.027a19.19,19.19,0,0,1,13.615,3.353,11.258,11.258,0,0,1,3.817,3.51c.345.6.725.413,1.229.179,4.379-2.03,8.774-4.026,13.16-6.039.564-.259.819-.412.691-1.33a12.242,12.242,0,0,1,6.664-13.025q8.978-4.211,17.982-8.361a2.265,2.265,0,0,1,3.379,1.166c1.452,2.943,2.866,5.909,4.186,8.913.731,1.664-.1,2.882-2.284,3.855-4.8,2.138-9.6,4.276-14.377,6.469q-13.842,6.358-27.634,12.766a20.665,20.665,0,0,1,1.956,8.05c.4,4.14.92,8.291.921,12.438,0,2.283.362,4.531.447,6.791.066,1.791-.133,2.78-1.73,3.428m15.075-45.03c-.119,1.077.085,1.451,1.249.9,5.889-2.765,11.825-5.429,17.71-8.2,1.139-.536,3-.71,3.211-1.778.208-1.05-.921-2.357-1.436-3.563-.383-.9-.882-1.032-1.792-.6-4.907,2.307-9.9,4.445-14.75,6.858a7.3,7.3,0,0,0-4.192,6.385" transform="translate(-4086.033 -115.57)"/>
  <path id="Path_4181" data-name="Path 4181" d="M4243.638,63.821c4.726-.464,10.543,4.048,10.331,10.211a10.535,10.535,0,0,1-10.922,10.46c-4.929-.053-9.533-4.456-9.868-9.8-.4-6.328,4.968-11.479,10.458-10.876m-5.724,10.07a5.679,5.679,0,1,0,11.352.258,5.294,5.294,0,0,0-5.3-5.65c-3.7-.008-6.036,2.072-6.048,5.392" transform="translate(-4131.572 -63.773)"/>
  <path id="Path_4182" data-name="Path 4182" d="M4251.346,118.246c.515-1.646,1.9-1.442,3.082-1.272,1.212.175,1.587,1.234,1.594,2.348.021,3.708.071,7.417-.024,11.123-.034,1.3-.483,2.643-2.09,2.83a2.093,2.093,0,0,1-2.569-1.969c.514-2.919.153-5.861.206-8.791a12.051,12.051,0,0,0-.2-4.268" transform="translate(-4141.633 -93.153)"/>
  <path id="Path_4183" data-name="Path 4183" d="M4276.141,117.868c-.2,1.437.365,3.219-.326,4.927a2.139,2.139,0,0,1-2.494,1.534,2.167,2.167,0,0,1-1.847-2.177q-.015-4.323-.006-8.646c0-1.648.688-2.449,2.086-2.5a2.506,2.506,0,0,1,2.571,2.4c.071,1.382.015,2.77.015,4.455" transform="translate(-4152.771 -89.913)"/>
  <path id="Path_4184" data-name="Path 4184" d="M4231.758,112.335c.169-1.112,1-1.264,1.908-1.33a2.265,2.265,0,0,1,2.447,1.67l.008,9.7a2.4,2.4,0,0,1-2.273,1.948,1.9,1.9,0,0,1-2.113-1.588q.012-5.2.024-10.4" transform="translate(-4130.784 -89.907)"/>
  <path id="Path_4185" data-name="Path 4185" d="M4292.987,338.539c-1.378.268-2.228-.673-2.761-1.831a1.976,1.976,0,0,1,.966-2.38c1.195-.878,2.553-.58,3.854-.159,1.149.371,1.161,1.328,1.091,2.289-.089,1.2-1.377,2.082-3.15,2.082" transform="translate(-4163.074 -213.187)"/>
  <path id="Path_4186" data-name="Path 4186" d="M4137.613,215.281c.125,1.426.259,2.694-1.343,3.667a2.714,2.714,0,0,1-3.233-.02c-1.165-2.422-.895-3.144,1.37-4.364,1.349-.727,2.254-.034,3.206.717" transform="translate(-4075.791 -147.052)"/>
  <path id="Path_4187" data-name="Path 4187" d="M4251.346,119.961a12.051,12.051,0,0,1,.2,4.268c-.052,2.93.308,5.872-.206,8.791l.007-13.059" transform="translate(-4141.633 -94.868)" fill="#555"/>
  <path id="Path_4188" data-name="Path 4188" d="M4231.291,113.993q-.012,5.2-.024,10.4c-.649-2.265-.207-4.579-.266-6.868-.029-1.17-.363-2.407.29-3.536" transform="translate(-4130.317 -91.565)" fill="#555"/>
  <path id="Path_4189" data-name="Path 4189" d="M4241.545,124.46q0-4.852-.008-9.7a39.488,39.488,0,0,1,.008,9.7" transform="translate(-4136.209 -91.988)" fill="#555"/>
  <path id="Path_4190" data-name="Path 4190" d="M4097.923,311.489c.073.234.131.467-.106.651-.236.01-.486-.059-.4-.324.045-.147.332-.22.51-.327" transform="translate(-4056.44 -200.861)" fill="#555"/>
  <path id="Path_4191" data-name="Path 4191" d="M4133.191,325.47c-7.683,0-15.365-.026-23.046.027-1.207.008-1.745-.234-1.61-1.546a17.3,17.3,0,0,0,0-3.336c-.129-1.4.262-1.888,1.8-1.871,8.238.089,16.477.042,24.716.042,7.069,0,14.14.024,21.209-.024,1.137-.008,1.627.271,1.513,1.467-.163,1.7.711,3.871-.373,4.975-.929.946-3.071.247-4.675.254-6.513.026-13.026.011-19.539.011" transform="translate(-4062.594 -204.877)" fill="#ff36c1"/>
  <path id="Path_4192" data-name="Path 4192" d="M4060.418,270.016c-7.148,3.287-14.222,6.527-21.28,9.8-.785.364-1.061.217-1.449-.56-1.955-3.909-1.995-3.911,1.92-5.715,3.969-1.828,7.975-3.575,11.927-5.439,2.81-1.325,7.318-.3,8.883,1.908" transform="translate(-4022.679 -176.527)" fill="#fdd200"/>
  <path id="Path_4193" data-name="Path 4193" d="M4154.844,229.983c4.482.063,6.906,2.908,6.79,7.97-.072,3.1-3.8,6.488-7.05,6.4a7.7,7.7,0,0,1-7.334-8.139c.073-3.757,3.161-6.289,7.595-6.226m-.353,4.677c-1.81,0-2.576.7-2.564,2.36a3.507,3.507,0,0,0,2.283,2.653,2.74,2.74,0,0,0,2.734-2.587c-.009-1.828-.611-2.424-2.453-2.425" transform="translate(-4084.028 -155.754)"/>
  <path id="Path_4194" data-name="Path 4194" d="M4241.488,183.637a7.3,7.3,0,0,1,4.191-6.385c4.854-2.412,9.844-4.551,14.751-6.858.91-.427,1.409-.292,1.792.6.515,1.206,1.644,2.513,1.436,3.563-.212,1.068-2.073,1.242-3.211,1.778-5.886,2.772-11.822,5.436-17.711,8.2-1.164.547-1.367.173-1.248-.9" transform="translate(-4136.166 -122.649)" fill="#fdd200"/>
  <path id="Path_4195" data-name="Path 4195" d="M4243.781,79.748c.012-3.32,2.345-5.4,6.048-5.392a5.294,5.294,0,0,1,5.3,5.65,5.678,5.678,0,1,1-11.351-.258" transform="translate(-4137.438 -69.63)" fill="#4a7aff"/>
  <path id="Path_4196" data-name="Path 4196" d="M4160.289,240.457c1.842,0,2.444.6,2.453,2.425a2.74,2.74,0,0,1-2.734,2.587,3.508,3.508,0,0,1-2.284-2.653c-.012-1.656.755-2.362,2.564-2.36" transform="translate(-4089.826 -161.552)" fill="#fdd200"/>
</svg>
