<svg xmlns="http://www.w3.org/2000/svg" width="70.119" height="70.212" viewBox="0 0 70.119 70.212">
  <g id="Group_121" data-name="Group 121" transform="translate(-9274.5 1148.427)">
    <path id="Path_5" data-name="Path 5" d="M113.333,117.058c-.247-.341.005-.785-.244-1.138-.081-.115.014-.235.2-.267.744-.125,1.479-.311,2.225-.406.464-.059.625-.192.7-.7a11.652,11.652,0,0,1,.619-3.215c.158-.352-.043-.805.024-1.25.249-1.657.473-3.317.748-4.972.416-2.507.677-5.036,1.1-7.544a14.5,14.5,0,0,0-.205-4.04c-.056-.482-.054-.971-.086-1.625-.618.807-1.152,1.5-1.679,2.195-.975,1.288-1.944,2.582-2.921,3.868-.3.393-.61.776-.928,1.153a2.48,2.48,0,0,1-2.084.89c-.987-.048-1.941.442-2.945.089a2.336,2.336,0,0,1-1.088-3.7c1.6-2.111,3.127-4.281,4.715-6.4a65.377,65.377,0,0,1,5.135-6.707,3.747,3.747,0,0,1,1.607-.749c.481-.154.647-.254.259-.773a5.519,5.519,0,0,1,5.214-8.907,5.2,5.2,0,0,1,3.217,1.522,5.475,5.475,0,0,1,1.389,5.742c-.057.185-.119.367-.24.737,1.139-.889,2.138-1.671,3.139-2.449,1.876-1.457,3.721-2.958,5.645-4.35a2.3,2.3,0,0,1,3.437.655,19.392,19.392,0,0,1,1.263,1.965,2.343,2.343,0,0,1-.636,2.852q-4.1,3.093-8.178,6.207a9.511,9.511,0,0,1-1.42,1.1c-.813.4-.738,1.046-.653,1.718.162,1.279.378,2.552.517,3.833a.851.851,0,0,0,.516.794c1.34.676,2.647,1.415,3.99,2.084a2.671,2.671,0,0,1,1.464,1.719c.627,2.118,1.278,4.228,1.934,6.391a21.132,21.132,0,0,0,3.162-2.964c.842-.9,1.6-1.871,2.411-2.8.123-.142.212-.306.327-.441.254-.3.227-.4-.164-.486-.732-.16-1.446-.415-2.183-.539a1.211,1.211,0,0,1-1.075-1.09c-.063-.53.3-.923.828-1.211,3.189-1.753,6.358-3.541,9.528-5.327,1.084-.61,1.916-.379,2.207,1.013.615,2.945,1.26,5.883,1.957,8.81a5.731,5.731,0,0,1,.164,1.087,1.114,1.114,0,0,1-1.561,1.158,16.625,16.625,0,0,1-1.991-.657.542.542,0,0,0-.806.248,77.046,77.046,0,0,1-5.673,7.6c-.921,1.116-1.948,2.143-2.913,3.224a52.032,52.032,0,0,1-5.642,5.315c-1.171.972-2.474,1.814-3.682,2.727a47.054,47.054,0,0,1-6.649,4.113,39.643,39.643,0,0,1-7.987,3.112,38.087,38.087,0,0,1-5.709,1.26,3.942,3.942,0,0,1-2.042.044c-.219-.091-.4.091-.587.164-.859.338-1.129.181-1.212-.733a4.609,4.609,0,0,0,.015-.775c-.076-.533.123-.656.65-.661a17.9,17.9,0,0,0,3.121-.306,39.315,39.315,0,0,0,6.66-1.637,46.665,46.665,0,0,0,10.316-4.926c1.4-.972,2.85-1.878,4.188-2.95a67.968,67.968,0,0,0,7.161-6.564,90.939,90.939,0,0,0,8.219-10.355c.344-.494.515-1.142,1.126-1.441.691-.338,1.237.156,1.847.289.31.067.446.07.423-.416-.039-.823-.6-1.436-.6-2.32a16.936,16.936,0,0,0-.757-3.466c-.07-.326-.119-.313-.387-.173-.521.273-1.032.558-1.542.855-1.409.821-2.865,1.561-4.33,2.348a2.842,2.842,0,0,0,1.327.486c1.145.309,1.453.989.785,1.941a42.018,42.018,0,0,1-3.887,4.765,61.371,61.371,0,0,1-4.475,4.328,49.21,49.21,0,0,1-5.194,3.918,49.976,49.976,0,0,1-7.108,3.937,45.461,45.461,0,0,1-6.859,2.522c-2.141.561-4.282,1.087-6.473,1.438-.89.142-.6-.393-.695-.765m21.784-10.375c.644-.476,1.2-.884,1.758-1.3a.607.607,0,0,0,.226-.736q-1.055-3.53-2.081-7.068a.523.523,0,0,0-.323-.331c-1.353-.693-2.657-1.5-4.06-2.071a2.6,2.6,0,0,1-1.714-2.489c-.159-1.748-.37-3.492-.683-5.222a1.436,1.436,0,0,1,.469-1.527q2.163-1.633,4.323-3.27c1.809-1.364,3.631-2.711,5.426-4.094,1.026-.79,1.007-.816.379-1.894-.093-.159-.205-.307-.293-.469-.2-.376-.365-.394-.732-.1-2.613,2.091-5.257,4.145-7.887,6.215a5.076,5.076,0,0,1-2.858,1.451c-.5.027-1.064-.231-1.418-.054a7.4,7.4,0,0,1-2.261.317,11.049,11.049,0,0,1-1.926.112,17.268,17.268,0,0,0-2,.262,2.7,2.7,0,0,0-1.844,1.023c-.551.716-1.086,1.444-1.62,2.173-2.34,3.191-4.685,6.379-7,9.588-.134.186-.483.363-.37.6.175.372.486-.031.749.013a4.455,4.455,0,0,0,.918,0,1.511,1.511,0,0,0,1.154-.468c.345-.4.664-.832.984-1.257q2.967-3.935,5.931-7.873a1.041,1.041,0,0,1,1.64-.117,2.763,2.763,0,0,1,.62,2.236,20.754,20.754,0,0,0,.144,2.694,21.355,21.355,0,0,1,.053,5.565c-.079.441.181.864,0,1.2a6.139,6.139,0,0,0-.355,1.519c-.5,1.913-.478,3.912-.865,5.854-.422,2.116-.569,4.279-1,6.4-.1.494.315.816.843.755a14.46,14.46,0,0,0,1.653-.47c.586-.137.713-.483.751-.97a4.167,4.167,0,0,1,.063-.48c.281-1.441.542-2.887.793-4.334.3-1.749.583-3.5.89-5.249s.663-3.488.943-5.24c.168-1.053.854-1.5,1.819-1.034q2.721,1.3,5.42,2.65a2.225,2.225,0,0,1,1.148,1.344c.693,2.026,1.432,4.037,2.187,6.149M124.7,112.529c-.05.014.019,0,.084-.024a57.358,57.358,0,0,0,7.508-3.844c.924-.509.887-.579.515-1.655-.537-1.556-1.041-3.124-1.635-4.657-.184-.474-.208-1.075-.82-1.354-1.1-.5-2.175-1.042-3.231-1.622-.53-.291-.65.041-.713.389-.264,1.443-.492,2.892-.731,4.34-.251,1.517-.488,3.036-.752,4.55-.2,1.174-.444,2.341-.661,3.513-.044.237,0,.432.436.365m-1.733-30.714a3.659,3.659,0,0,0,3.416-3.522c-.057-2.187-1.471-3.252-4.581-3.333-.319-.008-.64.5-.979.745-1.216.872-1.255,2.2-1.329,3.491-.055.962,2.193,2.63,3.473,2.619" transform="translate(9188.356 -1208.307)"/>
    <path id="Path_6" data-name="Path 6" d="M115.885,195.922c.093.372-.2.908.695.765,2.191-.351,4.331-.877,6.473-1.438a45.479,45.479,0,0,0,6.859-2.522,50,50,0,0,0,7.108-3.937,49.183,49.183,0,0,0,5.194-3.918,61.333,61.333,0,0,0,4.475-4.328,42,42,0,0,0,3.887-4.765c.667-.952.36-1.632-.785-1.941a2.842,2.842,0,0,1-1.327-.486c1.464-.786,2.92-1.527,4.33-2.348.509-.3,1.02-.581,1.542-.855.268-.14.317-.154.387.172a16.937,16.937,0,0,1,.757,3.466c0,.885.559,1.5.6,2.32.023.486-.114.483-.423.416-.61-.133-1.156-.627-1.847-.289-.611.3-.782.947-1.126,1.441a90.94,90.94,0,0,1-8.219,10.355A67.946,67.946,0,0,1,137.3,194.6c-1.338,1.072-2.784,1.978-4.188,2.95a46.666,46.666,0,0,1-10.316,4.927,39.351,39.351,0,0,1-6.66,1.637,17.921,17.921,0,0,1-3.121.305c-.527.006-.727.128-.65.661a4.609,4.609,0,0,1-.015.775l-2.954-.023c.44-.455.855-.936,1.323-1.36,1.552-1.405,1.428-1.881.013-3.192-.207-.192-.558-.333-.317-.767.214-.386.386-.725.924-.62a3.993,3.993,0,0,0,.775.008c1.043-.006,1.467-.436,1.484-1.5q.018-1.163.04-2.325l2.249-.153" transform="translate(9185.805 -1287.172)" fill="#ff8088"/>
    <path id="Path_7" data-name="Path 7" d="M24.94,255.888q-.02,1.163-.04,2.325c-.017,1.061-.441,1.491-1.484,1.5a3.993,3.993,0,0,1-.775-.008c-.538-.1-.71.234-.924.62-.24.434.11.575.317.767,1.414,1.311,1.539,1.787-.013,3.192-.468.424-.884.9-1.323,1.36-.356.34-.711.682-1.07,1.019a1.032,1.032,0,0,1-1.681,0,7.577,7.577,0,0,1-.7-.7.678.678,0,0,0-.866-.248c-.308.155-.647.361-.639.807.007.377.009.755,0,1.132a1.017,1.017,0,0,1-1.072,1.112c-1.557.02-3.115.015-4.672,0a1.071,1.071,0,0,1-1.054-1.19c.02-.377-.01-.756.008-1.132.017-.335-.044-.578-.416-.69-.332-.1-.619-.163-.889.138s-.556.578-.848.852a1.1,1.1,0,0,1-1.607.044c-1.068-1.032-2.127-2.076-3.151-3.153-.633-.665-.6-.989-.008-1.735.2-.254.411-.5.623-.747.185-.215.664-.232.426-.723-.2-.409-.3-.855-.94-.714a6.882,6.882,0,0,1-1.059.017.908.908,0,0,1-1.056-.926C-.02,257.1,0,255.4.021,253.7c.006-.556.441-.727.9-.768a11.293,11.293,0,0,1,1.344-.009c.34.01.473-.1.646-.444a.778.778,0,0,0-.225-1.1c-1.524-1.489-1.514-1.513,0-3.023.684-.684,1.378-1.358,2.05-2.055.931-.967,1.6-.854,2.5.015.328.316.572.793,1.173.608.328-.1.586-.2.552-.634a12.064,12.064,0,0,1,0-1.344,1.033,1.033,0,0,1,1.03-1.077c1.533-.03,3.071-.084,4.6,0,.95.054,1.282.522,1.17,1.288a3.2,3.2,0,0,0,0,.777c.03.3-.181.745.237.867a1.109,1.109,0,0,0,1.3-.279,1.788,1.788,0,0,1,1.367-.838,1.5,1.5,0,0,1,1.178.475c.921.947,1.833,1.907,2.809,2.795a1.2,1.2,0,0,1,.057,1.876c-.2.233-.451.419-.644.655-.179.218-.584.332-.359.768.2.394.352.729.937.677,1.9-.169,2.36.213,2.267,2.25a6.7,6.7,0,0,0,.039.7m-12.552-9.773c-1.173,0-1.173,0-1.171,1.2a.519.519,0,0,0,0,.071,1.072,1.072,0,0,1-.916,1.283,7.723,7.723,0,0,0-1.878.768,1.063,1.063,0,0,1-1.485-.245c-.908-.912-.928-.9-1.826.007-.793.8-.765.6,0,1.382a1.384,1.384,0,0,1,.323,2.006,7.348,7.348,0,0,0-.692,1.6,1.134,1.134,0,0,1-1.181.977c-1.3.088-1.3.077-1.3,1.371,0,.165.01.331,0,.5-.019.3.116.428.417.412.259-.014.519,0,.778,0a1.218,1.218,0,0,1,1.3.94,16.682,16.682,0,0,0,.777,1.814,1.405,1.405,0,0,1-.12,1.513c-.274.4-1.03.575-.854,1.1.146.438.714.725,1.058,1.112.281.316.5.378.781.011.126-.168.308-.293.444-.455A1.133,1.133,0,0,1,8.2,263.1c.839.29,1.6.76,2.468.99a.846.846,0,0,1,.562.824c.036.522-.292,1.231.165,1.516.394.245,1.054.051,1.595.078.356.018.535-.086.494-.472a5.578,5.578,0,0,1,0-.637,1.379,1.379,0,0,1,1.06-1.457A14.937,14.937,0,0,0,16.1,263.3c1-.488,1.261-.46,2.048.321.7.692.7.692,1.371.017.845-.845.845-.845.081-1.7-.666-.749-.673-.926-.219-1.861a10.391,10.391,0,0,0,.6-1.5,1.313,1.313,0,0,1,1.444-1.131c1.223-.01,1.229-.01,1.221-1.23s.138-1.082-1.059-1.023c-1.087.054-1.41-.472-1.646-1.257a7.254,7.254,0,0,0-.474-1.245c-.611-1.187-.629-1.264.348-2.153.536-.488.569-.781.011-1.283-.968-.872-.927-.9-1.893-.06-.39.34-.825.677-1.38.342a7.479,7.479,0,0,0-1.811-.744,1.562,1.562,0,0,1-1.262-1.755c-.01-1.054.148-.907-.951-.924h-.142" transform="translate(9274.5 -1346.985)"/>
    <path id="Path_8" data-name="Path 8" d="M302.575,10.864a1.136,1.136,0,0,1-.411.975,22.417,22.417,0,0,1-2.012,1.983,1.97,1.97,0,0,0-.688,2.257c.207,1.011.4,2.026.553,3.047a1.156,1.156,0,0,1-.546,1.1.9.9,0,0,1-1.086.068c-1.1-.594-2.219-1.145-3.286-1.788a.7.7,0,0,0-.808-.04c-1.058.58-2.124,1.148-3.17,1.749a1.039,1.039,0,0,1-1.281-.008,1.114,1.114,0,0,1-.449-1.231c.278-1.182.32-2.409.581-3.6a1.053,1.053,0,0,0-.349-1.065,27.063,27.063,0,0,1-2.283-2.378c-.352-.416-.776-.77-.571-1.387a1.393,1.393,0,0,1,1.291-.859q1.567-.246,3.142-.435a.938.938,0,0,0,.884-.643c.352-1.089,1.036-2.026,1.411-3.1a1.147,1.147,0,0,1,1.2-.928,1.264,1.264,0,0,1,1.144.937c.464,1.116,1.065,2.174,1.538,3.286.308.724.959.44,1.434.556.978.238,2.009.257,2.993.475a.927.927,0,0,1,.772,1.035M294.7,8.36c-.363.754-.721,1.4-.984,2.076a1.452,1.452,0,0,1-1.2.917c-.728.143-1.47.216-2.319.335.632.624,1.169,1.179,1.735,1.7a1.214,1.214,0,0,1,.444,1.112c-.1.731-.2,1.462-.325,2.19-.017.1-.158.213-.029.294a.386.386,0,0,0,.326-.017c.463-.251.929-.5,1.366-.792a1.609,1.609,0,0,1,1.765-.071c.3.159.59.352.9.495s.617.54.894.342-.086-.6-.082-.918a2.127,2.127,0,0,0-.092-.47,2.081,2.081,0,0,1,.612-2.421,10.164,10.164,0,0,0,1.34-1.506,6.945,6.945,0,0,1-1.61-.14,2.11,2.11,0,0,1-2.085-1.679,15.051,15.051,0,0,0-.66-1.448" transform="translate(9042.037 -1153)"/>
    <path id="Path_9" data-name="Path 9" d="M17.894,12.682a11.843,11.843,0,0,1-.07-1.959c-.015-.231.06-.358.311-.332a.971.971,0,0,0,.141,0c1.806-.078,1.8-.078,1.817,1.727,0,.186.027.371.042.557l.019-.017-2.285,0Z" transform="translate(9260.055 -1157.698)"/>
    <path id="Path_10" data-name="Path 10" d="M8.067,24.73c-.635,0-1.27-.016-1.9.009-.344.014-.425-.107-.44-.44-.084-1.839-.094-1.839,1.71-1.832.211,0,.422.016.633.024l-.026-.026a12.453,12.453,0,0,0,0,2.285Z" transform="translate(9269.882 -1167.508)"/>
    <path id="Path_11" data-name="Path 11" d="M29.816,22.467c.607-.006,1.214,0,1.821-.023.3-.01.442.087.4.4,0,.023,0,.047,0,.07-.04.578.261,1.419-.107,1.675-.552.383-1.392.09-2.109.129l.016.02a8.305,8.305,0,0,1,0-2.284Z" transform="translate(9250.374 -1167.489)"/>
    <path id="Path_12" data-name="Path 12" d="M65.782,30.64a11.843,11.843,0,0,1-.07-1.959c-.015-.231.06-.358.311-.332a.971.971,0,0,0,.141,0c1.806-.078,1.8-.078,1.817,1.727,0,.186.027.371.042.557l.019-.017-2.285,0Z" transform="translate(9221.228 -1172.258)"/>
    <path id="Path_13" data-name="Path 13" d="M20.172,34.433c-.016.61-.051,1.219-.042,1.829,0,.335-.1.43-.442.446-1.849.089-1.85.1-1.828-1.727a4.948,4.948,0,0,1,.066-.55l-.025.021h2.286Z" transform="translate(9260.023 -1177.209)"/>
    <path id="Path_14" data-name="Path 14" d="M55.954,42.688c-.635,0-1.27-.016-1.9.009-.344.014-.425-.107-.44-.44-.084-1.839-.094-1.839,1.71-1.832.211,0,.422.016.633.024l-.026-.026a12.453,12.453,0,0,0,0,2.285Z" transform="translate(9231.056 -1182.068)"/>
    <path id="Path_15" data-name="Path 15" d="M77.7,40.425c.607-.006,1.214,0,1.821-.023.3-.01.442.087.4.4,0,.023,0,.047,0,.07-.04.578.261,1.419-.107,1.675-.552.383-1.392.09-2.109.129l.016.02a8.305,8.305,0,0,1,0-2.284Z" transform="translate(9211.547 -1182.049)"/>
    <path id="Path_16" data-name="Path 16" d="M68.06,52.391c-.016.61-.051,1.219-.042,1.829,0,.335-.1.43-.442.446-1.849.089-1.85.1-1.828-1.727a4.952,4.952,0,0,1,.066-.55l-.025.021h2.286l-.016-.02" transform="translate(9221.196 -1191.769)"/>
    <path id="Path_17" data-name="Path 17" d="M341.135,335.922a11.844,11.844,0,0,1-.07-1.958c-.015-.231.06-.358.311-.332a.972.972,0,0,0,.141,0c1.806-.078,1.8-.078,1.817,1.727,0,.186.027.371.042.557l.019-.017-2.285,0Z" transform="translate(8997.975 -1419.777)"/>
    <path id="Path_18" data-name="Path 18" d="M331.307,347.97c-.635,0-1.27-.016-1.9.009-.344.014-.425-.107-.44-.44-.084-1.839-.094-1.839,1.71-1.832.211,0,.422.016.633.024l-.026-.026a12.451,12.451,0,0,0,0,2.285Z" transform="translate(9007.803 -1429.587)"/>
    <path id="Path_19" data-name="Path 19" d="M353.057,345.707c.607-.006,1.214,0,1.821-.023.3-.01.442.087.4.4,0,.023,0,.047,0,.07-.04.578.261,1.419-.107,1.675-.552.383-1.392.09-2.109.129l.016.02a8.3,8.3,0,0,1,0-2.284Z" transform="translate(8988.294 -1429.569)"/>
    <path id="Path_20" data-name="Path 20" d="M343.413,357.673c-.016.61-.051,1.219-.042,1.829,0,.335-.1.43-.442.446-1.849.09-1.85.1-1.828-1.727a4.948,4.948,0,0,1,.066-.55l-.025.021h2.286l-.016-.02" transform="translate(8997.942 -1439.288)"/>
    <path id="Path_21" data-name="Path 21" d="M145.247,120.055c-.756-2.113-1.494-4.123-2.187-6.15a2.224,2.224,0,0,0-1.148-1.344q-2.7-1.344-5.42-2.65c-.965-.462-1.65-.018-1.819,1.034-.28,1.752-.636,3.492-.943,5.239s-.586,3.5-.89,5.249c-.251,1.447-.513,2.892-.794,4.334a4.173,4.173,0,0,0-.063.48c-.038.487-.164.832-.751.97a14.523,14.523,0,0,1-1.653.47c-.528.061-.944-.26-.843-.755.431-2.118.578-4.282,1-6.4.387-1.942.367-3.941.865-5.854a6.135,6.135,0,0,1,.355-1.519c.179-.332-.08-.755,0-1.2a21.355,21.355,0,0,0-.053-5.565,20.72,20.72,0,0,1-.143-2.694,2.764,2.764,0,0,0-.62-2.236,1.041,1.041,0,0,0-1.64.118q-2.97,3.933-5.931,7.873c-.32.425-.639.853-.984,1.257a1.511,1.511,0,0,1-1.154.468,4.441,4.441,0,0,1-.918,0c-.263-.044-.573.358-.748-.013-.114-.241.236-.418.37-.6,2.315-3.209,4.659-6.4,7-9.588.534-.728,1.069-1.457,1.62-2.173a2.7,2.7,0,0,1,1.844-1.023,17.274,17.274,0,0,1,2-.261,11.107,11.107,0,0,0,1.926-.112,7.418,7.418,0,0,0,2.261-.317c.354-.177.923.081,1.418.054a5.079,5.079,0,0,0,2.858-1.45c2.63-2.07,5.274-4.124,7.887-6.215.367-.293.529-.275.732.1.087.162.2.31.293.469.628,1.078.647,1.1-.379,1.894-1.794,1.383-3.617,2.729-5.426,4.094q-2.164,1.632-4.323,3.27a1.436,1.436,0,0,0-.469,1.527c.314,1.73.524,3.474.683,5.222a2.6,2.6,0,0,0,1.714,2.489c1.4.567,2.706,1.378,4.06,2.071a.522.522,0,0,1,.323.331q1.032,3.537,2.081,7.068a.607.607,0,0,1-.226.736c-.554.417-1.114.825-1.758,1.3" transform="translate(9178.227 -1221.679)" fill="#83ade6"/>
    <path id="Path_22" data-name="Path 22" d="M179.733,91.126c-1.28.011-3.527-1.657-3.473-2.619.074-1.295.113-2.619,1.329-3.491.339-.243.66-.753.979-.745,3.109.08,4.524,1.145,4.581,3.333a3.659,3.659,0,0,1-3.416,3.522" transform="translate(9131.591 -1217.619)" fill="#83ade6"/>
    <path id="Path_23" data-name="Path 23" d="M22.08,255.92h.142c1.1.016.941-.131.952.924a1.561,1.561,0,0,0,1.262,1.755,7.481,7.481,0,0,1,1.811.744c.556.335.99,0,1.381-.342.966-.84.925-.812,1.893.06.557.5.524.8-.011,1.283-.977.889-.959.966-.348,2.153a7.222,7.222,0,0,1,.475,1.245c.236.786.559,1.311,1.646,1.258,1.2-.059,1.051-.189,1.059,1.023s0,1.22-1.221,1.23a1.314,1.314,0,0,0-1.444,1.131,10.367,10.367,0,0,1-.6,1.5c-.454.935-.447,1.111.219,1.861.764.859.764.859-.081,1.7-.674.674-.674.674-1.371-.018-.787-.781-1.045-.809-2.048-.321a14.944,14.944,0,0,1-1.556.643,1.38,1.38,0,0,0-1.061,1.457,5.621,5.621,0,0,0,0,.637c.041.386-.138.49-.494.472-.541-.027-1.2.167-1.595-.078-.458-.285-.13-.994-.165-1.516a.847.847,0,0,0-.562-.824c-.868-.23-1.63-.7-2.468-.99a1.132,1.132,0,0,0-1.359.38c-.137.162-.318.287-.444.455-.276.367-.5.3-.781-.011-.344-.387-.912-.673-1.058-1.112-.176-.528.58-.7.854-1.1a1.405,1.405,0,0,0,.12-1.513,16.683,16.683,0,0,1-.777-1.814,1.218,1.218,0,0,0-1.3-.94c-.26,0-.52-.012-.778,0-.3.016-.437-.108-.418-.412.01-.164,0-.33,0-.5,0-1.294,0-1.283,1.3-1.371A1.134,1.134,0,0,0,14.439,264a7.348,7.348,0,0,1,.692-1.6,1.383,1.383,0,0,0-.323-2.006c-.769-.786-.8-.582,0-1.382.9-.907.918-.92,1.826-.007a1.063,1.063,0,0,0,1.485.245,7.722,7.722,0,0,1,1.878-.768,1.072,1.072,0,0,0,.916-1.283.519.519,0,0,1,0-.071c0-1.2,0-1.2,1.171-1.2m5.625,10.257a5.476,5.476,0,0,0-5.568-5.712,5.653,5.653,0,0,0-5.731,5.615,5.784,5.784,0,0,0,5.813,5.712,5.63,5.63,0,0,0,5.486-5.615" transform="translate(9264.808 -1356.789)" fill="#596c7f"/>
    <path id="Path_24" data-name="Path 24" d="M309.653,24.589a15.051,15.051,0,0,1,.66,1.448,2.11,2.11,0,0,0,2.085,1.679,6.945,6.945,0,0,0,1.61.14,10.164,10.164,0,0,1-1.34,1.506,2.081,2.081,0,0,0-.612,2.421,2.127,2.127,0,0,1,.092.47c0,.321.358.72.082.918s-.6-.2-.894-.342-.6-.336-.9-.495a1.609,1.609,0,0,0-1.765.071c-.437.292-.9.541-1.366.792a.386.386,0,0,1-.326.017c-.129-.081.012-.192.029-.294.121-.728.224-1.459.325-2.191a1.214,1.214,0,0,0-.444-1.112c-.566-.524-1.1-1.079-1.735-1.7.849-.119,1.591-.192,2.319-.335a1.452,1.452,0,0,0,1.2-.917c.263-.679.621-1.322.984-2.076" transform="translate(9027.085 -1169.229)" fill="#f9d95e"/>
    <path id="Path_25" data-name="Path 25" d="M46.779,285.655a5.63,5.63,0,0,1-5.486,5.615,5.784,5.784,0,0,1-5.813-5.712,5.653,5.653,0,0,1,5.731-5.615,5.476,5.476,0,0,1,5.568,5.712m-2.265-.076a3.268,3.268,0,0,0-3.405-3.369,3.321,3.321,0,0,0-3.361,3.375,3.4,3.4,0,0,0,3.357,3.42c1.671.076,3.643-1.715,3.409-3.425" transform="translate(9245.733 -1376.268)"/>
  </g>
</svg>
