<svg xmlns="http://www.w3.org/2000/svg" width="66.735" height="71" viewBox="0 0 66.735 71">
  <g id="Group_122" data-name="Group 122" transform="translate(0)">
    <path id="Path_261" data-name="Path 261" d="M555.964,65.905c1.291.064,1.308.828,1.031,2.25a4.087,4.087,0,0,1-2.818,2.946c-.148.005-.33-.119-.417.112h-1.526a4.653,4.653,0,0,1-3.283-3.606c-.184-.8-.511-1.574-.7-2.376-.08-.334-.227-.294-.419-.21a20.176,20.176,0,0,1-3.692,1.161,26.677,26.677,0,0,1-6.219.862,35.788,35.788,0,0,1-3.714-.106c-1.146-.134-2.291-.279-3.419-.5a21.96,21.96,0,0,1-4.278-1.279c-.223-.093-.609-.262-.75.129-.226.628-.391,1.28-.572,1.924a5.607,5.607,0,0,1-1.462,2.9,6.8,6.8,0,0,1-2.008,1.1h-1.8a5.176,5.176,0,0,1-2.423-1.93,4.264,4.264,0,0,1-.418-3.626c.474-1.532.931-3.069,1.414-4.6a.417.417,0,0,0-.182-.519,31.617,31.617,0,0,1-6.295-6.687,26.6,26.6,0,0,1-3.14-5.758,33.285,33.285,0,0,1-1.888-7.263,45.377,45.377,0,0,1-.23-6.18,4.733,4.733,0,0,1,.336-1.7c.188-.477-.066-.888.023-1.37a29.751,29.751,0,0,1,2.9-8.619,25.023,25.023,0,0,1,1.605-2.866,28.9,28.9,0,0,1,2.033-2.723,21.7,21.7,0,0,1,3.232-3.282c1.16-.83,2.156-1.868,3.354-2.652a32.1,32.1,0,0,1,4.19-2.326,36.582,36.582,0,0,1,7.1-2.244,11.485,11.485,0,0,1,2.421-.289c1.24-.015,2.466-.242,3.711-.172a32.771,32.771,0,0,1,11.076,2.365,27.174,27.174,0,0,1,3.772,1.889c.268.166.5.3.752-.045a34.817,34.817,0,0,1,3.251-3.391c2.125-2.158,4.275-4.292,6.419-6.43a1.715,1.715,0,0,1,2.762.24,4.144,4.144,0,0,1,.251,1.386,35.832,35.832,0,0,1,.547,4.231c.049.921.758.664,1.122.707q2.325.276,4.645.591c1.259.173,1.392,1.346,1.08,2.249-.159.459-.579.723-.907,1.051q-4.314,4.318-8.631,8.632a.944.944,0,0,0-.192.2c-.174.338-.791.321-.736.76a3,3,0,0,0,.509.934,28.748,28.748,0,0,1,3.288,8.859c.281,1.47.436,2.945.578,4.433a29.233,29.233,0,0,1-.431,6.91,26.872,26.872,0,0,1-2.285,7.456,12.442,12.442,0,0,1-2.308,3.921l-.1.009.1.092a9.238,9.238,0,0,1-1.824,2.567,16.468,16.468,0,0,1-3.364,3.343c-.476.3-.656.909-1.337,1.016-.326.051-.261.726-.1,1a1.28,1.28,0,0,1-.475,1.932c-.854.058-1.237-.476-1.434-1.233-1.112.623-2.125,1.294-3.234,1.783-.337.148-.329.386-.24.675.213.687.454,1.367.619,2.065a7.445,7.445,0,0,0,.263,1.307,2.883,2.883,0,0,0,1.35,1.156,1.665,1.665,0,0,0,1.4-.028,2.385,2.385,0,0,0,1.294-2.224.827.827,0,0,1,.822-.913M536.136,40.7c.254.532.656.151.954.11a4.107,4.107,0,0,0,3.781-5.164c-.209-.867-.28-.9-.943-.333-.15.129-.4.138-.455.381-.724.534-1.226,1.306-1.969,1.823a.828.828,0,0,1-1.294-.182.956.956,0,0,1,.1-1.357c.746-.724,1.474-1.468,2.209-2.2.522-.523.508-.692-.229-.849a4.119,4.119,0,0,0-3.835.638A3.862,3.862,0,0,0,533,37.217a3.962,3.962,0,0,0,3.132,3.487M549.043,26.13q-1.174,1.208-2.349,2.414a.261.261,0,0,0-.039.4,22.041,22.041,0,0,1,1.752,3.27,3.944,3.944,0,0,1,.624,1.55,15.932,15.932,0,0,0,.24,2.3,22.666,22.666,0,0,1-.033,2.5,5.381,5.381,0,0,1-.569,2.194,14.969,14.969,0,0,1-1.7,3.17,11.931,11.931,0,0,1-4.524,3.771c-.979.429-1.929,1.346-3.187.787a.183.183,0,0,0-.167.058c-.285.488-.763.429-1.225.478a15.618,15.618,0,0,1-3.322-.326,6.374,6.374,0,0,1-2.615-.863,14.179,14.179,0,0,1-2.527-1.646,26.261,26.261,0,0,1-2.016-1.923,12.667,12.667,0,0,1-2.339-4.91,11.413,11.413,0,0,1-.084-4.865,11.776,11.776,0,0,1,1.806-4.461,10.958,10.958,0,0,1,4.084-3.817,13.474,13.474,0,0,1,6.024-1.734,9.939,9.939,0,0,1,2.9.352,7.98,7.98,0,0,1,2.252.647,12.981,12.981,0,0,1,2.689,1.689c.2.191.31.146.482-.029q1.189-1.214,2.4-2.4c.21-.207.218-.276-.053-.5a15.718,15.718,0,0,0-5.143-2.945,12.185,12.185,0,0,0-4.907-.861c-.956.1-1.916,0-2.884.12A15.973,15.973,0,0,0,527.9,23.07a1.2,1.2,0,0,1-1.61-.02c-.42-.793-.292-1.236.559-1.774a18.485,18.485,0,0,1,8.341-2.886,18.266,18.266,0,0,1,6.163.384,18.807,18.807,0,0,1,7.929,4.164c.706-.715,1.37-1.462,2.115-2.116.491-.43.436-.708-.032-1.047-.092-.067-.152-.178-.244-.245a26.586,26.586,0,0,0-5.893-3.423,19.616,19.616,0,0,0-6.232-1.462,25.13,25.13,0,0,0-6.762.359,25.489,25.489,0,0,0-8.023,3.544,20.849,20.849,0,0,0-4.488,4.234,20.248,20.248,0,0,0-2,2.752,29.738,29.738,0,0,0-1.645,3.647,22.4,22.4,0,0,0-1.136,4.752,24.2,24.2,0,0,0-.072,3.462,9.7,9.7,0,0,0-.014,1.874,28.419,28.419,0,0,0,1.736,6.24,21.8,21.8,0,0,0,6.855,8.787,19.993,19.993,0,0,0,8.9,4.111,25.491,25.491,0,0,0,4.383.512,22.3,22.3,0,0,0,3.914-.212,24.465,24.465,0,0,0,6.342-2.128,20.361,20.361,0,0,0,4.059-2.569,23.707,23.707,0,0,0,3.752-3.993,22.976,22.976,0,0,0,4.373-11.371,21.326,21.326,0,0,0-.264-5.521,21.854,21.854,0,0,0-1.813-5.881,22.316,22.316,0,0,0-3.194-4.919c-.209-.253-.431-.6-.828-.181-.677.706-1.371,1.4-2.066,2.083-.159.157-.2.255-.024.449a16.672,16.672,0,0,1,2.645,4.064,17.541,17.541,0,0,1,1.636,5.006,12.7,12.7,0,0,1,.224,2.723c-.07.85.035,1.7-.1,2.57s-.422,1.694-.57,2.551c-.279,1.607-1.348,2.956-1.655,4.574a.583.583,0,0,1-.313.352c-.389.166-.52.539-.755.831-.535.666-1.042,1.361-1.636,1.97s-1.3,1.125-1.932,1.671c-.692.594-1.443,1.073-2.153,1.623-.426.33-1.028.258-1.374.569a6.276,6.276,0,0,1-3.625,1.446c-1.054.11-2.04.465-3.087.541-1.331.1-2.654.287-3.886-.443-.088-.052-.174,0-.194.117l.023-.014c-.25.223-.334-.23-.586-.129-.878.354-1.623-.251-2.4-.45a13.742,13.742,0,0,1-3.783-1.676,19.329,19.329,0,0,1-6.585-6.928,18.921,18.921,0,0,1-2.362-8.539,19.968,19.968,0,0,1,.649-5.144,13.7,13.7,0,0,1,1.072-3.013,19.2,19.2,0,0,1,2.157-3.493c.608-.8.979-.939,1.92-.555-.1.483.433.938.039,1.442a15.522,15.522,0,0,0-2.841,5.02,20.812,20.812,0,0,0-.89,4.227,14.949,14.949,0,0,0,.415,4.814,15.878,15.878,0,0,0,4.1,7.532,19.588,19.588,0,0,0,4.053,3.131,15.168,15.168,0,0,0,5.016,1.806,2.589,2.589,0,0,0,1.41.172,27.928,27.928,0,0,0,3.09.006,17.864,17.864,0,0,0,2.959-.65,13.666,13.666,0,0,0,3.957-1.666,16.012,16.012,0,0,0,4.4-4.028,16.4,16.4,0,0,0,3.031-13.357,15.959,15.959,0,0,0-3.325-7c-.153-.194-.325-.572-.688-.221M528.366,63.593a16.753,16.753,0,0,0,2.48.784,39.051,39.051,0,0,0,5.837.6,27.25,27.25,0,0,0,5.789-.455,28.465,28.465,0,0,0,6.151-2.061,28.067,28.067,0,0,0,9.627-7.16,27.407,27.407,0,0,0,4.118-6.16,27.105,27.105,0,0,0,2.646-9.056,28.712,28.712,0,0,0,.155-5.19,33.866,33.866,0,0,0-.723-4.915,18.539,18.539,0,0,0-1.052-3.629,32.257,32.257,0,0,0-2.511-4.661c-.314-.457-.443-1.136-1.162-1.224-1.2-.327-2.457-.334-3.649-.7a.8.8,0,0,0-.959.361c-.244.373.132.571.282.743a17.807,17.807,0,0,1,2.444,3.415,26.854,26.854,0,0,1,2.324,5.1,35.61,35.61,0,0,1,.972,4.769,17.564,17.564,0,0,1-.17,6.518,25.049,25.049,0,0,1-.809,3.559,31.411,31.411,0,0,1-2.731,5.655A25.279,25.279,0,0,1,553,54.97c-.65.58-1.375,1.075-2.036,1.644-.638.549-1.441.81-2.1,1.369a8.984,8.984,0,0,1-2.508,1.157A20.977,20.977,0,0,1,541,60.556c-.915.109-1.8.381-2.743.424A23.245,23.245,0,0,1,529.02,59.7a25.2,25.2,0,0,1-6.294-3.341,23.586,23.586,0,0,1-6.869-7.754,27.179,27.179,0,0,1-1.807-4,8.913,8.913,0,0,0-.6-2.173c-.272-.428-.1-1.174-.268-1.657a13.7,13.7,0,0,1-.4-3.739c-.061-1,.093-1.984.1-2.98a13.317,13.317,0,0,1,.511-2.8,22.7,22.7,0,0,1,.932-3.046,26.661,26.661,0,0,1,2.143-4.383,23.517,23.517,0,0,1,5.169-5.872,23.212,23.212,0,0,1,9.657-4.816c.906-.213,1.823-.338,2.737-.5a21.112,21.112,0,0,1,8.311.38,22.99,22.99,0,0,1,10.557,5.335c.173.156.411.564.726.294a1.044,1.044,0,0,0,.417-1.023,24.833,24.833,0,0,0-.58-2.765c-.149-.451.143-1-.39-1.372a27.019,27.019,0,0,0-5.706-3.026,24.95,24.95,0,0,0-5.777-1.545c-1.308-.17-2.614-.382-3.932-.423a24.32,24.32,0,0,0-4.288.264,30.671,30.671,0,0,0-5.711,1.339,25.471,25.471,0,0,0-5.6,2.7,27.282,27.282,0,0,0-4.212,3.2,30.443,30.443,0,0,0-2.971,3.214,22.315,22.315,0,0,0-2.224,3.259c-.136.262-.563.429-.6.678a12.888,12.888,0,0,1-.861,2.192,25.8,25.8,0,0,0-1.31,3.539,31.759,31.759,0,0,0-.963,5.166,39.863,39.863,0,0,0,.044,5.924,29.114,29.114,0,0,0,1.29,5.72,31.629,31.629,0,0,0,3.044,6.3,23.961,23.961,0,0,0,1.723,2.376,27.46,27.46,0,0,0,3.472,3.6,16.3,16.3,0,0,0,2.223,1.677c.622.374,1.135.937,1.768,1.285a22.368,22.368,0,0,0,3.369,1.719,13.094,13.094,0,0,0,2.521.944M526.85,36.654c.045.587.016,1.171.117,1.768a9.749,9.749,0,0,0,3.281,5.857,9.559,9.559,0,0,0,8.872,2.388,9.974,9.974,0,0,0,6.857-5.132,9.748,9.748,0,0,0,1.147-5.716,10.369,10.369,0,0,0-1.937-5.164c-.238-.334-.372-.381-.689-.054a15.271,15.271,0,0,1-2.359,2.38c-.345.228-.055.456.064.626a5.676,5.676,0,0,1,.644,4.866,5.9,5.9,0,0,1-2.009,3,6.639,6.639,0,0,1-3.786,1.3,5.368,5.368,0,0,1-3.682-1.19c-1.8-1.2-2.28-3.074-2.494-5.066a.892.892,0,0,1,.005-.277,8.026,8.026,0,0,1,1.36-3.269,5.585,5.585,0,0,1,2.8-1.951,5.971,5.971,0,0,1,5.242.573.367.367,0,0,0,.536-.078c.781-.788,1.559-1.578,2.357-2.349.235-.227.184-.363-.029-.55a7.427,7.427,0,0,0-2.507-1.437,17.027,17.027,0,0,0-2.534-.6,8.24,8.24,0,0,0-3.053.151,9.989,9.989,0,0,0-7.674,6.7,8.331,8.331,0,0,0-.526,3.227M564.5,7.625c-.157-1.4-.315-2.79-.467-4.186a.366.366,0,0,0-.218-.32c-.192-.074-.279.118-.387.225q-4.1,4.091-8.192,8.186c-.132.132-.283.248-.225.466.319,1.2.51,2.422.717,3.643.1.615.277.654.722.211Q560.38,11.932,564.3,8c.108-.108.275-.187.206-.379m-6.976,10.255c1.335.3,2.768.57,4.217.759a.815.815,0,0,0,.714-.328c.958-.97,1.925-1.932,2.889-2.9q2.524-2.526,5.048-5.052c.14-.141.378-.268.253-.509-.1-.2-.332-.07-.5-.1-.961-.138-1.921-.294-2.886-.4a2.048,2.048,0,0,0-1.983.556c-2.062,2.184-4.231,4.266-6.346,6.4-.485.489-.921,1.026-1.4,1.566M520.844,69.121a2.044,2.044,0,0,0,2.075-1.465c.328-1.078.6-2.172.948-3.244.091-.283.013-.354-.2-.461a20.141,20.141,0,0,1-2.882-1.647c-.259-.187-.48-.149-.581.184-.414,1.362-.853,2.717-1.225,4.09a2.051,2.051,0,0,0,1.867,2.543" transform="translate(-506.747 -0.214)"/>
    <path id="Path_262" data-name="Path 262" d="M760.339,382.573c.087-.231.269-.107.417-.112,0,.037,0,.075,0,.112Z" transform="translate(-713.326 -311.573)" fill="#f9f8f9"/>
    <path id="Path_263" data-name="Path 263" d="M746.719,337.77a.827.827,0,0,0-.822.913,2.385,2.385,0,0,1-1.294,2.224,1.666,1.666,0,0,1-1.4.028,2.883,2.883,0,0,1-1.35-1.156,7.425,7.425,0,0,1-.263-1.307c-.165-.7-.406-1.379-.619-2.065-.09-.288-.1-.526.24-.675,1.11-.49,2.122-1.161,3.234-1.783.2.758.58,1.291,1.435,1.233.456.806.468,1.756.844,2.588" transform="translate(-697.502 -272.078)" fill="#fe646f"/>
    <path id="Path_264" data-name="Path 264" d="M805.555,286.974l-.1-.092.1-.009a.833.833,0,0,1,0,.1" transform="translate(-750.081 -233.73)" fill="#f9f8f9"/>
    <path id="Path_265" data-name="Path 265" d="M537.46,99.964a13.126,13.126,0,0,1-2.521-.944A22.361,22.361,0,0,1,531.57,97.3c-.634-.348-1.146-.911-1.768-1.285a16.332,16.332,0,0,1-2.223-1.677,27.454,27.454,0,0,1-3.472-3.6,23.973,23.973,0,0,1-1.723-2.376,31.641,31.641,0,0,1-3.044-6.3,29.1,29.1,0,0,1-1.29-5.72,39.825,39.825,0,0,1-.044-5.924,31.756,31.756,0,0,1,.964-5.166,25.809,25.809,0,0,1,1.31-3.539,12.9,12.9,0,0,0,.861-2.192c.036-.249.463-.415.6-.678a22.321,22.321,0,0,1,2.224-3.259,30.462,30.462,0,0,1,2.971-3.213,27.268,27.268,0,0,1,4.212-3.2,25.47,25.47,0,0,1,5.6-2.7,30.707,30.707,0,0,1,5.711-1.339,24.3,24.3,0,0,1,4.288-.264c1.319.041,2.624.253,3.932.423a24.945,24.945,0,0,1,5.777,1.546,27.022,27.022,0,0,1,5.706,3.025c.533.371.241.921.39,1.372a24.78,24.78,0,0,1,.58,2.765,1.044,1.044,0,0,1-.417,1.023c-.315.27-.553-.138-.726-.294A22.991,22.991,0,0,0,551.429,49.4a21.109,21.109,0,0,0-8.311-.38c-.914.16-1.831.285-2.737.5a23.213,23.213,0,0,0-9.657,4.816,23.515,23.515,0,0,0-5.169,5.872,26.652,26.652,0,0,0-2.143,4.383,22.7,22.7,0,0,0-.932,3.046,13.324,13.324,0,0,0-.511,2.8c-.006,1-.159,1.984-.1,2.98a13.7,13.7,0,0,0,.4,3.739c.164.483,0,1.229.268,1.657a8.919,8.919,0,0,1,.6,2.173,27.177,27.177,0,0,0,1.807,4,23.59,23.59,0,0,0,6.869,7.754,25.2,25.2,0,0,0,6.295,3.341,23.244,23.244,0,0,0,9.238,1.279c.94-.043,1.828-.316,2.743-.425a20.986,20.986,0,0,0,5.352-1.416,8.987,8.987,0,0,0,2.508-1.157c.659-.559,1.463-.82,2.1-1.369.661-.569,1.386-1.064,2.036-1.644a25.272,25.272,0,0,0,4.429-5.087,31.4,31.4,0,0,0,2.732-5.655,25,25,0,0,0,.809-3.559,17.564,17.564,0,0,0,.17-6.518,35.631,35.631,0,0,0-.972-4.769,26.844,26.844,0,0,0-2.324-5.1,17.785,17.785,0,0,0-2.444-3.415c-.15-.172-.526-.37-.282-.743a.8.8,0,0,1,.959-.362c1.192.371,2.451.377,3.649.7.572,1.276,1.2,2.53,1.706,3.832a28.753,28.753,0,0,1,1.9,9.274,30.15,30.15,0,0,1-.248,4.818A29.043,29.043,0,0,1,563.1,92.432a27.362,27.362,0,0,1-8.832,5.681,26.1,26.1,0,0,1-9.634,2.12,30.61,30.61,0,0,1-6.807-.4.321.321,0,0,0-.365.134" transform="translate(-515.842 -36.585)" fill="#fe646f"/>
    <path id="Path_266" data-name="Path 266" d="M569.609,117.959c.02-.114.106-.169.194-.117,1.231.73,2.554.541,3.885.443,1.047-.077,2.034-.432,3.087-.541A6.277,6.277,0,0,0,580.4,116.3c.346-.311.948-.238,1.374-.569.71-.55,1.461-1.029,2.153-1.623.636-.546,1.339-1.062,1.932-1.671s1.1-1.3,1.636-1.97c.235-.292.366-.665.755-.831a.582.582,0,0,0,.313-.352c.307-1.618,1.375-2.967,1.655-4.574.149-.857.433-1.685.571-2.551s.034-1.72.1-2.57a12.684,12.684,0,0,0-.225-2.723,17.538,17.538,0,0,0-1.636-5.006,16.672,16.672,0,0,0-2.646-4.064c-.172-.194-.135-.292.024-.449.7-.688,1.389-1.377,2.066-2.083.4-.414.619-.072.828.181a22.308,22.308,0,0,1,3.194,4.919,21.853,21.853,0,0,1,1.812,5.882,21.316,21.316,0,0,1,.264,5.52,22.974,22.974,0,0,1-4.373,11.371,23.7,23.7,0,0,1-3.752,3.993,20.347,20.347,0,0,1-4.059,2.569,24.47,24.47,0,0,1-6.342,2.128,22.291,22.291,0,0,1-3.914.212,25.475,25.475,0,0,1-4.383-.512,20,20,0,0,1-8.9-4.111A21.8,21.8,0,0,1,552,108.626a28.433,28.433,0,0,1-1.736-6.24,9.717,9.717,0,0,1,.014-1.873,24.238,24.238,0,0,1,.072-3.462,22.407,22.407,0,0,1,1.137-4.752,29.691,29.691,0,0,1,1.645-3.647,20.2,20.2,0,0,1,2-2.752,20.844,20.844,0,0,1,4.488-4.234,25.49,25.49,0,0,1,8.023-3.544,25.122,25.122,0,0,1,6.762-.359,19.616,19.616,0,0,1,6.232,1.461,26.585,26.585,0,0,1,5.893,3.423c.092.067.152.178.244.245.469.339.523.618.032,1.047-.746.654-1.409,1.4-2.115,2.116a18.807,18.807,0,0,0-7.93-4.164,18.266,18.266,0,0,0-6.163-.384,18.486,18.486,0,0,0-8.341,2.886c-.85.538-.979.981-.559,1.774-.7.577-1.551.981-1.974,1.849-.941-.384-1.312-.243-1.92.555a19.222,19.222,0,0,0-2.157,3.493,13.722,13.722,0,0,0-1.072,3.013,19.967,19.967,0,0,0-.649,5.144,18.921,18.921,0,0,0,2.361,8.539,19.332,19.332,0,0,0,6.585,6.928,13.737,13.737,0,0,0,3.783,1.676c.773.2,1.518.8,2.4.451.252-.1.336.352.585.129-.011.034-.021.067-.031.1l.093-.006-.084-.081" transform="translate(-542.152 -63.332)" fill="#f9f8f9"/>
    <path id="Path_267" data-name="Path 267" d="M585.075,113.587c.422-.868,1.279-1.272,1.974-1.849a1.2,1.2,0,0,0,1.61.02,15.973,15.973,0,0,1,6.713-2.519c.969-.12,1.928-.024,2.884-.12a12.184,12.184,0,0,1,4.907.861,15.718,15.718,0,0,1,5.143,2.945c.27.22.263.289.053.5q-1.211,1.192-2.4,2.4c-.172.176-.283.22-.482.029a12.993,12.993,0,0,0-2.689-1.689,7.98,7.98,0,0,0-2.252-.647,9.937,9.937,0,0,0-2.9-.352,13.474,13.474,0,0,0-6.025,1.734,10.958,10.958,0,0,0-4.084,3.817,11.777,11.777,0,0,0-1.806,4.461,11.414,11.414,0,0,0,.084,4.865,12.668,12.668,0,0,0,2.339,4.91,26.247,26.247,0,0,0,2.016,1.923,14.178,14.178,0,0,0,2.527,1.646,6.373,6.373,0,0,0,2.616.863,15.627,15.627,0,0,0,3.322.326c.462-.05.941.01,1.225-.478a.183.183,0,0,1,.167-.058c1.259.559,2.208-.358,3.187-.787a11.932,11.932,0,0,0,4.524-3.771,14.959,14.959,0,0,0,1.7-3.17,5.38,5.38,0,0,0,.569-2.194,22.666,22.666,0,0,0,.033-2.5,15.915,15.915,0,0,1-.24-2.3,3.943,3.943,0,0,0-.624-1.55,22.064,22.064,0,0,0-1.752-3.27.26.26,0,0,1,.039-.4q1.179-1.2,2.349-2.414a7.261,7.261,0,0,0,.287.7,17.343,17.343,0,0,1-.063,17.043,17.275,17.275,0,0,1-13.446,8.78,4.786,4.786,0,0,0-1.616.221,15.168,15.168,0,0,1-5.016-1.806,19.593,19.593,0,0,1-4.053-3.131,15.88,15.88,0,0,1-4.1-7.532,14.949,14.949,0,0,1-.415-4.814,20.8,20.8,0,0,1,.89-4.227,15.517,15.517,0,0,1,2.841-5.02c.395-.5-.135-.959-.039-1.442" transform="translate(-567.508 -88.902)" fill="#fe646f"/>
    <path id="Path_268" data-name="Path 268" d="M615.122,152.135a8.334,8.334,0,0,1,.526-3.227,9.989,9.989,0,0,1,7.674-6.7,8.24,8.24,0,0,1,3.053-.151,17.025,17.025,0,0,1,2.534.6,7.432,7.432,0,0,1,2.507,1.437c.212.187.264.323.028.55-.8.771-1.576,1.561-2.357,2.349a.367.367,0,0,1-.536.078,5.971,5.971,0,0,0-5.242-.572,5.583,5.583,0,0,0-2.8,1.951,8.029,8.029,0,0,0-1.36,3.269.9.9,0,0,0,0,.277c.214,1.993.691,3.869,2.494,5.066a5.366,5.366,0,0,0,3.682,1.19,6.639,6.639,0,0,0,3.786-1.3,5.9,5.9,0,0,0,2.009-3,5.676,5.676,0,0,0-.644-4.866c-.119-.17-.409-.4-.064-.626a15.283,15.283,0,0,0,2.359-2.38c.317-.327.452-.28.689.054a10.37,10.37,0,0,1,1.938,5.164,9.75,9.75,0,0,1-1.147,5.716,9.974,9.974,0,0,1-6.857,5.132,9.558,9.558,0,0,1-8.872-2.388,9.746,9.746,0,0,1-3.281-5.857c-.1-.6-.071-1.181-.117-1.768" transform="translate(-595.019 -115.695)" fill="#f9f8f9"/>
    <path id="Path_269" data-name="Path 269" d="M623.36,152.564a.321.321,0,0,1,.365-.134,30.611,30.611,0,0,0,6.807.4,26.1,26.1,0,0,0,9.634-2.12A27.363,27.363,0,0,0,649,145.032a29.043,29.043,0,0,0,9.071-17.676,30.143,30.143,0,0,0,.248-4.818,28.75,28.75,0,0,0-1.9-9.274c-.5-1.3-1.133-2.556-1.706-3.832.719.088.848.767,1.162,1.224a32.283,32.283,0,0,1,2.511,4.661,18.554,18.554,0,0,1,1.052,3.629,33.842,33.842,0,0,1,.723,4.915,28.68,28.68,0,0,1-.155,5.19,27.108,27.108,0,0,1-2.646,9.055,27.417,27.417,0,0,1-4.118,6.16,28.068,28.068,0,0,1-9.627,7.159,28.451,28.451,0,0,1-6.151,2.061,27.262,27.262,0,0,1-5.789.456,39.075,39.075,0,0,1-5.837-.6,16.759,16.759,0,0,1-2.48-.784" transform="translate(-601.742 -89.184)" fill="#fc4755"/>
    <path id="Path_270" data-name="Path 270" d="M654.851,166.118a4.781,4.781,0,0,1,1.616-.221,17.274,17.274,0,0,0,13.446-8.78,17.342,17.342,0,0,0,.063-17.043,7.268,7.268,0,0,1-.287-.7c.362-.351.534.027.688.221a15.96,15.96,0,0,1,3.325,7,16.4,16.4,0,0,1-3.031,13.357,16.01,16.01,0,0,1-4.4,4.028,13.676,13.676,0,0,1-3.957,1.666,17.882,17.882,0,0,1-2.959.65,27.971,27.971,0,0,1-3.09-.006,2.59,2.59,0,0,1-1.41-.172" transform="translate(-627.395 -113.46)" fill="#fc4755"/>
    <path id="Path_271" data-name="Path 271" d="M776.533,20.319c.069.192-.1.271-.206.379q-3.919,3.927-7.845,7.847c-.444.443-.618.4-.722-.211-.207-1.221-.4-2.445-.717-3.643-.058-.217.093-.334.225-.466q4.1-4.092,8.192-8.186c.107-.107.2-.3.387-.225a.366.366,0,0,1,.218.32c.151,1.4.31,2.791.467,4.186" transform="translate(-718.778 -12.907)" fill="#fdde2f"/>
    <path id="Path_272" data-name="Path 272" d="M780.657,57.89c.481-.54.917-1.077,1.4-1.565,2.116-2.134,4.284-4.216,6.346-6.4a2.049,2.049,0,0,1,1.983-.556c.965.106,1.925.262,2.886.4.171.025.4-.1.5.095.125.242-.112.369-.253.509Q791,52.9,788.477,55.426c-.964.964-1.93,1.926-2.889,2.9a.815.815,0,0,1-.714.328c-1.449-.189-2.882-.456-4.217-.759" transform="translate(-729.876 -40.224)" fill="#fdde2f"/>
    <path id="Path_273" data-name="Path 273" d="M651.25,183.639a3.962,3.962,0,0,1-3.132-3.487,3.861,3.861,0,0,1,1.455-3.649,4.118,4.118,0,0,1,3.835-.638c.737.157.75.326.229.849-.735.736-1.462,1.479-2.208,2.2a.957.957,0,0,0-.1,1.357.828.828,0,0,0,1.294.182c.743-.517,1.245-1.289,1.969-1.823a4.723,4.723,0,0,1-2.745,4.5c-.229.12-.559.146-.592.506" transform="translate(-621.861 -143.149)" fill="#fe646f"/>
    <path id="Path_274" data-name="Path 274" d="M574.294,341.46a2.051,2.051,0,0,1-1.867-2.543c.372-1.373.811-2.728,1.225-4.09.1-.333.323-.371.581-.184a20.138,20.138,0,0,0,2.882,1.647c.214.106.292.178.2.461-.344,1.072-.62,2.166-.948,3.244a2.044,2.044,0,0,1-2.075,1.465" transform="translate(-560.197 -272.552)" fill="#fe646f"/>
    <path id="Path_275" data-name="Path 275" d="M665.271,193.279c.033-.36.363-.385.592-.506a4.723,4.723,0,0,0,2.745-4.5c.054-.242.305-.252.455-.381.662-.57.734-.534.943.333a4.106,4.106,0,0,1-3.781,5.164c-.3.04-.7.421-.954-.11" transform="translate(-635.882 -152.788)" fill="#fc4755"/>
    <path id="Path_276" data-name="Path 276" d="M654.812,294.816l.084.081-.093.006c.01-.034.02-.067.031-.1l-.022.013" transform="translate(-627.354 -240.19)"/>
  </g>
</svg>
