<svg id="Group_131" data-name="Group 131" xmlns="http://www.w3.org/2000/svg" width="70.975" height="71" viewBox="0 0 70.975 71">
  <path id="Path_277" data-name="Path 277" d="M5046.387,112.1a1.055,1.055,0,0,1,1.078-.535c2.757,0,5.514,0,8.27.006a1.06,1.06,0,0,1,1.16,1.188c.008,2.109.019,4.219-.009,6.328-.006.468.109.774.557.933a14.709,14.709,0,0,1,2.365,1.462l.2.123c.021-.047.042-.095.063-.142v-.716q.007-7.783.01-15.566c0-1.376.127-1.529,1.528-1.53h7.5c1.092,0,1.378.253,1.5,1.343a4.928,4.928,0,0,1,0,.576q0,15.026,0,30.052a7.71,7.71,0,0,1-.1.981c-.082.65-.425.839-1.008.837-1.851-.008-3.7,0-5.55-.008a.668.668,0,0,0-.722.406,13.251,13.251,0,0,1-6.935,6.442,12.066,12.066,0,0,1-5,1.091,12.775,12.775,0,0,1-7.062-2.057.628.628,0,0,0-.972.1c-.981,1.107-2.125,2.058-3.078,3.2-.37.444-.154.949-.409,1.371a3.792,3.792,0,0,1-.51.9c-2.054,2.023-4.082,4.071-6.124,6.105a3.484,3.484,0,0,1-5.937-1.48,3.615,3.615,0,0,1,1.115-3.722c1.643-1.708,3.335-3.365,5-5.048.521-.526.928-1.249,1.776-1.376.086-.013.176-.129.244-.113.9.211,1.334-.455,1.848-.966.869-.864,1.718-1.748,2.608-2.589a.467.467,0,0,0,.085-.717,7.087,7.087,0,0,1-1.467-3.205,24.418,24.418,0,0,1-.653-3.567,13.588,13.588,0,0,1,2.646-8.258,12.866,12.866,0,0,1,5.438-4.36.724.724,0,0,0,.534-.786c-.029-2.138-.018-4.276-.021-6.414l.023-.287m22.494,8.5c0-4.829-.009-9.657.011-14.486,0-.545-.109-.761-.705-.75-1.922.036-3.844.025-5.766,0-.451,0-.615.094-.613.591q.028,8.576,0,17.153a1.7,1.7,0,0,0,.462,1.147,11.935,11.935,0,0,1,2.133,5.01,12.058,12.058,0,0,1-.159,5.933c-.137.536.032.505.392.5,1.153,0,2.308-.036,3.458.013.616.026.809-.114.8-.777-.033-4.781-.018-9.561-.018-14.342m-17.666-.428a13.647,13.647,0,0,0-2.384.281,10.616,10.616,0,0,0-5.967,3.223,12.1,12.1,0,0,0-3.376,7.624,4.035,4.035,0,0,0-.056,1.643,22.064,22.064,0,0,1,.915,3.024,13.07,13.07,0,0,0,2.461,4.018c.63.854,1.7,1.25,2.363,2.095.077.1.194.114.3.159.747.311,1.523.542,2.278.832a10.755,10.755,0,0,0,5.334.423,11.141,11.141,0,0,0,3.844-1.4,11.492,11.492,0,0,0,4.644-4.86,12.754,12.754,0,0,0,.848-9.065,11.81,11.81,0,0,0-11.208-8m-22.368,32.231a1.631,1.631,0,0,0,1.11,1.8,1.494,1.494,0,0,0,1.765-.263q3.1-3.107,6.213-6.206a.547.547,0,0,0,0-.911c-.52-.5-1.031-1.005-1.526-1.527-.421-.444-.786-.415-1.208.012q-2.914,2.94-5.852,5.856a1.316,1.316,0,0,0-.5,1.245m22.821-39.1c-.984,0-1.971.021-2.955-.009-.461-.014-.625.107-.612.6.035,1.345.012,2.69.013,4.036,0,.887.095.934.984.752a6,6,0,0,1,1.955-.22,15.382,15.382,0,0,1,3.617.479c.333.13.5-.05.5-.439-.019-1.561-.022-3.123,0-4.684.007-.428-.152-.528-.545-.519-.984.022-1.97.007-2.954.007m-10.521,27.6c-.236.042-.343.214-.474.344q-1.068,1.059-2.129,2.127c-.836.837-.826.827.044,1.649.241.228.376.264.629.013.872-.867,1.775-1.7,2.656-2.561.174-.169.523-.355.3-.633a2.881,2.881,0,0,0-1.022-.939" transform="translate(-5027.052 -85.118)"/>
  <path id="Path_278" data-name="Path 278" d="M5152.712,12.819a3.67,3.67,0,0,1,3.163,1.478,1.905,1.905,0,0,1,.3,1.056,2.49,2.49,0,0,0,1.927,2.1c1.66.542,3.272,1.229,4.9,1.857.332.127.517.118.777-.249a2.617,2.617,0,0,1,2.049-1.041,3.776,3.776,0,0,1,2.591.476c.326.237.558,0,.758-.148q3.64-2.739,7.258-5.509a.651.651,0,0,0,.253-.825,3.277,3.277,0,0,1,1.05-3.62,3.458,3.458,0,0,1,3.978-.525A3.365,3.365,0,0,1,5183.746,11a3.671,3.671,0,0,1-4.441,3.684,1.693,1.693,0,0,1-.864-.426c-.445-.437-.816-.21-1.159.065-2.358,1.89-4.78,3.7-7.226,5.47-.328.238-.206.506-.144.734a3.6,3.6,0,1,1-6.92,2c-.055-.177-.181-.374-.144-.531.209-.895-.4-1.1-1.038-1.306-1.937-.623-3.777-1.511-5.724-2.115a.579.579,0,0,0-.709.189,3.839,3.839,0,0,1-2.517,1.238,3.573,3.573,0,0,1-2.166-.66.619.619,0,0,0-.818,0c-2.271,1.493-4.5,3.051-6.75,4.568a1.032,1.032,0,0,0-.52,1.437c.4,1.3-.925,3.218-2.229,3.647a3.548,3.548,0,0,1-3.261-.288,3.964,3.964,0,0,1-1.62-2.211,3.59,3.59,0,0,1,1.75-3.966,3.69,3.69,0,0,1,3.688.178.751.751,0,0,0,.964.011c2.26-1.675,4.624-3.2,6.944-4.784a.834.834,0,0,0,.347-1.01,3.383,3.383,0,0,1,3.521-4.1m-15.537,12.907a1.864,1.864,0,0,0,3.728-.089,1.865,1.865,0,1,0-3.728.089M5182,11.157a1.821,1.821,0,0,0-1.878-1.928,1.97,1.97,0,0,0-1.849,1.846,1.912,1.912,0,0,0,1.863,1.89A1.843,1.843,0,0,0,5182,11.157m-29.343,7a1.87,1.87,0,1,0,.086-3.737,1.823,1.823,0,0,0-1.88,1.864,1.854,1.854,0,0,0,1.793,1.873m13.8,1.578a1.682,1.682,0,0,0-1.892,1.7,1.85,1.85,0,0,0,1.762,1.908,1.824,1.824,0,0,0,1.987-1.888,1.634,1.634,0,0,0-1.857-1.719" transform="translate(-5114.499 -7.467)"/>
  <path id="Path_279" data-name="Path 279" d="M5340.7,96.133q0-9.189,0-18.377c0-.92.188-1.123,1.128-1.126q4.107-.014,8.215,0c.816,0,1.179.37,1.18,1.176q.005,18.305,0,36.611c0,.828-.382,1.206-1.226,1.208q-4.108.012-8.216,0c-.856,0-1.081-.252-1.081-1.113q0-9.189,0-18.377m8.8.059c0-5.716-.01-11.433.014-17.149,0-.583-.167-.711-.719-.7-1.921.033-3.843.026-5.764,0-.459-.006-.606.106-.605.593q.022,17.185,0,34.369c0,.49.154.594.609.589,1.921-.023,3.843-.031,5.764,0,.557.01.718-.127.715-.7-.023-5.668-.014-11.336-.014-17" transform="translate(-5280.251 -63.295)"/>
  <path id="Path_280" data-name="Path 280" d="M5279.829,138.1q0,6.667,0,13.334a4.6,4.6,0,0,1-.117,1.12.827.827,0,0,1-.883.738c-2.859,0-5.718.011-8.577-.008-.777-.005-1.133-.544-.975-1.324a3.254,3.254,0,0,0,.027-.645q0-13.262,0-26.524c0-1.268.234-1.51,1.461-1.51q3.857,0,7.712,0c1.083,0,1.351.267,1.352,1.34q0,6.739,0,13.479m-1.729.211c0-4.2-.008-8.409.01-12.613,0-.5-.074-.713-.652-.7-1.945.04-3.892.03-5.837,0-.473-.006-.6.13-.6.6q.021,12.685,0,25.37c0,.491.156.6.613.593,1.922-.022,3.845-.033,5.766,0,.574.011.715-.153.712-.717-.024-4.18-.013-8.36-.013-12.541" transform="translate(-5222.562 -100.962)"/>
  <path id="Path_281" data-name="Path 281" d="M5046.519,17.4c.274,5.294-4.548,10.133-10.312,9.833a9.858,9.858,0,0,1-9.158-8.928,9.756,9.756,0,1,1,19.47-.9m-1.73,0a8.014,8.014,0,1,0-15.985.821,8.01,8.01,0,0,0,15.985-.821" transform="translate(-5027.021 -7.608)"/>
  <path id="Path_282" data-name="Path 282" d="M5126.456,147.5l-.023.287c-.106,0-.2-.037-.19-.152s.123-.12.214-.135" transform="translate(-5107.12 -120.513)" fill="#9fd3ba"/>
  <path id="Path_283" data-name="Path 283" d="M5197.623,192.366v.146l-.176-.073.176-.073" transform="translate(-5164.604 -156.734)" fill="#9fd3ba"/>
  <path id="Path_284" data-name="Path 284" d="M5197.259,196.084l-.063.142-.2-.122.263-.019" transform="translate(-5164.24 -159.736)" fill="#9fd3ba"/>
  <path id="Path_285" data-name="Path 285" d="M5214.448,127.791c0,4.781-.016,9.561.017,14.342,0,.664-.188.8-.8.777-1.151-.049-2.305-.016-3.458-.013-.359,0-.527.032-.391-.5a12.063,12.063,0,0,0,.159-5.933,11.929,11.929,0,0,0-2.133-5.01,1.7,1.7,0,0,1-.462-1.146q.025-8.576,0-17.153c0-.5.163-.6.613-.591,1.922.021,3.844.031,5.766,0,.6-.011.708.2.705.749-.019,4.829-.011,9.658-.011,14.486" transform="translate(-5172.619 -92.304)" fill="#ff6b81"/>
  <path id="Path_286" data-name="Path 286" d="M5102.72,189.394a11.809,11.809,0,0,1,11.208,8,12.752,12.752,0,0,1-.848,9.066,11.491,11.491,0,0,1-4.643,4.86,11.152,11.152,0,0,1-3.845,1.4,10.751,10.751,0,0,1-5.333-.422c-.755-.29-1.532-.52-2.279-.832-.109-.045-.227-.061-.3-.159-.661-.845-1.734-1.24-2.364-2.095a13.094,13.094,0,0,1-2.461-4.018,22.054,22.054,0,0,0-.915-3.024,4.037,4.037,0,0,1,.056-1.643,12.094,12.094,0,0,1,3.376-7.624,10.614,10.614,0,0,1,5.966-3.223,13.649,13.649,0,0,1,2.384-.281m-.017,22.055a10.327,10.327,0,0,0,10.322-10.795,9.974,9.974,0,0,0-9.822-9.779,10.162,10.162,0,0,0-10.757,10.136,10.342,10.342,0,0,0,10.257,10.438" transform="translate(-5078.558 -154.336)" fill="#9fd3ba"/>
  <path id="Path_287" data-name="Path 287" d="M5036.227,325.514a1.317,1.317,0,0,1,.5-1.244q2.934-2.92,5.852-5.855c.422-.426.787-.456,1.208-.012.5.522,1.007,1.029,1.526,1.527a.547.547,0,0,1,0,.911q-3.113,3.1-6.213,6.206a1.493,1.493,0,0,1-1.764.263,1.631,1.631,0,0,1-1.111-1.8" transform="translate(-5034.433 -258.224)" fill="#9fd3ba"/>
  <path id="Path_288" data-name="Path 288" d="M5139.813,153.723c.985,0,1.97.014,2.954-.007.393-.009.552.091.545.519-.023,1.561-.019,3.123,0,4.684,0,.389-.163.568-.5.439a15.373,15.373,0,0,0-3.617-.479,6,6,0,0,0-1.955.22c-.89.182-.985.136-.985-.752,0-1.345.023-2.691-.012-4.036-.013-.491.151-.612.612-.6.984.031,1.97.009,2.955.009" transform="translate(-5115.198 -125.53)" fill="#fbc700"/>
  <path id="Path_289" data-name="Path 289" d="M5086.674,297a2.88,2.88,0,0,1,1.022.939c.228.278-.122.464-.3.633-.88.858-1.784,1.694-2.656,2.561-.253.252-.388.215-.629-.013-.871-.823-.88-.813-.044-1.649.709-.71,1.417-1.421,2.128-2.127.131-.13.237-.3.475-.344" transform="translate(-5072.578 -241.204)" fill="#9fd3ba"/>
  <path id="Path_290" data-name="Path 290" d="M5144.7,94.085a1.865,1.865,0,1,1,3.727-.089,1.864,1.864,0,0,1-3.727.089" transform="translate(-5122.022 -75.826)" fill="#fbc700"/>
  <path id="Path_291" data-name="Path 291" d="M5361.7,18.539a1.842,1.842,0,0,1-1.864,1.808,1.912,1.912,0,0,1-1.863-1.89,1.97,1.97,0,0,1,1.849-1.846,1.821,1.821,0,0,1,1.878,1.928" transform="translate(-5294.196 -14.849)" fill="#a6e7f0"/>
  <path id="Path_292" data-name="Path 292" d="M5217.537,47.311a1.855,1.855,0,0,1-1.793-1.873,1.823,1.823,0,0,1,1.88-1.864,1.87,1.87,0,1,1-.087,3.737" transform="translate(-5179.375 -36.616)" fill="#ff6b81"/>
  <path id="Path_293" data-name="Path 293" d="M5288.718,71.154a1.634,1.634,0,0,1,1.857,1.719,1.824,1.824,0,0,1-1.987,1.888,1.85,1.85,0,0,1-1.762-1.908,1.682,1.682,0,0,1,1.892-1.7" transform="translate(-5236.759 -58.881)" fill="#9fd3ba"/>
  <path id="Path_294" data-name="Path 294" d="M5356.708,103.4c0,5.668-.01,11.336.014,17,0,.577-.158.714-.716.7-1.92-.035-3.842-.027-5.764,0-.455.005-.609-.1-.609-.589q.022-17.185,0-34.369c0-.488.146-.6.605-.593,1.921.023,3.843.03,5.764,0,.551-.01.721.118.719.7-.024,5.716-.014,11.432-.014,17.149" transform="translate(-5287.464 -70.501)" fill="#a6e7f0"/>
  <path id="Path_295" data-name="Path 295" d="M5285.566,145.5c0,4.18-.011,8.361.013,12.541,0,.564-.138.729-.712.717-1.921-.037-3.844-.027-5.765,0-.458.005-.614-.1-.613-.593q.023-12.685,0-25.37c0-.47.124-.606.6-.6,1.945.026,3.893.036,5.837,0,.578-.012.654.2.652.7-.019,4.2-.011,8.408-.011,12.613" transform="translate(-5230.03 -108.155)" fill="#9fd3ba"/>
  <path id="Path_296" data-name="Path 296" d="M5052.116,24.677a8.014,8.014,0,1,1-8.2-8.024,7.9,7.9,0,0,1,8.2,8.024m-.865,0a7.027,7.027,0,0,0-7.256-7.17,7.14,7.14,0,0,0-7.016,7.944,7.29,7.29,0,0,0,6.883,6.465c4.017.135,7.69-3.385,7.389-7.238" transform="translate(-5034.348 -14.883)" fill="#fbc700"/>
  <path id="Path_297" data-name="Path 297" d="M5109.341,217.59a10.343,10.343,0,0,1-10.258-10.437,10.163,10.163,0,0,1,10.757-10.136,9.975,9.975,0,0,1,9.822,9.78,10.327,10.327,0,0,1-10.322,10.794m-.205-1.721c5.091-.283,8.815-3.518,8.954-9.494-.661-2.57-1.7-4.93-4.041-6.408a9.025,9.025,0,0,0-5.479-1.327,8.784,8.784,0,0,0-7.794,9.682,8.181,8.181,0,0,0,3,5.4,9.011,9.011,0,0,0,5.364,2.148" transform="translate(-5085.195 -160.476)"/>
  <path id="Path_298" data-name="Path 298" d="M5054.81,28.252c.3,3.853-3.373,7.373-7.389,7.238a7.29,7.29,0,0,1-6.883-6.465,7.139,7.139,0,0,1,7.016-7.944,7.027,7.027,0,0,1,7.256,7.171m-1.737.031a5.269,5.269,0,0,0-5.329-5.462,5.406,5.406,0,0,0-5.5,5.42,5.691,5.691,0,0,0,5.32,5.534c2.7.057,5.8-2.487,5.508-5.492" transform="translate(-5037.908 -18.457)"/>
  <path id="Path_299" data-name="Path 299" d="M5116.017,222.628a9.009,9.009,0,0,1-5.364-2.148,8.181,8.181,0,0,1-3-5.4,8.784,8.784,0,0,1,7.794-9.682,9.026,9.026,0,0,1,5.479,1.327c2.339,1.478,3.379,3.838,4.04,6.408-.139,5.976-3.862,9.21-8.953,9.494" transform="translate(-5092.076 -167.235)" fill="#d4f2f6"/>
  <path id="Path_300" data-name="Path 300" d="M5060.348,35.563c.289,3-2.812,5.549-5.508,5.492a5.692,5.692,0,0,1-5.321-5.534,5.407,5.407,0,0,1,5.5-5.42,5.269,5.269,0,0,1,5.329,5.462m-6.637,1.577a.784.784,0,0,0-.764,1.207,1.872,1.872,0,0,0,.83.845c.165.092.38.143.393.438a.737.737,0,0,0,.716.676.841.841,0,0,0,.854-.521,1.874,1.874,0,0,1,.664-.771,2.38,2.38,0,0,0,.631-3.177,2.432,2.432,0,0,0-2.064-1.159.673.673,0,0,1-.655-.541.541.541,0,0,1,.3-.663.654.654,0,0,1,.845.143c.077.088.188.145.269.23.426.44.857.18,1.154-.1a.876.876,0,0,0,.042-1.109,1.975,1.975,0,0,0-.762-.7.649.649,0,0,1-.418-.527c-.034-.508-.429-.58-.816-.606a.718.718,0,0,0-.754.62.685.685,0,0,1-.354.48,2.483,2.483,0,0,0-1.253,2.646,2.554,2.554,0,0,0,2.371,1.875.635.635,0,0,1,.643.461.6.6,0,0,1-.278.743.616.616,0,0,1-.833-.12c-.2-.229-.429-.47-.761-.371" transform="translate(-5045.183 -25.738)" fill="#fbc700"/>
  <path id="Path_301" data-name="Path 301" d="M5066.254,40.089c.331-.1.561.142.76.371a.616.616,0,0,0,.833.12.6.6,0,0,0,.278-.743.634.634,0,0,0-.643-.461,2.554,2.554,0,0,1-2.371-1.875,2.481,2.481,0,0,1,1.253-2.646.685.685,0,0,0,.353-.48.719.719,0,0,1,.754-.62c.388.026.782.1.816.606a.65.65,0,0,0,.418.527,1.974,1.974,0,0,1,.762.7.876.876,0,0,1-.042,1.109c-.3.281-.728.541-1.154.1-.081-.084-.192-.141-.269-.23a.654.654,0,0,0-.845-.143.54.54,0,0,0-.3.663.673.673,0,0,0,.655.541,2.433,2.433,0,0,1,2.064,1.159,2.381,2.381,0,0,1-.632,3.177,1.881,1.881,0,0,0-.664.771.84.84,0,0,1-.853.521.738.738,0,0,1-.717-.676c-.012-.295-.228-.346-.393-.438a1.873,1.873,0,0,1-.83-.845.785.785,0,0,1,.764-1.207" transform="translate(-5057.726 -28.688)"/>
</svg>
