<svg xmlns="http://www.w3.org/2000/svg" width="70.057" height="70" viewBox="0 0 70.057 70">
  <g id="Group_130" data-name="Group 130" transform="translate(-13792.522 1152.695)">
    <path id="Path_26" data-name="Path 26" d="M4732.434,70.305a4.715,4.715,0,0,0-.63-.471,1.8,1.8,0,0,1-.869-1.565c.011-6.906-.005-13.811.019-20.717,0-.642-.182-.774-.786-.766-2.529.033-5.06,0-7.589.017a1.6,1.6,0,0,1-1.148-.437c-1.393-1.29-2.792-2.573-4.163-3.887a1.836,1.836,0,0,1-.14-2.594c1.39-1.388,2.847-2.711,4.309-4.026a2.158,2.158,0,0,1,1.489-.441c2.484.006,4.969-.007,7.453.012.425,0,.605-.076.57-.547a12.305,12.305,0,0,1,0-1.844c.04-.509-.109-.639-.627-.636-3.852.025-7.7.006-11.555.018a1.98,1.98,0,0,1-1.94-1.271,1.118,1.118,0,0,1-.109-.5c0-2.644-.011-5.287-.014-7.931a1.982,1.982,0,0,1,2.184-1.68c3.35-.007,6.7.005,10.051-.01.652,0,1.521.294,1.894-.128.321-.364.1-1.214.1-1.849.006-1.017,0-1.019-1.038-1.017-2.506,0-5.013-.005-7.52.025a1.324,1.324,0,0,1-.938-.43c-1.377-1.245-2.748-2.5-4.081-3.791a2.008,2.008,0,0,1-.214-2.821c.586-.532,1.1-1.144,1.732-1.614.854-.639,1.469-1.526,2.354-2.125a3.344,3.344,0,0,1,1.9-.658c2.416,0,4.832-.012,7.247.01.442,0,.566-.108.568-.558a10.9,10.9,0,0,1,.129-3.025,3.65,3.65,0,0,1,3.4-2.722,3.905,3.905,0,0,1,4.372,3.6,10.448,10.448,0,0,1,.039,1.978c-.034.557.123.734.7.727,2.689-.031,5.379.005,8.068-.022a2.5,2.5,0,0,1,2.691,1.591V16.68c-.072.051-.172.085-.211.154a2.268,2.268,0,0,1-2.205,1.207c-2.824-.03-5.649,0-8.474-.021-.451,0-.6.116-.569.568a17.231,17.231,0,0,1,0,1.912c-.021.416.1.549.533.542,1.572-.025,3.144,0,4.715-.014a2.361,2.361,0,0,1,1.467.532c.737.543,1.3,1.255,1.981,1.855a10.844,10.844,0,0,1,2.762,2.84V27.35c-.25.04-.236.3-.371.443-1.451,1.5-3.023,2.865-4.567,4.262a1.593,1.593,0,0,1-1.115.368c-1.594-.028-3.19.015-4.783-.025-.536-.014-.659.156-.624.651a12.529,12.529,0,0,1,0,1.776c-.033.471.1.614.592.61,2.688-.025,5.377.01,8.065-.022a2.6,2.6,0,0,1,2.8,1.515v8.618c-.088.064-.215.109-.259.2a2.1,2.1,0,0,1-2.19,1.075c-2.728-.042-5.457.006-8.185-.03-.634-.008-.847.113-.833.8.048,2.409.022,4.82.017,7.23a1.211,1.211,0,0,1-1,1.3c-.815-.124-1.05-.393-1.053-1.274-.007-2.483-.014-4.965.008-7.447,0-.482-.142-.624-.617-.607-.932.035-1.867.025-2.8,0-.361-.009-.463.107-.463.464q.014,10.249,0,20.5c0,.383.1.518.5.507.91-.026,1.823-.038,2.732,0,.5.023.657-.108.651-.633-.029-2.5-.018-5.01-.01-7.515,0-.961.174-1.139,1.051-1.189a1.154,1.154,0,0,1,1,1.284c0,2.461-.024,4.922.012,7.383a2.625,2.625,0,0,1-1.695,2.71Zm2.973-54.322c4.081,0,8.163-.012,12.244.014.552,0,.676-.159.667-.684q-.042-3.009,0-6.019c.007-.5-.1-.656-.633-.655q-12.209.027-24.419.014c-.2,0-.417-.049-.591.1-1.252,1.08-2.5,2.165-3.644,3.361-.154.161-.229.261.015.481,1.08.969,2.134,1.967,3.17,2.984a1.3,1.3,0,0,0,1.01.412c4.059-.015,8.117-.009,12.176-.009m.038,21.487c-4.079,0-8.159.005-12.239-.008a1.213,1.213,0,0,0-.948.388c-.983.974-1.954,1.971-3.024,2.843-.541.441-.308.635.031.912,1.07.877,2.064,1.837,3.052,2.8a1.173,1.173,0,0,0,.9.348q12.24-.011,24.478.008c.545,0,.622-.179.616-.657-.023-2.005-.027-4.011.007-6.016.009-.516-.128-.635-.636-.632-4.079.023-8.159.013-12.239.013m-3.9-14.39c-4.058,0-8.117.007-12.175-.01-.463,0-.625.1-.618.6q.044,3.043.006,6.087c0,.462.092.619.591.618q12.243-.024,24.486-.015c.173,0,.355.055.518-.088,1.243-1.093,2.479-2.195,3.648-3.367.157-.158.173-.216-.033-.4-.962-.864-1.886-1.771-2.821-2.666a2.533,2.533,0,0,0-1.908-.777c-3.9.049-7.8.022-11.7.022m3.421-16.505v.042c.5,0,1,0,1.5,0,.226,0,.4-.016.392-.316-.022-.771.021-1.547-.053-2.312a1.879,1.879,0,0,0-2.456-1.539c-1.124.357-1.367.728-1.349,2.168.008.651-.29,1.522.126,1.891.355.314,1.209.065,1.842.065m.1,11.457c-.607,0-1.108.016-1.608-.005-.33-.014-.5.049-.479.438.031.7.026,1.411,0,2.115-.013.36.105.474.464.462.75-.025,1.5-.007,2.252-.007,1.154,0,1.166,0,1.149-1.127-.01-.606.262-1.4-.111-1.767s-1.168-.059-1.668-.107m-.3,17.391c.63,0,1.154-.019,1.675.007.333.017.43-.093.419-.422q-.034-1.09,0-2.181c.011-.33-.095-.429-.421-.42-.772.022-1.545.007-2.318.007-1.13,0-1.141,0-1.125,1.131.009.607-.26,1.4.107,1.769s1.165.06,1.664.109" transform="translate(9112.225 -1153)"/>
    <path id="Path_27" data-name="Path 27" d="M4538.673,109.2a.736.736,0,0,1,.739-.937,9.1,9.1,0,0,1,4.307.433,3.192,3.192,0,0,1,1.811,2.39.794.794,0,0,0,.817.716,3.414,3.414,0,0,1,3.454,3.535c.035,1.731.015,3.464,0,5.2a.833.833,0,0,0,.464.87,3.809,3.809,0,0,1-1.751,7.027c-.952.051-.854.612-.909,1.072a8.059,8.059,0,0,1-3.27,5.722c-.293.221-.164.545-.167.824-.013,1.17-.01,1.181,1.005,1.572,3.126,1.2,6.267,2.371,9.382,3.6a7.763,7.763,0,0,1,5.072,6.084c.455,2.362.18,4.744.25,7.116a6.8,6.8,0,0,1-.129,2.158,2.916,2.916,0,0,1-1.9,1.868h-38.031c-.648-.406-1.347-.752-1.613-1.561a2.167,2.167,0,0,1-.164-.7c.009-2.78-.05-5.56.02-8.338a7.438,7.438,0,0,1,1.627-3.982c1.222-1.769,3.08-2.5,4.987-3.208,2.776-1.033,5.524-2.141,8.286-3.215a.8.8,0,0,0,.567-.821,2.384,2.384,0,0,0-.846-2.067,8.445,8.445,0,0,1-2.6-5.718c-.018-.256-.068-.354-.343-.352a3.706,3.706,0,0,1-3.291-1.666,3.324,3.324,0,0,1-.62-2.994c.233-.7.347-1.462,1.039-1.916.106-.069.095-.173.093-.324-.033-2.687-.148-5.382.014-8.059a5.456,5.456,0,0,1,2.14-3.782c1.675-1.4,3.665-1.586,5.729-1.5.706.029.915.547,1.117,1.084a1.387,1.387,0,0,1-1.583.954c-.316-.033-.638,0-.957,0a4.461,4.461,0,0,0-4.473,4.465c.11,1.861.018,3.735.022,5.6,0,1.079.4,1.507,1.466,1.513,2.984.015,5.969.037,8.952,0a4.254,4.254,0,0,0,3.878-2.272,1.089,1.089,0,0,1,1.206-.636,1.126,1.126,0,0,1,1.054,1.128,1.879,1.879,0,0,0,.615,1.373,1.3,1.3,0,0,0,1.208.437c.45-.128.409-.586.407-.982-.007-1.891,0-3.781-.007-5.672a1.275,1.275,0,0,0-1.391-1.369,2.651,2.651,0,0,1-2.755-2.228,1.41,1.41,0,0,0-1.281-1.242,13.942,13.942,0,0,0-2.159-.118c-1.09-.024-1.119-.029-1.492-1.077m-1.9,14.758a2.2,2.2,0,0,0-1.005-.066c-1.178.017-2.357-.073-3.533.044a25.415,25.415,0,0,0-.06,3.524,9.639,9.639,0,0,0,.069,2.179,6.887,6.887,0,0,0,2.057,3.672,6.194,6.194,0,0,0,3.525,1.715,5.124,5.124,0,0,0,2.379-.1,6.622,6.622,0,0,0,5.46-6.352c.064-1.272-.013-2.55.037-3.823.029-.743-.031-1.361-.848-1.656a.876.876,0,0,1-.426-.431c-.351-.743-.7-.417-1.137-.071a5.989,5.989,0,0,1-3.066,1.271c-1.149.139-2.3.019-3.452.094m14.548,28.007c0-1.322,0-2.644,0-3.966,0-1.049.541-1.117,1.259-1.026s.787.694.788,1.273c.005,2.53.013,5.061-.008,7.591,0,.443.106.587.566.57,1.024-.036,2.052-.04,3.076,0,.6.023.839-.249.824-.788-.067-2.476.162-4.958-.121-7.43a5.8,5.8,0,0,0-3.959-5.066q-1.9-.736-3.791-1.5a.779.779,0,0,0-1.01.19q-2.03,2.164-4.123,4.267a1.79,1.79,0,0,1-1.884.533c-.309-.1-.36.01-.5.218-.686,1.032-.438,2.153-.323,3.252.2,1.931.465,3.856.661,5.788.043.426.188.537.583.535,2.485-.011,4.97-.018,7.454.006.45,0,.517-.152.51-.545-.022-1.3-.008-2.6-.006-3.9m-26.806.021h0c0-1.322-.018-2.644.006-3.966.015-.819.441-1.167,1.208-1.063.576.078.842.453.844,1.242.005,2.484.019,4.969-.011,7.453-.007.566.082.776.725.763,2.346-.048,4.7-.033,7.042-.008.509.005.688-.09.688-.655a22.95,22.95,0,0,1,.285-2.939c.192-1.505.351-3.013.524-4.52.071-.618-.355-1.041-.481-1.576-.052-.219-.31-.223-.467-.159-.92.379-1.558-.135-2.131-.7a36.083,36.083,0,0,1-2.8-2.969c-.985-1.228-2.011-1.732-3.416-.72-.031.023-.1-.006-.133.012-1.442.7-3.1.942-4.317,2.131a5.694,5.694,0,0,0-1.964,3.868c-.091,2.5-.018,5.013-.03,7.52,0,.543.253.708.756.7,1.025-.019,2.052-.029,3.077.005.463.016.625-.091.61-.588-.039-1.275-.013-2.552-.013-3.829m11.142-15.45a3.126,3.126,0,0,1-.173,1.479c-.145.387,0,.52.249.77.788.8,1.815,1.425,2.255,2.5.264.648.721.428,1.145.483.4.052.611-.085.722-.507a2.151,2.151,0,0,1,.625-.94c.563-.56,1.138-1.1,1.747-1.613.112-.094.367-.162.211-.416a2.329,2.329,0,0,1-.181-1.318c0-.432-.1-.456-.519-.326a9.43,9.43,0,0,1-2.5.452,10.958,10.958,0,0,1-3.585-.569m5.091,19.867a9.021,9.021,0,0,0-.005-1.038c-.216-1.774-.473-3.542-.668-5.318-.125-1.139-.089-1.143-1.245-1.143h-.137c-.915,0-.913.046-.979.946-.076,1.023-.252,2.038-.365,3.059s-.205,2.051-.3,3.077c-.024.246,0,.43.345.425,1.135-.018,2.271-.007,3.356-.007m-10.308-15.787c1.267,1.249,2.5,2.451,3.716,3.674.256.258.394.181.6-.036.357-.381.745-.733,1.1-1.112.495-.521.509-.9.01-1.388-.742-.727-1.509-1.429-2.271-2.135-.1-.1-.181-.206-.4-.111-.877.381-1.774.717-2.758,1.107m16.8-.01c-.8-.317-1.6-.62-2.38-.945-.246-.1-.5-.176-.7,0q-1.2,1.1-2.367,2.239a.68.68,0,0,0-.063.905,9.579,9.579,0,0,0,1.467,1.6c.183.2.37.075.525-.088l3.516-3.709m-8.333,6.276c1.33,0,1.329,0,1.83-1.22.043-.1.1-.2.137-.306a.476.476,0,0,0-.1-.5c-.55-.662-1.069-1.3-2.106-1.075a3.048,3.048,0,0,0-1.713,1.173.531.531,0,0,0-.027.265,1.688,1.688,0,0,0,1.976,1.662m8.835-21.816h0c0,.319.011.638,0,.957-.013.294.11.388.4.4a1.914,1.914,0,0,0,1.769-2.607c-.284-.6-.689-.715-1.224-.352a1.5,1.5,0,0,1-.421.213.655.655,0,0,0-.531.842,3.283,3.283,0,0,1,0,.546m-17.581-.056c.2-.707-.059-1.188-.984-1.231a1.474,1.474,0,0,1-.593-.289c-.257-.154-.414-.056-.559.166a1.866,1.866,0,0,0,.868,2.619c1.01.383,1.268.208,1.269-.864v-.4" transform="translate(9274.5 -1241.142)"/>
    <path id="Path_28" data-name="Path 28" d="M4587.412,113.678c.373,1.048.4,1.053,1.492,1.077a13.948,13.948,0,0,1,2.159.118,1.411,1.411,0,0,1,1.281,1.242,2.65,2.65,0,0,0,2.754,2.228,1.274,1.274,0,0,1,1.391,1.369c0,1.891,0,3.782.007,5.672,0,.4.042.854-.407.982a1.3,1.3,0,0,1-1.208-.437,1.883,1.883,0,0,1-.615-1.373,1.126,1.126,0,0,0-1.053-1.128,1.089,1.089,0,0,0-1.207.636,4.253,4.253,0,0,1-3.877,2.272c-2.984.034-5.969.012-8.953,0-1.064-.005-1.463-.434-1.465-1.513,0-1.868.088-3.741-.022-5.6a4.461,4.461,0,0,1,4.473-4.465c.319,0,.641-.029.957,0a1.388,1.388,0,0,0,1.583-.954l2.712-.125" transform="translate(9225.762 -1245.622)" fill="#56788b"/>
    <path id="Path_29" data-name="Path 29" d="M4745.392,53.178c-4.059,0-8.117-.006-12.176.009a1.305,1.305,0,0,1-1.011-.412c-1.035-1.017-2.09-2.015-3.17-2.984-.244-.219-.168-.319-.014-.481,1.145-1.2,2.392-2.281,3.643-3.361.175-.15.391-.1.592-.1q12.21,0,24.419-.014c.529,0,.64.157.633.655q-.045,3.009,0,6.019c.008.525-.116.687-.668.684-4.081-.025-8.163-.014-12.244-.014m-.5-4.66q-2.629,0-5.258,0c-.8,0-1.593.01-2.39.007-.52,0-.758.366-.925.756-.178.416.092.732.382,1a1.328,1.328,0,0,0,.959.277q7.238,0,14.475,0a1.233,1.233,0,0,0,1.354-1.041c0-.594-.543-.993-1.36-.994q-3.619,0-7.237,0" transform="translate(9102.238 -1190.196)" fill="#ff6b81"/>
    <path id="Path_30" data-name="Path 30" d="M4745.521,203.292c4.08,0,8.16.01,12.239-.013.508,0,.645.117.636.632-.034,2.005-.031,4.011-.007,6.016.006.478-.07.658-.616.657q-12.239-.03-24.478-.008a1.173,1.173,0,0,1-.9-.348c-.988-.965-1.981-1.925-3.052-2.8-.338-.277-.572-.472-.031-.912,1.07-.872,2.041-1.869,3.023-2.843a1.216,1.216,0,0,1,.949-.389c4.08.013,8.159.008,12.239.008m-.564,4.665q3.658,0,7.316,0c.474,0,.927-.058,1.16-.53a1.06,1.06,0,0,0-1.077-1.514c-1.413-.021-2.826-.006-4.239-.006q-5.2,0-10.393,0c-.406,0-.865-.051-1.083.38-.158.311-.443.6-.174,1.055a1.145,1.145,0,0,0,1.1.612q3.692,0,7.384,0" transform="translate(9102.147 -1318.823)" fill="#fbc700"/>
    <path id="Path_31" data-name="Path 31" d="M4740.9,124.63c3.9,0,7.8.027,11.7-.022a2.533,2.533,0,0,1,1.907.777c.936.894,1.859,1.8,2.821,2.666.207.185.191.243.033.4-1.169,1.173-2.405,2.274-3.648,3.368-.163.143-.345.088-.518.088q-12.244.005-24.487.015c-.5,0-.6-.156-.591-.618q.034-3.043-.007-6.087c-.007-.494.155-.6.618-.6,4.059.017,8.117.01,12.175.01m.525,2.624c-2.413,0-4.825,0-7.238.005-.279,0-.574-.075-.833.165a1.039,1.039,0,0,0-.421,1.132,1.086,1.086,0,0,0,1.15.749c3.141-.011,6.282,0,9.423,0,1.775,0,3.551.007,5.326,0,.8,0,1.21-.43,1.162-1.148-.038-.555-.471-.891-1.195-.893-2.458-.006-4.917,0-7.375,0" transform="translate(9102.868 -1254.551)" fill="#00abf2"/>
    <path id="Path_32" data-name="Path 32" d="M4810.788,263.595q0,1.4,0,2.81c-.877.05-1.048.228-1.052,1.189-.007,2.505-.019,5.011.011,7.515.006.525-.148.656-.652.633-.909-.042-1.822-.029-2.732,0-.394.011-.5-.124-.5-.507q.014-10.248,0-20.5c0-.357.1-.473.462-.464.934.023,1.868.032,2.8,0,.475-.018.621.124.617.607-.022,2.482-.015,4.965-.008,7.447,0,.881.238,1.15,1.053,1.275" transform="translate(9039.345 -1360.476)" fill="#c9f0fe"/>
    <path id="Path_33" data-name="Path 33" d="M4807.478,15.716c-.633,0-1.487.249-1.843-.065-.416-.369-.118-1.239-.125-1.891-.018-1.441.225-1.812,1.349-2.168a1.879,1.879,0,0,1,2.456,1.539c.074.765.032,1.541.054,2.312.008.3-.167.319-.392.317-.5-.006-1,0-1.5,0v-.042" transform="translate(9039.711 -1162.143)" fill="#c9f0fe"/>
    <path id="Path_34" data-name="Path 34" d="M4807.936,96.809c.5.048,1.293-.261,1.668.107s.1,1.161.111,1.767c.018,1.127.005,1.127-1.149,1.127-.751,0-1.5-.017-2.252.007-.358.012-.477-.1-.464-.462.025-.7.029-1.411,0-2.115-.017-.388.149-.452.479-.438.5.021,1,.005,1.608.005" transform="translate(9039.356 -1231.778)" fill="#c9f0fe"/>
    <path id="Path_35" data-name="Path 35" d="M4807.311,178.693c-.5-.049-1.295.262-1.664-.109s-.1-1.163-.106-1.769c-.017-1.131,0-1.131,1.126-1.131.772,0,1.545.015,2.317-.007.327-.009.433.09.422.42q-.034,1.09,0,2.181c.011.329-.087.439-.42.422-.521-.026-1.045-.007-1.675-.007" transform="translate(9039.68 -1296.272)" fill="#c9f0fe"/>
    <path id="Path_36" data-name="Path 36" d="M4658.268,300.681c0,1.3-.014,2.6.009,3.9.007.394-.061.55-.51.545-2.484-.025-4.969-.017-7.454-.006-.395,0-.54-.109-.583-.535-.2-1.932-.456-3.857-.661-5.788-.116-1.1-.363-2.219.322-3.251.138-.208.188-.32.5-.218a1.789,1.789,0,0,0,1.883-.533q2.093-2.1,4.123-4.267a.779.779,0,0,1,1.01-.19q1.888.77,3.791,1.5a5.8,5.8,0,0,1,3.959,5.066c.282,2.473.053,4.954.121,7.43.014.539-.226.811-.825.788-1.024-.039-2.052-.036-3.076,0-.459.016-.569-.128-.565-.57.02-2.53.013-5.06.007-7.591,0-.58-.072-1.182-.787-1.273s-1.255-.024-1.259,1.026c0,1.322,0,2.644,0,3.966" transform="translate(9167.554 -1389.859)" fill="#c9f0fe"/>
    <path id="Path_37" data-name="Path 37" d="M4533.663,301.189c0,1.276-.025,2.554.013,3.829.015.5-.146.6-.61.588-1.024-.035-2.051-.024-3.076-.005-.5.009-.758-.156-.755-.7.012-2.507-.062-5.017.03-7.52a5.692,5.692,0,0,1,1.964-3.868c1.22-1.189,2.875-1.43,4.316-2.131.038-.018.1.01.134-.012,1.406-1.012,2.431-.508,3.416.72a36.265,36.265,0,0,0,2.8,2.969c.573.569,1.21,1.083,2.131.7.156-.064.415-.061.467.158.126.535.552.959.481,1.576-.173,1.507-.332,3.015-.524,4.52a23.209,23.209,0,0,0-.285,2.938c0,.565-.178.661-.688.656-2.347-.025-4.7-.04-7.042.008-.643.013-.731-.2-.724-.763.03-2.484.016-4.968.011-7.453,0-.79-.268-1.164-.843-1.243-.767-.1-1.194.243-1.208,1.063-.024,1.322-.006,2.644-.006,3.966Z" transform="translate(9265.354 -1390.347)" fill="#c9f0fe"/>
    <path id="Path_38" data-name="Path 38" d="M4620.45,186.529c1.149-.075,2.3.045,3.452-.094a5.987,5.987,0,0,0,3.065-1.271c.435-.346.786-.671,1.137.071a.877.877,0,0,0,.425.43c.817.3.877.913.848,1.656-.049,1.273.028,2.551-.036,3.823a6.623,6.623,0,0,1-5.46,6.352,2.662,2.662,0,0,0-.356-.4,7.593,7.593,0,0,1-3.081-6.546c.021-1.339,0-2.679.006-4.019" transform="translate(9190.826 -1303.714)" fill="#fecbbe"/>
    <path id="Path_39" data-name="Path 39" d="M4599.812,193.9c0,1.34.014,2.679-.006,4.019a7.593,7.593,0,0,0,3.081,6.546,2.665,2.665,0,0,1,.357.4,5.129,5.129,0,0,1-2.379.1,6.2,6.2,0,0,1-3.525-1.716,6.887,6.887,0,0,1-2.057-3.672,9.639,9.639,0,0,1-.068-2.179,25.339,25.339,0,0,1,.06-3.524c1.176-.117,2.355-.028,3.533-.044a2.211,2.211,0,0,1,1.006.066" transform="translate(9211.465 -1311.087)" fill="#ffddce"/>
    <path id="Path_40" data-name="Path 40" d="M4613.359,263.026a10.957,10.957,0,0,0,3.585.569,9.431,9.431,0,0,0,2.5-.452c.421-.13.522-.106.518.326a2.329,2.329,0,0,0,.181,1.318c.156.254-.1.322-.212.416-.609.51-1.183,1.054-1.746,1.613a2.148,2.148,0,0,0-.625.94.571.571,0,0,1-.722.507c-.423-.055-.88.166-1.145-.483-.439-1.079-1.467-1.7-2.255-2.5-.245-.25-.393-.384-.249-.77a3.139,3.139,0,0,0,.173-1.479" transform="translate(9196.801 -1367.634)" fill="#ffddce"/>
    <path id="Path_41" data-name="Path 41" d="M4625.65,338.1c-1.085,0-2.221-.011-3.357.007-.344.005-.368-.178-.345-.424.1-1.026.188-2.053.3-3.077s.29-2.036.365-3.059c.066-.9.064-.945.979-.946h.137c1.156,0,1.12,0,1.245,1.143.2,1.776.453,3.545.667,5.318a8.9,8.9,0,0,1,.007,1.038" transform="translate(9189.601 -1422.839)" fill="#ff6b81"/>
    <path id="Path_42" data-name="Path 42" d="M4585.882,280.214c.984-.39,1.881-.726,2.758-1.108.218-.095.3.016.4.112.762.706,1.529,1.408,2.271,2.135.5.489.484.867-.011,1.388-.359.379-.747.731-1.1,1.112-.2.217-.341.294-.6.036-1.214-1.224-2.45-2.426-3.717-3.674" transform="translate(9219.062 -1380.741)" fill="#c9f0fe"/>
    <path id="Path_43" data-name="Path 43" d="M4652.45,280.571q-1.763,1.86-3.516,3.709c-.155.164-.342.285-.525.088a9.568,9.568,0,0,1-1.467-1.595.68.68,0,0,1,.063-.905q1.162-1.141,2.367-2.239c.2-.179.451-.106.7,0,.784.326,1.576.628,2.38.945" transform="translate(9169.292 -1381.109)" fill="#c9f0fe"/>
    <path id="Path_44" data-name="Path 44" d="M4623.289,305.5a1.688,1.688,0,0,1-1.976-1.662.526.526,0,0,1,.027-.265,3.046,3.046,0,0,1,1.713-1.173c1.038-.226,1.557.413,2.107,1.075a.478.478,0,0,1,.1.5c-.035.106-.094.2-.137.306-.5,1.219-.5,1.22-1.83,1.22" transform="translate(9190.12 -1399.766)" fill="#ff6b81"/>
    <path id="Path_45" data-name="Path 45" d="M4680.3,192.287a3.284,3.284,0,0,0,0-.546.656.656,0,0,1,.531-.842,1.482,1.482,0,0,0,.421-.213c.535-.364.94-.251,1.224.352a1.913,1.913,0,0,1-1.769,2.607c-.291-.012-.415-.106-.4-.4.014-.318,0-.638,0-.957Z" transform="translate(9141.942 -1308.365)" fill="#fecbbe"/>
    <path id="Path_46" data-name="Path 46" d="M4573.709,192.941v.4c0,1.072-.258,1.247-1.269.864a1.866,1.866,0,0,1-.868-2.619c.146-.222.3-.321.559-.166a1.474,1.474,0,0,0,.593.289c.925.042,1.187.524.984,1.231" transform="translate(9230.954 -1309.074)" fill="#fecbbe"/>
    <path id="Path_47" data-name="Path 47" d="M4777.844,60.494q3.62,0,7.238,0c.817,0,1.357.4,1.36.994a1.231,1.231,0,0,1-1.353,1.041q-7.238.006-14.475,0a1.327,1.327,0,0,1-.959-.277c-.292-.267-.561-.583-.383-1,.167-.389.406-.757.926-.756.8,0,1.592-.007,2.389-.007q2.629,0,5.257,0" transform="translate(9069.285 -1202.172)"/>
    <path id="Path_48" data-name="Path 48" d="M4777.844,219.675q-3.693,0-7.385,0a1.145,1.145,0,0,1-1.1-.612c-.269-.454.016-.744.174-1.055.218-.431.677-.38,1.083-.38q5.2,0,10.393,0c1.413,0,2.826-.015,4.239.006a1.06,1.06,0,0,1,1.077,1.514c-.232.472-.686.531-1.16.53q-3.658-.006-7.316,0" transform="translate(9069.261 -1330.541)"/>
    <path id="Path_49" data-name="Path 49" d="M4762.749,139.044c2.458,0,4.916,0,7.375,0,.725,0,1.157.338,1.2.893.049.718-.364,1.144-1.162,1.149-1.775.011-3.551,0-5.326,0-3.142,0-6.283-.006-9.423,0a1.086,1.086,0,0,1-1.15-.749,1.04,1.04,0,0,1,.421-1.132c.258-.24.553-.164.833-.165,2.412-.01,4.825-.006,7.238-.006" transform="translate(9081.545 -1266.341)"/>
  </g>
</svg>
