<svg xmlns="http://www.w3.org/2000/svg" width="69.906" height="70" viewBox="0 0 69.906 70">
  <g id="Group_129" data-name="Group 129" transform="translate(-13288.643 1152.906)">
    <path id="Path_50" data-name="Path 50" d="M4231.9,214.806c.344.858-.11,1.373-.775,1.79a35.677,35.677,0,0,1-3.282,2.076,2.44,2.44,0,0,1-.517,3.25c-1.336,1.27-2.6,2.624-3.887,3.941h-1.367a2.2,2.2,0,0,0-.681-1.036q-5.423-5.4-10.831-10.825c-.742-.743-.74-1.236.015-1.993,1.189-1.195,2.385-2.384,3.573-3.581a2.275,2.275,0,0,1,2.55-.607c.265.094.4.149.624-.172,1.1-1.6,2.048-3.295,3.194-4.87.621-.854,1.1-1.851,1.7-2.749a4.586,4.586,0,0,1,1.892-1.831,3.343,3.343,0,0,1,1.744-.07,2.629,2.629,0,0,1,1.849,2.08,10.72,10.72,0,0,1-.345,3.327c-.107.942-.367,1.866-.484,2.807a1.365,1.365,0,0,0,1.842,1.353,13.359,13.359,0,0,0,5.383-4.38,15.315,15.315,0,0,0,2.889-6.683c.276-1.22.621-2.424.949-3.631a3.362,3.362,0,0,1,5.645-1.245,3.442,3.442,0,0,1,.427,2.893c-.059.457-.07.935-.153,1.4a33.286,33.286,0,0,1-2.292,7.513,35.549,35.549,0,0,1-1.709,3.226,23.141,23.141,0,0,1-2.7,4.01c-.746.841-1.4,1.763-2.208,2.552-.479.468-.937.674-1.51.189-.348-.41-.645-.842-.2-1.354s.89-1.02,1.378-1.485a15.939,15.939,0,0,0,2.226-2.615,26.716,26.716,0,0,0,2.061-3.567,17.312,17.312,0,0,0,1.186-2.438c.249-.89.589-1.747.84-2.636a25.21,25.21,0,0,0,1.111-5.754c.045-1.09-.132-1.18-1.238-.788a.714.714,0,0,0-.589.259c-.632.56-.534,1.381-.747,2.08-.805,2.641-1.068,5.449-2.715,7.825a27.982,27.982,0,0,1-2.124,2.779,16.15,16.15,0,0,1-4.023,3.18,4.04,4.04,0,0,1-2.874.761,3.619,3.619,0,0,1-2.933-3.478c.325-1.781.66-3.559.968-5.343a.663.663,0,0,0-.478-.865c-.515-.174-.63.1-.766.452-.257-.016-.309.183-.419.358q-2.3,3.628-4.632,7.243c-.849,1.321-.857,1.322.222,2.392q2.832,2.809,5.673,5.609c.228.251.459.5.682.752.193.221.363.236.639.08a29.552,29.552,0,0,0,3.384-2.191,1.34,1.34,0,0,1,1.843.009m-16.8-4.257c-.716.7-1.412,1.415-2.155,2.08-.364.327-.266.505.028.793,1.252,1.224,2.48,2.473,3.723,3.708q2.611,2.594,5.23,5.18a8.011,8.011,0,0,1,.591.651c.311.425.545.361.886,0,.791-.847,1.606-1.675,2.46-2.457.42-.384.326-.588-.027-.938q-4.575-4.54-9.121-9.111c-.827-.827-.827-.826-1.616.1" transform="translate(9114.428 -1308.769)" fill="#010101"/>
    <path id="Path_51" data-name="Path 51" d="M4034.924,225.864l-4.253-4.318a1.943,1.943,0,0,1-.362-2.593c.241-.4-.122-.388-.232-.449a30.608,30.608,0,0,1-6.913-5.32,32.842,32.842,0,0,1-5.34-7.249,34.9,34.9,0,0,1-3.39-9.45,13.166,13.166,0,0,0-.292-1.658v-2.051a3.079,3.079,0,0,1,1.664-1.874,3.5,3.5,0,0,1,4.2,1.4,18.262,18.262,0,0,1,1.24,4.331,19.186,19.186,0,0,0,2.249,5.815,5.7,5.7,0,0,0,.911,1.151,23.925,23.925,0,0,0,2.748,2.778,20.319,20.319,0,0,0,2.3,1.292,1.4,1.4,0,0,0,1.932-1.121,3.7,3.7,0,0,0-.191-1.525c-.341-1.347-.422-2.734-.746-4.087a2.6,2.6,0,0,1,2.221-2.833,2.838,2.838,0,0,1,3.086,1.494c1.709,2.689,3.473,5.343,5.181,8.033.224.352.426.261.671.174a2.2,2.2,0,0,1,2.44.587c1.215,1.2,2.417,2.417,3.623,3.628.721.724.732,1.249.031,1.952q-2.052,2.056-4.11,4.106c-.454.454-.919.619-1.438.106-.556-.793-.536-.987.163-1.7q1.233-1.254,2.46-2.513a6.623,6.623,0,0,1,.553-.5c.445-.322.39-.576,0-.937-.833-.774-1.635-1.582-2.412-2.411-.35-.373-.55-.416-.943-.019-3.053,3.088-6.134,6.149-9.206,9.219-.742.742-.743.741.108,1.468.727.745,1.471,1.475,2.174,2.243.3.324.459.268.735-.016,1.06-1.09,2.175-2.127,3.206-3.243a1.1,1.1,0,0,1,1.78-.076,1.172,1.172,0,0,1-.331,1.539c-1.286,1.243-2.538,2.521-3.8,3.787a1.155,1.155,0,0,0-.482.829Zm-18.7-32.267a4.28,4.28,0,0,0,.1,1.463,29.531,29.531,0,0,0,1.1,4.755c.182.5.231,1.061.4,1.51.216.574.556,1.157.825,1.737a29.786,29.786,0,0,0,5.012,7.618,30.794,30.794,0,0,0,7.465,6.07.959.959,0,0,0,1.437-.193c2.067-2.11,4.179-4.176,6.274-6.258a3.153,3.153,0,0,1,.461-.49c.382-.265.292-.551.091-.859-1.829-2.8-3.666-5.595-5.483-8.4-.281-.434-.585-.667-1.074-.379a.682.682,0,0,0-.213,1.084,6.958,6.958,0,0,0,.118,1.533,14.171,14.171,0,0,1,.652,3.355,2.908,2.908,0,0,1-1.4,2.882,4.681,4.681,0,0,1-2.253.83c-.257-.434-.71-.106-1.046-.275a17.137,17.137,0,0,1-7.592-7.284,27.271,27.271,0,0,1-2.174-6.644,8.9,8.9,0,0,0-.687-2.335,1.447,1.447,0,0,0-1.621-.53.6.6,0,0,0-.394.813" transform="translate(9274.5 -1308.77)" fill="#010101"/>
    <path id="Path_52" data-name="Path 52" d="M4151.783,8.681a1.574,1.574,0,0,1,1.43.648,3.486,3.486,0,0,0,1.165.733,2.113,2.113,0,0,1,1.293,2.089c-.025,1.047.006,2.1-.009,3.143a2.249,2.249,0,0,1-1.443,2.094,3.07,3.07,0,0,0-1.322,1.1c-.52,1.02-1.155,1.974-1.7,2.984a2.469,2.469,0,0,0-.221,1.287,2.622,2.622,0,0,1-.811,2.388,2.161,2.161,0,0,1-1.33.652c-.154,0-.312-.021-.329.226s-.209.323-.441.318c-.27-.006-.56-.034-.567.371a.148.148,0,0,1-.087.1c-.943.323-1.854,1.087-2.887.2a3.439,3.439,0,0,0-2.693-.729,5.838,5.838,0,0,1-1.093,0,4.2,4.2,0,0,0-2.968.727,1.867,1.867,0,0,1-2.221.045c-.986-.557-1.956-1.162-2.977-1.665a1.81,1.81,0,0,1-1.121-1.814c.24-1.84-.941-3.074-1.631-4.536a3.591,3.591,0,0,0-1.76-1.57,2.053,2.053,0,0,1-1.208-1.985c.03-1.275.012-2.551.014-3.825,0-.06.006-.12.008-.18a1.331,1.331,0,0,1,.8-1.244,5.465,5.465,0,0,0,2.785-2.944c.151-.3.34-.572.514-.855a2.933,2.933,0,0,0,.469-2.032,2.278,2.278,0,0,1,1.3-2.432c.927-.548,1.857-1.091,2.8-1.615a2.465,2.465,0,0,1,2.724.375,2.546,2.546,0,0,0,1.567.462c1.024-.035,2.05-.017,3.075-.006a1.945,1.945,0,0,0,1.06-.31c.9-.528,1.814-1.107,2.923-.447.989.589,2.008,1.129,3,1.7a2.347,2.347,0,0,1,1.181,2.026c.038.635-.02,1.277.046,1.909.044.426-.309.57-.446.859-1.086.307-1.59-.053-1.655-1.209a11.9,11.9,0,0,1,.015-1.359.518.518,0,0,0-.28-.547c-.869-.489-1.677-1.079-2.586-1.507a.6.6,0,0,0-.809.117,9.424,9.424,0,0,1-1.559.692c-1.29.206-2.579.017-3.859.13a3.836,3.836,0,0,1-2.868-.867.683.683,0,0,0-.9-.032A24.241,24.241,0,0,1,4134,3.626a.792.792,0,0,0-.5.9,3.616,3.616,0,0,1-.5,2.53c-.253.365-.424.786-.661,1.163-.852,1.358-1.423,2.968-3.178,3.52-.239.075-.247.346-.246.585.007.956,0,1.912,0,2.868,0,.287.038.508.366.636a4.351,4.351,0,0,1,2.377,2.3c.779,1.6,2.137,2.966,1.841,4.984a.9.9,0,0,0,.657.868,6.207,6.207,0,0,1,1.435.82c.592.451,1.188.829,1.947.093a1.883,1.883,0,0,1,1.348-.623c2.124.142,4.344-.545,6.339.724.349.414.739.318,1.155.112a10.921,10.921,0,0,1,2.138-1.18c.3-.075.437-.353.42-.732a3.853,3.853,0,0,1,.146-1.939c.482-.967,1.039-1.9,1.559-2.846.6-1.088,1.2-2.151,2.547-2.491.313-.079.44-.409.433-.774-.02-.91-.022-1.822,0-2.732a.671.671,0,0,0-.4-.689,5.111,5.111,0,0,1-1.709-1.17c-.623-.8-.55-1.377.269-1.868" transform="translate(9182.382 -1153)" fill="#010101"/>
    <path id="Path_53" data-name="Path 53" d="M4271.946,116.09a5.312,5.312,0,0,1-.112,1.552c-.149.424-.287.953-.7,1.087-1.193.384-1.492,1.47-2.063,2.359a2.129,2.129,0,0,0-.388,1.453,1.8,1.8,0,0,1-1.087,1.886c-.728.407-1.428.864-2.168,1.246a1.371,1.371,0,0,1-1.518-.1c-1.14-.95-2.467-.455-3.71-.569-.316-.029-.453.377-.736.533a2.475,2.475,0,0,1-2.66-.347c-.455-.27-.9-.56-1.363-.812a1.636,1.636,0,0,1-.952-1.619c.153-1.4-.836-2.3-1.366-3.389-.1-.208-.472-.284-.716-.423a1.86,1.86,0,0,1-1.09-1.819c.041-.818.042-1.642,0-2.46a1.492,1.492,0,0,1,.865-1.455,4.537,4.537,0,0,0,2.269-3.867,1.9,1.9,0,0,1,.915-1.59c.621-.369,1.208-.8,1.856-1.121a2.148,2.148,0,0,1,2.51.122,1.209,1.209,0,0,0,.882.251,8,8,0,0,1,1.161,0,3.066,3.066,0,0,0,2.167-.494,1.511,1.511,0,0,1,1.807.031c.654.367,1.3.753,1.955,1.114a1.832,1.832,0,0,1,.989,1.685,4.478,4.478,0,0,0,2.126,3.75,2.37,2.37,0,0,1,1.13,2.324c-.008.2,0,.41,0,.676m-6.677,7.245,0,0c1.264-.468,1.335-.545,1.354-1.759a1.409,1.409,0,0,1,.209-.7c.452-.794.933-1.573,1.376-2.372.2-.358.35-.78.75-.918a1.333,1.333,0,0,0,.945-1.672,3.83,3.83,0,0,1,0-.682c.006-.2-.024-.376-.236-.437a2.905,2.905,0,0,1-1.737-1.755c-.544-1.1-1.5-2.044-1.311-3.44.042-.308-.276-.5-.538-.628a7.968,7.968,0,0,0-.805-.3.886.886,0,0,0-1.234.057,1.64,1.64,0,0,1-1.091.309c-.888,0-1.777.025-2.664-.009a2.342,2.342,0,0,1-1.693-.522c-.155-.153-.309-.061-.491,0-.221.073-.336.271-.573.332a1.3,1.3,0,0,0-1.008,1.453,1.96,1.96,0,0,1-.325,1.136c-.329.529-.6,1.091-.922,1.626-.286.478-.466,1.139-1,1.31-.922.295-.968.917-.9,1.677.023.248,0,.5.005.751,0,.148-.05.312.164.391,1.083.4,1.541,1.384,2.055,2.288.491.865,1.158,1.689.924,2.8-.022.1-.013.283.047.32.547.339,1.1.675,1.67.969.347.178.579-.161.84-.3a2.505,2.505,0,0,1,1.155-.322c.637-.016,1.276.014,1.913-.011a3.653,3.653,0,0,1,2.257.515c.152.1.385.307.594.029.106-.023.245.013.278-.148" transform="translate(9080.67 -1239.735)" fill="#010101"/>
    <path id="Path_54" data-name="Path 54" d="M4047.071,115.817c0-.342.025-.686,0-1.025a1.621,1.621,0,0,1,.974-1.742,2.72,2.72,0,0,0,1.309-1.305,4.477,4.477,0,0,0,.881-2.664,1.475,1.475,0,0,1,.968-1.529,14.713,14.713,0,0,0,2.117-1.192,1.407,1.407,0,0,1,1.581-.031,4.034,4.034,0,0,0,2.7.574,3.011,3.011,0,0,0,1.986-.447,1.8,1.8,0,0,1,1.979.041,21.821,21.821,0,0,1,2.155,1.265,1.529,1.529,0,0,1,.712,1.337,4.664,4.664,0,0,0,2.289,4,1.828,1.828,0,0,1,.934,1.452,12.184,12.184,0,0,1-.041,2.84,1.518,1.518,0,0,1-.917,1.3c-1.13.458-1.379,1.6-1.982,2.465a1.548,1.548,0,0,0-.294,1.072,1.925,1.925,0,0,1-1.187,2.161c-.769.361-1.447.894-2.264,1.193a1.4,1.4,0,0,1-1.379-.16,2.893,2.893,0,0,0-1.879-.534,4.289,4.289,0,0,0-2.862.634,1.337,1.337,0,0,1-1.517-.029c-.716-.433-1.464-.813-2.179-1.248a2.034,2.034,0,0,1-.957-1.786,4.3,4.3,0,0,0-2.05-3.609,1.924,1.924,0,0,1-1.078-1.869c.038-.384.006-.774.006-1.162m13.8,7.558.145-.14,0,.006c.817-.3,1.593-.618,1.375-1.757a1.506,1.506,0,0,1,.316-.938c.454-.82.958-1.612,1.413-2.432.137-.248.292-.522.527-.594.955-.289,1.126-.962,1.011-1.825a3.634,3.634,0,0,1,0-.614.323.323,0,0,0-.233-.36,3.2,3.2,0,0,1-1.734-1.76c-.523-1.113-1.521-2.049-1.312-3.442a.325.325,0,0,0-.184-.338c-.386-.208-.784-.395-1.176-.589l0,0c-.047-.155-.161-.138-.28-.11-.237-.167-.5-.268-.729-.03a2.032,2.032,0,0,1-1.612.5c-.88,0-1.76.011-2.64.017-.13-.2-.274-.33-.494-.1-.152.044-.258-.045-.364-.13-.532-.427-1.048-.555-1.552.052-.058.069-.278.037-.3.1-.143.385-.886.168-.781.736a3.8,3.8,0,0,1-.884,2.734c-.382.622-.575,1.49-1.24,1.791-1.1.5-1.086,1.323-1.016,2.257.014.181.017.362.025.543-.033.092.006.117.092.1,1.18.48,1.662,1.562,2.221,2.578.3.541.847,1.029.767,1.668a1.509,1.509,0,0,0,1.092,1.833,3.369,3.369,0,0,1,.4.232.681.681,0,0,0,.86-.039,1.921,1.921,0,0,1,1.233-.456c1.511.032,3.069-.308,4.49.515a.359.359,0,0,0,.574-.009Z" transform="translate(9247.602 -1239.636)" fill="#010101"/>
    <path id="Path_55" data-name="Path 55" d="M4124.554,314a1.1,1.1,0,0,0-1.78.076c-1.031,1.116-2.146,2.152-3.206,3.242-.276.284-.439.34-.735.016-.7-.768-1.447-1.5-2.174-2.243q4.344-4.373,8.693-8.74a.942.942,0,0,1,1.4.064c.629.586,1.2,1.231,1.8,1.851q-1.23,1.257-2.46,2.513c-.7.711-.719.905-.164,1.7a4.848,4.848,0,0,0-1.379,1.523" transform="translate(9190.717 -1403.059)" fill="#80b3fa"/>
    <path id="Path_56" data-name="Path 56" d="M4233.922,18.167c-.818.491-.892,1.067-.268,1.868a5.11,5.11,0,0,0,1.708,1.17.672.672,0,0,1,.4.689c-.025.91-.022,1.821,0,2.732.008.364-.119.695-.433.774-1.347.34-1.95,1.4-2.547,2.491-.52.949-1.076,1.879-1.56,2.846a3.859,3.859,0,0,0-.144,1.939c.016.379-.116.656-.421.732a10.913,10.913,0,0,0-2.137,1.18c-.417.206-.807.3-1.156-.112a1.292,1.292,0,0,1,.261-.206,1.651,1.651,0,0,0,1.115-1.937,3.135,3.135,0,0,1,.735-2.527,3.324,3.324,0,0,0,.2-.356c.794-1.315,1.287-2.87,3-3.419a1.234,1.234,0,0,0,.71-1.232c.012-1.023.03-2.047-.006-3.068a1.437,1.437,0,0,0-.878-1.4,3.611,3.611,0,0,1-2.025-1.91,8.567,8.567,0,0,0-.92-1.584,4.1,4.1,0,0,1-.816-2.936,1.364,1.364,0,0,0-.858-1.539c-.193-.088-.365-.192-.374-.437a.6.6,0,0,1,.808-.117c.909.428,1.717,1.018,2.587,1.507a.517.517,0,0,1,.279.547,12.013,12.013,0,0,0-.015,1.359c.065,1.156.57,1.516,1.655,1.209a6.791,6.791,0,0,0,1.107,1.744" transform="translate(9100.243 -1162.486)" fill="#61a2f8"/>
    <path id="Path_57" data-name="Path 57" d="M4300.528,223.758a1.34,1.34,0,0,0-1.843-.009,29.528,29.528,0,0,1-3.384,2.191c-.276.156-.446.141-.639-.08-.224-.255-.455-.5-.682-.752a30.994,30.994,0,0,0,12.76-13.22,33.132,33.132,0,0,0,2.944-8.952,1.223,1.223,0,0,0-.267-1.081c1.105-.392,1.283-.3,1.238.788a25.131,25.131,0,0,1-1.111,5.754c-.25.889-.591,1.746-.839,2.636a17.365,17.365,0,0,1-1.186,2.438,26.834,26.834,0,0,1-2.061,3.567,15.943,15.943,0,0,1-2.226,2.615c-.488.466-.938.973-1.379,1.485s-.143.945.205,1.354a7.641,7.641,0,0,0-1.529,1.265" transform="translate(9045.798 -1317.72)" fill="#fecbbe"/>
    <path id="Path_58" data-name="Path 58" d="M4126.2,62.424c0,.06-.005.12-.008.18-.057-.02-.158-.031-.164-.059-.025-.138.077-.132.172-.12" transform="translate(9183.066 -1203.936)" fill="#80b3fa"/>
    <path id="Path_59" data-name="Path 59" d="M4280.3,202.781a1.222,1.222,0,0,1,.266,1.081,33.114,33.114,0,0,1-2.943,8.952,31,31,0,0,1-12.76,13.22q-2.837-2.8-5.673-5.609c-1.079-1.069-1.071-1.071-.222-2.392q2.323-3.617,4.632-7.243c.111-.175.162-.374.42-.358a.264.264,0,0,1,.139.282c-.156.926-.3,1.854-.473,2.777-.182.991-.342,1.967.61,2.7a3.62,3.62,0,0,0,2.933,3.478,4.038,4.038,0,0,0,2.873-.761,16.154,16.154,0,0,0,4.024-3.18,28.157,28.157,0,0,0,2.124-2.779c1.646-2.376,1.91-5.184,2.714-7.825.213-.7.115-1.52.747-2.08a.713.713,0,0,1,.589-.259" transform="translate(9074.913 -1318.646)" fill="#ffddce"/>
    <path id="Path_60" data-name="Path 60" d="M4234.038,311.136q-2.617-2.589-5.231-5.18c-1.243-1.234-2.47-2.483-3.722-3.708-.295-.288-.393-.467-.029-.793.743-.666,1.439-1.384,2.154-2.08a1.012,1.012,0,0,1,.169.112q4.215,4.209,8.425,8.423a1.049,1.049,0,0,1-.013,1.522c-.56.591-1.167,1.137-1.754,1.7" transform="translate(9102.318 -1397.594)" fill="#80b3fa"/>
    <path id="Path_61" data-name="Path 61" d="M4244.724,307.979c.587-.566,1.195-1.112,1.754-1.7a1.049,1.049,0,0,0,.013-1.522q-4.206-4.218-8.425-8.423a1.012,1.012,0,0,0-.169-.112c.79-.924.791-.924,1.617-.1q4.557,4.559,9.121,9.111c.353.35.447.554.027.938-.854.782-1.669,1.611-2.461,2.457-.341.365-.575.429-.886,0a7.829,7.829,0,0,0-.59-.651" transform="translate(9091.632 -1394.438)" fill="#61a2f8"/>
    <path id="Path_62" data-name="Path 62" d="M4287.526,248.169c-.951-.73-.791-1.707-.609-2.7.17-.923.316-1.851.473-2.777a.265.265,0,0,0-.14-.282c.137-.349.252-.626.767-.452a.664.664,0,0,1,.479.865c-.309,1.783-.644,3.562-.969,5.343" transform="translate(9051.683 -1350.628)" fill="#fecbbe"/>
    <path id="Path_63" data-name="Path 63" d="M4038.9,222.846a4.681,4.681,0,0,0,2.253-.83,2.908,2.908,0,0,0,1.4-2.882,14.145,14.145,0,0,0-.652-3.355,6.929,6.929,0,0,1-.118-1.533c.261.015.393.2.518.393,1.454,2.27,2.894,4.55,4.374,6.8a5.624,5.624,0,0,0,1.326,1.85c-2.1,2.082-4.208,4.148-6.274,6.258a.959.959,0,0,1-1.437.193,30.8,30.8,0,0,1-7.465-6.07,29.788,29.788,0,0,1-5.013-7.618c-.269-.581-.608-1.163-.824-1.737-.169-.449-.219-1.012-.4-1.51a29.579,29.579,0,0,1-1.1-4.755,4.268,4.268,0,0,1-.1-1.463c1.086.153,1.375,1.009,1.6,1.877.453,1.727.782,3.491,1.313,5.192a15.8,15.8,0,0,0,8.094,9.512,2.113,2.113,0,0,0,2.5-.325" transform="translate(9265.333 -1321.764)" fill="#ffddce"/>
    <path id="Path_64" data-name="Path 64" d="M4038.893,218.92a2.114,2.114,0,0,1-2.5.325,15.8,15.8,0,0,1-8.094-9.512c-.531-1.7-.861-3.465-1.313-5.192-.227-.867-.517-1.723-1.6-1.877a.6.6,0,0,1,.394-.813,1.447,1.447,0,0,1,1.621.53,8.9,8.9,0,0,1,.687,2.336,27.293,27.293,0,0,0,2.174,6.644,17.142,17.142,0,0,0,7.592,7.284c.336.169.79-.159,1.047.275" transform="translate(9265.342 -1317.838)" fill="#fecbbe"/>
    <path id="Path_65" data-name="Path 65" d="M4125.642,299.586c-.6-.62-1.172-1.265-1.8-1.851a.942.942,0,0,0-1.4-.064q-4.359,4.357-8.693,8.74c-.85-.727-.85-.727-.107-1.468,3.072-3.069,6.152-6.131,9.206-9.219.393-.4.593-.355.943.019.777.829,1.579,1.637,2.411,2.41.388.361.443.615,0,.937a6.623,6.623,0,0,0-.553.5" transform="translate(9193.631 -1394.381)" fill="#61a2f8"/>
    <path id="Path_66" data-name="Path 66" d="M4120.7,252.122a5.645,5.645,0,0,1-1.326-1.85c-1.48-2.253-2.919-4.533-4.374-6.8-.125-.2-.257-.379-.518-.393a.683.683,0,0,1,.213-1.084c.489-.288.792-.055,1.074.379,1.817,2.807,3.654,5.6,5.483,8.4.2.308.291.594-.091.859a3.119,3.119,0,0,0-.461.49" transform="translate(9192.637 -1350.592)" fill="#fecbbe"/>
    <path id="Path_67" data-name="Path 67" d="M4154.551,11.873c.008.245.18.349.374.437a1.365,1.365,0,0,1,.858,1.539,4.1,4.1,0,0,0,.815,2.936,8.5,8.5,0,0,1,.92,1.584,3.609,3.609,0,0,0,2.025,1.91,1.437,1.437,0,0,1,.879,1.4c.035,1.022.017,2.046.006,3.068a1.234,1.234,0,0,1-.711,1.232c-1.709.549-2.2,2.1-3,3.419a3.247,3.247,0,0,1-.2.357,3.138,3.138,0,0,0-.735,2.527,1.65,1.65,0,0,1-1.115,1.937,1.312,1.312,0,0,0-.261.206c-2-1.269-4.214-.582-6.339-.724a1.885,1.885,0,0,0-1.348.623c-.76.736-1.355.359-1.947-.093a6.21,6.21,0,0,0-1.434-.82.9.9,0,0,1-.658-.868c.3-2.018-1.062-3.381-1.841-4.984a4.35,4.35,0,0,0-2.377-2.3c-.328-.128-.366-.349-.365-.636,0-.956,0-1.912,0-2.868,0-.238.007-.51.246-.585,1.755-.552,2.327-2.162,3.178-3.52.237-.377.409-.8.661-1.163a3.619,3.619,0,0,0,.5-2.53.791.791,0,0,1,.5-.9,24.221,24.221,0,0,0,2.181-1.27.684.684,0,0,1,.9.032,3.835,3.835,0,0,0,2.868.868c1.281-.113,2.569.075,3.859-.13a9.45,9.45,0,0,0,1.56-.693m-4.256,5.176a6.038,6.038,0,0,0-6.092,6.081c-.008,3.1,2.222,6.619,7.151,6.189a5.336,5.336,0,0,0,3.575-1.91,7.145,7.145,0,0,0,1.577-5.421c-.141-2.357-3.227-4.936-6.211-4.938" transform="translate(9173.192 -1162.44)" fill="#80b3fa"/>
    <path id="Path_68" data-name="Path 68" d="M4274.1,133.389c-.209.279-.442.072-.593-.029a3.657,3.657,0,0,0-2.258-.515c-.636.025-1.275,0-1.912.011a2.5,2.5,0,0,0-1.155.322c-.261.143-.495.482-.841.3-.572-.294-1.123-.63-1.67-.969-.06-.037-.068-.217-.047-.32.235-1.115-.432-1.939-.923-2.8-.515-.9-.972-1.888-2.055-2.289-.215-.079-.161-.244-.165-.391-.007-.25.018-.5-.006-.751-.071-.759-.025-1.382.9-1.677.537-.172.717-.832,1-1.31.32-.535.594-1.1.922-1.626a1.956,1.956,0,0,0,.325-1.136,1.3,1.3,0,0,1,1.008-1.453c.236-.061.353-.259.573-.332.183-.061.336-.153.491,0a2.345,2.345,0,0,0,1.694.522c.887.034,1.776.012,2.664.009a1.639,1.639,0,0,0,1.091-.309.886.886,0,0,1,1.235-.057,4.184,4.184,0,0,0,.516,2.742c.708.978,1.081,2.217,2.357,2.715a.76.76,0,0,1,.406.8c-.024.637-.024,1.276,0,1.913a1.16,1.16,0,0,1-.754,1.243,1.754,1.754,0,0,0-.869.64c-.876,1.414-2,2.744-1.659,4.6l0,0a.248.248,0,0,0-.278.148m-3.461-12.048a4.513,4.513,0,0,0-4.578,4.579,4.627,4.627,0,0,0,4.626,4.594,4.555,4.555,0,0,0,4.618-4.557,4.481,4.481,0,0,0-4.667-4.616" transform="translate(9071.565 -1249.641)" fill="#80b3fa"/>
    <path id="Path_69" data-name="Path 69" d="M4327.406,134.36c-.341-1.854.783-3.185,1.659-4.6a1.752,1.752,0,0,1,.869-.64,1.16,1.16,0,0,0,.754-1.243c-.023-.637-.023-1.276,0-1.913a.76.76,0,0,0-.406-.8c-1.276-.5-1.649-1.737-2.357-2.715a4.185,4.185,0,0,1-.516-2.742,7.883,7.883,0,0,1,.805.3c.262.128.58.32.538.628-.188,1.4.768,2.338,1.311,3.44a2.91,2.91,0,0,0,1.737,1.755c.213.061.243.24.237.436a3.832,3.832,0,0,0,0,.682,1.333,1.333,0,0,1-.945,1.672c-.4.139-.552.561-.75.918-.443.8-.924,1.578-1.376,2.371a1.4,1.4,0,0,0-.208.7c-.02,1.215-.091,1.292-1.354,1.759" transform="translate(9018.529 -1250.756)" fill="#61a2f8"/>
    <path id="Path_70" data-name="Path 70" d="M4326.188,200.023a.248.248,0,0,1,.278-.148c-.033.161-.171.125-.278.148" transform="translate(9019.475 -1316.276)" fill="#61a2f8"/>
    <path id="Path_71" data-name="Path 71" d="M4069.424,133.288c-1.42-.823-2.979-.484-4.489-.515a1.918,1.918,0,0,0-1.233.456.682.682,0,0,1-.861.039,3.343,3.343,0,0,0-.4-.232,1.509,1.509,0,0,1-1.092-1.834c.08-.639-.469-1.127-.767-1.668-.559-1.016-1.041-2.1-2.221-2.578l-.092-.1c-.008-.181-.012-.362-.025-.543-.07-.933-.079-1.762,1.016-2.257.665-.3.857-1.169,1.24-1.791a3.8,3.8,0,0,0,.884-2.734c-.105-.568.638-.351.781-.736.022-.06.243-.027.3-.1.5-.607,1.02-.479,1.552-.052.105.085.211.174.364.13a.582.582,0,0,0,.494.1c.88-.006,1.76-.014,2.639-.017a2.033,2.033,0,0,0,1.613-.5c.229-.238.492-.137.729.03a.288.288,0,0,0,.28.11l0,0c.2.661-.085,1.433.217,2,.642,1.214,1.047,2.645,2.453,3.308a1.027,1.027,0,0,1,.615,1.1c-.038.657-.029,1.319,0,1.978a.792.792,0,0,1-.458.842,3.9,3.9,0,0,0-1.991,2.218c-.241.478-.7.86-.7,1.443a8.167,8.167,0,0,1-.135,1.756l.005-.006-.145.14,0,0-.574.009m-3.081-12.045a4.525,4.525,0,0,0-4.514,4.585,4.6,4.6,0,0,0,4.645,4.583,4.541,4.541,0,0,0,4.6-4.656,4.481,4.481,0,0,0-4.729-4.513" transform="translate(9238.477 -1249.543)" fill="#80b3fa"/>
    <path id="Path_72" data-name="Path 72" d="M4123.415,134.383a8.165,8.165,0,0,0,.134-1.756c0-.583.46-.965.7-1.443a3.9,3.9,0,0,1,1.991-2.218.793.793,0,0,0,.458-.842c-.027-.658-.036-1.32,0-1.977a1.027,1.027,0,0,0-.615-1.1c-1.406-.663-1.811-2.094-2.453-3.308-.3-.572-.015-1.344-.217-2,.393.195.79.382,1.176.59a.325.325,0,0,1,.184.338c-.209,1.393.788,2.329,1.313,3.442a3.2,3.2,0,0,0,1.733,1.76.324.324,0,0,1,.233.36,3.535,3.535,0,0,0,0,.614c.116.862-.056,1.535-1.011,1.825-.235.071-.39.346-.527.594-.455.82-.959,1.612-1.413,2.432a1.5,1.5,0,0,0-.317.938c.218,1.139-.558,1.454-1.375,1.757" transform="translate(9185.195 -1250.778)" fill="#61a2f8"/>
    <path id="Path_73" data-name="Path 73" d="M4092.445,120.824a.582.582,0,0,1-.494-.1c.219-.227.363-.094.494.1" transform="translate(9210.91 -1251.487)" fill="#61a2f8"/>
    <path id="Path_74" data-name="Path 74" d="M4119.537,200.633l.574-.009a.359.359,0,0,1-.574.009" transform="translate(9188.363 -1316.888)" fill="#61a2f8"/>
    <path id="Path_75" data-name="Path 75" d="M4122.189,119.184a.288.288,0,0,1-.28-.11c.118-.028.232-.045.28.11" transform="translate(9186.425 -1250.224)" fill="#61a2f8"/>
    <path id="Path_76" data-name="Path 76" d="M4122.651,200.013l.145-.14-.145.14" transform="translate(9185.819 -1316.274)" fill="#61a2f8"/>
    <path id="Path_77" data-name="Path 77" d="M4058.449,165.467l.092.1c-.086.017-.125-.009-.092-.1" transform="translate(9238.299 -1288.155)" fill="#61a2f8"/>
    <path id="Path_78" data-name="Path 78" d="M4177.584,41.221c2.984,0,6.07,2.581,6.211,4.938a7.144,7.144,0,0,1-1.577,5.421,5.333,5.333,0,0,1-3.574,1.91c-4.93.43-7.16-3.086-7.151-6.189a6.037,6.037,0,0,1,6.092-6.081m-.043,2.051a3.966,3.966,0,0,0-4,4.029,4.065,4.065,0,0,0,4.228,4.257c2.469-.034,4.133-1.866,4.147-4.775.009-1.767-2.238-3.512-4.378-3.511" transform="translate(9145.903 -1186.612)" fill="#010101"/>
    <path id="Path_79" data-name="Path 79" d="M4286.771,134.745a4.482,4.482,0,0,1,4.667,4.616,4.555,4.555,0,0,1-4.618,4.557,4.628,4.628,0,0,1-4.626-4.594,4.513,4.513,0,0,1,4.578-4.578m.025,2.051a2.521,2.521,0,0,0-2.557,2.526,2.587,2.587,0,0,0,2.548,2.551,2.672,2.672,0,0,0,2.613-2.559,2.485,2.485,0,0,0-2.6-2.518" transform="translate(9055.431 -1263.045)" fill="#010101"/>
    <path id="Path_80" data-name="Path 80" d="M4082.486,134.745a4.481,4.481,0,0,1,4.73,4.513,4.541,4.541,0,0,1-4.6,4.656,4.6,4.6,0,0,1-4.645-4.583,4.524,4.524,0,0,1,4.513-4.585m.013,7.116a2.544,2.544,0,1,0-2.479-2.613,2.507,2.507,0,0,0,2.479,2.613" transform="translate(9222.334 -1263.045)" fill="#010101"/>
  </g>
</svg>
