<svg xmlns="http://www.w3.org/2000/svg" width="77.984" height="70" viewBox="0 0 77.984 70">
  <g id="Group_132" data-name="Group 132" transform="translate(-524 -1712)">
    <path id="Path_81" data-name="Path 81" d="M3522.536,88.758c-.212.908-.525,1.177-1.436,1.18q-3.465.01-6.931,0a3.227,3.227,0,0,1-2.64-2.189c-.034-.1-.034-.195-.155-.22V85.7a4.569,4.569,0,0,1,1.957-2.071,3.972,3.972,0,0,1,1.992-.192c.835.071.957-.249.956-1q-.033-23.958-.017-47.916,0-5.294,0-10.589c0-1.088.333-1.449,1.427-1.451q5.9-.009,11.807,0c1.828,0,3.657,0,5.485,0,1.045,0,1.532.486,1.536,1.513.005,1.346.017,2.692-.008,4.037-.008.419.1.556.538.554q5.6-.027,11.2,0c.488,0,.564-.17.424-.583-.18-.532-.35-1.069-.5-1.609a1.137,1.137,0,0,1,.783-1.472c2.118-.59,4.229-1.2,6.333-1.84,2.555-.778,5.138-1.466,7.709-2.192,1.034-.292,2.062-.61,3.1-.864.92-.223,1.251.011,1.524.949q2.315,7.971,4.627,15.943c.252.87.4,1.774.724,2.616a1.354,1.354,0,0,1-.645,1.811c-.943.038-1.251-.17-1.532-1.056-.2-.634-.414-1.266-.577-1.91-.133-.523-.508-.542-.887-.449-1.052.256-2.092.558-3.138.837-2,.531-3.955,1.189-5.96,1.7-1.564.4-3.075,1.015-4.665,1.347a.479.479,0,0,0-.409.7q.307.952.58,1.914,1.218,4.287,2.428,8.577.683,2.405,1.385,4.8c.543,1.842,1.108,3.679,1.651,5.521a6.017,6.017,0,0,1,.424,1.791,3.714,3.714,0,0,0,.374,1.482c.48,1.212.853,2.466,1.226,3.7s.7,2.483,1.035,3.73c.1.357.243.323.517.244.606-.175,1.2-.375,1.82-.53,2.394-.6,4.746-1.37,7.119-2.058,1.679-.487,3.369-.933,5.047-1.423.341-.1.665-.206.442-.78a19.912,19.912,0,0,1-.774-2.775,30.428,30.428,0,0,1-1.016-3.969,6.668,6.668,0,0,0-.672-1.913c-.5-1.164-.624-2.429-1.027-3.627-.829-2.46-1.459-4.988-2.161-7.49-.213-.762-.307-1.563-.537-2.305-.169-.542-.5-1.07-.616-1.64-.236-1.145-.153-1.515.711-1.856,1.077.073,1.256.236,1.532,1.259.337,1.251.7,2.493,1.053,3.74.67,2.386,1.329,4.776,2.011,7.158.7,2.448,1.43,4.889,2.137,7.335,1.069,3.7,2.1,7.416,3.209,11.1a44.718,44.718,0,0,0,1.374,4.485,1.327,1.327,0,0,1-.947,1.677c-1.25.434-2.524.774-3.81,1.092-1.565.387-3.094.919-4.637,1.388-.25-.095-.365.182-.571.26l.857-.039c3.555.006,7.109,0,10.664.023a3.193,3.193,0,0,1,2.961,1.667,3.292,3.292,0,0,1-2.609,4.866,7.627,7.627,0,0,1-.913.014q-29.328,0-58.656,0c-.816,0-1.135-.475-1.254-1.186a1.26,1.26,0,0,1,1.392-1.1c.354.014.709-.024,1.064-.024l54.915,0c1.015,0,2.031,0,3.046-.029.7-.018,1.211-.441,1.13-.961a1,1,0,0,0-1.147-.929c-.913.026-1.827-.017-2.741-.017q-33.969,0-67.939,0a3.606,3.606,0,0,0-.684.016.915.915,0,0,0-.871.954c0,.672.328.961,1.222.965,2.107.009,4.215,0,6.322.007.891,0,1.141.234,1.316,1.12m27.846-30.967c.357.231.865.308.918.853.058.6.129,1.2.13,1.8q.014,11.12-.007,22.241c0,.562.122.721.7.717,3.859-.029,7.718-.015,11.577-.015h.845l-12.865-44.776-.248.05v.793c0,4.621-.006,9.242.005,13.862a1.532,1.532,0,0,1-1.057,1.619.108.108,0,0,0-.135,0,1.255,1.255,0,0,1-1.118-1.429c.031-2.028-.013-4.058.024-6.087.011-.592-.139-.762-.746-.757q-5.516.041-11.032-.008c-.661-.006-.884.122-.879.845.037,5.072,0,10.145.034,15.217a1.675,1.675,0,0,1-1.083,1.823c-.929-.145-1.231-.472-1.232-1.369q0-10.928,0-21.855c0-.435.039-.743-.6-.74q-7.234.034-14.468-.015c-.526,0-.615.18-.614.651q.018,16.22,0,32.44c0,.483.109.647.623.644q7.234-.039,14.468-.022c.464,0,.606-.115.6-.591-.031-1.624-.017-3.249-.01-4.873,0-1.015.246-1.256,1.231-1.277a1.283,1.283,0,0,1,1.077,1.473c-.03,1.521.013,3.044-.02,4.564-.012.531.075.737.684.731q5.629-.053,11.259-.011c.583,0,.708-.164.705-.722-.023-4.565-.013-9.13-.014-13.694a2.484,2.484,0,0,0-.015-.454,1.241,1.241,0,0,1,1.124-1.638l.065.024Zm-24.95-33.027c-2.081,0-4.161.013-6.241-.01-.477-.005-.662.1-.654.622q.045,3.12,0,6.241c-.006.487.155.592.608.585,1.725-.024,3.45-.009,5.176-.01q4.567,0,9.134,0c.389,0,.772.058.767-.545-.017-2.106-.013-4.212,0-6.318,0-.342-.122-.44-.443-.424-1.314.065-2.614-.2-3.933-.151-1.47.054-2.943.012-4.414.012m42.3,4.648a1.41,1.41,0,0,1-.121-.229c-.6-2.1-1.227-4.189-1.772-6.3-.151-.585-.454-.3-.683-.24q-5.335,1.5-10.661,3.024c-1.118.319-2.233.65-3.353.964-.372.1-.55.255-.39.686.222.6.388,1.215.566,1.827q.618,2.128,1.221,4.26c.115.4.3.549.757.411,3.176-.955,6.359-1.887,9.543-2.816,1.491-.435,2.991-.841,4.479-1.284.146-.044.427-.045.414-.3M3526.4,83.374q3.579,0,7.158,0c.319,0,.666.089.66-.456-.02-1.929-.011-3.859-.005-5.788,0-.287-.1-.409-.4-.407-.756,0-1.514-.114-2.259-.124-4.137-.056-8.275-.017-12.412-.039-.542,0-.618.215-.611.674.025,1.827.041,3.655.012,5.482-.009.553.179.674.7.669,2.385-.025,4.772-.011,7.158-.011m55.377-4.985c-.017-.074-.03-.148-.05-.22-.523-1.806-1.062-3.607-1.561-5.42-.126-.46-.3-.425-.689-.312-2.886.839-5.785,1.637-8.676,2.461q-2.633.75-5.255,1.543c-.237.072-.628.056-.47.572.57,1.863,1.1,3.739,1.635,5.613.111.39.313.424.67.321q6.957-2.005,13.919-3.99c.275-.079.54-.189.477-.567M3542.83,30.87v-.009c-1.9,0-3.806,0-5.709,0-.356,0-.621-.02-.615.493.027,2.156.018,4.314,0,6.47,0,.36.1.477.472.476q5.785-.015,11.57,0c.453,0,.605-.138.6-.612q-.04-3.121,0-6.242c.006-.49-.165-.59-.613-.585-1.9.021-3.806.009-5.709.009m.016,45.719v-.018c-1.854,0-3.708.019-5.561-.012-.565-.009-.8.1-.783.738.053,1.8.049,3.606.022,5.408-.008.535.149.684.682.681q5.637-.033,11.274,0c.558,0,.672-.191.665-.7-.027-1.8-.037-3.606,0-5.408.014-.6-.2-.709-.744-.7-1.853.031-3.707.012-5.561.012m25.138-44.681-.252.072c-1.279.375-2.555.76-3.837,1.125-3.339.95-6.678,1.9-10.024,2.823-.474.131-.5.327-.378.732.258.849.469,1.712.706,2.568.112.4.32.529.771.395,1.9-.565,3.82-1.074,5.726-1.626,2.763-.8,5.517-1.634,8.286-2.411.47-.132.449-.285.327-.663-.287-.887-.555-1.783-.761-2.691-.073-.323-.208-.351-.564-.323m-41.519,2.566v-.007c-2.437,0-4.874.014-7.311-.012-.5-.005-.652.134-.629.633.04.887.032,1.777,0,2.665-.014.43.116.559.552.558q7.273-.02,14.545,0c.467,0,.63-.171.618-.627-.022-.863-.034-1.727,0-2.589.022-.493-.118-.641-.624-.635-2.386.027-4.772.012-7.158.012m16.375,6.1v-.007c-1.927,0-3.854.011-5.78-.009-.411,0-.579.083-.563.535.034.962.023,1.927,0,2.89-.006.341.121.426.443.425q5.856-.012,11.713,0c.4,0,.52-.152.508-.542-.026-.861-.043-1.726,0-2.585.031-.557-.114-.736-.7-.723-1.875.041-3.752.015-5.628.015" transform="translate(-2987.374 1692.053)"/>
    <path id="Path_82" data-name="Path 82" d="M3744.1,114.043c-.864.341-.947.71-.712,1.856.118.57.448,1.1.616,1.64.23.742.324,1.544.537,2.305.7,2.5,1.332,5.03,2.161,7.49.4,1.2.524,2.464,1.027,3.628a6.65,6.65,0,0,1,.673,1.913,30.355,30.355,0,0,0,1.016,3.969,19.912,19.912,0,0,0,.774,2.775c.223.574-.1.68-.442.78-1.678.49-3.368.936-5.047,1.423-2.373.688-4.725,1.457-7.119,2.058-.616.155-1.213.355-1.82.53-.274.079-.421.113-.517-.244-.336-1.247-.663-2.5-1.035-3.73s-.747-2.485-1.227-3.7a3.714,3.714,0,0,1-.374-1.482,6.017,6.017,0,0,0-.423-1.792c-.543-1.842-1.108-3.679-1.651-5.521q-.707-2.4-1.385-4.805-1.218-4.287-2.428-8.577-.273-.962-.58-1.915a.479.479,0,0,1,.409-.7c1.59-.332,3.1-.948,4.665-1.347,2-.511,3.964-1.169,5.96-1.7,1.046-.278,2.086-.58,3.138-.837.379-.093.754-.074.887.449.164.644.377,1.276.578,1.91.281.886.589,1.094,1.532,1.056a14.871,14.871,0,0,1,.787,2.567m-11.425,1.1c-1.049,0-1.409.479-1.126,1.44.063.213.1.433.162.646.9,3.05,1.769,6.109,2.637,9.167,1.078,3.794,2.144,7.592,3.227,11.385a1.25,1.25,0,0,0,1.409.952,1.363,1.363,0,0,0,.827-1.65c-.109-.428-.284-.839-.405-1.264q-1.471-5.159-2.935-10.32-1.37-4.795-2.758-9.583c-.155-.532-.458-.91-1.037-.774m11.283,17.516a3.51,3.51,0,0,0-.068-.52q-2.039-7.141-4.1-14.276a.968.968,0,0,0-.514-.712c-.421-.168-.826-.331-1.26.017a1.275,1.275,0,0,0-.386,1.536c.906,3.15,1.775,6.31,2.678,9.461.474,1.655.986,3.3,1.484,4.947a.959.959,0,0,0,1.2.752c.589-.132,1.072-.455.965-1.2" transform="translate(-3158.365 1621.92)" fill="#d4e16c"/>
    <path id="Path_83" data-name="Path 83" d="M3531.536,345.78c-.175-.886-.425-1.116-1.316-1.12-2.107-.01-4.214,0-6.322-.007-.894,0-1.225-.293-1.222-.965a.915.915,0,0,1,.871-.954,3.625,3.625,0,0,1,.684-.016q33.969,0,67.939,0c.914,0,1.828.044,2.741.018a1,1,0,0,1,1.147.929c.081.52-.43.943-1.131.961-1.015.025-2.03.029-3.045.029l-54.915,0c-.354,0-.71.038-1.064.024a1.259,1.259,0,0,0-1.392,1.1h-2.976" transform="translate(-2996.375 1435.032)" fill="#ff6b81"/>
    <path id="Path_84" data-name="Path 84" d="M3821.965,330.394l-.857.039c.206-.078.32-.355.571-.26l.287.22" transform="translate(-3234.021 1445.03)" fill="#d4e16c"/>
    <path id="Path_85" data-name="Path 85" d="M3563.459,148.143c-.985.021-1.227.262-1.231,1.277-.007,1.625-.021,3.25.01,4.873.009.476-.134.592-.6.591q-7.234-.014-14.468.022c-.514,0-.624-.162-.623-.644q.019-16.22,0-32.44c0-.471.089-.654.615-.651q7.233.04,14.468.015c.637,0,.6.3.6.74q-.01,10.928,0,21.855c0,.9.3,1.224,1.232,1.369v2.993m-12.83-10.063h.012c0,3.708.01,7.417-.009,11.125a1.115,1.115,0,0,0,.875,1.143c.506.2.715-.193,1-.434a1.557,1.557,0,0,0,.409-1.315q0-10.63,0-21.26a1.626,1.626,0,0,0-.238-1.011,1.2,1.2,0,0,0-1.3-.527.947.947,0,0,0-.743,1c-.006.254-.01.508-.01.762q0,5.258,0,10.516m7.549.035c0-2.489.008-4.978,0-7.466,0-.926-.3-1.219-1.14-1.225-.886-.006-1.088.2-1.138,1.191-.008.152,0,.3,0,.457q0,7.009,0,14.018a4.09,4.09,0,0,0,.078.905.99.99,0,0,0,1.45.685,1.179,1.179,0,0,0,.759-1.251c-.012-2.438,0-4.876-.005-7.314" transform="translate(-3015.385 1611.447)" fill="#ff6b81"/>
    <path id="Path_86" data-name="Path 86" d="M3629.568,171.966v-2.993a1.676,1.676,0,0,0,1.083-1.823c-.03-5.072,0-10.145-.034-15.218,0-.724.218-.851.879-.845q5.516.05,11.032.008c.607,0,.757.165.746.757-.037,2.028.007,4.058-.024,6.087a1.256,1.256,0,0,0,1.118,1.429l.057.153v2.541l-.056.154a1.241,1.241,0,0,0-1.124,1.638,2.482,2.482,0,0,1,.015.454c0,4.565-.009,9.13.014,13.694,0,.558-.122.726-.705.722q-5.63-.039-11.259.01c-.609.006-.7-.2-.684-.731.034-1.521-.009-3.043.021-4.564a1.284,1.284,0,0,0-1.078-1.473m6.276-6.9q0,4,0,7.992a.974.974,0,0,0,1.48.9,1.335,1.335,0,0,0,.807-1.424q0-7.688,0-15.376c0-.9-.44-1.453-1.156-1.47s-1.126.512-1.127,1.46q-.006,3.958,0,7.916" transform="translate(-3081.494 1587.624)" fill="#f9d11f"/>
    <path id="Path_87" data-name="Path 87" d="M3553.43,43.528c1.472,0,2.945.042,4.414-.012,1.319-.049,2.619.216,3.933.151.321-.016.445.083.443.424-.013,2.106-.017,4.212,0,6.318,0,.6-.378.545-.767.545q-4.567,0-9.134,0c-1.725,0-3.451-.014-5.176.01-.453.006-.614-.1-.608-.585q.041-3.12,0-6.241c-.008-.524.177-.627.654-.622,2.08.022,4.161.01,6.241.01" transform="translate(-3015.373 1673.29)" fill="#ff6b81"/>
    <path id="Path_88" data-name="Path 88" d="M3721.435,39.465c.014.259-.267.26-.414.3-1.489.443-2.988.848-4.479,1.283-3.184.929-6.367,1.861-9.543,2.816-.458.138-.642-.007-.756-.411q-.6-2.132-1.222-4.26c-.178-.612-.344-1.23-.565-1.827-.16-.431.018-.582.39-.686,1.119-.315,2.234-.645,3.353-.964q5.329-1.519,10.661-3.025c.229-.064.533-.345.684.24.545,2.112,1.173,4.2,1.772,6.3a1.394,1.394,0,0,0,.12.229" transform="translate(-3141.081 1682)" fill="#d4e16c"/>
    <path id="Path_89" data-name="Path 89" d="M3554.414,304.711c-2.386,0-4.772-.014-7.158.011-.516.005-.7-.117-.7-.669.029-1.827.013-3.655-.012-5.482-.006-.459.07-.677.611-.674,4.138.022,8.275-.017,12.413.039.745.01,1.5.128,2.259.124.3,0,.4.12.4.407-.006,1.929-.015,3.859,0,5.788.006.545-.341.456-.66.456q-3.579,0-7.158,0" transform="translate(-3015.384 1470.716)" fill="#56788b"/>
    <path id="Path_90" data-name="Path 90" d="M3791.61,283.324c.063.378-.2.488-.477.567q-6.96,1.995-13.919,3.989c-.357.1-.56.07-.67-.321-.533-1.874-1.064-3.75-1.635-5.613-.158-.515.233-.5.47-.572q2.621-.795,5.255-1.543c2.891-.823,5.79-1.622,8.676-2.461.389-.113.563-.147.689.312.5,1.813,1.038,3.614,1.561,5.42.021.072.034.147.05.22" transform="translate(-3197.202 1487.119)" fill="#56788b"/>
    <path id="Path_91" data-name="Path 91" d="M3641.086,73.524c1.9,0,3.806.012,5.708-.009.449-.005.62.1.614.586q-.041,3.121,0,6.242c.006.474-.147.614-.6.613q-5.785-.019-11.57,0c-.368,0-.474-.116-.472-.476.014-2.157.022-4.314,0-6.47-.006-.513.258-.495.615-.494,1.9.008,3.806,0,5.709,0Z" transform="translate(-3085.631 1649.399)" fill="#f9d11f"/>
    <path id="Path_92" data-name="Path 92" d="M3641.082,297.925c1.854,0,3.708.019,5.561-.012.541-.009.758.1.744.7-.042,1.8-.031,3.606,0,5.408.007.509-.107.7-.665.7q-5.637-.036-11.274,0c-.533,0-.69-.146-.682-.681.026-1.8.031-3.606-.022-5.408-.019-.642.218-.747.782-.738,1.854.031,3.707.011,5.561.011Z" transform="translate(-3085.611 1470.718)" fill="#56788b"/>
    <path id="Path_93" data-name="Path 93" d="M3732.408,78.642c.355-.028.49,0,.564.323.206.908.474,1.8.761,2.691.122.378.143.531-.327.663-2.769.777-5.523,1.612-8.286,2.411-1.906.551-3.825,1.06-5.726,1.626-.451.134-.659.01-.771-.395-.236-.856-.448-1.719-.706-2.568-.123-.405-.1-.6.378-.732,3.346-.922,6.685-1.873,10.024-2.823,1.282-.365,2.558-.749,3.837-1.125l.252-.072" transform="translate(-3151.799 1645.32)" fill="#d4e16c"/>
    <path id="Path_94" data-name="Path 94" d="M3554.412,91.2c2.386,0,4.772.015,7.158-.012.506-.006.646.142.624.635-.039.861-.027,1.726,0,2.589.012.456-.151.629-.618.628q-7.273-.019-14.545,0c-.437,0-.567-.128-.552-.558.03-.887.038-1.778,0-2.665-.022-.5.129-.638.629-.633,2.437.025,4.874.011,7.311.011Z" transform="translate(-3015.322 1635.329)" fill="#d4e16c"/>
    <path id="Path_95" data-name="Path 95" d="M3641.051,121.14c1.876,0,3.752.026,5.627-.015.588-.013.732.166.7.723-.047.859-.03,1.724,0,2.585.011.39-.11.543-.508.542q-5.856-.013-11.712,0c-.322,0-.449-.084-.443-.425.018-.963.03-1.927,0-2.89-.016-.452.152-.539.563-.535,1.927.019,3.853.009,5.78.009Z" transform="translate(-3085.585 1611.484)" fill="#d4e16c"/>
    <path id="Path_96" data-name="Path 96" d="M3702.368,191.642l-.079.156c-.019-.051-.038-.1-.057-.154a.109.109,0,0,1,.135,0" transform="translate(-3139.358 1555.347)" fill="#d4e16c"/>
    <path id="Path_97" data-name="Path 97" d="M3702.292,204.971l.076.158-.067.02-.065-.024.056-.154" transform="translate(-3139.36 1544.715)" fill="#d4e16c"/>
    <path id="Path_98" data-name="Path 98" d="M3753.622,142.879c.58-.136.882.243,1.037.774q1.39,4.788,2.759,9.583,1.474,5.158,2.935,10.32c.122.425.3.836.405,1.264a1.363,1.363,0,0,1-.827,1.65,1.249,1.249,0,0,1-1.409-.952c-1.083-3.793-2.149-7.591-3.227-11.385-.869-3.059-1.738-6.118-2.637-9.168-.063-.213-.1-.433-.162-.646-.284-.961.077-1.439,1.126-1.44" transform="translate(-3179.309 1594.182)"/>
    <path id="Path_99" data-name="Path 99" d="M3788.673,167.614c.107.75-.375,1.073-.965,1.2a.959.959,0,0,1-1.2-.752c-.5-1.648-1.011-3.292-1.485-4.947-.9-3.151-1.771-6.311-2.677-9.461a1.275,1.275,0,0,1,.385-1.536c.435-.348.839-.186,1.261-.017a.969.969,0,0,1,.514.712q2.065,7.133,4.1,14.276a3.576,3.576,0,0,1,.068.52" transform="translate(-3203.079 1586.963)"/>
    <path id="Path_100" data-name="Path 100" d="M3566.579,156.047q0-5.258,0-10.516c0-.254,0-.508.011-.762a.946.946,0,0,1,.743-1,1.2,1.2,0,0,1,1.3.527,1.626,1.626,0,0,1,.238,1.011q0,10.63,0,21.26a1.556,1.556,0,0,1-.408,1.315c-.283.24-.493.63-1,.434a1.115,1.115,0,0,1-.875-1.143c.02-3.708.009-7.417.009-11.125h-.011" transform="translate(-3031.334 1593.479)"/>
    <path id="Path_101" data-name="Path 101" d="M3594.7,170.383c0,2.438-.007,4.876,0,7.314a1.179,1.179,0,0,1-.759,1.251.99.99,0,0,1-1.45-.685,4.061,4.061,0,0,1-.078-.905q-.007-7.009,0-14.018c0-.152-.005-.305,0-.457.05-.986.251-1.2,1.138-1.191.84.006,1.136.3,1.141,1.225.012,2.489,0,4.978,0,7.466" transform="translate(-3051.906 1579.178)"/>
    <path id="Path_102" data-name="Path 102" d="M3660.381,183.048q0-3.958,0-7.916c0-.947.417-1.476,1.128-1.46s1.155.566,1.155,1.47q0,7.688,0,15.376a1.335,1.335,0,0,1-.808,1.424.974.974,0,0,1-1.479-.9q0-4,0-7.992" transform="translate(-3106.03 1569.639)"/>
  </g>
</svg>
