<svg xmlns="http://www.w3.org/2000/svg" width="67.164" height="70.978" viewBox="0 0 67.164 70.978">
  <g id="Group_127" data-name="Group 127" transform="translate(-12295.168 1151.484)">
    <path id="Path_103" data-name="Path 103" d="M3070.267,17.781c1.8-1.805,3.511-3.473,5.168-5.193a3.746,3.746,0,0,1,5.1-.023c2.115,2.089,4.239,4.171,6.3,6.314a3.549,3.549,0,0,1-.288,5.2c-1.743,1.739-3.471,3.493-5.233,5.211a1.524,1.524,0,0,0-.477,1.216q.017,18.011,0,36.023a5.782,5.782,0,0,1-1.844,4.518,5.286,5.286,0,0,1-3.561,1.415c-11.753,0-23.505-.015-35.258.034a5.552,5.552,0,0,1-5.4-4.368,15.308,15.308,0,0,1-.048-3.475c.011-.468-.136-.577-.586-.573-2.809.027-5.62.061-8.428.016a5.463,5.463,0,0,1-4.949-6.011,2.77,2.77,0,0,0-.008-.556q0-18.22-.028-36.441a1.976,1.976,0,0,1,.671-1.564q8.708-8.684,17.39-17.394a1.881,1.881,0,0,1,1.453-.613c7.874.017,15.748-.011,23.622.033a6.45,6.45,0,0,1,4.029.957,5.172,5.172,0,0,1,2.246,3.8c.308,3.633.053,7.274.134,10.911,0,.134,0,.269,0,.563m8.663,8.97q-3.844-3.87-7.686-7.742c-.21-.213-.4-.289-.641-.041-.753.765-1.517,1.52-2.276,2.279,2.683,2.685,5.32,5.325,7.959,7.964a.547.547,0,0,0,.116.069c.235.252.463.51.7.754.971.977.983.985,1.965-.024.51-.525,1.478-1.02,1.406-1.587-.075-.6-.955-1.1-1.485-1.645-.015-.015-.042-.018-.064-.026m-26.188,14.687c-.115-.013-.229-.03-.344-.037-1.174-.071-2.405.252-3.481-.5-.2-.144-.29.066-.39.165-.676.669-1.365,1.326-2.008,2.026a2.817,2.817,0,0,0,.1,3.424l6.35,6.345a2.645,2.645,0,0,0,3.236,0c.713-.7,1.387-1.437,2.131-2.1.313-.278.326-.541.085-.74a1.416,1.416,0,0,1-.426-1.308c.015-.487-.043-.98.015-1.46.074-.614-.182-.707-.732-.706a7.15,7.15,0,0,1-2.451-.2,2.676,2.676,0,0,1-1.989-2.486c-.021-.787-.027-1.576-.041-2.363.031-.066.011-.086-.056-.06m32.493-22.53c-1.759-1.941-3.635-3.771-5.535-5.568a2.452,2.452,0,0,0-3.365-.055c-1.51,1.44-2.952,2.951-4.442,4.412-.244.239-.089.321.054.462.575.572,1.141,1.155,1.725,1.719,2.045,1.975,3.927,4.119,6.13,5.93.264.617.854.953,1.253,1.452.274.342.456.3.752,0,1.361-1.394,2.768-2.744,4.119-4.149a2.283,2.283,0,0,0,.665-2.373,3.707,3.707,0,0,0-1.356-1.831m-40.18,33.359c.169-.1.178-.191-.009-.278q-.025-3.588-.049-7.176c0-.455.13-.894.158-1.352a2.44,2.44,0,0,1,.9-1.481l22.621-22.618a1.2,1.2,0,0,0,.488-.928c-.027-3.787-.008-7.573-.021-11.36a4.756,4.756,0,0,0-.718-2.454c-.951-1.583-2.51-1.957-4.164-1.964-7.783-.03-15.566-.007-23.349-.028-.545,0-.633.162-.631.659q.031,5.958,0,11.917a5.554,5.554,0,0,1-.828,3.256,5.651,5.651,0,0,1-4.983,2.627c-3.9-.072-7.806,0-11.709-.037-.7-.006-.919.134-.918.887q.041,18.05.019,36.1a2.865,2.865,0,0,1,0,.415,3.825,3.825,0,0,0,1.553,3.554,4.6,4.6,0,0,0,3.174.97q19.2-.02,38.4,0a3.651,3.651,0,0,0,1.561-.395,4.508,4.508,0,0,0,2.594-4.426c.013-5.041,0-10.082.009-15.123a5.261,5.261,0,0,0-.233-1.309c-.248.236-.432.4-.609.581q-5.224,5.223-10.437,10.458c-.432.437-1.087.556-1.424,1.027a1.329,1.329,0,0,1-1.209.57c-2.345.008-4.691.019-7.036,0a5.64,5.64,0,0,1-1.657-.2,1.972,1.972,0,0,1-1.5-1.9m34.674-21.1c-.231-.094-.294.034-.367.107q-4.411,4.407-8.823,8.812a.938.938,0,0,0-.268.739c-.076,6.075.147,12.152-.119,18.226a5.286,5.286,0,0,1-5.136,5.038c-4.8.1-9.614.014-14.421.011-4.715,0-9.429.006-14.144-.011-.467,0-.658.087-.629.6.045.787.01,1.579.015,2.368a3.991,3.991,0,0,0,1.559,3.316,4.844,4.844,0,0,0,3.176.987q17.488-.037,34.976-.027a2.309,2.309,0,0,0,.8-.074c2.513-.852,3.338-2.308,3.353-4.839.062-10.1.025-20.2.025-30.305Zm-20.6,16.426h.008c0,.488,0,.975,0,1.462,0,.184-.044.392.152.5.269.147.367-.126.5-.255q8.576-8.561,17.151-17.124c.347-.345.28-.517-.025-.815-1.278-1.25-2.552-2.5-3.786-3.8-.4-.415-.6-.349-.966.02q-6.976,7.01-13.979,13.992c-1.034,1.034-2.052,2.085-3.109,3.1-.425.406-.218.572.172.711a1.682,1.682,0,0,0,.545.056c.813.006,1.625.009,2.438,0,.611,0,.971.21.912.9-.036.415-.007.835-.007,1.253M3053.955,44a.484.484,0,0,0,.465-.209q8.553-8.548,17.109-17.093c.277-.276.294-.433.006-.713-1.165-1.134-2.322-2.278-3.447-3.452-.4-.414-.636-.429-1.055-.009q-8.481,8.521-16.991,17.014c-.139.139-.427.26-.34.471.1.237.38.274.65.269.7-.014,1.394-.011,2.091,0,1.182.013,1.512.342,1.512,1.489ZM3039.179,3.563a2.339,2.339,0,0,0-.84.569q-7.607,7.614-15.217,15.226c-.136.136-.419.248-.318.479s.373.108.567.108q5.643.009,11.287,0a3.926,3.926,0,0,0,1.173-.1,4.288,4.288,0,0,0,3.333-4.358c.055-3.831.015-7.663.015-11.494ZM3049.921,51.7l-3.862-3.862c.018,1.146.2,2.356.142,3.573-.016.313.236.289.444.289,1.132,0,2.265,0,3.276,0" transform="translate(9274.5 -1153)" fill="#0a0d33"/>
    <path id="Path_104" data-name="Path 104" d="M3050.1,57.124a1.974,1.974,0,0,0,1.5,1.9,5.642,5.642,0,0,0,1.657.2c2.345.017,4.691.006,7.036,0a1.329,1.329,0,0,0,1.209-.57c.338-.471.992-.59,1.425-1.027q5.2-5.251,10.437-10.458c.177-.177.361-.346.609-.581a5.269,5.269,0,0,1,.233,1.308c-.007,5.041,0,10.082-.009,15.123a4.508,4.508,0,0,1-2.594,4.426,3.652,3.652,0,0,1-1.561.395q-19.2,0-38.4,0a4.593,4.593,0,0,1-3.174-.97,3.826,3.826,0,0,1-1.553-3.554,2.865,2.865,0,0,0,0-.415q0-18.05-.019-36.1c0-.753.22-.893.918-.887,3.9.034,7.807-.036,11.708.037a5.651,5.651,0,0,0,4.984-2.627,5.552,5.552,0,0,0,.828-3.256q.037-5.958,0-11.917c0-.5.086-.661.631-.659,7.783.021,15.566,0,23.349.028,1.654.006,3.213.381,4.165,1.964a4.753,4.753,0,0,1,.718,2.454c.013,3.787-.006,7.573.021,11.36a1.205,1.205,0,0,1-.488.928q-11.31,11.31-22.622,22.618a2.439,2.439,0,0,0-.9,1.481c-.028.458-.161.9-.158,1.352q.021,3.588.049,7.176c-.156.1-.142.19.009.278m18.11-31.754c.145-.152.428-.147.426-.469,0-.531-.295-.666-.755-.666q-8.6.005-17.2,0a.846.846,0,0,0-.408.034c-.178.111-.447.132-.466.445a.657.657,0,0,0,.316.576c.373.306.773.071,1.168.07q8.392-.013,16.784.012l.072.163.067-.168m-31.234,16.994v-.012c.65,0,1.3.016,1.951,0a3.745,3.745,0,0,0,3.46-2.818,11.549,11.549,0,0,0,.011-5.478,3.671,3.671,0,0,0-2.854-2.74,14.694,14.694,0,0,0-4.38-.068,3.562,3.562,0,0,0-3.455,2.6,13.676,13.676,0,0,0-.127,5.449,3.857,3.857,0,0,0,4,3.077,12.388,12.388,0,0,1,1.392-.008m-.229,16.841c.736,0,1.317.013,1.9,0a4.226,4.226,0,0,0,3.758-2.886,12.945,12.945,0,0,0,.149-4.754,3.61,3.61,0,0,0-2.773-3.266,13.1,13.1,0,0,0-5.6-.053,4.207,4.207,0,0,0-2.761,3.394c0,1.137.068,2.275.029,3.411a4.676,4.676,0,0,0,.811,2.56,3.467,3.467,0,0,0,1.734,1.31,6.526,6.526,0,0,0,2.761.286m14.035-25.825c-1.227,0-2.454-.005-3.682,0-.363,0-.785-.051-.785.519s.4.593.812.593c2.408,0,4.817-.005,7.225,0,.448,0,.861-.145.858-.591,0-.481-.46-.537-.885-.533-1.181.012-2.362,0-3.543,0m3.276-14.154c-1.159,0-2.318.005-3.477,0-.4,0-.776.056-.761.558.015.48.371.563.783.562,2.318-.007,4.636,0,6.955-.005.376,0,.771-.007.754-.548-.016-.511-.375-.567-.775-.566-1.159,0-2.318,0-3.477,0m-4.994,20.551c.717,0,1.434.009,2.151,0a.6.6,0,0,0,.663-.566c0-.345-.3-.543-.673-.543-1.41,0-2.822,0-4.232.005-.334,0-.649.049-.661.514-.012.488.3.583.671.589.693.012,1.387,0,2.082,0m20.274-27.133c-.19.1-.546-.184-.571.279-.022.409.277.28.477.287.267.01.622.076.625-.337s-.356-.13-.531-.229m2.679.571c.263-.016.62.083.639-.327s-.338-.222-.514-.215c-.2.007-.541-.211-.586.235-.041.4.251.289.461.308m-16.719,0c.291,0,.643.059.631-.353-.012-.387-.36-.188-.542-.189-.2,0-.548-.2-.559.262-.01.413.3.235.471.279m-8.255-.571c-.185.106-.538-.188-.579.266-.037.4.255.3.462.3.265,0,.62.085.638-.325s-.342-.15-.522-.243m2.824,0c-.18.133-.584-.225-.614.287-.023.409.286.269.482.279.269.014.613.071.62-.344.006-.349-.307-.147-.488-.222m2.762,0c-.183.117-.537-.2-.589.256-.045.392.231.319.45.314.263-.006.618.091.65-.314s-.334-.16-.511-.256m5.557,0c-.191.1-.547-.183-.571.279-.021.409.279.279.478.286.267.01.622.075.624-.338s-.356-.129-.531-.228m2.8-.014c-.135.178-.555-.221-.582.3-.021.409.286.269.483.279.269.014.613.071.619-.344.006-.349-.307-.147-.52-.235m2.774.014c-.191.1-.547-.183-.57.279-.021.409.279.279.478.286.268.01.622.075.624-.338s-.356-.129-.531-.228m2.766-.018c-.13.175-.51-.2-.549.28-.032.4.25.3.461.3.265,0,.62.086.641-.322s-.339-.155-.553-.262m-34.658,50.908c.263-.016.62.082.639-.327s-.338-.222-.514-.215c-.2.007-.541-.211-.586.235-.04.4.251.289.461.308m8.5-.574c-.187.123-.593-.209-.6.313,0,.359.256.255.438.256.262,0,.615.1.664-.3.052-.425-.319-.179-.5-.27m8.333-.015c-.137.178-.57-.215-.569.328,0,.359.257.255.439.256.262,0,.615.1.664-.3.052-.425-.319-.179-.533-.285m8.4.018c-.18.129-.588-.221-.606.295-.015.411.3.258.49.271.272.018.615.063.611-.351,0-.34-.313-.14-.5-.214m2.664.57c.3,0,.648.041.616-.368-.029-.365-.369-.17-.558-.174s-.553-.189-.542.28c.01.415.323.2.485.262m5.661-.57c-.191.1-.547-.184-.57.28-.02.409.279.278.478.285.268.01.622.074.623-.338s-.357-.129-.532-.227m2.708.567c.282.006.6.044.608-.31.008-.435-.369-.218-.569-.231s-.553-.172-.53.293c.021.416.338.183.49.248m-24.988-.567c-.18.122-.581-.215-.6.3-.01.352.24.266.427.265.289,0,.654.012.67-.372.013-.313-.316-.122-.5-.195m2.647.571c.248-.018.614.015.642-.366.024-.323-.317-.2-.471-.177-.215.034-.594-.242-.625.262-.021.345.22.271.454.281m5.717-.571c-.18.122-.581-.215-.595.3-.01.352.24.266.427.265.289,0,.654.012.67-.372.013-.313-.317-.122-.5-.195m2.758,0c-.19.1-.54-.181-.566.279-.02.338.2.29.406.29.295,0,.662,0,.688-.354.027-.384-.351-.118-.527-.216m-25.062,0c-.179.122-.58-.215-.595.3-.01.352.24.266.427.265.289,0,.654.012.67-.372.013-.313-.316-.122-.5-.195m33.441-.013c-.129.189-.553-.232-.581.3-.018.342.215.283.412.283.292,0,.65.012.684-.36.03-.328-.3-.135-.516-.222m-27.9,0c-.157.15-.577-.2-.565.335.008.361.267.234.445.247.277.02.607-.025.649-.322.057-.406-.328-.149-.528-.261m2.8.015c-.186.1-.531-.183-.577.264-.034.325.167.311.387.31.3,0,.661,0,.7-.34.051-.4-.337-.136-.514-.233m33.457,0c-.186.1-.532-.184-.578.264-.033.323.168.311.387.309.3,0,.661,0,.7-.34.051-.4-.336-.137-.514-.233" transform="translate(9269.452 -1157.858)" fill="#d9defb"/>
    <path id="Path_105" data-name="Path 105" d="M3145.9,160.514v4.947c0,10.1.037,20.2-.025,30.305-.015,2.532-.84,3.988-3.353,4.839a2.311,2.311,0,0,1-.8.074q-17.488.014-34.976.027a4.845,4.845,0,0,1-3.176-.987,3.99,3.99,0,0,1-1.559-3.316c-.005-.79.031-1.581-.015-2.368-.03-.512.162-.6.629-.6,4.714.017,9.429.007,14.144.011,4.807,0,9.616.094,14.421-.011a5.286,5.286,0,0,0,5.136-5.038c.266-6.075.042-12.151.119-18.226a.935.935,0,0,1,.268-.738q4.422-4.4,8.823-8.812c.073-.073.136-.2.367-.107" transform="translate(9208.327 -1282.35)" fill="#bbcdfb"/>
    <path id="Path_106" data-name="Path 106" d="M3208.341,160.1c0-.418-.029-.838.006-1.253.06-.69-.3-.9-.911-.9-.812.006-1.625,0-2.437,0a1.682,1.682,0,0,1-.545-.056c-.39-.14-.6-.306-.172-.711,1.057-1.01,2.075-2.061,3.109-3.1q6.993-6.992,13.979-13.992c.367-.369.571-.435.966-.02,1.234,1.293,2.508,2.547,3.786,3.8.3.3.372.47.025.815q-8.587,8.55-17.15,17.124c-.129.129-.227.4-.5.255-.2-.107-.153-.314-.152-.5,0-.488,0-.975,0-1.462Z" transform="translate(9125.285 -1265.51)" fill="#2196f3"/>
    <path id="Path_107" data-name="Path 107" d="M3180.7,134.4v-2.236c0-1.147-.33-1.476-1.512-1.489-.7-.007-1.394-.01-2.091,0-.27.005-.553-.033-.65-.269-.087-.211.2-.333.34-.472q8.5-8.507,16.991-17.014c.418-.42.658-.405,1.055.009,1.125,1.174,2.282,2.318,3.447,3.452.288.28.271.437-.006.713q-8.562,8.539-17.109,17.093a.484.484,0,0,1-.465.209" transform="translate(9147.758 -1243.406)" fill="#2196f3"/>
    <path id="Path_108" data-name="Path 108" d="M3048.416,12.5v.43c0,3.831.04,7.663-.015,11.494a4.288,4.288,0,0,1-3.333,4.358,3.927,3.927,0,0,1-1.174.1q-5.643.008-11.286,0c-.194,0-.47.111-.567-.108s.182-.343.318-.479q7.6-7.617,15.217-15.226a2.339,2.339,0,0,1,.84-.569" transform="translate(9265.263 -1161.939)" fill="#2196f3"/>
    <path id="Path_109" data-name="Path 109" d="M3302.977,74.4c-2.2-1.811-4.085-3.955-6.131-5.929-.584-.564-1.149-1.147-1.725-1.719-.142-.141-.3-.223-.053-.462,1.49-1.461,2.932-2.972,4.442-4.412a2.452,2.452,0,0,1,3.365.055c1.9,1.8,3.776,3.627,5.535,5.567a4.169,4.169,0,0,1-1.523,3.14c-1.318,1.237-2.548,2.568-3.91,3.76" transform="translate(9051.324 -1201.597)" fill="#ff6b81"/>
    <path id="Path_110" data-name="Path 110" d="M3163.381,213.284c.013.788.02,1.576.041,2.363a2.675,2.675,0,0,0,1.988,2.486,7.148,7.148,0,0,0,2.452.2c.55,0,.806.091.731.706-.058.48,0,.973-.014,1.46a1.419,1.419,0,0,0,.426,1.308c.241.2.227.462-.085.74-.744.662-1.418,1.4-2.131,2.1a2.645,2.645,0,0,1-3.236,0l-6.35-6.345a2.816,2.816,0,0,1-.1-3.424c.643-.7,1.332-1.357,2.008-2.026.1-.1.186-.309.39-.165,1.076.757,2.306.434,3.481.5.115.007.229.024.344.037l.01.048Z" transform="translate(9163.916 -1324.786)" fill="#d9defb"/>
    <path id="Path_111" data-name="Path 111" d="M3284.565,104.825a.549.549,0,0,1-.116-.069c-2.639-2.639-5.277-5.279-7.959-7.964.759-.758,1.522-1.514,2.276-2.279.244-.248.43-.172.641.041q3.84,3.874,7.686,7.743a23.631,23.631,0,0,0-2.527,2.528" transform="translate(9066.337 -1228.546)" fill="#d9defb"/>
    <path id="Path_112" data-name="Path 112" d="M3338.077,101.762c1.362-1.193,2.591-2.524,3.909-3.76a4.171,4.171,0,0,0,1.523-3.14,3.714,3.714,0,0,1,1.356,1.832,2.283,2.283,0,0,1-.666,2.373c-1.35,1.4-2.758,2.754-4.119,4.149-.3.3-.478.341-.752,0-.4-.5-.989-.835-1.253-1.452" transform="translate(9016.224 -1228.956)" fill="#ff6b81"/>
    <path id="Path_113" data-name="Path 113" d="M3319.835,139.5a23.632,23.632,0,0,1,2.528-2.528c.021.008.049.011.063.026.53.543,1.41,1.044,1.485,1.645.071.567-.9,1.062-1.407,1.587-.981,1.009-.993,1-1.965.024-.242-.244-.47-.5-.7-.754" transform="translate(9031.067 -1263.219)" fill="#bbcdfb"/>
    <path id="Path_114" data-name="Path 114" d="M3160.82,254.022c-1.011,0-2.144,0-3.276,0-.208,0-.459.024-.444-.289.061-1.216-.124-2.426-.142-3.573l3.863,3.862" transform="translate(9163.602 -1355.322)" fill="#ff6b81"/>
    <path id="Path_115" data-name="Path 115" d="M3151.046,272.712c-.151-.088-.164-.181-.009-.278.187.087.177.18.009.278" transform="translate(9168.509 -1373.446)" fill="#bbcdfb"/>
    <path id="Path_116" data-name="Path 116" d="M3192.884,215.817l-.046-.013-.01-.048c.068-.025.088-.006.057.061" transform="translate(9134.414 -1327.319)" fill="#bbcdfb"/>
    <path id="Path_117" data-name="Path 117" d="M3056.64,145.571a12.354,12.354,0,0,0-1.393.008,3.858,3.858,0,0,1-4-3.077,13.681,13.681,0,0,1,.127-5.449,3.562,3.562,0,0,1,3.456-2.6,14.7,14.7,0,0,1,4.38.068,3.671,3.671,0,0,1,2.854,2.74,11.549,11.549,0,0,1-.01,5.478,3.746,3.746,0,0,1-3.46,2.818c-.65.019-1.3,0-1.95,0Zm-.185-1.119c.723,0,1.28.008,1.837,0a2.807,2.807,0,0,0,2.844-2.724c.042-1.135.04-2.274,0-3.409a2.668,2.668,0,0,0-2.2-2.651,13.8,13.8,0,0,0-4.08-.093,2.736,2.736,0,0,0-2.61,2.673,30.582,30.582,0,0,0-.006,3.547,2.813,2.813,0,0,0,1.651,2.389c.877.488,1.819.156,2.558.271" transform="translate(9249.79 -1261.064)" fill="#0a0d33"/>
    <path id="Path_118" data-name="Path 118" d="M3056.594,236.014a6.529,6.529,0,0,1-2.762-.286,3.469,3.469,0,0,1-1.735-1.31,4.679,4.679,0,0,1-.811-2.56c.04-1.135-.026-2.274-.028-3.411a4.207,4.207,0,0,1,2.761-3.394,13.1,13.1,0,0,1,5.606.053,3.61,3.61,0,0,1,2.772,3.266,12.951,12.951,0,0,1-.149,4.754,4.226,4.226,0,0,1-3.758,2.886c-.58.016-1.162,0-1.9,0m-.057-1.111c.575,0,.994-.023,1.41,0a3.127,3.127,0,0,0,2.378-.718,2.3,2.3,0,0,0,1.021-1.76c-.142-1.377.187-2.75-.247-4.149-.317-1.024-.7-1.915-1.743-2.145a15.211,15.211,0,0,0-4.564-.1,2.586,2.586,0,0,0-2.31,2.325,28.671,28.671,0,0,0-.082,3.543,2.9,2.9,0,0,0,1.72,2.738c.833.492,1.723.123,2.417.263" transform="translate(9249.608 -1334.666)" fill="#0a0d33"/>
    <path id="Path_119" data-name="Path 119" d="M3168.237,98.516q-8.392-.011-16.784-.012c-.395,0-.795.236-1.168-.07a.657.657,0,0,1-.316-.576c.02-.313.288-.334.466-.445a.843.843,0,0,1,.408-.034q8.6,0,17.2,0c.461,0,.752.135.755.666,0,.321-.281.317-.426.469l-.139.006" transform="translate(9169.289 -1230.999)" fill="#0a0d33"/>
    <path id="Path_120" data-name="Path 120" d="M3135.721,146.462c1.181,0,2.362.008,3.543,0,.424,0,.881.052.885.533,0,.447-.41.593-.858.591-2.408-.01-4.817,0-7.225,0-.416,0-.812-.022-.812-.593s.422-.517.785-.519c1.227-.008,2.455,0,3.682,0" transform="translate(9184.516 -1270.939)" fill="#0a0d33"/>
    <path id="Path_121" data-name="Path 121" d="M3154.3,70.495q1.739,0,3.477,0c.4,0,.759.055.775.565.017.541-.378.548-.753.548-2.318,0-4.636,0-6.954.005-.412,0-.769-.083-.783-.562-.015-.5.356-.561.761-.558,1.159.008,2.318,0,3.477,0" transform="translate(9169.212 -1209.126)" fill="#0a0d33"/>
    <path id="Path_122" data-name="Path 122" d="M3133.982,175.956c-.694,0-1.388.009-2.082,0-.375-.007-.684-.1-.671-.589.012-.465.327-.512.661-.514,1.411-.009,2.822,0,4.232,0,.374,0,.669.2.673.543a.6.6,0,0,1-.663.566c-.717.012-1.434,0-2.151,0" transform="translate(9184.536 -1294.037)" fill="#0a0d33"/>
    <path id="Path_123" data-name="Path 123" d="M3252.333,35.172c.175.1.533-.177.53.229s-.357.346-.625.337c-.2-.007-.5.122-.477-.287.025-.462.381-.18.571-.279" transform="translate(9086.459 -1180.385)" fill="#0a0d33"/>
    <path id="Path_124" data-name="Path 124" d="M3267.182,35.667c-.209-.018-.5.093-.46-.308.045-.445.385-.227.586-.235.176-.006.533-.19.514.215s-.376.312-.64.327" transform="translate(9074.289 -1180.309)" fill="#0a0d33"/>
    <path id="Path_125" data-name="Path 125" d="M3177.411,35.651c-.171-.044-.48.134-.47-.279.011-.463.362-.263.559-.262.182,0,.53-.2.542.189.013.412-.34.349-.63.353" transform="translate(9147.341 -1180.294)" fill="#0a0d33"/>
    <path id="Path_126" data-name="Path 126" d="M3132.615,35.173c.179.093.539-.167.522.243s-.374.327-.638.325c-.208,0-.5.1-.462-.3.041-.454.393-.16.579-.266" transform="translate(9183.883 -1180.387)" fill="#0a0d33"/>
    <path id="Path_127" data-name="Path 127" d="M3147.63,35.174c.181.075.494-.127.489.222-.007.414-.351.357-.62.343-.2-.01-.506.13-.482-.279.029-.512.434-.154.613-.287" transform="translate(9171.691 -1180.388)" fill="#0a0d33"/>
    <path id="Path_128" data-name="Path 128" d="M3162.549,35.166c.177.1.545-.163.511.256s-.387.309-.65.314c-.219,0-.5.077-.45-.314.052-.453.406-.139.589-.256" transform="translate(9159.535 -1180.381)" fill="#0a0d33"/>
    <path id="Path_129" data-name="Path 129" d="M3192.472,35.171c.175.1.533-.177.531.228s-.356.347-.624.337c-.2-.007-.5.123-.478-.286.024-.463.38-.181.571-.279" transform="translate(9135.168 -1180.384)" fill="#0a0d33"/>
    <path id="Path_130" data-name="Path 130" d="M3207.458,35.1c.213.088.526-.114.52.235-.007.414-.35.357-.619.344-.2-.01-.5.13-.483-.279.027-.521.448-.121.582-.3" transform="translate(9122.983 -1180.331)" fill="#0a0d33"/>
    <path id="Path_131" data-name="Path 131" d="M3222.4,35.171c.175.1.532-.177.531.228s-.356.347-.624.337c-.2-.007-.5.123-.478-.286.024-.463.38-.181.57-.279" transform="translate(9110.813 -1180.384)" fill="#0a0d33"/>
    <path id="Path_132" data-name="Path 132" d="M3237.338,35.084c.214.107.573-.147.552.262s-.376.322-.641.322c-.21,0-.493.1-.461-.3.038-.478.419-.1.549-.28" transform="translate(9098.644 -1180.314)" fill="#0a0d33"/>
    <path id="Path_133" data-name="Path 133" d="M3051.683,305.767c-.209-.018-.5.093-.46-.308.045-.445.385-.228.586-.235.176-.006.533-.19.514.215s-.376.312-.64.327" transform="translate(9249.64 -1400.09)" fill="#0a0d33"/>
    <path id="Path_134" data-name="Path 134" d="M3096.727,305.261c.183.091.553-.155.5.27-.048.4-.4.3-.664.3-.182,0-.442.1-.438-.256.006-.522.412-.19.6-.312" transform="translate(9213.099 -1400.158)" fill="#0a0d33"/>
    <path id="Path_135" data-name="Path 135" d="M3141.587,305.178c.215.106.585-.14.534.286-.048.4-.4.3-.664.3-.182,0-.438.1-.439-.256,0-.543.432-.15.569-.328" transform="translate(9176.571 -1400.09)" fill="#0a0d33"/>
    <path id="Path_136" data-name="Path 136" d="M3186.535,305.276c.182.075.492-.126.5.214,0,.414-.339.369-.611.351-.194-.013-.505.14-.49-.271.019-.516.426-.165.606-.294" transform="translate(9140.027 -1400.17)" fill="#0a0d33"/>
    <path id="Path_137" data-name="Path 137" d="M3201.367,305.754c-.162-.057-.475.153-.484-.262-.011-.469.343-.284.542-.28s.529-.191.558.174c.032.409-.316.37-.616.368" transform="translate(9127.86 -1400.078)" fill="#0a0d33"/>
    <path id="Path_138" data-name="Path 138" d="M3231.381,305.271c.176.1.533-.177.532.227s-.355.349-.623.338c-.2-.008-.5.124-.478-.285.022-.464.379-.181.569-.28" transform="translate(9103.506 -1400.164)" fill="#0a0d33"/>
    <path id="Path_139" data-name="Path 139" d="M3246.266,305.773c-.153-.065-.469.168-.49-.248-.023-.465.326-.306.53-.293s.577-.2.569.231c-.006.354-.327.316-.609.31" transform="translate(9091.331 -1400.099)" fill="#0a0d33"/>
    <path id="Path_140" data-name="Path 140" d="M3111.686,305.279c.185.073.513-.118.5.195-.016.383-.38.371-.67.372-.187,0-.437.086-.427-.265.015-.516.416-.179.6-.3" transform="translate(9200.923 -1400.172)" fill="#0a0d33"/>
    <path id="Path_141" data-name="Path 141" d="M3126.508,305.776c-.233-.01-.475.064-.454-.281.031-.5.41-.228.625-.262.154-.024.495-.146.471.177-.028.381-.394.349-.642.366" transform="translate(9188.749 -1400.098)" fill="#0a0d33"/>
    <path id="Path_142" data-name="Path 142" d="M3156.582,305.279c.185.073.514-.118.5.195-.016.383-.38.371-.669.372-.187,0-.437.086-.427-.265.014-.516.415-.179.595-.3" transform="translate(9164.391 -1400.172)" fill="#0a0d33"/>
    <path id="Path_143" data-name="Path 143" d="M3171.509,305.279c.176.1.555-.168.527.216-.026.356-.393.355-.688.354-.2,0-.425.048-.406-.29.026-.46.376-.183.566-.28" transform="translate(9152.223 -1400.172)" fill="#0a0d33"/>
    <path id="Path_144" data-name="Path 144" d="M3036.86,305.279c.185.073.514-.118.5.195-.016.383-.38.371-.67.372-.186,0-.436.086-.426-.265.014-.516.416-.179.595-.3" transform="translate(9261.809 -1400.172)" fill="#0a0d33"/>
    <path id="Path_145" data-name="Path 145" d="M3216.422,305.211c.211.086.546-.106.516.222-.034.372-.392.36-.685.36-.2,0-.429.06-.412-.282.027-.531.451-.11.581-.3" transform="translate(9115.688 -1400.117)" fill="#0a0d33"/>
    <path id="Path_146" data-name="Path 146" d="M3066.755,305.191c.2.112.585-.145.528.261-.042.3-.372.342-.649.322-.178-.013-.437.114-.445-.248-.012-.534.408-.186.565-.335" transform="translate(9237.459 -1400.101)" fill="#0a0d33"/>
    <path id="Path_147" data-name="Path 147" d="M3081.724,305.271c.177.1.564-.163.514.233-.043.337-.408.338-.7.34-.22,0-.421.015-.387-.31.047-.447.392-.159.578-.264" transform="translate(9225.292 -1400.166)" fill="#0a0d33"/>
    <path id="Path_148" data-name="Path 148" d="M3261.308,305.271c.177.1.564-.162.513.233-.043.337-.407.339-.7.34-.219,0-.42.014-.387-.309.046-.448.392-.159.578-.264" transform="translate(9079.165 -1400.166)" fill="#0a0d33"/>
    <path id="Path_149" data-name="Path 149" d="M3248.031,103.488l.139-.006-.067.168-.072-.163" transform="translate(9089.495 -1235.97)" fill="#bbcdfb"/>
    <path id="Path_150" data-name="Path 150" d="M3061.539,149.453c-.738-.114-1.68.217-2.558-.271a2.812,2.812,0,0,1-1.651-2.389,30.582,30.582,0,0,1,.006-3.547,2.736,2.736,0,0,1,2.609-2.673,13.813,13.813,0,0,1,4.08.093,2.667,2.667,0,0,1,2.2,2.651c.038,1.135.04,2.274,0,3.409a2.807,2.807,0,0,1-2.845,2.724c-.556.01-1.113,0-1.837,0m-.229-2.813a1.1,1.1,0,0,0,.253-.131,17.772,17.772,0,0,0,2.249-2.24.425.425,0,0,0-.034-.668.6.6,0,0,0-.867,0,9.949,9.949,0,0,0-.978.982c-.445.546-.84.773-1.323.042a.514.514,0,0,0-.842-.061c-.253.245-.16.56.069.8.366.385.751.753,1.124,1.131a.386.386,0,0,0,.349.145" transform="translate(9244.707 -1266.066)" fill="#5bb674"/>
    <path id="Path_151" data-name="Path 151" d="M3061.451,239.869c-.694-.14-1.583.229-2.417-.263a2.9,2.9,0,0,1-1.72-2.738,28.766,28.766,0,0,1,.082-3.543,2.586,2.586,0,0,1,2.31-2.325,15.213,15.213,0,0,1,4.564.1c1.04.23,1.426,1.121,1.743,2.145.434,1.4.1,2.773.246,4.149a2.3,2.3,0,0,1-1.022,1.76,3.128,3.128,0,0,1-2.378.718c-.416-.028-.835,0-1.41,0m.015-2.936c-.084.022.032.027.089-.029.743-.73,1.493-1.455,2.2-2.215a.5.5,0,0,0-.048-.7.551.551,0,0,0-.757.014c-.311.277-.6.582-.892.877-.7.7-.7.7-1.5.112a.566.566,0,0,0-.809,0,.535.535,0,0,0,.1.751c.3.322.624.621.92.947a.658.658,0,0,0,.7.237" transform="translate(9244.694 -1339.633)" fill="#5bb674"/>
    <path id="Path_152" data-name="Path 152" d="M3071.507,159.508a.385.385,0,0,1-.349-.145c-.373-.379-.758-.746-1.124-1.131-.229-.24-.323-.555-.069-.8a.514.514,0,0,1,.842.061c.483.731.878.5,1.323-.042a9.972,9.972,0,0,1,.978-.982.6.6,0,0,1,.868,0,.425.425,0,0,1,.034.668,17.737,17.737,0,0,1-2.249,2.24,1.108,1.108,0,0,1-.253.131" transform="translate(9234.511 -1278.933)" fill="#0a0d33"/>
    <path id="Path_153" data-name="Path 153" d="M3071.655,249.907a.658.658,0,0,1-.7-.237c-.3-.325-.62-.625-.92-.947a.535.535,0,0,1-.1-.751.566.566,0,0,1,.809,0c.8.59.8.588,1.5-.112.3-.295.581-.6.892-.877a.551.551,0,0,1,.757-.014.5.5,0,0,1,.048.7c-.712.76-1.461,1.485-2.2,2.215-.057.056-.172.051-.089.029" transform="translate(9234.505 -1352.606)" fill="#0a0d33"/>
  </g>
</svg>
