<svg xmlns="http://www.w3.org/2000/svg" width="71.011" height="70.978" viewBox="0 0 71.011 70.978">
  <g id="Group_133" data-name="Group 133" transform="translate(-11792.252 1140.891)">
    <path id="Path_154" data-name="Path 154" d="M2533.588,34.6c-3.911-8.378-.366-15.436,3.6-18.713,6.523-5.385,13.427-4.072,18.044-1.616a13.441,13.441,0,0,1,4.369,3.953,14.43,14.43,0,0,1,2.484,5.092,18.658,18.658,0,0,1,.522,5.8,13.2,13.2,0,0,1-1.678,5.382c.186.162.364.1.524.1,4.14,0,8.281-.008,12.42.017.544,0,.689-.115.686-.676-.027-4.214-.008-8.428-.024-12.642,0-.487.111-.961.1-1.454,0-.277.475-.58.9-.612a1.2,1.2,0,0,1,1.093.514.527.527,0,0,1,.129.254c.047.834.694,1.054,1.308,1.358,3.223,1.592,6.419,3.238,9.657,4.8a1.387,1.387,0,0,1,.611,2.144.491.491,0,0,1-.29.252c-3.535,1.365-7.061,2.752-10.591,4.131a1.726,1.726,0,0,0-.515,1.831c.146.177.371.083.558.084,1.971.007,3.947-.074,5.913.03,1.45.077,2.947.275,3.973,1.515a3.522,3.522,0,0,1,1.16,3.039c-.077.377.213.732.212,1.155q-.031,18.742-.018,37.483a5.089,5.089,0,0,1-3.654,5.2,2.2,2.2,0,0,1-.708.09q-30.941.007-61.881-.024a4.893,4.893,0,0,1-4.448-3.43,5,5,0,0,1-.3-1.761q.016-22.882,0-45.764a5.557,5.557,0,0,1,2.726-4.865,6.163,6.163,0,0,1,7.444.886,6.046,6.046,0,0,1,1.539,3.384,20.483,20.483,0,0,1,.132,2.628c0,.21-.066.451.3.447,1.22-.012,2.441,0,3.7,0m-12.729,45.122a2.249,2.249,0,0,0,1.9,1.008q30.682.018,61.363,0a1.282,1.282,0,0,0,.64-.071,2.787,2.787,0,0,0,1.63-2.759c-.025-5.865-.011-11.73-.011-17.6,0-6.851.01-13.7-.012-20.553,0-.937-.118-1.9-1.163-2.363a2.026,2.026,0,0,0-1.55-.392c-2.117-.081-4.238-.03-6.358-.039-.275,0-.39.065-.387.366.014,1.331.007,2.662,0,3.993,0,.205-.013.411.291.377a3.793,3.793,0,0,1,1.292.149,2.328,2.328,0,0,1,1.827,1.609,21.382,21.382,0,0,1,.136,3.731c.013.329-.034.553.456.611a.911.911,0,0,1,.7,1.088c-.058.437-.228,1-.824,1.036-1.031.057-2.067.051-3.1.053a1.342,1.342,0,0,0-.867.314c-1.377,1.082-2.8,2.112-4.21,3.143-2.387,1.741-4.779,3.475-7.159,5.227a.794.794,0,0,0-.379.688,3.709,3.709,0,0,1-1.129,2.635,3.241,3.241,0,0,1-2.56.927,3.4,3.4,0,0,1-2.7-1.34,4.322,4.322,0,0,1-.693-2.2.8.8,0,0,0-.353-.71c-.694-.474-1.407-.933-2.067-1.446-1.788-1.39-3.676-2.64-5.479-4a1.019,1.019,0,0,0-1.242-.083,3.138,3.138,0,0,1-3.162.009.877.877,0,0,0-1.156.149c-.771.638-1.568,1.246-2.36,1.858q-2.4,1.853-4.8,3.7c-1.207.922-2.416,1.843-3.644,2.737a1.018,1.018,0,0,1-1.57-.3,1.171,1.171,0,0,1,.287-1.641,16.43,16.43,0,0,0,2.251-1.672c.86-.73,1.82-1.319,2.663-2.068.9-.8,1.885-1.5,2.861-2.21.91-.659,1.729-1.429,2.709-2.018a1.5,1.5,0,0,0,.894-1.647,2.878,2.878,0,0,1,1.15-2.745,3.4,3.4,0,0,1,3.226-.668,3.47,3.47,0,0,1,1.317.583,3.6,3.6,0,0,1,1.212,3.137.725.725,0,0,0,.369.7c2.428,1.723,4.865,3.437,7.249,5.219a1.179,1.179,0,0,0,1.49.126,3.212,3.212,0,0,1,3.453.113.844.844,0,0,0,1.135,0c.65-.526,1.377-.963,2.026-1.479,1.4-1.111,2.87-2.111,4.293-3.181.772-.581,1.523-1.176,2.446-1.842-.924,0-1.638-.017-2.35.006a.975.975,0,0,1-.977-.728c-.138-.459-.233-1.184.366-1.349.964-.265.768-.929.768-1.572,0-.616-.02-1.233.007-1.848a3.411,3.411,0,0,1,.1-1.22,2.5,2.5,0,0,1,2.737-1.556c.585.025.74-.146.717-.721-.047-1.181-.032-2.366,0-3.549.009-.4-.124-.485-.5-.484q-7.135.017-14.271.006a.647.647,0,0,0-.591.2,15.038,15.038,0,0,1-7.3,5.031c-.413.133-.849-.034-1.169.2a3.264,3.264,0,0,1-1.851.459,15.592,15.592,0,0,1-7.608-1.162,14.517,14.517,0,0,1-5.719-4.311.981.981,0,0,0-.866-.429c-1.454.031-2.91.051-4.362-.006-.644-.025-.744.184-.743.774q.029,15.9.014,31.8a7.011,7.011,0,0,1-.137,1.447c-.445,2.131-2.594,4.051-4.725,3.877a11.983,11.983,0,0,0-2.181.094,2.865,2.865,0,0,0-1.691,4.784m25.55-39.177c4.772.006,7.947-1.566,10.548-4.4a12.425,12.425,0,0,0,3.3-10.162,13.037,13.037,0,0,0-25.935,2.641c.366,5.636,5.441,12.151,12.09,11.919m-26.283,32.733a7.414,7.414,0,0,1,4.34-.816,2.559,2.559,0,0,0,2.761-2.764q-.029-18.22,0-36.44c0-.428-.3-.807-.207-1.175a2.41,2.41,0,0,0-.755-2.2c-.829-1.048-1.986-1.028-3.187-1.076a3.376,3.376,0,0,0-2.947,2.989q-.006,19.624-.011,39.248v2.236m64.4-46.008-7.561-3.8v6.811l7.561-3.011m-8.81,16.795v.008c-.614,0-1.229.019-1.842-.007-.375-.016-.52.088-.507.489.029.859.029,1.72,0,2.578-.014.411.152.489.515.48.859-.021,1.719-.007,2.579-.007,1.635,0,1.641,0,1.637-1.632,0-.609.192-1.4-.113-1.777-.326-.405-1.149-.085-1.754-.13-.171-.013-.344,0-.516,0m-28.494,4.757a1.133,1.133,0,0,0-1.03,1.19,1.1,1.1,0,0,0,1.1,1.111,1.154,1.154,0,1,0-.071-2.3m15.474,10.7a1.286,1.286,0,0,0-1.271-1.233,1.118,1.118,0,0,0-1.031,1.117,1.1,1.1,0,0,0,1.1,1.191,1.41,1.41,0,0,0,1.2-1.076" transform="translate(9274.5 -1153.02)"/>
    <path id="Path_155" data-name="Path 155" d="M2829.61,29.294c-.74-.018-1.173-.542-1.155-1.476.005-.271-.031-.619.419-.771.316-.107.551-.464.815-.716a1.12,1.12,0,0,1,1.412-.175,1.565,1.565,0,0,1,.715,1.48.412.412,0,0,1-.186.291,9.523,9.523,0,0,0-1.257,1.1.937.937,0,0,1-.764.268" transform="translate(9025.206 -1164.132)"/>
    <path id="Path_156" data-name="Path 156" d="M2778.775,29.44a3.086,3.086,0,0,1-2.093-2.027,1.193,1.193,0,0,1,1.928-.982,6.264,6.264,0,0,1,1.037,1.043,1.076,1.076,0,0,1,.035,1.312,1.348,1.348,0,0,1-.907.654" transform="translate(9066.747 -1164.274)"/>
    <path id="Path_157" data-name="Path 157" d="M2807.477,13.865a2.248,2.248,0,0,1-.146,1.014c-.2.705-.734.842-1.359.762a.921.921,0,0,1-.854-1.052c.005-.418,0-.836,0-1.253-.011-1.054.317-1.105,1.043-1.217a1.3,1.3,0,0,1,1.318,1.181c.016.171,0,.344,0,.565" transform="translate(9043.936 -1153)"/>
    <path id="Path_158" data-name="Path 158" d="M2530.249,180.435a2.865,2.865,0,0,1,1.691-4.785,11.979,11.979,0,0,1,2.181-.094c2.13.174,4.279-1.746,4.725-3.877a7.011,7.011,0,0,0,.137-1.447q0-15.9-.013-31.8c0-.59.1-.8.742-.774,1.452.057,2.908.037,4.362.006a.981.981,0,0,1,.866.428,14.517,14.517,0,0,0,5.719,4.311,15.589,15.589,0,0,0,7.608,1.162,3.265,3.265,0,0,0,1.851-.459c.32-.238.756-.072,1.169-.2a15.037,15.037,0,0,0,7.3-5.031.646.646,0,0,1,.591-.2q7.136,0,14.271-.006c.375,0,.508.085.5.484-.027,1.183-.043,2.367,0,3.549.023.575-.132.746-.717.721a2.5,2.5,0,0,0-2.737,1.556,3.4,3.4,0,0,0-.1,1.22c-.027.615-.006,1.232-.007,1.848,0,.643.2,1.307-.768,1.572-.6.165-.5.89-.366,1.349a.975.975,0,0,0,.977.728c.712-.023,1.426-.006,2.35-.006-.923.667-1.674,1.262-2.446,1.842-1.423,1.07-2.9,2.07-4.293,3.181-.649.516-1.376.952-2.026,1.479a.844.844,0,0,1-1.135,0,3.212,3.212,0,0,0-3.453-.113,1.179,1.179,0,0,1-1.49-.126c-2.385-1.782-4.821-3.5-7.249-5.219a.725.725,0,0,1-.369-.7,3.6,3.6,0,0,0-1.212-3.137,3.463,3.463,0,0,0-1.317-.583,3.4,3.4,0,0,0-3.226.668,2.877,2.877,0,0,0-1.15,2.745,1.506,1.506,0,0,1-.894,1.647c-.979.589-1.8,1.358-2.709,2.018-.976.707-1.962,1.411-2.861,2.21-.842.748-1.8,1.338-2.663,2.068a16.413,16.413,0,0,1-2.251,1.672,1.172,1.172,0,0,0-.287,1.641,1.018,1.018,0,0,0,1.57.3c1.228-.894,2.437-1.815,3.644-2.737q2.407-1.839,4.8-3.7c.792-.613,1.589-1.22,2.36-1.858a.877.877,0,0,1,1.156-.149,3.137,3.137,0,0,0,3.162-.009,1.018,1.018,0,0,1,1.242.084c1.8,1.364,3.691,2.614,5.479,4,.66.513,1.373.972,2.067,1.446a.8.8,0,0,1,.353.71,4.323,4.323,0,0,0,.693,2.2,3.4,3.4,0,0,0,2.7,1.34,3.241,3.241,0,0,0,2.56-.928,3.708,3.708,0,0,0,1.129-2.635.794.794,0,0,1,.379-.688c2.38-1.752,4.772-3.486,7.159-5.227,1.413-1.031,2.833-2.06,4.21-3.143a1.343,1.343,0,0,1,.867-.315c1.034,0,2.069,0,3.1-.053.6-.033.766-.6.824-1.036a.911.911,0,0,0-.7-1.088c-.49-.059-.442-.282-.456-.611a21.31,21.31,0,0,0-.136-3.731,2.328,2.328,0,0,0-1.827-1.609,3.792,3.792,0,0,0-1.292-.149c-.3.034-.291-.172-.29-.377,0-1.331.009-2.662,0-3.993,0-.3.112-.368.387-.366,2.12.009,4.241-.042,6.358.039a2.027,2.027,0,0,1,1.551.392c0,12.764-.036,25.528.021,38.291a3.931,3.931,0,0,1-3.88,3.9q-29.79-.07-59.581-.022c-.3,0-.646-.133-.906.158m13.477-13.187a.964.964,0,0,0,.629,1.124,1.276,1.276,0,0,0,1.307-.181c.74-.517,1.5-1,2.244-1.517a.719.719,0,0,1,.925,0c.73.507,1.483.983,2.218,1.483a1.412,1.412,0,0,0,1.741,0c.726-.5,1.475-.958,2.195-1.463a.744.744,0,0,1,.985.007c.723.515,1.473.994,2.211,1.487a1.41,1.41,0,0,0,1.687-.011c.3-.2.591-.4.892-.592,2.28-1.457,1.346-1.44,3.6-.017.46.29.928.569,1.41.821a1.23,1.23,0,0,0,1.461-.653.984.984,0,0,0-.355-1.361c-1.1-.8-2.215-1.587-3.374-2.3a1.592,1.592,0,0,0-2.029.1c-.63.53-1.406.882-2.062,1.385-.333.255-.5.213-.805-.014-.674-.5-1.4-.924-2.1-1.39a1.435,1.435,0,0,0-2.074-.011c-.709.475-1.456.9-2.13,1.421-.34.263-.5.2-.805-.026-.7-.51-1.438-.954-2.149-1.444a1.5,1.5,0,0,0-1.856-.08c-1.061.721-2.149,1.4-3.192,2.149-.336.24-.747.531-.58,1.079m23.514,5.9c.153-.507-.251-.824-.618-1.083-.994-.7-2.007-1.377-3.047-2.007a1.757,1.757,0,0,0-2.083.035c-.692.5-1.441.917-2.129,1.421a.474.474,0,0,1-.69,0c-.7-.5-1.437-.957-2.156-1.437-.9-.6-1.208-.6-2.081-.016-.709.476-1.448.911-2.133,1.419-.29.215-.444.246-.747.022-.713-.528-1.459-1.015-2.214-1.483-.4-.248-.836-.6-1.338-.319a30.9,30.9,0,0,0-3.967,2.648c-.425.338-.683.793-.3,1.321.368.508.758.9,1.521.574a21.933,21.933,0,0,0,2.58-1.614.819.819,0,0,1,1.046-.009c.707.5,1.444.954,2.159,1.443a1.4,1.4,0,0,0,1.736.012c.724-.5,1.476-.956,2.192-1.464a.743.743,0,0,1,.985-.01c.708.5,1.45.946,2.157,1.442a1.408,1.408,0,0,0,1.793.006c.719-.506,1.467-.97,2.2-1.461a.855.855,0,0,1,1.068,0c.7.5,1.384,1.029,2.11,1.489a1.379,1.379,0,0,0,1.431.151c.47-.229.506-.6.525-1.083m17.871-11.821c0,.489,0,.489.214.738.582.675,1.178.712,2.031-.119.611-.595.963-.528,1.477.058a1.076,1.076,0,0,0,1.7.206c.556-.476.56-.821.074-1.577-.221-.345-.611-.653-.685-.988-.1-.439.511-.635.758-.981a1.373,1.373,0,0,0,.014-1.712,1.237,1.237,0,0,0-1.7,0c-.31.272-.551.819-.909.783-.329-.034-.606-.516-.918-.786a1.338,1.338,0,0,0-1.777-.007,1.078,1.078,0,0,0-.192,1.416,2.926,2.926,0,0,0,.667.685c.511.422.444.815-.083,1.108a1.181,1.181,0,0,0-.666,1.181m-12.93-10.642a1.4,1.4,0,0,0,1.03-.856c.226-.5-.07-.811-.37-1.15-.979-1.1-.866-.877-.058-1.822.569-.664.665-1.2.182-1.721a1.258,1.258,0,0,0-1.862.12c-.808.792-.808.792-1.67.017-.054-.049-.1-.107-.157-.155a1.071,1.071,0,0,0-1.55-.025,1.23,1.23,0,0,0-.074,1.651c.274.338.8.561.8,1s-.53.623-.789.954a1.206,1.206,0,0,0-.163,1.357,1.032,1.032,0,0,0,1.049.632,1.568,1.568,0,0,0,.863-.472c.991-.749.946-.824,1.7.006a1.229,1.229,0,0,0,1.063.463m6.291,20.114v0c.221,0,.442.006.664,0a1.129,1.129,0,0,0,1.228-1.065,1.094,1.094,0,0,0-.828-1.187,3.667,3.667,0,0,0-1.942-.032c-.669.162-.892.684-.74,1.489a.935.935,0,0,0,1.1.794c.172-.008.344,0,.517,0m5.927,0v0c.221,0,.443.006.664,0a1.129,1.129,0,0,0,1.217-1.076,1.1,1.1,0,0,0-.838-1.182,3.624,3.624,0,0,0-1.94-.02c-.667.178-.893.7-.731,1.494a.94.94,0,0,0,1.112.784c.171-.01.344,0,.516,0m5.915,0v0c.222,0,.443.006.664,0a1.129,1.129,0,0,0,1.218-1.075,1.1,1.1,0,0,0-.837-1.182,3.625,3.625,0,0,0-1.941-.021c-.667.177-.894.7-.732,1.493a.939.939,0,0,0,1.111.785c.172-.01.344,0,.516,0" transform="translate(9265.11 -1253.735)" fill="#e4eff8"/>
    <path id="Path_159" data-name="Path 159" d="M2613.528,50.232c-6.649.233-11.724-6.283-12.09-11.919a13.037,13.037,0,0,1,25.935-2.641,12.425,12.425,0,0,1-3.3,10.162c-2.6,2.832-5.776,4.4-10.548,4.4m-.255-17.31c0,1.379,0,2.759,0,4.138a1.413,1.413,0,0,0,.358,1,34.342,34.342,0,0,0,3.525,3.521,1.036,1.036,0,0,0,1.493.06,1.018,1.018,0,0,0,.317-1.516,7.866,7.866,0,0,0-.988-1.081c-.766-.8-1.839-1.46-2.239-2.408-.389-.922-.1-2.132-.1-3.216,0-1.453.01-2.907-.006-4.36a1.271,1.271,0,0,0-1.245-1.327c-.711-.01-1.112.442-1.115,1.275,0,1.305,0,2.611,0,3.916" transform="translate(9207.381 -1162.71)" fill="#ffca28"/>
    <path id="Path_160" data-name="Path 160" d="M2529.763,140.932c0-.809,0-1.523,0-2.236q.005-19.624.011-39.248a3.376,3.376,0,0,1,2.947-2.989c1.2.048,2.358.028,3.187,1.076a2.411,2.411,0,0,1,.756,2.2c-.094.368.207.747.206,1.175q-.028,18.22,0,36.44a2.559,2.559,0,0,1-2.761,2.764,7.413,7.413,0,0,0-4.34.816" transform="translate(9264.863 -1220.676)" fill="#549ad4"/>
    <path id="Path_161" data-name="Path 161" d="M2533.473,182.245c.259-.291.6-.157.905-.158q29.791-.01,59.581.022a3.931,3.931,0,0,0,3.88-3.9c-.056-12.764-.024-25.528-.021-38.292,1.044.463,1.159,1.426,1.162,2.363.023,6.851.012,13.7.012,20.553,0,5.865-.014,11.731.01,17.6a2.786,2.786,0,0,1-1.629,2.759,1.28,1.28,0,0,1-.64.071q-30.682.008-61.363,0a2.249,2.249,0,0,1-1.9-1.008" transform="translate(9261.887 -1255.546)" fill="#c4dcf0"/>
    <path id="Path_162" data-name="Path 162" d="M2824.89,73.274l-7.561,3.011V69.474l7.561,3.8" transform="translate(9034.134 -1199.027)" fill="#ffca28"/>
    <path id="Path_163" data-name="Path 163" d="M2801.47,173.367c.172,0,.344-.011.516,0,.6.045,1.427-.275,1.753.13.3.378.111,1.168.113,1.778,0,1.632,0,1.632-1.636,1.632-.86,0-1.72-.014-2.579.007-.363.009-.529-.069-.515-.48.03-.859.029-1.72,0-2.578-.013-.4.132-.5.507-.489.613.026,1.228.007,1.842.007Z" transform="translate(9048.743 -1282.325)" fill="#549ad4"/>
    <path id="Path_164" data-name="Path 164" d="M2662.659,197.741a1.154,1.154,0,1,1,.071,2.3,1.1,1.1,0,0,1-1.1-1.111,1.133,1.133,0,0,1,1.03-1.19" transform="translate(9159.061 -1301.942)" fill="#ff6b81"/>
    <path id="Path_165" data-name="Path 165" d="M2735.783,246.868a1.41,1.41,0,0,1-1.2,1.076,1.1,1.1,0,0,1-1.1-1.191,1.118,1.118,0,0,1,1.031-1.117,1.286,1.286,0,0,1,1.271,1.233" transform="translate(9101.41 -1340.37)" fill="#ff6b81"/>
    <path id="Path_166" data-name="Path 166" d="M2601.5,273c-.167-.548.244-.839.58-1.079,1.043-.746,2.132-1.428,3.193-2.149a1.5,1.5,0,0,1,1.856.08c.71.491,1.453.934,2.149,1.444.3.221.465.289.806.026.673-.521,1.42-.946,2.129-1.421a1.435,1.435,0,0,1,2.074.011c.7.466,1.422.893,2.1,1.39.308.227.472.27.806.014.656-.5,1.433-.855,2.062-1.385a1.592,1.592,0,0,1,2.029-.1c1.159.711,2.274,1.5,3.374,2.3a.985.985,0,0,1,.355,1.361,1.23,1.23,0,0,1-1.461.653c-.481-.252-.95-.531-1.41-.821-2.257-1.424-1.323-1.441-3.6.017-.3.192-.594.395-.892.592a1.41,1.41,0,0,1-1.687.011c-.739-.494-1.488-.971-2.211-1.487a.745.745,0,0,0-.985-.007c-.72.5-1.469.967-2.195,1.463a1.412,1.412,0,0,1-1.741,0c-.735-.5-1.487-.976-2.218-1.483a.718.718,0,0,0-.925,0c-.741.515-1.5,1-2.244,1.517a1.277,1.277,0,0,1-1.307.181A.963.963,0,0,1,2601.5,273" transform="translate(9207.334 -1359.491)"/>
    <path id="Path_167" data-name="Path 167" d="M2624.464,302.8c-.019.487-.055.854-.526,1.083a1.377,1.377,0,0,1-1.431-.151c-.727-.46-1.41-.988-2.111-1.489a.855.855,0,0,0-1.068,0c-.729.491-1.477.955-2.2,1.461a1.408,1.408,0,0,1-1.793-.006c-.708-.5-1.451-.945-2.158-1.442a.744.744,0,0,0-.985.009c-.716.509-1.469.966-2.192,1.464a1.4,1.4,0,0,1-1.736-.012c-.714-.488-1.452-.944-2.159-1.443a.819.819,0,0,0-1.046.009,21.866,21.866,0,0,1-2.58,1.614c-.764.325-1.153-.066-1.521-.574-.383-.528-.124-.983.3-1.321a30.861,30.861,0,0,1,3.967-2.648c.5-.285.938.071,1.338.319.754.468,1.5.954,2.213,1.483.3.225.458.193.748-.022.685-.507,1.423-.943,2.133-1.419.872-.585,1.181-.585,2.081.016.719.48,1.456.932,2.156,1.437a.474.474,0,0,0,.69,0c.687-.5,1.437-.923,2.129-1.421a1.757,1.757,0,0,1,2.083-.035c1.04.63,2.053,1.306,3.047,2.007.367.259.772.576.619,1.083" transform="translate(9207.887 -1383.389)"/>
    <path id="Path_168" data-name="Path 168" d="M2810.644,238.243a1.179,1.179,0,0,1,.666-1.181c.527-.293.594-.686.083-1.108a2.907,2.907,0,0,1-.667-.685,1.078,1.078,0,0,1,.192-1.416,1.338,1.338,0,0,1,1.777.007c.312.271.589.753.918.786.358.037.6-.511.908-.783a1.238,1.238,0,0,1,1.7.005,1.373,1.373,0,0,1-.014,1.712c-.247.346-.855.543-.758.981.074.335.463.643.685.988.486.756.481,1.1-.074,1.577a1.076,1.076,0,0,1-1.7-.206c-.513-.586-.866-.653-1.476-.058-.853.831-1.449.794-2.031.119-.214-.249-.214-.249-.213-.738" transform="translate(9039.577 -1330.649)"/>
    <path id="Path_169" data-name="Path 169" d="M2726.081,179.578a1.228,1.228,0,0,1-1.062-.463c-.756-.83-.711-.754-1.7-.006a1.569,1.569,0,0,1-.863.472,1.032,1.032,0,0,1-1.05-.632,1.206,1.206,0,0,1,.163-1.357c.259-.331.8-.526.789-.954s-.531-.662-.8-1a1.23,1.23,0,0,1,.074-1.651,1.072,1.072,0,0,1,1.55.025c.055.048.1.106.157.155.862.776.862.775,1.67-.017a1.258,1.258,0,0,1,1.862-.12c.484.52.387,1.057-.181,1.721-.808.945-.921.721.058,1.822.3.338.6.652.37,1.15a1.4,1.4,0,0,1-1.03.856" transform="translate(9111.21 -1282.626)"/>
    <path id="Path_170" data-name="Path 170" d="M2770.7,295.612c-.172,0-.345-.007-.516,0a.935.935,0,0,1-1.1-.794c-.153-.8.071-1.327.74-1.489a3.665,3.665,0,0,1,1.941.032,1.094,1.094,0,0,1,.828,1.187,1.129,1.129,0,0,1-1.228,1.065c-.221.007-.442,0-.664,0Z" transform="translate(9072.881 -1378.546)"/>
    <path id="Path_171" data-name="Path 171" d="M2800.627,295.608c-.172,0-.345-.009-.516,0a.94.94,0,0,1-1.112-.784c-.162-.794.064-1.316.731-1.494a3.622,3.622,0,0,1,1.94.02,1.1,1.1,0,0,1,.838,1.182,1.129,1.129,0,0,1-1.217,1.076c-.221.008-.443,0-.664,0Z" transform="translate(9048.882 -1378.541)"/>
    <path id="Path_172" data-name="Path 172" d="M2830.557,295.608c-.172,0-.345-.009-.516,0a.939.939,0,0,1-1.111-.785c-.162-.794.065-1.316.731-1.493a3.626,3.626,0,0,1,1.941.021,1.1,1.1,0,0,1,.837,1.182,1.129,1.129,0,0,1-1.218,1.075c-.221.007-.442,0-.664,0Z" transform="translate(9024.866 -1378.542)"/>
    <path id="Path_173" data-name="Path 173" d="M2661.443,47.213c0-1.305,0-2.611,0-3.916,0-.833.4-1.285,1.115-1.275a1.271,1.271,0,0,1,1.245,1.327c.016,1.453,0,2.906.005,4.36,0,1.084-.292,2.294.1,3.216.4.948,1.473,1.61,2.239,2.408a7.832,7.832,0,0,1,.988,1.081,1.017,1.017,0,0,1-.316,1.516,1.036,1.036,0,0,1-1.494-.06,34.318,34.318,0,0,1-3.525-3.521,1.414,1.414,0,0,1-.358-1c.006-1.379,0-2.759,0-4.138" transform="translate(9159.211 -1177.001)"/>
  </g>
</svg>
