<svg xmlns="http://www.w3.org/2000/svg" width="70.239" height="70.212" viewBox="0 0 70.239 70.212">
  <g id="Group_125" data-name="Group 125" transform="translate(-11278.228 1153)">
    <path id="Path_174" data-name="Path 174" d="M2073.966.837V38.815a2.376,2.376,0,0,1-2.009.7q-21.7-.028-43.4-.022c-.479,0-.7.044-.695.634.025,7.127.016,14.255.021,21.382,0,.139-.089.312.107.452a11.507,11.507,0,0,1,5.51-4.076.878.878,0,0,0-.086-.171c-1.394-1.454-2.509-3.019-2.112-5.2.014-.078-.049-.166-.063-.252a12.806,12.806,0,0,1,.06-3.209,5.413,5.413,0,0,1,.64-1.579,5.98,5.98,0,0,1,2.246-2.56,6.173,6.173,0,0,1,4.848-.8c1.206.246,2.666.5,3.143,2.049.009.028.072.051.112.056.848.1,1.042.832,1.354,1.429a7.906,7.906,0,0,1,.6,2.919,11.868,11.868,0,0,1-.318,4.107,6.362,6.362,0,0,1-2.074,3.155,12.03,12.03,0,0,1,6.78,6.22c.078-.067.1-.079.112-.1a11.6,11.6,0,0,1,6.471-5.955c.246-.087.28-.194.007-.453a6.116,6.116,0,0,1-2.1-4.329c-.034-1.093-.023-2.187,0-3.281a5.941,5.941,0,0,1,2.037-4.272,6.768,6.768,0,0,1,10.027,1.284,7.253,7.253,0,0,1,1.015,3.608,13.251,13.251,0,0,1-.338,4.173,5.524,5.524,0,0,1-1.6,2.645c-.475.463-.455.582.18.755a4.607,4.607,0,0,1,.826.4,11.335,11.335,0,0,1,5.535,6.032,13.813,13.813,0,0,1,.877,3.8,1.636,1.636,0,0,1-.728,1.859h-.686a1.326,1.326,0,0,1-.707-1.1,12.313,12.313,0,0,0-.277-2.194,9.972,9.972,0,0,0-3.793-5.795,7.844,7.844,0,0,0-2.24-1.254,13.74,13.74,0,0,0-2.673-.532,9.4,9.4,0,0,0-5.116.86,8.8,8.8,0,0,0-2.637,1.768,10.188,10.188,0,0,0-2.83,4.953,7.246,7.246,0,0,0-.141,2.194,1.772,1.772,0,0,1-.844,1.1h-.686a1.326,1.326,0,0,1-.706-1.1,14.463,14.463,0,0,0-.274-2.206,7.245,7.245,0,0,0-1.24-2.858,7.885,7.885,0,0,0-1.984-2.392,9.868,9.868,0,0,0-6.269-2.389,8.71,8.71,0,0,0-4.892,1.214,10.684,10.684,0,0,0-4.912,6.426,7.528,7.528,0,0,0-.137,2.205,1.771,1.771,0,0,1-.844,1.1h-.686a1.325,1.325,0,0,1-.707-1.1,12.325,12.325,0,0,0-.278-2.194,9.016,9.016,0,0,0-1.063-2.684,9.266,9.266,0,0,0-5.567-4.47,10.33,10.33,0,0,0-4.361-.4,9.5,9.5,0,0,0-5.462,2.611,9.694,9.694,0,0,0-2.837,4.946,7.249,7.249,0,0,0-.14,2.194,1.771,1.771,0,0,1-.844,1.1h-.686a1.489,1.489,0,0,1-.7-1.342,11.92,11.92,0,0,1,6.593-10.476c.259-.058.459-.254.748-.27.21-.011.533-.109.547-.308a.762.762,0,0,0-.346-.6c-.238-.161-.453-.387-.785-.311.023-.081.089-.211.061-.237a4.725,4.725,0,0,1-.965-2.014c-.278-.72-.49-1.134-1.346-1.32-1.376-.3-2.1-1.521-2.845-2.606a5.433,5.433,0,0,1-.536-3.25c-.035-4.2-.012-8.4-.01-12.607a5.616,5.616,0,0,1,.122-1.4,7.416,7.416,0,0,1,5.637-5.747,20,20,0,0,1,2.728-.333,6.407,6.407,0,0,1-1.873-4.338c-.053-1.852-.329-3.749.506-5.537a6.712,6.712,0,0,1,4.358-3.923.717.717,0,0,0,.6-.816c-.021-3.723.01-7.446-.025-11.168-.01-1.062.238-1.608,1.584-1.606q26.936.033,53.872,0a1.742,1.742,0,0,1,1.613.837m-53.083,56.1-.956.874a12.583,12.583,0,0,1,5.729,4.385V60.341c.008-.274.022-.547.023-.821q.006-12.578.01-25.157c0-1.148.3-1.443,1.451-1.444,3.223,0,6.446-.023,9.668.015a2.166,2.166,0,0,0,2.072-.886c.972-1.334,2.04-2.6,3.111-3.867.663-.782,1.27-1.626,1.906-2.439a7.508,7.508,0,0,0,1.442-1.964,1.2,1.2,0,0,0-.716-1.687,2.282,2.282,0,0,0-2.455.595,62.349,62.349,0,0,0-4.985,5.886,2.311,2.311,0,0,1-1.968,1.073c-7.611-.044-15.222-.017-22.833-.022a4.491,4.491,0,0,0-1.275.107,5.648,5.648,0,0,0-2.441,1.412,4.96,4.96,0,0,0-1.6,3.14c-.062,4.8-.049,9.6,0,14.394a2.822,2.822,0,0,0,1.452,2.366c.685.421.706.391.706-.415q0-7.472.005-14.943c0-.251-.01-.5.015-.754a1.014,1.014,0,0,1,1.682-.658,1.37,1.37,0,0,1,.507,1.195c-.014,2.925-.005,5.849,0,8.774,0,.4,0,.8,0,1.314a6.355,6.355,0,0,1,4.89-1.535,6.168,6.168,0,0,1,3.975,1.666,6.62,6.62,0,0,1,2.015,4.136A15.96,15.96,0,0,1,2021.9,55a6.931,6.931,0,0,1-1.019,1.932m22.338-38.276q.012-6.333.024-12.665a3.754,3.754,0,0,1,.018-.683.986.986,0,0,1,1.014-.9c.509-.01,1.176.506,1.122.959a10.708,10.708,0,0,0,.048,1.307c-.009,3.857.006,7.713.014,11.57-.008.5,0,1-.031,1.505a.443.443,0,0,0,.324.512c1.576.486,2.39,3.413,1.24,4.937-.825,1.093-1.709,2.141-2.526,3.241-1.38,1.86-2.873,3.636-4.31,5.454a2.494,2.494,0,0,1-2.149,1.257c-2.877-.075-5.758-.025-8.636-.026-1.483,0-1.462,0-1.489,1.492-.009.513.1.689.661.688q21.285-.026,42.57,0c.577,0,.655-.2.652-.7-.018-2.6,0-5.208,0-7.812q0-5.276-.021-10.551c.008-5.095,0-10.189.04-15.284,0-.635-.171-.772-.784-.771q-25.575.026-51.151.014a2.6,2.6,0,0,1-.342,0c-.344-.046-.415.12-.414.433q.014,5.141,0,10.281c0,.286.068.417.38.4a4.248,4.248,0,0,1,1.94.477,6.922,6.922,0,0,1,4.016,4.727c.425,3.154.593,6.259-1.755,8.914,3.758,0,7.457,0,11.155.007a.779.779,0,0,0,.687-.341c.5-.641,1.008-1.269,1.527-1.892.98-1.176,1.938-2.372,2.965-3.506a4.1,4.1,0,0,1,2.734-1.679.507.507,0,0,0,.493-.547c0-.273-.014-.546-.022-.82m-19.738,2.876a6.375,6.375,0,0,0-.19-2.429,4.682,4.682,0,0,0-4.849-3.7,4.586,4.586,0,0,0-4.549,3.176c-.479,1.243-.22,2.55-.274,3.829a4.693,4.693,0,0,0,2.018,4.07,4.871,4.871,0,0,0,6.885-1.131,5.761,5.761,0,0,0,.958-3.813m31.881,30.024a8.822,8.822,0,0,0,.029,2.173,4.526,4.526,0,0,0,4.5,3.342,5.246,5.246,0,0,0,3.812-2.718,10.7,10.7,0,0,0,.391-3.605,4.433,4.433,0,0,0-8.541-1.851,8.567,8.567,0,0,0-.187,2.66m-35.165-.223a4.614,4.614,0,0,0-2.3-4.645,4.356,4.356,0,0,0-6.192,2.09,7.73,7.73,0,0,0-.266,3.131,5.346,5.346,0,0,0,.093,1.884c.771,2.257,2.234,3.26,4.761,3.231a4.685,4.685,0,0,0,3.509-2.68,8.824,8.824,0,0,0,.4-3.01m13.172.081c.008,1.4-.087,2.621.76,3.747a4.293,4.293,0,0,0,4.3,1.85,4.39,4.39,0,0,0,3.294-2.645,8.074,8.074,0,0,0,.419-3.592,4.561,4.561,0,0,0-3.289-4.5,4.4,4.4,0,0,0-5.261,2.64,8.976,8.976,0,0,0-.227,2.5" transform="translate(9274.5 -1153)"/>
    <path id="Path_175" data-name="Path 175" d="M2051.514,378.131h-10.286a1.771,1.771,0,0,0,.844-1.1h8.736a1.325,1.325,0,0,0,.707,1.1" transform="translate(9243.874 -1460.919)" fill="#fff"/>
    <path id="Path_176" data-name="Path 176" d="M2290.935,378.131h-10.286a1.771,1.771,0,0,0,.844-1.1h8.736a1.325,1.325,0,0,0,.707,1.1" transform="translate(9048.342 -1460.919)" fill="#fff"/>
    <path id="Path_177" data-name="Path 177" d="M2170.813,378.131h-9.875a1.771,1.771,0,0,0,.844-1.1h8.736a3.238,3.238,0,0,0,.3,1.1" transform="translate(9146.108 -1460.919)" fill="#fff"/>
    <path id="Path_178" data-name="Path 178" d="M2213.494,363.444a3.232,3.232,0,0,1-.295-1.1q0-1.1,0-2.206c.171-.8.583-1.192,1.181-1.069a1.31,1.31,0,0,1,1.051,1.069q0,1.1,0,2.205a1.77,1.77,0,0,1-.844,1.1Z" transform="translate(9103.427 -1446.232)"/>
    <path id="Path_179" data-name="Path 179" d="M2333.6,363.421a1.324,1.324,0,0,1-.707-1.1q0-1.1,0-2.194c.164-.807.581-1.212,1.187-1.086a1.312,1.312,0,0,1,1.054,1.086q0,1.1,0,2.194a1.77,1.77,0,0,1-.844,1.1Z" transform="translate(9005.672 -1446.209)"/>
    <path id="Path_180" data-name="Path 180" d="M2155.579,362.348a1.771,1.771,0,0,1-.844,1.1h-.686a1.325,1.325,0,0,1-.707-1.1q0-1.1,0-2.206c.172-.8.583-1.192,1.181-1.069a1.31,1.31,0,0,1,1.051,1.069q0,1.1,0,2.205" transform="translate(9152.311 -1446.233)"/>
    <path id="Path_181" data-name="Path 181" d="M2094.185,363.421a1.325,1.325,0,0,1-.707-1.1l0-2.194c.164-.807.58-1.212,1.187-1.086a1.313,1.313,0,0,1,1.054,1.086l0,2.194a1.771,1.771,0,0,1-.844,1.1Z" transform="translate(9201.203 -1446.209)"/>
    <path id="Path_182" data-name="Path 182" d="M2035.858,362.324a1.771,1.771,0,0,1-.844,1.1h-.686a1.325,1.325,0,0,1-.706-1.1q0-1.1,0-2.194c.164-.807.58-1.212,1.187-1.086a1.312,1.312,0,0,1,1.054,1.086q0,1.1,0,2.194" transform="translate(9250.087 -1446.209)"/>
    <path id="Path_183" data-name="Path 183" d="M2275.279,362.324a1.771,1.771,0,0,1-.844,1.1h-.686a1.326,1.326,0,0,1-.707-1.1q0-1.1,0-2.194c.164-.807.58-1.212,1.187-1.086a1.312,1.312,0,0,1,1.054,1.086q0,1.1,0,2.194" transform="translate(9054.555 -1446.209)"/>
    <path id="Path_184" data-name="Path 184" d="M2015.394,377.035a1.325,1.325,0,0,0,.706,1.1h-4.8a1.77,1.77,0,0,0,.844-1.1h3.25" transform="translate(9268.315 -1460.92)" fill="#fff"/>
    <path id="Path_185" data-name="Path 185" d="M2101.083,378.131a1.77,1.77,0,0,0,.844-1.1h3.25a1.325,1.325,0,0,0,.707,1.1Z" transform="translate(9194.991 -1460.919)" fill="#fff"/>
    <path id="Path_186" data-name="Path 186" d="M2135.1,377.035a1.325,1.325,0,0,0,.706,1.1h-4.8a1.77,1.77,0,0,0,.844-1.1h3.25" transform="translate(9170.55 -1460.92)" fill="#fff"/>
    <path id="Path_187" data-name="Path 187" d="M2220.793,378.131a1.771,1.771,0,0,0,.844-1.1h3.25a1.326,1.326,0,0,0,.707,1.1Z" transform="translate(9097.226 -1460.919)" fill="#fff"/>
    <path id="Path_188" data-name="Path 188" d="M2254.814,377.035a1.325,1.325,0,0,0,.707,1.1h-4.8a1.771,1.771,0,0,0,.844-1.1h3.25" transform="translate(9072.784 -1460.92)" fill="#fff"/>
    <path id="Path_189" data-name="Path 189" d="M2340.5,378.131a1.771,1.771,0,0,0,.844-1.1h3.25a1.326,1.326,0,0,0,.707,1.1Z" transform="translate(8999.459 -1460.919)" fill="#fff"/>
    <path id="Path_190" data-name="Path 190" d="M2093.916,28.293a6.923,6.923,0,0,0-4.016-4.727,4.252,4.252,0,0,0-1.94-.477c-.312.019-.381-.112-.38-.4q.01-5.141,0-10.281c0-.313.07-.479.414-.433a2.606,2.606,0,0,0,.343,0q25.575,0,51.151-.014c.613,0,.788.136.783.771-.037,5.094-.032,10.189-.041,15.284H2113.94c-.008-3.857-.023-7.713-.014-11.57a10.78,10.78,0,0,1-.048-1.307c.054-.454-.614-.969-1.123-.959a.986.986,0,0,0-1.014.9,3.743,3.743,0,0,0-.018.683q-.013,6.333-.024,12.665c-3.492,0-6.984.027-10.476-.007a66.21,66.21,0,0,1-7.308-.13" transform="translate(9206.021 -1162.771)" fill="#7fc7a4"/>
    <path id="Path_191" data-name="Path 191" d="M2153.087,99.546h26.287q.011,5.276.021,10.551c0,2.6-.02,5.208,0,7.812,0,.5-.074.7-.652.7q-21.285-.028-42.57,0c-.564,0-.67-.175-.661-.688.026-1.493.005-1.492,1.489-1.492,2.879,0,5.76-.049,8.636.026a2.494,2.494,0,0,0,2.149-1.257c1.437-1.818,2.93-3.594,4.31-5.454.817-1.1,1.7-2.148,2.526-3.241,1.15-1.523.335-4.45-1.24-4.937a.442.442,0,0,1-.324-.512c.032-.5.023-1,.031-1.505" transform="translate(9166.875 -1234.298)" fill="#72be98"/>
    <path id="Path_192" data-name="Path 192" d="M2035.559,154.752a6.93,6.93,0,0,0,1.018-1.932,15.954,15.954,0,0,0,.407-5.179,6.618,6.618,0,0,0-2.015-4.136,6.167,6.167,0,0,0-3.975-1.666,6.355,6.355,0,0,0-4.89,1.535c0-.516,0-.915,0-1.314,0-2.925-.009-5.849,0-8.774a1.369,1.369,0,0,0-.507-1.195,1.014,1.014,0,0,0-1.682.658c-.025.249-.015.5-.015.753q0,7.472-.005,14.943c0,.806-.021.836-.707.415a2.822,2.822,0,0,1-1.452-2.366c-.052-4.8-.064-9.6,0-14.394a4.959,4.959,0,0,1,1.6-3.14,5.647,5.647,0,0,1,2.441-1.412,4.479,4.479,0,0,1,1.275-.107c7.611.005,15.223-.022,22.834.022a2.31,2.31,0,0,0,1.968-1.072,62.387,62.387,0,0,1,4.985-5.887,2.283,2.283,0,0,1,2.455-.595,1.2,1.2,0,0,1,.716,1.687,7.514,7.514,0,0,1-1.442,1.964c-.636.813-1.243,1.657-1.906,2.439-1.071,1.263-2.139,2.532-3.111,3.867a2.166,2.166,0,0,1-2.073.885c-3.222-.038-6.445-.016-9.668-.015-1.152,0-1.45.3-1.451,1.444q-.006,12.578-.01,25.157c0,.273-.015.547-.023.821a14.334,14.334,0,0,0-4.772-3.406" transform="translate(9259.824 -1250.817)" fill="#b2c8e3"/>
    <path id="Path_193" data-name="Path 193" d="M2114.337,101.041a66.209,66.209,0,0,0,7.308.13c3.492.035,6.984.008,10.476.007.008.273.026.547.021.82a.507.507,0,0,1-.493.547,4.1,4.1,0,0,0-2.734,1.679c-1.027,1.133-1.985,2.33-2.965,3.506-.519.622-1.031,1.251-1.527,1.892a.778.778,0,0,1-.687.341c-3.7-.01-7.4-.006-11.156-.006,2.348-2.655,2.18-5.76,1.756-8.914" transform="translate(9185.601 -1235.519)" fill="#72be98"/>
    <path id="Path_194" data-name="Path 194" d="M2022.017,331.039a1.313,1.313,0,0,0-1.054-1.086c-.606-.126-1.022.279-1.187,1.086h-3.108a9.692,9.692,0,0,1,2.837-4.946,9.5,9.5,0,0,1,5.462-2.611,10.327,10.327,0,0,1,4.361.4,9.265,9.265,0,0,1,5.567,4.47,9.019,9.019,0,0,1,1.063,2.684h-2.97a1.313,1.313,0,0,0-1.054-1.086c-.606-.126-1.022.279-1.187,1.086h-8.732" transform="translate(9263.931 -1417.117)" fill="#fff"/>
    <path id="Path_195" data-name="Path 195" d="M2261.438,331.028a1.313,1.313,0,0,0-1.054-1.086c-.606-.126-1.022.279-1.187,1.086h-3.108a10.188,10.188,0,0,1,2.83-4.953,8.8,8.8,0,0,1,2.637-1.768,9.4,9.4,0,0,1,5.116-.86,13.754,13.754,0,0,1,2.673.532,7.845,7.845,0,0,1,2.24,1.254,9.973,9.973,0,0,1,3.793,5.794h-2.97a1.313,1.313,0,0,0-1.053-1.086c-.606-.126-1.023.279-1.187,1.086h-8.731" transform="translate(9068.398 -1417.106)" fill="#fff"/>
    <path id="Path_196" data-name="Path 196" d="M2067.462,90.155a5.761,5.761,0,0,1-.958,3.813,4.871,4.871,0,0,1-6.885,1.131,4.694,4.694,0,0,1-2.018-4.07c.054-1.279-.205-2.586.274-3.829a4.585,4.585,0,0,1,4.549-3.176,4.682,4.682,0,0,1,4.849,3.7,6.377,6.377,0,0,1,.19,2.429" transform="translate(9230.521 -1221.619)" fill="#f9d4c4"/>
    <path id="Path_197" data-name="Path 197" d="M2285.156,257a8.559,8.559,0,0,1,.187-2.66,4.433,4.433,0,0,1,8.541,1.851,10.722,10.722,0,0,1-.39,3.605,5.247,5.247,0,0,1-3.812,2.718,4.525,4.525,0,0,1-4.5-3.342,8.81,8.81,0,0,1-.029-2.173" transform="translate(9044.708 -1358.437)" fill="#f9d4c4"/>
    <path id="Path_198" data-name="Path 198" d="M2054.388,256.71a8.815,8.815,0,0,1-.4,3.01,4.685,4.685,0,0,1-3.509,2.68c-2.527.029-3.99-.974-4.761-3.231a5.346,5.346,0,0,1-.093-1.884,7.728,7.728,0,0,1,.266-3.131,4.356,4.356,0,0,1,6.192-2.09,4.614,4.614,0,0,1,2.3,4.645" transform="translate(9240.313 -1358.374)" fill="#f9d4c4"/>
    <path id="Path_199" data-name="Path 199" d="M2165.441,256.828a8.985,8.985,0,0,1,.227-2.5,4.4,4.4,0,0,1,5.261-2.64,4.561,4.561,0,0,1,3.289,4.5,8.076,8.076,0,0,1-.419,3.592,4.389,4.389,0,0,1-3.294,2.645,4.293,4.293,0,0,1-4.3-1.85c-.847-1.126-.751-2.342-.76-3.747" transform="translate(9142.431 -1358.41)" fill="#f9d4c4"/>
    <path id="Path_200" data-name="Path 200" d="M2143.654,327.907a8.964,8.964,0,0,1,3.575-3.423,8.708,8.708,0,0,1,4.892-1.214,9.867,9.867,0,0,1,6.269,2.389,7.889,7.889,0,0,1,1.984,2.392,4.032,4.032,0,0,1-.869.135q-7.486-.012-14.973,0a1.062,1.062,0,0,1-.878-.276" transform="translate(9160.224 -1417.001)" fill="#fff"/>
    <path id="Path_201" data-name="Path 201" d="M2137.7,348.62a1.062,1.062,0,0,0,.878.276q7.486,0,14.973,0a4.032,4.032,0,0,0,.869-.135,7.248,7.248,0,0,1,1.24,2.859h-2.978a1.31,1.31,0,0,0-1.051-1.069c-.6-.123-1.01.273-1.181,1.069h-8.74a1.31,1.31,0,0,0-1.051-1.069c-.6-.123-1.01.273-1.181,1.069h-3.115a9.006,9.006,0,0,1,1.337-3" transform="translate(9166.183 -1437.714)" fill="#f9d4c4"/>
    <path id="Path_202" data-name="Path 202" d="M2093.056,310.59a14.333,14.333,0,0,1,4.772,3.406v1.852a12.58,12.58,0,0,0-5.729-4.385l.957-.874" transform="translate(9202.328 -1406.655)" fill="#72be98"/>
    <path id="Path_203" data-name="Path 203" d="M2015.915,365.067h3.108l0,2.194h-3.25a7.239,7.239,0,0,1,.141-2.194" transform="translate(9264.685 -1451.146)" fill="#b2c8e3"/>
    <path id="Path_204" data-name="Path 204" d="M2135.617,365h3.115q0,1.1,0,2.205h-3.25a7.542,7.542,0,0,1,.137-2.205" transform="translate(9166.924 -1451.094)" fill="#b2c8e3"/>
    <path id="Path_205" data-name="Path 205" d="M2255.336,365.067h3.107l0,2.194h-3.25a7.246,7.246,0,0,1,.141-2.194" transform="translate(9069.152 -1451.146)" fill="#b2c8e3"/>
    <path id="Path_206" data-name="Path 206" d="M2105.687,365.067h2.97a12.317,12.317,0,0,1,.277,2.194h-3.25l0-2.194" transform="translate(9191.232 -1451.145)" fill="#b2c8e3"/>
    <path id="Path_207" data-name="Path 207" d="M2225.385,365h2.978a14.442,14.442,0,0,1,.274,2.205h-3.25q0-1.1,0-2.205" transform="translate(9093.475 -1451.094)" fill="#b2c8e3"/>
    <path id="Path_208" data-name="Path 208" d="M2345.107,365.067h2.97a12.3,12.3,0,0,1,.277,2.194h-3.25q0-1.1,0-2.194" transform="translate(8995.701 -1451.145)" fill="#b2c8e3"/>
    <path id="Path_209" data-name="Path 209" d="M2039.661,311.838c.059-.5-.145-1.023.164-1.492.333-.076.547.15.785.311a.761.761,0,0,1,.346.6c-.014.2-.337.3-.547.308-.289.015-.489.212-.748.27" transform="translate(9245.163 -1406.443)" fill="#72be98"/>
    <path id="Path_210" data-name="Path 210" d="M2045.831,365.068h8.732l0,2.194h-8.736q0-1.1,0-2.194" transform="translate(9240.116 -1451.147)" fill="#b2c8e3"/>
    <path id="Path_211" data-name="Path 211" d="M2285.252,365.068h8.732q0,1.1,0,2.194h-8.737q0-1.1,0-2.194" transform="translate(9044.584 -1451.147)" fill="#b2c8e3"/>
    <path id="Path_212" data-name="Path 212" d="M2165.529,365h8.74q0,1.1,0,2.205h-8.737q0-1.1,0-2.205" transform="translate(9142.358 -1451.094)" fill="#b2c8e3"/>
  </g>
</svg>
