<svg xmlns="http://www.w3.org/2000/svg" width="71.122" height="71" viewBox="0 0 71.122 71">
  <g id="Group_124" data-name="Group 124" transform="translate(-10775.411 1152.371)">
    <path id="Path_213" data-name="Path 213" d="M1551.21,28.3c1.288-.231,2.051.85,2.308,2.113.183.9.553,1.012,1.334.991,2.031-.053,4.066-.03,6.1-.008.416,0,.6-.085.536-.526-.035-.249.019-.51-.011-.761a1.183,1.183,0,0,1,.618-1.332,1.7,1.7,0,0,1,1.637.179q2.538,1.976,5.072,3.958c.748.585,1.461,1.221,2.244,1.753.408.277.6.719.987.991v.972c-.649.534-1.291,1.078-1.95,1.6q-3.249,2.568-6.514,5.115a1.332,1.332,0,0,1-2.086-1.012c0-.393-.019-.788,0-1.18.015-.295-.072-.4-.384-.4-2.337.012-4.674.006-7.011.007-.217,0-.328.034-.4.32a16.093,16.093,0,0,1-3.5,6.591,17.053,17.053,0,0,1-8.04,5.459c-.845.247-.987.749-.984,1.471.009,1.759,0,3.517,0,5.276,0,1.1,0,1.115,1.1,1.188,1.7.112,2,1.36,1.16,2.466-.246.324-.489.651-.74.972-1.424,1.824-2.837,3.657-4.283,5.464a5.978,5.978,0,0,1-1.515,1.655h-.972a17.323,17.323,0,0,1-2.217-2.622q-1.989-2.463-3.913-4.979c-.347-.451-.842-.825-.822-1.508a1.331,1.331,0,0,1,1.35-1.446c.478-.033,1.149.224,1.383-.11s.082-.976.083-1.481c0-1.828-.013-3.656.013-5.483a.548.548,0,0,0-.473-.646,17.934,17.934,0,0,1-8.017-4.959,18.574,18.574,0,0,1-4.034-6.787,1.082,1.082,0,0,0-1.118-.838c-2.082-.013-4.165.007-6.247-.016-.407,0-.443.167-.435.489a2.645,2.645,0,0,1-.289,1.712c-.62.86-1.424.836-2.513-.033-2.333-1.863-4.65-3.746-7.049-5.525a1.468,1.468,0,0,1,0-2.523c2.285-1.968,4.755-3.7,7.058-5.648.883-.746,2.115-.683,2.493-.048a2.534,2.534,0,0,1,.294,1.572c-.044.493.073.668.622.658,2.151-.038,4.3-.033,6.455,0a.6.6,0,0,0,.688-.528,17.172,17.172,0,0,1,5.377-8.383,15.848,15.848,0,0,1,6.816-3.637.428.428,0,0,0,.36-.493q-.006-3.471,0-6.941c0-.279-.1-.359-.361-.347-.37.017-.741-.01-1.11.007a1.2,1.2,0,0,1-1.2-.73,1.357,1.357,0,0,1,.069-1.479c.887-1.179,1.832-2.314,2.751-3.468,1.075-1.351,2.159-2.694,3.214-4.059a1.583,1.583,0,0,1,2.707.092c.605.821,1.251,1.612,1.876,2.419,1.265,1.63,2.52,3.267,3.8,4.888a1.5,1.5,0,0,1,.21,1.6,1.4,1.4,0,0,1-1.43.745c-1.145-.054-1.146-.014-1.146,1.133,0,1.967.016,3.934-.012,5.9-.007.473.112.721.6.8a5.024,5.024,0,0,1,.949.323c1.472.575,1.514.612,1.4,2.1-.711.818-1.151,1.026-2.061.639a12.38,12.38,0,0,0-2.765-.8,15.2,15.2,0,0,0-7.522.429,14.854,14.854,0,0,0-5.988,3.6,12.893,12.893,0,0,0-2.6,3.586c-.414.876-.84,1.74-1.195,2.655a13.717,13.717,0,0,0-.591,7.1,13.941,13.941,0,0,0,2.622,6.3,7.98,7.98,0,0,0,1.423,1.684c.361-1.038.219-2.051.694-3.008a8.377,8.377,0,0,1,3.948-4.11c.612-.287.488-.488.114-.844a8.937,8.937,0,0,1-1.709-2.5c-.451-.876-.3-1.955-.991-2.729a.133.133,0,0,1,0-.128c.535-.388.3-1.01.354-1.484a8.376,8.376,0,0,1,3.8-6.2,8.266,8.266,0,0,1,6.521-1.255,8.588,8.588,0,0,1,4.2,2.153,10.168,10.168,0,0,1,2.327,4.06c.5,1.34.164,2.608.264,3.9,0,.058-.072.118-.089.183a7.859,7.859,0,0,1-2.272,4.105c-.3.262-.353.535.132.724a7.249,7.249,0,0,1,3.3,2.924,8.062,8.062,0,0,1,1.342,4.2,3.578,3.578,0,0,0,1.337-1.45,15.724,15.724,0,0,0,2.7-6.24,15.951,15.951,0,0,0,.238-4.049,14.6,14.6,0,0,0-1.071-4.5c-.4-1-.228-1.362.66-2m-14.717,23.05c.571-.014,1.136-.053,1.707-.119a13.829,13.829,0,0,0,4.648-1.326c1.8-.9,1.826-.9,1.718-2.928-.023-.434.261-.857.107-1.215a12.115,12.115,0,0,0-.791-1.727,5.174,5.174,0,0,0-4.422-2.659,36.977,36.977,0,0,0-6.892.114,5.022,5.022,0,0,0-4.138,4.141,27.512,27.512,0,0,0-.056,2.924.67.67,0,0,0,.445.7A24.337,24.337,0,0,0,1531.5,50.5a14.256,14.256,0,0,0,5,.857m-.137-12.784a5.807,5.807,0,0,0,5.992-5.822c.016-2.939-1.931-5.9-6.273-5.839a5.834,5.834,0,0,0,.281,11.661m3.316-30.323c-.962-1.2-1.963-2.359-2.84-3.6-.384-.544-.544-.291-.786.006-.545.671-1.109,1.33-1.6,2.04a7.582,7.582,0,0,0-1.167,1.659c1,.246,1.286.6,1.288,1.638,0,2.495.014,4.99-.009,7.485,0,.508.075.745.663.7a21.331,21.331,0,0,1,2.494,0c.522.025.7-.105.7-.672-.034-2.541-.02-5.082-.012-7.623,0-.971.306-1.352,1.272-1.631m-31.048,31.059c.307-1.012.689-1.319,1.683-1.323q3.851-.014,7.7,0c.395,0,.568.042.459-.54a6.783,6.783,0,0,1,0-2.62c.15-.694-.083-.658-.566-.656-2.475.011-4.951.008-7.426,0-1.157,0-1.488-.231-1.888-1.3l-4.06,3.208,4.09,3.228m55.654-6.4c-.435,1.063-.744,1.268-1.869,1.269-2.472,0-4.944.016-7.416-.012-.5-.006-.649.144-.586.617a9.9,9.9,0,0,1-.007,2.689c-.062.445.129.53.542.527,2.495-.019,4.99-.009,7.486-.01a2.457,2.457,0,0,1,1.179.254c.452.232.479.646.6,1.072,1.319-1.02,2.582-2.005,3.857-2.975.263-.2.257-.315,0-.513-1.26-.958-2.507-1.932-3.781-2.917m-24.633,31a1.418,1.418,0,0,1-1.238-1.625c-.007-2.567-.017-5.133.009-7.7.005-.5-.164-.708-.62-.579a7.068,7.068,0,0,1-2.671.089c-.634-.066-.568.175-.566.576.008,2.474,0,4.949.009,7.423a1.506,1.506,0,0,1-.993,1.671c-.268.091-.284.252-.137.438q1.373,1.744,2.761,3.477c.173.216.325.291.539.009.959-1.265,1.936-2.518,2.909-3.778" transform="translate(9274.5 -1153)"/>
    <path id="Path_214" data-name="Path 214" d="M1640.118,117.34c-.887.64-1.061,1-.66,2a14.6,14.6,0,0,1,1.071,4.5,15.952,15.952,0,0,1-.238,4.049,15.723,15.723,0,0,1-2.7,6.24,3.576,3.576,0,0,1-1.337,1.45,8.062,8.062,0,0,0-1.342-4.2,7.249,7.249,0,0,0-3.3-2.924c-.485-.189-.43-.462-.132-.724a7.861,7.861,0,0,0,2.272-4.105c.018-.065.093-.125.089-.183-.1-1.294.234-2.561-.264-3.9a10.169,10.169,0,0,0-2.327-4.06,8.587,8.587,0,0,0-4.2-2.153,8.265,8.265,0,0,0-6.521,1.255,8.376,8.376,0,0,0-3.8,6.2c-.058.474.181,1.1-.354,1.484a.134.134,0,0,0,0,.128c.694.774.54,1.853.991,2.729a8.937,8.937,0,0,0,1.709,2.5c.375.355.5.557-.114.844a8.377,8.377,0,0,0-3.948,4.11c-.475.957-.333,1.97-.694,3.008a7.984,7.984,0,0,1-1.423-1.684,13.941,13.941,0,0,1-2.622-6.3,13.716,13.716,0,0,1,.591-7.1c.354-.915.78-1.779,1.195-2.655a12.887,12.887,0,0,1,2.6-3.586,14.854,14.854,0,0,1,5.988-3.6,15.2,15.2,0,0,1,7.522-.429,12.37,12.37,0,0,1,2.765.8c.911.387,1.351.178,2.061-.639a20.546,20.546,0,0,1,3.086,1.955c-.547.957-.556,1.47-.045,1.935a1.444,1.444,0,0,0,2.105-.013c.143.574.617.936.908,1.416.34.559.7,1.107,1.051,1.659" transform="translate(9185.592 -1242.036)" fill="#fdde2f"/>
    <path id="Path_215" data-name="Path 215" d="M1750.486,123.369a1.444,1.444,0,0,1-2.105.013c-.511-.465-.5-.978.045-1.935a1.575,1.575,0,0,1,1.838-.034,1.1,1.1,0,0,1,.5,1.144,4,4,0,0,1-.273.812" transform="translate(9073.265 -1251.14)"/>
    <path id="Path_216" data-name="Path 216" d="M1656.9,229.711a14.256,14.256,0,0,1-5-.857,24.336,24.336,0,0,1-2.677-1.237.67.67,0,0,1-.445-.7,27.479,27.479,0,0,1,.055-2.924,5.022,5.022,0,0,1,4.138-4.141,36.977,36.977,0,0,1,6.892-.114,5.174,5.174,0,0,1,4.422,2.659,12.113,12.113,0,0,1,.791,1.727c.155.358-.13.781-.107,1.215.109,2.024.085,2.03-1.718,2.928a13.833,13.833,0,0,1-4.648,1.326c-.571.065-1.136.1-1.707.119" transform="translate(9154.088 -1331.356)" fill="#fe646f"/>
    <path id="Path_217" data-name="Path 217" d="M1666.309,153.885a5.834,5.834,0,0,1-.281-11.661c4.342-.059,6.289,2.9,6.273,5.839a5.807,5.807,0,0,1-5.992,5.823" transform="translate(9144.546 -1268.315)" fill="#ffdcd5"/>
    <path id="Path_218" data-name="Path 218" d="M1681.7,24.467c-.966.279-1.269.66-1.272,1.631-.008,2.541-.022,5.083.012,7.623.008.567-.173.7-.7.672a21.37,21.37,0,0,0-2.494,0c-.588.041-.668-.2-.663-.7.023-2.495.013-4.99.009-7.485,0-1.035-.284-1.393-1.288-1.638a7.577,7.577,0,0,1,1.167-1.659c.489-.71,1.053-1.37,1.6-2.041.242-.3.4-.55.786-.006.877,1.243,1.879,2.4,2.84,3.6" transform="translate(9132.472 -1169.219)" fill="#83ade6"/>
    <path id="Path_219" data-name="Path 219" d="M1524.511,180.782l-4.09-3.228,4.06-3.208c.4,1.072.731,1.3,1.888,1.3,2.475,0,4.951.007,7.426,0,.483,0,.716-.039.566.656a6.783,6.783,0,0,0,0,2.62c.109.582-.064.541-.459.54q-3.852-.01-7.7,0c-.994,0-1.376.311-1.683,1.323" transform="translate(9258.611 -1294.474)" fill="#83ade6"/>
    <path id="Path_220" data-name="Path 220" d="M1798.927,174.524c1.274.985,2.522,1.959,3.781,2.917.259.2.265.313,0,.513-1.275.97-2.538,1.956-3.857,2.975-.118-.426-.146-.84-.6-1.072a2.455,2.455,0,0,0-1.179-.254c-2.5,0-4.99-.009-7.485.01-.412,0-.6-.082-.541-.527a9.893,9.893,0,0,0,.007-2.689c-.063-.473.086-.622.586-.617,2.472.028,4.944.014,7.416.012,1.125,0,1.434-.205,1.869-1.269" transform="translate(9039.849 -1294.62)" fill="#83ade6"/>
    <path id="Path_221" data-name="Path 221" d="M1681.952,297.924c-.973,1.26-1.949,2.512-2.909,3.778-.214.282-.367.207-.539-.009q-1.383-1.736-2.761-3.477c-.146-.186-.131-.347.137-.438a1.506,1.506,0,0,0,.993-1.671c-.013-2.474,0-4.949-.009-7.423,0-.4-.067-.643.566-.576a7.069,7.069,0,0,0,2.671-.089c.456-.128.626.078.62.579-.026,2.567-.017,5.133-.009,7.7a1.419,1.419,0,0,0,1.238,1.625" transform="translate(9132.192 -1387.021)" fill="#83ade6"/>
  </g>
</svg>
