<svg xmlns="http://www.w3.org/2000/svg" width="72.022" height="71" viewBox="0 0 72.022 71">
  <g id="Group_123" data-name="Group 123" transform="translate(0)">
    <path id="Path_222" data-name="Path 222" d="M1116.552,42.668c.184-1.178-.14-2.374.331-3.564a5.017,5.017,0,0,1,4.626-3.42,20.278,20.278,0,0,1,5.125.171c.62.151,1.3.415,1.491.947.38,1.033,1.359,1.106,2.068,1.6,1.5,1.052,2.862,2.146,2.751,4.284-.091,1.749,0,3.507.009,5.262-.011,3.116-.017,6.232-.041,9.348a.759.759,0,0,0,.363.663,7.062,7.062,0,0,1,2.52,3.572c.2.751.537.909,1.258.882,1.669-.062,1.653-.02,1.676-1.7a1.52,1.52,0,0,0-.749-1.531c-.709-.424-1.336-.985-2.009-1.472a1.006,1.006,0,0,1-.324-1.461,1.023,1.023,0,0,1,1.472-.391,14.363,14.363,0,0,1,3.951,2.71.067.067,0,0,0,.025.1c-.009.812-.024,1.623-.026,2.435,0,1.364,0,1.364,1.4,1.285a1.414,1.414,0,0,1,.906,1.509c-.039,1.6-.047,3.205-.067,4.808-.706.85-1.682.688-2.593.636-.687-.039-.834.194-.829.846.031,3.629.011,7.259.023,10.889,0,.258-.155.571.153.778a1.269,1.269,0,0,0-.16.89c0,1.532.007,3.063,0,4.595-.009,1.27-.531,1.78-1.783,1.783-1.716,0-1.716,0-1.716,1.726,0,1.22.007,2.439,0,3.659-.008,1.109-.485,1.582-1.583,1.585-1.531,0-3.063-.017-4.594.015-.31.007-.862-.309-.87.42-.006.529-.026.86.734,1.02A6.923,6.923,0,0,1,1135,101.05a8.2,8.2,0,0,1,1.337,4.006c-.024,1.152-.35,1.512-1.5,1.514-4.027.006-8.054,0-12.082,0-2.436,0-4.873.02-7.31.033a1.434,1.434,0,0,1-1.249-1.56,8.989,8.989,0,0,1,2.961-5.83,7.187,7.187,0,0,1,3.535-1.681c.859-.137.373-.658.469-.994.14-.5-.253-.442-.562-.442-1.588,0-3.176.005-4.765,0-1.179-.005-1.354-.162-1.538-1.31.012-1.218.032-2.437.036-3.655.006-1.97,0-1.97-1.949-2-1.212-.02-1.565-.374-1.565-1.564,0-5.815-.008-11.629.012-17.443,0-.571-.108-.838-.735-.766a9.93,9.93,0,0,1-1.36.008c-1.087-.026-1.362-.288-1.373-1.356-.014-1.361-.006-2.723,0-4.084,0-1.217.315-1.524,1.553-1.528,1.617,0,3.233-.011,4.85.005.463,0,.724-.035.856-.614a4.175,4.175,0,0,1,1.31-2.454c.819-.6.7-1.288.7-2.034q-.03-7.316-.075-14.632m8.8,51.09c2.667,0,5.334-.018,8,.013.6.007.767-.166.76-.762-.032-2.468,0-4.937-.023-7.4a13.978,13.978,0,0,0-.046-2.059,5.614,5.614,0,0,0-1.194-2.954c-.64-.711-1.082-1.569-1.761-2.275-.519-.539-1.178-.581-1.738-.913a7.6,7.6,0,0,0-5.731-.876,8.4,8.4,0,0,0-5.987,4.491,7.539,7.539,0,0,0-1.056,4.058c.167,2.571.071,5.161.029,7.742-.012.72.133.976.919.959,2.609-.056,5.219-.021,7.829-.021m.042-24.39c-3.8,0-7.6.016-11.4-.015-.662-.005-.848.162-.844.837.029,5.275.016,10.551.016,15.826a3.158,3.158,0,0,1,0,.34c-.057.522.314.423.612.426.35,0,.513-.029.456-.52a10.738,10.738,0,0,1,.285-3.494,9.638,9.638,0,0,1,2.507-4.874c1.549-1.579,3.09-2.983,5.475-3.376a12.638,12.638,0,0,1,4.261-.346,10.154,10.154,0,0,1,5.736,2.576c.8.8,1.834,1.445,1.99,2.721,1,.37.981,1.457,1.236,2.168a10.133,10.133,0,0,1,.605,4.456c-.048.458.02.716.609.714s.621-.254.62-.715q-.017-8,.007-16c0-.617-.2-.743-.771-.74-3.8.024-7.6.012-11.4.012m-6.41-21.346a6.034,6.034,0,0,0,.324,2.6,5.775,5.775,0,0,0,9.962,1.418c1.265-1.487,1.31-3.262,1.277-5.073-.016-.887-.851-1.13-1.253-1.71-.267-.385-.576-.413-1.015-.21a9.254,9.254,0,0,1-2.72.7c-.912.119-1.781-.272-2.722-.076-.49.1-1.1-.294-1.636-.514a.97.97,0,0,0-1.134.2,2.5,2.5,0,0,0-1.083,2.66m6.28,19h14.115c1.742,0,1.73,0,1.558-1.79-.032-.333-.136-.424-.455-.43-.93-.019-1.86-.1-2.79-.106q-13.264-.013-26.529-.005c-1.5,0-1.451,0-1.507,1.471-.028.729.2.881.9.876,4.9-.031,9.807-.017,14.71-.017m.177,37.27q3.909,0,7.817,0c.512,0,.76.042.472-.681a6.075,6.075,0,0,0-6.073-4.05c-1.7-.034-3.4-.046-5.1,0-2.984.087-4.508,1.566-5.618,3.767-.39.773-.23.957.683.958q3.908,0,7.817,0M1118.915,43.1c.752-.751,1.392-1,2.156-.58a6.575,6.575,0,0,0,6.892.07c.488-.277,1.564-1,2.226.137a.255.255,0,0,0,.225.063c.132-.034.14-.162.118-.273-.253-1.282-1.439-2.524-2.436-2.419a1.263,1.263,0,0,1-1.46-1.106,1.179,1.179,0,0,0-1.353-1.067c-1.132.02-2.266-.018-3.4.013a2.906,2.906,0,0,0-2.605,1.61c-.593,1.07-.182,2.212-.365,3.552m12.02,19.305c.707,0,1.414-.018,2.12.006.557.018.613-.177.406-.654a5.474,5.474,0,0,0-4.62-3.083c-.4,0-.557.126-.548.533.019.876.022,1.753,0,2.629-.012.456.182.589.608.575.678-.023,1.357-.006,2.035-.006m-11.883,0c.566,0,1.132-.021,1.7.006.453.022.592-.168.581-.6q-.033-1.272,0-2.545c.012-.474-.135-.589-.6-.452a5.393,5.393,0,0,0-3.359,2.523c-.593,1.046-.583,1.066.579,1.067h1.1m6.9-5.109c-.136-.226.194-.844-.248-.76-.623.119-1.229.016-1.834.1-.1.015-.27.077-.275.129a2.445,2.445,0,0,0,.231,1.631.943.943,0,0,0,1.076.444c.777-.169,1.058-.748,1.049-1.548m-6.987-3.051c0,.348,0,.567,0,.786-.009,1.76-.01,1.76,1.661,1.436a.73.73,0,0,1,.084,0,.439.439,0,0,0,.456-.409.462.462,0,0,0-.253-.484c-.612-.4-1.208-.818-1.949-1.325m6.223,42.948c.422,0,.846-.022,1.267.006s.532-.141.521-.536c-.01-.354-.034-.587-.489-.571-.816.03-1.634.028-2.449,0-.459-.015-.484.231-.482.581,0,.327.05.544.451.522s.788,0,1.182,0m5.375-42.954a13.282,13.282,0,0,1-2.135,1.442.364.364,0,0,0-.236.479c.125.347.447.354.711.292.544-.129,1.177.322,1.641-.256.03-.037.018-.11.018-.166,0-.553,0-1.106,0-1.791m-5.828,8.185a3.025,3.025,0,0,1,.424,0c.759.109.815-.339.795-.925-.03-.873-.526-.238-.8-.264-.337-.031-.678,0-1.017-.012-.233-.008-.661-.406-.555.241.056.343-.391,1,.479.959.226-.011.452,0,.679,0" transform="translate(-1089.844 -35.607)"/>
    <path id="Path_223" data-name="Path 223" d="M1061.218,66.58q.039,7.316.075,14.632c0,.746.12,1.43-.7,2.034a4.175,4.175,0,0,0-1.31,2.454c-.131.578-.393.619-.856.614-1.616-.017-3.233-.01-4.85-.005-1.238,0-1.549.311-1.553,1.528,0,1.361-.011,2.723,0,4.084.011,1.068.286,1.33,1.373,1.356a9.934,9.934,0,0,0,1.36-.008c.626-.072.736.2.734.766-.02,5.814-.012,11.629-.012,17.443,0,1.19.353,1.544,1.565,1.564,1.951.033,1.955.033,1.949,2,0,1.218-.023,2.437-.036,3.655a29.616,29.616,0,0,1-6.748-1.716,8.713,8.713,0,0,0,2.027-4.836c.141-2.232.157-4.475.136-6.712a3.785,3.785,0,0,0-3.091-3.811,1.123,1.123,0,0,1-.844-.752,4.259,4.259,0,0,0-3.156-2.754,20.289,20.289,0,0,0-5.482-.153,5.412,5.412,0,0,0-2.619.942,9.947,9.947,0,0,0-1.935,2.248,14.584,14.584,0,0,1-1.191-4.46,26.183,26.183,0,0,1,19.224-29.32,19,19,0,0,1,5.934-.8m-22.282,18.941c-.347.5-.8.759-1.047,1.234a1.143,1.143,0,0,0,.273,1.433.911.911,0,0,0,1.26.139,1.957,1.957,0,0,1,2.414,0,1.046,1.046,0,0,0,1.391-.287.979.979,0,0,0,.081-1.374c-.283-.391-.659-.691-.938-1.1.267-.291.54-.575.8-.872a1.11,1.11,0,0,0,.016-1.654,1.29,1.29,0,0,0-1.818.137c-.56.68-.981.676-1.463-.019a.53.53,0,0,0-.191-.164c-.548-.275-1.132-.466-1.62.043a1.154,1.154,0,0,0,.039,1.72c.245.272.531.508.807.767" transform="translate(-1034.511 -59.518)" fill="#83ade6"/>
    <path id="Path_224" data-name="Path 224" d="M1248.644,205.866a6.675,6.675,0,0,1,4.526-1.553,18.343,18.343,0,0,1,4.676.331,4.145,4.145,0,0,1,2.855,2.794c.146.415.286.612.776.642a3.648,3.648,0,0,1,3,3.2c.011,2.184.078,4.371-.024,6.55a8.381,8.381,0,0,1-3.255,6.572c-.2.157-.325.3-.243.554a.326.326,0,0,1,.022.082c.028.877-.229,1.928.17,2.576.338.549,1.48.447,2.226.838a7.788,7.788,0,0,1,4.49,7.049c.036.991-.344,1.362-1.349,1.372-1.645.015-3.29,0-4.935,0h-14.8c-1.915,0-2.508-.74-2.04-2.629a8.663,8.663,0,0,1,4.044-5.627,5.146,5.146,0,0,1,2.221-.806c.518-.037.615-.284.729-.78.344-1.5-.74-2.034-1.635-2.759a7.582,7.582,0,0,1-2.968-5.542c-.151-2.465-.072-4.943-.093-7.415.076-.3.176-.6-.068-.878a6.244,6.244,0,0,1,1.5-4.413l.188-.181-.008.013m13.083,13.592c-.191.115-.393.215-.571.346-2.864,2.111-5.9,2.714-9.2,1.075a16.058,16.058,0,0,1-2.371-1.618,6.571,6.571,0,0,0,6.258,4.839,6.723,6.723,0,0,0,6-4.541l.018-.192-.134.091m-5.336,15.147c2.75,0,5.5-.041,8.249.024.861.02.826-.33.647-.909a2.893,2.893,0,0,0-.177-.385,5.766,5.766,0,0,0-5.549-3.449c-2.239-.014-4.479,0-6.718-.008a5.938,5.938,0,0,0-5.452,3.887c-.22.628-.144.859.581.852,2.806-.029,5.613-.012,8.419-.012m-.162-7.027c.623,0,1.247-.022,1.869.007.435.02.6-.116.589-.572-.012-.4-.054-.623-.544-.61-1.217.032-2.436.023-3.653,0-.422-.007-.594.1-.6.568-.005.5.173.638.64.611.565-.033,1.133-.008,1.7-.008" transform="translate(-1195.844 -165.918)"/>
    <path id="Path_225" data-name="Path 225" d="M1033.149,207.382a9.956,9.956,0,0,1,1.935-2.248,5.415,5.415,0,0,1,2.619-.942,20.3,20.3,0,0,1,5.482.153,4.259,4.259,0,0,1,3.156,2.754,1.123,1.123,0,0,0,.844.752,3.785,3.785,0,0,1,3.091,3.811c.02,2.237,0,4.48-.137,6.712a8.71,8.71,0,0,1-2.027,4.836,11.758,11.758,0,0,1-2.269,1.814c-.417.215-.267.515-.272.785-.028,1.572-.027,1.627,1.44,1.819a8.1,8.1,0,0,1,6.539,6.383,6.568,6.568,0,0,1,.058,1.659,1.034,1.034,0,0,1-.938,1.014,4.039,4.039,0,0,1-.679.023q-9.913,0-19.827,0c-1.486,0-1.843-.3-1.741-1.766a8.027,8.027,0,0,1,6.228-7.278c.59-.132.648-.4.771-.923.376-1.6-.919-2.077-1.782-2.779a8.989,8.989,0,0,1-2.663-4.386,5.76,5.76,0,0,1-.18-1.907c0-2.014-.012-4.028,0-6.042a12.3,12.3,0,0,1,.353-4.244m2.006,3.995h-.021c0,.736.032,1.474-.009,2.208a3.968,3.968,0,0,0,.644,2.052,6.332,6.332,0,0,0,11.325.261,6.905,6.905,0,0,0,.848-3.749c-.053-1.586-.572-2.168-2.132-2.209a1.288,1.288,0,0,1-1.438-1.31,2.13,2.13,0,0,0-2.27-2.128c-1.3-.022-2.608.034-3.91-.013a3.169,3.169,0,0,0-3.049,3.1,14.22,14.22,0,0,1,.012,1.784m6.857,23.022h7.817c1.542,0,1.633-.161.874-1.549-.054-.1-.1-.2-.167-.3a6.036,6.036,0,0,0-5.316-2.832c-2.181-.012-4.361.029-6.542.013a5.915,5.915,0,0,0-5.554,3.855c-.26.683-.121.824.56.818,2.775-.023,5.551-.01,8.327-.01m5.6-15.268c-4.087,3.293-8.136,3.371-12.31,0a6.4,6.4,0,0,0,6.9,4.734,6.248,6.248,0,0,0,5.41-4.734m-6.22,8.273v-.009c.368,0,.738-.015,1.105,0,.456.023.715-.044.7-.631s-.334-.533-.707-.53c-.68.005-1.361.008-2.041,0-.384-.005-.7-.044-.7.539s.227.676.706.633c.309-.028.623-.005.935-.005" transform="translate(-1030.407 -165.744)"/>
    <path id="Path_226" data-name="Path 226" d="M1227.826,100.469a14.359,14.359,0,0,0-3.951-2.71,1.022,1.022,0,0,0-1.472.391,1.006,1.006,0,0,0,.324,1.461c.673.487,1.3,1.048,2.009,1.472a1.521,1.521,0,0,1,.748,1.531c-.023,1.68-.007,1.638-1.676,1.7-.721.027-1.061-.131-1.258-.882a7.06,7.06,0,0,0-2.519-3.572.759.759,0,0,1-.363-.663c.024-3.116.03-6.232.041-9.348a20.41,20.41,0,0,1,4.041,3.724,27.26,27.26,0,0,1,3.854,5.845,1.481,1.481,0,0,1,.222,1.052" transform="translate(-1176.599 -77.505)" fill="#83ade6"/>
    <path id="Path_227" data-name="Path 227" d="M1047.317,63.286c.3,1.838-1.812,3.756-3.577,3.723a3.6,3.6,0,0,1-.059-7.208c2.032-.018,3.888,1.7,3.635,3.485m-3.6-1.073a1.03,1.03,0,0,0-1.168,1.08,1.276,1.276,0,0,0,2.55.1c0-.719-.544-1.181-1.382-1.176" transform="translate(-1037.951 -54.295)"/>
    <path id="Path_228" data-name="Path 228" d="M1307.717,155.3a3.664,3.664,0,0,1-3.3,3.689,3.822,3.822,0,0,1-3.842-3.633,3.652,3.652,0,0,1,3.963-3.553c1.387.107,3.413,1.517,3.176,3.5m-2.2,0c-.016-.775-.448-1.1-1.444-1.091a1.041,1.041,0,0,0-1.121,1.135,1.294,1.294,0,0,0,1.3,1.245,1.313,1.313,0,0,0,1.266-1.289" transform="translate(-1239.097 -125.349)"/>
    <path id="Path_229" data-name="Path 229" d="M1252.822,188.1a6.246,6.246,0,0,0-1.5,4.413l-.337.654c-.515.185-.307.754-.57,1.072-.308-.207-.152-.52-.153-.778-.011-3.63.009-7.26-.023-10.889-.006-.653.142-.885.829-.846.911.052,1.887.214,2.593-.636a20.264,20.264,0,0,1-.6,5.836,3.5,3.5,0,0,0-.056,1.006l.008-.013-.188.181" transform="translate(-1200.202 -147.981)" fill="#83ade6"/>
    <path id="Path_230" data-name="Path 230" d="M1264.479,62.3a.867.867,0,0,1-.539.973,1,1,0,0,1-1.217-.106,9.091,9.091,0,0,1-2.31-2.4,1.043,1.043,0,0,1,.979-1.592c.895,0,3.089,2.182,3.087,3.125" transform="translate(-1207.947 -53.812)"/>
    <path id="Path_231" data-name="Path 231" d="M1284.678,82.126c-.042.621-.19.947-.633,1.158a.918.918,0,0,1-1.072-.067,12.625,12.625,0,0,1-2.311-2.292,1.129,1.129,0,0,1,1.587-1.576,11.663,11.663,0,0,1,2.25,2.249.733.733,0,0,1,.179.529" transform="translate(-1223.519 -69.204)"/>
    <path id="Path_232" data-name="Path 232" d="M1263.521,81.056c0,.309.049.464-.008.53a10.137,10.137,0,0,1-2.91,2.735.851.851,0,0,1-1.11-.364,1.125,1.125,0,0,1,0-1.406,25.486,25.486,0,0,1,2.213-2.226,1.135,1.135,0,0,1,1.819.731" transform="translate(-1207.169 -69.957)"/>
    <path id="Path_233" data-name="Path 233" d="M1284.718,60.057c-.008.672-2.366,3.07-3.048,3.1a1.137,1.137,0,0,1-1.043-1.6,9.171,9.171,0,0,1,2.444-2.527,1.066,1.066,0,0,1,1.647,1.031" transform="translate(-1223.589 -53.552)"/>
    <path id="Path_234" data-name="Path 234" d="M1256.9,140.7c-1.4.079-1.4.079-1.4-1.285,0-.812.017-1.623.027-2.435.146.013.289.054.339.2a13.289,13.289,0,0,1,1.03,3.517" transform="translate(-1204.282 -113.91)" fill="#83ade6"/>
    <path id="Path_235" data-name="Path 235" d="M1253.574,231.937l.337-.654c.244.276.144.578.068.878l-.4-.224" transform="translate(-1202.789 -186.754)" fill="#bf7e68"/>
    <path id="Path_236" data-name="Path 236" d="M1156.6,231.947c-2.61,0-5.221-.035-7.829.021-.786.017-.931-.238-.919-.959.043-2.581.138-5.171-.029-7.742a7.541,7.541,0,0,1,1.056-4.058,8.4,8.4,0,0,1,5.987-4.491,7.6,7.6,0,0,1,5.731.876c.561.332,1.219.374,1.738.913.68.706,1.121,1.563,1.762,2.275a5.615,5.615,0,0,1,1.194,2.954,13.979,13.979,0,0,1,.046,2.059c.026,2.468-.008,4.937.023,7.4.008.6-.161.769-.76.762-2.666-.031-5.333-.013-8-.013" transform="translate(-1121.091 -173.796)" fill="#fc8c29"/>
    <path id="Path_237" data-name="Path 237" d="M1145.059,183.912c3.8,0,7.6.012,11.4-.012.574,0,.774.123.772.74-.025,5.332-.018,10.664-.007,16,0,.461-.036.713-.62.715s-.657-.256-.609-.714a10.131,10.131,0,0,0-.605-4.456c-.255-.711-.24-1.8-1.236-2.168-.157-1.275-1.192-1.926-1.99-2.721a10.154,10.154,0,0,0-5.736-2.576,12.634,12.634,0,0,0-4.261.346c-2.385.393-3.927,1.8-5.476,3.376a9.637,9.637,0,0,0-2.507,4.873,10.739,10.739,0,0,0-.285,3.494c.057.491-.106.523-.456.52-.3,0-.669.1-.612-.425a3.1,3.1,0,0,0,0-.34c0-5.275.013-10.551-.016-15.826,0-.675.182-.842.844-.837,3.8.032,7.6.015,11.4.015" transform="translate(-1109.51 -150.151)" fill="#f9f8f9"/>
    <path id="Path_238" data-name="Path 238" d="M1158.175,79.658a2.5,2.5,0,0,1,1.083-2.66.97.97,0,0,1,1.134-.2c.536.221,1.146.616,1.636.514.941-.2,1.81.195,2.722.076a9.254,9.254,0,0,0,2.72-.7c.439-.2.748-.174,1.015.21.4.58,1.236.823,1.253,1.71.034,1.811-.012,3.587-1.277,5.073a5.775,5.775,0,0,1-9.962-1.418,6.036,6.036,0,0,1-.324-2.6" transform="translate(-1129.036 -67.243)" fill="#e7d1c4"/>
    <path id="Path_239" data-name="Path 239" d="M1133.063,165.749c-4.9,0-9.807-.015-14.71.016-.694,0-.926-.147-.9-.876.056-1.469.012-1.471,1.507-1.471q13.265,0,26.53.005c.93,0,1.86.086,2.79.106.319.007.423.1.455.43.172,1.791.184,1.79-1.558,1.79h-14.115" transform="translate(-1097.645 -134.332)" fill="#f9f8f9"/>
    <path id="Path_240" data-name="Path 240" d="M1157.3,321.288q-3.909,0-7.817,0c-.913,0-1.073-.184-.683-.958,1.11-2.2,2.634-3.68,5.617-3.767,1.7-.049,3.4-.037,5.1,0a6.075,6.075,0,0,1,6.073,4.05c.288.723.04.682-.472.681q-3.909-.009-7.817,0" transform="translate(-1121.709 -252.601)" fill="#bf7e68"/>
    <path id="Path_241" data-name="Path 241" d="M1158.156,50.974c.183-1.34-.228-2.483.365-3.553a2.906,2.906,0,0,1,2.605-1.61c1.132-.031,2.265.007,3.4-.013a1.18,1.18,0,0,1,1.353,1.067,1.263,1.263,0,0,0,1.46,1.106c1-.1,2.183,1.138,2.436,2.419.022.111.014.24-.118.273a.255.255,0,0,1-.224-.063c-.662-1.141-1.739-.415-2.226-.137a6.575,6.575,0,0,1-6.892-.07c-.764-.419-1.4-.171-2.156.58" transform="translate(-1129.085 -43.479)" fill="#bf7e68"/>
    <path id="Path_242" data-name="Path 242" d="M1202,140.711c-.678,0-1.357-.016-2.035.006-.425.014-.62-.119-.608-.575.024-.876.02-1.753,0-2.629-.009-.407.149-.535.548-.533a5.474,5.474,0,0,1,4.62,3.083c.207.477.151.672-.406.654-.706-.023-1.413-.006-2.12-.006" transform="translate(-1160.912 -113.911)" fill="#fe646f"/>
    <path id="Path_243" data-name="Path 243" d="M1151.734,141.011h-1.1c-1.161,0-1.171-.021-.578-1.067a5.393,5.393,0,0,1,3.359-2.523c.464-.137.612-.022.6.452q-.033,1.272,0,2.545c.011.431-.128.621-.581.6-.564-.027-1.131-.007-1.7-.006" transform="translate(-1122.526 -114.21)" fill="#fe646f"/>
    <path id="Path_244" data-name="Path 244" d="M1180.95,128.321c.009.8-.272,1.379-1.049,1.548a.942.942,0,0,1-1.076-.444,2.444,2.444,0,0,1-.231-1.631c0-.052.175-.114.275-.129.6-.089,1.21.014,1.834-.1.442-.084.112.534.248.76" transform="translate(-1144.843 -106.63)" fill="#e7d1c4"/>
    <path id="Path_245" data-name="Path 245" d="M1158.362,117.519c.741.507,1.337.929,1.949,1.325a.461.461,0,0,1,.253.484.438.438,0,0,1-.456.409.746.746,0,0,0-.085.005c-1.67.324-1.67.324-1.661-1.436,0-.219,0-.438,0-.786" transform="translate(-1129.243 -98.879)" fill="#bf7e68"/>
    <path id="Path_246" data-name="Path 246" d="M1180.168,302.509c-.394,0-.79-.017-1.182,0s-.449-.195-.451-.522c0-.35.024-.6.482-.581.816.026,1.634.028,2.449,0,.456-.017.48.217.49.571.011.395-.107.564-.521.536s-.844-.006-1.267-.007" transform="translate(-1144.826 -240.921)" fill="#e7d1c4"/>
    <path id="Path_247" data-name="Path 247" d="M1201.191,117.493c0,.685,0,1.238,0,1.791,0,.056.011.129-.018.166-.464.578-1.1.127-1.641.256-.264.063-.586.055-.711-.291a.364.364,0,0,1,.236-.479,13.287,13.287,0,0,0,2.135-1.442" transform="translate(-1160.474 -98.859)" fill="#bf7e68"/>
    <path id="Path_248" data-name="Path 248" d="M1179.569,148.758c-.226,0-.453-.009-.679,0-.869.043-.422-.615-.479-.959-.106-.646.321-.248.555-.241.339.011.681-.02,1.017.012.278.026.774-.61.8.263.02.587-.036,1.035-.795.926a2.988,2.988,0,0,0-.424,0" transform="translate(-1144.68 -121.938)" fill="#fff"/>
    <path id="Path_249" data-name="Path 249" d="M1045.741,140.353c-.275-.259-.562-.494-.807-.767a1.154,1.154,0,0,1-.039-1.72c.488-.508,1.072-.317,1.62-.043a.53.53,0,0,1,.192.164c.482.695.9.7,1.463.019a1.289,1.289,0,0,1,1.818-.137,1.11,1.11,0,0,1-.016,1.654c-.259.3-.531.581-.8.872.278.409.654.708.938,1.1a.979.979,0,0,1-.08,1.374,1.046,1.046,0,0,1-1.391.287,1.958,1.958,0,0,0-2.414,0,.91.91,0,0,1-1.26-.139,1.143,1.143,0,0,1-.273-1.433c.244-.475.7-.73,1.047-1.234" transform="translate(-1041.315 -114.351)"/>
    <path id="Path_250" data-name="Path 250" d="M1265.557,321.4c-2.806,0-5.613-.017-8.419.012-.725.007-.8-.224-.581-.852a5.937,5.937,0,0,1,5.452-3.887c2.24.006,4.479-.005,6.718.008a5.766,5.766,0,0,1,5.548,3.449,2.814,2.814,0,0,1,.177.386c.18.579.214.929-.647.909-2.748-.065-5.5-.024-8.249-.024" transform="translate(-1205.01 -252.708)" fill="#bf7e68"/>
    <path id="Path_251" data-name="Path 251" d="M1278.814,270.311a6.725,6.725,0,0,1-6,4.541,6.57,6.57,0,0,1-6.258-4.838,16.049,16.049,0,0,0,2.37,1.618c3.308,1.639,6.339,1.036,9.2-1.075.178-.132.38-.231.571-.346a.6.6,0,0,0,.117.1" transform="translate(-1212.814 -216.671)" fill="#e7d1c4"/>
    <path id="Path_252" data-name="Path 252" d="M1287.824,302.574c-.566,0-1.134-.025-1.7.008-.467.027-.645-.111-.64-.611,0-.466.177-.574.6-.568,1.217.019,2.436.028,3.653,0,.49-.013.532.212.545.61.014.456-.155.592-.589.572-.622-.029-1.246-.007-1.869-.007" transform="translate(-1227.438 -240.914)" fill="#e7d1c4"/>
    <path id="Path_253" data-name="Path 253" d="M1261.636,211.277l.188-.181-.188.181" transform="translate(-1209.016 -171.161)" fill="#fff"/>
    <path id="Path_254" data-name="Path 254" d="M1319.92,270.568l.134-.091c-.006.064-.012.128-.017.192a.609.609,0,0,1-.116-.1" transform="translate(-1254.037 -217.029)" fill="#e7d1c4"/>
    <path id="Path_255" data-name="Path 255" d="M1051.156,219.542a14.2,14.2,0,0,0-.012-1.784,3.169,3.169,0,0,1,3.049-3.1c1.3.047,2.607-.009,3.91.013a2.13,2.13,0,0,1,2.27,2.128,1.288,1.288,0,0,0,1.438,1.31c1.56.041,2.079.623,2.132,2.209a6.906,6.906,0,0,1-.848,3.749,6.332,6.332,0,0,1-11.325-.261,3.969,3.969,0,0,1-.644-2.052c.041-.734.009-1.471.009-2.208h.021" transform="translate(-1046.408 -173.908)" fill="#bf7e68"/>
    <path id="Path_256" data-name="Path 256" d="M1050.821,321.42c-2.776,0-5.552-.014-8.327.01-.681.006-.82-.135-.56-.818a5.915,5.915,0,0,1,5.554-3.855c2.18.016,4.361-.025,6.542-.013a6.037,6.037,0,0,1,5.316,2.832c.062.094.113.2.167.3.759,1.388.668,1.549-.874,1.549h-7.817" transform="translate(-1039.216 -252.765)" fill="#e7d1c4"/>
    <path id="Path_257" data-name="Path 257" d="M1064.237,270.207a6.248,6.248,0,0,1-5.41,4.734,6.4,6.4,0,0,1-6.9-4.734c4.174,3.372,8.223,3.293,12.31,0" transform="translate(-1047.03 -216.82)" fill="#e7d1c4"/>
    <path id="Path_258" data-name="Path 258" d="M1073.116,302.593c-.312,0-.626-.023-.935.005-.479.043-.709-.063-.706-.633s.318-.545.7-.539c.68.009,1.361.006,2.041,0,.373,0,.7-.064.707.53s-.248.654-.7.631c-.368-.019-.737,0-1.105,0Z" transform="translate(-1062.129 -240.933)" fill="#e7d1c4"/>
    <path id="Path_259" data-name="Path 259" d="M1051.786,70.4c.838-.005,1.38.456,1.382,1.176a1.276,1.276,0,0,1-2.55-.1,1.03,1.03,0,0,1,1.168-1.08" transform="translate(-1046.019 -62.484)" fill="#fff"/>
    <path id="Path_260" data-name="Path 260" d="M1313.564,163.526a1.314,1.314,0,0,1-1.266,1.289,1.294,1.294,0,0,1-1.3-1.245,1.041,1.041,0,0,1,1.121-1.135c1-.01,1.428.316,1.444,1.091" transform="translate(-1247.145 -133.573)" fill="#fff"/>
  </g>
</svg>
