<svg width="69" height="69" viewBox="0 0 69 69" fill="none" xmlns="http://www.w3.org/2000/svg">
<g clip-path="url(#clip0_119_225)">
<path d="M17.1305 26.8421L7.69626 22.5973C7.69626 24.2342 7.69626 25.7763 7.69626 27.319C7.69626 27.5074 7.79807 27.5654 7.98925 27.5608C8.22876 27.5548 8.46901 27.5561 8.70853 27.5608C8.91235 27.5463 9.11724 27.5712 9.30949 27.6338C9.50175 27.6963 9.67693 27.7951 9.82332 27.9234C9.96971 28.0517 10.0839 28.2067 10.1583 28.378C10.2327 28.5492 10.2656 28.7328 10.2548 28.9164C10.2645 31.8407 10.2645 34.7649 10.2548 37.6892C10.2713 37.8727 10.2435 38.0573 10.1731 38.2302C10.1028 38.4031 9.99171 38.5603 9.84743 38.6909C9.70316 38.8215 9.52914 38.9225 9.33735 38.9869C9.14555 39.0513 8.94053 39.0776 8.73637 39.0639C7.08392 39.0738 5.43147 39.0692 3.77902 39.0639C3.62287 39.0728 3.4664 39.0521 3.31971 39.0032C3.17301 38.9543 3.03936 38.8782 2.9274 38.7799C2.81543 38.6817 2.72763 38.5634 2.66968 38.4327C2.61172 38.302 2.58491 38.1618 2.59095 38.0212C2.58119 34.8813 2.58119 31.7414 2.59095 28.6015C2.59095 27.9751 3.09563 27.593 3.88523 27.5641C5.13775 27.5179 5.13775 27.5179 5.13775 26.3843C5.13775 24.97 5.12383 23.5558 5.1458 22.1421C5.19063 21.9452 5.15149 21.7404 5.03616 21.5682C4.92083 21.396 4.73773 21.2691 4.52321 21.2127C3.26556 20.743 2.07237 20.1344 0.844017 19.5995C0.562928 19.499 0.327235 19.3169 0.174361 19.0821C0.0214867 18.8474 -0.0398063 18.5735 0.000213558 18.3038C0.0265824 17.7024 0.466064 17.5957 0.911404 17.323C2.14746 16.5923 3.42947 15.9266 4.751 15.329C6.19397 14.6492 7.5798 13.8759 8.97588 13.1355C10.6291 12.2581 12.2757 11.3642 13.9508 10.5211C15.3623 9.8103 16.7811 9.09098 18.1618 8.34729C20.9356 6.85595 23.7468 5.42192 26.5222 3.93388C28.5833 2.82789 30.6533 1.73179 32.7569 0.69299C33.1034 0.521723 33.0843 0.135056 33.6234 0.0448114C34.079 -0.0116778 34.5425 0.0143523 34.9866 0.12137C35.4308 0.228387 35.8467 0.41423 36.2098 0.667958C38.602 1.99066 41.088 3.17108 43.4612 4.51882C45.5261 5.692 47.7176 6.67415 49.8249 7.79001C52.2831 9.0923 54.7691 10.3551 57.239 11.6429C59.6202 12.8839 62.0103 14.1104 64.3959 15.3455C65.5351 15.9353 66.6724 16.5281 67.8077 17.124C68.2101 17.3759 68.556 17.6937 68.8273 18.0607C69.2434 18.5337 68.8537 19.2846 68.048 19.6417C63.1551 21.8075 58.2615 23.9716 53.3671 26.134C51.8751 26.7927 51.9125 26.7815 52.8661 28.0054C53.8716 29.1563 54.725 30.4084 55.4093 31.7364C56.1121 33.0892 56.6247 34.5156 56.935 35.9825C56.9709 36.2301 57.1064 36.5483 56.7966 36.7657C56.735 36.8092 56.6669 36.8269 56.7314 36.9093C57.3906 37.7458 56.9709 38.616 56.9379 39.5046C56.9249 40.3373 56.7852 41.1644 56.5226 41.963C56.2617 42.9949 55.8646 43.9951 55.3397 44.9423C54.7969 45.7697 54.419 46.7782 53.9143 47.6833C53.6941 48.1328 53.4057 48.5526 53.0573 48.9309C52.6735 49.3037 52.8954 49.4434 53.2309 49.5534C54.8509 50.1093 56.3598 50.898 57.699 51.8885C60.0277 53.5162 61.9045 55.6079 63.1815 57.9988C64.3386 60.1392 65.0056 62.4668 65.143 64.8435C65.1899 65.7189 65.2624 66.5957 65.2676 67.4738C65.2734 68.5047 64.7314 68.9822 63.5741 68.9829C57.7905 68.9829 52.0074 68.9829 46.2248 68.9829C32.7127 68.9829 19.2009 68.9882 5.6893 68.9987C4.16503 68.9987 3.7988 68.4658 3.84567 67.3104C3.79001 65.6758 3.90034 64.04 4.17528 62.4234C4.74297 59.8729 5.92037 57.4639 7.62594 55.3633C8.29236 54.5018 9.04851 53.6994 9.88414 52.9668C11.5674 51.5461 13.5203 50.4082 15.6501 49.6074C16.3445 49.3584 16.1497 49.1621 15.9028 48.8314C13.8638 46.1113 12.5209 43.0184 11.9709 39.7754C11.8385 38.4955 11.8972 37.2055 12.1453 35.9396C12.658 32.4089 14.7858 29.6094 17.1305 26.8408M47.2247 15.4555C46.9559 15.1666 46.5833 14.9713 46.1714 14.9035C44.7238 14.4776 43.235 14.1748 41.7245 13.9991C39.3608 13.7074 36.9801 13.5404 34.5947 13.4991C31.9885 13.4805 29.3849 13.6512 26.8093 14.0096C25.3667 14.1845 23.9468 14.4872 22.5705 14.9134C22.2336 15.0201 21.7926 15.1387 21.7824 15.5207C21.7465 16.8158 21.7684 18.1115 21.7684 19.4645L23.0473 19.0561C23.9023 18.7237 24.8333 18.5801 25.7626 18.6371C25.786 18.6371 25.8124 18.6239 25.8358 18.6174C27.3509 18.2514 28.9155 18.0778 30.4841 18.1016C34.1069 18.0904 37.7392 17.8611 41.3561 18.342C42.8735 18.5152 44.379 18.7651 45.8652 19.0903C47.3748 19.4506 47.3924 19.4915 47.3514 18.064C47.3265 17.1952 47.5411 16.3132 47.2247 15.4555ZM34.5478 66.68C39.8502 66.68 45.1525 66.6715 50.4548 66.6919C51.0298 66.6919 51.2525 66.597 51.2137 66.0332C51.1543 65.1768 51.2488 64.3053 51.1829 63.447C51.1515 63.2884 51.1574 63.1256 51.2003 62.9691C51.2432 62.8127 51.3221 62.666 51.4319 62.5387C51.5417 62.4114 51.68 62.3062 51.8379 62.23C51.9957 62.1537 52.1696 62.1081 52.3483 62.096C52.5436 62.0923 52.7376 62.1258 52.9175 62.1945C53.0974 62.2631 53.2591 62.3652 53.3919 62.4941C53.5247 62.623 53.6256 62.7757 53.688 62.9423C53.7504 63.1088 53.7729 63.2853 53.7539 63.4602C53.7656 64.3706 53.7737 65.2816 53.7487 66.1919C53.7392 66.5555 53.841 66.6906 54.2761 66.6879C56.913 66.6708 59.5499 66.6708 62.1868 66.6879C62.6182 66.6879 62.7501 66.5628 62.7127 66.1952C62.6182 65.2783 62.5472 64.3613 62.4029 63.4464C61.916 60.3416 60.3679 57.4496 57.9729 55.1709C55.8784 53.1636 53.1991 51.7257 50.2402 51.021C47.9996 50.4472 47.9879 50.4835 46.323 51.9801C44.1187 53.9624 41.914 55.9447 39.7088 57.927C38.824 58.7221 38.0314 58.9375 37.1151 57.9665C36.4625 57.2742 35.6905 56.6741 34.98 56.0246C34.7112 55.7789 34.4592 55.5964 34.1186 55.9317C33.4206 56.6188 32.6002 57.1998 31.9725 57.95C31.8613 58.1339 31.7009 58.29 31.5058 58.4043C31.3107 58.5185 31.0871 58.5872 30.8551 58.6043C30.6231 58.6213 30.39 58.5862 30.1769 58.502C29.9638 58.4178 29.7774 58.2872 29.6344 58.122C27.0293 55.7958 24.4271 53.4626 21.8278 51.1224C21.7114 50.9798 21.5555 50.8671 21.3755 50.7957C21.1956 50.7242 20.9979 50.6965 20.8023 50.7153C20.2852 50.7904 19.7512 50.7997 19.2473 50.913C15.9989 51.611 13.0711 53.1975 10.8671 55.4542C7.9067 58.3667 6.31308 62.1957 6.41957 66.1405C6.42836 66.5219 6.50087 66.6846 6.98064 66.6813C9.59164 66.6638 12.2027 66.6664 14.8137 66.6892C15.2832 66.6932 15.3945 66.5522 15.3835 66.1563C15.3557 65.1742 15.3703 64.1914 15.3791 63.2092C15.3436 62.9744 15.4086 62.7361 15.5608 62.5426C15.7223 62.3368 15.9544 62.1844 16.2216 62.1088C16.4888 62.0333 16.7762 62.0387 17.0396 62.1243C17.3168 62.2093 17.5541 62.3756 17.7135 62.5965C17.8729 62.8174 17.9451 63.0801 17.9186 63.3423C17.9741 64.2278 17.9741 65.1154 17.9186 66.0009C17.8761 66.599 18.1281 66.6932 18.7243 66.6912C23.9981 66.6721 29.2719 66.68 34.5515 66.68M65.0734 18.3512C63.4093 17.4765 61.8777 16.6847 60.3607 15.8712C58.6941 14.9775 57.0187 14.0975 55.3345 13.231C52.9269 11.9959 50.5332 10.7378 48.1329 9.49214C46.4775 8.63581 44.8419 7.73731 43.1792 6.89745C40.5057 5.55103 37.8688 4.15126 35.2254 2.76334C35.0468 2.64119 34.8313 2.57048 34.6073 2.56049C34.3832 2.55049 34.161 2.60169 33.9699 2.70735C33.2528 3.09006 32.5108 3.43194 31.7901 3.81268C27.8289 5.89291 23.8787 7.98829 19.9087 10.0593C16.0325 12.0796 12.1387 14.0729 8.25294 16.078C8.06118 16.1514 7.90127 16.279 7.7975 16.4415C7.69373 16.604 7.65175 16.7925 7.67795 16.9785C7.74925 17.6953 7.74925 18.4163 7.67795 19.1331C7.61847 19.4353 7.68835 19.7465 7.87355 20.0042C8.05875 20.2619 8.34555 20.447 8.6763 20.5224C10.2877 21.1152 11.8135 21.8852 13.4117 22.5183C14.9803 23.1563 16.51 23.8691 17.994 24.6538C18.6276 24.9832 18.9675 24.7856 19.1389 24.2244C19.1962 23.9925 19.2194 23.7548 19.2077 23.5175C19.2129 20.7371 19.226 17.9567 19.2004 15.1762C19.1995 14.7057 19.4042 14.2536 19.7703 13.9174C20.8562 12.9168 22.2918 12.2827 23.8362 12.1217C25.3248 11.7704 26.8471 11.547 28.3826 11.4545C29.1019 11.4591 29.9047 11.1962 30.5119 11.2509C31.6941 11.357 32.8251 11.1067 33.9802 11.1745C35.9044 11.2885 37.83 11.3965 39.7571 11.438C40.8492 11.4617 41.8886 11.743 42.9734 11.8207C44.2618 11.9471 45.5285 12.2125 46.7464 12.6112C48.7628 13.2165 50.0593 14.0327 49.9524 16.1307C49.8242 18.6424 49.9216 21.1626 49.9223 23.6796C49.9059 23.8948 49.9113 24.1108 49.9384 24.3251C50.0307 24.7691 50.1582 25.0273 50.8042 24.7303C53.1034 23.6717 55.4466 22.6922 57.7627 21.6613C60.1615 20.5928 62.5457 19.4994 65.0756 18.3532M26.8261 45.3488C26.9761 44.9233 26.9695 44.4656 26.8074 44.0438C26.6452 43.6219 26.3361 43.2584 25.9259 43.007C24.582 42.0507 23.5185 40.8132 22.8283 39.4025C22.7627 39.2507 22.6459 39.1212 22.4943 39.032C22.3428 38.9428 22.164 38.8985 21.9831 38.9052C21.2267 38.8702 20.4859 38.6988 19.8047 38.4013C18.7929 37.912 17.9959 37.1281 17.5445 36.178C17.0931 35.228 17.014 34.1682 17.3202 33.1724C17.4618 32.6347 17.7225 32.1282 18.0867 31.6832C18.4509 31.2382 18.9112 30.8637 19.4399 30.5823C20.4222 30.1067 21.8666 30.0593 21.4842 28.51C21.4703 28.454 21.5458 28.3782 21.5729 28.3124C21.6509 28.0833 21.8106 27.8836 22.0273 27.7442C22.2439 27.6048 22.5056 27.5334 22.7719 27.541C23.5044 27.4949 24.2457 27.7235 25.0023 27.3566C25.222 27.2492 25.86 27.5087 26.3207 27.3809C27.0522 27.1928 27.7282 26.8612 28.3001 26.4099C28.8719 25.9586 29.3254 25.3989 29.6278 24.7711C29.7743 24.4813 30.1545 24.2718 30.0563 23.8917C29.992 23.4749 30.0282 23.0505 30.1625 22.6474C30.1963 22.4045 30.3312 22.1821 30.5402 22.0253C30.7492 21.8684 31.0166 21.7887 31.2883 21.8022C31.5848 21.779 31.8805 21.8539 32.12 22.0128C32.3595 22.1716 32.5263 22.4036 32.5892 22.6652C32.76 23.5531 33.1699 24.3898 33.7831 25.1024C34.2631 25.8306 34.9421 26.4363 35.7556 26.8621C36.5692 27.2879 37.4903 27.5195 38.4314 27.5351C40.8807 27.6009 43.3338 27.5561 45.7854 27.5588C47.3133 27.5588 47.5521 27.7498 47.5081 29.1397C47.4905 29.6937 47.6934 29.9084 48.2809 30.0757C49.1599 30.2605 49.9587 30.6745 50.5772 31.2658C51.1957 31.8571 51.6064 32.5993 51.7579 33.3996C52.3812 36.273 50.2388 38.867 47.0701 38.9157C46.6753 38.9217 46.427 39.0007 46.2783 39.3492C45.6267 40.8295 44.5304 42.1178 43.1118 43.0703C42.1801 43.7165 42.1728 44.4345 42.2885 45.3145C43.3455 44.7124 43.9732 44.6354 44.442 45.1927C45.2199 46.1228 46.3384 46.7334 47.1375 47.6174C47.4574 47.9278 47.8476 48.173 48.2817 48.3365C48.7158 48.5 49.1838 48.578 49.6543 48.5653C49.8484 48.591 50.0467 48.5633 50.2231 48.4859C50.3994 48.4084 50.5456 48.2848 50.6424 48.1312C51.1646 47.4725 51.5521 46.7433 52.0165 46.0569C53.8148 43.341 54.733 40.2271 54.6673 37.0667C54.737 36.6859 54.7253 36.2967 54.6328 35.9199C54.4049 35.5259 54.2147 35.1151 54.0644 34.692C53.1559 32.4185 51.8072 30.3074 50.0805 28.4566C48.5138 26.6959 46.8152 24.9832 47.3543 22.4432C47.4378 22.048 47.073 21.9109 46.7581 21.7772C45.84 21.4159 44.8744 21.1615 43.8846 21.0204C42.1642 20.7135 40.4198 20.5285 38.6672 20.467C37.0624 20.4229 35.4488 20.2641 33.8417 20.2529C31.9673 20.2716 30.0963 20.4025 28.2413 20.6449C26.4097 20.7889 24.6002 21.1067 22.843 21.5928C22.0871 21.8293 21.671 22.1421 21.7736 22.9234C21.8606 23.6743 21.7713 24.4333 21.5115 25.1512C21.2517 25.8692 20.8272 26.53 20.2654 27.0911C19.7908 27.6082 19.3337 28.1385 18.8884 28.6766C17.5732 30.1505 16.4631 31.7634 15.5827 33.4793C15.0098 34.7558 14.628 36.095 14.4474 37.4619C14.2574 38.1745 14.2349 38.9149 14.3815 39.6357C14.7118 40.4756 14.8532 41.3536 15.1682 42.1922C15.934 44.1666 16.9612 46.0509 18.2277 47.8045C18.58 48.3051 18.9279 48.7748 19.634 48.5291C20.22 48.3249 20.8953 48.6325 21.4227 48.1127C22.3552 47.1905 23.3586 46.3303 24.3526 45.4594C25.2931 44.6341 25.7011 44.6196 26.8283 45.354M24.045 33.0848C24.1753 33.8831 23.8889 34.9094 24.1314 35.9304C24.5937 37.9447 25.7376 39.7811 27.4063 41.1876C28.5042 42.15 29.8349 42.8708 31.2942 43.2936C32.7535 43.7164 34.3018 43.8298 35.8179 43.6249C38.4579 43.3653 40.8784 42.1823 42.5566 40.3313C43.8613 38.929 44.6974 37.2229 44.9679 35.4107C45.119 33.7441 45.1679 32.0713 45.1144 30.3998C45.1342 29.9387 44.9555 29.8465 44.4823 29.8518C42.5105 29.8735 40.5387 29.8821 38.5669 29.8557C37.2836 29.8493 36.0191 29.5773 34.8715 29.0607C33.7239 28.5442 32.7239 27.797 31.949 26.877C31.8025 26.7176 31.6685 26.487 31.3784 26.5707C31.1477 26.6366 30.9126 26.7973 30.9148 27.0127C30.9044 27.1544 30.8586 27.2922 30.7807 27.4157C30.7028 27.5392 30.5949 27.6453 30.465 27.7261C29.738 28.4335 28.8488 28.9904 27.859 29.3584C26.8691 29.7265 25.8022 29.8968 24.732 29.8577C24.1717 29.8307 23.9951 29.9763 24.0266 30.4861C24.0757 31.2766 24.0398 32.067 24.0398 33.0788M29.4513 45.0491C29.4513 46.0042 29.4594 46.8572 29.4454 47.7103C29.4418 47.9402 29.6066 48.0449 29.7538 48.1773C31.1836 49.4638 32.6244 50.7391 34.0322 52.0446C34.3801 52.3674 34.5573 52.2627 34.8555 52.0104C35.5879 51.3912 36.2992 50.7535 37.0192 50.1278C38.4182 48.9124 40.234 47.8499 39.7044 45.6439C39.5931 45.1828 39.5967 45.0128 39.0349 45.244C37.9417 45.6766 36.7675 45.9198 35.574 45.9607C33.4784 46.1702 31.3591 45.8545 29.4506 45.0484M32.7342 53.8805C32.5549 53.7927 32.3856 53.6892 32.2288 53.5715C30.528 52.0534 28.8321 50.5307 27.1411 49.0033C25.5172 47.543 25.5341 47.5588 23.9131 48.9921C23.4868 49.3689 23.5754 49.5507 23.9497 49.8794C25.6637 51.3859 27.3477 52.9194 29.0426 54.443C30.7947 56.0174 30.7939 56.0174 32.4295 54.2928C32.4639 54.2566 32.5094 54.227 32.5394 54.1888C32.5826 54.1334 32.6126 54.0722 32.7372 53.8818M38.4123 55.7921C38.5918 55.6498 38.7551 55.5345 38.9009 55.4034C40.6141 53.866 42.3318 52.3325 44.0282 50.7832C44.5087 50.3451 45.3466 49.9796 45.3525 49.4308C45.3583 48.8821 44.4698 48.5515 44.0479 48.068C43.6722 47.6372 43.407 47.6819 42.9866 48.068C40.838 50.0226 38.6675 51.9572 36.4749 53.8719C36.242 54.0761 36.3643 54.1683 36.5094 54.2507C37.0727 54.6461 37.5992 55.0823 38.0834 55.5549C38.1787 55.6313 38.2812 55.7005 38.4101 55.7954M7.67795 33.314V31.5888C7.67795 29.8379 7.67795 29.8531 5.73178 29.8801C5.27692 29.8867 5.15313 30.0006 5.15972 30.4031C5.18463 31.9603 5.16998 33.5182 5.16998 35.0754C5.16998 36.7914 5.16998 36.7703 7.09051 36.7657C7.61642 36.7657 7.70065 36.6036 7.68747 36.1886C7.65671 35.2309 7.67795 34.2724 7.67795 33.314ZM21.4615 34.1578C21.4615 33.5828 21.4549 33.1039 21.4615 32.6263C21.4681 32.2699 21.3216 32.2278 20.9774 32.3674C20.6578 32.5286 20.3817 32.7512 20.169 33.0195C19.9562 33.2878 19.8121 33.5951 19.7468 33.9194C19.6144 34.3898 19.6593 34.8864 19.8742 35.3315C20.0892 35.7765 20.4622 36.1449 20.9349 36.379C21.0203 36.4303 21.1184 36.4619 21.2206 36.471C21.3228 36.4801 21.426 36.4664 21.5209 36.4311C21.5731 36.365 21.6067 36.2885 21.6189 36.2082C21.631 36.1279 21.6212 36.0461 21.5905 35.9699C21.2887 35.3422 21.5795 34.694 21.4637 34.1611M47.6458 32.295C47.6819 33.4553 47.6435 34.6166 47.5308 35.773C47.5176 36.0049 47.0994 36.2894 47.4971 36.4508C47.8494 36.5938 48.1857 36.3527 48.4808 36.1326C49.77 35.1703 49.5957 32.791 47.6466 32.2943M3.90061 18.4527C4.44703 18.4197 4.70632 18.9355 5.0396 18.7293C5.28058 18.5805 5.15313 18.1701 5.08208 17.842C4.6446 17.968 4.24188 18.1762 3.90061 18.4527Z" fill="black"/>
<path d="M34.5484 66.6833C29.2746 66.6833 23.9972 66.6754 18.7212 66.6945C18.1272 66.6945 17.8752 66.6023 17.9155 66.0042C17.9711 65.1187 17.9711 64.2311 17.9155 63.3456C17.9422 63.0833 17.87 62.8206 17.7105 62.5997C17.5511 62.3788 17.3137 62.2125 17.0365 62.1276C16.7731 62.0419 16.4857 62.0364 16.2185 62.1119C15.9513 62.1875 15.7191 62.34 15.5577 62.5459C15.4055 62.7394 15.3405 62.9776 15.376 63.2125C15.3672 64.1947 15.3526 65.1781 15.3804 66.1596C15.3914 66.5548 15.2808 66.6965 14.8106 66.6925C12.1996 66.6701 9.58856 66.6675 6.97755 66.6846C6.49779 66.6879 6.42527 66.5252 6.41648 66.1438C6.31164 62.1992 7.90654 58.3709 10.8677 55.4594C13.0709 53.2014 15.9985 51.6134 19.2471 50.9142C19.7511 50.7977 20.285 50.7891 20.8022 50.7166C20.9978 50.6978 21.1954 50.7255 21.3754 50.797C21.5553 50.8684 21.7113 50.9811 21.8276 51.1237C24.4225 53.4661 27.0255 55.8013 29.6365 58.1292C29.7795 58.2944 29.966 58.4249 30.1791 58.5091C30.3923 58.5932 30.6254 58.6283 30.8574 58.6112C31.0894 58.5941 31.313 58.5253 31.508 58.411C31.703 58.2967 31.8634 58.1405 31.9745 57.9566C32.6022 57.207 33.4226 56.626 34.1206 55.9383C34.4612 55.603 34.7132 55.7855 34.982 56.0312C35.6918 56.68 36.4638 57.2827 37.1172 57.9731C38.0335 58.944 38.8253 58.7286 39.7108 57.9335C41.9165 55.9521 44.1213 53.9698 46.325 51.9867C47.9899 50.4894 48.0016 50.4538 50.2423 51.0275C53.2011 51.7323 55.8804 53.1702 57.9749 55.1775C60.37 57.4564 61.9181 60.3486 62.4049 63.4536C62.5514 64.3679 62.6203 65.2855 62.7147 66.2018C62.7528 66.5693 62.621 66.6978 62.1888 66.6945C59.5519 66.6774 56.9151 66.6774 54.2782 66.6945C53.8431 66.6945 53.7405 66.5627 53.7501 66.1985C53.7742 65.2881 53.7669 64.3771 53.7552 63.4668C53.7742 63.2919 53.7517 63.1153 53.6893 62.9488C53.6269 62.7823 53.526 62.6296 53.3932 62.5007C53.2604 62.3718 53.0987 62.2697 52.9188 62.201C52.7389 62.1324 52.5449 62.0989 52.3496 62.1026C52.1709 62.1146 51.997 62.1603 51.8392 62.2365C51.6813 62.3128 51.543 62.418 51.4332 62.5453C51.3234 62.6726 51.2445 62.8192 51.2016 62.9757C51.1587 63.1322 51.1528 63.295 51.1842 63.4536C51.2501 64.3099 51.1564 65.1808 51.215 66.0397C51.2538 66.6029 51.0311 66.6984 50.4561 66.6984C45.1538 66.6787 39.8515 66.6866 34.5491 66.6866" fill="#5299D3"/>
<path d="M65.0734 18.3512C62.5435 19.4968 60.1586 20.5909 57.7605 21.6593C55.4459 22.6909 53.1027 23.6704 50.802 24.7283C50.1575 25.0247 50.0293 24.7672 49.937 24.3232C49.91 24.1089 49.9046 23.8928 49.9209 23.6776C49.9209 21.1607 49.8227 18.6398 49.9509 16.1287C50.0578 14.0307 48.7621 13.2146 46.7449 12.6092C45.5273 12.2106 44.2608 11.9452 42.9727 11.8187C41.8879 11.741 40.8485 11.4591 39.7564 11.436C37.8293 11.3945 35.9029 11.2865 33.9794 11.1725C32.8243 11.1067 31.6934 11.355 30.5112 11.249C29.9047 11.1943 29.1019 11.4571 28.3826 11.4525C26.8472 11.5461 25.3251 11.7709 23.8369 12.1237C22.2925 12.2846 20.8568 12.9187 19.771 13.9194C19.4048 14.2556 19.2002 14.7076 19.2011 15.1782C19.226 17.9587 19.2136 20.7391 19.2085 23.5195C19.2202 23.7568 19.1973 23.9944 19.1403 24.2263C18.9689 24.7869 18.6276 24.9845 17.9955 24.6558C16.5113 23.8706 14.9814 23.1573 13.4124 22.519C11.8142 21.8859 10.2892 21.1192 8.67703 20.523C8.34641 20.4476 8.05979 20.2624 7.87474 20.0047C7.68968 19.747 7.6199 19.4359 7.67941 19.1338C7.75069 18.417 7.75069 17.6959 7.67941 16.9791C7.65321 16.7932 7.69519 16.6047 7.79896 16.4422C7.90273 16.2797 8.06264 16.152 8.2544 16.0787C12.1401 14.0735 16.0339 12.0803 19.9102 10.06C23.8794 7.99094 27.8289 5.89292 31.7901 3.81335C32.5101 3.43525 33.255 3.08876 33.9699 2.70802C34.161 2.60237 34.3832 2.55117 34.6073 2.56116C34.8313 2.57116 35.0468 2.64187 35.2254 2.76402C37.8696 4.15325 40.5064 5.54841 43.1792 6.89681C44.8419 7.73667 46.4753 8.63253 48.1329 9.4915C50.5332 10.7371 52.9269 11.9946 55.3345 13.2304C57.0168 14.0933 58.6922 14.9733 60.3607 15.8705C61.8777 16.684 63.4085 17.4765 65.0734 18.3512Z" fill="#5299D3"/>
<path d="M26.8255 45.3488C25.6982 44.6137 25.2873 44.6288 24.3498 45.4542C23.358 46.3244 22.3552 47.1873 21.4199 48.1075C20.8925 48.6273 20.2142 48.3196 19.6312 48.5238C18.9251 48.7715 18.5772 48.3018 18.2249 47.7992C16.9584 46.0456 15.9311 44.1613 15.1653 42.187C14.8496 41.3484 14.709 40.4704 14.3787 39.6305C14.2321 38.9097 14.2545 38.1693 14.4446 37.4567C14.6252 36.0898 15.0069 34.7506 15.5799 33.4741C16.4604 31.7581 17.5707 30.1452 18.8863 28.6714C19.3316 28.1339 19.7879 27.603 20.2626 27.0859C20.824 26.525 21.2484 25.8645 21.5081 25.1469C21.7679 24.4294 21.8574 23.6707 21.7707 22.9201C21.6719 22.1396 22.0842 21.8267 22.8401 21.5902C24.5974 21.104 26.4069 20.7862 28.2384 20.6423C30.0935 20.3998 31.9645 20.2689 33.8389 20.2504C35.4459 20.2616 37.0617 20.421 38.6644 20.4644C40.4169 20.526 42.1614 20.711 43.8818 21.0178C44.8715 21.1593 45.8372 21.4139 46.7552 21.7753C47.0702 21.907 47.435 22.0493 47.3515 22.4413C46.8124 24.98 48.511 26.6966 50.0784 28.454C51.805 30.3047 53.1537 32.4155 54.0623 34.6888C54.2127 35.1119 54.4028 35.5226 54.6307 35.9166C54.7231 36.2935 54.7348 36.6827 54.6652 37.0635C54.7306 40.2239 53.8122 43.3378 52.0136 46.0536C51.5492 46.74 51.1625 47.4686 50.6395 48.1279C50.5427 48.2815 50.3966 48.4051 50.2202 48.4826C50.0439 48.5601 49.8456 48.5878 49.6514 48.562C49.1808 48.5751 48.7125 48.4973 48.2781 48.3339C47.8438 48.1705 47.4534 47.9253 47.1332 47.6148C46.3341 46.7308 45.2156 46.1202 44.4377 45.1901C43.9719 44.6328 43.339 44.7099 42.2842 45.3119C42.1685 44.4319 42.1758 43.7139 43.1075 43.0677C44.5261 42.1152 45.6223 40.8269 46.274 39.3466C46.4205 38.9975 46.671 38.9191 47.0658 38.9125C50.2323 38.8644 52.3747 36.2691 51.7536 33.3964C51.6021 32.5961 51.1914 31.8538 50.5729 31.2625C49.9544 30.6713 49.1556 30.2573 48.2766 30.0725C47.6906 29.9052 47.4862 29.6904 47.5038 29.1365C47.5478 27.7492 47.309 27.5595 45.7811 27.5555C43.3295 27.5555 40.8735 27.5997 38.4271 27.5318C37.4863 27.5169 36.5654 27.286 35.7518 26.861C34.9381 26.4361 34.2588 25.8312 33.7781 25.1038C33.1649 24.3912 32.755 23.5544 32.5842 22.6665C32.5198 22.4069 32.353 22.1771 32.1146 22.0196C31.8762 21.8621 31.5824 21.7877 31.2877 21.8102C31.0159 21.7966 30.7485 21.8763 30.5396 22.0332C30.3306 22.1901 30.1956 22.4124 30.1619 22.6553C30.0276 23.0584 29.9913 23.4828 30.0557 23.8997C30.1538 24.2797 29.7715 24.4886 29.6272 24.779C29.3247 25.4069 28.8713 25.9665 28.2994 26.4178C27.7276 26.8691 27.0516 27.2007 26.3201 27.3889C25.863 27.5167 25.2273 27.2571 25.0017 27.3645C24.245 27.7314 23.5045 27.5028 22.7713 27.549C22.505 27.5413 22.2433 27.6128 22.0266 27.7522C21.8099 27.8916 21.6502 28.0912 21.5722 28.3203C21.5451 28.3862 21.4697 28.4593 21.4836 28.5179C21.866 30.0672 20.4215 30.114 19.4393 30.5902C18.9108 30.8714 18.4508 31.2454 18.0866 31.6899C17.7224 32.1345 17.4615 32.6405 17.3195 33.1777C17.0133 34.1735 17.0924 35.2333 17.5438 36.1833C17.9953 37.1334 18.7922 37.9173 19.8041 38.4066C20.4853 38.704 21.2261 38.8754 21.9824 38.9105C22.1634 38.9039 22.3421 38.9483 22.4936 39.0375C22.6451 39.1266 22.7619 39.2561 22.8277 39.4078C23.5178 40.8186 24.5813 42.0561 25.9253 43.0123C26.3355 43.2637 26.6446 43.6273 26.8067 44.0491C26.9689 44.471 26.9755 44.9286 26.8255 45.3541" fill="#356287"/>
<path d="M24.0398 33.0795C24.0398 32.0684 24.0764 31.2753 24.0266 30.4868C23.9943 29.977 24.1731 29.8281 24.7319 29.8584C25.8019 29.8974 26.8684 29.7271 27.858 29.3592C28.8476 28.9913 29.7365 28.4345 30.4635 27.7275C30.5935 27.6467 30.7015 27.5406 30.7795 27.4171C30.8575 27.2936 30.9035 27.1558 30.914 27.0141C30.914 26.7987 31.1469 26.6386 31.3769 26.5721C31.6699 26.4878 31.8032 26.7183 31.9475 26.8784C32.7224 27.7984 33.7223 28.5456 34.87 29.0621C36.0176 29.5787 37.282 29.8507 38.5653 29.8571C40.5371 29.8834 42.5089 29.8749 44.4807 29.8531C44.9539 29.8479 45.1327 29.9375 45.1129 30.4012C45.1664 32.0726 45.1175 33.7455 44.9664 35.4121C44.6959 37.2242 43.8598 38.9304 42.5551 40.3327C40.8768 42.1837 38.4564 43.3667 35.8164 43.6263C34.3003 43.8302 32.7523 43.7159 31.2936 43.2922C29.8348 42.8686 28.5048 42.1472 27.4076 41.1844C25.7366 39.7778 24.5908 37.9404 24.1277 35.9245C23.8852 34.9035 24.1716 33.8779 24.0412 33.0789" fill="#FFCCAA"/>
<path d="M47.2247 15.4548C47.5419 16.3112 47.3265 17.1939 47.3514 18.0627C47.3925 19.4901 47.3749 19.446 45.8653 19.089C44.379 18.7638 42.8736 18.5139 41.3562 18.3407C37.74 17.8598 34.1048 18.089 30.4842 18.1002C28.9156 18.0765 27.351 18.2501 25.8359 18.616C25.811 18.6226 25.7846 18.6391 25.7627 18.6358C24.8336 18.5789 23.9028 18.7228 23.0481 19.0554C23.0634 18.8407 23.0588 18.6252 23.0342 18.4112C22.7889 17.2123 23.533 16.6003 24.6317 16.1906C24.8024 16.1248 24.9789 16.0727 25.1525 16.0154C28.4831 14.92 31.9828 14.8159 35.462 14.6137C37.5576 14.4918 39.6488 14.7131 41.7429 14.7625C42.4276 14.8036 43.1089 14.8806 43.7836 14.9931C44.9321 15.1419 46.0792 15.3007 47.2262 15.4542" fill="#A0C7E7"/>
<path d="M29.4505 45.0497C31.3591 45.8557 33.4783 46.1714 35.5739 45.962C36.7674 45.921 37.9416 45.6778 39.0349 45.2453C39.5967 45.0141 39.593 45.1795 39.7043 45.6452C40.2339 47.8506 38.4181 48.9131 37.0191 50.1291C36.2998 50.7542 35.5857 51.3925 34.8554 52.0117C34.558 52.264 34.38 52.3687 34.0321 52.0459C32.6243 50.741 31.1835 49.4651 29.7537 48.1786C29.6073 48.0468 29.4417 47.9421 29.4454 47.7116C29.4593 46.8585 29.4512 46.0055 29.4512 45.0503" fill="#FFCCAA"/>
<path d="M47.2246 15.4555C46.0769 15.3007 44.9298 15.1419 43.782 14.9944C43.1074 14.8819 42.426 14.8049 41.7414 14.7638C39.648 14.7144 37.5561 14.4931 35.4605 14.615C31.9812 14.8172 28.4815 14.9213 25.151 16.0167C24.9766 16.074 24.8009 16.128 24.6302 16.1919C23.5315 16.6017 22.7873 17.2143 23.0327 18.4131C23.0572 18.6271 23.0619 18.8426 23.0466 19.0573L21.7677 19.4658C21.7677 18.1134 21.745 16.8171 21.7816 15.522C21.7926 15.14 22.2328 15.0214 22.5698 14.9147C23.9462 14.4887 25.366 14.1859 26.8085 14.0109C29.3842 13.6524 31.9878 13.4817 34.594 13.5004C36.9794 13.5417 39.3601 13.7087 41.7238 14.0004C43.2345 14.1761 44.7235 14.4789 46.1714 14.9048C46.5833 14.9727 46.9558 15.168 47.2246 15.4568" fill="#5299D3"/>
<path d="M32.7352 53.8812C32.6143 54.0709 32.5806 54.1328 32.5381 54.1881C32.5081 54.227 32.4649 54.254 32.4283 54.2922C30.7934 56.0174 30.7934 56.0174 29.0421 54.443C27.3471 52.9194 25.6624 51.3859 23.9492 49.8794C23.5756 49.5501 23.487 49.3689 23.9126 48.9922C25.5335 47.5588 25.516 47.543 27.1406 49.0034C28.835 50.5276 30.5309 52.0504 32.2283 53.5716C32.386 53.6896 32.5562 53.7933 32.7366 53.8812" fill="#A0C7E7"/>
<path d="M38.41 55.7901C38.2811 55.6953 38.1785 55.6261 38.0833 55.5497C37.599 55.0771 37.0726 54.6409 36.5092 54.2455C36.3627 54.1625 36.2419 54.0709 36.4755 53.8667C38.6627 51.9472 40.8332 50.0125 42.9872 48.0627C43.4076 47.68 43.6728 47.6352 44.0485 48.0627C44.4704 48.5462 45.3589 48.8743 45.353 49.4256C45.3472 49.977 44.5092 50.3406 44.0287 50.778C42.3294 52.3273 40.6118 53.8608 38.9015 55.3982C38.755 55.53 38.5916 55.6452 38.4129 55.7869" fill="#A0C7E7"/>
<path d="M7.67785 33.314C7.67785 34.2724 7.65661 35.2315 7.68737 36.1893C7.70055 36.6043 7.61412 36.765 7.09041 36.7657C5.16914 36.7696 5.16914 36.7914 5.16914 35.0754C5.16914 33.5182 5.18379 31.9603 5.15889 30.4031C5.15303 30.0006 5.27608 29.8867 5.73095 29.8801C7.67712 29.8531 7.67638 29.8379 7.67638 31.5888V33.314" fill="#FFCCAA"/>
<path d="M21.4636 34.1579C21.5793 34.6908 21.2885 35.3396 21.5903 35.9667C21.6206 36.0431 21.6298 36.1251 21.617 36.2054C21.6043 36.2857 21.57 36.3621 21.5171 36.4278C21.4222 36.4631 21.319 36.4768 21.2168 36.4678C21.1146 36.4587 21.0165 36.4271 20.9311 36.3758C20.4597 36.1412 20.088 35.7728 19.874 35.3282C19.66 34.8836 19.6157 34.3877 19.7481 33.9181C19.8134 33.5938 19.9576 33.2866 20.1703 33.0183C20.383 32.75 20.6591 32.5273 20.9787 32.3662C21.323 32.2265 21.4702 32.2687 21.4629 32.6257C21.4541 33.1039 21.4629 33.5822 21.4629 34.1572" fill="#FFCCAA"/>
<path d="M47.6452 32.2916C49.5943 32.789 49.7694 35.1676 48.4795 36.1306C48.1865 36.3506 47.8488 36.5917 47.4965 36.4481C47.0995 36.2867 47.517 36.0022 47.5302 35.7703C47.643 34.6137 47.6814 33.4522 47.6452 32.2916Z" fill="#FFCCAA"/>
<path d="M3.8999 18.4527C4.24117 18.1762 4.64389 17.968 5.08137 17.842C5.15462 18.1714 5.27987 18.5805 5.03889 18.7293C4.70415 18.9355 4.44632 18.4197 3.8999 18.4527Z" fill="#5299D3"/>
</g>
<defs>
<clipPath id="clip0_119_225">
<rect width="69" height="69" fill="white"/>
</clipPath>
</defs>
</svg>
