<svg width="70" height="70" viewBox="0 0 70 70" fill="none" xmlns="http://www.w3.org/2000/svg">
<path d="M69.0001 65.739C68.5503 66.3312 68.4866 67.2526 67.951 67.8012C67.363 68.5064 66.6129 68.9227 65.8241 68.9816C44.9672 68.9816 24.1103 68.9899 3.25332 69.0063C2.391 68.962 1.57388 68.4786 0.969439 67.6553C0.365001 66.8319 0.0189476 65.7309 0.00195312 64.5775C0.0445309 48.069 0.0271325 31.5605 0.0326861 15.052C0.0326861 13.5045 0.930611 12.1534 2.33012 11.5273C2.73549 11.3769 3.15663 11.3167 3.57662 11.3491H27.219C27.3532 11.3611 27.4878 11.3592 27.6218 11.3433C27.7594 11.3145 27.9767 11.4877 28.0193 11.1982C28.0618 10.9086 27.8343 10.8402 27.6776 10.756C26.3552 10.0507 25.0347 9.33721 23.7049 8.65585C23.1125 8.35229 22.6482 7.98604 22.6488 6.99122C22.6488 6.03435 23.1203 5.82895 23.6645 5.54602C26.3599 4.14371 29.0332 2.67128 31.7286 1.2698C32.669 0.780638 33.5373 -0.0500246 34.6073 0.00936741C35.5717 0.0662847 36.3782 0.788887 37.2458 1.23598C39.8992 2.60529 42.5421 4.02905 45.1911 5.42393C46.1538 5.93042 46.3677 6.34369 46.3677 7.78724C46.3677 8.74741 46.3939 9.71006 46.3581 10.6678C46.3377 11.218 46.4458 11.373 46.8703 11.3648C48.7332 11.3301 50.5972 11.3499 52.4601 11.3499C56.5241 11.3499 60.5883 11.4143 64.6517 11.3235C66.7498 11.2765 68.3442 12.042 69.002 14.953L69.0001 65.739ZM66.8217 63.214C66.8313 63.1553 66.8379 63.0957 66.841 63.0358C66.841 47.3437 66.841 31.6513 66.841 15.9586C66.8609 15.7204 66.8397 15.4792 66.7792 15.2536C66.7187 15.0279 66.6206 14.8238 66.4921 14.6566C66.3636 14.4895 66.2081 14.3639 66.0377 14.2893C65.8673 14.2147 65.6862 14.1932 65.5086 14.2263C59.3145 14.2205 53.1205 14.2321 46.9257 14.2073C46.4253 14.2073 46.339 14.4301 46.3563 15.024C46.3896 16.1623 46.3822 17.3048 46.3563 18.444C46.3416 18.8456 46.2159 19.2256 46.0038 19.5107C45.7917 19.7957 45.508 19.9656 45.2077 19.9873C44.6159 19.9873 44.2206 19.3794 44.2113 18.4201C44.2002 17.2198 44.1927 16.0188 44.2161 14.8194C44.2248 14.3492 44.1248 14.1958 43.7657 14.2115C42.9808 14.2461 42.1947 14.2478 41.4098 14.2115C41.0395 14.1942 40.9591 14.3765 40.9678 14.8301C40.99 15.9396 40.9803 17.0499 40.9741 18.1602C41.0008 18.4042 40.985 18.6532 40.928 18.8877C40.871 19.1222 40.7743 19.336 40.6454 19.5124C40.5165 19.6888 40.3587 19.823 40.1847 19.9047C40.0106 19.9864 39.8248 20.0132 39.6417 19.9832C36.1631 19.9904 32.6844 19.9904 29.2058 19.9832C29.0498 20.0148 28.8904 19.9974 28.7403 19.9324C28.5902 19.8674 28.4536 19.7565 28.341 19.6086C28.2285 19.4607 28.1433 19.2798 28.0922 19.0802C28.041 18.8806 28.0253 18.6679 28.0464 18.4588C28.0316 17.3188 28.0082 16.1764 28.0551 15.0397C28.0829 14.3525 27.9224 14.2057 27.4257 14.2082C22.5329 14.2346 17.6401 14.2205 12.7474 14.2255C9.94281 14.2255 7.13779 14.2436 4.33259 14.2535C3.97407 14.2445 3.61604 14.2156 3.25814 14.2304C3.11292 14.2144 2.96671 14.241 2.82999 14.3084C2.69327 14.3758 2.56927 14.4823 2.46662 14.6206C2.36396 14.7588 2.28521 14.9254 2.23582 15.1087C2.18642 15.2919 2.16758 15.4874 2.18068 15.6814C2.16649 18.4382 2.17691 21.1942 2.17074 23.9509C2.17074 24.2405 2.18763 24.4937 2.43076 24.5795C3.08046 24.9178 3.71362 25.3098 4.32686 25.7533C4.51198 26.3357 5.00567 26.4767 5.26422 26.9774C6.06726 28.4942 6.49399 30.3095 6.4842 32.1676C6.4842 37.2894 6.46143 42.4111 6.49414 47.5328C6.5108 50.1114 6.08869 52.4145 4.59291 54.1971C4.02661 54.8932 3.34776 55.405 2.60913 55.6926C2.23889 55.8106 2.1598 56.0919 2.1635 56.5778C2.18387 59.1531 2.17035 61.7292 2.17405 64.3053C2.17405 65.6738 2.49909 66.0953 3.54317 66.0961C7.77812 66.0961 12.0124 66.1052 16.2461 66.0887C16.9311 66.0887 17.8705 66.5012 18.229 65.9064C18.5715 65.3422 18.3195 64.137 18.3299 63.2132C18.4192 62.4674 18.6547 61.7667 19.0124 61.1821C19.3701 60.5976 19.8374 60.1502 20.3665 59.8856C21.3268 59.3913 22.3163 59.005 23.3246 58.7307C24.312 58.4733 25.114 57.6262 26.184 57.5354C27.069 57.3558 27.9328 57.023 28.7535 56.5456C28.9053 56.4746 29.0905 56.4466 29.0973 56.2041C29.16 55.479 29.1497 54.7461 29.0666 54.0247C29.0049 53.6816 28.5611 53.4291 28.2606 53.2064C27.8594 52.8796 27.5137 52.4444 27.2455 51.9287C26.9135 51.3455 26.4027 50.9471 26.1879 50.3003C25.999 49.7109 25.7797 49.1398 25.5314 48.5912C25.0192 47.4924 24.3266 46.5059 24.0502 45.2644C23.9948 44.9632 23.8796 44.6875 23.7166 44.4667C23.5537 44.2458 23.3491 44.0879 23.1246 44.0098C21.1123 43.0867 20.491 41.9409 20.4972 39.0975C20.4345 37.9636 20.4584 36.824 20.5683 35.6965C20.8911 33.6772 22.0548 32.7269 23.4889 32.4588C23.6792 32.4473 23.8606 32.3473 24.0017 32.1761C24.1427 32.0048 24.2346 31.7731 24.2614 31.5209C24.832 29.0834 25.9857 26.9639 27.5453 25.4885C28.6278 24.3873 29.8785 23.6178 31.2083 23.2346C32.538 22.8514 33.9145 22.8639 35.2403 23.2712C36.5067 23.6 37.7176 24.2355 38.8132 25.1462C40.592 26.6202 41.9025 28.9183 42.4945 31.6018C42.5562 31.8798 42.5143 32.4374 42.9036 32.3945C43.3421 32.4254 43.7722 32.5679 44.1706 32.8144C44.6962 32.9992 45.1703 33.3836 45.5358 33.9212C45.9014 34.4587 46.1427 35.1264 46.2303 35.8434C46.378 36.9964 46.4193 38.1694 46.3536 39.3359C46.3829 40.2728 46.1944 41.1988 45.8139 41.9866C45.4335 42.7743 44.8799 43.3852 44.2291 43.7351C43.3504 44.2135 42.6155 44.6004 42.2836 46.0505C41.9014 47.3937 41.3652 48.6494 40.6945 49.7724C39.9472 51.1912 39.2912 52.7074 38.1126 53.6073C37.8041 53.8416 37.5536 56.1315 37.7881 56.4705C37.8239 56.5233 37.9042 56.52 37.9641 56.5448C40.4941 57.5651 43.0062 58.6754 45.5602 59.5713C47.0955 60.1099 48.0943 61.1806 48.4868 63.2363C48.5228 63.8331 48.5296 64.4324 48.5067 65.0304C48.4382 65.8676 48.6102 66.1275 49.2853 66.1217C54.4859 66.0772 59.6867 66.0582 64.8867 66.1217C66.6516 66.1423 66.9404 65.3983 66.8374 63.393C66.8343 63.3336 66.8249 63.2742 66.8181 63.2148M25.8984 38.4681C25.8984 40.32 25.9021 41.7001 25.8984 43.0809C25.9028 43.7569 26.0551 44.4164 26.3365 44.9782C27.0807 46.538 27.8224 48.1028 28.6228 49.6099C28.9268 50.2779 29.3598 50.8241 29.8762 51.1915C30.3925 51.5588 30.9732 51.7337 31.5575 51.6977C32.857 51.6152 34.1647 51.7662 35.4618 51.6622C35.919 51.6565 36.3695 51.5136 36.78 51.2442C37.1904 50.9748 37.5503 50.5858 37.8333 50.1057C38.8305 48.385 39.6475 46.5075 40.5854 44.7381C40.724 44.442 40.8131 44.1095 40.847 43.7631C40.9793 42.5863 41.0219 41.3945 40.9741 40.2062C41.0736 37.9501 40.9818 35.6862 40.7002 33.4578C40.3049 31.1419 39.2803 29.1048 37.8252 27.7413C37.4772 27.4023 37.2734 27.5112 37.2129 28.0061C37.0142 29.6501 36.8458 31.3056 36.673 32.9554C36.6313 33.3374 36.4926 33.6885 36.2801 33.9499C36.0676 34.2113 35.7946 34.3669 35.5063 34.3907C34.0698 34.4146 32.633 34.399 31.1965 34.3907C30.9841 34.394 30.7768 34.3048 30.6056 34.1367C30.4345 33.9685 30.3086 33.7305 30.2474 33.4586C30.0752 32.9897 29.956 32.4894 29.8934 31.9738C29.8934 30.6218 29.596 29.3449 29.5318 28.0251C29.504 27.427 29.2428 27.4245 29.0121 27.6497C27.508 29.0727 26.4497 31.1875 26.0397 33.5889C25.7312 35.3476 25.9576 37.1566 25.8996 38.4698M42.0633 66.092H44.9585C46.4525 66.092 46.4591 66.092 46.3524 64.0818C46.3147 63.3707 46.1722 62.8131 45.5163 62.6415C44.8066 62.4559 44.1291 62.0575 43.4318 61.7803C41.6479 61.0709 39.841 60.4696 38.0873 59.6241C37.5202 59.351 36.9322 59.1539 36.3639 58.8817C36.1153 58.7849 35.9005 58.5736 35.7573 58.2852C35.6142 57.9968 35.552 57.6499 35.582 57.3061C35.6017 56.5868 35.574 55.865 35.5913 55.1457C35.6006 54.7572 35.5599 54.5733 35.2038 54.5568C33.9148 54.4957 32.6189 54.7712 31.3354 54.4132C31.1342 54.3572 31.0992 54.6046 31.1504 54.7556C31.302 55.4408 31.3412 56.1616 31.2652 56.8689C31.3187 57.3582 31.2292 57.8562 31.0154 58.2596C30.8016 58.6631 30.4796 58.9411 30.1166 59.0359C27.4435 60.0901 24.7711 61.1427 22.0887 62.1515C20.6411 62.6959 20.5026 62.8799 20.5026 64.9132C20.512 65.0929 20.512 65.2731 20.5026 65.4527C20.4471 65.9617 20.5979 66.1036 20.9799 66.1003C23.5387 66.0783 26.0976 66.0783 28.6568 66.1003C29.0672 66.1044 29.1276 65.9015 29.1196 65.4272C29.0999 64.2575 29.1104 63.0861 29.1196 61.9164C29.1307 60.8201 29.4898 60.3409 30.3031 60.3376C32.3465 60.3282 34.389 60.3282 36.431 60.3376C36.6089 60.3176 36.7878 60.3503 36.955 60.4334C37.1223 60.5165 37.2737 60.648 37.3985 60.8185C37.5233 60.989 37.6187 61.1942 37.6772 61.4195C37.7358 61.6448 37.7563 61.8846 37.7375 62.1218C37.7461 63.2321 37.7634 64.3433 37.7375 65.4527C37.7252 65.9633 37.8394 66.1085 38.2208 66.0986C39.4994 66.0681 40.7796 66.0871 42.0594 66.0871M2.17074 40.0594C2.17074 44.0188 2.17257 47.9761 2.17586 51.9312C2.17586 52.1431 2.07139 52.4368 2.29909 52.5589C2.38604 52.5891 2.47752 52.587 2.56364 52.5528C2.64975 52.5187 2.72725 52.4537 2.7878 52.365C3.23837 51.9391 3.61087 51.3819 3.87702 50.7357C4.14317 50.0894 4.29617 49.3708 4.32445 48.6341C4.32445 42.9679 4.34106 37.3018 4.31391 31.6356C4.33761 30.8703 4.20302 30.111 3.92462 29.4415C3.64622 28.772 3.23474 28.2182 2.73598 27.8411C2.30403 27.5004 2.15498 27.5227 2.15868 28.2766C2.17905 32.2039 2.16832 36.1312 2.16832 40.0585M26.6043 7.02752C28.9529 8.27558 31.1818 9.43537 33.3921 10.6504C33.6748 10.8704 33.9914 11.0011 34.3177 11.0325C34.644 11.064 34.9715 10.9954 35.2749 10.8319C36.5831 10.0293 37.9376 9.35865 39.2729 8.63275C39.2655 8.57583 39.2592 8.51809 39.2525 8.46035H38.8858C37.4264 8.46035 35.9673 8.47025 34.5048 8.4554C34.371 8.46737 34.2368 8.44388 34.1098 8.38627C33.9828 8.32866 33.8655 8.23807 33.7648 8.11972C33.6641 8.00136 33.5819 7.85757 33.5229 7.6966C33.4639 7.53564 33.4293 7.36068 33.421 7.18177C33.3966 7.00461 33.3999 6.82264 33.4301 6.64709C33.4603 6.47153 33.5169 6.30609 33.5967 6.16097C33.6765 6.01584 33.7777 5.8941 33.8941 5.80323C34.0104 5.71237 34.1396 5.65431 34.2734 5.63263C34.5843 5.57444 34.8986 5.55703 35.212 5.58066C36.5541 5.57654 37.8956 5.58066 39.2365 5.58066C37.9172 4.74093 36.6072 3.9944 35.2768 3.32129C34.8738 3.11755 34.5047 2.74387 33.9715 3.04413C31.5748 4.38788 29.1548 5.65655 26.5989 7.02917M38.8032 12.0775C37.5209 12.7605 36.3151 13.3973 35.1156 14.0448C34.933 14.1587 34.7356 14.223 34.5343 14.2341C34.3331 14.2451 34.1321 14.2027 33.9432 14.1092C32.8436 13.54 31.7327 13.0047 30.646 12.3959C30.2887 12.1954 30.2106 12.2895 30.2143 12.7506C30.2192 14.011 30.2267 15.2715 30.2106 16.5319C30.2045 16.9633 30.3155 17.0978 30.6358 17.0961C33.2168 17.0829 35.7979 17.0829 38.3793 17.0961C38.7606 17.0961 38.8181 16.8841 38.8113 16.4519C38.7978 15.043 38.8056 13.6332 38.8056 12.0742M34.6898 31.5143C34.6564 31.2393 34.6462 30.9601 34.6591 30.682C34.8189 29.4711 35.0053 28.2668 35.1725 27.0575C35.2459 26.5295 35.1916 26.0593 34.7103 25.9496C33.8798 25.7591 33.0328 25.7313 32.1962 25.8671C31.4724 25.9826 31.4984 26.4652 31.5873 27.1342C31.7558 28.4062 31.9519 29.6732 32.0808 30.9518C32.1216 31.356 32.1604 31.5292 32.4918 31.5209C33.2274 31.4945 33.9642 31.5127 34.6892 31.5127M33.4346 63.2371H32.8968C31.169 63.2371 31.1689 63.2371 31.2923 65.5336C31.2946 65.5635 31.2946 65.5936 31.2923 65.6235C31.2664 65.9798 31.401 66.0854 31.6509 66.0829C32.8381 66.0739 34.026 66.064 35.2126 66.0829C35.6643 66.0912 35.626 65.6606 35.56 65.3579C35.4057 64.66 35.9794 63.765 35.2445 63.2445C35.1569 63.1826 35.0242 63.2346 34.9119 63.2346H33.431M23.7308 38.2916C23.7308 37.5723 23.7443 36.8522 23.7233 36.1337C23.7153 35.8664 23.8694 35.4326 23.5868 35.3666C23.4654 35.3544 23.3437 35.3816 23.2318 35.4458C23.12 35.51 23.0214 35.6093 22.9444 35.7353C22.7609 35.9974 22.6582 36.3423 22.6564 36.7012C22.6564 37.72 22.6564 38.7395 22.6564 39.7591C22.6634 40.03 22.7317 40.2918 22.8522 40.5099C22.9727 40.7279 23.1396 40.8921 23.3313 40.9808C23.6102 41.1713 23.7406 41.0707 23.7338 40.6302C23.7209 39.8507 23.7296 39.0711 23.7308 38.2916ZM43.1474 41.1878C43.3226 41.1431 43.4894 41.0524 43.6382 40.921C43.787 40.7895 43.9148 40.6199 44.0143 40.422C44.1137 40.2241 44.1829 40.0018 44.2176 39.7679C44.2524 39.5341 44.252 39.2933 44.2167 39.0596C44.1834 38.3758 44.2169 37.6861 44.2095 36.9974C44.1972 35.963 43.949 35.5951 43.1474 35.421V41.1878ZM44.173 9.18213C43.1703 9.69933 42.2242 10.1778 41.2844 10.6793C41.1425 10.7552 40.9178 10.8072 40.9819 11.1544C41.0436 11.4712 41.2288 11.3343 41.364 11.3392C41.833 11.3574 42.3021 11.3458 42.7711 11.3458C44.3033 11.3458 44.3032 11.3458 44.173 9.18213Z" fill="black"/>
<path d="M4.59906 54.1988C6.09422 52.4162 6.51633 50.1131 6.50028 47.5345C6.46758 42.4136 6.49034 37.291 6.49034 32.1693C6.50013 30.3112 6.0734 28.4958 5.27036 26.9791C5.00996 26.4784 4.51504 26.3374 4.33301 25.755C4.33301 21.922 4.33435 18.089 4.33723 14.256C7.14181 14.2461 9.94776 14.2305 12.7517 14.228C17.6445 14.223 22.5373 14.2371 27.43 14.2107C27.9268 14.2107 28.0872 14.3558 28.0594 15.0422C28.0119 16.1789 28.0359 17.3222 28.0501 18.4613C28.0292 18.6704 28.045 18.8831 28.0962 19.0827C28.1474 19.2822 28.2325 19.463 28.3451 19.6109C28.4577 19.7587 28.5945 19.8695 28.7446 19.9344C28.8948 19.9993 29.0541 20.0166 29.2101 19.9849C32.6888 19.9937 36.1676 19.9937 39.6467 19.9849C39.8298 20.0149 40.0156 19.9881 40.1896 19.9064C40.3637 19.8248 40.5212 19.6905 40.65 19.5141C40.7789 19.3377 40.8757 19.1238 40.9326 18.8893C40.9896 18.6548 41.0053 18.4058 40.9784 18.1619C40.984 17.0516 40.9937 15.9413 40.9721 14.8318C40.9635 14.3773 41.0445 14.1958 41.4141 14.2131C42.199 14.2503 42.9851 14.2486 43.77 14.2131C44.1291 14.1975 44.2285 14.3509 44.2199 14.8211C44.197 16.0205 44.2042 17.2215 44.2159 18.4217C44.224 19.3794 44.6209 19.9841 45.2121 19.989C45.5123 19.9674 45.796 19.7978 46.0081 19.5129C46.2202 19.2279 46.3456 18.848 46.3603 18.4465C46.3844 17.3073 46.3912 16.1648 46.3603 15.0265C46.3424 14.4326 46.429 14.2082 46.9301 14.2098C53.1248 14.2346 59.3188 14.2239 65.513 14.2288C65.6906 14.1957 65.8714 14.2172 66.0418 14.2918C66.2122 14.3664 66.3676 14.492 66.4961 14.6591C66.6247 14.8263 66.7231 15.0304 66.7836 15.2561C66.8441 15.4817 66.8652 15.7229 66.8453 15.9611C66.8486 31.6532 66.8486 47.3456 66.8453 63.0383C66.8422 63.0982 66.8357 63.1578 66.8261 63.2165L48.4948 63.2396C48.1023 61.1839 47.1028 60.1132 45.5688 59.5746C43.0141 58.6779 40.502 57.5676 37.9714 56.5481C37.9097 56.5241 37.8313 56.5266 37.7955 56.4738C37.5622 56.1348 37.8133 53.8449 38.12 53.6106C39.2992 52.7107 39.9552 51.1945 40.7024 49.7757C41.3727 48.6524 41.9087 47.3968 42.2909 46.0538C42.6229 44.6037 43.3577 44.2168 44.2364 43.7384C44.8876 43.389 45.4418 42.7782 45.8222 41.9901C46.2026 41.202 46.3905 40.2755 46.3603 39.3384C46.4266 38.1719 46.3854 36.9988 46.2371 35.8458C46.1495 35.1287 45.908 34.461 45.5423 33.9234C45.1766 33.3858 44.7022 33.0014 44.1765 32.8169C43.7781 32.5703 43.3482 32.4277 42.9098 32.397C42.5217 32.4399 42.5623 31.8823 42.5006 31.6043C41.9088 28.9209 40.5986 26.6228 38.8199 25.1487C37.7241 24.2381 36.5131 23.603 35.2464 23.2745C33.9208 22.8672 32.5444 22.8547 31.2147 23.2379C29.885 23.6211 28.6344 24.3906 27.5521 25.4918C25.9922 26.9669 24.8385 29.0865 24.2681 31.5243C24.2409 31.7764 24.1489 32.0079 24.0078 32.1791C23.8667 32.3503 23.6854 32.4504 23.495 32.4621C22.0609 32.7269 20.8981 33.6805 20.5742 35.6998C20.4638 36.8273 20.4402 37.9669 20.5034 39.1009C20.4972 41.9442 21.1203 43.0892 23.1301 44.0122C23.3547 44.0903 23.5595 44.2481 23.7225 44.469C23.8854 44.6899 24.0005 44.9656 24.0557 45.2669C24.3359 46.5084 25.0276 47.4941 25.5366 48.5937C25.7851 49.1422 26.0048 49.7133 26.1935 50.3028C26.4082 50.9496 26.9191 51.348 27.2498 51.9312C27.5186 52.4465 27.8645 52.8816 28.2655 53.2089C28.5661 53.4316 29.0058 53.6841 29.0712 54.0272C29.1547 54.7485 29.1652 55.4816 29.1023 56.2066C29.0961 56.454 28.9103 56.478 28.7585 56.5481C27.9379 57.0254 27.0743 57.3582 26.1896 57.5379C25.1183 57.6287 24.3157 58.4758 23.3296 58.7324C22.32 59.0067 21.3291 59.393 20.3675 59.8872C19.8384 60.1518 19.3711 60.5992 19.0134 61.1837C18.6557 61.7683 18.4204 62.4691 18.3313 63.2148C16.6282 63.2148 14.9258 63.195 13.2233 63.2222C11.9684 63.2782 10.7196 62.9647 9.56544 62.304C8.41124 61.6433 7.37966 60.6515 6.54397 59.3989C5.50302 57.982 4.82055 56.1645 4.59273 54.2021M53.9071 31.5234C52.1132 31.5234 50.3208 31.5127 48.527 31.5292C48.3841 31.5259 48.2421 31.5607 48.1094 31.6318C47.9767 31.7028 47.8558 31.8086 47.7542 31.9429C47.6525 32.0773 47.572 32.2374 47.5173 32.4139C47.4626 32.5904 47.4349 32.7798 47.4357 32.9709C47.4365 33.162 47.4659 33.3509 47.5221 33.5266C47.5784 33.7023 47.6604 33.8611 47.7632 33.9939C47.866 34.1266 47.9875 34.2305 48.1208 34.2995C48.2541 34.3685 48.3965 34.4012 48.5393 34.3957C52.0566 34.4072 55.5788 34.4006 59.0985 34.4048C59.285 34.4195 59.4715 34.3757 59.643 34.2767C59.8144 34.1777 59.9661 34.0263 60.0859 33.8348C60.2221 33.6577 60.3123 33.4269 60.3432 33.1763C60.3741 32.9257 60.3439 32.6685 60.2573 32.4423C60.1534 32.1496 59.9861 31.9053 59.7771 31.7411C59.568 31.577 59.3269 31.5006 59.085 31.5218C57.3572 31.5185 55.631 31.5185 53.9065 31.5218M53.8839 37.2828C52.1561 37.2828 50.4282 37.2828 48.7054 37.2828C47.8618 37.2828 47.4287 37.8033 47.4441 38.7618C47.4595 39.6742 47.8845 40.16 48.6972 40.1641C52.1273 40.1685 55.5571 40.1685 58.9867 40.1641C59.8093 40.1641 60.3932 39.5265 60.3679 38.6851C60.3439 37.8676 59.7847 37.2886 58.9955 37.2828C57.2918 37.277 55.5876 37.2828 53.8839 37.2828ZM53.8317 45.9276C55.5595 45.9276 57.2843 45.9326 59.0102 45.9276C59.7989 45.9276 60.3568 45.3304 60.3679 44.508C60.3536 44.2951 60.3077 44.0881 60.2329 43.8991C60.1582 43.7101 60.0558 43.543 59.9322 43.4073C59.8086 43.2716 59.6663 43.1702 59.5131 43.1089C59.3599 43.0477 59.1991 43.0278 59.0401 43.0504C55.5882 43.0444 52.1358 43.0444 48.6831 43.0504C47.8772 43.0504 47.4527 43.5503 47.4447 44.4692C47.4373 45.4244 47.8679 45.9252 48.7207 45.9276C50.4245 45.9334 52.128 45.9276 53.8317 45.9276ZM54.8962 28.6371C56.2859 28.6371 57.6733 28.6446 59.0654 28.6371C59.2246 28.6781 59.3884 28.6714 59.5454 28.6174C59.7023 28.5635 59.8485 28.4637 59.9732 28.3252C60.0979 28.1868 60.1979 28.0131 60.2664 27.8167C60.3348 27.6203 60.3701 27.406 60.3691 27.1893C60.3682 26.9726 60.3311 26.7589 60.261 26.5636C60.1908 26.3682 60.0894 26.1961 59.9636 26.0595C59.8377 25.923 59.6908 25.8255 59.5333 25.7739C59.3759 25.7224 59.2118 25.7182 59.053 25.7616C56.2968 25.7539 53.5403 25.7539 50.7841 25.7616C50.0294 25.7616 49.6116 26.2714 49.6011 27.1639C49.5869 28.0944 50.0121 28.6338 50.7958 28.6388C52.1632 28.6487 53.53 28.6388 54.8975 28.6388M13.9359 45.9293C15.3249 45.9293 16.7126 45.9367 18.1035 45.9293C18.2625 45.9715 18.4265 45.966 18.5838 45.9133C18.741 45.8606 18.8875 45.7619 19.0128 45.6244C19.1381 45.4869 19.2391 45.314 19.3084 45.1181C19.3777 44.9222 19.4135 44.7082 19.4135 44.4915C19.4135 44.2748 19.3777 44.0608 19.3084 43.8649C19.2391 43.669 19.1381 43.4961 19.0128 43.3586C18.8875 43.2211 18.741 43.1224 18.5838 43.0697C18.4265 43.017 18.2625 43.0115 18.1035 43.0537C15.3472 43.046 12.5911 43.046 9.83481 43.0537C9.07766 43.0537 8.66253 43.5585 8.64587 44.4461C8.62859 45.3783 9.05423 45.9235 9.83421 45.9309C11.2016 45.9408 12.5684 45.9309 13.9359 45.9309M13.9247 51.6944C15.3137 51.6944 16.7014 51.701 18.0929 51.6944C18.2516 51.7387 18.4156 51.7355 18.5732 51.6849C18.7308 51.6343 18.8781 51.5377 19.0044 51.4019C19.1307 51.2662 19.2331 51.0946 19.3039 50.8997C19.3747 50.7048 19.4122 50.4914 19.4138 50.2747C19.4155 50.0581 19.3813 49.8436 19.3135 49.6468C19.2458 49.45 19.146 49.2757 19.0219 49.1365C18.8977 48.9972 18.752 48.8966 18.5952 48.8416C18.4384 48.7867 18.2745 48.7789 18.1152 48.8189C15.359 48.8106 12.6028 48.8106 9.84656 48.8189C9.06103 48.8189 8.63473 49.3575 8.64707 50.2872C8.65818 51.1789 9.07204 51.6895 9.82487 51.6944C11.1923 51.7051 12.5591 51.6944 13.9259 51.6944M13.9642 57.4579C15.3316 57.4579 16.699 57.4637 18.0658 57.4579C18.2269 57.5073 18.3943 57.5077 18.5554 57.459C18.7166 57.4103 18.8676 57.3139 18.9971 57.1768C19.1267 57.0396 19.2315 56.8654 19.3039 56.6668C19.3762 56.4682 19.4141 56.2505 19.4151 56.0296C19.416 55.8087 19.38 55.5904 19.3093 55.3908C19.2386 55.1911 19.1351 55.0152 19.0068 54.8761C18.8784 54.737 18.7285 54.6383 18.5678 54.5871C18.4071 54.536 18.2396 54.5338 18.0782 54.5807C15.3437 54.5747 12.6095 54.5747 9.87548 54.5807C9.07329 54.5807 8.64954 55.0897 8.64707 56.0111C8.6446 56.9325 9.06526 57.453 9.86313 57.4571C11.2306 57.4654 12.598 57.4579 13.9642 57.4579ZM15.0085 40.1666C16.039 40.1666 17.0694 40.1749 18.0999 40.1666C18.2587 40.2101 18.4227 40.2059 18.5801 40.1544C18.7376 40.103 18.8845 40.0055 19.0104 39.869C19.1363 39.7325 19.2379 39.5604 19.3081 39.3651C19.3783 39.1697 19.4153 38.956 19.4163 38.7394C19.4172 38.5227 19.3822 38.3084 19.3138 38.112C19.2454 37.9155 19.1453 37.7418 19.0206 37.6033C18.896 37.4648 18.7501 37.365 18.5931 37.311C18.4361 37.257 18.272 37.2502 18.1128 37.291C16.0518 37.2822 13.9908 37.2822 11.9298 37.291C11.7851 37.2819 11.6407 37.312 11.5049 37.3794C11.3692 37.4469 11.2451 37.5503 11.1401 37.6835C11.035 37.8166 10.9512 37.9768 10.8936 38.1544C10.836 38.332 10.8059 38.5234 10.805 38.7169C10.8041 38.9105 10.8325 39.1023 10.8885 39.2808C10.9444 39.4593 11.0269 39.6208 11.1307 39.7557C11.2346 39.8906 11.3578 39.996 11.4929 40.0656C11.628 40.1352 11.7721 40.1676 11.9168 40.1608C12.9467 40.1765 13.9771 40.1608 15.0076 40.1666M62.5319 40.1402C62.5319 41.0682 62.5232 41.9962 62.5319 42.9242C62.5424 43.8753 62.9393 44.4824 63.5262 44.4824C63.8264 44.4796 64.1139 44.3209 64.3283 44.0399C64.5426 43.7588 64.6671 43.3774 64.6751 42.9762C64.6991 41.0913 64.701 39.204 64.6751 37.3191C64.6619 36.9182 64.5317 36.5402 64.3126 36.2661C64.0934 35.9919 63.8028 35.8434 63.5027 35.8524C63.364 35.8612 63.2282 35.9077 63.1035 35.9891C62.9787 36.0706 62.8676 36.1852 62.7771 36.326C62.6867 36.4668 62.6187 36.6308 62.5774 36.808C62.5361 36.9851 62.5225 37.1717 62.537 37.3562C62.5234 38.2842 62.5337 39.2122 62.5331 40.1402M63.6247 18.51C63.5809 18.9409 63.6013 19.379 63.6847 19.7993C63.768 20.2196 63.9127 20.6138 64.1104 20.9591C64.4189 21.4928 64.712 21.5613 65.0902 21.0317C65.4885 20.3363 65.7174 19.4943 65.7459 18.6194C65.7744 17.7445 65.6012 16.879 65.2496 16.1401C64.8794 15.4909 64.4701 15.5107 64.0987 16.1838C63.9074 16.5097 63.767 16.8835 63.6856 17.2832C63.6042 17.6829 63.5834 18.0995 63.6247 18.51ZM64.7085 25.7542C64.9218 25.7489 65.1289 25.659 65.3039 25.4957C65.4788 25.3325 65.6135 25.1034 65.6907 24.8375C65.768 24.5717 65.7841 24.2811 65.7374 24.0029C65.6907 23.7246 65.5831 23.4712 65.4283 23.275C65.2735 23.0787 65.0788 22.9484 64.8685 22.9007C64.6582 22.853 64.4417 22.8901 64.2472 23.0071C64.0527 23.1242 63.8887 23.316 63.776 23.5581C63.6632 23.8002 63.6069 24.0817 63.6142 24.3667C63.6241 24.7435 63.7446 25.1 63.9492 25.3594C64.1538 25.6189 64.4265 25.7607 64.7085 25.7542Z" fill="#62B5E8"/>
<path d="M25.9015 38.4665C25.9589 37.1533 25.7343 35.3443 26.0416 33.5856C26.4512 31.184 27.5096 29.069 29.0139 27.6465C29.2435 27.4213 29.5078 27.4237 29.5337 28.0218C29.5954 29.3416 29.8971 30.6185 29.8952 31.9713C29.9577 32.4869 30.077 32.9872 30.249 33.4561C30.3102 33.728 30.4358 33.9659 30.6069 34.1341C30.7781 34.3022 30.9854 34.3914 31.1978 34.3883C32.6343 34.3932 34.0711 34.4089 35.5076 34.3883C35.7958 34.3647 36.0689 34.2092 36.2814 33.9477C36.4938 33.6863 36.6324 33.335 36.6737 32.953C36.8477 31.3032 37.0149 29.6534 37.2136 28.0078C37.2753 27.5128 37.4784 27.4039 37.8259 27.743C39.281 29.1061 40.3056 31.1434 40.7003 33.4594C40.9822 35.6878 41.074 37.9518 40.9742 40.2079C41.0222 41.3962 40.9798 42.5879 40.8476 43.7648C40.8136 44.1108 40.7245 44.443 40.5861 44.739C39.6482 46.5084 38.83 48.3858 37.8334 50.1065C37.5504 50.5863 37.1903 50.9752 36.78 51.2445C36.3697 51.5137 35.9195 51.6565 35.4624 51.6623C34.1666 51.7662 32.8577 51.6185 31.5587 51.6977C30.9744 51.7341 30.3936 51.5595 29.8772 51.1921C29.3608 50.8247 28.9279 50.2782 28.6241 49.6099C27.8219 48.1029 27.0813 46.5381 26.3372 44.9782C26.056 44.4163 25.9037 43.7569 25.8991 43.0809C25.9046 41.7009 25.8991 40.32 25.8991 38.4682M33.1189 50.2641C34.0346 50.2212 34.8424 50.5231 35.3021 49.7394C35.6625 49.1249 36.2092 48.7166 36.3691 47.7853C36.5387 46.8004 36.3831 46.1421 35.6185 46.1066C35.3978 46.0991 35.1788 46.1593 34.9782 46.2825C34.7777 46.4058 34.6009 46.5889 34.4615 46.8177C34.3288 47.0105 34.1661 47.1621 33.9848 47.2618C33.8036 47.3616 33.6085 47.4071 33.4127 47.3951C33.1378 47.3891 32.8674 47.3003 32.6217 47.1355C32.376 46.9707 32.1612 46.7341 31.9932 46.4432C31.908 46.2979 31.8011 46.178 31.6793 46.0911C31.5574 46.0042 31.4235 45.9522 31.2858 45.9386C31.1481 45.9249 31.0097 45.9498 30.8796 46.0117C30.7495 46.0736 30.6304 46.1711 30.5301 46.298C30.326 46.5546 30.2034 46.906 30.1872 47.28C30.171 47.6539 30.2627 48.0219 30.4433 48.3083C31.2276 49.4301 31.928 50.839 33.1189 50.2674M29.559 40.1617C29.7816 40.1822 30.005 40.1797 30.2273 40.1542C30.4691 40.112 30.6956 39.9732 30.8775 39.756C31.0594 39.5387 31.1881 39.2532 31.2466 38.9367C31.37 38.3461 31.0616 37.9295 30.7531 37.5872C30.3925 37.3781 30.0044 37.2663 29.6114 37.2583C29.2184 37.2502 28.8284 37.346 28.4632 37.5402C28.339 37.665 28.2366 37.8245 28.1634 38.0075C28.0901 38.1906 28.0479 38.3929 28.0392 38.6002C27.9886 39.6766 28.4581 40.1674 29.5614 40.1617M37.0946 40.1617C37.3174 40.1811 37.541 40.1786 37.7635 40.1542C38.0052 40.115 38.2326 39.9792 38.4158 39.7647C38.599 39.5501 38.7295 39.2668 38.7903 38.9516C38.9211 38.3576 38.6174 37.9444 38.3064 37.5987C37.9473 37.3861 37.5602 37.2702 37.1675 37.2576C36.7748 37.2451 36.3841 37.336 36.0177 37.5253C35.9016 37.6391 35.8044 37.7838 35.7321 37.9504C35.6598 38.1169 35.614 38.3016 35.5977 38.4929C35.4916 39.6189 35.9771 40.1641 37.0946 40.1617Z" fill="#D6E4E8"/>
<path d="M42.0661 66.0886C40.7863 66.0886 39.5067 66.0697 38.2275 66.1002C37.8461 66.1093 37.7337 65.9641 37.7436 65.4535C37.7695 64.344 37.7516 63.2329 37.7436 62.1226C37.7622 61.8854 37.7414 61.6456 37.6827 61.4204C37.624 61.1951 37.5289 60.99 37.404 60.8196C37.2792 60.6492 37.1277 60.5177 36.9605 60.4345C36.7933 60.3513 36.6146 60.3185 36.4368 60.3384C34.3948 60.3285 32.352 60.3285 30.3086 60.3384C29.4916 60.3384 29.1362 60.8209 29.1245 61.9172C29.1122 63.0869 29.1017 64.2582 29.1245 65.4279C29.1332 65.9022 29.0714 66.1051 28.6623 66.101C26.1031 66.0746 23.544 66.0746 20.9848 66.101C20.6035 66.101 20.4535 65.9624 20.5078 65.4535C20.5187 65.274 20.5199 65.0937 20.5115 64.914C20.5115 62.8815 20.6496 62.6975 22.0972 62.1523C24.7796 61.1434 27.4523 60.0901 30.1254 59.0367C30.4885 58.9418 30.8101 58.6639 31.0239 58.2604C31.2377 57.8569 31.3272 57.3589 31.2737 56.8697C31.3493 56.1623 31.31 55.4415 31.1583 54.7563C31.1052 54.6054 31.1397 54.3579 31.3433 54.414C32.6268 54.772 33.9239 54.4965 35.2123 54.5575C35.5678 54.574 35.6091 54.758 35.5992 55.1465C35.5826 55.8658 35.6105 56.5876 35.5908 57.3069C35.5607 57.6505 35.6225 57.9974 35.7655 58.2858C35.9085 58.5742 36.1236 58.7855 36.3721 58.8824C36.941 59.1522 37.5291 59.3485 38.0955 59.6248C39.8492 60.4703 41.6564 61.0717 43.4397 61.7811C44.1376 62.0582 44.8154 62.4567 45.5251 62.6423C46.181 62.8139 46.3235 63.3715 46.3612 64.0825C46.4673 66.0928 46.461 66.0928 44.967 66.0928H42.0718" fill="#D6E4E8"/>
<path d="M4.59619 54.1987C4.82388 56.161 5.50614 57.9785 6.54683 59.3955C7.3824 60.6482 8.4136 61.6399 9.5677 62.3007C10.7218 62.9614 11.9704 63.2748 13.2252 63.2189C14.9283 63.1917 16.631 63.2123 18.3335 63.2115C18.323 64.1345 18.5753 65.3405 18.2335 65.9047C17.8744 66.497 16.934 66.0846 16.2497 66.087C12.0154 66.1035 7.78108 66.0969 3.54675 66.0945C2.50267 66.0945 2.17919 65.6721 2.17672 64.3036C2.17302 61.7275 2.18654 59.1514 2.16618 56.5761C2.16186 56.0902 2.24156 55.8089 2.61181 55.691C3.35038 55.4032 4.0292 54.8914 4.59559 54.1954" fill="#44A7D8"/>
<path d="M48.4902 63.2371L66.8221 63.2131C66.8283 63.2725 66.8374 63.3319 66.8405 63.3913C66.9442 65.3974 66.6553 66.1407 64.8905 66.1201C59.6898 66.0598 54.49 66.0788 49.2893 66.1201C48.6105 66.1258 48.4419 65.866 48.5098 65.0287C48.533 64.4305 48.5266 63.8308 48.4902 63.2338" fill="#44A7D8"/>
<path d="M2.17691 40.061C2.17691 36.1337 2.18763 32.2064 2.16727 28.2791C2.16295 27.5252 2.30893 27.5029 2.74396 27.8436C3.24282 28.2205 3.65419 28.7743 3.9326 29.4438C4.21102 30.1134 4.34573 30.8727 4.32189 31.638C4.34966 37.3042 4.33302 42.9704 4.33364 48.6365C4.30538 49.3732 4.15254 50.0917 3.8865 50.738C3.62047 51.3842 3.24831 51.9414 2.79789 52.3675C2.73728 52.4563 2.65966 52.5213 2.57342 52.5555C2.48718 52.5897 2.39561 52.5917 2.30858 52.5614C2.07779 52.4393 2.18504 52.1489 2.18504 51.9336C2.17846 47.9741 2.17693 44.0169 2.18022 40.0618" fill="#79828A"/>
<path d="M26.6108 7.02999C29.1661 5.65738 31.5864 4.39035 33.9831 3.04496C34.5157 2.74635 34.8858 3.11837 35.2875 3.32212C36.6185 3.99605 37.9279 4.74257 39.2478 5.58148C37.9063 5.58148 36.5642 5.58148 35.2227 5.58148C34.9095 5.55761 34.5954 5.57502 34.2847 5.63346C34.1509 5.65503 34.0218 5.71302 33.9054 5.80384C33.789 5.89466 33.6879 6.01638 33.608 6.16152C33.5281 6.30666 33.471 6.47213 33.4408 6.64774C33.4106 6.82335 33.4077 7.00537 33.432 7.18259C33.4403 7.3615 33.4749 7.53646 33.5339 7.69743C33.5929 7.85839 33.6751 8.00218 33.7758 8.12054C33.8765 8.23889 33.9936 8.32948 34.1205 8.38709C34.2475 8.4447 34.3818 8.46819 34.5155 8.45622C35.9755 8.47024 37.4344 8.46117 38.8926 8.46117H39.2596C39.2657 8.51809 39.2733 8.57583 39.28 8.63358C37.9453 9.35948 36.5909 10.0301 35.2821 10.8327C34.9786 10.9962 34.6514 11.0649 34.3251 11.0334C33.9988 11.002 33.6822 10.8713 33.3995 10.6513C31.1879 9.43619 28.9566 8.2764 26.6117 7.02834" fill="#79828A"/>
<path d="M38.8068 12.0767C38.8068 13.6357 38.7978 15.0463 38.8114 16.4543C38.8163 16.8858 38.7588 17.1011 38.3793 17.0978C35.7979 17.078 33.2161 17.078 30.6343 17.0978C30.3147 17.0978 30.2023 16.9649 30.2104 16.5335C30.2264 15.2739 30.2186 14.0135 30.2143 12.7531C30.2143 12.292 30.29 12.1979 30.646 12.3984C31.7333 13.008 32.8436 13.5425 33.9438 14.1117C34.1327 14.2051 34.3334 14.2475 34.5347 14.2364C34.7359 14.2254 34.9336 14.1611 35.1162 14.0473C36.3158 13.3957 37.5228 12.7621 38.8044 12.08" fill="#79828A"/>
<path d="M4.33491 14.2568C4.33244 18.0898 4.33072 21.9228 4.32948 25.7558C3.7162 25.3124 3.08275 24.9203 2.43308 24.582C2.18934 24.4995 2.17274 24.2438 2.17336 23.9534C2.17953 21.1966 2.16847 18.4398 2.1839 15.6839C2.1706 15.4899 2.18915 15.2944 2.23844 15.111C2.28772 14.9277 2.3666 14.761 2.46924 14.6227C2.57187 14.4844 2.69586 14.3778 2.83261 14.3105C2.96935 14.2432 3.11554 14.2167 3.26076 14.2329C3.61804 14.2181 3.97639 14.2478 4.33491 14.2568Z" fill="#44A7D8"/>
<path d="M34.691 31.5176C33.9653 31.5176 33.2292 31.4995 32.4936 31.5259C32.1616 31.5383 32.1234 31.3609 32.0826 30.9567C31.9524 29.6781 31.7569 28.4111 31.5891 27.1391C31.5002 26.4702 31.4748 25.9843 32.1986 25.8721C33.035 25.7363 33.8815 25.7641 34.7118 25.9546C35.1931 26.0635 35.248 26.532 35.1752 27.0624C35.0074 28.2717 34.8216 29.476 34.6606 30.687C34.6487 30.9651 34.6594 31.2442 34.6922 31.5193" fill="#79828A"/>
<path d="M33.4325 63.2363H34.9134C35.0264 63.2363 35.1603 63.1843 35.2467 63.247C35.981 63.7667 35.4079 64.6625 35.5616 65.3604C35.6288 65.6631 35.6664 66.0937 35.2148 66.0854C34.0281 66.0632 32.8409 66.0731 31.6536 66.0854C31.4037 66.0854 31.2692 65.9823 31.2951 65.626C31.2968 65.5961 31.2968 65.566 31.2951 65.5361C31.1717 63.2396 31.1717 63.2396 32.8995 63.2404H33.4362" fill="#79828A"/>
<path d="M23.7327 38.2941C23.7327 39.0736 23.7235 39.8532 23.7327 40.6327C23.7395 41.0732 23.6094 41.173 23.3311 40.9833C23.1393 40.8947 22.972 40.7306 22.8514 40.5125C22.7308 40.2945 22.6624 40.0327 22.6553 39.7616C22.6553 38.742 22.6553 37.7233 22.6553 36.7037C22.6571 36.3448 22.7602 35.9999 22.9436 35.7378C23.0206 35.6117 23.1189 35.5124 23.2308 35.4482C23.3426 35.384 23.4646 35.3568 23.586 35.3691C23.8692 35.4351 23.7142 35.8681 23.7222 36.1354C23.7438 36.8539 23.7297 37.574 23.7297 38.2933" fill="#79828A"/>
<path d="M43.1475 41.191V35.4259C43.9497 35.6016 44.1966 35.9679 44.209 37.0023C44.2176 37.6894 44.1831 38.379 44.2177 39.0645C44.2529 39.2982 44.2531 39.5389 44.2183 39.7727C44.1835 40.0065 44.1144 40.2288 44.0149 40.4267C43.9155 40.6246 43.7876 40.7942 43.6389 40.9257C43.4901 41.0572 43.3232 41.1479 43.1481 41.1927" fill="#79828A"/>
<path d="M53.9129 31.5184C55.6407 31.5184 57.3669 31.5184 59.0914 31.5184C59.3333 31.497 59.5744 31.5733 59.7835 31.7375C59.9925 31.9016 60.1599 32.1461 60.2637 32.439C60.3505 32.665 60.3807 32.9222 60.3499 33.1729C60.3191 33.4235 60.2292 33.6544 60.0929 33.8314C59.9728 34.0235 59.8205 34.1752 59.6485 34.2742C59.4764 34.3732 59.2892 34.4168 59.1022 34.4014C55.5849 34.3965 52.0634 34.4014 48.5436 34.3923C48.4008 34.3979 48.2584 34.3652 48.1251 34.2962C47.9918 34.2272 47.8703 34.1233 47.7675 33.9905C47.6647 33.8578 47.5827 33.6989 47.5264 33.5232C47.4702 33.3475 47.4408 33.1586 47.44 32.9675C47.4391 32.7765 47.4669 32.5871 47.5216 32.4106C47.5763 32.234 47.6571 32.0739 47.7587 31.9396C47.8604 31.8053 47.981 31.6995 48.1137 31.6284C48.2464 31.5574 48.3884 31.5225 48.5313 31.5258C50.3245 31.5094 52.1185 31.5201 53.9117 31.5184" fill="black"/>
<path d="M53.8889 37.2811C55.592 37.2811 57.2955 37.2811 58.9999 37.2811C59.7885 37.2811 60.3482 37.8586 60.3723 38.6834C60.3976 39.5256 59.814 40.1616 58.992 40.1625C55.5628 40.1663 52.1325 40.1663 48.7016 40.1625C47.8896 40.1625 47.4676 39.675 47.4491 38.7602C47.4343 37.8016 47.8675 37.2844 48.7098 37.2811C50.4375 37.2754 52.1617 37.2811 53.8889 37.2811Z" fill="black"/>
<path d="M53.8361 45.926C52.1317 45.926 50.4279 45.926 48.7242 45.926C47.8714 45.926 47.4401 45.4228 47.4494 44.4675C47.4562 43.5486 47.8812 43.0496 48.6865 43.0479C52.1388 43.0435 55.5914 43.0435 59.0441 43.0479C59.2031 43.0254 59.3637 43.0454 59.5169 43.1067C59.67 43.168 59.8125 43.2695 59.936 43.4051C60.0595 43.5408 60.1616 43.7079 60.2364 43.8968C60.3111 44.0857 60.357 44.2926 60.3714 44.5055C60.3603 45.3304 59.8026 45.9226 59.014 45.9251C57.2862 45.9317 55.5621 45.9251 53.8355 45.9251" fill="black"/>
<path d="M54.8999 28.6355C53.5331 28.6355 52.1656 28.6421 50.7988 28.6355C50.0158 28.6297 49.5897 28.0911 49.6039 27.1606C49.6174 26.2705 50.0321 25.7583 50.7874 25.7583C53.5436 25.7506 56.2998 25.7506 59.0561 25.7583C59.2149 25.715 59.3789 25.7194 59.5363 25.771C59.6938 25.8226 59.8405 25.9203 59.9663 26.0569C60.0921 26.1936 60.1936 26.3658 60.2637 26.5612C60.3337 26.7566 60.3707 26.9703 60.3715 27.187C60.3724 27.4037 60.3373 27.6179 60.2688 27.8143C60.2003 28.0107 60.0998 28.1843 59.975 28.3227C59.8503 28.461 59.7042 28.5607 59.5472 28.6145C59.3902 28.6683 59.2264 28.6749 59.0672 28.6338C57.6788 28.6446 56.2902 28.6338 54.8987 28.6338" fill="black"/>
<path d="M13.939 45.9259C12.5716 45.9259 11.2042 45.9333 9.83736 45.9259C9.05739 45.9201 8.63176 45.3757 8.64842 44.4411C8.66446 43.5535 9.08019 43.0503 9.83857 43.0487C12.5948 43.0415 15.3513 43.0415 18.1075 43.0487C18.2665 43.0065 18.4303 43.0119 18.5875 43.0647C18.7447 43.1174 18.8913 43.216 19.0166 43.3535C19.1419 43.491 19.2429 43.664 19.3122 43.8599C19.3814 44.0558 19.4173 44.2698 19.4173 44.4865C19.4173 44.7031 19.3814 44.9171 19.3122 45.113C19.2429 45.3089 19.1419 45.4819 19.0166 45.6194C18.8913 45.7569 18.7447 45.8555 18.5875 45.9082C18.4303 45.961 18.2665 45.9664 18.1075 45.9242C16.7179 45.9341 15.3305 45.9242 13.939 45.9242" fill="black"/>
<path d="M13.9293 51.6896C12.5625 51.6896 11.1957 51.697 9.82826 51.6896C9.07543 51.6838 8.66127 51.174 8.65016 50.2823C8.63782 49.3535 9.06411 48.8165 9.85025 48.814C12.6065 48.8074 15.363 48.8074 18.1192 48.814C18.2785 48.774 18.4424 48.7817 18.5992 48.8366C18.756 48.8914 18.9016 48.9921 19.0258 49.1313C19.1501 49.2704 19.2497 49.4447 19.3175 49.6415C19.3853 49.8383 19.4195 50.0527 19.4178 50.2694C19.4162 50.486 19.3789 50.6995 19.3082 50.8944C19.2374 51.0893 19.1353 51.2609 19.009 51.3967C18.8827 51.5325 18.7354 51.6292 18.5778 51.6799C18.4202 51.7305 18.2562 51.7338 18.0975 51.6896C16.7079 51.6995 15.3214 51.6896 13.9293 51.6896Z" fill="black"/>
<path d="M13.9652 57.453C12.5984 57.453 11.2309 57.4596 9.86414 57.453C9.06627 57.448 8.64439 56.9349 8.64748 56.0069C8.65056 55.0789 9.07616 54.5782 9.87649 54.5766C12.6109 54.5711 15.345 54.5711 18.0786 54.5766C18.24 54.5297 18.4075 54.5319 18.5682 54.583C18.7289 54.6341 18.8792 54.7329 19.0075 54.872C19.1358 55.0111 19.239 55.187 19.3097 55.3866C19.3804 55.5863 19.4164 55.8046 19.4155 56.0255C19.4145 56.2464 19.3766 56.4641 19.3043 56.6627C19.2319 56.8612 19.1271 57.0355 18.9976 57.1726C18.868 57.3098 18.717 57.4062 18.5558 57.4549C18.3947 57.5036 18.2273 57.5032 18.0662 57.4538C16.6988 57.4612 15.3314 57.4538 13.9646 57.4538" fill="black"/>
<path d="M15.01 40.1608C13.9801 40.1608 12.9488 40.1731 11.9177 40.1608C11.773 40.1675 11.6288 40.135 11.4937 40.0653C11.3587 39.9957 11.2354 39.8902 11.1316 39.7553C11.0278 39.6204 10.9456 39.4588 10.8896 39.2803C10.8337 39.1018 10.8053 38.91 10.8062 38.7164C10.8071 38.5229 10.8371 38.3316 10.8948 38.154C10.9524 37.9764 11.0364 37.8163 11.1415 37.6831C11.2466 37.55 11.3707 37.4466 11.5064 37.3792C11.6421 37.3118 11.7866 37.2818 11.9312 37.291C13.9918 37.2783 16.0529 37.2783 18.1143 37.291C18.2735 37.2501 18.4376 37.2569 18.5946 37.3109C18.7515 37.3649 18.8975 37.4647 19.0221 37.6032C19.1468 37.7418 19.2469 37.9155 19.3153 38.1119C19.3837 38.3084 19.4187 38.5226 19.4177 38.7393C19.4168 38.956 19.3797 39.1697 19.3096 39.365C19.2394 39.5603 19.1378 39.7324 19.0119 39.8689C18.886 40.0054 18.7391 40.1029 18.5816 40.1544C18.4242 40.2058 18.2601 40.21 18.1013 40.1665C17.0708 40.1773 16.0405 40.1665 15.01 40.1665" fill="black"/>
<path d="M62.5344 40.1361C62.5344 39.2081 62.5246 38.2801 62.5344 37.3521C62.5199 37.1676 62.5335 36.9811 62.5748 36.804C62.6161 36.6269 62.6842 36.4629 62.7746 36.3221C62.8649 36.1813 62.9756 36.0667 63.1003 35.9852C63.2249 35.9038 63.3609 35.8572 63.4995 35.8483C63.7996 35.8393 64.0902 35.9878 64.3094 36.2619C64.5286 36.5361 64.6587 36.9141 64.6719 37.3149C64.6996 39.1998 64.6972 41.0872 64.6719 42.972C64.6639 43.3733 64.5395 43.7547 64.3251 44.0357C64.1107 44.3167 63.8233 44.4754 63.523 44.4783C62.9368 44.4783 62.5398 43.8712 62.5281 42.9201C62.5176 41.9921 62.5281 41.0641 62.5281 40.1361" fill="black"/>
<path d="M63.625 18.5066C63.584 18.0961 63.6048 17.6788 63.6861 17.2792C63.7675 16.8796 63.908 16.5058 64.0989 16.1796C64.4692 15.5065 64.8769 15.4867 65.2496 16.1359C65.6014 16.8747 65.7748 17.7401 65.7465 18.6151C65.7181 19.49 65.4894 20.3322 65.0911 21.0275C64.7122 21.5579 64.418 21.4894 64.1107 20.9557C63.913 20.6104 63.7683 20.2163 63.6849 19.796C63.6016 19.3757 63.5812 18.9375 63.625 18.5066Z" fill="white"/>
<path d="M64.708 25.75C64.4947 25.7555 64.2851 25.6761 64.1057 25.5219C63.9263 25.3676 63.7852 25.1455 63.7005 24.8838C63.6158 24.622 63.5915 24.3325 63.6303 24.0521C63.669 23.7717 63.7692 23.513 63.9183 23.309C64.0674 23.1051 64.2585 22.965 64.4673 22.9067C64.6761 22.8484 64.8933 22.8745 65.091 22.9816C65.2887 23.0887 65.4581 23.272 65.5776 23.5083C65.6971 23.7445 65.7612 24.0229 65.762 24.3081C65.7629 24.6852 65.653 25.0476 65.4559 25.3173C65.2587 25.587 64.9901 25.7424 64.708 25.75Z" fill="white"/>
<path d="M33.121 50.2633C31.9295 50.8349 31.2303 49.426 30.4454 48.3033C30.2648 48.0169 30.1731 47.6489 30.1893 47.275C30.2055 46.9011 30.3281 46.5497 30.5322 46.2931C30.6326 46.1662 30.7516 46.0686 30.8817 46.0067C31.0119 45.9448 31.1504 45.9199 31.2882 45.9336C31.4259 45.9472 31.5601 45.9992 31.682 46.0861C31.8039 46.173 31.9107 46.2929 31.9959 46.4382C32.1638 46.7293 32.3784 46.9661 32.6242 47.1309C32.8699 47.2957 33.1405 47.3843 33.4154 47.3902C33.6112 47.4023 33.8063 47.3568 33.9876 47.2571C34.1688 47.1573 34.3316 47.0056 34.4642 46.8127C34.6034 46.5838 34.7802 46.4006 34.9807 46.2773C35.1811 46.1541 35.4 46.094 35.6206 46.1017C36.3858 46.1371 36.5415 46.7954 36.3712 47.7803C36.2107 48.7116 35.6646 49.12 35.3043 49.7345C34.8445 50.5181 34.0361 50.2171 33.121 50.2591" fill="black"/>
<path d="M29.5614 40.1567C28.4587 40.1567 27.9892 39.6708 28.0398 38.5944C28.0486 38.3872 28.0908 38.185 28.1639 38.002C28.2371 37.8189 28.3389 37.6594 28.4628 37.5344C28.8281 37.3402 29.2186 37.2444 29.6117 37.2524C30.0048 37.2605 30.393 37.3723 30.7537 37.5814C31.0659 37.9245 31.3737 38.3411 31.2472 38.9317C31.1889 39.2484 31.0603 39.5341 30.8784 39.7514C30.6965 39.9686 30.4698 40.1073 30.2279 40.1493C30.0056 40.1749 29.7822 40.1774 29.5596 40.1567" fill="black"/>
<path d="M37.0956 40.1583C35.9781 40.1583 35.4911 39.6155 35.5979 38.4896C35.6144 38.2984 35.6604 38.1139 35.7325 37.9474C35.8047 37.781 35.9017 37.6361 36.0176 37.522C36.7578 37.1397 37.5812 37.1661 38.3069 37.5954C38.6154 37.941 38.9241 38.3543 38.7908 38.9482C38.7301 39.2638 38.5994 39.5475 38.416 39.7622C38.2325 39.9768 38.0048 40.1123 37.7627 40.1509C37.5408 40.1753 37.3178 40.1778 37.0956 40.1583Z" fill="black"/>
</svg>
