<svg xmlns="http://www.w3.org/2000/svg" xmlns:xlink="http://www.w3.org/1999/xlink" width="667" height="108" viewBox="0 0 667 108">
  <defs>
    <filter id="Path_3713" x="0" y="0" width="108" height="108" filterUnits="userSpaceOnUse">
      <feOffset dy="3" input="SourceAlpha"/>
      <feGaussianBlur stdDeviation="3" result="blur"/>
      <feFlood flood-opacity="0.161"/>
      <feComposite operator="in" in2="blur"/>
      <feComposite in="SourceGraphic"/>
    </filter>
    <clipPath id="clip-path">
      <rect id="Rectangle_5" data-name="Rectangle 5" width="67.635" height="66.342" fill="none"/>
    </clipPath>
  </defs>
  <g id="Group_72" data-name="Group 72" transform="translate(-3 -4)">
    <g id="Group_71" data-name="Group 71" transform="translate(12 10)">
      <g transform="matrix(1, 0, 0, 1, -9, -6)" filter="url(#Path_3713)">
        <path id="Path_3713-2" data-name="Path 3713" d="M45,0A45,45,0,1,1,0,45,45,45,0,0,1,45,0Z" transform="translate(9 6)" fill="#fff"/>
      </g>
      <g id="Group_2" data-name="Group 2" transform="translate(11.414 11.957)">
        <g id="Group_1" data-name="Group 1" transform="translate(0 0)" clip-path="url(#clip-path)">
          <path id="Path_1" data-name="Path 1" d="M129.044,264h-1.665c.769.873.339,1.671.666,2.394.858-.255,1.158-1.092,1-2.394" transform="translate(-105.874 -219.43)" fill="#ec4515" fill-rule="evenodd"/>
          <path id="Path_2" data-name="Path 2" d="M93.5,349.1H91.837a1.634,1.634,0,0,1,.333,1.026c.871.1,1.435-.125,1.335-1.026" transform="translate(-76.333 -290.161)" fill="#ec4515" fill-rule="evenodd"/>
          <path id="Path_3" data-name="Path 3" d="M129.044,264h-1.665c.769.873.339,1.671.666,2.394.858-.255,1.158-1.092,1-2.394" transform="translate(-105.874 -219.43)" fill="#ec4515" fill-rule="evenodd"/>
          <path id="Path_4" data-name="Path 4" d="M93.5,349.1H91.837a1.634,1.634,0,0,1,.333,1.026c.871.1,1.435-.125,1.335-1.026" transform="translate(-76.333 -290.161)" fill="#ec4515" fill-rule="evenodd"/>
          <path id="Path_5" data-name="Path 5" d="M51.273,55.287,18.74,55.3h-.063a31.114,31.114,0,0,1-5.516-6.886l-.043.048L9.585,53.323,7.647,54.1,5.956,51.776,7.412,50a31.288,31.288,0,0,1-1.46-3.085l-2.094.217L2.447,43.1l1.913-1.32a31.118,31.118,0,0,1-.541-3.344l-2.11-.375L1.462,33.8l2.248-.758a31.242,31.242,0,0,1,.4-3.326l-1.97-.964.939-4.168,2.43-.112A31.185,31.185,0,0,1,6.8,21.429L5.118,19.916l2.05-3.749,2.44.579a31.643,31.643,0,0,1,2.039-2.528l-1.232-1.975,3-3.039,2.233,1.255A31.663,31.663,0,0,1,18.271,8.6L17.62,6.326l3.724-2.095,1.817,1.837a31.105,31.105,0,0,1,3.014-1.062V2.622l.009,0h0l1.153-.274,2.995-.712h0l.009,0,3.341,6.144L35.118,10.1l4.6-8.468.009,0h0l2.995.712,1.153.274h0l.009,0V5.007A31.108,31.108,0,0,1,46.9,6.068l1.817-1.837,3.724,2.095L51.793,8.6a31.609,31.609,0,0,1,2.62,1.858L56.647,9.2l3,3.039-1.232,1.975a31.6,31.6,0,0,1,2.039,2.528l2.44-.579,2.05,3.749-1.678,1.513a31.18,31.18,0,0,1,1.289,3.041l2.43.112.938,4.168-1.97.964a31.247,31.247,0,0,1,.4,3.326L68.6,33.8l-.246,4.265-2.11.375a31.161,31.161,0,0,1-.541,3.344l1.913,1.32-1.411,4.033-2.094-.217A31.206,31.206,0,0,1,62.653,50l1.456,1.772L62.418,54.1l-1.938-.779-3.6-4.9c-.065-.01-.09-.02-.155-.03.3-.468-3.821,5.979-5.465,6.893Z" transform="translate(-1.215 -1.356)" fill="#fff" fill-rule="evenodd"/>
          <path id="Path_6" data-name="Path 6" d="M51.273,55.287,18.74,55.3h-.063a31.114,31.114,0,0,1-5.516-6.886l-.043.048L9.585,53.323,7.647,54.1,5.956,51.776,7.412,50a31.288,31.288,0,0,1-1.46-3.085l-2.094.217L2.447,43.1l1.913-1.32a31.118,31.118,0,0,1-.541-3.344l-2.11-.375L1.462,33.8l2.248-.758a31.242,31.242,0,0,1,.4-3.326l-1.97-.964.939-4.168,2.43-.112A31.185,31.185,0,0,1,6.8,21.429L5.118,19.916l2.05-3.749,2.44.579a31.643,31.643,0,0,1,2.039-2.528l-1.232-1.975,3-3.039,2.233,1.255A31.663,31.663,0,0,1,18.271,8.6L17.62,6.326l3.724-2.095,1.817,1.837a31.105,31.105,0,0,1,3.014-1.062V2.622l.009,0h0l1.153-.274,2.995-.712h0l.009,0,3.341,6.144L35.118,10.1l4.6-8.468.009,0h0l2.995.712,1.153.274h0l.009,0V5.007A31.108,31.108,0,0,1,46.9,6.068l1.817-1.837,3.724,2.095L51.793,8.6a31.609,31.609,0,0,1,2.62,1.858L56.647,9.2l3,3.039-1.232,1.975a31.6,31.6,0,0,1,2.039,2.528l2.44-.579,2.05,3.749-1.678,1.513a31.18,31.18,0,0,1,1.289,3.041l2.43.112.938,4.168-1.97.964a31.247,31.247,0,0,1,.4,3.326L68.6,33.8l-.246,4.265-2.11.375a31.161,31.161,0,0,1-.541,3.344l1.913,1.32-1.411,4.033-2.094-.217A31.206,31.206,0,0,1,62.653,50l1.456,1.772L62.418,54.1l-1.938-.779-3.6-4.9c-.065-.01-.09-.02-.155-.03.3-.468-3.821,5.979-5.465,6.893Z" transform="translate(-1.215 -1.356)" fill="none" stroke="#fff" stroke-width="2.806"/>
          <path id="Path_7" data-name="Path 7" d="M45.766,19.768a20.305,20.305,0,0,0,4.219-4.859,24.34,24.34,0,0,1,10.54,20.209,25.65,25.65,0,0,1-3.38,12.669,47.224,47.224,0,0,0-1.488-10.1,9.828,9.828,0,0,1,4.849-.182q.03-.355.059-.71a9.516,9.516,0,0,0-5.1.19,41.467,41.467,0,0,0-3.3-8.231l6.319-3.565-.306-.642-6.36,3.565q-.346-.624-.713-1.237a43.758,43.758,0,0,0-5.342-7.113m-21.529,0-.23-.195a20.177,20.177,0,0,1-3.989-4.664A24.457,24.457,0,0,0,9.478,35.118a25.34,25.34,0,0,0,3.38,12.669,47.225,47.225,0,0,1,1.487-10.1,8.879,8.879,0,0,0-4.759-.138l0,.008-.041-.774.036,0h0a9.176,9.176,0,0,1,4.957.2,41.457,41.457,0,0,1,3.3-8.231l-6.284-3.584.325-.671,6.307,3.613q.346-.624.713-1.237a43.759,43.759,0,0,1,5.342-7.113M29.371,8.161,28.653,7.02l-.192,1.331Zm1.515,1.06-.733.153-.449-.7-1.333.279-.116.815-.714.149.6-3.605.712-.149Zm-5.165,1.391-.486-1.349L23.394,7.83l.759-.273,1.211,1,.282-1.534.746-.268-.508,2.284.484,1.345Zm-4.276,2.038L19.857,9.637l.608-.321.705,1.338.524-1.986.818-.431L22,10.008l2.166,1.209-.787.415L21.8,10.654l-.228.764.48.911Zm-2.522.043-1.12-.751.366,1.294Zm1.815.352-.607.438-.694-.454-1.1.8.225.792-.592.427L17.05,11.5l.59-.425ZM15.46,17.489l-2.4-2.417.475-.472,2.592.632-1.6-1.614.453-.45,2.4,2.417-.49.487-2.539-.609,1.565,1.576Zm-2.437.8-1.291-.39.729,1.131Zm1.839-.194-.453.6-.8-.231-.823,1.085.447.691-.441.581L10.884,17.7l.44-.579ZM11.079,23.9l-3-1.61L8.4,21.68l1.181.633.637-1.187-1.181-.633.325-.606,3,1.61-.325.606-1.313-.7-.637,1.187,1.313.7Zm-1.864,1.11.418-.56a1.5,1.5,0,0,1,.615.754A1.605,1.605,0,0,1,9.4,27.044a1.776,1.776,0,0,1-1.34,0,1.865,1.865,0,0,1-1.1-.849,1.507,1.507,0,0,1-.064-1.245,1.415,1.415,0,0,1,.683-.837,1.337,1.337,0,0,1,.707-.123l-.071.7a.7.7,0,0,0-.776.49.774.774,0,0,0,.055.67,1.332,1.332,0,0,0,.754.512,1.425,1.425,0,0,0,.945.083.753.753,0,0,0,.458-.48.687.687,0,0,0-.01-.5,1.016,1.016,0,0,0-.424-.448m-.767,8.586L5.07,33.165l.316-2.5.572.072-.23,1.823.749.095.214-1.7.569.072-.214,1.7.92.116L8.2,30.95l.569.072Zm.014,3.63-3.4.107-.079-2.524.576-.018.058,1.836.755-.024-.054-1.709.573-.018.054,1.709.927-.029-.06-1.9.574-.018Zm-1.554,3.5-.087-.5a2.661,2.661,0,0,0-.146-.6.374.374,0,0,0-.175-.165.448.448,0,0,0-.264-.025.409.409,0,0,0-.258.138.422.422,0,0,0-.088.278c0,.056.027.222.074.5l.091.528Zm2.054.344-3.356.58L5.36,40.221a2.477,2.477,0,0,1-.044-.8.783.783,0,0,1,.254-.446.982.982,0,0,1,.5-.238.913.913,0,0,1,.663.114,1.083,1.083,0,0,1,.424.611,1.608,1.608,0,0,1,.219-.412,3.89,3.89,0,0,1,.478-.479l.584-.523.14.81-.646.616a4.8,4.8,0,0,0-.431.442.532.532,0,0,0-.1.228,1.144,1.144,0,0,0,.022.348l.024.137,1.4-.242Zm1.053,3.7L6.773,45.812l-.21-.655,1.276-.41-.412-1.283-1.276.41-.21-.655,3.243-1.041.21.655-1.418.455.412,1.283,1.418-.455Zm.574,3.918-.36-.568a.81.81,0,0,0,.332-.442.743.743,0,0,0-.084-.516.761.761,0,0,0-.351-.383.417.417,0,0,0-.369,0,.306.306,0,0,0-.151.156.552.552,0,0,0-.02.288c.011.084.05.271.115.558a1.86,1.86,0,0,1,.049.844.894.894,0,0,1-.971.677.93.93,0,0,1-.5-.224,1.717,1.717,0,0,1-.408-.545,1.439,1.439,0,0,1-.185-.989A1,1,0,0,1,8.2,46.9l.337.6a.582.582,0,0,0-.252.339.693.693,0,0,0,.094.441.783.783,0,0,0,.321.363.247.247,0,0,0,.238,0,.261.261,0,0,0,.139-.185A1.8,1.8,0,0,0,9,47.8a3.367,3.367,0,0,1-.116-.773.965.965,0,0,1,.139-.492,1.018,1.018,0,0,1,.423-.366,1,1,0,0,1,.562-.1.973.973,0,0,1,.546.239,1.924,1.924,0,0,1,.446.606,1.476,1.476,0,0,1,.181,1.02,1.3,1.3,0,0,1-.59.761m48.591-1.436,1.271.663,2.325-.194-.373.715-1.565.088.832,1.319-.366.7-1.174-2.024-1.267-.661Zm1.184-2.843L63,45.448l.371-.94.536.212-.994,2.517-.536-.212.37-.938-2.632-1.039Zm1.015-3.816,3.311.8L64.1,43.846l-.56-.135.43-1.786-.734-.177-.4,1.662-.557-.134.4-1.662-.9-.217-.446,1.85-.558-.135Zm.192-1.4,3.376.447-.09.682-3.377-.447Zm1.406-1.174-.263.647a1.5,1.5,0,0,1-.786-.574,1.6,1.6,0,0,1,.352-2,1.776,1.776,0,0,1,1.3-.335,1.864,1.864,0,0,1,1.282.543,1.507,1.507,0,0,1,.377,1.188,1.416,1.416,0,0,1-.449.983,1.34,1.34,0,0,1-.653.3l-.108-.692a.7.7,0,0,0,.627-.67.775.775,0,0,0-.223-.634,1.331,1.331,0,0,0-.859-.3,1.424,1.424,0,0,0-.935.159.753.753,0,0,0-.321.58.688.688,0,0,0,.137.484,1.015,1.015,0,0,0,.524.326m.383-5.537a1.279,1.279,0,0,0-.854.335.87.87,0,0,0-.244.7.861.861,0,0,0,.348.65,1.3,1.3,0,0,0,.906.193,1.288,1.288,0,0,0,.851-.323.952.952,0,0,0-.11-1.364,1.289,1.289,0,0,0-.9-.191m-.078-.7a2.165,2.165,0,0,1,.883.087,1.623,1.623,0,0,1,.49.28,1.339,1.339,0,0,1,.34.415,1.86,1.86,0,0,1,.191.722,1.6,1.6,0,0,1-.372,1.237,2.086,2.086,0,0,1-2.581.2,1.588,1.588,0,0,1-.557-1.159,1.605,1.605,0,0,1,.368-1.241,1.76,1.76,0,0,1,1.238-.546m-1.305-3.313.209.639a.81.81,0,0,0-.431.346.742.742,0,0,0-.047.52.762.762,0,0,0,.246.458.418.418,0,0,0,.357.094.306.306,0,0,0,.185-.114.55.55,0,0,0,.091-.273c.011-.084.019-.275.027-.57a1.859,1.859,0,0,1,.162-.83.894.894,0,0,1,1.108-.415.929.929,0,0,1,.429.341,1.714,1.714,0,0,1,.26.629,1.44,1.44,0,0,1-.066,1,1,1,0,0,1-.66.494l-.178-.665A.584.584,0,0,0,64,29.853a.693.693,0,0,0,.018-.45.782.782,0,0,0-.221-.432.247.247,0,0,0-.23-.061.261.261,0,0,0-.18.145,1.787,1.787,0,0,0-.086.666,3.362,3.362,0,0,1-.079.778.964.964,0,0,1-.257.442,1.017,1.017,0,0,1-.5.25,1,1,0,0,1-.57-.041.972.972,0,0,1-.47-.367,1.925,1.925,0,0,1-.281-.7,1.475,1.475,0,0,1,.077-1.033,1.3,1.3,0,0,1,.76-.591m-3.235-5.274,3.1-1.41.277.609L60.625,24.6l2.07-.942.265.582-3.1,1.41-.286-.629,1.454-2.169-2.022.92Zm-.278-3.655a1.279,1.279,0,0,0-.6.7.871.871,0,0,0,.113.733.862.862,0,0,0,.612.41,1.3,1.3,0,0,0,.891-.255,1.286,1.286,0,0,0,.6-.685.952.952,0,0,0-.737-1.152,1.289,1.289,0,0,0-.882.253m-.4-.585a2.167,2.167,0,0,1,.821-.338,1.619,1.619,0,0,1,.564.017,1.336,1.336,0,0,1,.494.207,1.86,1.86,0,0,1,.508.547,1.6,1.6,0,0,1,.252,1.267A2.086,2.086,0,0,1,58.52,22.04a1.588,1.588,0,0,1-1.036-.761,1.606,1.606,0,0,1-.258-1.268,1.761,1.761,0,0,1,.837-1.063m-2.224-.007,2.667-2.118.428.538-2.667,2.118ZM54.392,17.3l2.054-1.946-.695-.733.419-.4,1.862,1.965-.419.4-.693-.732L54.865,17.8Zm-.636-2.478.465-1.266-1.171.662Zm.087,1.847-.569-.487.277-.781-1.035-.885-.716.406-.554-.474,3.222-1.726.553.473ZM51.21,12.931l.419.559a1.5,1.5,0,0,1-.9.378A1.606,1.606,0,0,1,49.2,12.537a1.775,1.775,0,0,1,.381-1.285,1.864,1.864,0,0,1,1.126-.82,1.506,1.506,0,0,1,1.213.289,1.415,1.415,0,0,1,.611.891,1.338,1.338,0,0,1-.081.713l-.649-.264a.7.7,0,0,0-.252-.882.774.774,0,0,0-.658-.136,1.332,1.332,0,0,0-.7.579,1.424,1.424,0,0,0-.346.884.753.753,0,0,0,.332.574.687.687,0,0,0,.485.132,1.016,1.016,0,0,0,.55-.281m-4.093-4.84.61.318-.853,1.636a3.872,3.872,0,0,0-.241.516.551.551,0,0,0,.031.395.732.732,0,0,0,.344.323.693.693,0,0,0,.447.1.47.47,0,0,0,.294-.178,3.782,3.782,0,0,0,.294-.5l.871-1.671.61.318L48.7,10.933a4.6,4.6,0,0,1-.45.743.959.959,0,0,1-.38.284,1.046,1.046,0,0,1-.483.061,1.747,1.747,0,0,1-.629-.212,1.881,1.881,0,0,1-.6-.442,1.06,1.06,0,0,1-.218-.443.935.935,0,0,1,0-.424,4.11,4.11,0,0,1,.34-.8ZM43.8,7.529l-.717,2.138.486.163a1.848,1.848,0,0,0,.405.1.634.634,0,0,0,.308-.046.724.724,0,0,0,.275-.255,2.241,2.241,0,0,0,.265-.569,2.05,2.05,0,0,0,.126-.6.782.782,0,0,0-.08-.375.655.655,0,0,0-.251-.253,3.048,3.048,0,0,0-.525-.21Zm-.468-.765,1.192.4a2.437,2.437,0,0,1,.593.268,1.129,1.129,0,0,1,.387.461,1.488,1.488,0,0,1,.134.626,2.537,2.537,0,0,1-.151.8,2.242,2.242,0,0,1-.33.654,1.49,1.49,0,0,1-.537.454,1.2,1.2,0,0,1-.544.1,2.064,2.064,0,0,1-.6-.125L42.25,9.993ZM39.111,9.279l.74-3.325,2.465.548-.125.563-1.794-.4-.164.737,1.669.371-.125.56-1.669-.371-.2.9,1.857.413-.125.56ZM56.821,48.336l3.627,4.987,1.938.779,1.691-2.325L62.622,50a31.226,31.226,0,0,0,1.46-3.085l2.094.217L67.587,43.1l-1.913-1.32a31.147,31.147,0,0,0,.541-3.344l2.11-.375.246-4.265-2.248-.758a31.2,31.2,0,0,0-.4-3.326l1.97-.964-.938-4.168-2.43-.112a31.293,31.293,0,0,0-1.289-3.041l1.677-1.513-2.05-3.749-2.44.579a31.674,31.674,0,0,0-2.039-2.528l1.232-1.975-3-3.039-2.233,1.255A31.556,31.556,0,0,0,51.763,8.6l.651-2.275L48.69,4.232,46.873,6.068a31.109,31.109,0,0,0-3.015-1.062V2.622l-.009,0h0L42.7,2.346,39.7,1.634h0l-.009,0L35,10.255A26.12,26.12,0,0,1,49.38,14.5a19.574,19.574,0,0,1-4.114,4.735A55.73,55.73,0,0,0,35.142,10.92L35,10.792l-.141.128a55.741,55.741,0,0,0-10.125,8.313q-.128-.106-.255-.215a19.448,19.448,0,0,1-3.859-4.52A26.12,26.12,0,0,1,35,10.255L30.311,1.632l-.009,0h0l-2.995.712-1.153.274h0l-.009,0V5.007A31.113,31.113,0,0,0,23.13,6.068L21.313,4.232,17.589,6.326,18.24,8.6a31.557,31.557,0,0,0-2.62,1.858L13.387,9.2l-3,3.039,1.232,1.975a31.711,31.711,0,0,0-2.039,2.528l-2.44-.579-2.05,3.749,1.677,1.513A31.208,31.208,0,0,0,5.476,24.47l-2.43.112-.938,4.168,1.97.964a31.245,31.245,0,0,0-.4,3.326L1.431,33.8l.246,4.265,2.11.375a31.115,31.115,0,0,0,.541,3.344L2.416,43.1l1.411,4.033,2.094-.217A31.269,31.269,0,0,0,7.381,50L5.925,51.777,7.616,54.1l1.938-.779,3.627-4.987-.006-.011.394.012a46.787,46.787,0,0,1,1.476-10.431,10.924,10.924,0,0,1,3.05,1.9l.416-.65a9.232,9.232,0,0,0-3.275-1.949,40.747,40.747,0,0,1,3.232-8.086l4.652,2.651.417-.67-4.72-2.623q.342-.617.705-1.223a43.035,43.035,0,0,1,5.286-7.029,19.723,19.723,0,0,0,3.969,2.417l.381-.634a19.689,19.689,0,0,1-3.849-2.318A54.846,54.846,0,0,1,35,11.7a54.834,54.834,0,0,1,9.693,7.991,21.251,21.251,0,0,1-3.988,2.43l.411.64A21.044,21.044,0,0,0,45.2,20.225a43.044,43.044,0,0,1,5.286,7.029q.363.605.705,1.223l-4.865,2.817.347.655,4.866-2.83a40.726,40.726,0,0,1,3.232,8.086,33.076,33.076,0,0,0-3.724,2.089l.427.6a21.122,21.122,0,0,1,3.488-1.986,46.787,46.787,0,0,1,1.475,10.431l.395-.012-.006.011" transform="translate(-1.189 -1.356)" fill="#1a1818" fill-rule="evenodd"/>
          <path id="Path_8" data-name="Path 8" d="M99.013,343.5l-1.031-3.353L96.957,343.5Zm.6,2.017H96.334l-.452,1.539H92.938l3.5-9.325h3.142l3.507,9.325h-3.016Zm-12.939-4.008h1.216a4.315,4.315,0,0,0,.762-.126.774.774,0,0,0,.469-.293.868.868,0,0,0,.18-.541.853.853,0,0,0-.286-.693,1.72,1.72,0,0,0-1.075-.243H86.678Zm-2.894,5.547V337.73h4.8a6.9,6.9,0,0,1,2.041.23,2.166,2.166,0,0,1,1.14.849,2.567,2.567,0,0,1,.432,1.509,2.5,2.5,0,0,1-1.24,2.254,3.485,3.485,0,0,1-1.012.367,2.9,2.9,0,0,1,.751.345,3,3,0,0,1,.46.488,3.617,3.617,0,0,1,.4.58l1.394,2.7H89.7L88.161,344.2a2.182,2.182,0,0,0-.523-.719,1.209,1.209,0,0,0-.706-.215h-.254v3.784ZM78.79,337.73h2.888v9.325H78.79Zm-7.328,2.113v5.094h.706a2.952,2.952,0,0,0,1.285-.2,1.364,1.364,0,0,0,.6-.7,4.423,4.423,0,0,0,.215-1.62,3.147,3.147,0,0,0-.482-2.028,2.051,2.051,0,0,0-1.6-.547Zm-2.881-2.113h4.282a5.157,5.157,0,0,1,2.045.343,3.337,3.337,0,0,1,1.287.986,4.125,4.125,0,0,1,.738,1.5,6.964,6.964,0,0,1,.228,1.806,6.25,6.25,0,0,1-.341,2.319,3.789,3.789,0,0,1-.945,1.379,3.079,3.079,0,0,1-1.3.742,6.7,6.7,0,0,1-1.717.254H68.581Zm-10.872,0H60.4l3.511,5.159V337.73h2.716v9.325H63.913l-3.494-5.12v5.12h-2.71Zm-4.974,0h2.888v9.325H52.735Z" transform="translate(-43.832 -280.714)" fill="#f36a10" fill-rule="evenodd"/>
          <path id="Path_9" data-name="Path 9" d="M191.9,11.906a1.7,1.7,0,1,1-1.7,1.7,1.7,1.7,0,0,1,1.7-1.7" transform="translate(-158.088 -9.896)" fill="#1a1818" fill-rule="evenodd"/>
          <circle id="Ellipse_2" data-name="Ellipse 2" cx="1.701" cy="1.701" r="1.701" transform="translate(31.859 5.118) rotate(-80.783)" fill="none" stroke="#fff" stroke-width="1.403"/>
          <path id="Path_10" data-name="Path 10" d="M182.917,166.814a3.856,3.856,0,0,0-3.5,3.645c0,2.118,1.939,2.956,1.939,5.319a12.953,12.953,0,0,1-.51,2.389c-.1,3.2,1.421,3.033,1.421,4.458,0,2.734-1.47,2.734-1.47,5.073a5.893,5.893,0,0,0,2.074,3.893c.014-2.7,1.618-4.315,1.718-6.257.074-3.547-1.854-3.892-1.854-6.5,0-3.545,3.677-3.6,3.726-8.57a3.639,3.639,0,0,0-3.546-3.448" transform="translate(-149.13 -138.651)" fill="#1a1818" fill-rule="evenodd"/>
          <path id="Path_11" data-name="Path 11" d="M107.744,109.214a35.007,35.007,0,0,0,5.519-7.024l-21.8-35.677L69.41,102.144a36.506,36.506,0,0,0,5.8,7.088h.178l10.883-3.35,1.543-3.558S85,99.493,84.87,98.511c-.113-.736-1.36,1.02-1.36,1.586s1.473.543,1.473,2.226a1.451,1.451,0,0,1-1.473,1.626,1.6,1.6,0,0,1-1.473-1.626c.057-2.113.963-3.246.963-5.965s-1.19-3-1.19-4.079.895-1.624,1.586-.906c.011-4.811,1.328-10.052,7.611-9.909,6.283-.144,7.954,5.02,7.954,9.909.793-.51,1.586-.17,1.586.906s-1.189,1.36-1.189,4.079.906,3.852.963,5.965a1.6,1.6,0,0,1-1.473,1.626,1.451,1.451,0,0,1-1.473-1.626c0-1.682,1.473-1.66,1.473-2.226S97.6,97.775,97.49,98.511c-.174.833-2.739,3.812-2.739,3.812l1.489,3.741,11.3,3.149Z" transform="translate(-57.692 -55.283)" fill="#007836" fill-rule="evenodd"/>
          <path id="Path_12" data-name="Path 12" d="M319.169,4.3c0-.11.065-.143.13-.143h.344a.409.409,0,0,1,.376.422.469.469,0,0,1-.383.539,1.534,1.534,0,0,1-.467.052Zm0,1.018h.169l.863,1.148h.616V6.346a.25.25,0,0,1-.234-.091l-.778-1a.765.765,0,0,0,.454-.181.634.634,0,0,0,.13-.753.663.663,0,0,0-.337-.259,1.411,1.411,0,0,0-.5-.065h-1.083v.117c.259,0,.286.006.286.194V6.177c0,.123-.169.169-.318.169v.117h1.038V6.346c-.143,0-.3-.032-.3-.188Zm2.316.026A1.978,1.978,0,1,1,319.5,3.362a1.978,1.978,0,0,1,1.985,1.978m.26,0a2.238,2.238,0,1,0-2.238,2.238,2.243,2.243,0,0,0,2.238-2.238" transform="translate(-263.707 -2.578)" fill="#1a1818"/>
        </g>
      </g>
    </g>
    <g id="Group_220" data-name="Group 220">
      <text id="Shree_Chanakya_Education_Society_s" data-name="Shree Chanakya Education Society&apos;s" transform="translate(244 34)" font-size="14" font-family="Poppins-Regular, Poppins"><tspan x="-126" y="0">Shree Chanakya Education Society&apos;s</tspan></text>
      <text id="_Empowering_Minds_to_Elevate_Lives_" data-name="&quot;Empowering Minds to Elevate Lives&quot;" transform="translate(117 86)" font-size="13" font-family="Poppins-Regular, Poppins"><tspan x="0" y="0">&quot;Empowering Minds to Elevate Lives&quot;</tspan></text>
      <text id="INDIRA_COLLEGE_OF_ENGINEERING_AND_MANAGEMENT" data-name="INDIRA COLLEGE OF ENGINEERING AND MANAGEMENT" transform="translate(393 63)" font-size="21" font-family="Poppins-Bold, Poppins" font-weight="700"><tspan x="-276" y="0">INDIRA COLLEGE OF ENGINEERING AND MANAGEMENT</tspan></text>
    </g>
  </g>
</svg>
