<svg xmlns="http://www.w3.org/2000/svg" width="62.854" height="62.866" viewBox="0 0 62.854 62.866">
  <g id="Group_178" data-name="Group 178" transform="translate(5220.462 -11839.021)">
    <path id="Path_4773" data-name="Path 4773" d="M0,29.495c.153-1.131.267-2.269.466-3.392a31.343,31.343,0,0,1,23.1-25.078,30.289,30.289,0,0,1,11.5-.772c.845.1,1.338.643,1.26,1.353a1.275,1.275,0,0,1-1.573,1.072A28.956,28.956,0,0,0,11.87,52.8a28.129,28.129,0,0,0,16.041,7.4A28.858,28.858,0,0,0,59.454,38.707a28.265,28.265,0,0,0-4.323-23.9c-.092-.135-.19-.266-.292-.395-.021-.027-.068-.035-.2-.1,0,.417.013.793,0,1.167a1.221,1.221,0,0,1-1.189,1.235,1.194,1.194,0,0,1-1.233-1.129q-.061-2.423,0-4.848a1.155,1.155,0,0,1,1.224-1.128c1.555-.017,3.11-.02,4.665,0a1.175,1.175,0,0,1,1.2,1.215,1.206,1.206,0,0,1-1.2,1.222c-.306.02-.614.006-.92.007H56.171c.316.432.568.767.81,1.11A31.044,31.044,0,0,1,62.7,34.554,31.42,31.42,0,0,1,37.809,62.239c-1.279.257-2.589.362-3.884.542-.179.025-.355.071-.533.107H29.464c-.137-.033-.272-.078-.41-.1-1.434-.209-2.882-.348-4.3-.632A31.432,31.432,0,0,1,.492,37C.3,35.811.163,34.615,0,33.423V29.495" transform="translate(-5220.462 11839)" fill="#264152"/>
    <path id="Path_4774" data-name="Path 4774" d="M72.1,51.223a21.263,21.263,0,0,0-10.577,2.938c-.23.134-.449.288-.689.4a1.209,1.209,0,0,1-1.6-.479,1.176,1.176,0,0,1,.435-1.653A32.99,32.99,0,0,1,63.1,50.662,23.421,23.421,0,1,1,49.083,76.527a23.052,23.052,0,0,1,3.09-16.552,1.258,1.258,0,0,1,1.8-.61,1.242,1.242,0,0,1,.3,1.871A20.973,20.973,0,1,0,74.79,51.429c-.89-.114-1.792-.139-2.689-.206" transform="translate(-5261.153 11798.187)" fill="#264152"/>
    <path id="Path_4775" data-name="Path 4775" d="M145.369,127.885a8.014,8.014,0,0,1,.321-1.295.66.66,0,0,0-.2-.844c-1.242-1.217-2.466-2.451-3.694-3.682a1.207,1.207,0,0,1-.294-1.506,1.086,1.086,0,0,1,1.272-.629,1.992,1.992,0,0,1,.868.523q1.8,1.754,3.559,3.557a.692.692,0,0,0,.9.2,3.747,3.747,0,0,1,2.93-.022.818.818,0,0,0,1.046-.251q3.756-3.794,7.543-7.558c.826-.826,1.539-.938,2.112-.334.557.586.437,1.263-.371,2.071-2.5,2.5-5,5.011-7.517,7.5a.933.933,0,0,0-.28,1.148,4.027,4.027,0,0,1-1.117,4.481,4.138,4.138,0,0,1-4.565.741,4.25,4.25,0,0,1-2.513-4.093m4.254-1.509a1.757,1.757,0,0,0-.075,3.514,1.757,1.757,0,1,0,.075-3.514" transform="translate(-5338.634 11742.328)" fill="#264152"/>
    <path id="Path_4776" data-name="Path 4776" d="M283.432,186.722c-.265,0-.53.012-.794,0a1.2,1.2,0,0,1-1.192-1.152,1.175,1.175,0,0,1,1.015-1.253,9.343,9.343,0,0,1,1.948.01,1.145,1.145,0,0,1,.974,1.276,1.182,1.182,0,0,1-1.157,1.118c-.264.017-.529,0-.794,0" transform="translate(-5455.748 11684.971)" fill="#264152"/>
    <path id="Path_4777" data-name="Path 4777" d="M184.071,283.467c0-.244-.011-.489,0-.733a1.2,1.2,0,0,1,1.14-1.2,1.185,1.185,0,0,1,1.276,1.061,9.538,9.538,0,0,1,0,1.829,1.17,1.17,0,0,1-1.282,1.048,1.188,1.188,0,0,1-1.134-1.205c-.013-.264,0-.529,0-.794" transform="translate(-5374.34 11603.663)" fill="#264152"/>
    <path id="Path_4778" data-name="Path 4778" d="M186.6,79.844c0,.265.015.531,0,.794a1.211,1.211,0,0,1-2.411.111,9.65,9.65,0,0,1,0-1.829,1.171,1.171,0,0,1,1.271-1.061A1.185,1.185,0,0,1,186.6,79.05c.014.264,0,.529,0,.794h0" transform="translate(-5374.406 11773.93)" fill="#264152"/>
    <path id="Path_4779" data-name="Path 4779" d="M79.741,184.162c.265,0,.53-.013.794,0a1.213,1.213,0,0,1,.084,2.42,10.411,10.411,0,0,1-1.769,0,1.214,1.214,0,0,1,.1-2.419c.264-.015.529,0,.794,0" transform="translate(-5285.477 11685.063)" fill="#264152"/>
    <path id="Path_4780" data-name="Path 4780" d="M238.4,8.767a1.222,1.222,0,0,1-1.209,1.214,1.262,1.262,0,0,1-1.23-1.21,1.236,1.236,0,0,1,1.257-1.233,1.2,1.2,0,0,1,1.182,1.23" transform="translate(-5417.72 11832.716)" fill="#264152"/>
    <path id="Path_4781" data-name="Path 4781" d="M89.646,90.934a1.236,1.236,0,0,1-1.24-1.188,1.253,1.253,0,0,1,1.243-1.254,1.233,1.233,0,0,1,1.2,1.227,1.215,1.215,0,0,1-1.2,1.216" transform="translate(-5294.368 11765.039)" fill="#264152"/>
  </g>
</svg>
