<svg xmlns="http://www.w3.org/2000/svg" width="61.147" height="40.964" viewBox="0 0 61.147 40.964">
  <g id="Group_179" data-name="Group 179" transform="translate(-599.774 -1851.819)">
    <path id="Path_4786" data-name="Path 4786" d="M61.147,90.455c-.113.334-.207.676-.343,1a4.842,4.842,0,0,1-4.355,3.2c-.238.018-.477.019-.716.019-14.251,0-28.5-.022-42.752.019a5.013,5.013,0,0,1-5.147-3.534,14.054,14.054,0,0,1-.249-2.718c-.034-.589-.006-1.181-.006-1.837-.8,0-1.535,0-2.266,0A5.013,5.013,0,0,1,0,81.288Q0,70.093,0,58.9A4.98,4.98,0,0,1,3.93,53.87a6.714,6.714,0,0,1,1.423-.113c14.29-.006,28.581.025,42.871-.028a5.143,5.143,0,0,1,5.349,5.357c-.03.889,0,1.779,0,2.737h2.083c2.967,0,4.667,1.307,5.429,4.172a.366.366,0,0,0,.065.1ZM26.791,56.284H5.3A2.494,2.494,0,0,0,2.52,59.092q0,11.1,0,22.2a2.494,2.494,0,0,0,2.763,2.775q21.488.006,42.976,0a2.473,2.473,0,0,0,2.77-2.759q0-11.132,0-22.264a2.463,2.463,0,0,0-2.751-2.764H26.791M10.116,86.6c0,.976.047,1.853-.01,2.724a2.622,2.622,0,0,0,2.832,2.839q21.4-.062,42.8,0a2.719,2.719,0,0,0,2.91-2.907c-.048-5.949-.019-11.9-.02-17.848,0-1.512.014-3.025-.006-4.536a2.308,2.308,0,0,0-1.549-2.325,11.257,11.257,0,0,0-3.5-.188v.811c0,5.313.009,10.625-.011,15.938a7.163,7.163,0,0,1-.264,2.056A4.934,4.934,0,0,1,48.261,86.6q-18.654,0-37.308,0h-.837" transform="translate(599.775 1798.09)" fill="#264152"/>
    <path id="Path_4787" data-name="Path 4787" d="M112.174,88.091A13.062,13.062,0,1,1,99.115,75.029a13.1,13.1,0,0,1,13.059,13.062M99.1,98.639A10.542,10.542,0,1,0,88.568,88.129,10.56,10.56,0,0,0,99.1,98.639" transform="translate(527.453 1780.188)" fill="#264152"/>
    <path id="Path_4788" data-name="Path 4788" d="M28.962,78.084a3.915,3.915,0,1,1-3.921,3.907,3.923,3.923,0,0,1,3.921-3.907m-.019,5.274a1.376,1.376,0,0,0,1.4-1.39A1.413,1.413,0,0,0,28.97,80.6,1.371,1.371,0,0,0,27.583,82a1.342,1.342,0,0,0,1.36,1.358" transform="translate(578.729 1777.62)" fill="#264152"/>
    <path id="Path_4789" data-name="Path 4789" d="M269.382,189.853a3.916,3.916,0,1,1-3.892-3.943,3.94,3.94,0,0,1,3.892,3.943m-3.91,1.35a1.4,1.4,0,0,0,1.387-1.413,1.42,1.42,0,0,0-1.4-1.352,1.373,1.373,0,0,0-1.367,1.423,1.349,1.349,0,0,0,1.376,1.342" transform="translate(379.953 1686.997)" fill="#264152"/>
    <path id="Path_4790" data-name="Path 4790" d="M142.392,112.644c.066.757.454.979,1.1.883a1.931,1.931,0,0,1,.593.03,1.256,1.256,0,0,1,1.088,1.228,1.144,1.144,0,0,1-1.131,1.22c-1.053-.1-1.48.385-1.889,1.266-.526,1.134-1.373,1.633-3.29,2.444a3.023,3.023,0,0,1,.554.329q1.469,1.356,2.913,2.738a1.3,1.3,0,0,1,.156,1.9,1.283,1.283,0,0,1-1.9-.095c-1.826-1.717-3.644-3.443-5.477-5.152a1.368,1.368,0,0,1-.488-1.593,1.326,1.326,0,0,1,1.459-.793c.656.023,1.313.016,1.969,0a2.334,2.334,0,0,0,1.886-.985c-.307-.014-.493-.028-.678-.029-1.114,0-2.228.011-3.342-.007a1.238,1.238,0,0,1-1.38-1.238,1.268,1.268,0,0,1,1.4-1.288c1.27-.017,2.54,0,3.94,0a2.139,2.139,0,0,0-1.7-.86c-.736-.021-1.472,0-2.208-.01a1.28,1.28,0,0,1-1.438-1.25c-.008-.774.52-1.263,1.407-1.266q3.909-.011,7.818,0a1.283,1.283,0,0,1,1.419,1.27,1.323,1.323,0,0,1-1.453,1.255c-.437.006-.873,0-1.325,0" transform="translate(486.72 1750.702)" fill="#264152"/>
  </g>
</svg>
