<svg xmlns="http://www.w3.org/2000/svg" width="81" height="81" viewBox="0 0 81 81">
  <g id="Group_214" data-name="Group 214" transform="translate(-1000 -3884)">
    <circle id="Ellipse_7" data-name="Ellipse 7" cx="40.5" cy="40.5" r="40.5" transform="translate(1000 3884)" fill="#264152"/>
    <g id="Group_210" data-name="Group 210" transform="translate(1017.435 3901.472)">
      <path id="Path_4950" data-name="Path 4950" d="M1002.341,153.8a.931.931,0,0,1-.549-.976c.023-1.381.005-2.762.009-4.143a1.772,1.772,0,0,1,1.915-1.9c1.034,0,2.067,0,3.17,0v-.55q0-5.359,0-10.718c0-1.392.379-1.774,1.754-1.774h9.749c.012-.187.029-.331.03-.476,0-.6-.005-1.2,0-1.8.008-.5.26-.8.66-.8s.663.286.684.779c.006.15,0,.3,0,.45q0,7.138,0,14.275v.6h10.153V123.786h-10.153v.554q0,2,0,4.008c0,.327-.1.635-.436.7a.987.987,0,0,1-.691-.148.765.765,0,0,1-.211-.557c-.016-1.531-.021-3.062,0-4.593a1.227,1.227,0,0,1,1.355-1.34q5.066-.013,10.132,0a1.249,1.249,0,0,1,1.387,1.4c.012,1.381,0,2.762,0,4.143v.6h.566q4.706,0,9.412,0c1.111,0,1.555.441,1.555,1.554q0,8.016,0,16.031v.63c1.1,0,2.163,0,3.225,0a1.754,1.754,0,0,1,1.489.7,5.515,5.515,0,0,1,.371.653V153.8Zm.811-1.4h43.42c0-1.22,0-2.405,0-3.591,0-.584-.094-.678-.679-.678h-7.341a2.614,2.614,0,0,1-.45-.012.669.669,0,0,1-.028-1.319,2.009,2.009,0,0,1,.449-.018c.972,0,1.944,0,2.939,0V129.946h-10.135v16.829h.956c.991,0,1.982-.007,2.972,0a.672.672,0,1,1,.058,1.343c-.149.011-.3,0-.45,0H1003.65a.441.441,0,0,0-.5.5c0,1.245,0,2.491,0,3.771m15.242-5.644c.01-.136.025-.24.025-.343,0-3.631,0-7.262.009-10.893,0-.379-.143-.439-.473-.438-3.091.01-6.182.006-9.273.007-.131,0-.261.016-.418.027v11.641Z" transform="translate(-1001.792 -107.706)" fill="#fff"/>
      <path id="Path_4951" data-name="Path 4951" d="M1148.108,13a4.313,4.313,0,0,1-.555-.211c-.787-.4-1.573-.808-2.346-1.237a.6.6,0,0,0-.658.008c-.761.419-1.54.806-2.3,1.221a1.228,1.228,0,0,1-1.885-1.339c.166-.853.292-1.714.449-2.569a.653.653,0,0,0-.212-.675c-.648-.6-1.269-1.235-1.905-1.85a1.2,1.2,0,0,1-.383-1.339,1.244,1.244,0,0,1,1.125-.83c.876-.118,1.754-.231,2.625-.386a.788.788,0,0,0,.486-.363c.416-.779.8-1.576,1.183-2.374a1.231,1.231,0,0,1,2.319.011c.381.8.765,1.595,1.182,2.374a.788.788,0,0,0,.493.354c.871.153,1.749.265,2.625.385a1.236,1.236,0,0,1,1.116.842,1.208,1.208,0,0,1-.395,1.337c-.6.584-1.19,1.187-1.81,1.755a.808.808,0,0,0-.282.862c.18.865.314,1.74.452,2.614A1.228,1.228,0,0,1,1148.108,13M1139.864,5.5c.584.61,1.111,1.228,1.71,1.764a1.705,1.705,0,0,1,.572,1.808c-.175.785-.28,1.586-.429,2.462.835-.436,1.613-.814,2.362-1.243a1.49,1.49,0,0,1,1.608,0c.752.425,1.529.807,2.365,1.244-.156-.9-.282-1.727-.448-2.546a1.565,1.565,0,0,1,.527-1.651c.478-.408.907-.874,1.356-1.315.151-.148.3-.3.511-.51-.63-.093-1.146-.166-1.662-.246-1.979-.308-1.777-.053-2.651-1.854-.25-.516-.512-1.027-.806-1.615-.376.757-.757,1.406-1.026,2.1a1.887,1.887,0,0,1-1.842,1.3c-.724.044-1.44.2-2.15.309" transform="translate(-1121.815 -0.248)" fill="#fff"/>
      <path id="Path_4952" data-name="Path 4952" d="M1105.158,4.2a10.5,10.5,0,0,1,1.421.777.751.751,0,0,1,.061.717.761.761,0,0,1-.645.321,3.476,3.476,0,0,1-1.207-.544.8.8,0,0,1-.186-.7c.055-.206.333-.353.556-.567" transform="translate(-1092.213 -3.724)" fill="#fff"/>
      <path id="Path_4953" data-name="Path 4953" d="M1266.077,7.214c-.224-.216-.5-.362-.556-.568a.8.8,0,0,1,.189-.7,3.468,3.468,0,0,1,1.207-.545.763.763,0,0,1,.644.326.752.752,0,0,1-.063.716,10.539,10.539,0,0,1-1.42.775" transform="translate(-1233.767 -4.771)" fill="#fff"/>
      <path id="Path_4954" data-name="Path 4954" d="M1276,47.731c.179,0,.359-.014.537,0a.606.606,0,0,1,.6.6.577.577,0,0,1-.5.685,5.3,5.3,0,0,1-1.288,0,.576.576,0,0,1-.492-.69.6.6,0,0,1,.607-.6c.178-.014.358,0,.537,0" transform="translate(-1241.994 -42.012)" fill="#fff"/>
      <path id="Path_4955" data-name="Path 4955" d="M1095,47.746a4.8,4.8,0,0,1,.581,0,.6.6,0,0,1,.561.595.56.56,0,0,1-.453.673,5.486,5.486,0,0,1-1.373,0,.561.561,0,0,1-.456-.672.6.6,0,0,1,.559-.6,4.513,4.513,0,0,1,.581-.005" transform="translate(-1082.775 -42.023)" fill="#fff"/>
      <path id="Path_4956" data-name="Path 4956" d="M1106.38,87.609c0,.352-.308.516-.636.642-.427.164-.836.553-1.33.181a.653.653,0,0,1,.069-1.067,5.823,5.823,0,0,1,1.055-.483.663.663,0,0,1,.842.727" transform="translate(-1091.849 -76.426)" fill="#fff"/>
      <path id="Path_4957" data-name="Path 4957" d="M1266.135,85.926a10.46,10.46,0,0,1,1.42.778.738.738,0,0,1,.056.717.831.831,0,0,1-.694.31,2.8,2.8,0,0,1-1.126-.508.863.863,0,0,1-.214-.736c.046-.2.337-.351.559-.56" transform="translate(-1233.819 -75.615)" fill="#fff"/>
    </g>
  </g>
</svg>
