<svg xmlns="http://www.w3.org/2000/svg" width="81" height="81" viewBox="0 0 81 81">
  <g id="Group_215" data-name="Group 215" transform="translate(-620 -3884)">
    <circle id="Ellipse_4" data-name="Ellipse 4" cx="40.5" cy="40.5" r="40.5" transform="translate(620 3884)" fill="#264152"/>
    <g id="Group_209" data-name="Group 209" transform="translate(636.007 3897.681)">
      <path id="Path_4958" data-name="Path 4958" d="M38.2,172.833a1.349,1.349,0,0,1-.964-1.534c.037-.522-.005-1.049.017-1.572a3.187,3.187,0,0,1,3.235-3.166c.995-.022,1.991,0,3.032,0v-5.189c-.78-.188-1.591-.319-2.357-.579a11.409,11.409,0,0,1-7.657-7.961.61.61,0,0,0-.721-.532c-.978.028-1.957.015-2.936.008a5.329,5.329,0,0,1-5.636-5.511c-.037-1.59-.016-3.181,0-4.771.008-1,.414-1.394,1.406-1.4,2.307-.006,4.614-.01,6.921,0,.4,0,.593-.091.538-.524a2.9,2.9,0,0,1,.01-.68,1.066,1.066,0,0,1,.978-.993,4.594,4.594,0,0,1,.627-.036q10.015,0,20.03,0c.1,0,.21,0,.315,0a1.175,1.175,0,0,1,1.3,1.345c.013.881.013.881.9.881q3.225,0,6.449,0c1.135,0,1.511.369,1.509,1.506,0,1.765.041,3.533-.05,5.294a5.225,5.225,0,0,1-4.962,4.855c-1.221.052-2.446.026-3.67.024-.288,0-.474.042-.574.375a11.5,11.5,0,0,1-9.889,8.609,1.809,1.809,0,0,0-.179.051v5.22c1.01,0,2-.012,2.991,0a3.068,3.068,0,0,1,3.169,2.45,12.971,12.971,0,0,1,.066,2.969c-.02.483-.488.68-.895.856Zm-2.828-32.151c-.015.16-.035.279-.035.4,0,2.883-.011,5.766.008,8.648a9.126,9.126,0,0,0,.185,1.87,9.354,9.354,0,0,0,18.513-1.459c.057-3.022.021-6.045.024-9.067,0-.119-.023-.237-.039-.39Zm20.964,9.341c.229.017.366.037.5.036,1.065-.007,2.135.051,3.193-.044a2.889,2.889,0,0,0,2.865-2.851c.107-1.319.035-2.652.047-3.979,0-.357-.249-.318-.472-.318-1.886,0-3.772.009-5.658-.009-.414,0-.487.16-.483.527.016,1.711.007,3.423.007,5.134v1.5m-23.291-.067v-7.007a.837.837,0,0,0-.214-.066c-2.008-.005-4.015,0-6.023-.013-.331,0-.352.19-.351.443.006,1.187-.02,2.375.009,3.561a2.914,2.914,0,0,0,2.359,3.045,34.558,34.558,0,0,0,4.22.037m6.5,20.546H49.866c.189-1.24-.171-1.672-1.356-1.673h-7.6c-1.183,0-1.545.435-1.357,1.673" transform="translate(-20.745 -119.168)" fill="#fff"/>
      <path id="Path_4959" data-name="Path 4959" d="M110.384,18.818c.21-1.114.388-2.343.686-3.543a1.5,1.5,0,0,0-.543-1.758c-.879-.715-1.66-1.55-2.5-2.317a1.178,1.178,0,0,1,.708-2.156c1.352-.158,2.7-.328,4.049-.532a.827.827,0,0,0,.5-.422c.551-1.109,1.076-2.232,1.593-3.358.256-.558.523-1.105,1.239-1.113s1,.529,1.255,1.089c.525,1.142,1.053,2.282,1.617,3.4a.874.874,0,0,0,.569.405c1.364.2,2.733.365,4.1.54a1.135,1.135,0,0,1,1.034.765,1.167,1.167,0,0,1-.363,1.283c-.982.92-1.953,1.852-2.943,2.763a.8.8,0,0,0-.284.862c.281,1.3.51,2.6.755,3.9a1.185,1.185,0,0,1-.4,1.273,1.163,1.163,0,0,1-1.372.03c-1.114-.618-2.249-1.2-3.346-1.848a1.026,1.026,0,0,0-1.189-.013c-1.13.66-2.283,1.282-3.442,1.891a1.137,1.137,0,0,1-1.727-1.153m8.825-1.943a19.478,19.478,0,0,0-.4-2.067,1.934,1.934,0,0,1,.75-2.336c.527-.4.976-.908,1.546-1.448-.9-.118-1.651-.252-2.413-.307a1.588,1.588,0,0,1-1.51-1.074c-.291-.717-.656-1.4-1.05-2.232-.393.827-.759,1.514-1.049,2.231a1.588,1.588,0,0,1-1.509,1.075c-.769.056-1.532.194-2.41.311.7.665,1.3,1.249,1.916,1.809a1.383,1.383,0,0,1,.465,1.452c-.185.818-.311,1.65-.481,2.582.843-.461,1.585-.846,2.3-1.267a1.387,1.387,0,0,1,1.526,0c.72.421,1.461.806,2.311,1.271" transform="translate(-92.173 -3.62)" fill="#fff"/>
      <path id="Path_4960" data-name="Path 4960" d="M11.4,53.76a1.111,1.111,0,0,1-1.67,1.034A23.188,23.188,0,0,1,7.48,53.561a1.141,1.141,0,0,0-1.413.014c-.657.426-1.374.758-2.056,1.146A1.186,1.186,0,0,1,2.592,54.7a1.217,1.217,0,0,1-.379-1.327c.188-.9.361-1.812.5-2.725a.768.768,0,0,0-.179-.579C1.886,49.416,1.2,48.788.525,48.16a1.223,1.223,0,0,1-.467-1.343A1.218,1.218,0,0,1,1.223,46c.9-.115,1.8-.2,2.7-.351a.9.9,0,0,0,.562-.418c.412-.787.783-1.6,1.15-2.406a1.258,1.258,0,0,1,1.164-.9,1.27,1.27,0,0,1,1.15.921c.363.811.736,1.62,1.15,2.406a.9.9,0,0,0,.576.4c.894.147,1.8.239,2.7.35a1.223,1.223,0,0,1,1.158.833,1.209,1.209,0,0,1-.452,1.3c-.629.58-1.23,1.192-1.879,1.748a.894.894,0,0,0-.327,1c.185.8.324,1.606.476,2.411.032.171.039.347.052.464M3.648,48.081A2.44,2.44,0,0,1,4.789,51.6a6.362,6.362,0,0,1,1.986-.758,5.6,5.6,0,0,1,1.858.685L9.795,47.9a2.429,2.429,0,0,1-2.935-2.17A6.067,6.067,0,0,1,5.733,47.5a6.6,6.6,0,0,1-2.085.583" transform="translate(0 -36.457)" fill="#fff"/>
      <path id="Path_4961" data-name="Path 4961" d="M242.962,53.593c.149-.785.314-1.747.52-2.7a.9.9,0,0,0-.314-1c-.65-.554-1.251-1.167-1.88-1.746A1.174,1.174,0,0,1,241.976,46c.865-.11,1.728-.249,2.6-.316a.8.8,0,0,0,.767-.563c.346-.8.747-1.575,1.109-2.368a1.17,1.17,0,0,1,2.246.013c.384.84.769,1.681,1.193,2.5a.834.834,0,0,0,.536.379c.895.144,1.8.235,2.7.349a1.18,1.18,0,0,1,.713,2.155c-.667.616-1.318,1.25-1.987,1.863a.621.621,0,0,0-.223.68c.2.918.359,1.848.535,2.772a1.165,1.165,0,0,1-.433,1.259,1.125,1.125,0,0,1-1.282.042c-.841-.461-1.689-.911-2.522-1.387a.635.635,0,0,0-.716,0c-.848.484-1.7.964-2.572,1.4-.844.426-1.691-.106-1.674-1.2m6.475-1.887a6.118,6.118,0,0,1-.127-2.113c.2-.6.82-1.067,1.366-1.724-1.754.287-2.657-.576-3.065-2.243-.251.525-.433.845-.56,1.185a1.506,1.506,0,0,1-1.484,1.033c-.335.016-.667.085-1.017.132.477.57,1.094,1.024,1.286,1.616a6.377,6.377,0,0,1-.129,2.153,2.439,2.439,0,0,1,3.73-.038" transform="translate(-206.429 -36.457)" fill="#fff"/>
    </g>
  </g>
</svg>
