<svg width="81" height="80" viewBox="0 0 81 80" fill="none" xmlns="http://www.w3.org/2000/svg">
<g clip-path="url(#clip0_306_2)">
<path d="M80.5002 63.9597C80.3093 64.2274 80.1168 64.4942 79.9274 64.7628C79.5883 65.3441 79.1385 65.8108 78.6185 66.1204C78.0986 66.4301 77.5248 66.5731 76.9494 66.5364C74.7698 66.3791 72.577 66.5364 70.3892 66.4674C69.8013 66.4479 69.2286 66.702 68.7824 67.1803C67.3126 68.6153 65.8406 70.0476 64.3892 71.5112C64.2523 71.6596 64.0831 71.7539 63.9032 71.782C63.7232 71.8102 63.5406 71.771 63.3786 71.6694C63.2104 71.582 63.0685 71.4309 62.9728 71.2375C62.877 71.0441 62.8322 70.8181 62.8448 70.5913C62.8765 69.5205 62.8612 68.447 62.8383 67.3716C62.8325 67.0828 63.0055 66.5805 62.6753 66.5437C62.219 66.4867 61.6369 66.1868 61.2875 66.7093C60.0437 68.5691 58.6834 70.3024 57.2193 71.8929C56.2706 72.8571 55.2774 73.7512 54.2451 74.5708C52.1635 76.2641 49.8826 77.541 47.485 78.3552C46.3894 78.9102 45.2419 79.2897 44.0699 79.4849C42.6997 79.5364 41.381 80.2079 40.0093 79.9347C39.0705 79.8516 38.1279 79.8571 37.1898 79.9513C36.8048 80.0117 36.4158 79.8896 36.0996 79.6091C36.0296 79.5336 35.9079 79.4186 35.8578 79.4481C34.6364 80.1647 33.5189 79.3046 32.3838 79.0406C29.7407 78.3316 27.2053 77.1003 24.8734 75.3932C19.3159 71.5369 14.9329 65.5005 12.4037 58.2195C11.4118 55.2799 10.7115 52.1999 10.3185 49.0481C10.0655 46.5189 9.98334 43.9676 10.073 41.4213C10.1414 39.544 10.3671 37.6808 10.7467 35.8623C10.8123 35.521 10.8544 35.1724 10.9244 34.7179C9.20102 34.7179 7.50195 34.7465 5.80438 34.7069C4.77391 34.8026 3.73794 34.7433 2.71881 34.5303C2.11473 34.3223 1.57815 33.8833 1.1844 33.2749C0.790649 32.6665 0.559615 31.9194 0.523771 31.1386C0.520085 22.1061 0.545842 13.0727 0.498667 4.04113C0.481445 3.51464 0.550814 2.98932 0.70256 2.49759C0.854305 2.00586 1.08525 1.55815 1.381 1.18208C1.67675 0.806003 2.03105 0.509542 2.42215 0.310986C2.81326 0.11243 3.23283 0.0159892 3.65496 0.0276123C10.7887 1.53275e-05 17.9225 -0.0193016 25.0555 0.0386521C25.5008 0.0237798 25.9437 0.125379 26.3556 0.336915C26.7676 0.548451 27.1395 0.86524 27.4474 1.26691C27.7554 1.66859 27.9926 2.14625 28.1438 2.66919C28.295 3.19213 28.3568 3.74877 28.3253 4.3033C28.3164 6.02536 28.3518 7.74833 28.3091 9.46946C28.2936 10.1033 28.559 10.0922 28.8376 9.93677C30.5458 9.10631 32.3145 8.48492 34.119 8.08134C34.6713 7.93915 35.2328 7.85971 35.7966 7.844C37.5403 7.62648 39.2963 7.60801 41.0427 7.78881C44.1916 8.32143 47.3288 8.86785 50.2448 10.5549C53.6187 12.4061 56.6947 15.0079 59.3223 18.2333C62.2902 21.8518 64.573 26.2517 66.0042 31.1119C66.0579 31.3405 66.1768 31.5367 66.3384 31.6636C66.4999 31.7904 66.6929 31.8393 66.8813 31.8009C70.0833 31.7715 73.2868 31.8414 76.4873 31.7642C78.4259 31.7172 79.7911 32.6049 80.4995 34.9038L80.5002 63.9597ZM34.7256 14.2391C34.5715 14.3045 34.5981 14.4811 34.5723 14.6255C34.4337 14.7055 34.3085 14.8012 34.2967 15.0192C34.2754 15.0771 34.2637 15.1396 34.262 15.2032C34.1146 15.2722 34.1367 15.4534 34.1013 15.596C34.0456 15.6556 33.9961 15.7235 33.9538 15.7984C32.3028 20.0178 31.1481 24.5124 30.5255 29.1434C30.4518 29.6346 30.5388 30.1368 31.0666 30.0136C31.9371 29.8103 32.8268 29.9575 33.6848 29.7818C35.4515 29.554 37.2284 29.472 39.0038 29.5362C40.4272 29.48 41.8859 29.5785 43.3291 29.6024H43.6307C44.0945 29.9063 44.635 29.9723 45.1373 29.7864C45.3074 29.6821 45.4982 29.6414 45.6864 29.6689C45.8747 29.6965 46.0526 29.7913 46.1988 29.9418C46.3366 30.0307 46.4888 30.0792 46.6439 30.0835C46.799 30.0878 46.9528 30.0478 47.0936 29.9667C47.3884 29.7698 47.2719 29.2381 47.2071 28.895C47.0206 27.9098 46.9122 26.9006 46.7272 25.9246C45.8552 21.4024 44.7857 16.9455 42.4837 13.1831C41.6979 11.8952 40.8466 10.4685 39.2803 10.5255C39.2522 10.4252 39.2117 10.347 39.1107 10.3719H38.7908C38.7678 10.358 38.7426 10.3507 38.7171 10.3507C38.6915 10.3507 38.6664 10.358 38.6434 10.3719C38.0167 10.5034 37.424 10.8186 36.9141 11.2918C36.7888 11.3286 36.6355 11.301 36.5861 11.5126C35.9013 12.2191 35.3247 13.0746 34.8841 14.0377L34.7286 14.2327M45.6644 14.2474L45.8169 14.4627C46.0824 15.34 46.4126 16.1847 46.8031 16.986C46.7891 17.1304 46.7656 17.2794 46.913 17.3484L46.9262 17.3714C46.9624 17.5701 46.84 17.8314 47.0663 17.9555C47.0732 18.0185 47.0858 18.0802 47.1039 18.1395C47.2514 18.6675 47.418 19.19 47.5529 19.7245C47.9303 21.2129 48.2959 22.7059 48.6666 24.1971C48.6715 24.381 48.6761 24.5675 48.6806 24.7564C48.9297 26.4398 49.1965 28.1195 49.4177 29.8084C49.4715 30.2187 49.5932 30.5499 49.888 30.5858C52.1295 30.8617 54.2221 32.0999 56.5706 31.8488C58.9728 31.5921 61.4068 31.7917 63.9329 31.7917C62.0218 25.5137 58.6309 20.1059 54.2075 16.2813C51.562 13.9034 45.4358 10.9257 44.0353 11.2513L45.2324 13.4664C45.2464 13.6835 45.368 13.781 45.5088 13.8565L45.5169 13.8657C45.5427 14.0082 45.5169 14.1803 45.6644 14.2493V14.2474ZM32.6912 68.056C32.6988 68.1189 32.712 68.1806 32.7303 68.24L33.5102 70.3963C33.4814 70.5646 33.4659 70.7256 33.634 70.7992C33.6362 70.8626 33.6477 70.9249 33.6679 70.9832C33.6465 71.1101 33.7092 71.1607 33.791 71.1938C33.7929 71.2573 33.8044 71.3197 33.8249 71.3778C33.8035 71.5047 33.8655 71.5544 33.9473 71.5866C34.3637 72.4283 34.7389 73.3068 35.2047 74.1035C36.3568 76.073 37.7028 77.6405 39.8891 77.1805C40.1876 76.9607 40.7972 77.5972 40.8326 76.6488C41.4009 75.8678 42.0253 75.1383 42.528 74.2957C43.8015 72.0679 44.783 69.6015 45.4358 66.9889C46.1877 64.1925 46.6609 61.327 47.216 58.478C47.3354 57.8645 47.2425 57.4119 46.5688 57.5204C45.505 57.7299 44.432 57.8571 43.3557 57.9013C39.9038 57.916 36.4505 58.0291 33.0001 57.7476C32.5696 57.7127 32.2254 57.0375 31.9946 57.2573C31.5295 57.7007 30.8978 57.2233 30.6207 57.6455C30.2727 58.1763 30.7172 58.8414 30.8064 59.4522C30.8204 59.5442 30.8182 59.6463 30.8315 59.742C31.1821 62.3885 31.7536 64.982 32.5364 67.4802C32.6027 67.6724 32.4686 67.9493 32.6978 68.0726L32.6912 68.056ZM36.4505 32.3639C35.5122 32.294 34.5705 32.3625 33.645 32.5681C32.5453 32.673 31.4492 32.8322 30.3502 32.949C30.1091 32.9747 30.0597 33.1127 30.0442 33.3777C29.9477 35.0399 29.7575 36.7013 29.7494 38.3635C29.6228 43.5996 29.7213 48.8405 30.0442 54.0634C30.0767 54.4599 30.1128 54.7543 30.502 54.7892C31.8339 54.9079 33.1645 55.1471 34.4964 55.1572C38.6693 55.3156 42.8459 55.1928 47.0081 54.7892C47.4946 54.7276 47.7039 54.5262 47.7231 53.8482C47.7504 52.8887 47.7895 51.9164 47.8868 50.968C48.1492 48.3987 47.9007 45.8165 48.1432 43.2408C48.2066 42.573 47.987 41.8545 48.0106 41.1407C48.0576 38.5636 47.9568 35.9856 47.7091 33.4264C47.6847 33.1293 47.6619 32.972 47.3737 32.9389C45.1532 32.5738 42.9167 32.3797 40.6771 32.3575C39.2783 32.0789 37.853 32.0789 36.4542 32.3575M15.9934 35.9019C15.95 35.4907 15.9485 35.3987 15.9301 35.3122C15.451 33.0373 16.093 31.9711 17.9424 31.9702C20.3107 31.9702 22.6798 31.9638 25.0481 31.9767C25.4668 31.9767 25.8751 31.9426 25.965 31.3511C26.066 30.8891 26.1302 30.4159 26.1567 29.9381C26.1395 21.4272 26.1351 12.9163 26.1435 4.40541C26.1435 3.02556 25.9009 2.72844 24.7827 2.72844C17.8332 2.72844 10.8836 2.72844 3.93362 2.72844C2.92378 2.72844 2.71369 2.98969 2.71369 4.25455C2.71369 13.0243 2.71369 21.794 2.71369 30.5637C2.71369 31.6013 2.9975 31.9638 3.81422 31.9647C6.05282 31.9693 8.29289 32.0291 10.5293 31.938C11.0005 31.9049 11.4722 31.9917 11.9157 32.1931C12.3592 32.3946 12.7653 32.7065 13.1092 33.11C13.9686 34.0519 14.9166 34.8661 15.9964 35.8973M54.8811 49.142C54.8811 53.46 54.8811 57.778 54.8811 62.096C54.8811 63.681 54.9549 63.7665 56.2714 63.7675H62.9053C64.6463 63.7675 65.0135 64.2274 65.0349 66.4398C65.0349 66.5695 65.0349 66.6992 65.0349 66.8289C65.0349 67.264 65.1528 67.3643 65.4432 67.0671C66.2541 66.2392 67.0649 65.4058 67.8927 64.5926C68.3943 64.0384 69.0426 63.7356 69.7126 63.7426C72.131 63.8061 74.5509 63.7665 76.9701 63.7656C78.1208 63.7656 78.3058 63.5632 78.3065 62.0877C78.3144 53.4517 78.3144 44.8157 78.3065 36.1797C78.3065 34.959 77.9756 34.5193 77.0151 34.5303C70.048 34.6122 63.0837 34.1209 56.1136 34.522C55.1148 34.579 54.8797 34.8679 54.879 36.0858C54.879 40.4364 54.879 44.7869 54.879 49.1374M22.0451 34.7143C20.9269 34.7143 19.8088 34.7345 18.6913 34.7041C18.2859 34.6931 18.1407 34.8385 18.1606 35.3582C18.1923 36.1677 18.1377 36.9827 18.1798 37.7904C18.172 38.2694 18.1053 38.7441 17.9822 39.1979C17.8414 39.9457 16.9192 40.1325 16.3671 39.5805C15.3484 38.5641 15.2512 38.5254 14.3453 39.438C13.8142 39.9609 13.3364 40.563 12.9226 41.2308C12.4987 41.9161 12.2557 42.7487 12.2275 43.6138C12.1992 44.4788 12.387 45.3334 12.7649 46.0594C13.7283 47.7191 15.0134 49.0465 16.4999 49.9175C19.4163 51.7159 22.5105 53.0252 25.7019 53.8114C26.2916 53.9825 26.899 54.1067 27.5027 54.2033C27.7496 54.2428 27.9892 54.3587 27.9133 53.6835C27.7012 51.8084 27.5823 49.9187 27.5572 48.0252C27.4415 43.3747 27.54 38.7197 27.8521 34.0832C27.8705 33.8505 27.9258 33.4641 27.847 33.408C27.5853 33.224 27.3973 33.5064 27.1835 33.7042C26.5089 34.4052 25.6513 34.7722 24.7739 34.7354C23.8672 34.6646 22.9547 34.7198 22.0466 34.7207M28.6363 59.7963C28.5752 58.8948 28.3636 58.0254 28.3024 57.1285C28.2886 57.0872 28.2664 57.051 28.2382 57.0233C28.2099 56.9956 28.1765 56.9773 28.141 56.9703C27.7209 57.0034 27.3627 56.6677 26.9676 56.6438C24.5483 56.366 22.1689 55.6908 19.8913 54.6356C18.1188 54.0214 16.4335 53.0671 14.8959 51.8069C14.317 51.339 13.7613 50.8282 13.2315 50.2771C13.18 50.2031 13.1104 50.1521 13.0334 50.1322C12.9564 50.1122 12.8764 50.1244 12.8055 50.1667C12.6581 50.278 12.7192 50.485 12.7656 50.6837C13.0413 51.8667 13.3155 53.0561 13.6089 54.2244C14.4311 57.4738 15.6779 60.5314 17.2989 63.2735C19.0875 66.416 21.3087 69.1375 23.8592 71.3116C25.9061 73.1795 28.1759 74.6336 30.5853 75.6204C31.5384 75.958 32.4907 76.2965 33.4483 76.6129C33.5969 76.6649 33.7559 76.6411 33.8905 76.5467C33.993 76.4492 33.8794 76.2707 33.7931 76.1364C32.2744 73.5636 31.0862 70.7111 30.2713 67.6816C29.7501 66.0258 29.6145 64.2421 29.1302 62.5707C28.9163 61.662 28.7519 60.7363 28.6379 59.7999M43.8828 76.52C47.4629 76.7583 56.3039 70.6796 58.4776 66.5419C57.5271 66.3545 56.5648 66.2747 55.6028 66.3036C54.3563 66.3956 53.8507 65.6054 53.1954 64.7012C52.4664 63.6966 52.8497 62.4732 52.731 61.3656C52.6315 60.0073 52.6244 58.641 52.7097 57.2812C52.7296 56.6419 52.532 56.4598 52.0839 56.5628C51.3015 56.6836 50.5265 56.8699 49.7642 57.1203C49.5858 57.1929 49.4236 57.1791 49.414 57.5011C49.326 58.6715 49.1691 59.8321 48.9445 60.9737C48.4223 64.6073 47.5388 68.1452 46.3145 71.5057C45.6369 73.2726 44.8222 74.9524 43.882 76.521M52.9787 34.2212C51.9852 33.8084 50.9525 33.561 49.9072 33.4853C49.851 34.739 49.9114 35.9966 50.087 37.233C50.3082 39.5511 50.1843 41.8729 50.2816 44.1874C50.3198 45.6694 50.2899 47.1528 50.1917 48.6305C50.1062 50.2955 49.9927 51.9578 49.8836 53.6201C49.8482 54.16 50.0229 54.3045 50.4327 54.1858C50.925 54.0187 51.4282 53.9067 51.9364 53.8509C52.5349 53.8151 52.7089 53.5115 52.7067 52.7793C52.6868 47.0934 52.7 41.4084 52.6919 35.7225C52.6587 35.1979 52.7593 34.6737 52.9794 34.2249M28.326 29.1516C29.4051 22.8043 30.6583 16.5766 33.9097 11.1474C33.6771 11.1224 33.4431 11.1249 33.2109 11.1547C31.9578 11.5337 30.6922 11.8906 29.4516 12.3377C28.4787 12.6854 28.3275 13.0359 28.3275 14.3974V29.1526L28.326 29.1516ZM12.7951 36.3351C12.7885 36.7362 12.4737 37.2136 12.9123 37.4344C13.1659 37.5614 13.4018 37.2219 13.4246 36.9901C13.4711 36.52 13.0376 36.5587 12.7951 36.3351Z" fill="black"/>
<path d="M15.9868 35.9193C14.9076 34.8881 13.959 34.074 13.1002 33.132C12.7564 32.7285 12.3504 32.4165 11.9068 32.215C11.4633 32.0135 10.9916 31.9268 10.5204 31.9601C8.28396 32.0521 6.04388 31.9913 3.80601 31.9867C2.98929 31.9867 2.70557 31.6188 2.70557 30.5857C2.70557 21.816 2.70557 13.0463 2.70557 4.2766C2.70557 3.01174 2.91557 2.75049 3.92541 2.75049C10.8754 2.75049 17.8251 2.75049 24.7746 2.75049C25.892 2.75049 26.1346 3.04946 26.1353 4.42747C26.1353 12.9384 26.1397 21.4493 26.1486 29.9602C26.1219 30.4379 26.0574 30.9112 25.9562 31.3732C25.8663 31.9647 25.4572 32.0015 25.0392 31.9987C22.6709 31.9849 20.3018 31.9923 17.9335 31.9923C16.0841 31.9923 15.4428 33.0593 15.9212 35.3333C15.9396 35.4198 15.9411 35.5109 15.9846 35.923M19.9649 27.4148C20.1427 27.4386 20.3224 27.4065 20.4876 27.3214C20.6528 27.2363 20.7983 27.1008 20.9108 26.9275C21.0233 26.7542 21.0993 26.5484 21.1317 26.329C21.1641 26.1097 21.152 25.8837 21.0964 25.6716C20.8016 24.5365 20.402 23.4418 20.046 22.3315C18.5507 17.6639 17.0553 12.9966 15.56 8.32968C15.5031 8.06549 15.3775 7.83232 15.2031 7.66669C15.0286 7.50106 14.8151 7.41232 14.5959 7.41438C14.0556 7.39414 13.6273 7.49349 13.3988 8.19538C13.0302 9.32501 12.6248 10.4344 12.2629 11.5668C10.7813 16.2019 9.30484 20.8394 7.83357 25.4794C7.76177 25.6591 7.7206 25.8555 7.71255 26.0561C7.7045 26.2567 7.72974 26.4573 7.78678 26.6451C7.84383 26.8329 7.93145 27.004 8.04403 27.1475C8.15661 27.2911 8.29178 27.404 8.44102 27.4792C8.74397 27.5622 9.06083 27.5015 9.32984 27.3088C9.59884 27.1161 9.8007 26.8053 9.89608 26.437C10.4062 24.8115 10.9354 23.1943 11.4086 21.5514C11.5192 21.1687 11.6297 21.0648 11.9334 21.0675C13.5469 21.0832 15.1605 21.0749 16.774 21.0749C16.9811 21.0749 17.2163 21.0344 17.3173 21.3288C17.8171 22.819 18.3271 24.3037 18.7856 25.8133C19.0178 26.5768 19.1674 27.3661 19.9649 27.4148Z" fill="#E4F1FF"/>
<path d="M54.8813 49.1399C54.8813 44.7894 54.8813 40.4389 54.8813 36.0883C54.8813 34.8667 55.1171 34.5788 56.1159 34.5245C63.083 34.1234 70.0474 34.6165 77.0175 34.5328C77.9757 34.5217 78.3074 34.9615 78.3089 36.1822C78.3158 44.8176 78.3158 53.4536 78.3089 62.0902C78.3089 63.5621 78.1224 63.7681 76.9725 63.7681C74.5526 63.7681 72.1327 63.8077 69.715 63.7442C69.045 63.7372 68.3967 64.04 67.895 64.5942C67.071 65.4074 66.2579 66.2371 65.4456 67.0687C65.1559 67.3659 65.0401 67.2656 65.0371 66.8305C65.0371 66.7008 65.0371 66.5711 65.0371 66.4414C65.0157 64.2336 64.648 63.7737 62.9077 63.7691H56.2737C54.955 63.7691 54.8835 63.6826 54.8835 62.0976C54.8835 57.7796 54.8835 53.4616 54.8835 49.1436M62.7124 42.9094C61.9318 42.9094 61.1512 42.8928 60.3706 42.914C60.2156 42.8838 60.0572 42.8954 59.9061 42.948C59.7551 43.0007 59.6148 43.0932 59.4948 43.2192C59.3748 43.3453 59.2779 43.502 59.2106 43.6788C59.1433 43.8556 59.107 44.0484 59.1044 44.2441C59.1019 44.4398 59.133 44.634 59.1957 44.8134C59.2584 44.9928 59.3511 45.1534 59.4678 45.2843C59.5844 45.4152 59.7223 45.5133 59.872 45.5721C60.0216 45.6308 60.1795 45.6489 60.3352 45.6249C60.7774 45.6489 61.2197 45.659 61.662 45.6351C62.0121 45.6157 62.1964 45.7087 62.3077 46.2017C62.8395 48.4545 63.6924 50.5692 64.8257 52.4442C65.1006 52.9133 65.024 53.1442 64.7564 53.5057C63.8244 54.7093 62.7566 55.7366 61.5868 56.5552C61.4601 56.6204 61.3451 56.7167 61.2488 56.8383C61.1525 56.96 61.0768 57.1045 61.026 57.2634C60.9753 57.4223 60.9506 57.5923 60.9535 57.7633C60.9564 57.9342 60.9867 58.1028 61.0428 58.2588C61.0948 58.4457 61.1813 58.6146 61.2952 58.7519C61.4092 58.8893 61.5477 58.9912 61.6991 59.0495C61.8505 59.1078 62.0108 59.1208 62.167 59.0875C62.3232 59.0542 62.4708 58.9755 62.5981 58.8577C63.8443 58.0182 64.9787 56.9426 65.9608 55.6693C66.3957 55.0999 66.6788 55.1174 67.0901 55.6877C68.1287 56.9852 69.3182 58.0797 70.6185 58.934C70.7672 59.0642 70.9486 59.123 71.1293 59.0997C71.3099 59.0764 71.4776 58.9725 71.6018 58.8071C72.3581 57.9792 72.3029 57.2148 71.3682 56.4154C70.311 55.5575 69.3012 54.6115 68.346 53.5839C68.2705 53.5256 68.2069 53.4462 68.1603 53.3519C68.1137 53.2576 68.0854 53.1511 68.0775 53.0407C68.0697 52.9304 68.0824 52.8193 68.115 52.7162C68.1475 52.6131 68.199 52.5209 68.265 52.4469C69.2068 51.0279 69.917 49.3925 70.3554 47.6331C70.724 45.9101 71.3875 45.4042 72.7327 45.6093C73.6637 45.75 73.9953 45.1797 73.9467 44.0455C73.9002 42.9701 73.225 42.9572 72.6603 42.9342C71.2311 42.8763 69.7988 42.8818 68.3696 42.9342C67.8057 42.9536 67.6539 42.719 67.6849 42.0521C67.7332 41.2154 67.6895 40.3745 67.5551 39.5527C67.523 39.2477 67.4012 38.9685 67.2134 38.7694C67.0255 38.5703 66.785 38.4656 66.5387 38.4755C66.3134 38.4703 66.0938 38.5644 65.9186 38.7412C65.7433 38.918 65.6235 39.1662 65.5804 39.4423C65.3195 40.3569 65.2646 41.3432 65.4219 42.294C65.5575 42.8285 65.4219 42.925 65.0533 42.9223C64.2727 42.9149 63.493 42.9223 62.7124 42.9223" fill="#E4F1FF"/>
<path d="M40.6712 32.3722C42.9109 32.3945 45.1473 32.5886 47.3679 32.9536C47.6568 32.9876 47.6788 33.1449 47.7031 33.4411C47.9508 36.0003 48.0517 38.5783 48.0047 41.1554C47.9811 41.8701 48.2007 42.5877 48.1374 43.2555C47.8948 45.8248 48.1441 48.4116 47.8809 50.9827C47.7844 51.9302 47.7444 52.9025 47.7172 53.8629C47.698 54.5408 47.4887 54.7423 47.0029 54.8039C42.8407 55.2076 38.6641 55.3304 34.4913 55.1719C33.1593 55.1618 31.8289 54.9226 30.4969 54.8039C30.1077 54.769 30.0708 54.4737 30.0384 54.0781C29.7154 48.8552 29.6169 43.6143 29.7434 38.3782C29.7515 36.716 29.9418 35.0546 30.0384 33.3924C30.0539 33.1274 30.1033 32.9894 30.3443 32.9637C31.4434 32.8478 32.5394 32.6877 33.6392 32.5828C34.5649 32.3771 35.5067 32.3086 36.4453 32.3786H40.6682" fill="#60B7FF"/>
<path d="M34.8802 14.0442C35.3205 13.0813 35.897 12.2258 36.5815 11.5191C36.7201 11.5127 36.8506 11.4878 36.9096 11.2983C37.4196 10.8252 38.0122 10.5099 38.6388 10.3784C38.6882 10.4704 38.7383 10.4704 38.7862 10.3784H39.1069L39.2757 10.532C40.8421 10.475 41.6934 11.9055 42.4791 13.1896C44.7819 16.952 45.8507 21.4089 46.7227 25.9312C46.9107 26.9063 47.0175 27.9154 47.2025 28.9015C47.2674 29.2456 47.381 29.7773 47.0891 29.9732C46.9483 30.0545 46.7943 30.0945 46.6392 30.0902C46.4841 30.0859 46.332 30.0374 46.1942 29.9484C46.048 29.7978 45.8701 29.7031 45.6819 29.6755C45.4936 29.6479 45.303 29.6887 45.1328 29.7929C44.6306 29.9788 44.09 29.9128 43.6262 29.6089C43.5259 29.4341 43.4256 29.436 43.3246 29.6089C41.8813 29.585 40.4226 29.4866 38.9993 29.5427C37.2239 29.4786 35.447 29.5607 33.6802 29.7883C32.8223 29.964 31.9326 29.8168 31.062 30.0201C30.5343 30.1434 30.4437 29.6411 30.5211 29.1499C31.1437 24.519 32.2982 20.0243 33.9493 15.8049C33.9914 15.7299 34.0409 15.6619 34.0967 15.6025C34.1534 15.5668 34.1997 15.5095 34.2286 15.4389C34.2575 15.3683 34.2675 15.288 34.2574 15.2097C34.2592 15.1462 34.271 15.0837 34.2921 15.0257C34.3324 15.0284 34.3728 15.0196 34.41 15C34.4472 14.9804 34.4804 14.9506 34.507 14.9127C34.5336 14.8748 34.5528 14.8298 34.5635 14.7812C34.5742 14.7326 34.5759 14.6816 34.5685 14.632C34.6234 14.5958 34.6676 14.5388 34.695 14.4692C34.7224 14.3997 34.7316 14.3211 34.7211 14.2448L34.8766 14.0497" fill="#60B7FF"/>
<path d="M39.8845 77.176C37.6975 77.6359 36.3516 76.0721 35.2002 74.098C34.7344 73.3014 34.3591 72.4229 33.9427 71.5812L33.8203 71.3724C33.7998 71.3143 33.7883 71.2518 33.7865 71.1884L33.6634 70.9777C33.6431 70.9195 33.6317 70.8571 33.6295 70.7937C33.6396 70.7189 33.6333 70.6421 33.6116 70.5712C33.5898 70.5003 33.5531 70.4381 33.5056 70.3908L32.7251 68.2346C32.7413 68.2125 32.7738 68.1748 32.7701 68.1693C32.744 68.1283 32.7156 68.0895 32.6853 68.0534L32.6889 68.058C32.6889 67.8372 32.7302 67.598 32.5282 67.4655C31.7453 64.9673 31.1739 62.3739 30.8233 59.7273C30.8107 59.6354 30.8122 59.5323 30.799 59.4376C30.7098 58.8277 30.2646 58.1617 30.6133 57.6318C30.8904 57.2096 31.5221 57.687 31.9872 57.2436C32.2172 57.0247 32.5615 57.7036 32.9927 57.7339C36.4431 58.0154 39.8963 57.9023 43.3482 57.8875C44.4245 57.8432 45.4976 57.716 46.5614 57.5067C47.2351 57.3991 47.3279 57.8517 47.2085 58.4643C46.6534 61.316 46.1809 64.1787 45.4291 66.9743C44.7762 69.5868 43.7947 72.0532 42.5213 74.2811C42.0201 75.1246 41.3957 75.8532 40.8259 76.6342C40.3475 76.3582 40.0954 76.7069 39.8824 77.1659" fill="#60B7FF"/>
<path d="M22.0475 34.7172C22.9579 34.7172 23.8704 34.662 24.7748 34.7328C25.652 34.7696 26.5094 34.4026 27.1837 33.7016C27.3982 33.5047 27.5854 33.2186 27.8471 33.4054C27.9259 33.4615 27.8707 33.8488 27.8516 34.0815C27.5396 38.7177 27.4411 43.3723 27.5566 48.0226C27.5819 49.916 27.7009 51.8057 27.9128 53.6809C27.9865 54.3561 27.749 54.2402 27.5021 54.2006C26.8984 54.104 26.2941 53.9799 25.7007 53.8078C22.5092 53.0217 19.415 51.7124 16.4986 49.9139C15.0122 49.0429 13.7271 47.7155 12.7637 46.0558C12.3857 45.3299 12.1978 44.4752 12.226 43.6102C12.2543 42.7451 12.4973 41.9124 12.9214 41.2273C13.3361 40.5614 13.8146 39.9614 14.3462 39.4408C15.2521 38.5283 15.3495 38.5669 16.3681 39.5834C16.9202 40.1354 17.8423 39.9514 17.9831 39.1998C18.1061 38.7463 18.1727 38.272 18.1807 37.7933C18.1379 36.9856 18.1925 36.1697 18.1608 35.3611C18.1402 34.8413 18.2854 34.696 18.6915 34.707C19.809 34.7374 20.9271 34.7181 22.0453 34.7172" fill="#60B7FF"/>
<path d="M28.6405 59.7935C28.7545 60.7299 28.9191 61.6556 29.1331 62.5642C29.6174 64.2357 29.7529 66.0166 30.274 67.6752C31.089 70.7043 32.2773 73.5565 33.796 76.1291C33.8822 76.2616 33.9964 76.4418 33.8932 76.5403C33.7586 76.6346 33.5996 76.6585 33.451 76.6065C32.4928 76.2901 31.5411 75.9506 30.5881 75.6139C28.1787 74.6272 25.9089 73.1731 23.8619 71.3051C21.3114 69.1311 19.0902 66.4096 17.3016 63.2671C15.6808 60.525 14.4342 57.4674 13.6124 54.218C13.3176 53.0497 13.0441 51.8603 12.7692 50.6773C12.7228 50.4777 12.6638 50.2716 12.809 50.1603C12.8799 50.1178 12.96 50.1056 13.037 50.1255C13.114 50.1455 13.1836 50.1965 13.235 50.2707C13.7648 50.8217 14.3207 51.3325 14.8995 51.8005C16.4373 53.0608 18.1228 54.0151 19.8956 54.6292C22.1732 55.6846 24.5525 56.3598 26.9718 56.6373C27.3669 56.6622 27.7251 56.9979 28.146 56.9639C28.1815 56.9708 28.2149 56.989 28.2432 57.0167C28.2715 57.0444 28.2936 57.0807 28.3074 57.1221C28.3694 58.0227 28.5802 58.892 28.6422 59.7898" fill="#60B7FF"/>
<path d="M45.2244 13.4671L44.0273 11.252C45.4279 10.9272 51.5533 13.905 54.1995 16.2829C58.623 20.1074 62.0138 25.5152 63.9248 31.7933C61.3995 31.7933 58.9657 31.5937 56.5627 31.8504C54.2135 32.1006 52.1208 30.8661 49.88 30.5873C49.5851 30.5506 49.4628 30.2194 49.4097 29.81C49.1886 28.1211 48.9247 26.4414 48.6726 24.7579C48.7083 24.7254 48.7371 24.6825 48.7565 24.6329C48.7758 24.5833 48.7851 24.5286 48.7836 24.4734C48.7822 24.4183 48.7701 24.3644 48.7482 24.3165C48.7263 24.2687 48.6952 24.2282 48.6579 24.1986C48.2893 22.7075 47.9208 21.2145 47.5441 19.7261C47.4085 19.1926 47.2492 18.6691 47.0951 18.142C47.1106 18.1199 47.143 18.0832 47.1401 18.0767C47.1144 18.0358 47.0866 17.9971 47.0568 17.9608C47.0568 17.7483 47.1003 17.5202 46.9168 17.3767L46.9036 17.3537L46.7944 16.9903C46.4038 16.1891 46.0737 15.3444 45.8082 14.467L45.6556 14.2518C45.6661 14.1765 45.6575 14.0991 45.6311 14.0302C45.6047 13.9613 45.5617 13.9043 45.5082 13.8672L45.5001 13.858C45.5072 13.8087 45.5052 13.7581 45.4944 13.7099C45.4835 13.6617 45.4641 13.6171 45.4375 13.5796C45.4109 13.5421 45.3779 13.5126 45.3409 13.4932C45.3038 13.4739 45.2638 13.4653 45.2237 13.468" fill="#60B7FF"/>
<path d="M43.8812 76.5125C44.8214 74.9439 45.6362 73.2641 46.3137 71.4972C47.5382 68.1368 48.4216 64.5988 48.9436 60.9653C49.1682 59.8237 49.3249 58.663 49.4124 57.4926C49.422 57.1706 49.5842 57.1845 49.7633 57.1118C50.5257 56.8612 51.3006 56.675 52.083 56.5543C52.5312 56.4513 52.7281 56.6334 52.7089 57.2728C52.6235 58.6325 52.6305 59.9989 52.7301 61.3571C52.8488 62.461 52.4656 63.6882 53.1939 64.6927C53.8499 65.596 54.3547 66.3853 55.6012 66.2942C56.5632 66.2654 57.5255 66.3452 58.476 66.5325C56.3038 70.672 47.4628 76.7498 43.8812 76.5106" fill="#60B7FF"/>
<path d="M52.9781 34.2127C52.7581 34.6616 52.6578 35.1859 52.6914 35.7103C52.6988 41.3962 52.6854 47.0812 52.7053 52.7671C52.7053 53.503 52.5336 53.8039 51.9358 53.8388C51.4275 53.8944 50.9243 54.0065 50.432 54.1737C50.0222 54.2923 49.8469 54.147 49.8822 53.6079C49.9913 51.9457 50.1034 50.2825 50.1903 48.6184C50.2885 47.1407 50.3186 45.6572 50.2803 44.1753C50.1838 41.8608 50.3038 39.538 50.0856 37.2208C49.9099 35.9845 49.8496 34.7268 49.9058 33.4731C50.9511 33.5488 51.9839 33.7963 52.9774 34.2091" fill="#60B7FF"/>
<path d="M28.3246 29.1394V14.3833C28.3246 13.0218 28.4721 12.6713 29.4488 12.3236C30.6908 11.8793 31.9548 11.5205 33.2079 11.1406C33.4401 11.1108 33.6741 11.1083 33.9067 11.1333C30.6546 16.5607 29.4022 22.7939 28.3231 29.1375" fill="#60B7FF"/>
<path d="M40.6697 32.3729H36.4468C37.8456 32.0945 39.2709 32.0945 40.6697 32.3729Z" fill="#60B7FF"/>
<path d="M12.7936 36.3232C13.0353 36.5468 13.4695 36.5072 13.4231 36.9782C13.4002 37.21 13.1644 37.5495 12.9108 37.4225C12.4722 37.2017 12.7862 36.7252 12.7936 36.3232Z" fill="#60B7FF"/>
<path d="M39.8846 77.1766C40.0977 76.7167 40.3498 76.369 40.8282 76.6449C40.7928 77.5933 40.1839 76.9559 39.8846 77.1766Z" fill="#01FFFF"/>
<path d="M45.2244 13.4673C45.2644 13.4646 45.3045 13.4732 45.3415 13.4925C45.3785 13.5118 45.4117 13.5414 45.4383 13.5789C45.4649 13.6164 45.4844 13.6609 45.4952 13.7092C45.506 13.7574 45.5078 13.808 45.5008 13.8573C45.36 13.7819 45.2384 13.6844 45.2244 13.4673Z" fill="#01FFFF"/>
<path d="M46.922 17.3779C47.1055 17.5214 47.0636 17.7459 47.0622 17.9621C46.8359 17.8342 46.9573 17.5766 46.922 17.3779Z" fill="#01FFFF"/>
<path d="M34.5655 14.6328C34.5729 14.6824 34.5713 14.7334 34.5606 14.782C34.55 14.8306 34.5305 14.8755 34.5039 14.9134C34.4773 14.9513 34.4441 14.9812 34.4069 15.0008C34.3697 15.0204 34.3294 15.0292 34.2891 15.0265C34.3016 14.8085 34.4262 14.7128 34.5655 14.6328Z" fill="#01FFFF"/>
<path d="M48.6605 24.1978C48.6978 24.2274 48.7288 24.2679 48.7507 24.3158C48.7726 24.3638 48.7848 24.4177 48.7861 24.4728C48.7875 24.5279 48.778 24.5826 48.7586 24.6322C48.7392 24.6817 48.7103 24.7246 48.6746 24.7571C48.6696 24.5731 48.6649 24.3866 48.6605 24.1978Z" fill="#01FFFF"/>
<path d="M32.5298 67.4756C32.7325 67.6099 32.6927 67.8435 32.6912 68.068C32.4627 67.9447 32.5961 67.6678 32.5298 67.4756Z" fill="#01FFFF"/>
<path d="M36.9097 11.2983C36.8508 11.4888 36.7202 11.5136 36.5817 11.5191C36.6311 11.3075 36.7844 11.3351 36.9097 11.2983Z" fill="#01FFFF"/>
<path d="M45.5095 13.8677C45.563 13.9047 45.606 13.9617 45.6324 14.0306C45.6588 14.0995 45.6675 14.1769 45.6571 14.2522C45.5097 14.1832 45.5338 14.0103 45.5095 13.8677Z" fill="#01FFFF"/>
<path d="M46.7989 16.9961L46.9079 17.3585C46.7605 17.2895 46.7841 17.1405 46.7989 16.9961Z" fill="#01FFFF"/>
<path d="M34.2554 15.2134C34.2656 15.2917 34.2555 15.372 34.2266 15.4426C34.1977 15.5133 34.1515 15.5706 34.0947 15.6062C34.1301 15.4636 34.1051 15.2824 34.2554 15.2134Z" fill="#01FFFF"/>
<path d="M43.3262 29.6133C43.4264 29.4404 43.5274 29.4385 43.6276 29.6133H43.3262Z" fill="#01FFFF"/>
<path d="M34.7249 14.2417C34.7351 14.318 34.7259 14.3965 34.6984 14.4658C34.6709 14.5352 34.6264 14.592 34.5715 14.6281C34.5973 14.4836 34.5715 14.307 34.7249 14.2417Z" fill="#01FFFF"/>
<path d="M33.5067 70.3999C33.5544 70.447 33.5911 70.5093 33.6129 70.5802C33.6346 70.6511 33.6407 70.728 33.6305 70.8028C33.4624 70.7292 33.4779 70.5682 33.5067 70.3999Z" fill="#01FFFF"/>
<path d="M39.2776 10.5355L39.108 10.3819C39.209 10.3561 39.2495 10.4343 39.2776 10.5355Z" fill="#01FFFF"/>
<path d="M47.0599 17.9593C47.0899 17.9957 47.1176 18.0347 47.1431 18.0761C47.1431 18.0816 47.1137 18.1184 47.0983 18.1405C47.0798 18.0813 47.0669 18.0195 47.0599 17.9565" fill="#01FFFF"/>
<path d="M32.6866 68.0623C32.7171 68.0984 32.7454 68.1371 32.7714 68.1782C32.7714 68.1838 32.7419 68.2206 32.7264 68.2436C32.7081 68.1842 32.695 68.1225 32.6874 68.0596" fill="#01FFFF"/>
<path d="M33.6639 70.9829L33.787 71.1936C33.7052 71.1605 33.6396 71.1108 33.6639 70.9829Z" fill="#01FFFF"/>
<path d="M33.8205 71.373L33.9429 71.5819C33.8603 71.5497 33.7955 71.4991 33.8205 71.373Z" fill="#01FFFF"/>
<path d="M38.7879 10.3828C38.7378 10.4747 38.6884 10.4747 38.6405 10.3828C38.6635 10.369 38.6888 10.3618 38.7143 10.3618C38.7398 10.3618 38.7649 10.369 38.7879 10.3828Z" fill="#01FFFF"/>
<path d="M19.9638 27.4102C19.167 27.3615 19.0172 26.5713 18.7843 25.8078C18.3251 24.2982 17.8151 22.8135 17.316 21.3233C17.2173 21.0289 16.9806 21.0694 16.7727 21.0694C15.1592 21.0694 13.545 21.0777 11.9322 21.0629C11.6315 21.0629 11.5179 21.1641 11.4074 21.5468C10.9342 23.1888 10.4049 24.8069 9.89483 26.4324C9.79945 26.8007 9.59759 27.1115 9.32859 27.3042C9.05958 27.4969 8.74272 27.5576 8.43977 27.4746C8.29047 27.3995 8.15517 27.2867 8.04251 27.1431C7.92986 26.9996 7.84229 26.8286 7.78517 26.6407C7.72806 26.4529 7.70267 26.2523 7.71067 26.0517C7.71867 25.851 7.75982 25.6546 7.8316 25.4748C9.31024 20.8379 10.7867 16.2004 12.2609 11.5622C12.6228 10.4307 13.029 9.32042 13.3968 8.19171C13.6246 7.48982 14.0529 7.38955 14.5932 7.41071C14.8124 7.40866 15.0259 7.4974 15.2004 7.66303C15.3748 7.82866 15.5004 8.06183 15.5573 8.32601C17.0512 12.9942 18.5465 17.6615 20.0433 22.3278C20.3993 23.439 20.7967 24.5356 21.0937 25.668C21.1499 25.8802 21.1624 26.1067 21.1303 26.3266C21.0981 26.5465 21.0223 26.7529 20.9097 26.9268C20.7972 27.1007 20.6514 27.2365 20.4859 27.322C20.3204 27.4074 20.1403 27.4396 19.9622 27.4158M12.5248 18.3088H16.2656C15.7106 16.5168 15.1777 14.7874 14.633 13.0653C14.5939 12.9412 14.5983 12.7121 14.4118 12.7296C14.3471 12.7404 14.2866 12.7752 14.2379 12.8295C14.1893 12.8838 14.1549 12.9551 14.1391 13.0341C13.6091 14.7598 13.0828 16.4874 12.527 18.3106" fill="black"/>
<path d="M62.71 42.9051C63.4899 42.9051 64.2705 42.8995 65.0511 42.9051C65.4197 42.9051 65.5568 42.8131 65.4197 42.2777C65.2626 41.3269 65.3174 40.3406 65.5782 39.426C65.6213 39.1499 65.7411 38.9017 65.9163 38.7249C66.0916 38.548 66.3111 38.454 66.5365 38.4592C66.7829 38.449 67.0236 38.5537 67.2117 38.7528C67.3997 38.9519 67.5215 39.2312 67.5536 39.5364C67.6877 40.3583 67.7314 41.1991 67.6833 42.0357C67.6524 42.7027 67.8042 42.9372 68.3681 42.9179C69.7973 42.8683 71.2303 42.8627 72.6588 42.9179C73.2235 42.9409 73.8987 42.9538 73.9452 44.0292C73.9946 45.1652 73.6629 45.7356 72.7319 45.593C71.3896 45.3897 70.7239 45.8956 70.3547 47.6168C69.9162 49.3762 69.2061 51.0116 68.2643 52.4306C68.1982 52.5046 68.1467 52.5968 68.1142 52.6999C68.0816 52.803 68.0689 52.9141 68.0767 53.0244C68.0846 53.1348 68.1129 53.2413 68.1595 53.3356C68.2061 53.4299 68.2697 53.5093 68.3452 53.5676C69.3005 54.5951 70.3103 55.541 71.3675 56.3991C72.3028 57.1984 72.3573 57.9629 71.601 58.7908C71.4769 58.9562 71.3091 59.0601 71.1285 59.0834C70.9478 59.1067 70.7664 59.0479 70.6178 58.9177C69.3174 58.0634 68.1279 56.969 67.0893 55.6714C66.678 55.102 66.3942 55.0836 65.9601 55.653C64.9779 56.9263 63.8435 58.0018 62.5974 58.8414C62.4701 58.9592 62.3224 59.0379 62.1662 59.0712C62.01 59.1045 61.8497 59.0915 61.6983 59.0332C61.5469 58.9749 61.4085 58.873 61.2945 58.7356C61.1805 58.5982 61.094 58.4293 61.042 58.2425C60.9859 58.0865 60.9556 57.9179 60.9527 57.7469C60.9498 57.576 60.9745 57.406 61.0252 57.2471C61.076 57.0882 61.1517 56.9437 61.248 56.822C61.3444 56.7004 61.4593 56.6041 61.586 56.5389C62.7558 55.7207 63.8236 54.6936 64.7556 53.4903C65.0224 53.1288 65.0991 52.8979 64.8249 52.4288C63.6917 50.5536 62.8385 48.4391 62.3062 46.1863C62.1949 45.6933 62.0114 45.6003 61.6605 45.6197C61.2182 45.6436 60.7759 45.6335 60.3337 45.6096C60.178 45.6335 60.0201 45.6154 59.8705 45.5567C59.7208 45.4979 59.5829 45.3998 59.4663 45.2689C59.3496 45.138 59.2569 44.9775 59.1942 44.798C59.1315 44.6186 59.1004 44.4244 59.1029 44.2287C59.1055 44.033 59.1416 43.8402 59.2089 43.6634C59.2763 43.4866 59.3733 43.3299 59.4933 43.2038C59.6133 43.0778 59.7536 42.9853 59.9046 42.9326C60.0557 42.88 60.2141 42.8684 60.3691 42.8986C61.149 42.8784 61.9301 42.8986 62.7107 42.8931M64.3547 45.6528C65.0181 47.2875 65.534 48.8301 66.2586 50.2412C66.3935 50.5034 66.4937 50.9266 66.7693 50.4252C67.5992 48.9638 68.2505 47.3567 68.7021 45.6565L64.3547 45.6528Z" fill="black"/>
<path d="M12.5238 18.3012C13.0796 16.4789 13.6059 14.7504 14.1359 13.0247C14.1517 12.9457 14.1861 12.8744 14.2348 12.8201C14.2834 12.7658 14.3439 12.731 14.4086 12.7202C14.5973 12.7027 14.5928 12.9318 14.6297 13.0559C15.1744 14.7798 15.7067 16.5093 16.2624 18.2994L12.5238 18.3012Z" fill="#E4F1FF"/>
<path d="M64.354 45.6638H68.7029C68.2514 47.3641 67.6 48.9712 66.7701 50.4326C66.4944 50.9376 66.3943 50.5154 66.2594 50.2486C65.5341 48.8375 65.0203 47.2948 64.3554 45.6602" fill="#E4F1FF"/>
</g>
<defs>
<clipPath id="clip0_306_2">
<rect width="80" height="80" fill="white" transform="translate(0.5)"/>
</clipPath>
</defs>
</svg>
