<svg width="81" height="80" viewBox="0 0 81 80" fill="none" xmlns="http://www.w3.org/2000/svg">
<g clip-path="url(#clip0_306_69)">
<path d="M39.8558 0H41.1047C41.2396 0.0673672 41.3789 0.125497 41.5216 0.173989C47.1155 1.68189 52.7099 3.18765 58.305 4.69126C58.7984 4.79233 59.2536 5.02998 59.6186 5.37716C59.9837 5.72434 60.2439 6.16709 60.3697 6.65497C60.4954 7.14285 60.4817 7.65624 60.33 8.13668C60.1783 8.61712 59.8947 9.04528 59.5116 9.3724C59.3031 9.58253 59.1749 9.85906 59.149 10.154C59.1085 11.22 59.1407 12.2879 59.1297 13.3557C59.1117 13.6541 59.1639 13.9526 59.2822 14.2271C59.4004 14.5016 59.5815 14.7445 59.8107 14.9364C59.9581 15.0454 60.0812 15.1837 60.1724 15.3426C60.2636 15.5016 60.321 15.6777 60.3408 15.8599C60.3606 16.0421 60.3425 16.2264 60.2877 16.4013C60.2328 16.5761 60.1422 16.7377 60.0218 16.8759C59.9014 17.014 59.7538 17.1258 59.5881 17.204C59.4224 17.2823 59.2423 17.3253 59.0591 17.3305C58.876 17.3357 58.6938 17.303 58.5239 17.2342C58.3541 17.1655 58.2002 17.0624 58.0722 16.9313C57.5438 16.5242 57.1216 15.9955 56.8413 15.3901C56.5611 14.7847 56.4311 14.1206 56.4625 13.4542C56.4625 12.4959 56.4625 11.5376 56.4625 10.4854C55.7188 10.6796 55.082 10.8867 54.4248 11.0046C53.9002 11.0966 53.7806 11.3572 53.7806 11.8561C53.8046 14.303 53.8101 16.7508 53.7806 19.1977C53.7724 19.8292 53.8515 20.2481 54.5427 20.4967C55.0134 20.7174 55.4331 21.0337 55.775 21.4255C57.7768 23.4002 59.727 25.4273 61.7573 27.3678C62.6712 28.2396 63.3651 29.1215 63.1525 30.4628C63.1461 30.4996 63.2031 30.5466 63.2693 30.6469H64.0774C66.6544 30.6469 69.2314 30.6534 71.8084 30.6469C72.6596 30.5969 73.5055 30.8102 74.2313 31.2579C74.9572 31.7055 75.5276 32.3658 75.8652 33.1491C76.7635 34.9957 77.7354 36.8084 78.5922 38.6725C78.9087 39.3467 79.0818 40.0793 79.1002 40.8239C79.1327 50.6127 79.1379 60.4015 79.1158 70.1903C79.111 70.6444 79.2769 71.0837 79.5806 71.4211C80.0028 71.9948 80.2924 72.6551 80.4283 73.3544C80.5089 74.0265 80.5193 74.7053 80.4595 75.3796C80.4595 77.6976 79.5125 78.6477 77.1959 78.6486C71.7558 78.6486 66.3166 78.6394 60.8774 78.6698C60.4738 78.7479 60.089 78.9026 59.7436 79.1255C59.1196 79.4016 58.5066 79.71 57.8761 79.9742C57.6978 80.0116 57.5141 80.0163 57.3341 79.988C46.0899 79.988 34.8461 79.9902 23.6025 79.9945C23.175 80.0446 22.7416 79.9944 22.3368 79.8478C21.932 79.7013 21.5668 79.4625 21.2703 79.1503C21.1271 78.9709 20.9412 78.8304 20.7296 78.7416C20.518 78.6529 20.2875 78.6186 20.0592 78.6422C14.6458 78.6541 9.23138 78.6191 3.81883 78.6679C2.1843 78.6827 1.05773 78.1248 0.5 76.5506V72.6391C0.694208 72.2228 0.953715 71.8402 1.26856 71.5058C1.48643 71.3278 1.65411 71.096 1.75514 70.8334C1.85617 70.5707 1.88704 70.2863 1.84468 70.0081C1.83547 60.2248 1.83941 50.4415 1.85659 40.6582C1.86895 40.0152 2.01733 39.382 2.29193 38.8005C3.17178 36.9179 4.1501 35.0823 5.05296 33.2107C5.39638 32.4024 5.98262 31.7209 6.73041 31.2606C7.4782 30.8002 8.35058 30.5839 9.22675 30.6414C11.8037 30.6626 14.3807 30.6469 16.9522 30.6469H17.9121C17.4408 29.0681 18.3814 28.1614 19.2107 27.18C20.6584 25.4742 22.1116 23.7739 23.5022 22.0248C23.8968 21.4318 24.424 20.9388 25.042 20.5847C25.66 20.2306 26.352 20.0253 27.063 19.9848C27.1054 19.8928 27.1458 19.8486 27.1458 19.8007C27.1541 17.0693 27.1716 14.3371 27.1403 11.6076C27.1403 11.4124 26.8145 11.1141 26.5881 11.0469C25.2941 10.6621 23.9845 10.3344 22.6804 9.98458C22.067 9.86659 21.5137 9.53892 21.1153 9.0577C20.7169 8.57649 20.4982 7.97169 20.4967 7.34691C20.4952 6.72214 20.7109 6.11628 21.107 5.63313C21.503 5.14998 22.0547 4.81961 22.6675 4.69863C26.4041 3.69796 30.1443 2.71018 33.8791 1.69662C35.8772 1.1544 37.8651 0.570758 39.8613 0.00644404M55.1087 41.379H25.8638V70.5843H33.8091V69.6104C33.8091 64.7957 33.8091 59.9811 33.8091 55.1665C33.8091 53.735 34.239 53.3097 35.6811 53.3088C38.8551 53.3088 42.029 53.3088 45.203 53.3088C46.7528 53.3088 47.1587 53.7092 47.1587 55.242C47.1587 60.0566 47.1587 64.8712 47.1587 69.6859V70.5733H55.1059L55.1087 41.379ZM57.8623 70.6H76.4027V41.3735H57.8559L57.8623 70.6ZM4.56706 70.6H23.1101V41.3753H4.56706V70.6ZM22.0664 27.9312H58.4624C56.7864 26.2401 55.1979 24.6043 53.5616 23.0172C53.2545 22.7827 52.8755 22.662 52.4893 22.6757C44.0884 22.6572 35.6872 22.6588 27.2857 22.6803C26.85 22.6783 26.4296 22.8403 26.1077 23.1341C24.7512 24.6659 23.4636 26.2585 22.0674 27.9312M57.4583 7.4309V7.25599C57.3663 7.22285 57.2678 7.18418 57.1703 7.15749C51.728 5.69377 46.2844 4.23373 40.8397 2.77738C40.5655 2.71777 40.2807 2.72758 40.0113 2.80592C35.8692 3.90263 31.7276 5.00733 27.5867 6.12C26.2135 6.48823 24.8431 6.87211 23.2923 7.29834C23.5841 7.41249 23.6743 7.45852 23.77 7.48245C29.0869 8.91487 34.4009 10.3556 39.7251 11.7585C40.2422 11.8856 40.7827 11.8837 41.2989 11.753C44.6683 10.8821 48.0248 9.96065 51.385 9.05572L57.45 7.42169M29.8627 19.9415H51.0803V11.9325C50.8042 11.9997 50.5741 12.0485 50.3514 12.1084C47.4422 12.8862 44.5431 13.7028 41.6182 14.4172C40.8692 14.5897 40.0905 14.5859 39.3432 14.4061C36.4193 13.689 33.5192 12.8724 30.61 12.0973C30.3754 12.0347 30.1314 12.0052 29.8636 11.9565L29.8627 19.9415ZM57.7574 73.37H23.215V77.3009H57.7574V73.37ZM36.4707 70.5788H44.4198C44.4486 70.4888 44.4693 70.3964 44.4815 70.3026C44.4815 65.7246 44.4814 61.1457 44.498 56.5667C44.498 56.0521 44.2716 55.9711 43.8363 55.9739C41.6514 55.9877 39.4665 56.0042 37.2825 55.9647C36.6263 55.9527 36.4542 56.1571 36.4542 56.7996C36.4809 60.9882 36.468 65.1769 36.468 69.3646L36.4707 70.5788ZM20.5313 33.2605H60.4053V30.6874H20.5313V33.2605ZM23.1746 38.586H57.7611V36.0452H23.1746V38.586ZM60.5065 38.5934H75.6002C74.8713 37.1342 74.1635 35.7801 73.5174 34.3974C73.3787 34.046 73.1295 33.7492 72.8075 33.552C72.4854 33.3547 72.1079 33.2675 71.732 33.3037C69.1044 33.3286 66.4767 33.312 63.8492 33.3148C63.6237 33.3148 63.3982 33.3415 63.1644 33.3571C63.1329 34.0533 62.8431 34.7127 62.3514 35.2064C61.8596 35.7002 61.2015 35.9927 60.5056 36.0268L60.5065 38.5934ZM5.35113 38.5934H20.4522V36.0176C19.7485 35.9838 19.0828 35.6881 18.5859 35.1885C18.089 34.6889 17.7968 34.0216 17.7666 33.3175C14.7626 33.3175 11.7991 33.2964 8.83927 33.3442C8.62433 33.3574 8.41487 33.4172 8.22541 33.5196C8.03595 33.622 7.87101 33.7645 7.74221 33.9371C6.90653 35.4257 6.1712 36.975 5.34933 38.5897M3.19666 75.9191H20.4228V73.3562H3.19666V75.9191ZM77.7731 73.3663H60.5129V75.909H77.7731V73.3663Z" fill="black"/>
<path d="M55.1038 41.3726V70.5714H47.1566V69.6831C47.1566 64.8685 47.1566 60.0538 47.1566 55.2392C47.1566 53.7074 46.7507 53.306 45.2009 53.306C42.0269 53.306 38.8526 53.306 35.678 53.306C34.2368 53.306 33.807 53.7322 33.8061 55.1637C33.8061 59.9783 33.8061 64.793 33.8061 69.6076V70.5816H25.8607V41.3726H55.1038ZM35.1664 46.6502H35.1608C35.1608 47.0657 35.1608 47.4815 35.1608 47.8976C35.1608 47.9492 35.1608 48.0016 35.1654 48.0532C35.1843 48.3805 35.322 48.6897 35.5526 48.9227C35.7832 49.1558 36.091 49.2967 36.418 49.319C36.7476 49.3401 37.0727 49.2338 37.3261 49.022C37.5796 48.8103 37.7421 48.5093 37.7801 48.1812C37.8437 47.1695 37.8437 46.1549 37.7801 45.1433C37.7661 44.98 37.7197 44.8211 37.6439 44.6758C37.568 44.5305 37.4643 44.4016 37.3384 44.2967C37.2125 44.1918 37.0671 44.1128 36.9106 44.0644C36.754 44.016 36.5894 43.9991 36.4263 44.0146C36.0973 44.015 35.7816 44.1441 35.5465 44.3742C35.3114 44.6044 35.1756 44.9174 35.1682 45.2464C35.1369 45.7122 35.1627 46.1817 35.1627 46.6493M45.7926 46.6926H45.7972C45.7972 46.2765 45.7972 45.8607 45.7972 45.4452C45.7972 45.3937 45.7972 45.3412 45.7972 45.2896C45.7954 44.9609 45.6673 44.6456 45.4395 44.4087C45.2116 44.1719 44.9015 44.0318 44.5732 44.0174C44.4041 43.9967 44.2326 44.0107 44.0691 44.0586C43.9056 44.1064 43.7535 44.1871 43.6222 44.2956C43.4908 44.4041 43.3829 44.5383 43.3051 44.6899C43.2273 44.8414 43.1813 45.0073 43.1696 45.1773C43.1131 46.1637 43.1131 47.1525 43.1696 48.1388C43.1997 48.4676 43.3534 48.7726 43.5998 48.9922C43.8462 49.2119 44.1668 49.3297 44.4968 49.3218C44.8385 49.3119 45.1633 49.1711 45.4041 48.9285C45.6449 48.6859 45.7834 48.36 45.7908 48.0182C45.8166 47.5782 45.7954 47.1345 45.7954 46.6926" fill="#E4F1FF"/>
<path d="M57.8566 41.3745H76.3969V70.5973H57.8566V41.3745ZM69.821 47.941C69.821 48.4087 69.8008 48.8781 69.8256 49.3449C69.8196 49.6737 69.942 49.992 70.1671 50.2319C70.3921 50.4717 70.7018 50.6143 71.0303 50.6291C71.1928 50.6515 71.3581 50.6412 71.5165 50.5987C71.6749 50.5563 71.8231 50.4826 71.9526 50.382C72.0821 50.2814 72.1901 50.1559 72.2704 50.0128C72.3507 49.8698 72.4016 49.7122 72.4201 49.5492C72.4968 48.5135 72.4968 47.4735 72.4201 46.4377C72.3798 46.1092 72.2131 45.8093 71.9553 45.6018C71.6975 45.3943 71.369 45.2956 71.0396 45.3265C70.7122 45.3498 70.4055 45.4952 70.1802 45.7339C69.9549 45.9725 69.8273 46.2871 69.8228 46.6154C69.7971 47.0554 69.8183 47.4991 69.8173 47.941M72.4697 55.9353H72.4642C72.4642 55.4934 72.4965 55.0488 72.4569 54.6115C72.4513 54.435 72.4105 54.2613 72.3372 54.1006C72.2638 53.94 72.1593 53.7955 72.0297 53.6756C71.9 53.5557 71.7478 53.4627 71.582 53.4021C71.4161 53.3415 71.2399 53.3145 71.0635 53.3227C70.722 53.3399 70.4008 53.49 70.1686 53.741C69.9364 53.992 69.8117 54.324 69.821 54.6658C69.7962 55.5229 69.798 56.3808 69.821 57.2379C69.8063 57.4135 69.8281 57.5903 69.8849 57.7572C69.9417 57.924 70.0323 58.0773 70.1511 58.2075C70.2699 58.3377 70.4144 58.4419 70.5753 58.5136C70.7363 58.5853 70.9103 58.623 71.0865 58.6243C71.2691 58.6338 71.4518 58.6051 71.6226 58.5399C71.7935 58.4748 71.9489 58.3747 72.0789 58.246C72.2088 58.1173 72.3104 57.9628 72.3773 57.7926C72.4441 57.6223 72.4747 57.44 72.467 57.2572C72.4937 56.8172 72.4716 56.3744 72.4716 55.9325M64.4463 47.9879H64.4324C64.4626 47.4702 64.458 46.9511 64.4186 46.434C64.3703 46.1186 64.2076 45.8321 63.9615 45.6291C63.7154 45.4262 63.4032 45.321 63.0845 45.3336C62.7658 45.3462 62.4628 45.4758 62.2336 45.6977C62.0043 45.9195 61.8648 46.218 61.8416 46.5362C61.7938 47.4945 61.7928 48.4593 61.8416 49.4176C61.8441 49.581 61.8791 49.7423 61.9446 49.892C62.0101 50.0418 62.1048 50.1769 62.2231 50.2897C62.3415 50.4024 62.4812 50.4903 62.6339 50.5485C62.7866 50.6066 62.9493 50.6337 63.1126 50.6282C63.4418 50.6474 63.7654 50.5362 64.0133 50.3186C64.2611 50.101 64.4134 49.7945 64.4371 49.4655C64.4696 48.9736 64.4732 48.4802 64.4481 47.9879M69.8228 63.9922C69.8228 64.434 69.8044 64.8759 69.8228 65.3169C69.8204 65.6584 69.9506 65.9876 70.1859 66.235C70.4213 66.4825 70.7435 66.6289 71.0846 66.6434C71.4143 66.6624 71.7387 66.5532 71.9898 66.3385C72.2409 66.1239 72.3994 65.8205 72.4321 65.4918C72.5019 64.4804 72.5019 63.4653 72.4321 62.4539C72.4179 62.2904 72.3711 62.1314 72.2945 61.9863C72.2179 61.8411 72.113 61.7128 71.9861 61.6088C71.8591 61.5048 71.7127 61.4273 71.5553 61.3809C71.398 61.3344 71.2329 61.3198 71.0699 61.3382C70.7414 61.3437 70.428 61.4772 70.1965 61.7103C69.965 61.9435 69.8336 62.2578 69.8303 62.5865C69.8017 63.0523 69.8247 63.5218 69.8247 63.9894M64.4628 55.9684C64.4836 55.5015 64.4808 55.0339 64.4545 54.5673C64.4359 54.2256 64.2857 53.9044 64.0353 53.6713C63.7849 53.4381 63.4538 53.3112 63.1117 53.3172C62.7691 53.3215 62.4421 53.4616 62.2025 53.7066C61.9629 53.9516 61.8301 54.2816 61.8333 54.6244C61.7956 55.5312 61.7946 56.4425 61.8333 57.3502C61.8306 57.52 61.8625 57.6886 61.9269 57.8458C61.9913 58.0029 62.0869 58.1454 62.208 58.2644C62.3291 58.3835 62.4731 58.4767 62.6313 58.5384C62.7895 58.6001 62.9586 58.629 63.1283 58.6234C63.298 58.6294 63.4671 58.6016 63.6259 58.5416C63.7847 58.4816 63.9301 58.3906 64.0534 58.274C64.1767 58.1573 64.2755 58.0172 64.3443 57.862C64.413 57.7067 64.4501 57.5393 64.4536 57.3695C64.4987 56.9093 64.4619 56.4361 64.461 55.9684M61.8352 63.902C61.8352 64.4212 61.7975 64.9431 61.8444 65.4577C61.8685 65.7724 62.0077 66.0671 62.2354 66.2855C62.4631 66.504 62.7633 66.6307 63.0786 66.6416C63.3947 66.6686 63.7091 66.5724 63.9561 66.3731C64.2031 66.1738 64.3635 65.8867 64.4039 65.5719C64.4851 64.5126 64.4851 63.4487 64.4039 62.3895C64.3909 62.2317 64.3456 62.0783 64.271 61.9387C64.1964 61.7991 64.094 61.6763 63.97 61.5778C63.8461 61.4794 63.7033 61.4074 63.5504 61.3664C63.3976 61.3253 63.2379 61.316 63.0814 61.3391C62.7658 61.3382 62.4619 61.4581 62.2318 61.6741C62.0017 61.89 61.8628 62.1858 61.8435 62.5008C61.7984 62.9611 61.8352 63.4343 61.8352 63.901" fill="#E4F1FF"/>
<path d="M4.56152 41.3755H23.1046V70.5918H4.56152V41.3755ZM11.142 47.9963C11.142 47.5286 11.1658 47.0591 11.1364 46.5924C11.1271 46.2639 10.9945 45.951 10.765 45.7159C10.5354 45.4808 10.2257 45.3408 9.89765 45.3238C9.56784 45.3004 9.24176 45.4052 8.98742 45.6166C8.73309 45.8279 8.57014 46.1294 8.53275 46.458C8.46294 47.4694 8.46294 48.4845 8.53275 49.4959C8.54766 49.6658 8.59706 49.8308 8.67791 49.9809C8.75876 50.131 8.86943 50.2631 9.00304 50.369C9.13665 50.4749 9.29042 50.5524 9.45501 50.5968C9.6196 50.6412 9.7915 50.6516 9.96023 50.6273C10.2884 50.606 10.5954 50.4579 10.8164 50.2143C11.0375 49.9707 11.1552 49.6507 11.1447 49.3219C11.1677 48.881 11.1447 48.4382 11.1447 47.9963M11.1447 56.0716C11.1447 55.5782 11.1686 55.0829 11.1392 54.5913C11.1303 54.2628 10.9976 53.9498 10.7677 53.7151C10.5378 53.4803 10.2276 53.3412 9.89945 53.3255C9.5698 53.2999 9.24321 53.4037 8.98877 53.6149C8.73433 53.8261 8.57207 54.1281 8.53646 54.4569C8.46803 55.4684 8.46803 56.4833 8.53646 57.4948C8.54978 57.6582 8.59527 57.8173 8.67038 57.963C8.74548 58.1087 8.84871 58.2381 8.97405 58.3437C9.0994 58.4493 9.24444 58.5291 9.40074 58.5783C9.55705 58.6276 9.7215 58.6454 9.88473 58.6308C10.0542 58.6296 10.2217 58.5946 10.3775 58.5279C10.5332 58.4611 10.674 58.3639 10.7917 58.242C10.9094 58.1201 11.0017 57.9759 11.0629 57.8178C11.1242 57.6598 11.1532 57.4912 11.1484 57.3217C11.1705 56.9075 11.1484 56.4932 11.1484 56.0753M11.1484 63.9536C11.1484 63.5117 11.1687 63.0689 11.1438 62.6289C11.1491 62.3 11.0256 61.982 10.7996 61.7431C10.5736 61.5041 10.2631 61.3631 9.9345 61.3502C9.77202 61.328 9.60672 61.3386 9.44838 61.3813C9.29004 61.4239 9.14186 61.4978 9.01247 61.5986C8.88309 61.6994 8.77514 61.825 8.69498 61.9681C8.61483 62.1112 8.56404 62.2689 8.54567 62.4319C8.46999 63.4677 8.46999 64.5076 8.54567 65.5434C8.58544 65.8716 8.75234 66.1712 9.01045 66.3777C9.26857 66.5843 9.59732 66.6813 9.92619 66.6481C10.2533 66.6246 10.5597 66.4791 10.7846 66.2404C11.0096 66.0018 11.1368 65.6873 11.141 65.3593C11.1677 64.8935 11.1466 64.424 11.1466 63.9563M19.1397 47.988C19.1397 47.5203 19.1711 47.0499 19.1324 46.586C19.1213 46.2573 18.9862 45.9451 18.7544 45.712C18.5225 45.4789 18.2111 45.3422 17.8826 45.3294C17.5531 45.3081 17.2282 45.4164 16.9774 45.6312C16.7266 45.846 16.5696 46.1502 16.5398 46.4792C16.4713 47.4907 16.4713 48.5056 16.5398 49.5171C16.5515 49.6806 16.596 49.8402 16.6707 49.9861C16.7454 50.132 16.8488 50.2614 16.9747 50.3664C17.1006 50.4714 17.2464 50.55 17.4033 50.5973C17.5603 50.6447 17.7251 50.6599 17.8881 50.642C18.2171 50.6377 18.5315 50.5048 18.7638 50.2717C18.9962 50.0386 19.1281 49.7238 19.1314 49.3946C19.1682 48.9343 19.138 48.4603 19.137 47.9926M19.1305 56.0541H19.1259C19.1259 55.5349 19.1664 55.012 19.1167 54.4983C19.0892 54.1839 18.9461 53.8909 18.7151 53.676C18.484 53.461 18.1814 53.3394 17.866 53.3347C17.5496 53.3131 17.237 53.4139 16.9928 53.6162C16.7486 53.8185 16.5914 54.107 16.5536 54.4219C16.4786 55.4564 16.4751 56.4948 16.5434 57.5298C16.559 57.6915 16.6067 57.8485 16.6837 57.9915C16.7608 58.1346 16.8656 58.2608 16.992 58.3627C17.1185 58.4647 17.264 58.5403 17.4201 58.5853C17.5761 58.6302 17.7397 58.6435 17.901 58.6243C18.2164 58.6184 18.5178 58.4929 18.7442 58.2731C18.9706 58.0533 19.1051 57.7557 19.1204 57.4405C19.1637 56.9802 19.1287 56.507 19.1287 56.0394M19.1287 64.0484H19.1481C19.1481 63.6065 19.1481 63.1649 19.1481 62.7237C19.1471 62.6716 19.143 62.6197 19.136 62.5681C19.1221 62.2407 18.9839 61.9309 18.7497 61.7017C18.5154 61.4726 18.2027 61.3412 17.8752 61.3345C17.7122 61.3194 17.5479 61.337 17.3919 61.3862C17.2358 61.4354 17.0911 61.5153 16.9663 61.6212C16.8415 61.7271 16.739 61.8569 16.665 62.0029C16.5909 62.1489 16.5469 62.3082 16.5352 62.4714C16.4676 63.4808 16.4676 64.4935 16.5352 65.5029C16.5807 65.8165 16.7393 66.1026 16.981 66.3074C17.2227 66.5122 17.5309 66.6215 17.8476 66.6148C18.1644 66.6082 18.4677 66.4859 18.7006 66.2711C18.9335 66.0563 19.0798 65.7638 19.1121 65.4486C19.1554 64.9883 19.1204 64.5151 19.1204 64.0484" fill="#E4F1FF"/>
<path d="M22.0607 27.9268C23.4559 26.2541 24.7443 24.6615 26.1 23.1297C26.4221 22.8358 26.8429 22.6737 27.2789 22.6759C35.6799 22.6507 44.0811 22.6492 52.4826 22.6713C52.8687 22.6576 53.2477 22.7783 53.5548 23.0128C55.1912 24.5999 56.776 26.2348 58.4556 27.9268H22.0607Z" fill="#E4F1FF"/>
<path d="M57.4519 7.42654L51.3869 9.06056C48.0258 9.96549 44.6683 10.8861 41.2998 11.7579C40.7836 11.8886 40.2432 11.8905 39.7261 11.7634C34.4019 10.3604 29.0877 8.91972 23.7709 7.4873C23.6789 7.46152 23.5869 7.41549 23.2933 7.30318C24.8441 6.87696 26.2145 6.49399 27.5877 6.12484C31.7268 5.01401 35.8683 3.90932 40.0123 2.81077C40.2817 2.73227 40.5664 2.72246 40.8405 2.78223C46.2871 4.23183 51.7307 5.69156 57.1711 7.16141C57.2687 7.18811 57.3636 7.22677 57.4602 7.25991V7.43022" fill="#6E7689"/>
<path d="M29.8643 19.949V11.9639C30.1321 12.0136 30.376 12.0421 30.6107 12.1047C33.5199 12.8799 36.4199 13.6964 39.3438 14.4135C40.0914 14.5933 40.8705 14.5971 41.6198 14.4246C44.5437 13.7102 47.4437 12.8937 50.3529 12.1158C50.5766 12.0559 50.8021 12.0071 51.0828 11.9399V19.949H29.8643Z" fill="#6E7689"/>
<path d="M57.7576 73.3682H23.2152V77.2999H57.7576V73.3682Z" fill="#6E7689"/>
<path d="M36.4715 70.5778V69.3608C36.4715 65.1722 36.4843 60.9836 36.4576 56.7959C36.4576 56.1514 36.6261 55.9498 37.286 55.9609C39.47 55.9995 41.6548 55.983 43.8397 55.9692C44.275 55.9692 44.5033 56.0483 44.5014 56.562C44.484 61.14 44.4895 65.719 44.4849 70.298C44.4728 70.3917 44.4521 70.4841 44.4232 70.5741L36.4715 70.5778Z" fill="#60B7FF"/>
<path d="M60.4063 30.6865H20.5323V33.2586H60.4063V30.6865Z" fill="#60B7FF"/>
<path d="M57.7617 36.0454H23.1752V38.5853H57.7617V36.0454Z" fill="#6E7689"/>
<path d="M60.5111 38.5926V36.026C61.207 35.9919 61.8651 35.6993 62.3569 35.2056C62.8486 34.7119 63.1385 34.0525 63.17 33.3563C63.4038 33.3416 63.6302 33.3149 63.8548 33.314C66.4824 33.314 69.1099 33.3278 71.7375 33.3029C72.1134 33.2667 72.491 33.3539 72.8131 33.5512C73.1352 33.7484 73.3843 34.0452 73.523 34.3966C74.1672 35.7774 74.8768 37.1334 75.6057 38.5926H60.5111Z" fill="#6E7689"/>
<path d="M5.35205 38.5888C6.17024 36.9704 6.90465 35.4248 7.74492 33.9362C7.87382 33.7637 8.03868 33.6213 8.22813 33.5189C8.41757 33.4165 8.62707 33.3566 8.84199 33.3434C11.8046 33.2955 14.768 33.3167 17.7693 33.3167C17.7995 34.0207 18.0917 34.6881 18.5886 35.1876C19.0855 35.6872 19.7512 35.9829 20.4549 36.0167V38.5888H5.35205Z" fill="#6E7689"/>
<path d="M20.4247 73.3564H3.19861V75.9184H20.4247V73.3564Z" fill="#6E7689"/>
<path d="M77.7739 73.3652H60.5138V75.9079H77.7739V73.3652Z" fill="#6E7689"/>
<path d="M35.1684 46.6501C35.1684 46.1824 35.1427 45.7129 35.174 45.2471C35.1814 44.9181 35.3172 44.6051 35.5522 44.375C35.7873 44.1448 36.1031 44.0158 36.432 44.0154C36.5952 43.9998 36.7597 44.0167 36.9162 44.0651C37.0728 44.1136 37.2183 44.1925 37.3442 44.2974C37.4701 44.4024 37.5738 44.5312 37.6496 44.6765C37.7255 44.8218 37.7717 44.9807 37.7858 45.144C37.8495 46.1556 37.8495 47.1703 37.7858 48.1819C37.7478 48.51 37.5853 48.811 37.3318 49.0228C37.0783 49.2345 36.7533 49.3408 36.4237 49.3197C36.0967 49.2974 35.789 49.1565 35.5584 48.9235C35.3278 48.6905 35.1901 48.3813 35.1712 48.0539C35.1666 48.0024 35.1657 47.9499 35.1657 47.8984C35.1657 47.4823 35.1657 47.0665 35.1657 46.651H35.1712" fill="black"/>
<path d="M45.7967 46.6932C45.7967 47.1351 45.8179 47.5779 45.7921 48.0189C45.7847 48.3607 45.6462 48.6866 45.4054 48.9292C45.1646 49.1718 44.8398 49.3126 44.4981 49.3224C44.1682 49.3301 43.8477 49.2122 43.6013 48.9926C43.355 48.7731 43.2012 48.4681 43.1709 48.1395C43.1142 47.1531 43.1142 46.1643 43.1709 45.178C43.1826 45.008 43.2287 44.8421 43.3065 44.6905C43.3843 44.5389 43.4921 44.4048 43.6235 44.2962C43.7548 44.1877 43.9069 44.1071 44.0704 44.0592C44.2339 44.0114 44.4054 43.9974 44.5745 44.018C44.9028 44.0324 45.2129 44.1726 45.4408 44.4094C45.6686 44.6462 45.7967 44.9616 45.7985 45.2903C45.7985 45.3418 45.8031 45.3943 45.8031 45.4459C45.8031 45.862 45.8031 46.2778 45.8031 46.6932H45.7967Z" fill="black"/>
<path d="M69.8212 47.9408C69.8212 47.499 69.8 47.0562 69.8258 46.6152C69.8302 46.287 69.9577 45.9724 70.183 45.7337C70.4084 45.495 70.715 45.3497 71.0424 45.3264C71.3718 45.2954 71.7004 45.3942 71.9582 45.6016C72.216 45.8091 72.3827 46.109 72.4229 46.4375C72.4998 47.4733 72.4998 48.5133 72.4229 49.5491C72.4044 49.712 72.3536 49.8697 72.2734 50.0127C72.1931 50.1557 72.085 50.2812 71.9555 50.3818C71.826 50.4824 71.6777 50.5561 71.5193 50.5986C71.3609 50.641 71.1956 50.6513 71.0332 50.6289C70.7047 50.6139 70.3952 50.4713 70.1702 50.2315C69.9453 49.9916 69.8226 49.6735 69.8285 49.3447C69.8036 48.878 69.8239 48.4094 69.8285 47.9408" fill="black"/>
<path d="M72.4718 55.935C72.4718 56.3769 72.4939 56.8197 72.4672 57.2597C72.475 57.4426 72.4445 57.625 72.3777 57.7954C72.311 57.9658 72.2093 58.1203 72.0793 58.2491C71.9494 58.3779 71.7939 58.4781 71.623 58.5433C71.4521 58.6085 71.2694 58.6373 71.0867 58.6277C70.9104 58.6265 70.7363 58.5887 70.5754 58.517C70.4144 58.4453 70.2701 58.3411 70.1513 58.2109C70.0324 58.0808 69.9418 57.9275 69.885 57.7606C69.8282 57.5938 69.8065 57.417 69.8212 57.2413C69.8009 56.3843 69.7991 55.5263 69.8212 54.6692C69.8119 54.3274 69.9366 53.9955 70.1688 53.7445C70.401 53.4935 70.7222 53.3433 71.0636 53.3261C71.24 53.318 71.4162 53.345 71.5821 53.4056C71.748 53.4662 71.9002 53.5591 72.0298 53.679C72.1595 53.7989 72.264 53.9434 72.3373 54.1041C72.4106 54.2648 72.4514 54.4384 72.4571 54.6149C72.4966 55.0531 72.4644 55.4978 72.4644 55.9396H72.4699" fill="black"/>
<path d="M64.4464 47.9933C64.4716 48.4856 64.4679 48.9789 64.4354 49.4708C64.4118 49.7998 64.2595 50.1063 64.0117 50.3239C63.7638 50.5415 63.4402 50.6527 63.111 50.6335C62.9477 50.639 62.785 50.6119 62.6323 50.5538C62.4795 50.4957 62.3399 50.4077 62.2215 50.295C62.1032 50.1823 62.0085 50.0471 61.943 49.8974C61.8775 49.7476 61.8425 49.5863 61.84 49.4229C61.7921 48.4646 61.7931 47.4998 61.84 46.5415C61.8632 46.2233 62.0027 45.9248 62.232 45.703C62.4612 45.4812 62.7642 45.3515 63.0829 45.3389C63.4016 45.3263 63.7138 45.4315 63.9599 45.6345C64.2059 45.8374 64.3687 46.124 64.417 46.4393C64.4564 46.9564 64.461 47.4755 64.4308 47.9933H64.4446" fill="black"/>
<path d="M69.822 63.9949C69.822 63.5272 69.7981 63.0577 69.8275 62.5919C69.8308 62.2633 69.9622 61.949 70.1938 61.7158C70.4253 61.4827 70.7387 61.3491 71.0672 61.3436C71.2302 61.3253 71.3953 61.3398 71.5526 61.3863C71.71 61.4328 71.8564 61.5103 71.9834 61.6143C72.1103 61.7183 72.2152 61.8466 72.2917 61.9917C72.3683 62.1369 72.4152 62.2959 72.4294 62.4594C72.4992 63.4708 72.4992 64.4858 72.4294 65.4973C72.3967 65.826 72.2382 66.1294 71.9871 66.344C71.736 66.5586 71.4116 66.6679 71.0819 66.6489C70.7409 66.6344 70.4189 66.4881 70.1836 66.2408C69.9482 65.9936 69.8179 65.6647 69.8201 65.3233C69.798 64.8823 69.8201 64.4404 69.8201 63.9986" fill="black"/>
<path d="M64.4611 55.9737C64.4611 56.4414 64.4979 56.9118 64.4528 57.3749C64.4494 57.5446 64.4122 57.712 64.3435 57.8673C64.2748 58.0226 64.1759 58.1626 64.0526 58.2793C63.9293 58.396 63.7839 58.4869 63.6251 58.5469C63.4663 58.6069 63.2972 58.6347 63.1275 58.6287C62.9578 58.6343 62.7887 58.6054 62.6305 58.5437C62.4723 58.482 62.3283 58.3888 62.2072 58.2697C62.0861 58.1507 61.9905 58.0083 61.9261 57.8511C61.8617 57.694 61.8299 57.5253 61.8326 57.3555C61.7921 56.4488 61.7931 55.5374 61.8326 54.6297C61.8294 54.287 61.9622 53.9569 62.2018 53.7119C62.4414 53.4669 62.7683 53.3268 63.1109 53.3225C63.453 53.3165 63.7841 53.4434 64.0345 53.6766C64.2849 53.9097 64.4352 54.2309 64.4537 54.5726C64.5006 55.0329 64.462 55.5061 64.4629 55.9737" fill="black"/>
<path d="M61.8337 63.9074C61.8337 63.4407 61.7978 62.9693 61.842 62.5072C61.8615 62.1923 62.0004 61.8968 62.2305 61.681C62.4606 61.4652 62.7644 61.3455 63.0798 61.3463C63.2364 61.3233 63.396 61.3326 63.5489 61.3736C63.7017 61.4147 63.8445 61.4867 63.9685 61.5851C64.0924 61.6836 64.1948 61.8064 64.2695 61.946C64.3441 62.0856 64.3893 62.239 64.4024 62.3967C64.4834 63.456 64.4834 64.5199 64.4024 65.5792C64.3622 65.8941 64.2018 66.1813 63.9548 66.3807C63.7078 66.58 63.3932 66.6761 63.077 66.6489C62.7617 66.638 62.4616 66.5112 62.2339 66.2928C62.0061 66.0744 61.8669 65.7796 61.8429 65.465C61.7959 64.9504 61.8337 64.4275 61.8337 63.9092" fill="black"/>
<path d="M11.1382 47.9959C11.1382 48.4378 11.1567 48.8806 11.1382 49.3216C11.1485 49.65 11.0309 49.9697 10.8101 50.213C10.5893 50.4564 10.2825 50.6045 9.95467 50.626C9.78592 50.6505 9.61398 50.6402 9.44934 50.5958C9.28469 50.5515 9.13089 50.474 8.99725 50.368C8.86361 50.2621 8.75293 50.13 8.67212 49.9798C8.59131 49.8297 8.54208 49.6645 8.52731 49.4946C8.45737 48.4832 8.45737 47.4682 8.52731 46.4567C8.56491 46.128 8.72794 45.8266 8.98242 45.6152C9.23691 45.4039 9.56319 45.2991 9.89311 45.3226C10.2212 45.3396 10.5309 45.4795 10.7604 45.7146C10.99 45.9497 11.1226 46.2626 11.1318 46.5911C11.1613 47.0569 11.1373 47.5264 11.1373 47.9941" fill="black"/>
<path d="M11.1421 56.0706C11.1421 56.4867 11.1605 56.8991 11.1421 57.3171C11.1467 57.4865 11.1175 57.6551 11.0562 57.813C10.9949 57.971 10.9028 58.1152 10.7851 58.2371C10.6675 58.359 10.5267 58.4562 10.371 58.523C10.2153 58.5898 10.0479 58.6249 9.8785 58.6261C9.71527 58.6408 9.55071 58.6229 9.3944 58.5737C9.2381 58.5244 9.09305 58.4447 8.96771 58.339C8.84237 58.2334 8.73914 58.104 8.66404 57.9583C8.58893 57.8126 8.54344 57.6535 8.53012 57.4901C8.4618 56.4787 8.4618 55.4637 8.53012 54.4522C8.56595 54.1234 8.72837 53.8215 8.98299 53.6105C9.23761 53.3994 9.56446 53.2959 9.89412 53.3218C10.222 53.3377 10.5317 53.4768 10.7614 53.7113C10.9911 53.9458 11.1237 54.2585 11.1329 54.5866C11.1623 55.0782 11.1384 55.5735 11.1384 56.0669" fill="black"/>
<path d="M11.1402 63.9499C11.1402 64.4176 11.1614 64.8861 11.1356 65.3529C11.1314 65.6809 11.0043 65.9954 10.7793 66.234C10.5543 66.4727 10.2479 66.6182 9.92084 66.6417C9.59196 66.675 9.2631 66.5779 9.00499 66.3713C8.74687 66.1648 8.58009 65.8652 8.54032 65.537C8.46442 64.5012 8.46442 63.4612 8.54032 62.4254C8.55869 62.2625 8.60936 62.1048 8.68952 61.9617C8.76968 61.8186 8.87762 61.693 9.00701 61.5922C9.13639 61.4914 9.28469 61.4175 9.44303 61.3749C9.60137 61.3322 9.76656 61.3216 9.92904 61.3438C10.2578 61.3567 10.5684 61.4979 10.7944 61.737C11.0205 61.9762 11.144 62.2943 11.1385 62.6234C11.1642 63.0634 11.1431 63.5062 11.1385 63.9481" fill="black"/>
<path d="M19.135 47.9812C19.135 48.4489 19.1654 48.9193 19.1277 49.3833C19.1243 49.7124 18.9923 50.0272 18.76 50.2603C18.5276 50.4934 18.2133 50.6263 17.8842 50.6307C17.7213 50.6485 17.5564 50.6333 17.3994 50.586C17.2425 50.5386 17.0967 50.4601 16.9708 50.3551C16.845 50.25 16.7416 50.1207 16.6668 49.9747C16.5921 49.8288 16.5476 49.6693 16.536 49.5057C16.4677 48.4942 16.4677 47.4793 16.536 46.4678C16.566 46.139 16.7231 45.8348 16.9739 45.6201C17.2247 45.4053 17.5493 45.297 17.8787 45.318C18.2072 45.3308 18.5187 45.4675 18.7505 45.7006C18.9824 45.9337 19.1174 46.246 19.1286 46.5746C19.1672 47.0349 19.136 47.509 19.1369 47.9766" fill="black"/>
<path d="M19.1266 56.043C19.1266 56.5107 19.1616 56.9811 19.1184 57.4441C19.103 57.7592 18.9687 58.0566 18.7425 58.2764C18.5163 58.4962 18.2151 58.6218 17.8999 58.628C17.7371 58.6475 17.5721 58.634 17.4147 58.5882C17.2574 58.5425 17.1109 58.4656 16.9839 58.3619C16.8569 58.2583 16.7521 58.1301 16.6757 57.9851C16.5994 57.8401 16.5531 57.6811 16.5396 57.5178C16.4709 56.4828 16.4743 55.4444 16.5497 54.4099C16.5872 54.095 16.7442 53.8066 16.9883 53.6043C17.2324 53.4019 17.5448 53.3011 17.8611 53.3227C18.1766 53.3272 18.4794 53.4487 18.7104 53.6637C18.9415 53.8787 19.0845 54.1718 19.1119 54.4863C19.1616 55 19.1221 55.5229 19.1221 56.0421" fill="black"/>
<path d="M19.1266 64.0555C19.1266 64.5223 19.1615 64.9927 19.1183 65.4557C19.086 65.7709 18.9397 66.0635 18.7068 66.2783C18.4739 66.4931 18.1705 66.6153 17.8538 66.622C17.5371 66.6287 17.2289 66.5193 16.9872 66.3145C16.7455 66.1097 16.5868 65.8236 16.5413 65.5101C16.4735 64.5007 16.4735 63.488 16.5413 62.4786C16.553 62.3153 16.5971 62.156 16.6712 62.01C16.7452 61.864 16.8475 61.7343 16.9724 61.6284C17.0972 61.5225 17.2418 61.4426 17.3979 61.3934C17.554 61.3441 17.7184 61.3266 17.8814 61.3417C18.2089 61.3484 18.5216 61.4797 18.7559 61.7089C18.9901 61.938 19.1282 62.2478 19.1422 62.5753C19.1492 62.6268 19.1532 62.6788 19.1541 62.7308C19.1541 63.1718 19.1541 63.6137 19.1541 64.0555H19.1348" fill="black"/>
</g>
<defs>
<clipPath id="clip0_306_69">
<rect width="80" height="80" fill="white" transform="translate(0.5)"/>
</clipPath>
</defs>
</svg>
