<svg width="81" height="80" viewBox="0 0 81 80" fill="none" xmlns="http://www.w3.org/2000/svg">
<g clip-path="url(#clip0_306_43)">
<path d="M0.5 75.7804V23.4381C0.632256 23.1929 0.840145 22.9968 1.09276 22.8791C1.34538 22.7615 1.62928 22.7284 1.90216 22.785C2.0369 22.7692 2.1734 22.7807 2.30361 22.8187C2.43382 22.8568 2.55508 22.9206 2.66013 23.0064C2.76518 23.0922 2.85188 23.1983 2.91513 23.3183C2.97837 23.4383 3.01686 23.5697 3.02828 23.7049C3.10842 24.077 3.15305 24.4558 3.16164 24.8364C3.16164 41.4737 3.16164 58.111 3.16164 74.7483C3.14769 75.0277 3.18868 75.3071 3.2822 75.5707C3.48128 76.1427 3.86864 76.6302 4.38091 76.9534C4.89319 77.2766 5.50003 77.4163 6.10209 77.3498C23.8065 77.3369 41.5105 77.3341 59.2143 77.3415C64.4731 77.3415 69.7323 77.343 74.9918 77.3461C75.5586 77.3704 76.1184 77.2134 76.5899 76.898C77.0614 76.5825 77.4202 76.125 77.614 75.5918C77.7819 74.8685 77.8542 74.1262 77.8291 73.3841C77.8396 53.8822 77.8424 34.3803 77.8374 14.8785C77.8374 13.3257 77.8375 13.3257 76.2357 13.3257H4.2197C4.06381 13.3372 3.90726 13.3372 3.75137 13.3257C3.24996 13.2512 3.13495 13.4839 3.15243 13.9466C3.18463 14.8306 3.10275 15.722 3.17635 16.6005C3.25637 17.0566 3.17234 17.5263 2.9391 17.9264C2.70587 18.3265 2.33853 18.631 1.90216 18.7862C1.22963 18.7632 0.876291 18.2756 0.5 17.8212V4.21866C0.710712 3.41093 1.09306 2.65807 1.62095 2.01136C2.14883 1.36465 2.80987 0.839272 3.5591 0.470989C3.99059 0.287009 4.51316 0.36888 4.87473 0H76.1216C76.4105 0.393717 76.9 0.294368 77.2808 0.470069C78.3072 0.925841 79.1669 1.6887 79.7415 2.65351C80.3161 3.61832 80.5773 4.73757 80.489 5.857C80.5031 27.2324 80.5031 48.6078 80.489 69.9832C80.5461 71.796 80.5058 73.6105 80.3684 75.4189C80.2141 76.6314 79.6393 77.7514 78.7441 78.5838C77.8489 79.4162 76.69 79.9082 75.4693 79.9742C52.0393 80.0104 28.6093 80.0175 5.17925 79.9954C4.95255 79.9912 4.7275 79.956 4.5104 79.8905C3.54119 79.6166 2.66108 79.0927 1.95832 78.3713C1.25555 77.6499 0.754844 76.7564 0.506458 75.7804M40.5028 2.65759C29.0466 2.65759 17.5902 2.65759 6.13337 2.65759C5.7344 2.6161 5.33116 2.66397 4.95301 2.79773C4.57486 2.93149 4.23124 3.14778 3.94712 3.43089C3.663 3.714 3.44552 4.05683 3.31045 4.43447C3.17538 4.81212 3.12611 5.2151 3.16625 5.61415C3.15981 6.91581 3.16625 8.21838 3.16625 9.52004C3.16625 10.6386 3.16625 10.6386 4.32088 10.6386H75.8723C76.2096 10.6015 76.5505 10.6139 76.8843 10.6754C77.6387 10.9128 77.8771 10.6524 77.8587 9.90548C77.8265 8.57807 77.8504 7.24973 77.8495 5.92139C77.8495 3.62165 76.8806 2.65483 74.564 2.65483H40.5064" fill="#373737"/>
<path d="M1.89844 22.7852V18.7781C2.33481 18.6229 2.70214 18.3183 2.93538 17.9183C3.16861 17.5182 3.25264 17.0485 3.17263 16.5924C3.09903 15.7139 3.18091 14.8225 3.14871 13.9385C3.13215 13.4785 3.24623 13.2421 3.74764 13.3176C3.90353 13.329 4.06008 13.329 4.21597 13.3176H76.2365C77.8383 13.3176 77.8384 13.3176 77.8384 14.8703C77.8384 34.3722 77.8356 53.8741 77.8301 73.376C77.8551 74.1181 77.7827 74.8604 77.6148 75.5837C77.421 76.1169 77.0624 76.5744 76.5909 76.8899C76.1193 77.2053 75.5595 77.3623 74.9927 77.338C69.7338 77.338 64.4746 77.3364 59.2151 77.3334C41.5108 77.3334 23.8067 77.3361 6.10291 77.3417C5.50085 77.4082 4.89406 77.2685 4.38179 76.9453C3.86952 76.6221 3.48216 76.1346 3.28308 75.5626C3.18915 75.299 3.14787 75.0196 3.16162 74.7402C3.16162 58.1029 3.16162 41.4656 3.16162 24.8283C3.15308 24.4477 3.1084 24.0689 3.0282 23.6968C3.01678 23.5617 2.97835 23.4303 2.91516 23.3104C2.85198 23.1905 2.76534 23.0845 2.66039 22.9987C2.55544 22.9129 2.43431 22.849 2.30421 22.8109C2.1741 22.7728 2.0377 22.7612 1.90304 22.7769M44.2426 54.5622C44.0457 54.6716 43.8461 54.7756 43.6529 54.8906C42.9482 55.3101 43.0678 56.0644 43.18 56.6218C43.2541 56.8788 43.4242 57.0973 43.6551 57.2323C43.886 57.3672 44.1599 57.4082 44.4202 57.3467C45.0935 57.2902 45.7701 57.2843 46.4443 57.3292C48.3956 57.3292 50.347 57.3366 52.2975 57.3292C52.6468 57.3421 52.989 57.228 53.2607 57.0082C53.5325 56.7884 53.7155 56.4776 53.7759 56.1334C53.8086 55.9724 53.8076 55.8063 53.7729 55.6457C53.7381 55.4851 53.6704 55.3335 53.5741 55.2004C53.4778 55.0672 53.355 54.9555 53.2133 54.8723C53.0716 54.789 52.9142 54.7361 52.751 54.7167C52.5221 54.6697 52.2878 54.6542 52.0546 54.6707C49.5577 54.6621 47.0604 54.656 44.5628 54.6523C44.4984 54.4619 44.4156 54.3414 44.239 54.5603M72.6861 67.9909C73.5602 67.6321 73.8905 67.163 73.7718 66.4574C73.694 66.1158 73.4962 65.8133 73.2145 65.6049C72.9328 65.3965 72.5859 65.2959 72.2363 65.3213C62.9226 65.3213 53.6085 65.3213 44.2942 65.3213C44.0393 65.3083 43.7888 65.3921 43.5931 65.5559C43.3583 65.7636 43.1953 66.0404 43.1276 66.3464C43.0598 66.6525 43.0907 66.9722 43.2159 67.2596C43.3705 67.8262 43.9096 67.9872 44.4975 67.9854C48.8167 67.9755 53.1357 67.9755 57.4543 67.9854C62.4224 67.989 67.3905 67.9952 72.3586 68.0038C72.4764 68.3202 72.5822 68.2457 72.6834 67.9936M40.4935 17.3403V17.3348H15.581C13.2635 17.3348 10.9441 17.2685 8.63023 17.355C6.63561 17.4295 5.87015 18.2961 5.84163 19.8323C5.76894 24.3876 5.82603 28.9448 5.83247 33.502C5.83149 33.8804 5.92643 34.2529 6.10847 34.5847C6.75249 35.7806 7.80409 35.9958 9.04521 35.9958C29.7716 35.9805 50.4976 35.9768 71.2233 35.9848C71.457 35.9643 71.6923 35.9674 71.9254 35.994C72.3374 36.0451 72.7556 36.007 73.1516 35.8825C73.5477 35.7579 73.9125 35.5497 74.2212 35.272C74.5298 34.9943 74.7751 34.6535 74.9406 34.2727C75.1061 33.892 75.1879 33.4801 75.1804 33.065C75.1491 28.977 75.1804 24.889 75.1593 20.8009C75.167 20.1898 75.0737 19.5815 74.8832 19.0007C74.6762 18.4561 74.2922 17.9968 73.7928 17.6965C73.2935 17.3963 72.7077 17.2724 72.1295 17.3449C61.5842 17.3314 51.0389 17.3286 40.4935 17.3366M23.151 73.3199H26.9783C30.4937 73.3199 34.0083 73.3291 37.5237 73.3088C38.0075 73.3704 38.4988 73.2912 38.9387 73.0807C39.4523 72.7934 39.8731 72.3653 40.1515 71.8469C40.4299 71.3284 40.5543 70.7413 40.5101 70.1545C40.4963 60.7283 40.5101 51.3021 40.4981 41.8768C40.4981 39.7895 39.4401 38.6442 37.3038 38.6571C35.0387 38.6709 32.7727 38.6571 30.5085 38.6571C23.3219 38.6571 16.1355 38.6571 8.94952 38.6571C7.25115 38.6571 6.36793 39.2284 5.89963 40.6119C5.78419 41.1698 5.76242 41.7431 5.83522 42.3082C5.83522 51.8641 5.83522 61.4203 5.83522 70.9769C5.83042 71.3039 5.91809 71.6257 6.0882 71.9051C6.33909 72.3693 6.71934 72.7508 7.18281 73.0032C7.64628 73.2557 8.17307 73.3682 8.69924 73.3272C13.5156 73.3005 18.3329 73.3162 23.1501 73.3162M52.4208 46.6391V46.6777C54.2158 46.6777 56.0089 46.6704 57.8048 46.6777C58.473 46.6815 59.1308 46.5116 59.7136 46.1845C60.2963 45.8574 60.784 45.3845 61.1289 44.8122C61.5381 44.235 61.7752 43.5535 61.8125 42.847C61.8498 42.1404 61.6858 41.4378 61.3395 40.8207C60.9839 40.1316 60.4355 39.5608 59.7612 39.1778C59.0869 38.7948 58.3157 38.6161 57.5416 38.6636C54.1605 38.6488 50.7794 38.6544 47.3993 38.6636C46.6262 38.6228 45.8569 38.7977 45.1774 39.1686C44.4886 39.5393 43.9266 40.1077 43.5636 40.8005C43.2006 41.4933 43.0532 42.2788 43.1404 43.0561C43.2435 44.5748 44.744 46.617 46.6503 46.6345C48.5741 46.652 50.4979 46.6345 52.4217 46.6345M58.2832 62.6573H59.4543C63.6975 62.6573 67.9407 62.6573 72.1839 62.6573C73.2704 62.6573 73.9246 61.9931 73.7801 61.0677C73.6752 60.3971 73.0367 59.9979 72.0551 59.9979H44.8784C44.7487 59.9979 44.618 59.9924 44.4883 59.9979C43.4763 60.0715 43.145 60.4983 43.1552 61.7264C43.1552 62.2075 43.8139 62.6536 44.5352 62.6545C49.1169 62.6545 53.6984 62.6545 58.2795 62.6545M58.4635 49.3399H48.8575C47.3992 49.3399 45.941 49.3252 44.4837 49.3509C44.2959 49.3321 44.1062 49.357 43.9297 49.4238C43.7531 49.4906 43.5945 49.5974 43.4662 49.7359C43.3379 49.8743 43.2435 50.0406 43.1903 50.2217C43.1371 50.4028 43.1267 50.5937 43.1598 50.7796C43.1855 51.6176 43.6428 52.0021 44.6585 52.0021C53.7974 52.0052 62.9348 52.0052 72.0707 52.0021C72.2528 52.0118 72.4354 52.0054 72.6163 51.9828C72.8454 51.9451 73.0614 51.8502 73.2441 51.7069C73.4268 51.5637 73.5703 51.3766 73.6615 51.1631C73.7527 50.9495 73.7885 50.7164 73.7656 50.4854C73.7428 50.2543 73.6621 50.0328 73.5308 49.8413C73.3564 49.649 73.1377 49.5024 72.8936 49.4143C72.6495 49.3261 72.3875 49.299 72.1305 49.3353C67.5752 49.3421 63.0194 49.3421 58.4635 49.3353M52.982 73.3153C55.2241 73.3907 57.9501 73.1984 60.6761 73.4073C60.7514 73.4091 60.8261 73.3947 60.8953 73.3652C60.9645 73.3357 61.0266 73.2917 61.0773 73.2362C61.3591 73.0679 61.5745 72.8079 61.6876 72.4998C61.8006 72.1917 61.8044 71.8541 61.6983 71.5435C61.567 71.2446 61.3435 70.9956 61.0604 70.833C60.7772 70.6704 60.4494 70.6028 60.1251 70.6402C55.3087 70.6586 50.4905 70.6494 45.6733 70.6494C45.2565 70.6494 44.8379 70.6255 44.4239 70.6632C44.2433 70.6543 44.0631 70.6857 43.8962 70.7553C43.7294 70.8248 43.58 70.9306 43.4592 71.0651C43.3384 71.1995 43.2491 71.3592 43.1978 71.5325C43.1464 71.7058 43.1344 71.8884 43.1625 72.067C43.192 72.859 43.6897 73.307 44.6079 73.3107C47.2383 73.3208 49.8677 73.3107 52.9801 73.3107M64.9754 57.3265H66.925C68.7181 57.3265 70.5131 57.3348 72.3062 57.3265C72.6555 57.3379 72.997 57.2223 73.2677 57.0013C73.5383 56.7802 73.7197 56.4686 73.7782 56.1242C73.8619 55.3781 73.5611 54.9439 72.7469 54.7149C72.4921 54.6655 72.232 54.6503 71.9732 54.6698C67.424 54.6698 62.8748 54.6698 58.3255 54.6698C58.1179 54.6617 57.91 54.6651 57.7027 54.6799C57.5242 54.6868 57.3488 54.7297 57.1874 54.8062C57.026 54.8827 56.8818 54.9911 56.7635 55.1249C56.6451 55.2586 56.5551 55.4151 56.499 55.5846C56.4428 55.7541 56.4216 55.9333 56.4366 56.1113C56.4347 56.2847 56.47 56.4564 56.5402 56.615C56.6103 56.7736 56.7136 56.9153 56.8432 57.0305C56.9728 57.1457 57.1257 57.2317 57.2914 57.2828C57.4571 57.3338 57.6319 57.3487 57.8039 57.3265C60.1959 57.3329 62.5879 57.3265 64.98 57.3265" fill="#E4F1FF"/>
<path d="M40.4964 2.65762H74.5539C76.8705 2.65762 77.8385 3.62075 77.8394 5.92418C77.8394 7.25252 77.8164 8.58085 77.8486 9.90735C77.867 10.6552 77.6287 10.9146 76.8743 10.6773C76.5405 10.6161 76.1996 10.604 75.8623 10.6414H4.31175C3.15804 10.6414 3.15804 10.6414 3.15712 9.52283C3.15712 8.22117 3.15252 6.91859 3.15712 5.61693C3.11716 5.21792 3.16658 4.81501 3.30171 4.43745C3.43684 4.05988 3.65431 3.71713 3.93839 3.43406C4.22247 3.15099 4.56603 2.93469 4.9441 2.80087C5.32218 2.66705 5.7253 2.61906 6.12424 2.66038C17.5804 2.6567 29.0369 2.6567 40.4937 2.66038M69.8425 7.982C71.1176 7.982 72.3929 7.99027 73.668 7.982C73.8564 8.00192 74.0468 7.98216 74.227 7.92398C74.4072 7.8658 74.5733 7.77049 74.7144 7.64421C74.8555 7.51792 74.9686 7.36346 75.0464 7.19079C75.1241 7.01812 75.1648 6.83107 75.1658 6.6417C75.1555 6.45898 75.1092 6.2801 75.0295 6.11532C74.9499 5.95054 74.8385 5.80311 74.7017 5.68148C74.5649 5.55986 74.4055 5.46644 74.2325 5.40658C74.0595 5.34673 73.8765 5.32161 73.6938 5.33269C71.1177 5.31735 68.5416 5.31735 65.9655 5.33269C65.7824 5.31195 65.597 5.33093 65.4218 5.38833C65.2467 5.44573 65.0859 5.54019 64.9506 5.66529C64.8152 5.79039 64.7085 5.94319 64.6376 6.11327C64.5666 6.28335 64.5332 6.46673 64.5395 6.6509C64.5349 7.49077 65.0529 7.97004 66.0116 7.97924C67.2867 7.99119 68.5618 7.97924 69.837 7.97924M7.65606 7.97924C7.97255 7.97924 8.17956 7.9866 8.38657 7.97924C9.26979 7.9406 9.70682 7.51929 9.71326 6.71437C9.74071 6.53482 9.72713 6.35138 9.6735 6.17784C9.61988 6.00429 9.52758 5.84515 9.40363 5.71236C9.27968 5.57958 9.12729 5.4766 8.95782 5.41115C8.78836 5.34571 8.60624 5.31952 8.4252 5.33452C7.93391 5.31245 7.4408 5.32165 6.95318 5.34832C6.70353 5.35022 6.46148 5.43461 6.26479 5.58834C6.0681 5.74208 5.92781 5.95653 5.8657 6.19831C5.78462 6.43191 5.77124 6.68367 5.82707 6.92455C5.8829 7.16544 6.0057 7.38564 6.18129 7.55976C6.37966 7.73852 6.61613 7.86976 6.87277 7.94356C7.12941 8.01735 7.39948 8.03176 7.66252 7.98568M14.4496 7.98568C14.6336 7.98568 14.812 7.98568 14.9924 7.98568C15.9124 7.96268 16.4212 7.52573 16.4534 6.73277C16.4678 6.54428 16.441 6.35492 16.375 6.17777C16.309 6.00063 16.2053 5.83993 16.0711 5.70679C15.9369 5.57364 15.7754 5.47123 15.5977 5.40664C15.42 5.34205 15.2304 5.31682 15.042 5.33269C14.6814 5.31429 14.3171 5.31521 13.9564 5.33269C13.7683 5.31955 13.5795 5.3463 13.4025 5.41118C13.2254 5.47607 13.064 5.57763 12.929 5.70921C12.7939 5.84078 12.6882 5.99941 12.6187 6.17469C12.5492 6.34998 12.5176 6.53796 12.5258 6.72633C12.5534 7.50825 13.0778 7.96176 13.9831 7.9866C14.1377 7.9866 14.2931 7.9866 14.4486 7.9866M21.1648 7.97832C21.4344 7.97832 21.6957 7.99855 21.9533 7.97832C22.1224 7.96989 22.2881 7.92755 22.4405 7.85381C22.5929 7.78008 22.729 7.67646 22.8405 7.54911C22.9521 7.42176 23.037 7.27328 23.09 7.1125C23.1431 6.95172 23.1632 6.78192 23.1493 6.61319C23.1456 6.452 23.1085 6.29333 23.0405 6.14718C22.9724 6.00102 22.8748 5.87056 22.7538 5.764C22.6328 5.65744 22.491 5.57709 22.3373 5.52804C22.1837 5.47898 22.0217 5.46226 21.8613 5.47895C21.3166 5.47895 20.771 5.45871 20.2273 5.48539C20.0277 5.49483 19.8339 5.55573 19.6647 5.66216C19.4955 5.7686 19.3568 5.91697 19.2619 6.09285C19.167 6.26874 19.1192 6.46617 19.1231 6.66598C19.127 6.86578 19.1826 7.06118 19.2843 7.2332C19.479 7.54094 19.7663 7.77898 20.1049 7.91304C20.4435 8.04711 20.8159 8.07029 21.1685 7.97924" fill="#6E7689"/>
<path d="M40.4992 17.3409C51.0445 17.3409 61.5899 17.3434 72.1352 17.3483C72.7134 17.2758 73.2992 17.3997 73.7985 17.6999C74.2979 18.0002 74.6818 18.4595 74.8888 19.0041C75.0792 19.5846 75.1725 20.1925 75.1649 20.8034C75.1869 24.8915 75.1556 28.9795 75.186 33.0675C75.1935 33.4826 75.1118 33.8945 74.9463 34.2752C74.7808 34.656 74.5354 34.9967 74.2268 35.2745C73.9181 35.5522 73.5534 35.7604 73.1574 35.8849C72.7613 36.0095 72.343 36.0475 71.931 35.9965C71.6982 35.9698 71.4633 35.9667 71.2299 35.9873C50.5036 35.9873 29.7772 35.9907 9.05081 35.9974C7.81062 35.9974 6.75721 35.7858 6.11503 34.5872C5.93288 34.2555 5.83793 33.8829 5.83903 33.5045C5.83259 28.9473 5.77464 24.3901 5.84824 19.8348C5.87216 18.2985 6.64223 17.432 8.63685 17.3575C10.9507 17.271 13.271 17.3372 15.5885 17.3372H40.4992V17.3409ZM16.3025 19.9976L16.2878 20.0988C16.722 20.2193 17.1517 20.3646 17.5914 20.4575C21.6589 21.3186 25.7318 22.1584 29.7965 23.0333C32.5097 23.6146 35.2044 24.288 37.925 24.828C40.9905 25.436 44.0284 26.1655 47.0966 26.7598C51.5901 27.6364 56.0467 28.7063 60.5226 29.674C64.2312 30.4752 67.9536 31.2121 71.6549 32.0584C72.4719 32.2424 72.5197 31.9811 72.517 31.339C72.5013 27.8774 72.483 24.4159 72.5308 20.9543C72.5418 20.165 72.3469 19.9773 71.5547 19.9783C53.4149 20.0034 35.2746 20.0099 17.1342 19.9976H16.3025ZM64.4566 33.3177C64.3584 33.2422 64.2523 33.1774 64.1402 33.1245C61.2034 32.4947 58.2664 31.8671 55.329 31.2415C49.834 30.0604 44.3397 28.8765 38.8459 27.6898C37.3628 27.3697 35.8816 27.0385 34.3957 26.7285C32.322 26.2971 30.2418 25.9006 28.1708 25.4535C26.133 25.0166 24.108 24.5189 22.0692 24.0875C19.7038 23.5861 17.3265 23.1354 14.9583 22.6469C13.1643 22.2789 11.3702 21.899 9.5863 21.4952C8.53747 21.2578 8.48226 21.2716 8.48226 22.2495C8.48226 25.6338 8.50802 29.019 8.46294 32.4024C8.45282 33.1742 8.67823 33.3343 9.4161 33.3334C27.4578 33.3119 45.4995 33.3064 63.5412 33.3168L64.4566 33.3177ZM64.9103 33.3656C64.8744 33.2984 64.8551 33.223 64.8275 33.2193C64.7603 33.2196 64.6936 33.2301 64.6296 33.2506C64.6489 33.2929 64.6599 33.3665 64.6875 33.372C64.762 33.3792 64.8363 33.3771 64.9103 33.3656Z" fill="#373737"/>
<path d="M23.1467 73.3196C18.3294 73.3196 13.5122 73.304 8.69587 73.3307C8.16969 73.3717 7.6429 73.2591 7.17943 73.0067C6.71596 72.7542 6.33572 72.3728 6.08482 71.9085C5.9149 71.629 5.82719 71.3073 5.83179 70.9803C5.83547 61.4244 5.83547 51.8682 5.83179 42.3116C5.75894 41.7466 5.78071 41.1733 5.8962 40.6153C6.3645 39.2355 7.24683 38.6615 8.94519 38.6615C16.1318 38.6584 23.3184 38.6584 30.5051 38.6615C32.7702 38.6615 35.0353 38.6725 37.3013 38.6615C39.4385 38.6486 40.4938 39.793 40.4956 41.8811C40.5058 51.3073 40.4956 60.7336 40.5076 70.1588C40.5518 70.7456 40.4274 71.3328 40.149 71.8512C39.8706 72.3697 39.4498 72.7978 38.9362 73.085C38.4963 73.2957 38.005 73.3749 37.5212 73.3132C34.0058 73.3325 30.4913 73.3242 26.9758 73.3242H23.1486M10.6647 41.3467L37.8193 68.4607C37.9048 68.3098 37.835 68.0477 37.835 67.8002C37.8396 59.2911 37.8285 50.7821 37.857 42.2721C37.857 41.5224 37.6785 41.3264 36.9213 41.3283C28.412 41.3568 19.9009 41.3467 11.3943 41.3467H10.6647ZM8.53943 43.5268C8.4143 43.6262 8.49344 43.823 8.49344 43.9868C8.48853 52.6559 8.483 61.3251 8.47687 69.9942C8.47687 70.5802 8.69953 70.6639 9.20463 70.6629C17.8737 70.6507 26.5425 70.6458 35.211 70.6482C35.3886 70.6482 35.6287 70.7687 35.6544 70.7117L8.53943 43.5241" fill="#373737"/>
<path d="M52.4171 46.639C50.4933 46.639 48.5696 46.6528 46.6449 46.639C44.7386 46.6215 43.2407 44.5793 43.1349 43.0606C43.0477 42.2833 43.1951 41.4978 43.5581 40.805C43.9211 40.1122 44.4831 39.5439 45.1718 39.1731C45.8514 38.8022 46.6206 38.6273 47.3938 38.6681C50.7748 38.6598 54.156 38.6543 57.5362 38.6681C58.3104 38.6203 59.0817 38.7989 59.7563 39.1819C60.4308 39.5649 60.9794 40.1359 61.335 40.8252C61.6814 41.4422 61.8455 42.1448 61.8084 42.8513C61.7712 43.5579 61.5343 44.2394 61.1252 44.8167C60.7804 45.389 60.2926 45.862 59.7099 46.189C59.1271 46.5161 58.4694 46.686 57.8011 46.6822C56.0061 46.673 54.213 46.6822 52.4171 46.6822V46.639ZM52.5294 41.3569C50.8126 41.3569 49.0959 41.3487 47.3772 41.3569C46.4223 41.3634 45.8297 41.8537 45.8085 42.6117C45.8053 42.8087 45.8443 43.0041 45.9229 43.1848C46.0015 43.3655 46.1179 43.5272 46.2643 43.6592C46.4106 43.7911 46.5835 43.8902 46.7713 43.9498C46.9592 44.0093 47.1577 44.0279 47.3533 44.0044C50.7881 44.0283 54.221 44.0283 57.6521 44.0044C57.8411 44.0317 58.0339 44.0158 58.2159 43.9577C58.3978 43.8997 58.5643 43.8011 58.7026 43.6694C58.8409 43.5376 58.9474 43.3762 59.0143 43.1973C59.0811 43.0184 59.1064 42.8266 59.0883 42.6365C59.0772 41.7755 58.6154 41.3624 57.5987 41.3551C55.9086 41.3431 54.2176 41.3551 52.5266 41.3551" fill="#373737"/>
<path d="M72.3641 68.0071C67.396 68.0003 62.4279 67.9942 57.4597 67.9887C53.1411 67.9856 48.8222 67.9856 44.503 67.9887C43.9142 67.9887 43.3759 67.8286 43.2204 67.2629C43.0952 66.9755 43.0644 66.6558 43.1321 66.3498C43.1999 66.0437 43.3629 65.767 43.5977 65.5592C43.7934 65.3955 44.0438 65.3117 44.2987 65.3247C53.6124 65.3283 62.9264 65.3283 72.2408 65.3247C72.5904 65.2992 72.9376 65.4 73.2193 65.6086C73.5011 65.8172 73.6987 66.1198 73.7764 66.4617C73.8941 67.1709 73.5647 67.6364 72.6907 67.9951L72.3659 68.0053" fill="#373737"/>
<path d="M58.2777 62.6598C53.6959 62.6598 49.1145 62.6598 44.5334 62.6598C43.8084 62.6598 43.1534 62.2128 43.1534 61.7317C43.1442 60.5036 43.4726 60.0758 44.4865 60.0041C44.6162 59.9949 44.7469 60.0041 44.8766 60.0041H72.0533C73.0349 60.0041 73.6734 60.4033 73.7783 61.0739C73.9227 61.9993 73.2686 62.6617 72.1821 62.6635C67.9389 62.6684 63.6957 62.6684 59.4525 62.6635H58.2814" fill="#373737"/>
<path d="M58.4665 49.3462C63.0224 49.3462 67.5781 49.3462 72.1334 49.3462C72.3905 49.3099 72.6526 49.3371 72.8967 49.4254C73.1408 49.5138 73.3595 49.6606 73.5337 49.8531C73.6649 50.0446 73.7458 50.2661 73.7686 50.4972C73.7915 50.7283 73.7556 50.9613 73.6644 51.1749C73.5732 51.3884 73.4297 51.5755 73.247 51.7188C73.0643 51.862 72.8483 51.9569 72.6192 51.9946C72.4382 52.0172 72.2556 52.0236 72.0736 52.0139C62.9346 52.0139 53.7973 52.0139 44.6614 52.0139C43.6494 52.0139 43.1894 51.6294 43.1627 50.7914C43.1296 50.6056 43.1401 50.4146 43.1932 50.2335C43.2464 50.0524 43.3408 49.8861 43.4691 49.7477C43.5974 49.6092 43.756 49.5024 43.9326 49.4356C44.1091 49.3689 44.2988 49.3439 44.4866 49.3627C45.9439 49.3379 47.4022 49.3526 48.8595 49.3517H58.4656" fill="#373737"/>
<path d="M52.9829 73.3176C49.8686 73.3176 47.2383 73.3241 44.6107 73.3176C43.6907 73.3176 43.1957 72.866 43.1653 72.0739C43.1372 71.8954 43.1492 71.7128 43.2006 71.5395C43.2519 71.3662 43.3412 71.2065 43.462 71.072C43.5828 70.9376 43.7322 70.8318 43.899 70.7622C44.0659 70.6927 44.2461 70.6613 44.4266 70.6702C44.8397 70.6325 45.2547 70.6564 45.6761 70.6564C50.4933 70.6564 55.3106 70.6647 60.1279 70.6463C60.4522 70.6089 60.78 70.6765 61.0632 70.839C61.3463 71.0016 61.5698 71.2507 61.7011 71.5496C61.8072 71.8601 61.8036 72.1976 61.6907 72.5057C61.5779 72.8138 61.3626 73.0738 61.081 73.2422C61.0303 73.2978 60.9683 73.3419 60.8991 73.3714C60.8299 73.401 60.7551 73.4152 60.6798 73.4133C57.9556 73.2045 55.2268 73.3977 52.9856 73.3213" fill="#373737"/>
<path d="M64.9775 57.3348C62.5854 57.3348 60.1933 57.3348 57.8012 57.3348C57.6292 57.3571 57.4544 57.3422 57.2886 57.2911C57.1229 57.2401 56.97 57.1541 56.8403 57.0389C56.7106 56.9237 56.6072 56.782 56.537 56.6234C56.4667 56.4649 56.4314 56.2931 56.4332 56.1197C56.4181 55.9417 56.4392 55.7625 56.4954 55.593C56.5516 55.4234 56.6415 55.267 56.7599 55.1332C56.8782 54.9994 57.0224 54.891 57.1838 54.8146C57.3453 54.7381 57.5206 54.6951 57.6991 54.6883C57.9064 54.6735 58.1143 54.6701 58.322 54.6782C62.8712 54.6782 67.4204 54.6782 71.9696 54.6782C72.2284 54.6586 72.4886 54.6738 72.7433 54.7233C73.5575 54.9523 73.8585 55.3865 73.7748 56.1325C73.7162 56.477 73.5348 56.7886 73.2642 57.0097C72.9936 57.2307 72.6519 57.3462 72.3026 57.3348C70.5086 57.3477 68.7145 57.3348 66.9214 57.3348H64.972H64.9775Z" fill="#373737"/>
<path d="M44.5658 54.6576C47.0634 54.6631 49.5607 54.6692 52.0577 54.676C52.2908 54.6596 52.5251 54.675 52.7541 54.722C52.9172 54.7415 53.0745 54.7945 53.2161 54.8778C53.3577 54.9611 53.4806 55.0728 53.5768 55.2059C53.6731 55.339 53.7408 55.4906 53.7756 55.6511C53.8104 55.8116 53.8115 55.9776 53.779 56.1386C53.7184 56.4828 53.5353 56.7934 53.2636 57.0132C52.9919 57.233 52.6499 57.3471 52.3006 57.3345C50.3492 57.3465 48.3987 57.3345 46.4473 57.3345C45.7731 57.29 45.0966 57.2962 44.4233 57.3529C44.163 57.4144 43.889 57.3734 43.6581 57.2385C43.4273 57.1035 43.2572 56.885 43.1831 56.628C43.0708 56.0706 42.9512 55.3162 43.6559 54.8968C43.8491 54.7818 44.0489 54.6769 44.2457 54.5684C44.3184 54.7275 44.4444 54.6907 44.5695 54.6604" fill="#373737"/>
<path d="M44.5638 54.6578C44.4386 54.6918 44.3126 54.7296 44.2399 54.5658C44.4165 54.3414 44.4994 54.4628 44.5638 54.6578Z" fill="#B5CEDD"/>
<path d="M72.3654 68.0072L72.6902 67.9971C72.5899 68.2491 72.484 68.3237 72.3654 68.0072Z" fill="#B5CEDD"/>
<path d="M69.8425 7.97664C68.5674 7.97664 67.2922 7.98584 66.0171 7.97664C65.0538 7.96744 64.5359 7.48817 64.5451 6.64831C64.5387 6.46413 64.5722 6.28076 64.6431 6.11068C64.7141 5.94059 64.8208 5.7878 64.9561 5.6627C65.0914 5.5376 65.2522 5.44313 65.4274 5.38574C65.6025 5.32834 65.7879 5.30936 65.971 5.33009C68.5471 5.30924 71.1232 5.30924 73.6993 5.33009C73.882 5.31902 74.0651 5.34413 74.238 5.40399C74.411 5.46384 74.5705 5.55727 74.7073 5.67889C74.844 5.80051 74.9554 5.94794 75.0351 6.11272C75.1147 6.2775 75.161 6.45639 75.1713 6.63911C75.1702 6.82843 75.1294 7.01541 75.0516 7.18801C74.9738 7.36062 74.8607 7.51502 74.7196 7.64128C74.5785 7.76753 74.4126 7.86285 74.2324 7.92108C74.0522 7.97932 73.8619 7.99919 73.6736 7.9794C72.3984 7.99136 71.1232 7.9794 69.848 7.9794" fill="#373737"/>
<path d="M7.66154 7.97538C7.3985 8.02139 7.12848 8.00695 6.87185 7.93316C6.61522 7.85937 6.37872 7.72816 6.18031 7.54946C6.00482 7.37528 5.88209 7.15508 5.82626 6.91422C5.77043 6.67336 5.78376 6.42163 5.86473 6.18801C5.92683 5.94624 6.06718 5.73178 6.26387 5.57804C6.46056 5.42431 6.70256 5.33992 6.95221 5.33803C7.44258 5.31227 7.93667 5.30307 8.42428 5.32423C8.60577 5.30907 8.78834 5.33533 8.95819 5.40103C9.12805 5.46672 9.28074 5.57014 9.40479 5.70347C9.52883 5.83679 9.62094 5.99656 9.67421 6.17069C9.72748 6.34482 9.74051 6.52878 9.71229 6.70868C9.70493 7.51635 9.26795 7.93582 8.38565 7.97354C8.17864 7.98274 7.97071 7.97354 7.65514 7.97354" fill="#373737"/>
<path d="M14.4497 7.97938C14.2942 7.97938 14.1397 7.97938 13.9842 7.97938C13.0771 7.95454 12.5535 7.50103 12.5268 6.71911C12.5185 6.53071 12.5501 6.34265 12.6195 6.1673C12.6889 5.99195 12.7946 5.83326 12.9297 5.70166C13.0648 5.57005 13.2263 5.4685 13.4034 5.40366C13.5805 5.33883 13.7693 5.31218 13.9575 5.32547C14.319 5.30799 14.6825 5.30707 15.0431 5.32547C15.2316 5.30944 15.4212 5.33456 15.599 5.3991C15.7767 5.46363 15.9383 5.56603 16.0726 5.69921C16.2068 5.83239 16.3105 5.99316 16.3765 6.17038C16.4424 6.3476 16.469 6.53703 16.4545 6.72555C16.4223 7.51483 15.9098 7.95454 14.9935 7.97846C14.8094 7.97846 14.6319 7.97846 14.4506 7.97846" fill="#373737"/>
<path d="M21.1667 7.97107C20.8141 8.06212 20.4417 8.03894 20.1031 7.90488C19.7645 7.77081 19.4772 7.53277 19.2825 7.22503C19.1807 7.05301 19.1253 6.85762 19.1213 6.65781C19.1174 6.458 19.1651 6.26057 19.26 6.08468C19.3549 5.9088 19.4937 5.76043 19.6629 5.65399C19.832 5.54756 20.0259 5.48666 20.2255 5.47722C20.7693 5.45054 21.3148 5.46894 21.8595 5.47078C22.0199 5.45409 22.182 5.47081 22.3356 5.51987C22.4892 5.56893 22.631 5.64927 22.752 5.75583C22.873 5.86239 22.9705 5.99286 23.0386 6.13901C23.1067 6.28516 23.1438 6.44383 23.1476 6.60502C23.1615 6.77375 23.1413 6.94355 23.0883 7.10433C23.0352 7.26511 22.9503 7.41359 22.8387 7.54094C22.7271 7.66829 22.5911 7.77191 22.4387 7.84565C22.2862 7.91938 22.1206 7.96172 21.9515 7.97015C21.6948 7.99499 21.4335 7.97015 21.164 7.97015" fill="#373737"/>
<path d="M16.3062 20.0003H17.1342C35.2747 20.0003 53.4149 19.9938 71.5547 19.981C72.3432 19.981 72.5419 20.1649 72.5309 20.957C72.4831 24.4176 72.5024 27.8801 72.5171 31.3417C72.5171 31.9857 72.472 32.2487 71.655 32.0611C67.9574 31.2148 64.235 30.4779 60.5227 29.6767C56.0459 28.7099 51.5901 27.6391 47.0957 26.7625C44.0275 26.1645 40.9895 25.435 37.924 24.8307C35.2026 24.2907 32.5088 23.6173 29.7956 23.0359C25.73 22.1648 21.658 21.3249 17.5905 20.4602C17.1498 20.3682 16.7211 20.222 16.2869 20.1015C16.2915 20.0674 16.297 20.0343 16.3025 20.0003" fill="#B5CEDD"/>
<path d="M64.4567 33.3199H63.5432C45.5009 33.3199 27.4591 33.3254 9.41801 33.3365C8.68199 33.3365 8.45382 33.1773 8.46486 32.4055C8.51086 29.0212 8.48417 25.6369 8.48417 22.2517C8.48417 21.2747 8.53663 21.2609 9.58822 21.4974C11.374 21.9012 13.1662 22.2793 14.9602 22.6491C17.3293 23.1366 19.7057 23.5883 22.0711 24.0887C24.1099 24.5201 26.1349 25.0178 28.1728 25.4548C30.2437 25.8991 32.3239 26.2983 34.3976 26.7297C35.8834 27.0388 37.3638 27.3737 38.8478 27.6901C44.3416 28.8749 49.836 30.0589 55.331 31.2418C58.2671 31.8735 61.2042 32.5012 64.1421 33.1249C64.2546 33.1777 64.361 33.2425 64.4595 33.3181" fill="#B5CEDD"/>
<path d="M64.9137 33.3684C64.8398 33.38 64.7647 33.3821 64.6902 33.3749C64.6636 33.3694 64.6516 33.2958 64.6332 33.2535C64.6971 33.233 64.7638 33.2225 64.831 33.2222C64.8595 33.2222 64.8778 33.3013 64.9137 33.3684Z" fill="#6E7689"/>
<path d="M10.6626 41.3412H11.3912C19.9006 41.3412 28.4118 41.3513 36.9183 41.3228C37.6755 41.3228 37.8567 41.5169 37.854 42.2666C37.8254 50.7756 37.8364 59.2847 37.8318 67.7947C37.8318 68.0422 37.9018 68.3043 37.8162 68.4552L10.6616 41.3412" fill="#B5CEDD"/>
<path d="M8.5382 43.5225L35.6532 70.7101C35.6275 70.7671 35.3874 70.6466 35.2098 70.6466C26.5407 70.654 17.8719 70.6589 9.2034 70.6613C8.69739 70.6613 8.47473 70.5785 8.47565 69.9926C8.49405 61.3234 8.49957 52.6543 8.49221 43.9852C8.49221 43.8187 8.41308 43.6218 8.5382 43.5252" fill="#B5CEDD"/>
<path d="M52.5292 41.3522C54.2193 41.3522 55.9102 41.343 57.6003 41.3522C58.617 41.3596 59.0797 41.7726 59.0899 42.6336C59.1082 42.8238 59.0829 43.0157 59.0162 43.1947C58.9494 43.3737 58.8429 43.5351 58.7045 43.6669C58.5662 43.7987 58.3997 43.8973 58.2177 43.9553C58.0356 44.0132 57.8427 44.029 57.6537 44.0015C54.2189 44.0236 50.786 44.0236 47.3549 44.0015C47.1593 44.0251 46.9608 44.0065 46.7729 43.9469C46.5851 43.8874 46.4122 43.7883 46.2659 43.6563C46.1195 43.5244 46.0032 43.3626 45.9246 43.1819C45.846 43.0012 45.8069 42.8058 45.8101 42.6088C45.8313 41.8499 46.4239 41.3605 47.3788 41.3541C49.0947 41.3421 50.8114 41.3541 52.531 41.3541" fill="#60B7FF"/>
</g>
<defs>
<clipPath id="clip0_306_43">
<rect width="80" height="80" fill="white" transform="translate(0.5)"/>
</clipPath>
</defs>
</svg>
