<svg width="81" height="80" viewBox="0 0 81 80" fill="none" xmlns="http://www.w3.org/2000/svg">
<g clip-path="url(#clip0_306_100)">
<path d="M7.16779 46.7231C5.39849 46.7231 3.75645 46.7121 2.12268 46.7286C1.80376 46.776 1.47822 46.7133 1.19979 46.5509C0.921368 46.3886 0.706692 46.1363 0.59125 45.8357C0.48941 45.5453 0.487636 45.2293 0.586185 44.9377C0.684734 44.6462 0.877956 44.3959 1.13522 44.2265C5.45289 40.3546 9.75674 36.4661 14.0993 32.6217C14.5281 32.2895 15.0548 32.1079 15.5975 32.1053C19.5685 32.0639 23.5405 32.0823 27.5124 32.0823H28.4556C28.4556 29.8618 28.4556 27.7104 28.4556 25.56C27.3216 25.0932 27.1528 24.83 27.1713 23.5623C27.2484 20.5107 28.46 17.5969 30.5701 15.3881C32.6803 13.1792 35.5381 11.8333 38.5873 11.6123C38.7487 11.6022 38.9091 11.5847 39.1728 11.5608C39.1728 10.016 39.1728 8.49984 39.1728 6.98457C39.1728 5.18208 39.1608 3.38051 39.1728 1.57802C39.1802 0.348126 39.8689 -0.210665 41.0527 0.0737932C44.1948 0.839586 47.4753 0.839586 50.6174 0.0737932C51.8031 -0.210665 52.49 0.349967 52.4983 1.5771C52.5102 3.2682 52.5075 4.9593 52.4983 6.65132C52.5296 6.84526 52.5201 7.04361 52.4703 7.23368C52.4206 7.42375 52.3316 7.60135 52.2092 7.75514C52.0867 7.90893 51.9335 8.03551 51.7593 8.12681C51.585 8.21811 51.3937 8.2721 51.1974 8.28534C48.3347 9.00991 45.3535 9.13994 42.4385 8.66738C42.2762 8.63976 42.1093 8.63976 41.8853 8.62227V11.303C43.571 11.6769 45.2239 12.1855 46.8281 12.8238C48.9191 13.7678 50.6918 15.2957 51.9327 17.2231C53.1736 19.1506 53.8295 21.3953 53.8214 23.6866C53.8693 24.8281 53.6259 25.1328 52.5306 25.5324V32.0795H53.4525C57.4245 32.0795 61.3964 32.0537 65.3674 32.1099C65.9886 32.1344 66.5845 32.3625 67.063 32.7589C71.2857 36.4872 75.4631 40.2662 79.6582 44.0258C80.2178 44.5275 80.7333 45.0385 80.3958 45.8743C80.0584 46.7102 79.341 46.7388 78.5869 46.7268C77.4805 46.7084 76.3741 46.7222 75.1755 46.7222V47.7514C75.1755 57.844 75.1755 67.9366 75.1755 78.0292C75.1755 79.6236 74.8067 79.9983 73.2301 79.9983H9.06433C7.55134 79.9983 7.16689 79.6061 7.16689 78.0651C7.16689 67.9449 7.16689 57.8247 7.16689 47.7045L7.16779 46.7231ZM52.5001 77.278H72.4326V46.7682H9.88767V77.2743H28.5054C28.5054 74.9103 28.4713 72.6098 28.5118 70.3111C28.6147 67.1664 29.9526 64.1884 32.2364 62.0206C34.5202 59.8527 37.5665 58.6691 40.7172 58.7255C43.8678 58.7818 46.8698 60.0736 49.0744 62.3217C51.279 64.5698 52.5092 67.5937 52.4992 70.7401C52.5103 72.8997 52.4992 75.0594 52.4992 77.2762M5.40589 43.978C5.52137 44.0134 5.63943 44.0399 5.75901 44.0571C12.2301 44.0571 18.7016 44.0547 25.1733 44.0498C25.5024 44.0308 25.824 43.9446 26.1184 43.7966C30.5384 41.7999 34.9611 39.8068 39.3636 37.7724C39.717 37.5899 40.1091 37.4947 40.5069 37.4947C40.9047 37.4947 41.2968 37.5899 41.6502 37.7724C46.029 39.7927 50.4201 41.7873 54.8235 43.7561C55.2485 43.9459 55.7078 44.0471 56.1733 44.0534C62.3672 44.0719 68.5602 44.0654 74.7542 44.0654H75.5462C75.497 43.9648 75.4377 43.8695 75.3691 43.781C72.1317 40.8658 68.8891 37.9565 65.6412 35.053C65.3834 34.8588 65.068 34.7561 64.745 34.7611C48.5795 34.7476 32.414 34.7476 16.2485 34.7611C15.9252 34.7578 15.6101 34.8625 15.3532 35.0585C12.0571 37.9905 8.7813 40.9447 5.40313 43.9835M31.0224 77.2771H49.8264C49.8264 74.9462 49.8688 72.6742 49.8172 70.4087C49.7516 68.1421 48.8613 65.9771 47.3129 64.3185C45.7644 62.6599 43.6638 61.6213 41.404 61.3971C39.1861 61.1444 36.9529 61.7189 35.1335 63.0103C33.314 64.3017 32.0367 66.2189 31.547 68.3935C31.0003 71.2648 31.1782 74.2723 31.0224 77.2725M51.1291 22.7541C50.9158 20.9643 50.206 19.2697 49.0796 17.8613C47.9533 16.4528 46.4553 15.3866 44.7545 14.7828C42.9155 14.2288 40.9836 14.0506 39.0741 14.259C37.8066 14.2849 36.5582 14.572 35.407 15.1022C34.2558 15.6324 33.2267 16.3943 32.3842 17.3401C30.9712 18.8111 30.1082 20.7228 29.94 22.7541H51.1291ZM48.6204 44.0378L48.6527 43.8905C46.1384 42.7499 43.6315 41.5891 41.1007 40.4899C40.7092 40.3454 40.278 40.3506 39.8901 40.5046C37.5796 41.5025 35.293 42.5566 33.0001 43.5978C32.7797 43.6981 32.5723 43.8279 32.1878 44.0378H48.6204ZM41.865 5.87619C44.4736 6.43161 47.1708 6.42501 49.7766 5.85686V3.15405H41.865V5.87619ZM31.2086 32.0408H33.7708V25.5047H31.2086V32.0408ZM39.123 25.5149H36.547V32.0445H39.123V25.5149ZM44.4567 25.5149H41.8751V32.0454H44.4567V25.5149ZM49.7877 25.5149H47.2125V32.0307H49.7858L49.7877 25.5149Z" fill="black"/>
<path d="M52.5003 77.2788C52.5003 75.0602 52.5095 72.9006 52.5003 70.7427C52.5103 67.5964 51.2801 64.5725 49.0755 62.3244C46.8709 60.0763 43.8689 58.7845 40.7183 58.7281C37.5676 58.6718 34.5213 59.8554 32.2375 62.0233C29.9537 64.1911 28.6158 67.1691 28.5129 70.3137C28.4723 72.6152 28.5064 74.9166 28.5064 77.277H9.88782V46.769H72.4318V77.2788H52.5003ZM20.499 53.4607C20.499 52.5733 20.5193 51.6859 20.4934 50.7993C20.5079 50.6107 20.4812 50.4213 20.4153 50.2439C20.3494 50.0666 20.2459 49.9056 20.1118 49.772C19.9777 49.6384 19.8161 49.5355 19.6384 49.4701C19.4606 49.4048 19.2707 49.3787 19.0819 49.3936C17.3608 49.3721 15.6398 49.3721 13.9188 49.3936C13.7297 49.3773 13.5394 49.4025 13.3611 49.4675C13.1829 49.5324 13.0211 49.6355 12.887 49.7696C12.7529 49.9036 12.6498 50.0654 12.585 50.2434C12.5202 50.4215 12.4952 50.6115 12.5118 50.8002C12.4891 52.5187 12.4891 54.2371 12.5118 55.9555C12.4958 56.1442 12.5213 56.3341 12.5865 56.512C12.6516 56.6898 12.7549 56.8513 12.889 56.9852C13.0232 57.1191 13.185 57.2221 13.3632 57.287C13.5414 57.352 13.7316 57.3773 13.9206 57.3612C15.6417 57.3839 17.3627 57.3839 19.0837 57.3612C19.2726 57.3759 19.4624 57.3495 19.6401 57.284C19.8178 57.2184 19.9792 57.1152 20.1131 56.9815C20.2471 56.8477 20.3504 56.6866 20.4161 56.5092C20.4817 56.3317 20.5081 56.1422 20.4934 55.9536C20.5183 55.1251 20.499 54.2902 20.499 53.4589M28.5009 49.3853C27.6398 49.3853 26.7786 49.366 25.9193 49.3909C25.7305 49.3757 25.5405 49.4017 25.3627 49.4671C25.1848 49.5324 25.0233 49.6355 24.8893 49.7692C24.7552 49.903 24.6519 50.0642 24.5863 50.2417C24.5208 50.4193 24.4946 50.6089 24.5096 50.7975C24.4869 52.5159 24.4869 54.2343 24.5096 55.9527C24.4927 56.1416 24.5175 56.3318 24.5822 56.51C24.6469 56.6883 24.75 56.8502 24.8841 56.9844C25.0182 57.1186 25.1802 57.2218 25.3586 57.2867C25.537 57.3517 25.7274 57.3768 25.9166 57.3603C27.6376 57.3836 29.3587 57.3836 31.0797 57.3603C31.2688 57.376 31.459 57.3505 31.6372 57.2854C31.8154 57.2203 31.9772 57.1172 32.1115 56.9833C32.2457 56.8495 32.3491 56.688 32.4146 56.5102C32.48 56.3324 32.5059 56.1425 32.4904 55.9536C32.5131 54.2352 32.5131 52.5168 32.4904 50.7984C32.5048 50.6102 32.4783 50.4212 32.4125 50.2443C32.3468 50.0673 32.2434 49.9068 32.1095 49.7736C31.9755 49.6404 31.8143 49.5378 31.6369 49.4728C31.4594 49.4079 31.27 49.3821 31.0816 49.3973C30.2213 49.3724 29.3593 49.3918 28.5 49.3909M49.8339 53.3245C49.8339 54.1843 49.8191 55.0441 49.8339 55.9021C49.8124 56.0972 49.8345 56.2946 49.8987 56.4802C49.9629 56.6657 50.0675 56.8347 50.205 56.975C50.3425 57.1153 50.5095 57.2233 50.6938 57.2914C50.8782 57.3595 51.0754 57.3858 51.2713 57.3686C52.9653 57.3894 54.6592 57.3894 56.3532 57.3686C56.5488 57.3911 56.7469 57.3697 56.9331 57.306C57.1193 57.2424 57.289 57.1381 57.4297 57.0006C57.5704 56.8632 57.6786 56.6962 57.7465 56.5117C57.8143 56.3273 57.8401 56.13 57.822 55.9343C57.8435 54.2435 57.8435 52.5524 57.822 50.861C57.8445 50.6657 57.8231 50.4679 57.7593 50.2819C57.6955 50.096 57.591 49.9266 57.4532 49.7861C57.3155 49.6457 57.148 49.5377 56.9631 49.4701C56.7783 49.4025 56.5806 49.377 56.3846 49.3955C54.6906 49.374 52.9966 49.374 51.3026 49.3955C51.0997 49.3734 50.8944 49.3978 50.7023 49.4668C50.5103 49.5359 50.3365 49.6478 50.1943 49.794C50.0521 49.9401 49.9451 50.1168 49.8815 50.3105C49.818 50.5042 49.7994 50.7098 49.8274 50.9116C49.8136 51.7153 49.8274 52.5199 49.8274 53.3236M61.8298 53.3015C61.8298 54.1889 61.8105 55.0763 61.8354 55.9628C61.8201 56.1516 61.8462 56.3413 61.9118 56.5189C61.9775 56.6966 62.081 56.8578 62.2154 56.9914C62.3497 57.125 62.5116 57.2278 62.6897 57.2926C62.8679 57.3574 63.0581 57.3827 63.247 57.3667C64.968 57.3894 66.6891 57.3894 68.4101 57.3667C68.5993 57.3825 68.7896 57.3568 68.9677 57.2914C69.1459 57.226 69.3076 57.1225 69.4414 56.9881C69.5753 56.8538 69.6781 56.6918 69.7427 56.5136C69.8072 56.3353 69.832 56.1452 69.8152 55.9564C69.8379 54.238 69.8379 52.5196 69.8152 50.8012C69.8312 50.6123 69.8056 50.4222 69.7401 50.2443C69.6747 50.0664 69.571 49.905 69.4364 49.7713C69.3017 49.6377 69.1394 49.5351 68.9608 49.4708C68.7823 49.4065 68.5918 49.3821 68.4027 49.3991C66.6817 49.3777 64.9607 49.3777 63.2396 49.3991C63.0507 49.3839 62.8606 49.4099 62.6827 49.4754C62.5049 49.5409 62.3435 49.6444 62.2098 49.7785C62.076 49.9127 61.9732 50.0743 61.9083 50.2522C61.8435 50.4301 61.8183 50.6199 61.8345 50.8085C61.8114 51.6371 61.8299 52.472 61.8345 53.3042M20.4972 65.3638C19.636 65.3638 18.7748 65.3445 17.9155 65.3693C17.7267 65.3543 17.5369 65.3804 17.3592 65.4458C17.1814 65.5113 17.0201 65.6145 16.8863 65.7484C16.7525 65.8823 16.6494 66.0436 16.5842 66.2212C16.519 66.3988 16.4932 66.5884 16.5086 66.7769C16.4858 68.4953 16.4858 70.2137 16.5086 71.9321C16.4925 72.1209 16.5178 72.3109 16.5829 72.4889C16.648 72.6669 16.7513 72.8285 16.8855 72.9625C17.0196 73.0964 17.1815 73.1995 17.3598 73.2645C17.538 73.3295 17.7283 73.3548 17.9174 73.3387C19.6384 73.3621 21.3595 73.3621 23.0806 73.3387C23.2696 73.3547 23.4598 73.3292 23.638 73.2642C23.8162 73.1991 23.978 73.096 24.1121 72.9621C24.2463 72.8282 24.3496 72.6666 24.4147 72.4887C24.4799 72.3108 24.5053 72.1208 24.4893 71.9321C24.5127 70.2137 24.5127 68.4953 24.4893 66.7769C24.5042 66.5883 24.4779 66.3987 24.4123 66.2212C24.3467 66.0437 24.2433 65.8825 24.1094 65.7487C23.9754 65.6149 23.8139 65.5117 23.6362 65.4462C23.4584 65.3807 23.2685 65.3545 23.0796 65.3693C22.2194 65.3454 21.3573 65.3638 20.4981 65.3647M61.8566 65.3647C61.0508 65.3647 60.2459 65.3573 59.4401 65.3647C58.3337 65.3776 57.8459 65.8425 57.8367 66.9186C57.8232 68.5542 57.8232 70.1901 57.8367 71.8262C57.8085 72.0352 57.8295 72.2478 57.8981 72.4472C57.9667 72.6466 58.0811 72.8273 58.2319 72.9748C58.3828 73.1223 58.5661 73.2326 58.7672 73.2969C58.9683 73.3612 59.1816 73.3778 59.3903 73.3452C61.0289 73.3575 62.6677 73.3575 64.3063 73.3452C64.5157 73.3732 64.7286 73.3521 64.9283 73.2835C65.128 73.2148 65.3089 73.1006 65.4566 72.9499C65.6043 72.7992 65.7148 72.6162 65.7792 72.4153C65.8436 72.2145 65.8602 72.0014 65.8276 71.7931C65.8405 70.1569 65.8405 68.5211 65.8276 66.8855C65.8174 65.8581 65.3205 65.3822 64.2722 65.3666C63.4673 65.3546 62.6615 65.3666 61.8557 65.3666" fill="#E4F1FF"/>
<path d="M5.40491 43.9778C8.78399 40.9399 12.0589 37.9848 15.355 35.0482C15.6118 34.8521 15.927 34.7475 16.2503 34.7508C32.4158 34.7367 48.5813 34.7367 64.7468 34.7508C65.0698 34.7457 65.3852 34.8484 65.643 35.0426C68.9007 37.9376 72.1433 40.8469 75.3709 43.7706C75.4395 43.8592 75.4988 43.9545 75.5479 44.0551H74.7559C68.562 44.0551 62.369 44.0615 56.1751 44.0431C55.7099 44.0369 55.2509 43.9357 54.8262 43.7458C50.4265 41.7708 46.0354 39.7762 41.6528 37.762C41.2995 37.5796 40.9074 37.4844 40.5096 37.4844C40.1118 37.4844 39.7197 37.5796 39.3663 37.762C34.9629 39.7956 30.5411 41.7896 26.1211 43.7863C25.8267 43.9343 25.5051 44.0205 25.176 44.0394C18.7049 44.0536 12.2335 44.056 5.76171 44.0468C5.6421 44.0297 5.52403 44.0033 5.40859 43.9676" fill="#6E7689"/>
<path d="M31.0225 77.2763C31.1746 74.2762 31.0004 71.2687 31.5471 68.3974C32.037 66.2229 33.3143 64.3058 35.1337 63.0144C36.9531 61.7231 39.1862 61.1485 41.4041 61.401C43.6631 61.6249 45.7632 62.6625 47.3117 64.32C48.8603 65.9775 49.7512 68.1413 49.8181 70.407C49.8697 72.6753 49.8273 74.9454 49.8273 77.2763H31.0225ZM40.4738 64.0661C39.6083 64.0617 38.7506 64.2287 37.9501 64.5574C37.1497 64.8862 36.4226 65.3701 35.8107 65.9813C35.1989 66.5925 34.7145 67.3188 34.3855 68.1181C34.0566 68.9174 33.8897 69.7739 33.8944 70.6381H36.453C36.4941 69.5877 36.9312 68.5917 37.6766 67.8495C38.422 67.1072 39.4208 66.6736 40.4728 66.6354L40.4738 64.0661Z" fill="#B5CEDD"/>
<path d="M51.1285 22.7597H29.9375C30.1057 20.7284 30.9687 18.8168 32.3817 17.3458C33.2243 16.4 34.2534 15.6381 35.4045 15.1079C36.5557 14.5778 37.8042 14.2906 39.0717 14.2646C40.9811 14.0563 42.9131 14.2344 44.7521 14.7884C46.4529 15.3921 47.951 16.4584 49.0773 17.8668C50.2037 19.2753 50.9134 20.9699 51.1266 22.7597" fill="#6E7689"/>
<path d="M48.6205 44.0424H32.1917C32.5761 43.8325 32.7835 43.7027 33.0039 43.6024C35.296 42.5621 37.5825 41.5081 39.8939 40.5093C40.282 40.3547 40.7135 40.3491 41.1054 40.4936C43.6372 41.5983 46.1432 42.7536 48.6574 43.8942L48.6251 44.0415" fill="white"/>
<path d="M41.8621 5.8752V3.15674H49.7736V5.85955C47.1678 6.42774 44.4706 6.43433 41.8621 5.87889" fill="white"/>
<path d="M33.7692 25.5039H31.2079V32.0409H33.7692V25.5039Z" fill="#B5CEDD"/>
<path d="M39.1214 25.5146H36.5454V32.0443H39.1214V25.5146Z" fill="#B5CEDD"/>
<path d="M44.4549 25.5146H41.8779V32.0452H44.4549V25.5146Z" fill="#B5CEDD"/>
<path d="M49.7859 25.5166H47.2126V32.0278H49.7859V25.5166Z" fill="#B5CEDD"/>
<path d="M20.5 53.4597C20.5 54.2883 20.5193 55.1241 20.4944 55.9545C20.5091 56.1431 20.4827 56.3326 20.4171 56.51C20.3514 56.6874 20.2481 56.8486 20.1142 56.9823C19.9802 57.1161 19.8188 57.2193 19.6411 57.2848C19.4634 57.3504 19.2736 57.3767 19.0847 57.3621C17.3637 57.3848 15.6427 57.3848 13.9216 57.3621C13.7326 57.3782 13.5424 57.3528 13.3642 57.2879C13.1861 57.223 13.0242 57.1199 12.8901 56.9861C12.7559 56.8522 12.6526 56.6907 12.5874 56.5128C12.5223 56.335 12.4968 56.145 12.5128 55.9563C12.4907 54.2379 12.4907 52.5195 12.5128 50.8011C12.4962 50.6124 12.5212 50.4223 12.586 50.2443C12.6508 50.0662 12.7539 49.9045 12.888 49.7704C13.0221 49.6364 13.1839 49.5333 13.3622 49.4683C13.5404 49.4034 13.7307 49.3782 13.9198 49.3945C15.6408 49.3718 17.3618 49.3718 19.0829 49.3945C19.2717 49.3796 19.4616 49.4057 19.6394 49.471C19.8172 49.5363 19.9787 49.6393 20.1128 49.7729C20.2469 49.9064 20.3505 50.0674 20.4164 50.2448C20.4823 50.4221 20.5089 50.6116 20.4944 50.8002C20.5203 51.6867 20.5 52.5741 20.5 53.4616M17.794 52.0973H15.2244V54.6473H17.794V52.0973Z" fill="black"/>
<path d="M28.5008 49.3861C29.362 49.3861 30.2231 49.3667 31.0824 49.3916C31.2713 49.3764 31.4613 49.4024 31.6391 49.4678C31.8169 49.5332 31.9784 49.6364 32.1123 49.7703C32.2462 49.9042 32.3494 50.0656 32.4147 50.2432C32.4799 50.4209 32.5057 50.6106 32.4903 50.7992C32.5137 52.5176 32.5137 54.236 32.4903 55.9544C32.5058 56.1432 32.4799 56.3331 32.4145 56.5109C32.3491 56.6888 32.2457 56.8502 32.1114 56.9841C31.9772 57.1179 31.8153 57.221 31.6371 57.2861C31.459 57.3512 31.2687 57.3768 31.0796 57.361C29.3586 57.3837 27.6376 57.3837 25.9165 57.361C25.7274 57.3774 25.5371 57.3522 25.3588 57.2872C25.1805 57.2221 25.0187 57.1189 24.8846 56.9848C24.7506 56.8506 24.6476 56.6887 24.583 56.5105C24.5184 56.3324 24.4936 56.1422 24.5105 55.9535C24.4877 54.2351 24.4877 52.5166 24.5105 50.7982C24.4954 50.6096 24.5216 50.42 24.5872 50.2425C24.6527 50.0649 24.7561 49.9037 24.8901 49.77C25.0242 49.6362 25.1857 49.5331 25.3635 49.4678C25.5414 49.4025 25.7313 49.3765 25.9202 49.3916C26.7804 49.3677 27.6415 49.3861 28.5017 49.3916M29.7677 52.0953H27.2202V54.684H29.7677V52.0953Z" fill="black"/>
<path d="M49.8346 53.3198C49.8346 52.5162 49.8235 51.7116 49.8346 50.9079C49.8066 50.706 49.8251 50.5004 49.8887 50.3068C49.9522 50.1131 50.0592 49.9364 50.2014 49.7902C50.3437 49.6441 50.5174 49.5322 50.7095 49.4631C50.9015 49.3941 51.1068 49.3697 51.3097 49.3917C53.0037 49.3733 54.6978 49.3733 56.3918 49.3917C56.5878 49.3733 56.7854 49.3988 56.9703 49.4664C57.1552 49.534 57.3226 49.6419 57.4603 49.7824C57.5981 49.9228 57.7027 50.0922 57.7665 50.2782C57.8303 50.4642 57.8517 50.662 57.8291 50.8573C57.8469 52.5481 57.8469 54.2392 57.8291 55.9306C57.8473 56.1263 57.8215 56.3236 57.7536 56.508C57.6858 56.6925 57.5775 56.8595 57.4368 56.9969C57.2961 57.1343 57.1265 57.2387 56.9403 57.3023C56.754 57.366 56.5559 57.3873 56.3604 57.3649C54.6664 57.3833 52.9724 57.3833 51.2784 57.3649C51.0826 57.3819 50.8854 57.3555 50.7011 57.2873C50.5168 57.2192 50.35 57.1112 50.2125 56.9709C50.075 56.8307 49.9704 56.6617 49.9062 56.4763C49.8419 56.2908 49.8197 56.0934 49.841 55.8984C49.8216 55.0395 49.841 54.1797 49.841 53.3208M55.1249 52.1047H52.5701V54.6685H55.1249V52.1047Z" fill="black"/>
<path d="M61.8355 53.2986C61.8355 52.4701 61.817 51.6342 61.8401 50.8029C61.8239 50.6143 61.8491 50.4245 61.9139 50.2466C61.9787 50.0687 62.0816 49.9071 62.2153 49.7729C62.3491 49.6388 62.5105 49.5353 62.6884 49.4698C62.8662 49.4043 63.0562 49.3783 63.2452 49.3935C64.9662 49.3714 66.6873 49.3714 68.4083 49.3935C68.5974 49.3765 68.7879 49.401 68.9665 49.4652C69.1451 49.5295 69.3075 49.6321 69.4422 49.7657C69.5769 49.8993 69.6807 50.0607 69.7463 50.2387C69.8118 50.4166 69.8376 50.6066 69.8217 50.7956C69.8451 52.514 69.8451 54.2324 69.8217 55.9508C69.8385 56.1396 69.8138 56.3297 69.7492 56.508C69.6846 56.6862 69.5818 56.8481 69.448 56.9825C69.3141 57.1169 69.1524 57.2204 68.9742 57.2858C68.7961 57.3512 68.6058 57.3769 68.4166 57.3611C66.6956 57.3844 64.9745 57.3844 63.2535 57.3611C63.0645 57.3771 62.8744 57.3518 62.6962 57.287C62.5181 57.2222 62.3562 57.1194 62.2218 56.9858C62.0875 56.8522 61.9839 56.691 61.9183 56.5133C61.8527 56.3357 61.8266 56.1459 61.8419 55.9572C61.817 55.0707 61.8364 54.1824 61.8364 53.2958M67.1313 52.089H64.5498V54.6491H67.1313V52.089Z" fill="black"/>
<path d="M20.4991 65.3593C21.3602 65.3593 22.2214 65.3409 23.0807 65.3648C23.2696 65.35 23.4594 65.3763 23.6372 65.4417C23.815 65.5072 23.9764 65.6105 24.1104 65.7442C24.2444 65.878 24.3477 66.0392 24.4133 66.2167C24.4789 66.3942 24.5052 66.5838 24.4904 66.7724C24.5137 68.4908 24.5137 70.2092 24.4904 71.9276C24.5065 72.1164 24.4811 72.3065 24.416 72.4845C24.3509 72.6625 24.2477 72.8242 24.1136 72.9582C23.9794 73.0923 23.8175 73.1955 23.6393 73.2606C23.461 73.3257 23.2707 73.3511 23.0816 73.3352C21.3605 73.3579 19.6395 73.3579 17.9184 73.3352C17.7294 73.3513 17.5391 73.326 17.3608 73.261C17.1826 73.196 17.0207 73.0929 16.8865 72.9589C16.7523 72.8249 16.6491 72.6633 16.584 72.4853C16.5189 72.3074 16.4935 72.1173 16.5096 71.9285C16.4875 70.2101 16.4875 68.4917 16.5096 66.7733C16.4942 66.5847 16.52 66.395 16.5853 66.2174C16.6505 66.0397 16.7537 65.8784 16.8876 65.7445C17.0215 65.6106 17.183 65.5074 17.3608 65.442C17.5387 65.3766 17.7286 65.3506 17.9175 65.3658C18.7778 65.3418 19.6389 65.3602 20.4991 65.3593ZM21.7677 68.064H19.2185V70.6526H21.7677V68.064Z" fill="black"/>
<path d="M61.8577 65.3595C62.6635 65.3595 63.4684 65.3494 64.2742 65.3595C65.3216 65.3752 65.8195 65.8511 65.8296 66.8785C65.845 68.514 65.845 70.1499 65.8296 71.786C65.862 71.9944 65.8453 72.2073 65.7808 72.4081C65.7163 72.6088 65.6059 72.7918 65.4582 72.9424C65.3106 73.0931 65.1297 73.2073 64.9301 73.276C64.7305 73.3447 64.5176 73.366 64.3083 73.3381C62.6697 73.3529 61.031 73.3529 59.3923 73.3381C58.3468 73.3299 57.848 72.8465 57.8378 71.8201C57.8225 70.1845 57.8225 68.5487 57.8378 66.9125C57.847 65.8364 58.3357 65.3715 59.4412 65.3586C60.247 65.3494 61.0519 65.3586 61.8577 65.3586M63.119 68.0761H60.5642V70.6409H63.119V68.0761Z" fill="black"/>
<path d="M40.4727 64.066V66.6353C39.4206 66.6735 38.4218 67.1072 37.6764 67.8494C36.931 68.5917 36.494 69.5877 36.4528 70.638H33.8943C33.8895 69.7739 34.0564 68.9173 34.3854 68.118C34.7143 67.3187 35.1986 66.5924 35.8105 65.9813C36.4224 65.3701 37.1496 64.8861 37.95 64.5574C38.7504 64.2286 39.6072 64.0616 40.4727 64.066Z" fill="black"/>
<path d="M17.7921 52.0967H15.2225V54.6467H17.7921V52.0967Z" fill="#B5CEDD"/>
<path d="M29.7667 52.0918H27.2192V54.6805H29.7667V52.0918Z" fill="#B5CEDD"/>
<path d="M55.1198 52.105H52.5649V54.6688H55.1198V52.105Z" fill="#B5CEDD"/>
<path d="M67.1314 52.0908H64.5516V54.6509H67.1314V52.0908Z" fill="#B5CEDD"/>
<path d="M21.7678 68.064H19.2185V70.6526H21.7678V68.064Z" fill="#B5CEDD"/>
<path d="M63.1187 68.0767H60.5638V70.6414H63.1187V68.0767Z" fill="#B5CEDD"/>
</g>
<defs>
<clipPath id="clip0_306_100">
<rect width="80" height="80" fill="white" transform="translate(0.5)"/>
</clipPath>
</defs>
</svg>
