<svg xmlns="http://www.w3.org/2000/svg" xmlns:xlink="http://www.w3.org/1999/xlink" width="91" height="91" viewBox="0 0 91 91">
  <defs>
    <clipPath id="clip-path">
      <rect id="Rectangle_2024" data-name="Rectangle 2024" width="41.074" height="45.857" fill="#fff"/>
    </clipPath>
  </defs>
  <g id="Group_4605" data-name="Group 4605" transform="translate(-1143 -2799)">
    <circle id="Ellipse_108" data-name="Ellipse 108" cx="45.5" cy="45.5" r="45.5" transform="translate(1143 2799)" fill="#f16543"/>
    <g id="Group_4602" data-name="Group 4602" transform="translate(1168 2822)">
      <g id="Group_4601" data-name="Group 4601" clip-path="url(#clip-path)">
        <path id="Path_32292" data-name="Path 32292" d="M20.5,87.924l-7.867-1.966V74.935L20.5,76.9Z" transform="translate(-7.123 -42.268)" fill="#fff"/>
        <path id="Path_32293" data-name="Path 32293" d="M42.282,74.928V85.953L34.42,87.919V76.895l7.862-1.967" transform="translate(-19.415 -42.264)" fill="#fff"/>
        <path id="Path_32294" data-name="Path 32294" d="M30.358,23.307l-.792-.122c0-.514.008-1.037,0-1.56A2.378,2.378,0,0,0,27.654,19.3a1.188,1.188,0,0,0-1.172.322,9.853,9.853,0,0,1-7.067,2.8c-.544,0-1.09-.034-1.63.016-.251.023-.636.156-.7.334-.179.486-.529.5-1.025.52a34.481,34.481,0,0,1,.218-4.422,5.391,5.391,0,0,1,5.283-4.352c1.3-.023,2.6-.019,3.9,0a2.581,2.581,0,0,1,2.481,1.64,1.384,1.384,0,0,0,.767.768,2.581,2.581,0,0,1,1.642,2.48c.019,1.283,0,2.566,0,3.906" transform="translate(-9.058 -8.178)" fill="#fff"/>
        <path id="Path_32295" data-name="Path 32295" d="M21.62,32.467c1.053-.088,2.058-.116,3.044-.264a11.018,11.018,0,0,0,5.6-2.634c.394-.338.7-.238.828.271a1.477,1.477,0,0,1,.024.344c0,1.812.018,3.625-.006,5.437a4.732,4.732,0,0,1-9.217,1.456,6.823,6.823,0,0,1-.261-1.793c-.041-.936-.011-1.876-.011-2.815" transform="translate(-12.189 -16.567)" fill="#fff"/>
        <path id="Path_32296" data-name="Path 32296" d="M7.407,64.966,8.818,68.5c-1.321-.326-2.545-.63-3.77-.929-.739-.18-1.154.134-1.154.889q-.006,6.151,0,12.3c0,.623.174.833.8.993.9.231,1.808.46,2.705.745H0c.051-.928.1-1.828.153-2.727C.337,76.883.51,73.99.719,71.1a5.349,5.349,0,0,1,3.007-4.621c1.163-.6,2.423-1,3.681-1.512" transform="translate(0 -36.644)" fill="#fff"/>
        <path id="Path_32297" data-name="Path 32297" d="M46.289,82.431q1.257-.311,2.514-.623c.855-.213.989-.383.989-1.254q0-5.955,0-11.91c0-1.021-.351-1.294-1.353-1.045-1.16.289-2.318.582-3.539.889.054-.174.078-.28.119-.381.412-1.035.826-2.07,1.263-3.164,1.289.528,2.584.944,3.767,1.571a5.319,5.319,0,0,1,2.915,4.579c.249,3.631.465,7.265.693,10.9.009.147,0,.3,0,.485H46.3l-.012-.044" transform="translate(-25.327 -36.632)" fill="#fff"/>
        <path id="Path_32298" data-name="Path 32298" d="M80.025,0l3.949,7.107H81.634v5.518h-3.17V7.152H76.055L80.025,0" transform="translate(-42.899)" fill="#fff"/>
        <path id="Path_32299" data-name="Path 32299" d="M64.017,19.821H61.665v5.513h-3.17v-5.48h-2.4l3.967-7.145,3.956,7.112" transform="translate(-31.64 -7.169)" fill="#fff"/>
        <path id="Path_32300" data-name="Path 32300" d="M20.406,62.877c.591-.229,1.135-.451,1.689-.643a.381.381,0,0,1,.323.12c.718.878,1.424,1.766,2.16,2.685l-2.5,2-1.671-4.163" transform="translate(-11.51 -35.099)" fill="#fff"/>
        <path id="Path_32301" data-name="Path 32301" d="M39.251,62.911l-1.667,4.168-2.5-2c.728-.909,1.421-1.788,2.137-2.647a.51.51,0,0,1,.443-.117c.514.164,1.014.375,1.591.6" transform="translate(-19.787 -35.142)" fill="#fff"/>
        <path id="Path_32302" data-name="Path 32302" d="M29.409,60.956c-.793-.992-1.575-1.919-2.286-2.9-.163-.225-.082-.626-.123-1.041a6.484,6.484,0,0,0,4.742.007,1.591,1.591,0,0,1-.323,1.443c-.693.783-1.319,1.625-2.011,2.488" transform="translate(-15.229 -32.161)" fill="#fff"/>
        <path id="Path_32303" data-name="Path 32303" d="M31.96,72.983a4.49,4.49,0,0,1-3.928-.007c.6-.482,1.2-.971,1.819-1.443a.318.318,0,0,1,.3.013c.606.467,1.2.949,1.811,1.438" transform="translate(-15.812 -40.331)" fill="#fff"/>
        <path id="Path_32304" data-name="Path 32304" d="M15.953,38.152v3.083a1.482,1.482,0,0,1-1.575-1.377,1.574,1.574,0,0,1,1.575-1.707" transform="translate(-8.106 -21.52)" fill="#fff"/>
        <path id="Path_32305" data-name="Path 32305" d="M47.053,41.292V38.208a1.521,1.521,0,0,1,1.579,1.485,1.555,1.555,0,0,1-1.579,1.6" transform="translate(-26.541 -21.543)" fill="#fff"/>
      </g>
    </g>
  </g>
</svg>
