<svg xmlns="http://www.w3.org/2000/svg" xmlns:xlink="http://www.w3.org/1999/xlink" width="91" height="91" viewBox="0 0 91 91">
  <defs>
    <clipPath id="clip-path">
      <rect id="Rectangle_2025" data-name="Rectangle 2025" width="36.909" height="37.44" transform="translate(0 0)" fill="#fff"/>
    </clipPath>
  </defs>
  <g id="Group_4608" data-name="Group 4608" transform="translate(-521 -3079)">
    <circle id="Ellipse_109" data-name="Ellipse 109" cx="45.5" cy="45.5" r="45.5" transform="translate(521 3079)" fill="#f16543"/>
    <g id="Group_4607" data-name="Group 4607" transform="translate(548 3106.044)">
      <g id="Group_4606" data-name="Group 4606" transform="translate(0 0)" clip-path="url(#clip-path)">
        <path id="Path_32306" data-name="Path 32306" d="M15.871,46.739H7.5c-.011-.19-.029-.37-.03-.55,0-1.31-.014-2.62,0-3.931a3.022,3.022,0,0,0-.772-2.093C4.654,37.757,2.628,35.325.593,32.9A2.547,2.547,0,0,1,0,31.1q.249-6.758.5-13.517A2.507,2.507,0,0,1,2.684,15.04,2.45,2.45,0,0,1,5.309,16.7a2.822,2.822,0,0,1,.145.849c.011,2.535.007,5.071.005,7.606a1.5,1.5,0,0,1-.029.219A7.435,7.435,0,0,0,3.8,25.4a2.734,2.734,0,0,0-1.4,4.52c1.933,2.035,3.955,3.986,5.94,5.973.2.2.44.3.665.066.258-.272.063-.494-.139-.7q-2.51-2.509-5.018-5.017c-.289-.289-.59-.567-.857-.875a1.956,1.956,0,0,1,.092-2.683,1.986,1.986,0,0,1,2.689-.076c2.975,2.541,5.941,5.093,8.935,7.61A3,3,0,0,1,15.86,36.7c-.017,3.148,0,6.3.011,9.444,0,.182,0,.365,0,.6" transform="translate(0 -9.299)" fill="#fff"/>
        <path id="Path_32307" data-name="Path 32307" d="M65.677,25.4c-.008-.124-.026-.256-.026-.388,0-2.45-.006-4.9,0-7.35a2.48,2.48,0,1,1,4.955-.117c.084,1.921.144,3.842.214,5.764q.142,3.876.286,7.752a2.7,2.7,0,0,1-.654,1.928q-3.094,3.667-6.179,7.341a2.7,2.7,0,0,0-.639,1.833c.008,1.327,0,2.654,0,3.982v.583H55.27c-.009-.172-.027-.351-.027-.53,0-3.2.022-6.4.013-9.6a2.851,2.851,0,0,1,1.111-2.342c2.746-2.286,5.468-4.6,8.2-6.907a7.449,7.449,0,0,0,.554-.526,2,2,0,0,1,2.872-.17,1.976,1.976,0,0,1-.047,2.906q-2.751,2.772-5.521,5.525c-.108.108-.267.2-.308.332-.054.167-.085.436.007.529s.353.054.536.039c.066-.006.126-.106.186-.166,1.914-1.913,3.839-3.814,5.736-5.743a2.75,2.75,0,0,0-1.22-4.66,7.067,7.067,0,0,0-1.683-.02" transform="translate(-34.203 -9.307)" fill="#fff"/>
        <path id="Path_32308" data-name="Path 32308" d="M53.495,17.427c.593-1.378.331-2.153-.942-2.84a2.665,2.665,0,0,1,2.593-2.5c.968-.037,1.94-.038,2.908,0A2.748,2.748,0,0,1,60.7,14.8c.023,1.156.008,2.313.008,3.469,0,1.531-.432,2.072-1.958,2.412,0,1.518,0,3.046,0,4.574a1.577,1.577,0,0,1-.766,1.515,2.879,2.879,0,0,1-2.735.027,1.472,1.472,0,0,1-.795-1.391c0-.578-.013-1.157,0-1.734a.746.746,0,0,1,.157-.451,1.869,1.869,0,0,0,.489-1.353c-.008-.561-.029-1.124,0-1.683a2.475,2.475,0,0,0-1.619-2.752" transform="translate(-32.537 -7.463)" fill="#fff"/>
        <path id="Path_32309" data-name="Path 32309" d="M28.763,19.682a1.982,1.982,0,0,0-.014,2.209A2.459,2.459,0,0,0,27.1,24.6c.035.611.01,1.224.007,1.837a1.8,1.8,0,0,0,.674,1.424.785.785,0,0,1,.251.49c.03.577.022,1.156.008,1.734a1.391,1.391,0,0,1-1.438,1.458c-.187.006-.374,0-.561,0a1.384,1.384,0,0,1-1.509-1.484q-.029-1.606,0-3.214c.007-.374-.054-.567-.486-.649a1.421,1.421,0,0,1-1.111-1.412c-.017-1.105-.023-2.211,0-3.316a2.19,2.19,0,0,1,2.008-2.145,20.192,20.192,0,0,1,2.651,0,5.2,5.2,0,0,1,1.163.36" transform="translate(-14.193 -11.935)" fill="#fff"/>
        <path id="Path_32310" data-name="Path 32310" d="M45.742,32.805c-1.062-.4-1.19-.582-1.191-1.7,0-.595-.011-1.19,0-1.784a1.675,1.675,0,0,1,1.8-1.771c.51-.006,1.02-.013,1.53,0a1.612,1.612,0,0,1,1.65,1.544c.051.846.038,1.7.006,2.547-.026.683-.487,1.005-1.17,1.122,0,.857,0,1.7,0,2.546a1.334,1.334,0,0,1-2.051,1.228,1.075,1.075,0,0,1-.581-1.053c0-.9,0-1.8,0-2.676" transform="translate(-27.58 -17.05)" fill="#fff"/>
        <path id="Path_32311" data-name="Path 32311" d="M39.053,27.548a2.9,2.9,0,0,0-.723,2.369c.016.544.008,1.089,0,1.632A1.821,1.821,0,0,0,39,32.975a.851.851,0,0,1,.257.538c.03.662.021,1.326.009,1.989-.014.788-.428,1.151-1.289,1.154-.9,0-1.323-.351-1.336-1.16-.014-.9,0-1.8,0-2.682-1.08-.422-1.185-.576-1.186-1.7,0-.612-.014-1.225,0-1.837a1.655,1.655,0,0,1,1.745-1.723c.569-.01,1.139,0,1.846,0" transform="translate(-21.95 -17.054)" fill="#fff"/>
        <path id="Path_32312" data-name="Path 32312" d="M59.984,0a1.951,1.951,0,0,1,1.964,1.971,1.966,1.966,0,1,1-3.932,0A1.951,1.951,0,0,1,59.984,0" transform="translate(-35.92 0)" fill="#fff"/>
        <path id="Path_32313" data-name="Path 32313" d="M27.53,11.026a1.608,1.608,0,1,1,1.622,1.617,1.621,1.621,0,0,1-1.622-1.617" transform="translate(-17.045 -5.824)" fill="#fff"/>
        <path id="Path_32314" data-name="Path 32314" d="M40.1,22.547a1.2,1.2,0,1,1,1.181-1.225A1.221,1.221,0,0,1,40.1,22.547" transform="translate(-24.069 -12.471)" fill="#fff"/>
        <path id="Path_32315" data-name="Path 32315" d="M50.386,21.322a1.2,1.2,0,1,1-1.226-1.181,1.226,1.226,0,0,1,1.226,1.181" transform="translate(-29.704 -12.47)" fill="#fff"/>
      </g>
    </g>
  </g>
</svg>
