<svg xmlns="http://www.w3.org/2000/svg" xmlns:xlink="http://www.w3.org/1999/xlink" width="91" height="91" viewBox="0 0 91 91">
  <defs>
    <clipPath id="clip-path">
      <rect id="Rectangle_2026" data-name="Rectangle 2026" width="36.667" height="36.572" fill="#fff"/>
    </clipPath>
  </defs>
  <g id="Group_4611" data-name="Group 4611" transform="translate(-911 -3079)">
    <circle id="Ellipse_110" data-name="Ellipse 110" cx="45.5" cy="45.5" r="45.5" transform="translate(911 3079)" fill="#f16543"/>
    <g id="Group_4610" data-name="Group 4610" transform="translate(938.333 3106.322)">
      <g id="Group_4609" data-name="Group 4609" clip-path="url(#clip-path)">
        <path id="Path_32316" data-name="Path 32316" d="M34.042,94.452c-5.1,1.172-10.053,2.318-15.01,3.434a3.35,3.35,0,0,1-1.425-.007c-5.333-1.2-10.664-2.411-15.98-3.683A2.5,2.5,0,0,1,.133,93.139c-.418-.784.182-1.454,1.382-1.733,4.918-1.14,9.847-2.237,14.753-3.425a8.608,8.608,0,0,1,4.2.011c4.838,1.175,9.7,2.259,14.549,3.38,1.428.33,1.642.593,1.644,2.074.005,3.557.023,7.115-.023,10.671a2.235,2.235,0,0,1-.558,1.463,1.379,1.379,0,0,1-1.321.1,1.766,1.766,0,0,1-.685-1.272c-.06-2.893-.031-5.789-.031-8.683v-1.27" transform="translate(0 -69.267)" fill="#fff"/>
        <path id="Path_32317" data-name="Path 32317" d="M101.181,3.148c0,2.92.019,5.707-.006,8.494a3.942,3.942,0,1,1-3.61-3.681c.276.022.549.084.963.15,0-1.97,0-3.91,0-5.851,0-2.035.527-2.438,2.471-1.885,2.68.763,5.354,1.546,8.04,2.288.763.211,1.276.6,1.275,1.422,0,3.628.054,7.259-.069,10.884a3.739,3.739,0,0,1-3.712,3.447,3.971,3.971,0,0,1-4-3.176,3.84,3.84,0,0,1,2.527-4.4,13.5,13.5,0,0,1,2.557-.3V4.983l-6.44-1.836" transform="translate(-73.666 -0.118)" fill="#fff"/>
        <path id="Path_32318" data-name="Path 32318" d="M32.382,131.654c3.259.748,6.406,1.5,9.569,2.172a5.314,5.314,0,0,0,2.151-.014c3.13-.667,6.244-1.408,9.526-2.159.379,1.667.8,3.3,1.105,4.955.133.719-.376,1.165-1.059,1.337-3.375.849-6.751,1.7-10.134,2.517a2.713,2.713,0,0,1-1.234-.026c-3.279-.8-6.549-1.643-9.827-2.453-.826-.2-1.375-.657-1.205-1.532.31-1.6.726-3.171,1.107-4.8" transform="translate(-24.67 -103.95)" fill="#fff"/>
        <path id="Path_32319" data-name="Path 32319" d="M38.964,8.607,37.855,7.514a29.464,29.464,0,0,0,1.761-3.288A29.316,29.316,0,0,0,40.531.62a8.459,8.459,0,0,1,4.418,2.014L38.964,8.607" transform="translate(-29.889 -0.49)" fill="#fff"/>
        <path id="Path_32320" data-name="Path 32320" d="M7.312,37.357,8.6,38.517,2.63,44.5A8.719,8.719,0,0,1,.562,39.981a10.937,10.937,0,0,0,6.75-2.624" transform="translate(-0.444 -29.496)" fill="#fff"/>
        <path id="Path_32321" data-name="Path 32321" d="M50.01,22.919,48.9,21.7l5.932-5.927a8.6,8.6,0,0,1,1.97,4.465,11.1,11.1,0,0,0-6.791,2.678" transform="translate(-38.61 -12.456)" fill="#fff"/>
        <path id="Path_32322" data-name="Path 32322" d="M19.608,56.9l-4.437-2.007,6.07-6.069,1.02,1.13a27.3,27.3,0,0,0-1.689,3.15,32.029,32.029,0,0,0-.963,3.8" transform="translate(-11.979 -38.549)" fill="#fff"/>
        <path id="Path_32323" data-name="Path 32323" d="M59.444,45.514a9.045,9.045,0,0,1,5.79-2.144,8.8,8.8,0,0,1-2.1,5.868l-3.686-3.724" transform="translate(-46.936 -34.244)" fill="#fff"/>
        <path id="Path_32324" data-name="Path 32324" d="M43.611,65.373a9,9,0,0,1,2.047-5.753L49.352,63.3a8.923,8.923,0,0,1-5.741,2.069" transform="translate(-34.434 -47.074)" fill="#fff"/>
        <path id="Path_32325" data-name="Path 32325" d="M21.826,0a8.8,8.8,0,0,1-2.07,5.813L16.089,2.075A8.617,8.617,0,0,1,21.826,0" transform="translate(-12.703)" fill="#fff"/>
        <path id="Path_32326" data-name="Path 32326" d="M2.63,15.524,6.321,19.2A8.591,8.591,0,0,1,.548,21.345,7.789,7.789,0,0,1,2.63,15.524" transform="translate(-0.408 -12.257)" fill="#fff"/>
      </g>
    </g>
  </g>
</svg>
