<svg xmlns="http://www.w3.org/2000/svg" xmlns:xlink="http://www.w3.org/1999/xlink" width="91" height="91" viewBox="0 0 91 91">
  <defs>
    <clipPath id="clip-path">
      <rect id="Rectangle_2023" data-name="Rectangle 2023" width="33.058" height="53.667" fill="#fff"/>
    </clipPath>
  </defs>
  <g id="Group_4603" data-name="Group 4603" transform="translate(-755 -2799)">
    <circle id="Ellipse_107" data-name="Ellipse 107" cx="45.5" cy="45.5" r="45.5" transform="translate(755 2799)" fill="#f16543"/>
    <g id="Group_4600" data-name="Group 4600" transform="translate(783.471 2817.667)">
      <g id="Group_4599" data-name="Group 4599" clip-path="url(#clip-path)">
        <path id="Path_32280" data-name="Path 32280" d="M62.444,214.661H35.712V203.516c.519.055,1.023.113,1.528.16a17.954,17.954,0,0,0,3.4-.118c.989-.1,1.994-.024,2.991-.04.354-.006.708-.052,1.073-.08a5.613,5.613,0,0,0-1.266,4.392,5.528,5.528,0,0,0,2.39,3.923,5.67,5.67,0,0,0,7.394-.766,5.707,5.707,0,0,0-7.7-8.384v-1.484a1.67,1.67,0,0,0,.7-1.6H62.444Z" transform="translate(-29.392 -164.211)" fill="#fff"/>
        <path id="Path_32281" data-name="Path 32281" d="M82.233,34.027a21.841,21.841,0,0,1-1.5,7.658,9.618,9.618,0,0,1-2.34,3.461,6.4,6.4,0,0,1-9.111-.746,12.381,12.381,0,0,1-2.359-4.952A20.418,20.418,0,0,1,66.679,30a6.1,6.1,0,0,1,.538-1.461,1.3,1.3,0,0,1,1.926-.705,14.025,14.025,0,0,0,3.477.955,12.6,12.6,0,0,0,6.249-.8c.194-.076.386-.159.584-.225a1.2,1.2,0,0,1,1.594.531,5.132,5.132,0,0,1,.795,2.244c.163,1.158.264,2.324.392,3.486m-3.969.936h0c-.764,0-1.529,0-2.293,0-.5,0-.683.2-.67.706a2.964,2.964,0,0,0,5.919-.021c.01-.474-.184-.682-.662-.686-.764-.005-1.529,0-2.293,0m-8.117,0c-.778,0-1.555-.005-2.333,0a.561.561,0,0,0-.631.65,2.964,2.964,0,0,0,5.923,0c0-.44-.184-.645-.626-.649-.778-.007-1.555,0-2.333,0m2.534,7.089-.763.691c.965,1.016,3.7,1.006,4.541.017l-.695-.734a3.24,3.24,0,0,1-3.083.025M68.52,34.1a4.619,4.619,0,0,1,2.823-.021l.432-.987a5.447,5.447,0,0,0-3.595-.007l.34,1.016m8.109-1.006.433.987a4.631,4.631,0,0,1,2.827.018l.332-1.02a5.484,5.484,0,0,0-3.591.016" transform="translate(-54.516 -22.762)" fill="#fff"/>
        <path id="Path_32282" data-name="Path 32282" d="M72.078,13.2c.016-.283.034-.566.047-.849a16.848,16.848,0,0,0-.67-6.156,5.324,5.324,0,0,0-.86-1.57,2.029,2.029,0,0,0-2.338-.712c-.873.27-1.726.617-2.612.836a11.126,11.126,0,0,1-6.728-.5c-.292-.11-.581-.236-.88-.323a2.189,2.189,0,0,0-2.531.822A6.443,6.443,0,0,0,54.4,7.606a20.946,20.946,0,0,0-.258,5.373.384.384,0,0,1-.079.27,3.858,3.858,0,0,1-.5-.8,12.8,12.8,0,0,1-.531-6.919A6.469,6.469,0,0,1,57.583.734,14.664,14.664,0,0,1,62.2.009a20.8,20.8,0,0,1,5.464.436,8.141,8.141,0,0,1,3.763,1.927,6.712,6.712,0,0,1,1.98,4.442,14.227,14.227,0,0,1-.667,5.422,5.726,5.726,0,0,1-.538,1.01Z" transform="translate(-43.429 0)" fill="#fff"/>
        <path id="Path_32283" data-name="Path 32283" d="M32.116,150.683v-4.355c0-.65.015-1.3-.006-1.949a1.329,1.329,0,0,1,.271-.867A6.148,6.148,0,0,1,34.7,141.46a4.7,4.7,0,0,0,.541-.314,2.376,2.376,0,0,0,1.189-2.783c-.046-.251-.1-.5-.131-.754-.057-.451.04-.636.354-.719.378-.1.51.189.6.44a6.15,6.15,0,0,1,.311,1.24,7.269,7.269,0,0,1-.171,2.83,2.377,2.377,0,0,1-.279.63c-.134.214-.237.45-.064.638a.907.907,0,0,0,.58.282c1.345.024,2.691.012,4.037.013a2.736,2.736,0,0,1,.348.01.6.6,0,0,1,.035,1.186c-.067.015-.139.01-.207.026a.522.522,0,0,0-.448.541.528.528,0,0,0,.465.529c.067.015.14.007.207.022a.617.617,0,0,1,.474.61.6.6,0,0,1-.546.577c-.138.013-.279,0-.417.011a.543.543,0,0,0-.041,1.084c.057.01.117,0,.173.017a.6.6,0,0,1,.482.634.569.569,0,0,1-.53.552c-.2.021-.394,0-.591.014a.544.544,0,0,0-.061,1.086c.387.074.573.257.549.541-.026.305-.246.464-.656.467-.348,0-.7-.013-1.044,0-1.1.048-2.2.1-3.295.164a14.451,14.451,0,0,1-4.446-.353" transform="translate(-26.427 -112.648)" fill="#fff"/>
        <path id="Path_32284" data-name="Path 32284" d="M94.422,220.836a4.6,4.6,0,1,1-4.6-4.6,4.582,4.582,0,0,1,4.6,4.6" transform="translate(-70.133 -177.972)" fill="#fff"/>
        <path id="Path_32285" data-name="Path 32285" d="M73.908,162.94l-.439-1.5a3.637,3.637,0,0,0,.311-.77,1.672,1.672,0,0,0-1.683-2c-.939-.016-1.879,0-2.819,0H68.8c.17-.105.248-.163.333-.2a13.482,13.482,0,0,1,4.2-1.178,1.044,1.044,0,0,1,.437.077c.748.245,1.49.511,2.243.742a1.112,1.112,0,0,0,.6,0,16.252,16.252,0,0,0,1.646-.551,3.071,3.071,0,0,1,1.861-.153,13.509,13.509,0,0,1,3.621,1.181,4.416,4.416,0,0,1,1.666,1.39,1,1,0,0,1,.16.51c.016.811.007,1.622.007,2.46h-2.4v-.926H82.089v.922Z" transform="translate(-56.623 -129.452)" fill="#fff"/>
        <path id="Path_32286" data-name="Path 32286" d="M4.615,175.662q0,1.81,0,3.62c0,.6-.166.758-.77.759q-1.566,0-3.133,0c-.534,0-.711-.176-.711-.709q0-3.655,0-7.31c0-.556.17-.723.73-.724q1.584,0,3.167,0c.529,0,.714.183.715.709,0,1.218,0,2.437,0,3.655" transform="translate(0 -140.983)" fill="#fff"/>
        <rect id="Rectangle_2021" data-name="Rectangle 2021" width="26.749" height="0.475" transform="translate(6.308 53.192)" fill="#fff"/>
        <rect id="Rectangle_2022" data-name="Rectangle 2022" width="26.747" height="0.474" transform="translate(6.309 51.584)" fill="#fff"/>
        <path id="Path_32287" data-name="Path 32287" d="M98.649,139.647a8.147,8.147,0,0,0,4.449,0c0,.695.007,1.354-.009,2.012,0,.077-.117.189-.2.22q-.917.326-1.845.618a.646.646,0,0,1-.364-.011c-.6-.188-1.191-.382-1.779-.6a.4.4,0,0,1-.238-.266c-.021-.636-.011-1.273-.011-1.977" transform="translate(-81.19 -114.934)" fill="#fff"/>
        <path id="Path_32288" data-name="Path 32288" d="M56.433,79.84c.292.174.55.321.8.482a.319.319,0,0,1,.122.188c.09.45.17.9.266,1.428a3.041,3.041,0,0,1-1.188-2.1" transform="translate(-46.446 -65.711)" fill="#fff"/>
        <path id="Path_32289" data-name="Path 32289" d="M160.6,79.952a2.645,2.645,0,0,1-1.131,2.021c.083-.484.159-.948.246-1.41a.276.276,0,0,1,.124-.15c.242-.154.49-.3.761-.461" transform="translate(-131.246 -65.803)" fill="#fff"/>
        <path id="Path_32290" data-name="Path 32290" d="M124.252,75.127h3.492a1.643,1.643,0,0,1-1.583,1.31,1.728,1.728,0,0,1-1.909-1.31m.887.867h1.035v-.436h-1.035Z" transform="translate(-102.264 -61.832)" fill="#fff"/>
        <path id="Path_32291" data-name="Path 32291" d="M78.364,75.105H81.88a1.686,1.686,0,0,1-1.655,1.316,1.748,1.748,0,0,1-1.861-1.316m1.588.872H81v-.435H79.952Z" transform="translate(-64.497 -61.814)" fill="#fff"/>
      </g>
    </g>
  </g>
</svg>
