<svg xmlns="http://www.w3.org/2000/svg" xmlns:xlink="http://www.w3.org/1999/xlink" width="91" height="91" viewBox="0 0 91 91">
  <defs>
    <clipPath id="clip-path">
      <rect id="Rectangle_1920" data-name="Rectangle 1920" width="39.13" height="51.625" fill="#fff"/>
    </clipPath>
  </defs>
  <g id="Group_4604" data-name="Group 4604" transform="translate(-346 -2799)">
    <circle id="Ellipse_106" data-name="Ellipse 106" cx="45.5" cy="45.5" r="45.5" transform="translate(346 2799)" fill="#f16543"/>
    <g id="Group_4420" data-name="Group 4420" transform="translate(371 2818.688)">
      <g id="Group_4419" data-name="Group 4419" clip-path="url(#clip-path)">
        <path id="Path_32175" data-name="Path 32175" d="M51.984,92c-1.319.946-2.623,1.869-3.913,2.81a48.587,48.587,0,0,0-7.226,6.491c-1.22,1.333-2.326,2.771-3.5,4.151a.72.72,0,0,1-.443.213,1.512,1.512,0,0,1-1.359-.429c-1.92-1.929-3.889-3.809-5.844-5.7a1.857,1.857,0,0,0-.436-.354c-.334-.166-.347-.413-.266-.724a26.57,26.57,0,0,1,2.264-6,16.484,16.484,0,0,1,4.413-5.393c.192-.147.209-.255.032-.417a8.594,8.594,0,0,1-2.347-3.682,9.968,9.968,0,0,1-.419-3.563c.011-.292.248-.261.413-.284.915-.126,1.83-.257,2.749-.345a56.845,56.845,0,0,1,11.158.007c.994.1,1.981.261,2.973.385.228.029.316.119.326.363a9.012,9.012,0,0,1-1.983,6.279,10.97,10.97,0,0,1-.8.846c-.149.148-.174.254.012.395A16.228,16.228,0,0,1,51.984,92M39.938,94.156A.941.941,0,0,0,40.021,94c.293-1.213.588-2.425.869-3.641a.377.377,0,0,0-.091-.3c-.624-.6-1.1-1.37-2.062-1.559a8.3,8.3,0,0,1-1.422-.581l2.621,6.236m6.212-6.14-.091-.067c-.191.09-.382.179-.572.27-.813.392-1.785.5-2.337,1.355-.108.166-.29.284-.4.449a.578.578,0,0,0-.112.393c.276,1.219.571,2.434.861,3.649l.087.021,2.565-6.071m-.915,4.7-.126-.211c-.062.09-.164.175-.178.272a.346.346,0,0,1-.376.337c-.069,0-.131.111-.2.171.075.047.146.126.225.134.4.04.635-.189.652-.7" transform="translate(-24.037 -65.16)" fill="#fff"/>
        <path id="Path_32176" data-name="Path 32176" d="M19.244,12.814c0-.492-.01-.934,0-1.374a.469.469,0,0,0-.321-.489C17,10,15.085,9.033,13.166,8.071l-.713-.358c.4-.211.75-.4,1.1-.576q4-1.992,8-3.981c2.055-1.026,4.1-2.069,6.163-3.085a.813.813,0,0,1,.629-.016c2.209,1.088,4.4,2.2,6.607,3.3,2.361,1.179,4.727,2.348,7.089,3.525.516.257,1.025.527,1.6.821a6.365,6.365,0,0,1-.892.464A2.524,2.524,0,0,0,41.291,9.5a2.834,2.834,0,0,0-.242.836c-.251,1.3.29,2.507.369,3.762a1.433,1.433,0,0,1-.321,1.225.822.822,0,0,1-1.375-.507,8.908,8.908,0,0,1,.11-1.618c.077-.627.213-1.248.287-1.875a4.315,4.315,0,0,0-.064-.774,3.348,3.348,0,0,1,0-.449c.021-.336-.176-.486-.469-.343-.828.4-1.66.8-2.475,1.232a.621.621,0,0,0-.244.448c-.033.45-.012.9-.012,1.4a57.743,57.743,0,0,0-17.613-.03M31.106,4.792c-.075.087-.206.168-.215.262-.021.217-.066.36-.318.379-.069.005-.13.108-.194.166a.76.76,0,0,0,.244.12c.437.032.616-.231.484-.926m-1.354-.1.128.152c.069-.065.193-.127.2-.2.015-.238.085-.384.351-.4.063,0,.123-.089.184-.138-.071-.05-.138-.135-.215-.145-.4-.052-.642.2-.646.723" transform="translate(-10.336 0)" fill="#fff"/>
        <path id="Path_32177" data-name="Path 32177" d="M13.185,170.26c.444-.678.869-1.33,1.3-1.98a44.7,44.7,0,0,1,5.783-6.988,51.913,51.913,0,0,1,9.391-7.481c2.07-1.284,4.243-2.405,6.393-3.555a2.178,2.178,0,0,1,2.868,1.015,2.219,2.219,0,0,1-.994,2.938,55.42,55.42,0,0,0-11.574,7.461,45.175,45.175,0,0,0-8.093,8.836,34.933,34.933,0,0,0-2.568,4.477,2.147,2.147,0,0,1-3.435.556q-4.115-3.993-8.215-8Q2.371,165.912.71,164.281a2.192,2.192,0,0,1,.557-3.6,2.257,2.257,0,0,1,2.539.5q4.576,4.472,9.159,8.937a1.49,1.49,0,0,0,.22.143" transform="translate(0 -124.539)" fill="#fff"/>
      </g>
    </g>
  </g>
</svg>
