<svg xmlns="http://www.w3.org/2000/svg" width="83.296" height="55.801" viewBox="0 0 83.296 55.801">
  <g id="Group_280" data-name="Group 280" transform="translate(-599.774 -1851.819)">
    <path id="Path_4786" data-name="Path 4786" d="M83.3,103.757c-.154.455-.282.921-.468,1.362a6.6,6.6,0,0,1-5.933,4.358c-.324.025-.65.026-.975.026-19.412,0-38.825-.03-58.237.026-4.1.012-6.409-2.5-7.011-4.815a19.145,19.145,0,0,1-.339-3.7c-.046-.8-.009-1.609-.009-2.5-1.1,0-2.091,0-3.087,0A6.828,6.828,0,0,1,0,91.271q0-15.251,0-30.5a6.784,6.784,0,0,1,5.348-6.848,9.146,9.146,0,0,1,1.939-.155c19.466-.008,38.933.033,58.4-.038a7.006,7.006,0,0,1,7.287,7.3c-.04,1.211-.006,2.424-.006,3.728H75.81c4.042,0,6.357,1.781,7.4,5.683a.5.5,0,0,0,.089.133Zm-46.8-46.548H7.224c-2.487,0-3.79,1.313-3.79,3.825q0,15.124,0,30.247c0,2.437,1.322,3.779,3.764,3.78q29.271.008,58.543,0c2.47,0,3.772-1.3,3.774-3.758q.007-15.164,0-30.329c0-2.472-1.3-3.765-3.748-3.765H36.495m-22.714,41.3c0,1.329.063,2.524-.014,3.71a3.572,3.572,0,0,0,3.857,3.867q29.151-.085,58.3,0a3.7,3.7,0,0,0,3.964-3.96c-.065-8.1-.027-16.208-.027-24.313,0-2.06.02-4.12-.008-6.18a3.144,3.144,0,0,0-2.109-3.167c-1.53-.553-3.133-.2-4.774-.256v1.1c0,7.237.013,14.474-.016,21.711a9.758,9.758,0,0,1-.36,2.8c-.908,2.954-3.495,4.681-6.855,4.681q-25.411,0-50.821,0h-1.14" transform="translate(599.775 1798.09)" fill="#fff"/>
    <path id="Path_4787" data-name="Path 4787" d="M121.636,92.823a17.793,17.793,0,1,1-17.789-17.794,17.843,17.843,0,0,1,17.789,17.794m-17.8,14.368A14.361,14.361,0,1,0,89.48,92.873a14.386,14.386,0,0,0,14.353,14.318" transform="translate(532.426 1781.419)" fill="#fff"/>
    <path id="Path_4788" data-name="Path 4788" d="M30.383,78.084a5.334,5.334,0,1,1-5.342,5.322,5.344,5.344,0,0,1,5.342-5.322m-.025,7.184a1.874,1.874,0,0,0,1.912-1.893,1.925,1.925,0,0,0-1.876-1.867,1.867,1.867,0,0,0-1.89,1.91,1.828,1.828,0,0,0,1.853,1.85" transform="translate(580.176 1779.028)" fill="#fff"/>
    <path id="Path_4789" data-name="Path 4789" d="M272.219,191.281a5.334,5.334,0,1,1-5.3-5.371,5.368,5.368,0,0,1,5.3,5.371m-5.326,1.839a1.9,1.9,0,0,0,1.889-1.925,1.935,1.935,0,0,0-1.9-1.842,1.871,1.871,0,0,0-1.862,1.939,1.837,1.837,0,0,0,1.875,1.828" transform="translate(395.067 1694.636)" fill="#fff"/>
    <path id="Path_4790" data-name="Path 4790" d="M145.245,113.561c.09,1.031.618,1.334,1.492,1.2a2.63,2.63,0,0,1,.808.041,1.71,1.71,0,0,1,1.482,1.672,1.558,1.558,0,0,1-1.541,1.662c-1.434-.138-2.016.525-2.573,1.725-.717,1.545-1.871,2.225-4.482,3.33a4.118,4.118,0,0,1,.754.448q2,1.847,3.969,3.73a1.773,1.773,0,0,1,.213,2.594,1.748,1.748,0,0,1-2.593-.129c-2.488-2.338-4.963-4.69-7.461-7.018a1.863,1.863,0,0,1-.665-2.169,1.807,1.807,0,0,1,1.987-1.08c.893.031,1.789.022,2.683,0a3.179,3.179,0,0,0,2.569-1.342c-.418-.018-.671-.039-.924-.039-1.517,0-3.035.016-4.553-.01a1.687,1.687,0,0,1-1.879-1.687,1.727,1.727,0,0,1,1.913-1.754c1.73-.024,3.46-.006,5.367-.006a2.913,2.913,0,0,0-2.315-1.171c-1-.028-2.005,0-3.008-.014a1.743,1.743,0,0,1-1.959-1.7c-.011-1.054.709-1.721,1.917-1.724q5.325-.015,10.65,0a1.748,1.748,0,0,1,1.934,1.73,1.8,1.8,0,0,1-1.979,1.709c-.595.008-1.189,0-1.805,0" transform="translate(494.493 1753.96)" fill="#fff"/>
  </g>
</svg>
