<svg xmlns="http://www.w3.org/2000/svg" width="60.746" height="70.1" viewBox="0 0 60.746 70.1">
  <g id="Group_279" data-name="Group 279" transform="translate(0)">
    <path id="Path_4782" data-name="Path 4782" d="M473.7,59.517c-1.712,0-3.32.016-4.928,0a5.44,5.44,0,0,1-5.513-4.173,7.456,7.456,0,0,1-.168-1.714q-.014-19.382-.016-38.764a2.85,2.85,0,0,1,.894-2.177Q469.932,6.778,475.847.82A2.6,2.6,0,0,1,477.829,0q14.846.023,29.692.013A5.4,5.4,0,0,1,513.2,5.729c0,1.582,0,3.165,0,4.829.288.014.54.037.791.038,1.346,0,2.691,0,4.036,0a5.451,5.451,0,0,1,5.783,5.781c.013,5.764,0,11.528,0,17.293q0,15.275.006,30.55a5.618,5.618,0,0,1-2.243,4.826,5.542,5.542,0,0,1-3.446,1.052c-5.645-.014-11.291-.006-16.936-.006q-10.81,0-21.621,0c-3.644,0-5.874-2.237-5.876-5.883,0-1.532,0-3.065,0-4.692m-6.92-43.34v.818q0,18.3,0,36.6c0,1.613.6,2.219,2.213,2.219h38.263c1.678,0,2.248-.567,2.249-2.248q0-23.81,0-47.62c0-1.673-.585-2.264-2.244-2.265q-13.583,0-27.166,0c-.251,0-.5.024-.725.035a1.4,1.4,0,0,0-.059.229c0,2.137.007,4.274-.019,6.411a7.577,7.577,0,0,1-.2,1.78,5.339,5.339,0,0,1-5.166,4.036c-2.349.027-4.7.006-7.146.006m10.616,43.34c0,1.574,0,3.057,0,4.541,0,1.817.548,2.366,2.36,2.367h37.983c1.806,0,2.38-.569,2.38-2.354q0-23.743,0-47.487a6.486,6.486,0,0,0-.016-.72,1.619,1.619,0,0,0-1.408-1.519c-1.813-.063-3.63-.02-5.494-.02v.918q0,19.168-.01,38.335a7.556,7.556,0,0,1-.247,2.059,5.425,5.425,0,0,1-5.589,3.879q-14.451.008-28.9,0h-1.058M475.582,6.551l-5.889,5.9c1.437,0,2.966.051,4.489-.021a1.529,1.529,0,0,0,1.393-1.58c.029-1.438.008-2.877.008-4.3" transform="translate(-463.074 0)" fill="#fff"/>
    <path id="Path_4783" data-name="Path 4783" d="M541.071,148.587c-3.482,0-6.965,0-10.447,0a1.858,1.858,0,0,1-1.919-1.423,1.787,1.787,0,0,1,.978-2.041,2.856,2.856,0,0,1,1.115-.222q10.3-.019,20.605,0c1.484,0,2.362.983,2.087,2.259a1.845,1.845,0,0,1-1.973,1.432q-5.223.008-10.447,0" transform="translate(-516.033 -116.996)" fill="#fff"/>
    <path id="Path_4784" data-name="Path 4784" d="M579.235,77.075c-2.162,0-4.325.027-6.487-.01A1.815,1.815,0,0,1,571,74.577a1.853,1.853,0,0,1,1.891-1.161q5.37-.009,10.74,0c.673,0,1.346-.008,2.018,0a1.835,1.835,0,1,1,0,3.659c-2.138.02-4.277.006-6.415.006Z" transform="translate(-550.115 -59.278)" fill="#fff"/>
    <path id="Path_4785" data-name="Path 4785" d="M536.773,216.538q3.024,0,6.049,0a1.8,1.8,0,0,1,1.744,1.052,1.558,1.558,0,0,1-.211,1.878,2.585,2.585,0,0,1-1.546.737c-4.055.059-8.112.049-12.168.022a1.813,1.813,0,0,1-1.924-1.889,1.843,1.843,0,0,1,2.009-1.8c2.016-.01,4.032,0,6.049,0" transform="translate(-516.078 -174.85)" fill="#fff"/>
  </g>
</svg>
