<svg id="Group_496" data-name="Group 496" xmlns="http://www.w3.org/2000/svg" xmlns:xlink="http://www.w3.org/1999/xlink" width="131.752" height="130.858" viewBox="0 0 131.752 130.858">
  <defs>
    <clipPath id="clip-path">
      <rect id="Rectangle_1321" data-name="Rectangle 1321" width="131.752" height="130.858" fill="none"/>
    </clipPath>
  </defs>
  <g id="Group_495" data-name="Group 495" clip-path="url(#clip-path)">
    <path id="Path_6512" data-name="Path 6512" d="M0,49.268a7.078,7.078,0,0,1,4.183-3.8,10.123,10.123,0,0,1,3.681-.238c1.229.1,1.441-.36,1.424-1.475-.051-3.412-.459-6.812-.3-10.23a1.215,1.215,0,0,1,.724-1.25c4.639-2.464,9.225-5.03,13.87-7.483a4.989,4.989,0,0,0,2.09-2.435c2.138-4.408,4.7-8.589,6.858-12.979.292-.592.685-.484,1.125-.5,5.171-.185,10.329.319,15.5.313,1.788,0,2.982-.969,4.3-1.754C57.379,5.1,61.233,2.641,65.12.24a.991.991,0,0,1,1.34.044c1.6,1.263,3.429,2.174,5.066,3.423a46.6,46.6,0,0,0,4.648,2.576,14.658,14.658,0,0,1,2.1,1.324c2.893,2.487,6.309,1.412,9.505,1.427,1.366.007,2.789-.092,4.183-.14,1.97-.067,3.944,0,5.916-.026a1.016,1.016,0,0,1,1.1.561c2.341,4.423,4.737,8.818,7.062,13.25a6.334,6.334,0,0,0,2.835,2.672q5.641,2.991,11.258,6.027c.619.333,1.194.762,1.837,1.033.455.192.5.461.5.869a43.625,43.625,0,0,1-.082,6.291c-.248,1.615-.011,3.19-.187,4.771-.075.677.175.85.848.878,1.546.065,3.086-.216,4.642.351a5.6,5.6,0,0,1,4,5.606q.142,14.275.007,28.553a5.8,5.8,0,0,1-6.135,6.022c-.257,0-.514,0-.772,0-2.752,0-3.068.366-2.569,3.1.549,3.015.094,6.053.247,9.077.02.4-.206.564-.543.742q-5.3,2.806-10.57,5.654c-1.271.682-2.575,1.312-3.8,2.074-1.15.718-1.459,2.07-2.074,3.179q-3.348,6.039-6.621,12.12a1.05,1.05,0,0,1-1.078.637c-4.872.088-9.758-.085-14.595-.419-2.6-.18-4.122,1.147-5.993,2.116-1.538.8-2.9,1.926-4.487,2.649-2.133.971-3.8,2.648-5.83,3.8a1.836,1.836,0,0,1-2.123.07q-4.547-2.843-9.1-5.684c-1.552-.965-3.114-1.915-4.677-2.863a2.8,2.8,0,0,0-2.111-.143,15.264,15.264,0,0,1-4.062.192c-3.632-.13-7.244.329-10.871.3a1.438,1.438,0,0,1-1.475-.869c-2.471-4.665-5-9.3-7.47-13.964a3.014,3.014,0,0,0-1.331-1.279c-4.636-2.493-9.265-5-13.918-7.463a1.114,1.114,0,0,1-.743-1.144,67.729,67.729,0,0,1,.327-8.419,22.261,22.261,0,0,0-.051-2.971c0-.539-.333-.493-.682-.492-.772,0-1.545-.03-2.315.006A5.681,5.681,0,0,1,.332,82.15c-.075-.168-.037-.445-.332-.466Zm102.925-7.991a33.278,33.278,0,0,0-3.437-4.895,59.209,59.209,0,0,0-8.138-7.187A45.538,45.538,0,0,0,56.4,22.063a13.754,13.754,0,0,0-2.2.266c-1.4.608-2.811,1.176-4.236,1.727a38.513,38.513,0,0,0-5.192,2.315c-1.818,1.032-1.823,1.023-2.835-.54-.781-1.759-.819-1.832.709-2.638A41.266,41.266,0,0,1,58.581,18.1c1.334-.077,2.645-.674,3.975-.7a57.521,57.521,0,0,1,10.047.442,48.084,48.084,0,0,1,25.821,12.14,53.242,53.242,0,0,1,9.359,11.593c.316,1.2,1.194,2.11,1.631,3.251.163.425.621.372,1.01.371,2.354,0,4.709-.023,7.062.011.662.01.876-.175.877-.86a7.691,7.691,0,0,1,.181-3.032c.018-1.713-.083-3.438.1-5.134a1.623,1.623,0,0,0-1.107-1.847q-6.08-3.2-12.138-6.435a4.078,4.078,0,0,1-1.8-1.713c-2.191-4.165-4.417-8.311-6.618-12.471A1.8,1.8,0,0,0,95.2,12.7c-3.718-.118-7.416.346-11.129.3a12.064,12.064,0,0,0-3.476-.007,2.223,2.223,0,0,1-1.759-.507C74.727,9.907,70.59,7.367,66.472,4.8a1.275,1.275,0,0,0-1.5,0c-3.227,2.02-6.511,3.957-9.675,6.072a11.6,11.6,0,0,1-7.03,2.2c-4.052-.092-8.1-.481-12.156-.322-.413.016-.873-.22-1.191.407-.866,1.707-1.847,3.357-2.757,5.042-1.526,2.825-3.044,5.653-4.533,8.5a1.7,1.7,0,0,1-.831.7c-4.384,2.372-8.768,4.744-13.172,7.077a1.2,1.2,0,0,0-.779,1.259,29.235,29.235,0,0,0,.325,5.592c-.018.982,0,1.966-.065,2.944-.049.721.186.969.925.95,1.836-.046,3.682-.113,5.51.014,1.662.115,2.887-.109,3.443-1.972a7.068,7.068,0,0,1,.935-1.909c.95-.388.938-1.415,1.4-2.125A49.177,49.177,0,0,1,36.287,27.264c1.332-1.04,1.339-1.029,2.31.435a1.824,1.824,0,0,0,.257.258,5.8,5.8,0,0,0,.7,1.026c.383.369.171.576-.117.769-1.156.775-2.124,1.773-3.189,2.65a37.971,37.971,0,0,0-7.466,8.632c-.665.4-.65,1.243-1.122,1.763a1.839,1.839,0,0,0-.6,1.944c.323.667,1.2.457,1.865.457q37.458,0,74.917,0h1.392a27.635,27.635,0,0,0-2.308-3.922M28.779,89.92c-.048.653.558.931.861,1.343a47.1,47.1,0,0,0,9.621,9.831,44.571,44.571,0,0,0,11.522,6.233,42.689,42.689,0,0,0,14.048,2.644,39.249,39.249,0,0,0,4.825-.2,46.709,46.709,0,0,0,9.6-2,41.236,41.236,0,0,0,7.914-3.42,45.915,45.915,0,0,0,8.714-6.262,39.076,39.076,0,0,0,7.044-8.425,27.743,27.743,0,0,0,2.315-3.911H78.914c-2.141,0-4.283-.039-6.422.02-.807.022-1.094-.224-.981-1.007A3.944,3.944,0,0,0,71.476,84c.111-2.105.111-2.105,2.215-2.105H125c2.183,0,2.861-.689,2.862-2.895q0-13.309,0-26.618c0-2.8-.522-3.323-3.33-3.323H8.027a8.681,8.681,0,0,0-.895-.041c-3.052.162-3.274.4-3.274,3.442,0,8.512.066,17.025-.029,25.536-.044,3.9.665,4.146,4.2,3.9q24.906,0,49.812-.02c1.306,0,2.5-.142,2.157,1.766-.016.09.13.21.2.316-.078.09-.236.194-.223.267.265,1.485-.544,1.56-1.743,1.554-10.186-.045-20.373-.026-30.559-.026H26.161c1.145,1.4,1.567,2.974,2.618,4.167m-15.605-.286a30.571,30.571,0,0,0-.332,5.463,1.408,1.408,0,0,0,.886,1.474Q18.8,99.254,23.835,102c1.672.914,3.691,1.4,4.485,3.464a11.147,11.147,0,0,0,.684,1.48c1.719,3.045,3.428,6.1,4.954,9.245,1.208,2.493,1.321,2.487,4.154,2.063a37.389,37.389,0,0,1,3.847-.058,59.21,59.21,0,0,0,6.381-.166c1.247-.189,2.686-.506,3.879.212q5.969,3.593,11.847,7.334c1.1.7,1.918,1.012,3.2.139,3.1-2.12,6.346-4.039,9.57-5.977a8.408,8.408,0,0,1,5.161-1.616c4.421.292,8.878.034,13.311.36.836.062,1.2-.37,1.544-1.026,1.983-3.736,3.965-7.474,6.028-11.165.574-1.028.865-2.266,2.083-2.9,3.928-2.053,7.85-4.122,11.711-6.3.7-.394,1.946-.371,1.928-1.677-.025-1.927-.038-3.854-.056-5.781a7.687,7.687,0,0,1-.181-3.035c0-.691-.226-.865-.882-.856-2.356.033-4.713.019-7.07.008-.454,0-.815.043-1.049.523a23.865,23.865,0,0,0-1.586,3.123c-.6.9-1.212,1.785-1.8,2.692A47.1,47.1,0,0,1,94.115,104.5,46.4,46.4,0,0,1,84.1,110.118a44.137,44.137,0,0,1-11.531,3.165,50.25,50.25,0,0,1-10.636.376,98.45,98.45,0,0,1-9.969-1.731c-2.423-.485-4.676-1.852-6.981-2.879a46.813,46.813,0,0,1-9.694-6.134,41.133,41.133,0,0,1-5.629-5.39,65.542,65.542,0,0,1-5.742-7.917c-.42-.865-.893-1.709-1.248-2.6a1.891,1.891,0,0,0-2.23-1.278c-1.23.109-2.479-.018-3.716.037-1.177.053-2.776-.558-3.418.261s-.206,2.375-.136,3.607" transform="translate(0 0)"/>
    <path id="Path_6513" data-name="Path 6513" d="M22.736,142.682h116.5c2.808,0,3.33.522,3.33,3.323q0,13.309,0,26.619c0,2.205-.679,2.894-2.861,2.895H88.4c-2.1,0-2.1,0-2.214,2.1l-3.561-.041c-.084-.187-.27-.394-.237-.558.306-1.539-.581-1.564-1.731-1.523-2.075.074-2.077.021-2.188,2.122l-3.561-.042c-.07-.106-.217-.225-.2-.315.347-1.909-.852-1.769-2.157-1.767q-24.906.043-49.813.02a18.923,18.923,0,0,1-.308-4.848q0-11.635,0-23.271a17.9,17.9,0,0,1,.308-4.72m24.42,18.487.237-.217c1.027-.008,2.054-.022,3.082-.023,2.944,0,2.912,0,2.852-2.976-.015-.771-.283-.918-.971-.9-1.5.045-3,.01-4.5.016-.407,0-.681,0-.755-.571-.42-3.292-.265-3.5,2.993-3.5H51c2.953,0,2.93,0,2.829-3-.023-.673-.212-.875-.881-.868-2.954.031-5.908.025-8.863,0-.584,0-.832.135-.83.78q.03,9.12,0,18.239c0,.555.159.736.725.732,3.04-.024,6.08-.016,9.12-.006.441,0,.665-.058.726-.6.366-3.262.385-3.26-2.819-3.26-.086,0-.172.005-.257,0-1.181-.082-2.848.526-3.418-.239-.6-.8-.161-2.371-.176-3.6m24.971-.247c-.6,1.479-1.141,2.854-2.532,3.557a5.313,5.313,0,0,1-5.811-.506,6.114,6.114,0,0,1-1.674-8.116c1.871-3.108,5.335-3.317,7.973-2.134,2.4,1.074,2.32,1.247,3.785-.946a4.053,4.053,0,0,1,.32-.536c.3-.324.138-.394-.157-.639-4.349-3.618-11.868-3.307-15.109,2.124a9.9,9.9,0,0,0,1.8,12.684,10.311,10.311,0,0,0,6.422,2.683,7.328,7.328,0,0,0,4.548-1.143c3.468-2.412,4.584-6.024,4.518-10.106-.01-.618-.194-.807-.806-.794-1.67.036-3.342.012-5.013.012-2.991,0-2.968,0-2.86,3,.024.669.21.9.883.871,1.188-.046,2.378-.013,3.709-.013m14.491-11.534a1.7,1.7,0,0,0-2.359,1.275c-1.8,4.956-3.731,9.861-5.573,14.8-.3.818-1.146,1.654-.853,2.414s1.54.674,2.263,1.165c.9.613,1.321.222,1.61-.672.27-.836.715-1.625.916-2.474s.677-1.027,1.457-1a43.184,43.184,0,0,0,4.37-.011c1.137-.079,1.818.177,2.04,1.409a11.557,11.557,0,0,0,.788,2.106c.159.4.349.891.873.728a9.835,9.835,0,0,0,2.978-1.209c.327-.244-.374-1.249-.658-1.889-.016-.036,0-.089-.01-.127-1.9-5.065-3.833-10.118-5.675-15.2-.414-1.142-.956-1.7-2.167-1.311m27.548,15.152c-.58-.492-1.245-1.09-1.85-1.706-.895-.911-1.371-.438-1.857.228a4.847,4.847,0,0,1-4.495,1.984c-2.9-.115-5.838-3.236-5.524-6.139.554-5.13,4.48-6.848,8.986-5.218.825.3,1.41,1.568,2.292,1.052.712-.416,1.05-1.472,1.555-2.242a1.689,1.689,0,0,0,.156-.2.59.59,0,0,0-.19-.787,10.77,10.77,0,0,0-6.84-2.348,9.284,9.284,0,0,0-7.636,3.735,9.541,9.541,0,0,0-2.189,6.794,10.169,10.169,0,0,0,4.2,7.408,9.229,9.229,0,0,0,8.343,1.462,8.368,8.368,0,0,0,5.052-4.021m8.347-.308q0,1.027,0,2.055c0,2.888,0,2.843,2.85,2.864.9.006,1.034-.323,1.022-1.1-.038-2.569,0-5.138-.014-7.707a2.662,2.662,0,0,1,.437-1.549c1.262-1.926,2.5-3.866,3.765-5.792,1.583-2.414,1.57-2.382-.86-3.938-.664-.425-.94-.325-1.33.311-1.073,1.75-2.229,3.449-3.329,5.183-.447.7-.762.85-1.28.016-1.128-1.814-2.371-3.557-3.5-5.371-.281-.451-.483-.652-.952-.364-.747.458-1.494.918-2.226,1.4-.4.259-.48.471-.117.963,1.041,1.414,1.906,2.956,2.931,4.383,1.863,2.6,3.446,5.25,2.6,8.649m-92.86-5.125c0,2.912.031,5.825-.019,8.736-.015.867.184,1.205,1.118,1.169,1.839-.072,3.682-.021,5.524-.021,3.085,0,3.06,0,2.881-3.1-.038-.654-.285-.782-.85-.77-1.2.026-2.4-.054-3.6.027-.948.064-1.239-.208-1.224-1.2.06-4.025.025-8.051.025-12.076,0-2.768,0-2.712-2.714-2.764-1.034-.02-1.181.358-1.165,1.258.053,2.911.02,5.824.02,8.736" transform="translate(-14.709 -93.626)" fill="#70aeff"/>
    <path id="Path_6514" data-name="Path 6514" d="M63.374,36.649a1.806,1.806,0,0,1-.257-.259c-.972-1.464-.978-1.475-2.311-.435A49.17,49.17,0,0,0,49.844,47.913c-.464.71-.452,1.737-1.4,2.124L37.694,50.01a29.237,29.237,0,0,1-.326-5.592,1.2,1.2,0,0,1,.779-1.259c4.4-2.333,8.789-4.7,13.172-7.077a1.7,1.7,0,0,0,.831-.7c1.488-2.844,3.007-5.673,4.533-8.5.91-1.686,1.891-3.335,2.757-5.042.318-.628.778-.391,1.191-.407,4.057-.16,8.1.23,12.156.322a11.6,11.6,0,0,0,7.03-2.2c3.164-2.116,6.447-4.052,9.675-6.072a1.273,1.273,0,0,1,1.5,0c4.118,2.569,8.255,5.108,12.366,7.688a2.223,2.223,0,0,0,1.759.507,12.049,12.049,0,0,1,3.476.007c3.713.049,7.411-.414,11.129-.3a1.8,1.8,0,0,1,1.78,1.015c2.2,4.159,4.427,8.306,6.618,12.471a4.076,4.076,0,0,0,1.8,1.713q6.065,3.226,12.138,6.435a1.623,1.623,0,0,1,1.107,1.848c-.182,1.7-.08,3.421-.1,5.133-3.149,0-6.3-.01-9.447.006-.442,0-.947-.19-1.314.253a53.255,53.255,0,0,0-9.359-11.594,48.08,48.08,0,0,0-25.821-12.14,57.553,57.553,0,0,0-10.047-.442c-1.329.031-2.64.627-3.975.7a41.251,41.251,0,0,0-15.928,5.088c-1.528.807-1.49.879-.709,2.638a16.549,16.549,0,0,0-3.09,2.125" transform="translate(-24.52 -8.693)" fill="#09867f"/>
    <path id="Path_6515" data-name="Path 6515" d="M48.429,260.222a65.542,65.542,0,0,0,5.742,7.917,41.094,41.094,0,0,0,5.629,5.39,46.826,46.826,0,0,0,9.694,6.135c2.305,1.027,4.559,2.394,6.982,2.879a98.522,98.522,0,0,0,9.969,1.73,50.25,50.25,0,0,0,10.636-.376,44.131,44.131,0,0,0,11.531-3.165,46.38,46.38,0,0,0,10.011-5.619A47.1,47.1,0,0,0,130.487,262.7c.584-.907,1.2-1.8,1.8-2.692.339.383.794.233,1.2.235,3.189.011,6.378,0,9.567,0,.018,1.927.031,3.855.056,5.782.017,1.306-1.23,1.283-1.929,1.677-3.861,2.176-7.782,4.245-11.711,6.3-1.218.637-1.508,1.875-2.083,2.9-2.064,3.692-4.045,7.43-6.028,11.165-.348.656-.708,1.087-1.544,1.026-4.433-.326-8.89-.068-13.311-.36a8.406,8.406,0,0,0-5.161,1.616c-3.224,1.937-6.467,3.856-9.57,5.976-1.279.874-2.1.561-3.2-.139q-5.879-3.737-11.847-7.334c-1.193-.718-2.632-.4-3.879-.212a59.122,59.122,0,0,1-6.381.167,37.289,37.289,0,0,0-3.847.058c-2.833.424-2.946.43-4.154-2.063-1.526-3.149-3.234-6.2-4.954-9.245a11.13,11.13,0,0,1-.685-1.48c-.794-2.068-2.813-2.549-4.485-3.464q-5.034-2.752-10.107-5.433a1.408,1.408,0,0,1-.886-1.474,30.6,30.6,0,0,1,.332-5.463l10.748-.027" transform="translate(-24.506 -170.615)" fill="#09867f"/>
    <path id="Path_6516" data-name="Path 6516" d="M157.849,260.687a39.066,39.066,0,0,1-7.044,8.425,45.93,45.93,0,0,1-8.714,6.262,41.235,41.235,0,0,1-7.914,3.42,46.729,46.729,0,0,1-9.6,2,39.257,39.257,0,0,1-4.825.2A42.688,42.688,0,0,1,105.7,278.35a44.582,44.582,0,0,1-11.522-6.233,47.115,47.115,0,0,1-9.621-9.831c-.3-.412-.908-.69-.861-1.342.412-.47.963-.266,1.45-.268q9.44-.021,18.881-.009,26.909.008,53.818.02" transform="translate(-54.921 -171.024)" fill="#fff"/>
    <path id="Path_6517" data-name="Path 6517" d="M93.782,68.315a16.54,16.54,0,0,1,3.09-2.125c1.012,1.563,1.017,1.572,2.835.54a38.513,38.513,0,0,1,5.192-2.315c1.426-.551,2.835-1.12,4.236-1.727a13.759,13.759,0,0,1,2.2-.266,45.542,45.542,0,0,1,34.947,7.132,59.21,59.21,0,0,1,8.138,7.187,33.307,33.307,0,0,1,3.437,4.895c-.085.008-.171.023-.256.023q-36.412.005-72.824,0c-.371,0-.784.106-1.065-.272a37.971,37.971,0,0,1,7.466-8.632c1.065-.877,2.033-1.875,3.19-2.65.288-.193.5-.4.117-.769a5.806,5.806,0,0,1-.7-1.025M136.223,71.2c0-2.023,0-2.023-1.454-2.023-2.4,0-2.4,0-2.4,1.455,0,2.406,0,2.406,1.582,2.407,2.277,0,2.277,0,2.277-1.839m5.852,5.7c.831-.088,2.059.526,1.912-1.4-.188-2.452-.044-2.463-1.567-2.463-2.338,0-2.338,0-2.338,1.522,0,2.34,0,2.34,1.993,2.34" transform="translate(-54.928 -40.358)" fill="#fff"/>
    <path id="Path_6518" data-name="Path 6518" d="M152.857,249.9q-26.909-.01-53.818-.02-9.441,0-18.881.009c-.488,0-1.039-.2-1.45.267-1.051-1.194-1.474-2.766-2.618-4.167H77.6c10.187,0,20.373-.019,30.559.026,1.2.005,2.008-.07,1.743-1.555-.013-.073.145-.177.223-.267l3.561.042c.226.581-.375,1.568.547,1.741a7.6,7.6,0,0,0,3.137-.035c.587-.145-.048-1.159.365-1.682a.361.361,0,0,1,.108-.065l3.561.041a3.948,3.948,0,0,1,.035.766c-.113.784.173,1.029.981,1.007,2.139-.058,4.281-.02,6.422-.02h26.329a27.8,27.8,0,0,1-2.315,3.911" transform="translate(-49.929 -160.236)" fill="#fff"/>
    <path id="Path_6519" data-name="Path 6519" d="M80.21,119.345c.281.378.694.272,1.065.272q36.412,0,72.824-.005c.085,0,.171-.015.256-.022a27.644,27.644,0,0,1,2.307,3.922H155.27q-37.459,0-74.917,0c-.668,0-1.541.209-1.865-.458a1.839,1.839,0,0,1,.6-1.944c.472-.52.457-1.359,1.122-1.763" transform="translate(-51.43 -78.312)" fill="#fff"/>
    <path id="Path_6520" data-name="Path 6520" d="M15.332,142.6a17.9,17.9,0,0,0-.308,4.72q-.006,11.635,0,23.271a18.923,18.923,0,0,0,.308,4.848c-3.533.244-4.242,0-4.2-3.9.095-8.511.029-17.024.029-25.536,0-3.044.221-3.28,3.274-3.442a8.682,8.682,0,0,1,.895.041" transform="translate(-7.305 -93.541)" fill="#007fe1"/>
    <path id="Path_6521" data-name="Path 6521" d="M48.658,252.972,37.91,253c-.07-1.233-.515-2.777.136-3.607s2.241-.208,3.418-.26c1.237-.056,2.486.071,3.716-.037a1.891,1.891,0,0,1,2.231,1.278c.355.891.827,1.735,1.248,2.6" transform="translate(-24.736 -163.365)" fill="#123e43"/>
    <path id="Path_6522" data-name="Path 6522" d="M38.179,120.173l10.748.028a7.075,7.075,0,0,0-.935,1.91c-.556,1.862-1.781,2.087-3.443,1.972-1.829-.127-3.674-.06-5.51-.014-.739.019-.974-.229-.925-.951.066-.978.047-1.962.065-2.944" transform="translate(-25.006 -78.856)" fill="#123e43"/>
    <path id="Path_6523" data-name="Path 6523" d="M324.239,253.273c-3.189,0-6.378.008-9.567,0-.406,0-.861.148-1.2-.235a23.821,23.821,0,0,1,1.586-3.123c.234-.48.6-.525,1.049-.523,2.357.011,4.713.025,7.07-.008.657-.009.882.165.882.856a7.674,7.674,0,0,0,.181,3.035" transform="translate(-205.696 -163.64)" fill="#123e43"/>
    <path id="Path_6524" data-name="Path 6524" d="M313.49,120.369c.367-.442.872-.251,1.314-.253,3.149-.016,6.3-.007,9.447-.006a7.678,7.678,0,0,0-.181,3.032c0,.685-.216.869-.877.86-2.354-.034-4.708-.015-7.062-.011-.389,0-.847.054-1.01-.371-.436-1.141-1.315-2.054-1.631-3.251" transform="translate(-205.707 -78.793)" fill="#123e43"/>
    <path id="Path_6525" data-name="Path 6525" d="M138.912,173.379c-1.331,0-2.522-.033-3.709.013-.673.026-.859-.2-.883-.871-.108-3-.131-3,2.86-3,1.671,0,3.343.024,5.013-.012.612-.013.8.176.806.794.066,4.082-1.05,7.694-4.518,10.106a7.328,7.328,0,0,1-4.548,1.142,10.311,10.311,0,0,1-6.422-2.683,9.9,9.9,0,0,1-1.8-12.684c3.241-5.431,10.76-5.742,15.109-2.124.294.245.458.315.157.639a4.047,4.047,0,0,0-.32.536c-1.465,2.193-1.388,2.02-3.785.946-2.638-1.183-6.1-.974-7.973,2.134a6.114,6.114,0,0,0,1.674,8.116,5.313,5.313,0,0,0,5.811.506c1.39-.7,1.932-2.078,2.532-3.557" transform="translate(-81.493 -106.083)"/>
    <path id="Path_6526" data-name="Path 6526" d="M192.273,161.95c1.211-.392,1.753.169,2.167,1.311,1.842,5.086,3.776,10.138,5.675,15.2.014.038-.006.09.01.127.284.64.985,1.645.658,1.889a9.835,9.835,0,0,1-2.978,1.208c-.524.164-.714-.327-.873-.728a11.547,11.547,0,0,1-.788-2.106c-.222-1.232-.9-1.487-2.04-1.409a43.1,43.1,0,0,1-4.37.011c-.781-.025-1.253.139-1.458,1s-.646,1.637-.916,2.474c-.289.895-.707,1.285-1.61.672-.723-.491-1.968-.4-2.263-1.165s.548-1.6.853-2.414c1.842-4.939,3.777-9.844,5.573-14.8a1.7,1.7,0,0,1,2.359-1.275m-2.143,11.591h4.017l-1.97-5.264-2.046,5.264" transform="translate(-120.363 -106.188)"/>
    <path id="Path_6527" data-name="Path 6527" d="M255.621,176.912a8.368,8.368,0,0,1-5.052,4.021,9.229,9.229,0,0,1-8.343-1.462,10.169,10.169,0,0,1-4.2-7.407,9.541,9.541,0,0,1,2.189-6.794,9.283,9.283,0,0,1,7.636-3.734,10.769,10.769,0,0,1,6.84,2.348.59.59,0,0,1,.19.787,1.685,1.685,0,0,1-.156.2c-.505.771-.843,1.826-1.555,2.242-.882.516-1.467-.754-2.292-1.052-4.506-1.63-8.432.088-8.986,5.218-.314,2.9,2.626,6.024,5.524,6.14a4.848,4.848,0,0,0,4.495-1.985c.485-.666.962-1.139,1.857-.228.605.616,1.27,1.215,1.85,1.706" transform="translate(-156.163 -105.997)"/>
    <path id="Path_6528" data-name="Path 6528" d="M86.927,173.473c.015,1.234-.42,2.8.176,3.6.57.765,2.237.157,3.418.239.085.006.171,0,.257,0,3.2,0,3.185,0,2.819,3.26-.062.547-.286.606-.726.6-3.04-.01-6.08-.019-9.12.006-.566,0-.726-.177-.725-.732q.025-9.12,0-18.239c0-.645.247-.784.83-.78,2.954.021,5.909.027,8.863,0,.669-.007.858.2.881.868.1,3,.124,3-2.829,3h-.9c-3.258,0-3.414.205-2.993,3.5.073.573.348.573.755.571,1.5-.006,3,.029,4.5-.016.688-.02.955.127.971.9.06,2.976.092,2.973-2.852,2.976-1.027,0-2.054.015-3.082.023-.194-.053-.262.031-.237.217" transform="translate(-54.479 -105.93)"/>
    <path id="Path_6529" data-name="Path 6529" d="M302.553,175.726c.843-3.4-.74-6.053-2.6-8.649-1.024-1.427-1.889-2.97-2.93-4.383-.362-.492-.279-.7.117-.963.733-.48,1.479-.94,2.226-1.4.469-.288.671-.088.952.364,1.129,1.813,2.372,3.556,3.5,5.37.518.834.834.688,1.28-.016,1.1-1.734,2.256-3.433,3.329-5.183.39-.636.665-.736,1.33-.311,2.429,1.556,2.442,1.523.859,3.938-1.262,1.926-2.5,3.866-3.765,5.792a2.663,2.663,0,0,0-.437,1.549c.019,2.569-.024,5.139.014,7.708.011.78-.117,1.109-1.022,1.1-2.854-.02-2.854.024-2.85-2.864q0-1.027,0-2.055" transform="translate(-194.748 -105.119)"/>
    <path id="Path_6530" data-name="Path 6530" d="M43.427,171.381c0-2.912.033-5.825-.02-8.736-.016-.9.13-1.278,1.165-1.258,2.713.052,2.714,0,2.714,2.764,0,4.025.035,8.051-.025,12.076-.015.988.276,1.26,1.224,1.2,1.193-.08,2.4,0,3.6-.027.565-.012.812.116.85.77.179,3.1.2,3.1-2.881,3.1-1.841,0-3.685-.051-5.523.021-.935.036-1.134-.3-1.119-1.169.05-2.911.019-5.824.019-8.736" transform="translate(-28.483 -105.9)"/>
    <path id="Path_6531" data-name="Path 6531" d="M189.6,240.205a.376.376,0,0,0-.108.065c-.413.523.222,1.537-.365,1.682a7.6,7.6,0,0,1-3.137.035c-.922-.173-.321-1.16-.547-1.741.111-2.1.113-2.048,2.188-2.122,1.15-.041,2.037-.016,1.731,1.523-.033.164.153.371.237.558" transform="translate(-121.686 -156.247)"/>
    <path id="Path_6532" data-name="Path 6532" d="M94.366,196.008c-.025-.186.043-.27.237-.217l-.237.217" transform="translate(-61.918 -128.465)" fill="#bb8e57"/>
    <path id="Path_6533" data-name="Path 6533" d="M229.085,85.83c0,1.839,0,1.839-2.277,1.839-1.583,0-1.583,0-1.582-2.406,0-1.457,0-1.457,2.4-1.456,1.454,0,1.454,0,1.454,2.023" transform="translate(-147.79 -54.993)"/>
    <path id="Path_6534" data-name="Path 6534" d="M249.666,98.893c-1.993,0-1.993,0-1.993-2.34,0-1.523,0-1.523,2.338-1.522,1.522,0,1.378.011,1.567,2.463.148,1.925-1.08,1.31-1.912,1.4" transform="translate(-162.519 -62.358)"/>
    <path id="Path_6535" data-name="Path 6535" d="M202.922,185.853l2.046-5.264,1.97,5.264Z" transform="translate(-133.154 -118.5)" fill="#70aeff"/>
  </g>
</svg>
