<svg width="60" height="81" viewBox="0 0 60 81" fill="none" xmlns="http://www.w3.org/2000/svg">
<g clip-path="url(#clip0_310_110)">
<path d="M0.0161578 46.2375C0.0161578 38.686 0.0273975 31.1355 6.30203e-05 23.584C-0.0294558 23.2704 0.0417077 22.9553 0.200463 22.6975C0.359218 22.4396 0.594702 22.2568 0.862706 22.183C4.10747 20.9871 7.31515 19.6662 10.5229 18.347C11.679 17.8714 12.8544 17.4465 14.0137 16.9865C14.2208 16.9295 14.4021 16.7867 14.5225 16.5857C14.6429 16.3847 14.694 16.1398 14.6658 15.8983C14.6344 11.2905 14.6481 6.68179 14.6497 2.07309C14.6497 0.647245 14.7799 0.500061 16.0083 0.500061H34.1336C34.4198 0.483771 34.7058 0.534157 34.9745 0.648165C35.28 0.791669 35.3476 0.924134 35.4304 1.34545C35.9932 4.22473 35.5476 7.12518 35.6634 10.0091C35.6891 10.653 35.8451 10.7799 36.3669 10.7763C40.176 10.7523 43.986 10.7763 47.7952 10.756C48.928 10.7505 49.3412 10.9124 49.3428 12.5553C49.3536 21.6053 49.3514 30.6556 49.3364 39.7062C49.3157 39.961 49.3654 40.2168 49.4785 40.4376C49.5915 40.6584 49.7622 40.833 49.9666 40.937C52.0247 42.2525 54.0669 43.6047 56.1089 44.9505C57.1372 45.6267 58.1438 46.3479 59.1905 46.9826C59.4599 47.1327 59.682 47.3749 59.826 47.6756C59.9701 47.9763 60.0289 48.3208 59.9945 48.6614C59.98 54.408 59.9856 60.1546 59.9856 65.9012C59.9856 66.7338 59.947 67.5699 59.9968 68.3988C60.0515 68.7684 59.9883 69.1483 59.8188 69.4691C59.6492 69.7899 59.3846 70.0303 59.0731 70.1466C57.8093 70.7344 56.7119 71.6791 55.5052 72.3985C54.46 73.0222 53.463 73.8501 52.4187 74.4949C50.9378 75.4093 49.5904 76.5794 48.0372 77.3586C47.2067 77.7744 46.4879 78.4735 45.6711 78.9629C44.9965 79.3006 44.36 79.7303 43.7754 80.2425C43.6321 80.3936 43.4475 80.4832 43.2529 80.496C43.0584 80.5087 42.866 80.4438 42.7086 80.3124C40.9005 78.9325 38.8947 77.9363 37.0809 76.5822C35.8967 75.6991 34.6168 75.0184 33.4463 74.1343C32.6567 73.5325 31.8409 72.9768 31.0022 72.4693C29.7569 71.726 28.5597 70.8945 27.3296 70.1263C27.0315 70.0028 26.7109 69.9683 26.3979 70.0261C18.1724 70.023 9.94676 70.023 1.72123 70.0261C1.43019 70.0261 1.13921 70.0132 0.848181 70.0095C0.24843 70.0022 0.00966181 69.6839 0.0104658 68.9746C0.0254729 61.3959 0.0286589 53.8171 0.0200834 46.2384M16.4916 35.6595V58.565C16.4916 61.5915 16.5061 64.6171 16.4788 67.6435C16.474 68.2047 16.6195 68.3353 17.0818 68.3169C18.0755 68.2783 19.0731 68.2645 20.0652 68.3169C20.628 68.3491 20.7462 68.1329 20.7422 67.5249C20.7164 64.1663 20.7253 60.8096 20.7325 57.4474C20.7325 56.315 21.0082 56.0123 21.9842 56.0086C23.2705 56.0031 24.5569 55.9774 25.8432 56.0215C26.3754 56.0399 26.5458 55.8946 26.5345 55.2516C26.4959 53.1422 26.5395 51.032 26.5121 48.9217C26.4893 48.5644 26.5683 48.2081 26.7375 47.9066C26.9066 47.605 27.1569 47.3744 27.4504 47.2494C28.2945 46.7701 29.182 46.404 30.0077 45.8603C30.3702 45.6221 30.4152 45.1906 30.7794 44.9882C31.6356 44.5117 32.4196 43.866 33.2718 43.3784C33.4561 43.2976 33.6113 43.1481 33.7122 42.954C33.8132 42.7599 33.8539 42.5325 33.828 42.3086C33.8146 29.4821 33.8166 16.6556 33.8337 3.82918C33.8337 3.08498 33.6102 2.99299 33.0466 2.99483C27.8295 3.01813 22.6124 3.01813 17.3952 2.99483C16.6982 2.99023 16.4683 3.12637 16.4707 4.00672C16.5037 14.5561 16.4916 25.1065 16.4916 35.6559M14.6497 43.6875V20.6238C14.6497 20.4297 14.6424 20.2347 14.6497 20.0415C14.6706 19.5659 14.5613 19.3663 14.103 19.5815C13.5137 19.8575 12.897 20.0709 12.2973 20.311C9.10156 21.5814 5.91481 22.8821 2.70301 24.0973C2.57229 24.122 2.44702 24.1759 2.3346 24.2561C2.22217 24.3363 2.12472 24.4412 2.04783 24.5646C1.97095 24.6881 1.91624 24.8277 1.88669 24.9755C1.85714 25.1232 1.85337 25.2762 1.8757 25.4257C1.89446 39.1898 1.89864 52.954 1.88846 66.7181C1.92232 66.992 1.90907 67.2707 1.8492 67.5387C1.5654 68.2571 1.87733 68.3095 2.38543 68.3077C6.00323 68.2948 9.61286 68.3013 13.2274 68.3013C14.6472 68.3013 14.6481 68.3013 14.6481 66.6611V43.6875M35.6829 41.6122C35.9141 41.6124 36.138 41.5204 36.3162 41.3519C38.3318 40.0401 40.353 38.7403 42.3581 37.4101C42.6279 37.2291 42.9358 37.136 43.2486 37.1409C43.5613 37.1458 43.867 37.2484 44.1324 37.4377C45.0616 37.9822 45.9653 38.5816 46.8401 39.2334C47.4736 39.7218 47.4792 39.4008 47.4784 38.7918C47.472 30.5501 47.4744 22.3084 47.4856 14.0667C47.4856 13.4642 47.3795 13.2701 46.8167 13.2747C43.3485 13.3072 39.8803 13.3072 36.412 13.2747C35.7865 13.2673 35.6683 13.4854 35.6691 14.1569C35.6895 23.0646 35.6941 31.9723 35.6829 40.88V41.6122ZM44.1379 68.5331H44.1444C44.1444 71.3342 44.1445 74.1353 44.1485 76.9373C44.1485 77.2022 44.0287 77.5545 44.2522 77.7155C44.5199 77.9087 44.7345 77.5877 44.958 77.4395C49.1305 74.6798 53.2967 71.9156 57.4805 69.1834C57.6864 69.0837 57.8594 68.912 57.975 68.6929C58.0905 68.4739 58.1424 68.2186 58.1235 67.9637C58.1026 62.5832 58.1124 57.2008 58.1108 51.8213C58.1108 51.4653 58.2104 50.9934 57.9202 50.8149C57.593 50.6107 57.2441 50.8958 56.9313 51.1028C53.9253 53.0944 50.9017 55.0483 47.9271 57.0978C47.3313 57.5081 46.5427 57.4041 46.1093 57.9855C45.6182 58.5787 45.0329 59.0598 44.3848 59.4031C44.3001 59.4346 44.2279 59.4995 44.1811 59.5863C44.1343 59.673 44.1158 59.776 44.1291 59.8768C44.1532 62.7607 44.1436 65.6455 44.1436 68.5303M38.1542 56.8421C38.1542 58.9744 38.163 60.9724 38.1542 62.9695C38.147 64.1544 37.4386 64.6161 36.5567 64.0495C35.6353 63.4571 34.7246 62.8334 33.7727 62.3109C33.2786 62.1217 32.859 61.7384 32.5885 61.229C32.318 60.7196 32.214 60.117 32.2949 59.5282C32.4211 57.9588 32.3262 56.3665 32.3222 54.7833C32.3222 53.823 32.5634 52.7016 31.2585 52.5526C31.2401 52.5526 31.2256 52.5149 31.2063 52.4992C30.5125 51.9372 29.8397 51.3457 29.1162 50.8232C28.4199 50.3154 28.3925 50.3476 28.3925 51.2831C28.3925 56.6415 28.4239 62 28.3644 67.3574C28.3116 67.7981 28.3865 68.2463 28.5778 68.6335C28.769 69.0207 29.066 69.3253 29.4231 69.5008C29.9634 69.8191 30.4877 70.1871 31.0248 70.5256C33.6553 72.186 36.2384 73.9439 38.8392 75.6651C39.9792 76.4194 41.1216 77.1682 42.3573 77.9814V68.4328C42.3573 65.5731 42.3573 62.7135 42.3573 59.8538C42.3968 59.6015 42.349 59.3415 42.224 59.1288C42.099 58.9161 41.9067 58.7674 41.6876 58.7141C40.6701 58.4012 39.7053 57.8967 38.8327 57.2211C38.6157 57.0692 38.3869 56.9405 38.1493 56.8366M29.3058 48.4931C30.5736 49.3274 31.7177 50.0468 32.8303 50.8296C32.9826 50.9591 33.1671 51.0296 33.3568 51.0309C33.5465 51.0322 33.7315 50.9643 33.8851 50.837C38.1799 47.9816 42.4811 45.1382 46.7887 42.3067C47.2461 42.0069 47.136 41.8468 46.7783 41.6104C45.8328 40.9894 44.8697 40.3979 43.9564 39.7191C43.7456 39.5421 43.4901 39.4491 43.2288 39.4541C42.9674 39.459 42.7147 39.5618 42.5092 39.7467C40.111 41.3703 37.6855 42.9479 35.2736 44.543L29.3034 48.4931M57.1669 48.4829C55.8001 47.5814 54.5548 46.7572 53.3078 45.9293C53.0602 45.7656 52.8955 45.9781 52.7163 46.0958C51.29 47.0359 49.8685 47.9844 48.4431 48.9263C45.5719 50.8232 42.7011 52.7212 39.8304 54.6205C39.6085 54.7686 39.0048 54.9057 39.6793 55.3454C40.7244 56.028 41.7695 56.7087 42.8066 57.406C42.9421 57.5152 43.1042 57.5732 43.27 57.5719C43.4358 57.5705 43.597 57.51 43.7312 57.3986C45.1422 56.4557 46.4398 55.3215 47.9424 54.5166C49.8429 53.4982 51.6181 52.1727 53.4431 50.9704C54.649 50.1746 55.8548 49.3642 57.1684 48.4866M22.5921 63.1894C22.5921 64.6612 22.6074 66.1275 22.5832 67.5957C22.5752 68.1016 22.6515 68.3445 23.166 68.3178C24.109 68.2691 25.0552 68.281 25.9991 68.3178C26.4171 68.3325 26.5289 68.178 26.5265 67.7098C26.5099 64.7164 26.5099 61.7231 26.5265 58.7297C26.5265 58.2376 26.3827 58.129 25.9855 58.141C25.0417 58.1704 24.0953 58.1759 23.1515 58.141C22.7085 58.1244 22.5679 58.2652 22.5791 58.7849C22.6105 60.2567 22.5895 61.7221 22.5895 63.1912M51.2457 44.6249C50.6026 44.1787 50.0205 43.7574 49.4208 43.3784C49.2648 43.28 49.1152 43.1025 48.8443 43.3076C48.0339 43.9258 47.1857 44.4795 46.3408 45.037C44.3051 46.3791 42.2592 47.7047 40.2228 49.0441C38.6816 50.056 37.1493 51.0936 35.6073 52.1055C35.2994 52.3079 35.1732 52.4339 35.5808 52.6805C36.1066 52.9904 36.6165 53.3344 37.1082 53.7107C37.3229 53.8791 37.4297 53.7107 37.5551 53.639C37.9756 53.3934 38.4155 53.1634 38.8062 52.8828C41.7624 50.7597 44.8568 48.9089 47.8427 46.8455C48.9521 46.0792 50.0936 45.3737 51.2473 44.6258M34.1666 54.2066C34.1666 56.0721 34.1827 57.7022 34.1593 59.3322C34.1497 60.0442 34.2028 60.6265 34.9698 60.7581C35.2015 60.8201 35.4142 60.9527 35.5855 61.1417C35.7399 61.2962 35.8138 61.5768 36.0888 61.437C36.3637 61.2971 36.2754 61.0166 36.2762 60.782C36.2818 59.2053 36.2762 57.6295 36.2842 56.0528C36.2611 55.7604 36.1651 55.4817 36.0077 55.2497C35.5977 54.4218 34.743 54.9057 34.1666 54.2066Z" fill="#373737"/>
<path d="M16.4874 35.6579C16.4874 25.1085 16.4987 14.5582 16.4666 4.00875C16.4666 3.12564 16.694 2.9895 17.391 2.99686C22.6076 3.02997 27.8248 3.02997 33.0424 2.99686C33.6052 2.99686 33.8303 3.08885 33.8295 3.8312C33.807 16.6577 33.8053 29.4841 33.824 42.3106C33.8499 42.5345 33.809 42.7619 33.708 42.956C33.6071 43.1501 33.4519 43.2997 33.2676 43.3805C32.4154 43.868 31.6316 44.5138 30.7754 44.9903C30.4112 45.1936 30.3661 45.6241 30.0035 45.8623C29.177 46.4051 28.2895 46.7721 27.4454 47.2514C27.1519 47.3765 26.9019 47.6071 26.7327 47.9086C26.5635 48.2102 26.4843 48.5664 26.5072 48.9238C26.5345 51.0331 26.4911 53.1443 26.5297 55.2536C26.541 55.8975 26.3689 56.042 25.8382 56.0236C24.5519 55.9794 23.2656 56.0052 21.9792 56.0107C21.0032 56.0107 20.73 56.317 20.7276 57.4494C20.7203 60.8089 20.7107 64.1647 20.7364 67.5269C20.7412 68.1368 20.6222 68.3548 20.0594 68.3189C19.0673 68.2628 18.0697 68.2766 17.076 68.3189C16.6137 68.3373 16.4682 68.2067 16.473 67.6456C16.4996 64.62 16.4858 61.5936 16.4858 58.5671L16.4874 35.6579ZM19.799 41.1626C19.7017 41.1552 19.6615 41.2049 19.6832 41.3153C19.6832 41.3705 19.6775 41.4266 19.6775 41.4818C19.663 43.2885 19.6638 43.2885 21.2612 43.2885C22.6087 43.2885 22.5919 43.2885 22.5783 41.7485C22.5742 41.2886 22.4769 41.1129 22.0532 41.1359C21.3031 41.1773 20.5506 41.1571 19.8021 41.1626M30.0123 41.3226L30.1 41.1984L29.9931 41.1791C29.1698 41.1681 28.3465 41.1525 27.5241 41.1506C27.348 41.1506 27.0972 41.0687 27.0964 41.4192C27.0244 41.9927 27.0473 42.5766 27.1639 43.1404C27.299 43.5083 27.8731 43.2765 28.247 43.2774C28.7969 43.2774 29.493 43.5534 29.8596 43.1569C30.2262 42.7604 29.8965 41.9436 30.0123 41.3226ZM21.1223 9.50975C20.8333 9.5277 20.5435 9.52525 20.2547 9.50239C19.7522 9.43064 19.6623 9.69465 19.6655 10.2098C19.6743 11.6504 19.6558 11.6504 20.9083 11.6504C21.2701 11.6504 21.632 11.6228 21.993 11.6577C22.4134 11.6982 22.5798 11.574 22.5798 11.0331C22.5798 9.50975 22.6047 9.50975 21.2661 9.50975H21.1223ZM28.5838 9.50975C27.0852 9.50975 27.1223 9.50975 27.074 10.8068C27.0483 11.4967 27.2186 11.746 27.8256 11.6614C28.2331 11.6019 28.6457 11.6019 29.0533 11.6614C29.8026 11.7764 30.0543 11.4774 29.9964 10.5989C29.916 9.34416 30.1234 9.52998 29.018 9.50975C28.8732 9.50975 28.7285 9.50975 28.5838 9.50975ZM21.1005 35.3497C22.5669 35.3497 22.575 35.3497 22.5653 34.3489C22.5524 33.0555 22.7407 33.245 21.5653 33.222C21.2517 33.2165 20.9382 33.222 20.6255 33.222C19.4758 33.2349 19.7346 33.13 19.6437 34.3185C19.5738 35.2265 19.8769 35.4822 20.5949 35.3543C20.7632 35.3395 20.9322 35.3395 21.1005 35.3543M22.5533 27.4735C22.5013 27.2442 22.4604 27.0117 22.4311 26.7772C22.3322 25.3283 22.3346 25.3283 21.0644 25.3283H20.9919C19.5392 25.3283 19.5448 25.3283 19.6525 26.9786C19.6742 27.3144 19.7387 27.4846 20.0643 27.4781C20.882 27.4625 21.7004 27.4726 22.5518 27.4726M28.554 27.4726C28.9157 27.4726 29.2776 27.4809 29.6394 27.4726C29.7889 27.4671 29.9375 27.5159 29.9287 27.1783C29.8821 25.3339 29.8965 25.3329 28.2782 25.3329C28.1581 25.3458 28.0373 25.3458 27.9172 25.3329C27.1937 25.1738 27.0329 25.5372 27.0715 26.3145C27.1326 27.4781 27.0868 27.4818 28.1166 27.4818C28.2614 27.4818 28.4061 27.4818 28.5508 27.4818M28.5025 35.3635C29.8492 35.3635 29.8492 35.3635 29.8492 34.4758C29.8492 33.2349 29.8493 33.2349 28.7326 33.2349C28.4667 33.2565 28.1996 33.254 27.9341 33.2275C27.225 33.096 27.0225 33.4115 27.0675 34.2155C27.1327 35.3598 27.0836 35.3635 28.066 35.3644H28.5017M21.054 19.533C21.3683 19.533 21.6842 19.5063 21.9953 19.5394C22.4182 19.5836 22.5814 19.4474 22.5814 18.9102C22.5814 17.4384 22.6064 17.4384 21.3562 17.4384C21.0911 17.4581 20.8252 17.4559 20.5603 17.4319C19.8577 17.3133 19.5786 17.5589 19.6429 18.4438C19.7233 19.5284 19.6615 19.5339 20.6198 19.5339H21.0548M28.4721 19.5339C29.9192 19.5339 29.9031 19.5339 29.8661 17.9599C29.8572 17.5727 29.7801 17.4172 29.428 17.4374C28.9713 17.4641 28.5131 17.443 28.0556 17.4439C27.0909 17.4439 27.1431 17.4439 27.0748 18.5202C27.0217 19.3481 27.2306 19.6921 27.9679 19.5394C28.1357 19.5209 28.3048 19.5194 28.4729 19.5348" fill="#889EA0"/>
<path d="M14.6488 43.6859V66.6632C14.6488 68.3034 14.6487 68.3033 13.2281 68.3033C9.61031 68.3033 5.99987 68.2978 2.38609 68.3098C1.87799 68.3098 1.56526 68.2592 1.84986 67.5408C1.90973 67.2728 1.92298 66.994 1.88912 66.7202C1.88912 52.9561 1.88493 39.1916 1.87636 25.4268C1.85414 25.2774 1.85795 25.1245 1.88754 24.9767C1.91714 24.829 1.97182 24.6894 2.04869 24.566C2.12556 24.4426 2.22308 24.3377 2.33545 24.2575C2.44783 24.1773 2.5728 24.1232 2.70347 24.0985C5.91528 22.8833 9.10222 21.5826 12.2979 20.3122C12.9009 20.073 13.5136 19.8605 14.1029 19.5827C14.5612 19.3665 14.6705 19.568 14.6496 20.0427C14.6407 20.2368 14.6496 20.4308 14.6496 20.6249L14.6488 43.6859Z" fill="#FFE0BC"/>
<path d="M35.6844 41.6094V40.8735C35.6844 31.9658 35.6798 23.0581 35.6707 14.1504C35.6707 13.4789 35.7881 13.2618 36.4136 13.2682C39.8813 13.3056 43.3495 13.3056 46.8183 13.2682C47.381 13.2627 47.4888 13.4577 47.4872 14.0602C47.47 22.3019 47.4676 30.5436 47.4799 38.7853C47.4799 39.3934 47.4751 39.7153 46.8416 39.2269C45.9668 38.5751 45.0631 37.9757 44.134 37.4312C43.8686 37.2418 43.5629 37.1391 43.2501 37.1342C42.9374 37.1294 42.6294 37.2225 42.3596 37.4036C40.3538 38.7347 38.3327 40.0336 36.318 41.3454C36.14 41.5137 35.9161 41.6058 35.6852 41.6057" fill="#FFE0BC"/>
<path d="M44.1346 68.5329C44.1346 65.6481 44.1442 62.7633 44.1201 59.8794C44.1068 59.7786 44.1253 59.6756 44.1721 59.5888C44.2189 59.5021 44.2911 59.4372 44.3758 59.4056C45.0239 59.0627 45.6091 58.5819 46.1003 57.989C46.5337 57.4076 47.3223 57.5116 47.9181 57.1013C50.8927 55.0518 53.9188 53.0979 56.9223 51.1063C57.2351 50.8993 57.5848 50.6142 57.9112 50.8184C58.2006 51.0024 58.1018 51.4678 58.1018 51.8247C58.1018 57.2052 58.0936 62.5876 58.1145 67.9671C58.1335 68.2221 58.0817 68.4774 57.9661 68.6965C57.8506 68.9156 57.6775 69.0873 57.4715 69.1869C53.291 71.919 49.1215 74.6879 44.949 77.443C44.7287 77.5884 44.5117 77.9103 44.2432 77.719C44.0197 77.558 44.1403 77.2057 44.1403 76.9408C44.1331 74.1397 44.1354 71.3386 44.1354 68.5366L44.1346 68.5329Z" fill="#CFD8D9"/>
<path d="M38.1541 56.8394C38.3917 56.9434 38.6205 57.0721 38.8376 57.2239C39.7102 57.8994 40.6748 58.4039 41.6922 58.7169C41.9115 58.77 42.104 58.9187 42.2291 59.1315C42.3541 59.3442 42.4017 59.6043 42.3619 59.8567C42.3577 62.7163 42.3577 65.576 42.3619 68.4356V77.975C41.1263 77.1618 39.9839 76.4112 38.8438 75.6587C36.2422 73.9376 33.6592 72.1805 31.0294 70.5192C30.4932 70.1807 29.9682 69.8137 29.428 69.4944C29.0708 69.319 28.7739 69.0143 28.5826 68.6271C28.3914 68.24 28.3164 67.7917 28.3693 67.3511C28.4288 61.9936 28.3957 56.6352 28.3973 51.2768C28.3973 50.3421 28.4222 50.3099 29.1208 50.8168C29.8363 51.3393 30.5141 51.9308 31.2112 52.4929C31.2305 52.5085 31.2449 52.5434 31.2634 52.5462C32.5706 52.6952 32.3254 53.8166 32.327 54.777C32.327 56.3592 32.426 57.9525 32.299 59.5218C32.2181 60.1108 32.3221 60.7135 32.5928 61.2229C32.8634 61.7323 33.2831 62.1155 33.7773 62.3045C34.7292 62.827 35.6394 63.4498 36.5615 64.0431C37.4459 64.6107 38.1518 64.1489 38.159 62.9641C38.1711 60.967 38.159 58.9689 38.159 56.8366M30.1444 66.6943C30.1018 67.2462 30.4706 67.5222 30.8557 67.7807C31.9451 68.5055 33.0475 69.2047 34.1232 69.9535C34.6859 70.3472 35.0574 70.0032 35.3629 69.5662C35.4423 69.4664 35.5006 69.347 35.5332 69.2173C35.5658 69.0875 35.5719 68.951 35.5509 68.8181C35.5299 68.6853 35.4824 68.5598 35.4121 68.4513C35.3419 68.3429 35.2507 68.2544 35.1458 68.1928C33.9318 67.3308 32.6952 66.5038 31.4338 65.7385C31.2955 65.6548 31.1402 65.6149 30.9839 65.6229C30.8276 65.631 30.6762 65.6867 30.545 65.7842C30.4138 65.8818 30.3077 66.0177 30.2378 66.1778C30.168 66.338 30.1368 66.5166 30.1475 66.6952" fill="#CFD8D9"/>
<path d="M29.3088 48.4958C31.3887 47.1159 33.3335 45.828 35.279 44.5457C37.6909 42.9506 40.114 41.373 42.5146 39.7494C42.7201 39.5645 42.9729 39.4617 43.2342 39.4567C43.4955 39.4517 43.7511 39.5448 43.9618 39.7217C44.8751 40.4006 45.8382 40.9912 46.7845 41.6131C47.1422 41.8476 47.2515 42.0095 46.7941 42.3094C42.486 45.1384 38.185 47.9815 33.8913 50.8387C33.7378 50.9662 33.5529 51.0343 33.3632 51.0331C33.1735 51.032 32.9891 50.9616 32.8367 50.8323C31.7257 50.0495 30.5808 49.3292 29.3122 48.4948" fill="#CFD8D9"/>
<path d="M57.1734 48.4857C55.8557 49.3651 54.6562 50.1764 53.4478 50.9694C51.6229 52.1717 49.8477 53.4973 47.9471 54.5156C46.4445 55.3205 45.1477 56.4548 43.736 57.3977C43.6018 57.5091 43.4405 57.5698 43.2747 57.5711C43.1089 57.5724 42.947 57.5144 42.8115 57.405C41.7744 56.7077 40.7284 56.0252 39.6832 55.3444C39.0095 54.9047 39.6125 54.7677 39.8352 54.6196C42.701 52.7129 45.5718 50.8149 48.4473 48.9254C49.8727 47.9843 51.2948 47.035 52.7202 46.0948C52.8995 45.9771 53.0652 45.7646 53.312 45.9283C54.5605 46.7563 55.8097 47.5842 57.1708 48.482" fill="#CFD8D9"/>
<path d="M22.5889 63.1877C22.5889 61.7158 22.6088 60.2495 22.5783 58.7814C22.567 58.2598 22.7086 58.1181 23.1508 58.1374C24.0946 58.1733 25.0408 58.1678 25.9847 58.1374C26.381 58.1255 26.529 58.2294 26.5258 58.7262C26.506 61.7189 26.506 64.712 26.5258 67.7053C26.5258 68.1735 26.4157 68.3281 25.9984 68.3134C25.0546 68.2803 24.1076 68.2683 23.1653 68.3134C22.6508 68.3401 22.5743 68.0972 22.5824 67.5913C22.6065 66.1194 22.5904 64.654 22.5904 63.1849" fill="#FFB158"/>
<path d="M51.2448 44.6213C50.0919 45.371 48.9494 46.0748 47.84 46.841C44.8541 48.9044 41.7597 50.7552 38.8043 52.8783C38.4128 53.1589 37.9739 53.3889 37.5534 53.6345C37.4272 53.709 37.3212 53.8746 37.1065 53.7063C36.6148 53.33 36.1047 52.986 35.5789 52.676C35.1713 52.4304 35.2975 52.308 35.6054 52.101C37.1482 51.0891 38.6797 50.0543 40.2209 49.0396C42.2573 47.6993 44.3026 46.3719 46.339 45.0325C47.184 44.476 48.0322 43.9213 48.8426 43.3031C49.1135 43.097 49.2631 43.2755 49.419 43.3739C50.0188 43.7539 50.5985 44.1743 51.244 44.6204" fill="#FFB158"/>
<path d="M34.164 54.2012C34.7396 54.9003 35.5943 54.4128 36.0043 55.2443C36.1616 55.4763 36.2576 55.755 36.2809 56.0474C36.2696 57.6241 36.2809 59.1999 36.2728 60.7766C36.2728 61.0112 36.3533 61.2954 36.0856 61.4316C35.8178 61.5677 35.7367 61.2908 35.5823 61.1363C35.411 60.9472 35.1981 60.8147 34.9664 60.7527C34.1994 60.6212 34.1455 60.0388 34.156 59.3268C34.1793 57.6968 34.164 56.0667 34.164 54.2012Z" fill="#FFB158"/>
<path d="M21.1223 9.50969H21.2669C22.6063 9.50969 22.5814 9.50969 22.5806 11.033C22.5806 11.573 22.4142 11.6981 21.9937 11.6577C21.6344 11.6236 21.2703 11.6503 20.9093 11.6503C19.6559 11.6503 19.6751 11.6503 19.6663 10.2097C19.6663 9.69459 19.7532 9.43058 20.2557 9.50233C20.5444 9.52519 20.8332 9.52765 21.1223 9.50969Z" fill="#373737"/>
<path d="M28.5838 9.50977C28.7285 9.50977 28.8732 9.50977 29.0179 9.50977C30.1234 9.53 29.9144 9.34419 29.9964 10.5989C30.0534 11.4765 29.8025 11.7764 29.0532 11.6614C28.6457 11.6019 28.2333 11.6019 27.8257 11.6614C27.2195 11.747 27.0491 11.4967 27.074 10.8068C27.1222 9.51161 27.086 9.50977 28.5838 9.50977Z" fill="#373737"/>
<path d="M30.0124 41.3225C29.8966 41.9435 30.2311 42.7557 29.8597 43.1568C29.4883 43.5579 28.7968 43.2773 28.2469 43.2773C27.8731 43.2773 27.2999 43.5064 27.164 43.1402C27.0473 42.5765 27.0244 41.9926 27.0965 41.4191C27.0965 41.0677 27.3481 41.1496 27.5242 41.1505C28.3474 41.1505 29.1707 41.1689 29.9932 41.179C29.9923 41.2277 29.9993 41.2762 30.0124 41.3225Z" fill="#373737"/>
<path d="M21.1015 35.3458C20.9332 35.3311 20.764 35.3311 20.5957 35.3458C19.877 35.4746 19.574 35.2179 19.644 34.31C19.7348 33.1242 19.4759 33.2263 20.6255 33.2135C20.9391 33.2135 21.2526 33.2089 21.5653 33.2135C22.7407 33.2328 22.5519 33.047 22.5656 34.3404C22.576 35.3412 22.5655 35.3412 21.1007 35.3412" fill="#373737"/>
<path d="M19.7993 41.1625C20.551 41.157 21.3033 41.1772 22.0502 41.1358C22.4739 41.1128 22.5704 41.2857 22.5752 41.7484C22.5889 43.2884 22.6066 43.2884 21.2584 43.2884C19.6601 43.2884 19.6602 43.2884 19.6738 41.4817C19.6738 41.4265 19.6737 41.3704 19.6793 41.3152L19.7951 41.1625" fill="#373737"/>
<path d="M22.5541 27.47C21.7019 27.47 20.8843 27.4598 20.0659 27.4755C19.7443 27.4819 19.675 27.3117 19.6541 26.976C19.5496 25.3248 19.5407 25.3257 20.9935 25.3257H21.0667C22.3362 25.3257 22.3337 25.3257 22.4334 26.7745C22.4627 27.0091 22.5036 27.2416 22.5557 27.4709" fill="#373737"/>
<path d="M28.5555 27.4696H28.1213C27.0883 27.4696 27.1342 27.4696 27.0764 26.3023C27.0354 25.525 27.201 25.1607 27.9221 25.3207C28.0422 25.3335 28.163 25.3335 28.2831 25.3207C29.9014 25.3207 29.887 25.3207 29.9328 27.1661C29.9408 27.5037 29.7928 27.4549 29.6433 27.4604C29.2823 27.4733 28.9198 27.4604 28.5581 27.4669" fill="#373737"/>
<path d="M28.5083 35.3494H28.0725C27.0901 35.3494 27.1392 35.3494 27.0741 34.2004C27.0282 33.3973 27.2348 33.0809 27.9406 33.2124C28.2062 33.239 28.4732 33.2414 28.7391 33.2198C29.8574 33.2198 29.8573 33.2198 29.8557 34.4608C29.8557 35.3485 29.8557 35.3485 28.5091 35.3485" fill="#373737"/>
<path d="M21.054 19.5329H20.619C19.6607 19.5329 19.7217 19.5264 19.6421 18.4428C19.5778 17.5625 19.8569 17.3168 20.5596 17.4309C20.8244 17.4552 21.0903 17.4576 21.3555 17.4383C22.6048 17.4383 22.5798 17.4383 22.5806 18.9101C22.5806 19.4464 22.4198 19.5835 21.9945 19.5393C21.6834 19.5071 21.3675 19.5329 21.054 19.5329Z" fill="#373737"/>
<path d="M28.4705 19.5327C28.3024 19.5173 28.1335 19.5188 27.9656 19.5373C27.2284 19.6909 27.0193 19.3478 27.0724 18.519C27.1407 17.4464 27.0892 17.4427 28.0532 17.4418C28.5106 17.4418 28.9689 17.4629 29.4256 17.4353C29.7777 17.4151 29.8548 17.5706 29.8636 17.9578C29.9006 19.5327 29.9144 19.5318 28.4697 19.5318" fill="#373737"/>
<path d="M19.799 41.1623L19.6832 41.315C19.6623 41.2046 19.7017 41.155 19.799 41.1623Z" fill="#373737"/>
<path d="M30.0124 41.3222C29.9993 41.2759 29.9931 41.2274 29.994 41.1787L30.101 41.198L30.0124 41.3222Z" fill="#373737"/>
<path d="M30.1386 66.6978C30.1279 66.5192 30.1592 66.3406 30.2291 66.1804C30.2989 66.0203 30.4049 65.8844 30.5361 65.7868C30.6672 65.6893 30.8188 65.6336 30.9751 65.6255C31.1314 65.6175 31.2867 65.6574 31.425 65.7411C32.6864 66.5074 33.9236 67.3334 35.1368 68.1954C35.2418 68.257 35.3329 68.3454 35.4032 68.4539C35.4734 68.5623 35.5209 68.6879 35.5419 68.8207C35.5629 68.9535 35.5569 69.0901 35.5243 69.2199C35.4917 69.3496 35.4334 69.469 35.3539 69.5688C35.0476 70.0066 34.6802 70.3498 34.1142 69.9561C33.0377 69.2073 31.9355 68.5081 30.847 67.7833C30.4611 67.5266 30.0928 67.2479 30.1355 66.6969" fill="#373737"/>
</g>
<defs>
<clipPath id="clip0_310_110">
<rect width="60" height="80" fill="white" transform="translate(0 0.5)"/>
</clipPath>
</defs>
</svg>
