<svg xmlns="http://www.w3.org/2000/svg" width="86.954" height="86.966" viewBox="0 0 86.954 86.966">
  <g id="Group_187" data-name="Group 187" transform="translate(5482.309 -1907.051)">
    <path id="Path_4854" data-name="Path 4854" d="M959.691,82.43v-56.9a1.407,1.407,0,0,1,1.524-.71,1.1,1.1,0,0,1,1.224,1,6.544,6.544,0,0,1,.145,1.23q0,27.129,0,54.258a2.327,2.327,0,0,0,.131.894,2.907,2.907,0,0,0,3.065,1.934q28.865-.021,57.729-.009,8.574,0,17.149.005a2.9,2.9,0,0,0,2.85-1.907,9.232,9.232,0,0,0,.234-2.4q.017-31.8.009-63.6c0-1.688,0-1.688-1.741-1.688H963.734a3.457,3.457,0,0,1-.509,0c-.545-.081-.67.172-.651.675.035.961-.054,1.93.026,2.885a2.131,2.131,0,0,1-1.385,2.376c-.731-.025-1.115-.555-1.524-1.049V4.637A6.316,6.316,0,0,1,963.016.563c.469-.2,1.037-.111,1.43-.512h77.44c.314.428.846.32,1.26.511a5.9,5.9,0,0,1,3.487,5.856q.023,34.855,0,69.71a55.137,55.137,0,0,1-.131,5.909,5.677,5.677,0,0,1-5.325,4.952q-38.2.059-76.4.023a2.69,2.69,0,0,1-.727-.114,6.243,6.243,0,0,1-4.352-4.468m43.473-79.49q-18.678,0-37.357,0a2.936,2.936,0,0,0-3.225,3.214c-.007,1.415,0,2.831,0,4.246,0,1.216,0,1.216,1.255,1.216h77.771a3.784,3.784,0,0,1,1.1.04c.82.258,1.079-.025,1.059-.837-.035-1.443-.009-2.887-.01-4.331,0-2.5-1.053-3.551-3.571-3.551h-37.018" transform="translate(-6442 1907)" fill="#373737"/>
    <path id="Path_4855" data-name="Path 4855" d="M966.4,74.07V69.714a2.131,2.131,0,0,0,1.385-2.376c-.08-.955.009-1.924-.026-2.885-.018-.5.106-.757.651-.675a3.487,3.487,0,0,0,.509,0H1047.2c1.741,0,1.741,0,1.741,1.688q0,31.8-.009,63.6a9.234,9.234,0,0,1-.234,2.4,2.9,2.9,0,0,1-2.85,1.907q-8.574,0-17.149-.005-28.865,0-57.729.009a2.907,2.907,0,0,1-3.065-1.934,2.323,2.323,0,0,1-.132-.894q0-27.129,0-54.258a6.534,6.534,0,0,0-.145-1.23,1.1,1.1,0,0,0-1.223-1m46.02,34.553c-.214.119-.431.232-.641.357-.766.456-.636,1.276-.514,1.882a1.132,1.132,0,0,0,1.348.788,14.652,14.652,0,0,1,2.2-.019c2.121,0,4.242.008,6.362,0a1.573,1.573,0,0,0,1.607-1.3,1.292,1.292,0,0,0-1.114-1.54,2.782,2.782,0,0,0-.757-.05q-4.071-.014-8.143-.02c-.07-.207-.16-.338-.352-.1m30.92,14.6c.95-.39,1.309-.9,1.18-1.667a1.593,1.593,0,0,0-1.669-1.235q-15.185,0-30.371,0a1.1,1.1,0,0,0-.762.255,1.613,1.613,0,0,0-.41,1.852c.168.616.754.791,1.393.789q7.042-.016,14.083,0,8.1.006,16.2.02c.128.344.243.263.353-.011m-34.988-55.064v-.006H981.272c-2.519,0-5.04-.072-7.555.022-2.168.081-3,1.023-3.031,2.693-.079,4.952-.017,9.906-.01,14.86a2.434,2.434,0,0,0,.3,1.177c.7,1.3,1.843,1.534,3.192,1.534q33.792-.025,67.583-.012a3.8,3.8,0,0,1,.763.01,3.151,3.151,0,0,0,3.538-3.184c-.034-4.444,0-8.888-.023-13.332a6.033,6.033,0,0,0-.3-1.957,2.826,2.826,0,0,0-2.993-1.8q-17.193-.022-34.386-.009M989.5,129.005h4.16c3.821,0,7.641.01,11.462-.012a2.756,2.756,0,0,0,1.538-.248,3.356,3.356,0,0,0,1.708-3.181c-.015-10.247,0-20.494-.013-30.74,0-2.269-1.15-3.514-3.472-3.5-2.462.015-4.925,0-7.386,0q-11.717,0-23.433,0c-1.846,0-2.806.621-3.315,2.125a5.582,5.582,0,0,0-.07,1.844q0,15.582,0,31.165a1.887,1.887,0,0,0,.275,1.009,2.964,2.964,0,0,0,2.838,1.546c5.235-.029,10.471-.012,15.707-.012m31.815-29v.042c1.951,0,3.9-.008,5.852,0a4.19,4.19,0,0,0,3.613-2.028,4.064,4.064,0,0,0,.229-4.339,4.346,4.346,0,0,0-4.128-2.345c-3.675-.016-7.35-.01-11.024,0a4.541,4.541,0,0,0-2.415.549,4.26,4.26,0,0,0-2.214,4.226c.112,1.651,1.743,3.871,3.815,3.89,2.091.019,4.182,0,6.273,0m6.371,17.418h1.273q6.918,0,13.836,0c1.181,0,1.892-.722,1.735-1.728-.114-.729-.808-1.163-1.875-1.163h-29.539c-.141,0-.283-.006-.424,0-1.1.08-1.46.544-1.449,1.879,0,.523.716,1.008,1.5,1.009q7.47,0,14.939,0m.2-14.474h-10.441c-1.585,0-3.17-.016-4.754.012a1.327,1.327,0,0,0-1.439,1.553c.028.911.525,1.329,1.629,1.329q14.9.005,29.795,0a3.343,3.343,0,0,0,.593-.021,1.5,1.5,0,0,0,.994-2.328,1.728,1.728,0,0,0-1.522-.55q-7.427.011-14.855,0M1021.924,129c2.437.082,5.4-.127,8.363.1a.572.572,0,0,0,.436-.186,1.557,1.557,0,0,0,.675-1.84,1.66,1.66,0,0,0-1.71-.982c-5.235.02-10.472.01-15.708.01-.453,0-.908-.026-1.358.015a1.322,1.322,0,0,0-1.371,1.526c.032.861.573,1.348,1.571,1.352,2.859.011,5.717,0,9.1,0m13.038-17.376v0h2.119c1.949,0,3.9.009,5.849,0a1.571,1.571,0,0,0,1.6-1.307c.091-.811-.236-1.283-1.121-1.532a3.165,3.165,0,0,0-.841-.049q-7.417,0-14.834,0a6.126,6.126,0,0,0-.677.011,1.436,1.436,0,0,0-1.376,1.556,1.317,1.317,0,0,0,1.486,1.321c2.6.007,5.2,0,7.8,0" transform="translate(-6447.189 1857.75)" fill="#cfd8d9"/>
    <path id="Path_4856" data-name="Path 4856" d="M1012.995,12.779h37.018c2.518,0,3.57,1.047,3.571,3.551,0,1.444-.025,2.888.01,4.33.02.813-.239,1.095-1.059.837a3.783,3.783,0,0,0-1.1-.039H973.665c-1.254,0-1.254,0-1.255-1.216,0-1.415-.005-2.831,0-4.246a2.937,2.937,0,0,1,3.225-3.214q18.678-.006,37.357,0m31.9,5.785c1.386,0,2.772.009,4.158,0a1.473,1.473,0,0,0,1.628-1.457,1.511,1.511,0,0,0-1.6-1.423q-4.2-.025-8.4,0a1.394,1.394,0,0,0-1.55,1.433c-.005.913.558,1.434,1.6,1.444,1.386.013,2.772,0,4.158,0m-67.586,0c.344,0,.569.008.794,0,.96-.042,1.435-.5,1.442-1.375a1.307,1.307,0,0,0-1.4-1.5c-.534-.024-1.07-.014-1.6.015a1.23,1.23,0,0,0-1.182.924,1.426,1.426,0,0,0,.343,1.48,1.912,1.912,0,0,0,1.61.463m7.377,0c.2,0,.394,0,.59,0,1-.025,1.553-.5,1.588-1.362a1.419,1.419,0,0,0-1.534-1.522c-.392-.02-.788-.019-1.18,0a1.455,1.455,0,0,0-1.555,1.515c.03.85.6,1.343,1.584,1.37.168,0,.337,0,.506,0m7.3-.009c.293,0,.577.022.857,0a1.373,1.373,0,0,0,1.3-1.484,1.269,1.269,0,0,0-1.4-1.233c-.592,0-1.185-.022-1.776.007a1.26,1.26,0,0,0-1.025,1.9,1.87,1.87,0,0,0,2.048.811" transform="translate(-6451.831 1897.161)" fill="#889ea0"/>
    <path id="Path_4857" data-name="Path 4857" d="M1022.8,83q17.193,0,34.386.008a2.826,2.826,0,0,1,2.993,1.8,6.037,6.037,0,0,1,.3,1.956c.024,4.444-.01,8.888.023,13.332a3.151,3.151,0,0,1-3.538,3.184,3.777,3.777,0,0,0-.762-.01q-33.792,0-67.584.011c-1.348,0-2.493-.23-3.191-1.533a2.431,2.431,0,0,1-.3-1.177c-.007-4.954-.07-9.908.01-14.86.026-1.67.863-2.612,3.031-2.693,2.515-.094,5.037-.022,7.556-.022H1022.8Zm-26.3,2.888-.016.11c.472.131.939.289,1.417.39,4.421.936,8.848,1.849,13.266,2.8,2.949.632,5.878,1.364,8.835,1.951,3.332.661,6.634,1.454,9.969,2.1,4.884.953,9.728,2.116,14.593,3.168,4.031.871,8.077,1.672,12.1,2.592.888.2.94-.084.937-.782-.017-3.763-.037-7.526.015-11.289.012-.858-.2-1.062-1.061-1.061q-29.575.041-59.151.021Zm52.34,14.48a1.884,1.884,0,0,0-.344-.21q-4.788-1.027-9.577-2.047-8.959-1.926-17.916-3.861c-1.612-.348-3.222-.708-4.837-1.045-2.254-.469-4.515-.9-6.766-1.386-2.215-.475-4.416-1.016-6.632-1.485-2.571-.545-5.155-1.035-7.729-1.566-1.95-.4-3.9-.813-5.839-1.252-1.14-.258-1.2-.243-1.2.82,0,3.679.028,7.359-.021,11.037-.011.839.234,1.013,1.036,1.012q29.415-.035,58.83-.018Zm.493.052c-.039-.073-.06-.155-.09-.159a.717.717,0,0,0-.215.034c.021.046.033.126.063.132a.971.971,0,0,0,.243-.007" transform="translate(-6461.633 1842.902)" fill="#373737"/>
    <path id="Path_4858" data-name="Path 4858" d="M1003.888,222.868c-5.236,0-10.472-.017-15.707.012a2.964,2.964,0,0,1-2.838-1.546,1.891,1.891,0,0,1-.275-1.009q.006-15.582,0-31.165a5.579,5.579,0,0,1,.07-1.844c.509-1.5,1.468-2.124,3.314-2.124q11.717-.005,23.434,0c2.462,0,4.924.012,7.387,0,2.323-.014,3.47,1.23,3.472,3.5.011,10.247,0,20.494.013,30.74a3.356,3.356,0,0,1-1.708,3.181,2.753,2.753,0,0,1-1.538.248c-3.821.021-7.641.012-11.462.012h-4.16m-13.569-34.762,29.515,29.475c.093-.164.017-.449.017-.718.005-9.25-.007-18.5.024-27.751,0-.815-.194-1.028-1.017-1.026-9.249.031-18.5.02-27.746.02h-.793m-2.31,2.37c-.136.108-.05.322-.05.5q-.008,14.136-.018,28.272c0,.637.242.728.791.727q14.134-.02,28.267-.016c.193,0,.454.131.482.069l-29.472-29.555" transform="translate(-6461.582 1763.887)" fill="#373737"/>
    <path id="Path_4859" data-name="Path 4859" d="M1173.893,193.86c-2.091,0-4.182.015-6.274,0-2.072-.019-3.7-2.239-3.815-3.89a4.26,4.26,0,0,1,2.214-4.226,4.541,4.541,0,0,1,2.415-.549c3.675-.009,7.35-.015,11.024,0a4.345,4.345,0,0,1,4.129,2.345,4.064,4.064,0,0,1-.228,4.339,4.19,4.19,0,0,1-3.613,2.028c-1.951-.01-3.9,0-5.852,0Zm.122-5.742c-1.866,0-3.732-.009-5.6,0-1.038.007-1.682.54-1.705,1.364a1.5,1.5,0,0,0,1.679,1.514q5.6.039,11.194,0a1.371,1.371,0,0,0,1.561-1.487c-.012-.936-.514-1.385-1.619-1.393-1.837-.013-3.675,0-5.513,0" transform="translate(-6599.772 1763.891)" fill="#373737"/>
    <path id="Path_4860" data-name="Path 4860" d="M1195.537,315.826q-8.1-.011-16.2-.02-7.041-.005-14.083,0c-.64,0-1.225-.174-1.394-.789a1.613,1.613,0,0,1,.41-1.852,1.1,1.1,0,0,1,.762-.255q15.185.006,30.371,0a1.593,1.593,0,0,1,1.669,1.236c.128.771-.23,1.277-1.18,1.667l-.353.011" transform="translate(-6599.735 1665.154)" fill="#373737"/>
    <path id="Path_4861" data-name="Path 4861" d="M1180.366,290.285q-7.47,0-14.939,0c-.788,0-1.5-.486-1.5-1.009-.01-1.335.347-1.8,1.449-1.878.141-.01.283,0,.424,0h29.539c1.067,0,1.761.434,1.875,1.163.157,1.006-.554,1.726-1.735,1.728q-6.918.008-13.836,0h-1.273" transform="translate(-6599.875 1684.882)" fill="#373737"/>
    <path id="Path_4862" data-name="Path 4862" d="M1180.613,236.365q7.428,0,14.855,0a1.727,1.727,0,0,1,1.522.551,1.5,1.5,0,0,1-.994,2.328,3.343,3.343,0,0,1-.593.021q-14.9,0-29.795,0c-1.1,0-1.6-.418-1.629-1.329a1.327,1.327,0,0,1,1.439-1.553c1.584-.027,3.169-.011,4.753-.012h10.441" transform="translate(-6599.917 1724.329)" fill="#373737"/>
    <path id="Path_4863" data-name="Path 4863" d="M1174.65,341.281c-3.385,0-6.244.007-9.1,0-1,0-1.538-.491-1.571-1.352a1.322,1.322,0,0,1,1.371-1.526c.449-.041.9-.015,1.358-.015,5.236,0,10.472.009,15.708-.011a1.66,1.66,0,0,1,1.71.982,1.557,1.557,0,0,1-.674,1.84.57.57,0,0,1-.436.186c-2.961-.227-5.927-.017-8.363-.1" transform="translate(-6599.914 1645.472)" fill="#373737"/>
    <path id="Path_4864" data-name="Path 4864" d="M1236.816,264.779c-2.6,0-5.2,0-7.8,0a1.318,1.318,0,0,1-1.487-1.321,1.436,1.436,0,0,1,1.376-1.556,6.124,6.124,0,0,1,.677-.011q7.417,0,14.834,0a3.164,3.164,0,0,1,.841.049c.885.249,1.212.721,1.121,1.532a1.571,1.571,0,0,1-1.6,1.307c-1.95.014-3.9,0-5.849,0h-2.119Z" transform="translate(-6649.043 1704.599)" fill="#373737"/>
    <path id="Path_4865" data-name="Path 4865" d="M1165.252,261.493q4.072.009,8.143.02a2.792,2.792,0,0,1,.757.05,1.293,1.293,0,0,1,1.114,1.54,1.574,1.574,0,0,1-1.607,1.3c-2.121.013-4.241,0-6.362,0a14.683,14.683,0,0,0-2.2.02,1.132,1.132,0,0,1-1.348-.788c-.122-.606-.252-1.426.514-1.882.21-.125.427-.239.641-.357.079.173.216.133.352.1" transform="translate(-6599.665 1704.975)" fill="#373737"/>
    <path id="Path_4866" data-name="Path 4866" d="M1169.5,261.045c-.136.037-.273.078-.352-.1.192-.244.282-.112.352.1" transform="translate(-6603.915 1705.423)" fill="#b5cedd"/>
    <path id="Path_4867" data-name="Path 4867" d="M1303.818,325.712l.353-.011c-.109.274-.224.355-.353.011" transform="translate(-6708.015 1655.268)" fill="#b5cedd"/>
    <path id="Path_4868" data-name="Path 4868" d="M1272.116,28.4c-1.386,0-2.772.01-4.158,0-1.047-.01-1.61-.531-1.6-1.444a1.394,1.394,0,0,1,1.55-1.433q4.2-.034,8.4,0a1.511,1.511,0,0,1,1.6,1.423,1.474,1.474,0,0,1-1.628,1.457c-1.386.013-2.772,0-4.158,0" transform="translate(-6679.055 1887.322)" fill="#373737"/>
    <path id="Path_4869" data-name="Path 4869" d="M987.079,28.4a1.913,1.913,0,0,1-1.61-.463,1.427,1.427,0,0,1-.343-1.48,1.23,1.23,0,0,1,1.182-.924c.533-.028,1.07-.038,1.6-.015a1.307,1.307,0,0,1,1.4,1.505c-.008.878-.483,1.334-1.442,1.375-.225.01-.451,0-.794,0" transform="translate(-6461.604 1887.321)" fill="#373737"/>
    <path id="Path_4870" data-name="Path 4870" d="M1019.367,28.391c-.169,0-.337,0-.506,0-.986-.027-1.555-.52-1.584-1.37a1.454,1.454,0,0,1,1.555-1.515c.393-.019.788-.02,1.18,0a1.418,1.418,0,0,1,1.534,1.522c-.035.858-.592,1.336-1.588,1.362-.2,0-.393,0-.59,0" transform="translate(-6486.514 1887.334)" fill="#373737"/>
    <path id="Path_4871" data-name="Path 4871" d="M1051.09,28.93a1.87,1.87,0,0,1-2.048-.811,1.26,1.26,0,0,1,1.025-1.9c.591-.029,1.184-.009,1.776-.007a1.269,1.269,0,0,1,1.4,1.233,1.373,1.373,0,0,1-1.3,1.484c-.279.027-.563,0-.856,0" transform="translate(-6510.936 1886.786)" fill="#373737"/>
    <path id="Path_4872" data-name="Path 4872" d="M1035.323,95.763h.9q29.576,0,59.151-.021c.857,0,1.073.2,1.061,1.061-.052,3.762-.031,7.526-.015,11.289,0,.7-.049.986-.937.782-4.019-.92-8.065-1.721-12.1-2.592-4.866-1.051-9.709-2.215-14.594-3.168-3.335-.65-6.637-1.443-9.969-2.1-2.958-.587-5.886-1.319-8.835-1.951-4.419-.947-8.845-1.86-13.266-2.8-.479-.1-.945-.259-1.417-.39.005-.037.011-.073.017-.11" transform="translate(-6500.452 1833.03)" fill="#ffe0bc"/>
    <path id="Path_4873" data-name="Path 4873" d="M1058.7,115.39h-.993q-29.416,0-58.83.018c-.8,0-1.048-.173-1.036-1.012.05-3.679.021-7.358.021-11.038,0-1.062.057-1.077,1.2-.82,1.941.439,3.889.85,5.839,1.252,2.575.53,5.158,1.021,7.729,1.565,2.216.469,4.417,1.01,6.632,1.485,2.251.483,4.512.917,6.766,1.386,1.615.336,3.224.7,4.837,1.044q8.957,1.932,17.916,3.861,4.787,1.03,9.577,2.047a1.88,1.88,0,0,1,.345.21" transform="translate(-6471.493 1827.882)" fill="#ffe0bc"/>
    <path id="Path_4874" data-name="Path 4874" d="M1267.1,159.307a.97.97,0,0,1-.243.007c-.029-.006-.042-.086-.062-.132a.718.718,0,0,1,.215-.034c.031,0,.051.086.09.159" transform="translate(-6679.396 1784.018)" fill="#6e7689"/>
    <path id="Path_4875" data-name="Path 4875" d="M1008.356,197.976h.792c9.249,0,18.5.011,27.746-.02.823,0,1.02.211,1.017,1.026-.031,9.25-.019,18.5-.024,27.751,0,.269.076.554-.017.718l-29.515-29.475" transform="translate(-6479.619 1754.016)" fill="#ffe0bc"/>
    <path id="Path_4876" data-name="Path 4876" d="M997.92,208.485l29.472,29.555c-.028.062-.289-.069-.482-.069q-14.134.012-28.267.016c-.55,0-.792-.09-.791-.727q.03-14.136.018-28.272c0-.181-.086-.395.05-.5" transform="translate(-6471.492 1745.878)" fill="#ffe0bc"/>
    <path id="Path_4877" data-name="Path 4877" d="M1183.967,198.1c1.837,0,3.675-.01,5.512,0,1.105.008,1.608.457,1.619,1.393a1.37,1.37,0,0,1-1.561,1.487q-5.6.036-11.194,0a1.5,1.5,0,0,1-1.679-1.514c.023-.825.667-1.357,1.705-1.364,1.865-.013,3.731,0,5.6,0" transform="translate(-6609.724 1753.904)" fill="#ffb158"/>
  </g>
</svg>
