<svg width="60" height="81" viewBox="0 0 60 81" fill="none" xmlns="http://www.w3.org/2000/svg">
<g clip-path="url(#clip0_310_69)">
<path d="M60.0001 64.4597C59.857 64.7274 59.7126 64.9942 59.5705 65.2628C59.3162 65.8441 58.9789 66.3108 58.5889 66.6204C58.1989 66.9301 57.7686 67.0731 57.3371 67.0364C55.7023 66.8791 54.0577 67.0364 52.4169 66.9674C51.9759 66.9479 51.5464 67.202 51.2118 67.6803C50.1094 69.1153 49.0054 70.5476 47.9169 72.0112C47.8142 72.1596 47.6873 72.2539 47.5524 72.282C47.4174 72.3102 47.2805 72.271 47.1589 72.1694C47.0328 72.082 46.9264 71.9309 46.8546 71.7375C46.7828 71.5441 46.7492 71.3181 46.7586 71.0913C46.7824 70.0205 46.7709 68.947 46.7538 67.8716C46.7493 67.5828 46.8791 67.0805 46.6315 67.0437C46.2893 66.9867 45.8526 66.6868 45.5906 67.2093C44.6578 69.0691 43.6375 70.8024 42.5395 72.3929C41.8279 73.3571 41.0831 74.2512 40.3088 75.0708C38.7476 76.7641 37.0369 78.041 35.2388 78.8552C34.4171 79.4102 33.5564 79.7897 32.6775 79.9849C31.6497 80.0364 30.6608 80.7079 29.6319 80.4347C28.9278 80.3516 28.2209 80.3571 27.5173 80.4513C27.2286 80.5117 26.9368 80.3896 26.6997 80.1091C26.6472 80.0336 26.5559 79.9186 26.5184 79.9481C25.6023 80.6647 24.7642 79.8046 23.9128 79.5406C21.9305 78.8316 20.029 77.6003 18.2801 75.8932C14.1119 72.0369 10.8247 66.0005 8.9278 58.7195C8.18383 55.7799 7.65862 52.6999 7.36384 49.5481C7.17409 47.0189 7.1125 44.4676 7.17975 41.9213C7.23103 40.044 7.40035 38.1808 7.685 36.3623C7.73421 36.021 7.76577 35.6724 7.81828 35.2179C6.52576 35.2179 5.25146 35.2465 3.97829 35.2069C3.20543 35.3026 2.42845 35.2433 1.66411 35.0303C1.21105 34.8223 0.808611 34.3833 0.513299 33.7749C0.217987 33.1665 0.0447111 32.4194 0.0178282 31.6386C0.015064 22.6061 0.0343813 13.5727 -0.00099995 4.54113C-0.0139161 4.01464 0.0381105 3.48932 0.15192 2.99759C0.265729 2.50586 0.438939 2.05815 0.660752 1.68208C0.882566 1.306 1.14828 1.00954 1.44161 0.810986C1.73494 0.61243 2.04962 0.515989 2.36622 0.527612C7.71653 0.500015 13.0669 0.480698 18.4166 0.538652C18.7506 0.52378 19.0828 0.625379 19.3917 0.836915C19.7007 1.04845 19.9796 1.36524 20.2106 1.76691C20.4416 2.16859 20.6195 2.64625 20.7328 3.16919C20.8462 3.69213 20.8926 4.24877 20.869 4.8033C20.8623 6.52536 20.8889 8.24833 20.8568 9.96946C20.8452 10.6033 21.0442 10.5922 21.2532 10.4368C22.5343 9.60631 23.8609 8.98492 25.2142 8.58134C25.6285 8.43915 26.0496 8.35971 26.4725 8.344C27.7802 8.12648 29.0972 8.10801 30.407 8.28881C32.7687 8.82143 35.1216 9.36785 37.3086 11.0549C39.8391 12.9061 42.146 15.5079 44.1167 18.7333C46.3426 22.3518 48.0548 26.7517 49.1281 31.6119C49.1685 31.8405 49.2576 32.0367 49.3788 32.1636C49.4999 32.2904 49.6447 32.3393 49.786 32.3009C52.1875 32.2715 54.5901 32.3414 56.9905 32.2642C58.4444 32.2172 59.4683 33.1049 59.9996 35.4038L60.0001 64.4597ZM25.6692 14.7391C25.5537 14.8045 25.5736 14.9811 25.5542 15.1255C25.4503 15.2055 25.3563 15.3012 25.3475 15.5192C25.3316 15.5771 25.3227 15.6396 25.3215 15.7032C25.2109 15.7722 25.2275 15.9534 25.201 16.096C25.1592 16.1556 25.1221 16.2235 25.0904 16.2984C23.8521 20.5178 22.9861 25.0124 22.5192 29.6434C22.4639 30.1346 22.5291 30.6368 22.9249 30.5136C23.5778 30.3103 24.2451 30.4575 24.8886 30.2818C26.2137 30.054 27.5463 29.972 28.8779 30.0362C29.9454 29.98 31.0394 30.0785 32.1219 30.1024H32.348C32.6959 30.4063 33.1013 30.4723 33.478 30.2864C33.6056 30.1821 33.7486 30.1414 33.8898 30.1689C34.031 30.1965 34.1644 30.2913 34.2741 30.4418C34.3774 30.5307 34.4916 30.5792 34.6079 30.5835C34.7242 30.5878 34.8396 30.5478 34.9452 30.4667C35.1663 30.2698 35.0789 29.7381 35.0303 29.395C34.8904 28.4098 34.8092 27.4006 34.6704 26.4246C34.0164 21.9024 33.2143 17.4455 31.4878 13.6831C30.8985 12.3952 30.26 10.9685 29.0852 11.0255C29.0642 10.9252 29.0338 10.847 28.958 10.8719H28.7181C28.7008 10.858 28.682 10.8507 28.6628 10.8507C28.6437 10.8507 28.6248 10.858 28.6075 10.8719C28.1376 11.0034 27.693 11.3186 27.3106 11.7918C27.2166 11.8286 27.1016 11.801 27.0646 12.0126C26.551 12.7191 26.1185 13.5746 25.7881 14.5377L25.6714 14.7327M33.8733 14.7474L33.9877 14.9627C34.1868 15.84 34.4344 16.6847 34.7274 17.486C34.7169 17.6304 34.6992 17.7794 34.8098 17.8484L34.8197 17.8714C34.8468 18.0701 34.755 18.3314 34.9248 18.4555C34.9299 18.5185 34.9394 18.5802 34.953 18.6395C35.0635 19.1675 35.1885 19.69 35.2896 20.2245C35.5727 21.7129 35.8469 23.2059 36.125 24.6971C36.1286 24.881 36.1321 25.0675 36.1354 25.2564C36.3223 26.9398 36.5224 28.6195 36.6883 30.3084C36.7286 30.7187 36.8199 31.0499 37.041 31.0858C38.7222 31.3617 40.2916 32.5999 42.0529 32.3488C43.8546 32.0921 45.6801 32.2917 47.5746 32.2917C46.1413 26.0137 43.5982 20.6059 40.2806 16.7813C38.2965 14.4034 33.7019 11.4257 32.6515 11.7513L33.5493 13.9664C33.5598 14.1835 33.651 14.281 33.7566 14.3565L33.7627 14.3657C33.782 14.5082 33.7627 14.6803 33.8733 14.7493V14.7474ZM24.1434 68.556C24.1491 68.6189 24.159 68.6806 24.1727 68.74L24.7576 70.8963C24.7361 71.0646 24.7244 71.2256 24.8505 71.2992C24.8522 71.3626 24.8608 71.4249 24.8759 71.4832C24.8599 71.6101 24.9069 71.6607 24.9682 71.6938C24.9697 71.7573 24.9783 71.8197 24.9937 71.8778C24.9776 72.0047 25.0241 72.0544 25.0855 72.0866C25.3978 72.9283 25.6792 73.8068 26.0286 74.6035C26.8926 76.573 27.9021 78.1405 29.5418 77.6805C29.7657 77.4607 30.2229 78.0972 30.2494 77.1488C30.6757 76.3678 31.1439 75.6383 31.521 74.7957C32.4761 72.5679 33.2123 70.1015 33.7019 67.4889C34.2658 64.6925 34.6207 61.827 35.037 58.978C35.1265 58.3645 35.0569 57.9119 34.5516 58.0204C33.7538 58.2299 32.949 58.3571 32.1418 58.4013C29.5528 58.416 26.9629 58.5291 24.375 58.2476C24.0522 58.2127 23.794 57.5375 23.621 57.7573C23.2721 58.2007 22.7984 57.7233 22.5905 58.1455C22.3296 58.6763 22.6629 59.3414 22.7298 59.9522C22.7403 60.0442 22.7387 60.1463 22.7486 60.242C23.0116 62.8885 23.4402 65.482 24.0273 67.9802C24.0771 68.1724 23.9764 68.4493 24.1484 68.5726L24.1434 68.556ZM26.9629 32.8639C26.2591 32.794 25.5529 32.8625 24.8588 33.0681C24.0339 33.173 23.2119 33.3322 22.3876 33.449C22.2069 33.4747 22.1698 33.6127 22.1582 33.8777C22.0858 35.5399 21.9431 37.2013 21.937 38.8635C21.8421 44.0996 21.916 49.3405 22.1582 54.5634C22.1825 54.9599 22.2096 55.2543 22.5015 55.2892C23.5004 55.4079 24.4983 55.6471 25.4973 55.6572C28.6269 55.8156 31.7594 55.6928 34.8811 55.2892C35.246 55.2276 35.4029 55.0262 35.4173 54.3482C35.4378 53.3887 35.4671 52.4164 35.5401 51.468C35.7369 48.8987 35.5505 46.3165 35.7324 43.7408C35.78 43.073 35.6152 42.3545 35.6329 41.6407C35.6682 39.0636 35.5926 36.4856 35.4068 33.9264C35.3886 33.6293 35.3714 33.472 35.1553 33.4389C33.4899 33.0738 31.8126 32.8797 30.1328 32.8575C29.0837 32.5789 28.0147 32.5789 26.9656 32.8575M11.6201 36.4019C11.5875 35.9907 11.5864 35.8987 11.5726 35.8122C11.2132 33.5373 11.6947 32.4711 13.0818 32.4702C14.858 32.4702 16.6349 32.4638 18.4111 32.4767C18.7251 32.4767 19.0313 32.4426 19.0988 31.8511C19.1745 31.3891 19.2227 30.9159 19.2425 30.4381C19.2296 21.9272 19.2263 13.4163 19.2326 4.90541C19.2326 3.52556 19.0507 3.22844 18.212 3.22844C12.9999 3.22844 7.78769 3.22844 2.57522 3.22844C1.81784 3.22844 1.66026 3.48969 1.66026 4.75455C1.66026 13.5243 1.66026 22.294 1.66026 31.0637C1.66026 32.1013 1.87313 32.4638 2.48567 32.4647C4.16462 32.4693 5.84467 32.5291 7.52196 32.438C7.87538 32.4049 8.22913 32.4917 8.56176 32.6931C8.89439 32.8946 9.19896 33.2065 9.45687 33.61C10.1015 34.5519 10.8124 35.3661 11.6223 36.3973M40.7858 49.642C40.7858 53.96 40.7858 58.278 40.7858 62.596C40.7858 64.181 40.8412 64.2665 41.8285 64.2675H46.804C48.1098 64.2675 48.3852 64.7274 48.4012 66.9398C48.4012 67.0695 48.4012 67.1992 48.4012 67.3289C48.4012 67.764 48.4896 67.8643 48.7074 67.5671C49.3155 66.7392 49.9237 65.9058 50.5445 65.0926C50.9207 64.5384 51.407 64.2356 51.9094 64.2426C53.7233 64.3061 55.5382 64.2665 57.3526 64.2656C58.2156 64.2656 58.3543 64.0632 58.3549 62.5877C58.3608 53.9517 58.3608 45.3157 58.3549 36.6797C58.3549 35.459 58.1067 35.0193 57.3863 35.0303C52.161 35.1122 46.9378 34.6209 41.7102 35.022C40.9611 35.079 40.7848 35.3679 40.7842 36.5858C40.7842 40.9364 40.7842 45.2869 40.7842 49.6374M16.1588 35.2143C15.3202 35.2143 14.4816 35.2345 13.6435 35.2041C13.3394 35.1931 13.2305 35.3385 13.2454 35.8582C13.2692 36.6677 13.2283 37.4827 13.2598 38.2904C13.254 38.7694 13.204 39.2441 13.1116 39.6979C13.006 40.4457 12.3144 40.6325 11.9003 40.0805C11.1363 39.0641 11.0634 39.0254 10.384 39.938C9.98568 40.4609 9.62733 41.063 9.31698 41.7308C8.99899 42.4161 8.81679 43.2487 8.79559 44.1138C8.7744 44.9788 8.91527 45.8334 9.19868 46.5594C9.92119 48.2191 10.885 49.5465 11.9999 50.4175C14.1872 52.2159 16.5078 53.5252 18.9015 54.3114C19.3437 54.4825 19.7992 54.6067 20.252 54.7033C20.4372 54.7428 20.6169 54.8587 20.56 54.1835C20.4009 52.3084 20.3117 50.4187 20.2929 48.5252C20.2061 43.8747 20.28 39.2197 20.5141 34.5832C20.5279 34.3505 20.5694 33.9641 20.5102 33.908C20.314 33.724 20.173 34.0064 20.0127 34.2042C19.5067 34.9052 18.8635 35.2722 18.2054 35.2354C17.5254 35.1646 16.8411 35.2198 16.16 35.2207M21.1023 60.2963C21.0564 59.3948 20.8977 58.5254 20.8518 57.6285C20.8414 57.5872 20.8248 57.551 20.8036 57.5233C20.7824 57.4956 20.7574 57.4773 20.7308 57.4703C20.4156 57.5034 20.147 57.1677 19.8507 57.1438C18.0362 56.866 16.2517 56.1908 14.5434 55.1356C13.2141 54.5214 11.9501 53.5671 10.7969 52.3069C10.3628 51.839 9.94597 51.3282 9.54865 50.7771C9.51 50.7031 9.45778 50.6521 9.40005 50.6322C9.34233 50.6122 9.28229 50.6244 9.22911 50.6667C9.11855 50.778 9.16439 50.985 9.19922 51.1837C9.40598 52.3667 9.61166 53.5561 9.83168 54.7244C10.4483 57.9738 11.3834 61.0314 12.5992 63.7735C13.9406 66.916 15.6065 69.6375 17.5194 71.8116C19.0546 73.6795 20.7569 75.1336 22.564 76.1204C23.2788 76.458 23.9931 76.7965 24.7112 77.1129C24.8227 77.1649 24.942 77.1411 25.0429 77.0467C25.1197 76.9492 25.0345 76.7707 24.9699 76.6364C23.8308 74.0636 22.9396 71.2111 22.3284 68.1816C21.9376 66.5258 21.8359 64.7421 21.4727 63.0707C21.3122 62.162 21.1889 61.2363 21.1034 60.2999M32.5371 77.02C35.2222 77.2583 41.8529 71.1796 43.4832 67.0419C42.7703 66.8545 42.0486 66.7747 41.3271 66.8036C40.3922 66.8956 40.013 66.1054 39.5215 65.2012C38.9748 64.1966 39.2622 62.9732 39.1732 61.8656C39.0986 60.5073 39.0933 59.141 39.1572 57.7812C39.1722 57.1419 39.024 56.9598 38.6879 57.0628C38.1011 57.1836 37.5199 57.3699 36.9481 57.6203C36.8144 57.6929 36.6927 57.6791 36.6855 58.0011C36.6195 59.1715 36.5018 60.3321 36.3334 61.4737C35.9418 65.1073 35.2791 68.6452 34.3609 72.0057C33.8527 73.7726 33.2416 75.4524 32.5365 77.021M39.359 34.7212C38.6139 34.3084 37.8394 34.061 37.0554 33.9853C37.0132 35.239 37.0585 36.4966 37.1903 37.733C37.3561 40.0511 37.2632 42.3729 37.3362 44.6874C37.3649 46.1694 37.3424 47.6528 37.2688 49.1305C37.2046 50.7955 37.1195 52.4578 37.0377 54.1201C37.0112 54.66 37.1422 54.8045 37.4495 54.6858C37.8188 54.5187 38.1961 54.4067 38.5773 54.3509C39.0262 54.3151 39.1567 54.0115 39.155 53.2793C39.1401 47.5934 39.15 41.9084 39.1439 36.2225C39.119 35.6979 39.1945 35.1737 39.3596 34.7249M20.8695 29.6516C21.6788 23.3043 22.6187 17.0766 25.0572 11.6474C24.8828 11.6224 24.7073 11.6249 24.5332 11.6547C23.5933 12.0337 22.6441 12.3906 21.7137 12.8377C20.984 13.1854 20.8706 13.5359 20.8706 14.8974V29.6526L20.8695 29.6516ZM9.22135 36.8351C9.21638 37.2362 8.98028 37.7136 9.30922 37.9344C9.49939 38.0614 9.67634 37.7219 9.69347 37.4901C9.7283 37.02 9.40324 37.0587 9.22135 36.8351Z" fill="#373737"/>
<path d="M11.6151 36.4193C10.8057 35.3881 10.0942 34.574 9.45018 33.632C9.1923 33.2285 8.88777 32.9165 8.55513 32.715C8.22249 32.5135 7.86869 32.4268 7.51526 32.4601C5.83797 32.5521 4.15791 32.4913 2.47951 32.4867C1.86697 32.4867 1.65417 32.1188 1.65417 31.0857C1.65417 22.316 1.65417 13.5463 1.65417 4.7766C1.65417 3.51174 1.81168 3.25049 2.56906 3.25049C7.78153 3.25049 12.9938 3.25049 18.2059 3.25049C19.044 3.25049 19.226 3.54946 19.2265 4.92747C19.2265 13.4384 19.2298 21.9493 19.2364 30.4602C19.2164 30.9379 19.1681 31.4112 19.0921 31.8732C19.0247 32.4647 18.7179 32.5015 18.4044 32.4987C16.6282 32.4849 14.8514 32.4923 13.0751 32.4923C11.688 32.4923 11.2071 33.5593 11.5659 35.8333C11.5797 35.9198 11.5808 36.0109 11.6135 36.423M14.5987 27.9148C14.732 27.9386 14.8668 27.9065 14.9907 27.8214C15.1146 27.7363 15.2237 27.6008 15.3081 27.4275C15.3925 27.2542 15.4495 27.0484 15.4738 26.829C15.4981 26.6097 15.489 26.3837 15.4473 26.1716C15.2262 25.0365 14.9265 23.9418 14.6595 22.8315C13.538 18.1639 12.4165 13.4966 11.295 8.82968C11.2523 8.56549 11.1581 8.33232 11.0273 8.16669C10.8964 8.00106 10.7363 7.91232 10.5719 7.91438C10.1667 7.89414 9.84547 7.99349 9.67409 8.69538C9.39767 9.82501 9.09361 10.9344 8.82217 12.0668C7.71097 16.7019 6.60363 21.3394 5.50018 25.9794C5.44633 26.1591 5.41545 26.3555 5.40941 26.5561C5.40337 26.7567 5.4223 26.9573 5.46509 27.1451C5.50787 27.3329 5.57359 27.504 5.65803 27.6475C5.74246 27.7911 5.84384 27.904 5.95577 27.9792C6.18298 28.0622 6.42063 28.0015 6.62238 27.8088C6.82413 27.6161 6.97552 27.3053 7.04706 26.937C7.42962 25.3115 7.82655 23.6943 8.18147 22.0514C8.2644 21.6687 8.34727 21.5648 8.57504 21.5675C9.78519 21.5832 10.9953 21.5749 12.2055 21.5749C12.3608 21.5749 12.5372 21.5344 12.613 21.8288C12.9878 23.319 13.3703 24.8037 13.7142 26.3133C13.8883 27.0768 14.0005 27.8661 14.5987 27.9148Z" fill="#FFE0BC"/>
<path d="M40.786 49.6399C40.786 45.2894 40.786 40.9389 40.786 36.5883C40.786 35.3667 40.9628 35.0788 41.7119 35.0245C46.9373 34.6234 52.1605 35.1165 57.3881 35.0328C58.1068 35.0217 58.3556 35.4615 58.3567 36.6822C58.3618 45.3176 58.3618 53.9536 58.3567 62.5902C58.3567 64.0621 58.2168 64.2681 57.3544 64.2681C55.5394 64.2681 53.7245 64.3077 51.9112 64.2442C51.4088 64.2372 50.9225 64.5399 50.5463 65.0942C49.9282 65.9074 49.3184 66.7371 48.7092 67.5687C48.492 67.8658 48.4051 67.7656 48.4028 67.3305C48.4028 67.2008 48.4028 67.0711 48.4028 66.9414C48.3868 64.7336 48.111 64.2736 46.8058 64.269H41.8303C40.8412 64.269 40.7876 64.1826 40.7876 62.5976C40.7876 58.2796 40.7876 53.9616 40.7876 49.6436M46.6593 43.4094C46.0739 43.4094 45.4884 43.3928 44.903 43.414C44.7867 43.3838 44.6679 43.3954 44.5546 43.448C44.4413 43.5007 44.3361 43.5932 44.2461 43.7192C44.1561 43.8453 44.0835 44.002 44.033 44.1788C43.9825 44.3556 43.9552 44.5484 43.9533 44.7441C43.9514 44.9398 43.9747 45.134 44.0218 45.3134C44.0688 45.4928 44.1383 45.6534 44.2258 45.7843C44.3133 45.9152 44.4168 46.0133 44.529 46.0721C44.6412 46.1308 44.7596 46.1489 44.8764 46.1249C45.2081 46.1489 45.5398 46.159 45.8715 46.1351C46.1341 46.1157 46.2723 46.2087 46.3558 46.7017C46.7546 48.9545 47.3943 51.0692 48.2443 52.9442C48.4505 53.4133 48.393 53.6442 48.1923 54.0057C47.4933 55.2093 46.6924 56.2366 45.8151 57.0552C45.7201 57.1204 45.6339 57.2167 45.5616 57.3383C45.4894 57.46 45.4326 57.6045 45.3945 57.7634C45.3565 57.9223 45.338 58.0923 45.3401 58.2633C45.3423 58.4342 45.365 58.6028 45.4071 58.7588C45.4461 58.9456 45.5109 59.1146 45.5964 59.2519C45.6819 59.3893 45.7857 59.4912 45.8993 59.5495C46.0129 59.6078 46.1331 59.6208 46.2502 59.5875C46.3674 59.5542 46.4781 59.4755 46.5736 59.3577C47.5083 58.5182 48.359 57.4426 49.0956 56.1693C49.4218 55.5999 49.6341 55.6174 49.9426 56.1877C50.7215 57.4852 51.6136 58.5797 52.5889 59.434C52.7004 59.5642 52.8365 59.623 52.9719 59.5997C53.1074 59.5764 53.2332 59.4725 53.3264 59.3071C53.8936 58.4792 53.8522 57.7148 53.1512 56.9154C52.3582 56.0575 51.6009 55.1115 50.8845 54.0839C50.8279 54.0256 50.7802 53.9462 50.7452 53.8519C50.7103 53.7576 50.689 53.6511 50.6831 53.5407C50.6772 53.4304 50.6868 53.3193 50.7112 53.2162C50.7356 53.1131 50.7742 53.0209 50.8238 52.9469C51.5301 51.5279 52.0627 49.8925 52.3916 48.1331C52.668 46.4101 53.1656 45.9042 54.1745 46.1093C54.8727 46.25 55.1215 45.6797 55.085 44.5455C55.0502 43.4701 54.5437 43.4572 54.1203 43.4342C53.0483 43.3763 51.9741 43.3818 50.9022 43.4342C50.4793 43.4536 50.3654 43.219 50.3886 42.5521C50.4249 41.7154 50.3921 40.8745 50.2913 40.0527C50.2673 39.7477 50.1759 39.4685 50.035 39.2694C49.8941 39.0703 49.7138 38.9656 49.529 38.9755C49.36 38.9703 49.1954 39.0644 49.0639 39.2412C48.9325 39.418 48.8427 39.6662 48.8103 39.9423C48.6146 40.8569 48.5735 41.8432 48.6914 42.794C48.7931 43.3285 48.6914 43.425 48.415 43.4223C47.8295 43.4149 47.2448 43.4223 46.6593 43.4223" fill="#FFB158"/>
<path d="M30.1285 32.8722C31.8082 32.8945 33.4855 33.0886 35.1509 33.4536C35.3676 33.4876 35.3841 33.6449 35.4024 33.9411C35.5882 36.5003 35.6638 39.0783 35.6286 41.6554C35.6109 42.3701 35.7756 43.0877 35.728 43.7555C35.5462 46.3248 35.7331 48.9116 35.5357 51.4827C35.4633 52.4302 35.4333 53.4025 35.4129 54.3629C35.3985 55.0408 35.2415 55.2423 34.8772 55.3039C31.7555 55.7076 28.6231 55.8304 25.4935 55.6719C24.4945 55.6618 23.4967 55.4226 22.4977 55.3039C22.2058 55.269 22.1781 54.9737 22.1538 54.5781C21.9116 49.3552 21.8377 44.1143 21.9326 38.8782C21.9387 37.216 22.0814 35.5546 22.1538 33.8924C22.1654 33.6274 22.2025 33.4894 22.3833 33.4637C23.2075 33.3478 24.0296 33.1877 24.8544 33.0828C25.5487 32.8771 26.2551 32.8086 26.959 32.8786H30.1262" fill="#CFD8D9"/>
<path d="M25.7851 14.5442C26.1154 13.5813 26.5477 12.7258 27.0611 12.0191C27.1651 12.0127 27.2629 11.9878 27.3072 11.7983C27.6896 11.3252 28.1341 11.0099 28.6041 10.8784C28.6411 10.9704 28.6787 10.9704 28.7146 10.8784H28.9551L29.0817 11.032C30.2565 10.975 30.895 12.4055 31.4843 13.6896C33.2114 17.452 34.013 21.9089 34.667 26.4312C34.808 27.4063 34.8881 28.4154 35.0268 29.4015C35.0755 29.7456 35.1607 30.2773 34.9418 30.4732C34.8362 30.5545 34.7207 30.5945 34.6044 30.5902C34.4881 30.5859 34.3739 30.5374 34.2706 30.4484C34.161 30.2978 34.0276 30.2031 33.8864 30.1755C33.7452 30.1479 33.6022 30.1887 33.4746 30.2929C33.0979 30.4788 32.6925 30.4128 32.3446 30.1089C32.2694 29.9341 32.1941 29.936 32.1184 30.1089C31.036 30.085 29.9419 29.9866 28.8744 30.0427C27.5429 29.9786 26.2102 30.0607 24.8852 30.2883C24.2417 30.464 23.5744 30.3168 22.9215 30.5201C22.5257 30.6434 22.4577 30.1411 22.5158 29.6499C22.9827 25.019 23.8486 20.5243 25.0869 16.3049C25.1185 16.2299 25.1556 16.1619 25.1975 16.1025C25.24 16.0668 25.2747 16.0095 25.2964 15.9389C25.3181 15.8683 25.3256 15.788 25.318 15.7097C25.3194 15.6462 25.3282 15.5837 25.344 15.5257C25.3743 15.5284 25.4045 15.5196 25.4325 15.5C25.4604 15.4804 25.4852 15.4506 25.5052 15.4127C25.5252 15.3748 25.5396 15.3298 25.5476 15.2812C25.5556 15.2326 25.5569 15.1816 25.5514 15.132C25.5925 15.0958 25.6257 15.0388 25.6462 14.9692C25.6668 14.8997 25.6737 14.8211 25.6658 14.7448L25.7824 14.5497" fill="#CFD8D9"/>
<path d="M29.5384 77.676C27.8981 78.1359 26.8887 76.5721 26.0251 74.598C25.6757 73.8014 25.3943 72.9229 25.082 72.0812L24.9902 71.8724C24.9748 71.8143 24.9662 71.7518 24.9648 71.6884L24.8725 71.4777C24.8573 71.4195 24.8488 71.3571 24.8471 71.2937C24.8547 71.2189 24.85 71.1421 24.8336 71.0712C24.8173 71.0003 24.7898 70.9381 24.7541 70.8908L24.1688 68.7346C24.1809 68.7125 24.2053 68.6748 24.2025 68.6693C24.1829 68.6283 24.1617 68.5895 24.1389 68.5534L24.1416 68.558C24.1416 68.3372 24.1726 68.098 24.0211 67.9655C23.434 65.4673 23.0054 62.8739 22.7424 60.2273C22.733 60.1354 22.7342 60.0323 22.7242 59.9376C22.6573 59.3277 22.3234 58.6617 22.5849 58.1318C22.7928 57.7096 23.2666 58.187 23.6154 57.7436C23.7879 57.5247 24.0461 58.2036 24.3695 58.2339C26.9573 58.5154 29.5472 58.4023 32.1361 58.3875C32.9433 58.3432 33.7482 58.216 34.546 58.0067C35.0513 57.8991 35.1209 58.3517 35.0313 58.9643C34.6151 61.816 34.2607 64.6787 33.6968 67.4743C33.2071 70.0868 32.471 72.5532 31.5159 74.7811C31.14 75.6246 30.6717 76.3532 30.2444 77.1342C29.8856 76.8582 29.6965 77.2069 29.5368 77.6659" fill="#CFD8D9"/>
<path d="M16.1607 35.2172C16.8434 35.2172 17.5278 35.162 18.2061 35.2328C18.864 35.2696 19.5071 34.9026 20.0128 34.2016C20.1737 34.0047 20.3141 33.7186 20.5103 33.9054C20.5695 33.9615 20.5281 34.3488 20.5137 34.5815C20.2797 39.2177 20.2058 43.8723 20.2925 48.5226C20.3115 50.416 20.4007 52.3057 20.5596 54.1809C20.6149 54.8561 20.4368 54.7402 20.2516 54.7006C19.7988 54.604 19.3456 54.4799 18.9006 54.3078C16.5069 53.5217 14.1863 52.2124 11.999 50.4139C10.8841 49.5429 9.92033 48.2155 9.19778 46.5558C8.91429 45.8299 8.77337 44.9752 8.79456 44.1102C8.81576 43.2451 8.99802 42.4124 9.31608 41.7273C9.62708 41.0614 9.98596 40.4614 10.3847 39.9408C11.0641 39.0283 11.1371 39.0669 11.9011 40.0834C12.3152 40.6354 13.0068 40.4514 13.1124 39.6998C13.2046 39.2463 13.2546 38.772 13.2605 38.2933C13.2285 37.4856 13.2694 36.6697 13.2456 35.8611C13.2302 35.3413 13.339 35.196 13.6437 35.207C14.4818 35.2374 15.3204 35.2181 16.159 35.2172" fill="#CFD8D9"/>
<path d="M21.1055 60.2935C21.1909 61.2299 21.3144 62.1556 21.4749 63.0642C21.8381 64.7357 21.9397 66.5166 22.3306 68.1752C22.9418 71.2043 23.8331 74.0565 24.9721 76.6291C25.0367 76.7616 25.1223 76.9418 25.0449 77.0403C24.944 77.1346 24.8248 77.1585 24.7133 77.1065C23.9946 76.7901 23.2809 76.4506 22.5661 76.1139C20.7591 75.1272 19.0567 73.6731 17.5215 71.8051C15.6086 69.6311 13.9427 66.9096 12.6013 63.7671C11.3856 61.025 10.4507 57.9674 9.83436 54.718C9.61323 53.5497 9.40817 52.3603 9.20196 51.1773C9.16713 50.9777 9.12288 50.7716 9.23179 50.6603C9.28495 50.6178 9.34505 50.6056 9.4028 50.6255C9.46054 50.6455 9.51273 50.6965 9.55133 50.7707C9.94869 51.3217 10.3656 51.8325 10.7997 52.3005C11.953 53.5608 13.2172 54.5151 14.5467 55.1292C16.2549 56.1846 18.0394 56.8598 19.8539 57.1373C20.1502 57.1622 20.4189 57.4979 20.7346 57.4639C20.7612 57.4708 20.7863 57.489 20.8075 57.5167C20.8287 57.5444 20.8453 57.5807 20.8556 57.6221C20.9021 58.5227 21.0602 59.392 21.1067 60.2898" fill="#CFD8D9"/>
<path d="M33.5433 13.9671L32.6455 11.752C33.6959 11.4272 38.29 14.405 40.2746 16.7829C43.5923 20.6074 46.1353 26.0152 47.5686 32.2933C45.6746 32.2933 43.8493 32.0937 42.047 32.3504C40.2852 32.6006 38.7156 31.3661 37.035 31.0873C36.8138 31.0506 36.7221 30.7194 36.6823 30.31C36.5164 28.6211 36.3185 26.9414 36.1295 25.2579C36.1562 25.2254 36.1778 25.1825 36.1924 25.1329C36.2069 25.0833 36.2138 25.0286 36.2127 24.9734C36.2116 24.9183 36.2026 24.8644 36.1861 24.8165C36.1697 24.7687 36.1464 24.7282 36.1184 24.6986C35.842 23.2075 35.5656 21.7145 35.2831 20.2261C35.1813 19.6926 35.0619 19.1691 34.9463 18.642C34.9579 18.6199 34.9823 18.5832 34.9801 18.5767C34.9608 18.5358 34.9399 18.4971 34.9176 18.4608C34.9176 18.2483 34.9502 18.0202 34.8126 17.8767L34.8027 17.8537L34.7208 17.4903C34.4278 16.6891 34.1803 15.8444 33.9812 14.967L33.8667 14.7518C33.8745 14.6765 33.8682 14.5991 33.8484 14.5302C33.8285 14.4613 33.7963 14.4043 33.7562 14.3672L33.7501 14.358C33.7554 14.3087 33.7539 14.2581 33.7458 14.2099C33.7376 14.1617 33.7231 14.1171 33.7031 14.0796C33.6832 14.0421 33.6584 14.0126 33.6306 13.9932C33.6029 13.9739 33.5728 13.9653 33.5428 13.968" fill="#CFD8D9"/>
<path d="M32.5359 77.0125C33.241 75.4439 33.8521 73.7641 34.3603 71.9972C35.2786 68.6368 35.9411 65.0988 36.3327 61.4653C36.5012 60.3237 36.6187 59.163 36.6843 57.9926C36.6915 57.6706 36.8131 57.6845 36.9475 57.6118C37.5192 57.3612 38.1004 57.175 38.6872 57.0543C39.0234 56.9513 39.171 57.1334 39.1567 57.7728C39.0926 59.1325 39.0978 60.4989 39.1726 61.8571C39.2616 62.961 38.9742 64.1882 39.5204 65.1927C40.0124 66.096 40.391 66.8853 41.3259 66.7942C42.0474 66.7654 42.7691 66.8452 43.482 67.0325C41.8528 71.172 35.2221 77.2498 32.5359 77.0106" fill="#CFD8D9"/>
<path d="M39.3585 34.7127C39.1936 35.1616 39.1183 35.6859 39.1435 36.2103C39.149 41.8962 39.139 47.5812 39.1539 53.2671C39.1539 54.003 39.0251 54.3039 38.5768 54.3388C38.1956 54.3944 37.8182 54.5065 37.449 54.6737C37.1416 54.7923 37.0101 54.647 37.0367 54.1079C37.1185 52.4457 37.2025 50.7825 37.2677 49.1184C37.3413 47.6407 37.3639 46.1572 37.3352 44.6753C37.2628 42.3608 37.3528 40.038 37.1892 37.7208C37.0574 36.4845 37.0122 35.2268 37.0543 33.9731C37.8383 34.0488 38.6129 34.2963 39.358 34.7091" fill="#CFD8D9"/>
<path d="M20.8684 29.6394V14.8833C20.8684 13.5218 20.979 13.1713 21.7115 12.8236C22.6431 12.3793 23.5911 12.0205 24.5309 11.6406C24.7051 11.6108 24.8805 11.6083 25.055 11.6333C22.6159 17.0607 21.6767 23.2939 20.8673 29.6375" fill="#CFD8D9"/>
<path d="M30.1273 32.8729H26.9601C28.0092 32.5945 29.0782 32.5945 30.1273 32.8729Z" fill="#373737"/>
<path d="M9.2202 36.8232C9.40153 37.0468 9.72715 37.0072 9.69232 37.4782C9.67518 37.71 9.4983 38.0495 9.30813 37.9225C8.97919 37.7017 9.21467 37.2252 9.2202 36.8232Z" fill="#CFD8D9"/>
<path d="M29.5385 77.6766C29.6982 77.2167 29.8873 76.869 30.2461 77.1449C30.2196 78.0933 29.7629 77.4559 29.5385 77.6766Z" fill="#373737"/>
<path d="M33.5433 13.9673C33.5734 13.9646 33.6034 13.9732 33.6312 13.9925C33.659 14.0118 33.6839 14.0414 33.7038 14.0789C33.7238 14.1164 33.7383 14.1609 33.7465 14.2092C33.7546 14.2574 33.7559 14.308 33.7506 14.3573C33.6451 14.2819 33.5538 14.1844 33.5433 13.9673Z" fill="#373737"/>
<path d="M34.8166 17.8779C34.9542 18.0214 34.9228 18.2459 34.9217 18.4621C34.752 18.3342 34.8431 18.0766 34.8166 17.8779Z" fill="#373737"/>
<path d="M25.5491 15.1328C25.5547 15.1824 25.5535 15.2334 25.5455 15.282C25.5375 15.3306 25.5229 15.3755 25.5029 15.4134C25.483 15.4513 25.4581 15.4812 25.4302 15.5008C25.4023 15.5204 25.372 15.5292 25.3418 15.5265C25.3512 15.3085 25.4446 15.2128 25.5491 15.1328Z" fill="#373737"/>
<path d="M36.1204 24.6978C36.1483 24.7274 36.1716 24.7679 36.188 24.8158C36.2044 24.8638 36.2135 24.9177 36.2146 24.9728C36.2156 25.0279 36.2085 25.0826 36.1939 25.1322C36.1793 25.1817 36.1577 25.2246 36.1309 25.2571C36.1272 25.0731 36.1237 24.8866 36.1204 24.6978Z" fill="#373737"/>
<path d="M24.0223 67.9756C24.1744 68.1099 24.1445 68.3435 24.1434 68.568C23.972 68.4447 24.0721 68.1678 24.0223 67.9756Z" fill="#373737"/>
<path d="M27.3073 11.7983C27.2631 11.9888 27.1652 12.0136 27.0613 12.0191C27.0983 11.8075 27.2133 11.8351 27.3073 11.7983Z" fill="#373737"/>
<path d="M33.7571 14.3677C33.7972 14.4047 33.8295 14.4617 33.8493 14.5306C33.8691 14.5995 33.8756 14.6769 33.8678 14.7522C33.7572 14.6832 33.7753 14.5103 33.7571 14.3677Z" fill="#373737"/>
<path d="M34.7242 17.4961L34.806 17.8585C34.6955 17.7895 34.7132 17.6405 34.7242 17.4961Z" fill="#373737"/>
<path d="M25.3166 15.7134C25.3242 15.7917 25.3167 15.872 25.295 15.9426C25.2733 16.0133 25.2386 16.0706 25.196 16.1062C25.2226 15.9636 25.2038 15.7824 25.3166 15.7134Z" fill="#373737"/>
<path d="M32.1196 30.1133C32.1948 29.9404 32.2705 29.9385 32.3457 30.1133H32.1196Z" fill="#373737"/>
<path d="M25.6687 14.7417C25.6764 14.818 25.6695 14.8965 25.6489 14.9658C25.6282 15.0352 25.5949 15.092 25.5537 15.1281C25.5731 14.9836 25.5537 14.807 25.6687 14.7417Z" fill="#373737"/>
<path d="M24.755 70.8999C24.7908 70.947 24.8183 71.0093 24.8346 71.0802C24.851 71.1511 24.8555 71.228 24.8478 71.3028C24.7218 71.2292 24.7334 71.0682 24.755 70.8999Z" fill="#373737"/>
<path d="M29.0831 11.0355L28.9559 10.8819C29.0317 10.8561 29.0621 10.9343 29.0831 11.0355Z" fill="#373737"/>
<path d="M34.92 18.4593C34.9425 18.4957 34.9633 18.5347 34.9824 18.5761C34.9824 18.5816 34.9604 18.6184 34.9488 18.6405C34.9349 18.5813 34.9253 18.5195 34.92 18.4565" fill="#373737"/>
<path d="M24.14 68.5623C24.1628 68.5984 24.1841 68.6371 24.2036 68.6782C24.2036 68.6838 24.1815 68.7206 24.1698 68.7436C24.1561 68.6842 24.1463 68.6225 24.1406 68.5596" fill="#373737"/>
<path d="M24.873 71.4829L24.9653 71.6936C24.9039 71.6605 24.8547 71.6108 24.873 71.4829Z" fill="#373737"/>
<path d="M24.9904 71.873L25.0822 72.0819C25.0203 72.0497 24.9716 71.9991 24.9904 71.873Z" fill="#373737"/>
<path d="M28.7159 10.8828C28.6783 10.9747 28.6413 10.9747 28.6053 10.8828C28.6226 10.869 28.6415 10.8618 28.6607 10.8618C28.6798 10.8618 28.6986 10.869 28.7159 10.8828Z" fill="#373737"/>
<path d="M14.5978 27.9102C14.0002 27.8615 13.8879 27.0713 13.7132 26.3078C13.3688 24.7982 12.9862 23.3135 12.612 21.8233C12.5379 21.5289 12.3604 21.5694 12.2045 21.5694C10.9943 21.5694 9.7837 21.5777 8.57411 21.5629C8.34855 21.5629 8.2634 21.6641 8.18047 22.0468C7.82555 23.6888 7.42862 25.3069 7.04606 26.9324C6.97452 27.3007 6.82313 27.6115 6.62138 27.8042C6.41963 27.9969 6.18198 28.0576 5.95477 27.9746C5.84279 27.8995 5.74132 27.7867 5.65682 27.6431C5.57233 27.4996 5.50666 27.3286 5.46382 27.1407C5.42098 26.9529 5.40194 26.7523 5.40794 26.5517C5.41394 26.351 5.44481 26.1546 5.49864 25.9748C6.60762 21.3379 7.71496 16.7004 8.82063 12.0622C9.09207 10.9307 9.39669 9.82042 9.67255 8.69171C9.84338 7.98982 10.1646 7.88955 10.5698 7.91071C10.7342 7.90866 10.8944 7.9974 11.0252 8.16303C11.1561 8.32866 11.2502 8.56183 11.2929 8.82601C12.4133 13.4942 13.5348 18.1615 14.6574 22.8278C14.9244 23.939 15.2224 25.0356 15.4452 26.168C15.4873 26.3802 15.4967 26.6067 15.4726 26.8266C15.4485 27.0465 15.3917 27.2529 15.3072 27.4268C15.2228 27.6007 15.1135 27.7365 14.9894 27.822C14.8652 27.9074 14.7302 27.9396 14.5966 27.9158M9.01856 18.8088H11.8242C11.4079 17.0168 11.0082 15.2874 10.5997 13.5653C10.5704 13.4412 10.5736 13.2121 10.4338 13.2296C10.3853 13.2404 10.3399 13.2752 10.3034 13.3295C10.2669 13.3838 10.2411 13.4551 10.2292 13.5341C9.83174 15.2598 9.43702 16.9874 9.02018 18.8106" fill="#373737"/>
<path d="M46.6576 43.4051C47.2425 43.4051 47.8279 43.3995 48.4134 43.4051C48.6898 43.4051 48.7926 43.3131 48.6898 42.7777C48.572 41.8269 48.6131 40.8406 48.8087 39.926C48.8411 39.6499 48.9309 39.4017 49.0623 39.2249C49.1938 39.048 49.3584 38.954 49.5274 38.9592C49.7123 38.949 49.8928 39.0537 50.0338 39.2528C50.1748 39.4519 50.2662 39.7312 50.2903 40.0364C50.3909 40.8583 50.4236 41.6991 50.3876 42.5357C50.3644 43.2027 50.4782 43.4372 50.9011 43.4179C51.9731 43.3683 53.0478 43.3627 54.1192 43.4179C54.5427 43.4409 55.0491 43.4538 55.0839 44.5292C55.121 45.6652 54.8722 46.2356 54.174 46.093C53.1673 45.8897 52.668 46.3956 52.391 48.1168C52.0622 49.8762 51.5296 51.5116 50.8233 52.9306C50.7737 53.0046 50.7351 53.0968 50.7107 53.1999C50.6863 53.303 50.6767 53.4141 50.6826 53.5244C50.6885 53.6348 50.7097 53.7413 50.7447 53.8356C50.7797 53.9299 50.8274 54.0093 50.884 54.0676C51.6004 55.0951 52.3578 56.041 53.1507 56.8991C53.8522 57.6984 53.893 58.4629 53.3258 59.2908C53.2327 59.4562 53.1069 59.5601 52.9714 59.5834C52.8359 59.6067 52.6999 59.5479 52.5884 59.4177C51.6131 58.5634 50.721 57.469 49.942 56.1714C49.6336 55.602 49.4207 55.5836 49.0951 56.153C48.3585 57.4263 47.5077 58.5018 46.5731 59.3414C46.4776 59.4592 46.3668 59.5379 46.2497 59.5712C46.1326 59.6045 46.0123 59.5915 45.8988 59.5332C45.7852 59.4749 45.6814 59.373 45.5959 59.2356C45.5104 59.0982 45.4455 58.9293 45.4065 58.7425C45.3645 58.5865 45.3418 58.4179 45.3396 58.2469C45.3374 58.076 45.3559 57.906 45.394 57.7471C45.432 57.5882 45.4888 57.4437 45.5611 57.322C45.6333 57.2004 45.7195 57.1041 45.8146 57.0389C46.6919 56.2207 47.4928 55.1936 48.1918 53.9903C48.3919 53.6288 48.4494 53.3979 48.2437 52.9288C47.3938 51.0536 46.7539 48.9391 46.3547 46.6863C46.2712 46.1933 46.1336 46.1003 45.8704 46.1197C45.5387 46.1436 45.207 46.1335 44.8753 46.1096C44.7585 46.1335 44.6401 46.1154 44.5279 46.0567C44.4157 45.9979 44.3122 45.8998 44.2248 45.7689C44.1373 45.638 44.0677 45.4775 44.0207 45.298C43.9737 45.1186 43.9503 44.9244 43.9523 44.7287C43.9542 44.533 43.9813 44.3402 44.0318 44.1634C44.0823 43.9866 44.155 43.8299 44.245 43.7038C44.335 43.5778 44.4402 43.4853 44.5535 43.4326C44.6668 43.38 44.7857 43.3684 44.9019 43.3986C45.4868 43.3784 46.0727 43.3986 46.6581 43.3931M47.8911 46.1528C48.3886 47.7875 48.7756 49.3301 49.319 50.7412C49.4202 51.0034 49.4953 51.4266 49.7021 50.9252C50.3244 49.4638 50.813 47.8567 51.1516 46.1565L47.8911 46.1528Z" fill="#373737"/>
<path d="M9.01782 18.8012C9.43466 16.9789 9.82939 15.2504 10.2269 13.5247C10.2387 13.4457 10.2646 13.3744 10.301 13.3201C10.3375 13.2658 10.3829 13.231 10.4314 13.2202C10.5729 13.2027 10.5696 13.4318 10.5972 13.5559C11.0058 15.2798 11.405 17.0093 11.8218 18.7994L9.01782 18.8012Z" fill="#FFE0BC"/>
<path d="M47.8905 46.1638H51.1522C50.8135 47.8641 50.325 49.4712 49.7026 50.9326C49.4958 51.4376 49.4207 51.0154 49.3196 50.7486C48.7756 49.3375 48.3902 47.7948 47.8916 46.1602" fill="#FFB158"/>
</g>
<defs>
<clipPath id="clip0_310_69">
<rect width="60" height="80" fill="white" transform="translate(0 0.5)"/>
</clipPath>
</defs>
</svg>
