<svg xmlns="http://www.w3.org/2000/svg" width="86.769" height="86.902" viewBox="0 0 86.769 86.902">
  <g id="Group_186" data-name="Group 186" transform="translate(5975.665 -1918.306)">
    <path id="Path_4878" data-name="Path 4878" d="M473.567,62.06c-1.919,0-3.7-.012-5.472.006a1.537,1.537,0,0,1-1.661-.97,1.5,1.5,0,0,1,.59-1.748c4.683-4.206,9.351-8.43,14.061-12.606a2.672,2.672,0,0,1,1.625-.561c4.307-.045,8.615-.025,12.923-.025h1.023c0-2.412,0-4.749,0-7.085-1.23-.507-1.413-.793-1.393-2.17A13.353,13.353,0,0,1,507.645,23.92c.175-.011.349-.03.635-.056,0-1.678,0-3.325,0-4.971,0-1.958-.013-3.915,0-5.873.008-1.336.755-1.943,2.039-1.634a21.874,21.874,0,0,0,10.374,0c1.286-.309,2.031.3,2.04,1.633.013,1.837.01,3.674,0,5.512a1.534,1.534,0,0,1-1.411,1.775,23.4,23.4,0,0,1-9.5.415c-.176-.03-.357-.03-.6-.049v2.912a34.965,34.965,0,0,1,5.361,1.652,12.9,12.9,0,0,1,7.585,11.8c.052,1.24-.212,1.571-1.4,2.005v7.112h1c4.308,0,8.616-.028,12.923.033a3.07,3.07,0,0,1,1.839.705c4.58,4.05,9.111,8.155,13.661,12.239.607.545,1.166,1.1.8,2.008s-1.144.939-1.962.926c-1.2-.02-2.4-.005-3.7-.005v1.118q0,16.445,0,32.89c0,1.732-.4,2.139-2.11,2.139H475.624c-1.641,0-2.058-.426-2.058-2.1q0-16.49,0-32.98V62.06m49.169,33.191h21.619V62.109H476.517V95.247H496.71c0-2.568-.037-5.067.007-7.564a13.012,13.012,0,0,1,26.017.466c.012,2.346,0,4.692,0,7.1M471.656,59.078a2.535,2.535,0,0,0,.383.086q10.528,0,21.057-.008a2.615,2.615,0,0,0,1.025-.275c4.794-2.169,9.591-4.334,14.366-6.544a2.7,2.7,0,0,1,2.48,0q7.124,3.292,14.288,6.5a3.709,3.709,0,0,0,1.464.323c6.718.02,13.435.013,20.153.013h.859a1.782,1.782,0,0,0-.192-.309q-5.267-4.75-10.551-9.481a1.573,1.573,0,0,0-.972-.317q-26.3-.022-52.6,0a1.572,1.572,0,0,0-.971.323c-3.575,3.185-7.128,6.394-10.792,9.695M499.44,95.25h20.395c0-2.532.046-5-.01-7.461A10.131,10.131,0,0,0,510.7,78a9.817,9.817,0,0,0-10.691,7.6c-.593,3.119-.4,6.386-.569,9.645m21.808-59.222a10.508,10.508,0,0,0-6.914-8.659,15.5,15.5,0,0,0-6.161-.569,9.985,9.985,0,0,0-7.256,3.347,9.644,9.644,0,0,0-2.651,5.881Zm-2.721,23.12.035-.16c-2.727-1.239-5.446-2.5-8.191-3.694a1.833,1.833,0,0,0-1.313.016c-2.506,1.084-4.986,2.229-7.473,3.36-.239.109-.464.25-.881.478ZM511.2,17.689a20.339,20.339,0,0,0,8.581-.021V14.732H511.2ZM499.642,46.111h2.779v-7.1h-2.779Zm8.584-7.089h-2.794v7.093h2.794Zm5.785,0h-2.8v7.094h2.8Zm5.782,0H517V46.1h2.791Z" transform="translate(-6442 1907)" fill="#373737"/>
    <path id="Path_4879" data-name="Path 4879" d="M554.731,254.887c0-2.41.01-4.756,0-7.1a13.012,13.012,0,0,0-26.017-.466c-.044,2.5-.007,5-.007,7.564H508.513V221.745h67.836v33.142Zm-34.709-25.873c0-.964.022-1.928-.006-2.891a1.423,1.423,0,0,0-1.531-1.527q-2.8-.035-5.6,0a1.41,1.41,0,0,0-1.526,1.528q-.037,2.8,0,5.6a1.413,1.413,0,0,0,1.528,1.527q2.8.037,5.6,0a1.423,1.423,0,0,0,1.529-1.529c.027-.9.006-1.807.006-2.71m8.679-4.425c-.934,0-1.868-.021-2.8.006a1.42,1.42,0,0,0-1.529,1.528q-.037,2.8,0,5.6a1.409,1.409,0,0,0,1.526,1.529q2.8.038,5.6,0a1.417,1.417,0,0,0,1.53-1.528q.037-2.8,0-5.6A1.418,1.418,0,0,0,531.5,224.6c-.933-.027-1.868-.006-2.8-.007m23.139,4.273c0,.934-.016,1.868,0,2.8a1.441,1.441,0,0,0,1.559,1.593q2.756.034,5.512,0a1.435,1.435,0,0,0,1.593-1.558q.035-2.755,0-5.511a1.434,1.434,0,0,0-1.559-1.592q-2.756-.035-5.512,0a1.456,1.456,0,0,0-1.6,1.647c-.015.873,0,1.747,0,2.62m13.018-.024c0,.964-.021,1.928.006,2.891a1.416,1.416,0,0,0,1.531,1.525q2.8.037,5.6,0a1.412,1.412,0,0,0,1.524-1.532q.037-2.8,0-5.6a1.41,1.41,0,0,0-1.532-1.523q-2.8-.035-5.6,0a1.415,1.415,0,0,0-1.524,1.531c-.025.9-.005,1.807,0,2.711m-44.835,13.1c-.934,0-1.868-.021-2.8.006a1.418,1.418,0,0,0-1.526,1.529q-.037,2.8,0,5.6a1.413,1.413,0,0,0,1.528,1.528q2.8.038,5.6,0a1.414,1.414,0,0,0,1.528-1.528q.038-2.8,0-5.6a1.422,1.422,0,0,0-1.529-1.529c-.933-.026-1.868-.006-2.8-.005m44.858,0c-.874,0-1.747-.008-2.621,0-1.2.014-1.729.519-1.739,1.688q-.022,2.665,0,5.331a1.471,1.471,0,0,0,1.685,1.65q2.666.02,5.332,0a1.472,1.472,0,0,0,1.65-1.686q.021-2.666,0-5.331c-.011-1.116-.55-1.633-1.687-1.65-.873-.013-1.747,0-2.621,0" transform="translate(-6473.996 1747.365)" fill="#cfd8d9"/>
    <path id="Path_4880" data-name="Path 4880" d="M488.376,177.674c3.665-3.3,7.217-6.51,10.792-9.7a1.572,1.572,0,0,1,.971-.323q26.3-.023,52.6,0a1.572,1.572,0,0,1,.972.317q5.3,4.717,10.551,9.481a1.783,1.783,0,0,1,.192.309h-.859c-6.718,0-13.435.007-20.153-.013a3.7,3.7,0,0,1-1.463-.323q-7.158-3.218-14.288-6.5a2.7,2.7,0,0,0-2.48,0c-4.776,2.209-9.572,4.375-14.366,6.544a2.614,2.614,0,0,1-1.025.275q-10.528.023-21.057.008a2.489,2.489,0,0,1-.383-.086" transform="translate(-6458.721 1788.404)" fill="#889ea0"/>
    <path id="Path_4881" data-name="Path 4881" d="M603.464,304.647c.165-3.259-.024-6.526.569-9.645a9.818,9.818,0,0,1,10.691-7.6,10.131,10.131,0,0,1,9.126,9.783c.056,2.464.01,4.93.01,7.462Zm10.251-14.35a7.1,7.1,0,0,0-7.136,7.139h2.775a4.528,4.528,0,0,1,4.36-4.348Z" transform="translate(-6546.024 1697.602)" fill="#ffb158"/>
    <path id="Path_4882" data-name="Path 4882" d="M621.584,84.558H598.6a9.644,9.644,0,0,1,2.651-5.881,9.986,9.986,0,0,1,7.256-3.347,15.5,15.5,0,0,1,6.161.569,10.507,10.507,0,0,1,6.914,8.659" transform="translate(-6542.337 1858.471)" fill="#889ea0"/>
    <path id="Path_4883" data-name="Path 4883" d="M626.519,197.013H608.7c.417-.228.642-.369.881-.478,2.486-1.13,4.966-2.275,7.473-3.36a1.833,1.833,0,0,1,1.314-.017c2.746,1.2,5.464,2.455,8.191,3.694l-.035.16" transform="translate(-6549.992 1769.135)" fill="#cfd8d9"/>
    <path id="Path_4884" data-name="Path 4884" d="M652.166,28.453V25.5h8.581v2.936a20.338,20.338,0,0,1-8.581.021" transform="translate(-6582.969 1896.235)" fill="#ffb158"/>
    <rect id="Rectangle_194" data-name="Rectangle 194" width="2.778" height="7.101" transform="translate(-5942.359 1946.01)" fill="#ffb158"/>
    <rect id="Rectangle_195" data-name="Rectangle 195" width="2.794" height="7.093" transform="translate(-5936.57 1946.022)" fill="#ffb158"/>
    <rect id="Rectangle_196" data-name="Rectangle 196" width="2.795" height="7.094" transform="translate(-5930.786 1946.022)" fill="#ffb158"/>
    <rect id="Rectangle_197" data-name="Rectangle 197" width="2.791" height="7.073" transform="translate(-5925 1946.024)" fill="#ffb158"/>
    <path id="Path_4885" data-name="Path 4885" d="M528.9,237.917c0,.9.021,1.808-.006,2.71a1.423,1.423,0,0,1-1.529,1.529q-2.8.037-5.6,0a1.413,1.413,0,0,1-1.528-1.527q-.036-2.8,0-5.6a1.41,1.41,0,0,1,1.526-1.528q2.8-.037,5.6,0a1.423,1.423,0,0,1,1.531,1.527c.028.963.006,1.927.006,2.891m-2.935-1.482h-2.787v2.77h2.787Z" transform="translate(-6482.873 1738.461)" fill="#373737"/>
    <path id="Path_4886" data-name="Path 4886" d="M578.474,233.5c.934,0,1.868-.021,2.8.006a1.418,1.418,0,0,1,1.527,1.529q.038,2.8,0,5.6a1.417,1.417,0,0,1-1.53,1.528q-2.8.037-5.6,0a1.409,1.409,0,0,1-1.525-1.529q-.037-2.8,0-5.6a1.42,1.42,0,0,1,1.529-1.528c.933-.026,1.867-.006,2.8,0m1.373,2.937h-2.763v2.812h2.763Z" transform="translate(-6523.769 1738.453)" fill="#373737"/>
    <path id="Path_4887" data-name="Path 4887" d="M687.963,237.765c0-.873-.012-1.747,0-2.62a1.456,1.456,0,0,1,1.6-1.647q2.756-.03,5.512,0a1.434,1.434,0,0,1,1.559,1.592q.029,2.755,0,5.511a1.435,1.435,0,0,1-1.593,1.558q-2.756.03-5.512,0a1.442,1.442,0,0,1-1.559-1.593c-.021-.933,0-1.867,0-2.8m5.731-1.321h-2.771v2.785h2.771Z" transform="translate(-6610.119 1738.461)" fill="#373737"/>
    <path id="Path_4888" data-name="Path 4888" d="M741.877,237.742c0-.9-.02-1.808.005-2.711a1.415,1.415,0,0,1,1.524-1.531q2.8-.036,5.6,0a1.411,1.411,0,0,1,1.533,1.523q.038,2.8,0,5.6a1.412,1.412,0,0,1-1.524,1.532q-2.8.038-5.6,0a1.416,1.416,0,0,1-1.531-1.525c-.027-.963-.006-1.928-.006-2.891m5.743-1.311h-2.8v2.781h2.8Z" transform="translate(-6651.017 1738.461)" fill="#373737"/>
    <path id="Path_4889" data-name="Path 4889" d="M542.531,305.373c.934,0,1.868-.02,2.8.006a1.422,1.422,0,0,1,1.529,1.529q.038,2.8,0,5.6a1.414,1.414,0,0,1-1.528,1.529q-2.8.037-5.6,0a1.413,1.413,0,0,1-1.528-1.528q-.036-2.8,0-5.6a1.418,1.418,0,0,1,1.527-1.529c.933-.026,1.867-.006,2.8-.007m1.376,2.938h-2.765v2.812h2.765Z" transform="translate(-6496.505 1683.931)" fill="#373737"/>
    <path id="Path_4890" data-name="Path 4890" d="M728.264,305.381c.874,0,1.747-.011,2.621,0,1.136.017,1.676.534,1.687,1.65q.025,2.665,0,5.331a1.473,1.473,0,0,1-1.65,1.686q-2.666.024-5.332,0c-1.134-.009-1.675-.534-1.686-1.649q-.025-2.665,0-5.331c.01-1.169.54-1.674,1.739-1.688.874-.01,1.747,0,2.621,0m1.368,2.952h-2.771v2.786h2.771Z" transform="translate(-6637.38 1683.923)" fill="#373737"/>
    <path id="Path_4891" data-name="Path 4891" d="M623.469,299.572v2.791a4.528,4.528,0,0,0-4.36,4.348h-2.775a7.1,7.1,0,0,1,7.136-7.139" transform="translate(-6555.779 1688.327)" fill="#373737"/>
    <rect id="Rectangle_198" data-name="Rectangle 198" width="2.787" height="2.77" transform="translate(-5959.697 1974.897)" fill="#ffb158"/>
    <rect id="Rectangle_199" data-name="Rectangle 199" width="2.763" height="2.812" transform="translate(-5946.685 1974.892)" fill="#ffb158"/>
    <rect id="Rectangle_200" data-name="Rectangle 200" width="2.771" height="2.785" transform="translate(-5919.195 1974.906)" fill="#ffb158"/>
    <rect id="Rectangle_201" data-name="Rectangle 201" width="2.798" height="2.781" transform="translate(-5906.194 1974.891)" fill="#ffb158"/>
    <rect id="Rectangle_202" data-name="Rectangle 202" width="2.765" height="2.812" transform="translate(-5955.363 1992.242)" fill="#ffb158"/>
    <rect id="Rectangle_203" data-name="Rectangle 203" width="2.771" height="2.786" transform="translate(-5910.519 1992.256)" fill="#ffb158"/>
  </g>
</svg>
