<svg xmlns="http://www.w3.org/2000/svg" width="65.15" height="86.966" viewBox="0 0 65.15 86.966">
  <g id="Group_185" data-name="Group 185" transform="translate(6442 -1913.644)">
    <path id="Path_4892" data-name="Path 4892" d="M42.892,73.682a66.331,66.331,0,0,1,8.063,1.14,36.264,36.264,0,0,1,8.6,2.6c1.879.849,3.736,1.779,4.881,3.61A4.1,4.1,0,0,1,64,86.2c-2.116,2.286-4.889,3.405-7.755,4.39a50.744,50.744,0,0,1-6.812,1.667,5.894,5.894,0,0,1-3.1.29c-.278-.091-.673.246-1.028.307-.662.114-1.454-.044-1.978.1-.954.269-1.886.1-2.8.289a16.046,16.046,0,0,1-2.9.294c-3.421.065-6.848.114-10.266-.01-1.827-.066-3.662-.286-5.489-.454a66.515,66.515,0,0,1-7.527-1.12C10.261,91.1,6.2,90.131,2.713,87.613A6.264,6.264,0,0,1,.054,83.76a3.73,3.73,0,0,1,.654-2.679c1.307-2.089,3.438-3.111,5.608-3.985A34.423,34.423,0,0,1,12.1,75.259c1.748-.366,3.506-.695,5.258-1.036,1.379-.268,2.771-.259,4.141-.494.191-.033.479-.085.531-.208.081-.192-.093-.409-.244-.58-2.674-3.014-5.223-6.131-7.618-9.37a72.918,72.918,0,0,1-4.418-6.238,80.935,80.935,0,0,1-4.2-7.468,35.628,35.628,0,0,1-2.836-8.322,18.71,18.71,0,0,1-.341-5.618c.11-.919-.012-1.91.091-2.878a29.131,29.131,0,0,1,1.507-6.338,28.409,28.409,0,0,1,4.754-8.585,30.412,30.412,0,0,1,7.1-6.551,29.653,29.653,0,0,1,8.586-3.9,23.005,23.005,0,0,1,6.49-.991c.934.022,1.866-.044,2.8-.03A30.012,30.012,0,0,1,52,13.52,31.908,31.908,0,0,1,61.93,28.895a12.943,12.943,0,0,1,.723,3.569c.027,1.5.462,2.962.366,4.444a34.359,34.359,0,0,1-.906,6.254,33.056,33.056,0,0,1-3.622,8.814c-.578.971-.785,2.147-1.6,2.952-.983.967-1.2,2.36-2.044,3.411s-1.539,2.2-2.333,3.285c-1.895,2.585-3.854,5.121-5.912,7.58-1.211,1.447-2.406,2.906-3.706,4.478M32.56,81.111a22.893,22.893,0,0,0,1.556-1.69c2.309-2.709,4.671-5.374,6.993-8.072,2.534-2.945,5.015-5.927,7.363-9.031S52.985,56,55.018,52.7a42.407,42.407,0,0,0,2.8-5.412,26.142,26.142,0,0,0,2.028-6.846,16.347,16.347,0,0,0,.317-3.9c-.113-.991-.175-2.03-.333-3.026-.167-1.049-.257-2.151-.484-3.215a26.262,26.262,0,0,0-3.244-7.81,25.159,25.159,0,0,0-5.49-6.4,26.461,26.461,0,0,0-9.221-5.246,31.745,31.745,0,0,0-9.922-1.4,27.259,27.259,0,0,0-7.627,1.393,25.7,25.7,0,0,0-10.158,6A30.436,30.436,0,0,0,8.691,23.2a25.52,25.52,0,0,0-2.13,4.744,23.587,23.587,0,0,0-1.307,5.547,22.652,22.652,0,0,0-.065,5.745,28.649,28.649,0,0,0,2.7,8.921,83.928,83.928,0,0,0,4.775,8.476c1.557,2.364,3.237,4.644,4.983,6.869,1.869,2.382,3.736,4.769,5.756,7.03,1.274,1.426,2.515,2.88,3.766,4.327q2.7,3.121,5.392,6.257m6.7,9.457c2.215-.19,4.427-.385,6.634-.681a47.7,47.7,0,0,0,9.89-2.141c2.124-.763,4.269-1.508,5.916-3.154.912-.912.774-1.749-.164-2.672a12.741,12.741,0,0,0-5.1-2.721,31.266,31.266,0,0,0-5.619-1.489c-1.456-.209-2.908-.6-4.376-.8-1.822-.242-3.641-.536-5.484-.632-.231-.012-.38-.021-.516.137-.843.983-1.672,1.977-2.521,2.955-1.422,1.637-2.831,3.286-4.294,4.886a1.24,1.24,0,0,1-2.04.032c-.8-.875-1.512-1.824-2.287-2.72q-2.165-2.5-4.366-4.972c-.152-.17-.3-.416-.645-.353-1.273.232-2.569.31-3.852.44A55.732,55.732,0,0,0,11.543,78.3a19.548,19.548,0,0,0-7.084,2.981c-1.858,1.427-2.253,2.137-.317,3.849a14.276,14.276,0,0,0,4.783,2.461,47.029,47.029,0,0,0,10.938,2.411,79.363,79.363,0,0,0,10.125.739c3.089-.054,6.18.023,9.268-.176" transform="translate(-6442 1907)" fill="#373737"/>
    <path id="Path_4893" data-name="Path 4893" d="M48.979,90.233q-2.7-3.137-5.392-6.257c-1.25-1.447-2.492-2.9-3.766-4.327C37.8,77.389,35.934,75,34.064,72.62c-1.746-2.225-3.426-4.505-4.983-6.869a83.927,83.927,0,0,1-4.775-8.476,28.647,28.647,0,0,1-2.7-8.921,22.652,22.652,0,0,1,.065-5.745,23.589,23.589,0,0,1,1.307-5.547,25.52,25.52,0,0,1,2.13-4.744A30.436,30.436,0,0,1,30.1,25.952a25.7,25.7,0,0,1,10.158-6,27.25,27.25,0,0,1,7.627-1.393,31.759,31.759,0,0,1,9.922,1.4,26.462,26.462,0,0,1,9.221,5.246,25.154,25.154,0,0,1,5.49,6.4,26.265,26.265,0,0,1,3.244,7.81c.227,1.064.317,2.165.484,3.215.158,1,.22,2.035.333,3.026a16.345,16.345,0,0,1-.317,3.9,26.139,26.139,0,0,1-2.028,6.846,42.376,42.376,0,0,1-2.8,5.412c-2.033,3.307-4.2,6.518-6.546,9.621s-4.829,6.087-7.363,9.031c-2.322,2.7-4.684,5.363-6.993,8.072a22.844,22.844,0,0,1-1.556,1.69M48.808,70.77a23.75,23.75,0,0,0,7.613-1.134A25.441,25.441,0,0,0,68.4,61.381a24.127,24.127,0,0,0,5.39-14.624,22.836,22.836,0,0,0-1.567-9.1A29.106,29.106,0,0,0,70.184,33.2a22.571,22.571,0,0,0-7.578-7.82,25.3,25.3,0,0,0-10.283-3.849c-2.079-.258-4.167.017-6.221-.37a.228.228,0,0,0-.212.06,4.479,4.479,0,0,1-1.668.508,28.459,28.459,0,0,0-7.306,2.789,24.851,24.851,0,0,0-8.489,7.762c-.47.665-.759,1.414-1.2,2.09a11.365,11.365,0,0,0-1.376,2.8c-.312,1-.369,2.065-.748,3.006a10.334,10.334,0,0,0-.707,3.226,26.637,26.637,0,0,0,.766,9.153,24.788,24.788,0,0,0,8.2,12.565,23.884,23.884,0,0,0,15.446,5.65" transform="translate(-6458.419 1897.878)" fill="#ffe0bc"/>
    <path id="Path_4894" data-name="Path 4894" d="M48.6,317.644c-3.088.2-6.179.122-9.268.176a79.365,79.365,0,0,1-10.125-.739,47.033,47.033,0,0,1-10.938-2.411,14.276,14.276,0,0,1-4.783-2.461c-1.936-1.711-1.541-2.421.317-3.849a19.548,19.548,0,0,1,7.084-2.981,55.732,55.732,0,0,1,8.886-1.617c1.283-.129,2.579-.208,3.852-.44.348-.063.493.182.645.353q2.2,2.469,4.366,4.972c.775.9,1.49,1.845,2.287,2.72a1.24,1.24,0,0,0,2.04-.032c1.462-1.6,2.872-3.249,4.294-4.886.849-.978,1.678-1.972,2.521-2.955.135-.158.284-.149.516-.137,1.842.1,3.662.39,5.484.632,1.468.195,2.92.588,4.376.8a31.264,31.264,0,0,1,5.619,1.489,12.74,12.74,0,0,1,5.1,2.721c.938.923,1.076,1.76.164,2.672-1.647,1.647-3.792,2.391-5.916,3.154a47.7,47.7,0,0,1-9.89,2.142c-2.207.3-4.42.49-6.634.68" transform="translate(-6451.347 1679.925)" fill="#ffb158"/>
    <path id="Path_4895" data-name="Path 4895" d="M58.144,79.223A23.884,23.884,0,0,1,42.7,73.573a24.788,24.788,0,0,1-8.2-12.565,26.631,26.631,0,0,1-.766-9.153,10.327,10.327,0,0,1,.707-3.226c.379-.941.437-2.009.748-3.006a11.351,11.351,0,0,1,1.376-2.8c.443-.676.732-1.425,1.2-2.09a24.851,24.851,0,0,1,8.489-7.762,28.456,28.456,0,0,1,7.306-2.789,4.478,4.478,0,0,0,1.668-.508.228.228,0,0,1,.213-.06c2.054.388,4.142.113,6.221.371A25.3,25.3,0,0,1,71.943,33.83a22.57,22.57,0,0,1,7.578,7.82,29.082,29.082,0,0,1,2.039,4.458,22.836,22.836,0,0,1,1.567,9.1,24.127,24.127,0,0,1-5.39,14.624,25.439,25.439,0,0,1-11.98,8.256,23.75,23.75,0,0,1-7.613,1.134m.209-2.825a21.951,21.951,0,0,0,21.97-21.773,21.957,21.957,0,0,0-7.011-16.233c-3.329-3.37-7.7-4.726-12.126-5.807a11.336,11.336,0,0,0-2.7-.079,21.969,21.969,0,0,0-15.654,6.45,21.627,21.627,0,0,0-6.342,17.379C37.2,66.394,46.111,76.557,58.353,76.4" transform="translate(-6467.755 1889.425)" fill="#373737"/>
    <path id="Path_4896" data-name="Path 4896" d="M67.4,85.734c-12.243.159-21.155-10-21.866-20.063a21.627,21.627,0,0,1,6.342-17.379,21.969,21.969,0,0,1,15.653-6.45,11.347,11.347,0,0,1,2.7.079c4.426,1.081,8.8,2.437,12.126,5.807a21.957,21.957,0,0,1,7.011,16.233A21.951,21.951,0,0,1,67.4,85.734m3.959-26.6-.107-.21c1.355-.64,1.816-1.992,2.294-3.147a9.243,9.243,0,0,0-.178-8.238,4.615,4.615,0,0,0-1.885-2.061,9.878,9.878,0,0,0-5.072-.834,5.893,5.893,0,0,0-4.127,1.837,6.879,6.879,0,0,0-1.718,3.683,10.1,10.1,0,0,0,2.146,8.057c.177.22.506.39.332.728a.928.928,0,0,1-.777.458A17.153,17.153,0,0,0,57.108,61a5.657,5.657,0,0,0-3.461,5.334c.007,3.538,0,7.076,0,10.614,0,1.609.342,1.955,1.936,1.955q11.886,0,23.771,0c1.413,0,1.948-.535,1.949-1.947,0-3.362-.015-6.725.005-10.087.025-4.06-2.523-5.806-5.742-6.753-1.378-.406-2.8-.653-4.205-.973" transform="translate(-6476.806 1880.09)" fill="#cfd8d9"/>
    <path id="Path_4897" data-name="Path 4897" d="M98.036,68.3c1.4.319,2.827.567,4.205.973,3.218.947,5.766,2.693,5.742,6.753-.021,3.362,0,6.725,0,10.087,0,1.412-.536,1.947-1.949,1.947q-11.886,0-23.771,0c-1.595,0-1.936-.346-1.937-1.955,0-3.538.005-7.076,0-10.614a5.656,5.656,0,0,1,3.461-5.334,17.137,17.137,0,0,1,5.161-1.584.929.929,0,0,0,.778-.458c.174-.338-.155-.508-.332-.728a10.1,10.1,0,0,1-2.146-8.056,6.881,6.881,0,0,1,1.719-3.683,5.892,5.892,0,0,1,4.127-1.837,9.881,9.881,0,0,1,5.072.834,4.615,4.615,0,0,1,1.885,2.061,9.241,9.241,0,0,1,.178,8.237c-.478,1.154-.938,2.507-2.293,3.147l.107.21M94.174,85.256c1.463,0,2.927-.04,4.387.017.738.028,1.028-.12.986-.941-.077-1.517-.025-3.041-.02-4.562,0-.7-.013-1.406.041-2.1a1.187,1.187,0,0,1,1.123-1.16,1.7,1.7,0,0,1,1.64,1.854c.012,1.609,0,3.218,0,4.827,0,2.107,0,2.077,2.087,2.087.652,0,.758-.232.752-.811-.028-2.749-.084-5.5.011-8.248a3.8,3.8,0,0,0-2.754-3.936,14.322,14.322,0,0,0-2.949-.771,32.321,32.321,0,0,0-8.854-.339,22.762,22.762,0,0,0-3.866.745c-2.6.763-3.788,1.806-3.658,4.52.127,2.656.056,5.323.009,7.985-.013.723.228.863.888.852,1.962-.032,1.963-.005,1.963-1.945,0-1.638-.007-3.276,0-4.914.007-1.255.384-1.763,1.286-1.779.98-.017,1.508.6,1.521,1.785,0,.175,0,.351,0,.527,0,1.814.027,3.628-.015,5.44-.015.663.127.919.853.889,1.519-.061,3.042-.019,4.563-.019m4-24.506a3.654,3.654,0,0,0-.993-3.116,3.581,3.581,0,0,0-3.122-1.022,9.749,9.749,0,0,0-1.342-.023,3.851,3.851,0,0,0-2.763,3.586,6.684,6.684,0,0,0,1.2,4.87c1.688,2.383,4.015,2.405,5.776.109a6.325,6.325,0,0,0,1.242-4.4" transform="translate(-6503.479 1870.926)" fill="#373737"/>
    <path id="Path_4898" data-name="Path 4898" d="M103.223,141.465c-1.521,0-3.044-.043-4.563.019-.727.029-.869-.226-.854-.889.042-1.813.015-3.627.015-5.441,0-.175,0-.351,0-.527-.013-1.183-.54-1.8-1.52-1.785-.9.015-1.279.524-1.286,1.779-.009,1.638,0,3.276,0,4.914,0,1.94,0,1.913-1.963,1.945-.661.011-.9-.129-.889-.852.047-2.661.118-5.329-.009-7.984-.13-2.715,1.061-3.757,3.658-4.521a22.748,22.748,0,0,1,3.866-.745,32.32,32.32,0,0,1,8.854.339,14.322,14.322,0,0,1,2.949.771,3.8,3.8,0,0,1,2.755,3.936c-.1,2.746-.039,5.5-.012,8.248.006.579-.1.814-.752.811-2.086-.01-2.086.02-2.086-2.087,0-1.609.008-3.218,0-4.827a1.7,1.7,0,0,0-1.64-1.855,1.187,1.187,0,0,0-1.123,1.16c-.054.7-.039,1.4-.041,2.1,0,1.521-.056,3.045.02,4.562.042.821-.248.969-.986.941-1.461-.056-2.925-.017-4.387-.017" transform="translate(-6512.527 1814.717)" fill="#889ea0"/>
    <path id="Path_4899" data-name="Path 4899" d="M129.416,69.811a6.326,6.326,0,0,1-1.242,4.4c-1.76,2.3-4.087,2.274-5.776-.109a6.684,6.684,0,0,1-1.2-4.87,3.851,3.851,0,0,1,2.763-3.586,9.75,9.75,0,0,1,1.342.023,3.581,3.581,0,0,1,3.122,1.022,3.654,3.654,0,0,1,.993,3.116" transform="translate(-6534.716 1861.864)" fill="#ffb158"/>
  </g>
</svg>
