<svg xmlns="http://www.w3.org/2000/svg" width="86.924" height="86.902" viewBox="0 0 86.924 86.902">
  <g id="Group_188" data-name="Group 188" transform="translate(4976.42 -1907)">
    <path id="Path_4830" data-name="Path 4830" d="M1508.342,0h1.357a3.619,3.619,0,0,0,.453.189q9.117,2.457,18.236,4.907a2.922,2.922,0,0,1,1.311,5.085,1.376,1.376,0,0,0-.394.849c-.044,1.158-.009,2.318-.021,3.478a2.076,2.076,0,0,0,.74,1.717,1.442,1.442,0,1,1-1.889,2.167,4.5,4.5,0,0,1-1.749-3.777c0-1.041,0-2.082,0-3.225-.808.211-1.5.436-2.214.564-.57.1-.7.383-.7.925.026,2.658.032,5.317,0,7.975-.009.686.077,1.141.828,1.411a4.072,4.072,0,0,1,1.339,1.009c2.175,2.145,4.294,4.347,6.5,6.455.993.947,1.747,1.905,1.516,3.362-.007.04.055.091.127.2h.878c2.8,0,5.6.007,8.4,0a4.512,4.512,0,0,1,4.408,2.718c.976,2.006,2.032,3.975,2.963,6a5.838,5.838,0,0,1,.552,2.337q.053,15.95.017,31.9a1.967,1.967,0,0,0,.505,1.337,5.224,5.224,0,0,1,.921,2.1,10.607,10.607,0,0,1,.034,2.2c0,2.518-1.029,3.55-3.546,3.551-5.911,0-11.821-.01-17.731.023a3.5,3.5,0,0,0-1.232.495c-.678.3-1.344.635-2.029.922a1.634,1.634,0,0,1-.589.015q-18.326,0-36.651.007a3.012,3.012,0,0,1-2.534-.917,1.489,1.489,0,0,0-1.316-.552c-5.882.013-11.765-.025-17.646.028-1.776.016-3-.59-3.606-2.3V78.906a4.686,4.686,0,0,1,.835-1.231,1.759,1.759,0,0,0,.626-1.627q-.015-15.941.013-31.882a4.948,4.948,0,0,1,.473-2.018c.956-2.045,2.019-4.039,3-6.072a4.6,4.6,0,0,1,4.535-2.791c2.8.023,5.6.006,8.394.006h1.043c-.512-1.715.51-2.7,1.411-3.766,1.573-1.853,3.152-3.7,4.663-5.6a4.988,4.988,0,0,1,3.869-2.216c.046-.1.09-.148.09-.2.009-2.967.028-5.935-.006-8.9,0-.212-.354-.536-.6-.609-1.406-.418-2.829-.774-4.246-1.154a2.925,2.925,0,0,1-.014-5.742c4.06-1.087,8.124-2.16,12.182-3.261,2.171-.589,4.331-1.223,6.5-1.836m16.567,44.942h-31.776V76.674h8.633V75.616q0-7.845,0-15.69c0-1.555.467-2.017,2.034-2.018q5.173,0,10.346,0c1.684,0,2.125.435,2.125,2.1q0,7.845,0,15.69v.964h8.635Zm2.992,31.742h20.145V44.943H1527.9Zm-57.908,0h20.148V44.945h-20.148Zm19.014-46.35h39.546c-1.821-1.837-3.547-3.614-5.325-5.338a1.814,1.814,0,0,0-1.165-.371q-13.692-.03-27.385.005a1.886,1.886,0,0,0-1.28.493c-1.474,1.664-2.873,3.394-4.39,5.211m38.454-22.269V7.882c-.1-.036-.207-.078-.313-.107q-8.87-2.385-17.744-4.758a1.831,1.831,0,0,0-.9.031q-6.751,1.787-13.5,3.6c-1.492.4-2.981.817-4.666,1.28.317.124.415.174.519.2,5.777,1.556,11.551,3.121,17.336,4.645a3.533,3.533,0,0,0,1.71-.006c3.661-.946,7.308-1.947,10.959-2.93l6.59-1.775m-29.975,13.6h23.054v-8.7c-.3.073-.55.126-.792.191-3.161.845-6.311,1.732-9.489,2.508a5.394,5.394,0,0,1-2.472-.012c-3.177-.779-6.328-1.666-9.489-2.508-.255-.068-.52-.1-.811-.153ZM1527.793,79.7h-37.532V83.97h37.532Zm-23.129-3.032h8.637a1.71,1.71,0,0,0,.067-.3c0-4.973,0-9.947.018-14.921,0-.559-.246-.647-.719-.644-2.374.015-4.748.033-7.121-.01-.713-.013-.9.209-.9.907.029,4.55.015,9.1.015,13.649Zm-17.319-40.538h43.325V33.335h-43.325Zm2.872,5.785h37.58V39.155h-37.58Zm40.563.008h16.4c-.792-1.585-1.561-3.056-2.263-4.558a1.891,1.891,0,0,0-1.94-1.188c-2.855.027-5.71.009-8.565.012-.245,0-.49.029-.744.046a3.041,3.041,0,0,1-2.889,2.9Zm-59.929,0h16.408V39.125a3.068,3.068,0,0,1-2.918-2.933c-3.264,0-6.484-.023-9.7.029a1.61,1.61,0,0,0-1.192.644c-.908,1.617-1.707,3.3-2.6,5.054m-2.339,40.55h18.717V79.685h-18.717Zm81.031-2.773h-18.754v2.762h18.754Z" transform="translate(-6442 1907)" fill="#373737"/>
    <path id="Path_4831" data-name="Path 4831" d="M1618.9,198.247v31.718h-8.635V229q0-7.845,0-15.69c0-1.664-.441-2.1-2.125-2.1q-5.173,0-10.347,0c-1.566,0-2.033.463-2.034,2.018q0,7.845,0,15.69v1.058h-8.633V198.247Zm-21.663,5.733h-.006q0,.677,0,1.355c0,.056,0,.113.005.169a1.463,1.463,0,0,0,1.361,1.375,1.4,1.4,0,0,0,1.48-1.236,26.288,26.288,0,0,0,0-3.3,1.348,1.348,0,0,0-1.471-1.226,1.369,1.369,0,0,0-1.367,1.338c-.034.506-.006,1.016-.006,1.524m11.55.047h.005q0-.678,0-1.355c0-.056,0-.113,0-.169a1.391,1.391,0,0,0-1.33-1.382,1.363,1.363,0,0,0-1.525,1.26,28.079,28.079,0,0,0,0,3.217,1.414,1.414,0,0,0,1.442,1.285,1.448,1.448,0,0,0,1.406-1.416c.028-.478.005-.96.005-1.44" transform="translate(-6535.99 1753.695)" fill="#cfd8d9"/>
    <path id="Path_4832" data-name="Path 4832" d="M1740.494,198.256h20.145V230h-20.145Zm13,7.133c0,.508-.022,1.018.005,1.525a1.371,1.371,0,0,0,1.309,1.395,1.336,1.336,0,0,0,1.51-1.173,22.875,22.875,0,0,0,0-3.38,1.381,1.381,0,0,0-1.5-1.207,1.423,1.423,0,0,0-1.322,1.4c-.028.478-.005.96-.006,1.44m2.882,8.684h-.006c0-.48.035-.963-.008-1.438a1.448,1.448,0,0,0-1.514-1.4,1.422,1.422,0,0,0-1.35,1.459c-.027.931-.025,1.863,0,2.794a1.39,1.39,0,0,0,1.375,1.506,1.427,1.427,0,0,0,1.5-1.485c.029-.478.005-.959.005-1.439m-8.72-8.63h-.015a12.586,12.586,0,0,0-.015-1.688,1.41,1.41,0,0,0-2.8.111c-.052,1.041-.053,2.089,0,3.13a1.336,1.336,0,0,0,1.381,1.315,1.363,1.363,0,0,0,1.439-1.263,13.721,13.721,0,0,0,.012-1.605m5.84,17.385h0c0,.48-.02.96,0,1.439a1.432,1.432,0,0,0,1.371,1.441,1.391,1.391,0,0,0,1.464-1.251,23.957,23.957,0,0,0,0-3.3,1.336,1.336,0,0,0-1.48-1.212,1.37,1.37,0,0,0-1.347,1.356c-.031.506-.006,1.016-.006,1.524m-5.826-8.713a15.094,15.094,0,0,0-.009-1.522,1.436,1.436,0,0,0-1.459-1.358,1.407,1.407,0,0,0-1.389,1.42c-.041.985-.042,1.975,0,2.961a1.362,1.362,0,0,0,1.407,1.383,1.391,1.391,0,0,0,1.44-1.362c.049-.5.009-1.014.008-1.522m-2.853,8.618c0,.564-.041,1.131.01,1.69a1.393,1.393,0,0,0,1.341,1.286,1.337,1.337,0,0,0,1.44-1.162,22.615,22.615,0,0,0,0-3.457,1.258,1.258,0,0,0-1.437-1.141,1.344,1.344,0,0,0-1.345,1.262c-.049.5-.009,1.014-.009,1.521" transform="translate(-6654.593 1753.688)" fill="#cfd8d9"/>
    <path id="Path_4833" data-name="Path 4833" d="M1485.046,198.263h20.148V230h-20.148Zm7.15,7.192h0c0-.508.026-1.018-.006-1.525a1.42,1.42,0,0,0-1.346-1.378,1.393,1.393,0,0,0-1.483,1.232,23.955,23.955,0,0,0,0,3.3,1.362,1.362,0,0,0,1.551,1.229,1.377,1.377,0,0,0,1.287-1.418c.025-.479,0-.96,0-1.44m0,8.772h0c0-.536.026-1.074-.006-1.608a1.415,1.415,0,0,0-1.347-1.375,1.382,1.382,0,0,0-1.481,1.229,24.438,24.438,0,0,0,0,3.3,1.349,1.349,0,0,0,1.465,1.234,1.383,1.383,0,0,0,1.373-1.422c.024-.45,0-.9,0-1.354m0,8.558c0-.48.022-.961-.005-1.439a1.368,1.368,0,0,0-1.314-1.389,1.337,1.337,0,0,0-1.509,1.175,23.185,23.185,0,0,0,0,3.38,1.372,1.372,0,0,0,1.5,1.2,1.422,1.422,0,0,0,1.32-1.4c.029-.506.006-1.016.006-1.524m8.685-17.346c0-.508.034-1.019-.008-1.523a1.414,1.414,0,0,0-1.358-1.365,1.376,1.376,0,0,0-1.459,1.249,24.412,24.412,0,0,0,0,3.3,1.324,1.324,0,0,0,1.465,1.222,1.369,1.369,0,0,0,1.351-1.355c.04-.5.007-1.015.006-1.523m-.007,8.757h-.005c0-.564.044-1.132-.01-1.69a1.385,1.385,0,0,0-1.359-1.264,1.344,1.344,0,0,0-1.426,1.181,24.435,24.435,0,0,0-.011,3.376A1.325,1.325,0,0,0,1499.54,217a1.352,1.352,0,0,0,1.325-1.286c.047-.5.009-1.014.009-1.522m0,8.7h.021q0-.72,0-1.439a1.472,1.472,0,0,0-.013-.169,1.4,1.4,0,0,0-1.37-1.34,1.336,1.336,0,0,0-1.456,1.235,24.624,24.624,0,0,0,0,3.293,1.411,1.411,0,0,0,2.8-.059c.047-.5.009-1.014.009-1.521" transform="translate(-6457.053 1753.682)" fill="#cfd8d9"/>
    <path id="Path_4834" data-name="Path 4834" d="M1568.92,114.291c1.516-1.817,2.916-3.547,4.389-5.211a1.887,1.887,0,0,1,1.281-.493q13.692-.041,27.385-.005a1.814,1.814,0,0,1,1.165.371c1.778,1.724,3.5,3.5,5.325,5.338Z" transform="translate(-6521.913 1823.045)" fill="#889ea0"/>
    <path id="Path_4835" data-name="Path 4835" d="M1611.942,18.216l-6.59,1.775c-3.652.983-7.3,1.983-10.96,2.93a3.533,3.533,0,0,1-1.71.006c-5.785-1.524-11.559-3.089-17.336-4.645-.1-.028-.2-.078-.519-.2,1.685-.463,3.174-.879,4.666-1.28q6.746-1.81,13.5-3.6a1.827,1.827,0,0,1,.9-.031q8.877,2.362,17.744,4.757c.106.029.209.071.314.107v.185" transform="translate(-6526.481 1896.851)" fill="#ffb158"/>
    <path id="Path_4836" data-name="Path 4836" d="M1606.323,65.915V57.241c.291.054.556.085.811.153,3.161.842,6.312,1.729,9.489,2.508a5.4,5.4,0,0,0,2.473.012c3.177-.776,6.328-1.663,9.489-2.508.243-.065.488-.118.793-.191v8.7Z" transform="translate(-6550.837 1862.755)" fill="#ffb158"/>
    <rect id="Rectangle_189" data-name="Rectangle 189" width="37.532" height="4.271" transform="translate(-4951.739 1986.698)" fill="#889ea0"/>
    <path id="Path_4837" data-name="Path 4837" d="M1637.939,284.029v-1.322c0-4.55.014-9.1-.015-13.649,0-.7.183-.919.9-.907,2.373.042,4.747.024,7.121.009.473,0,.721.086.719.644-.019,4.973-.013,9.947-.018,14.921a1.694,1.694,0,0,1-.067.3Z" transform="translate(-6575.274 1699.638)" fill="#ffe0bc"/>
    <rect id="Rectangle_190" data-name="Rectangle 190" width="43.325" height="2.794" transform="translate(-4954.654 1940.334)" fill="#889ea0"/>
    <rect id="Rectangle_191" data-name="Rectangle 191" width="37.58" height="2.759" transform="translate(-4951.782 1946.155)" fill="#889ea0"/>
    <path id="Path_4838" data-name="Path 4838" d="M1753.2,165.326v-2.788a3.041,3.041,0,0,0,2.889-2.9c.254-.016.5-.045.744-.046,2.855,0,5.71.015,8.565-.012a1.891,1.891,0,0,1,1.94,1.188c.7,1.5,1.471,2.973,2.263,4.558Z" transform="translate(-6664.415 1783.596)" fill="#889ea0"/>
    <path id="Path_4839" data-name="Path 4839" d="M1488.833,165.357c.889-1.758,1.687-3.437,2.6-5.054a1.612,1.612,0,0,1,1.192-.644c3.219-.052,6.439-.029,9.7-.029a3.068,3.068,0,0,0,2.918,2.933v2.794Z" transform="translate(-6459.981 1783.561)" fill="#889ea0"/>
    <rect id="Rectangle_192" data-name="Rectangle 192" width="18.717" height="2.783" transform="translate(-4973.488 1986.685)" fill="#889ea0"/>
    <rect id="Rectangle_193" data-name="Rectangle 193" width="18.754" height="2.762" transform="translate(-4911.212 1986.695)" fill="#889ea0"/>
    <path id="Path_4840" data-name="Path 4840" d="M1631.7,213.772c0-.508-.028-1.018.006-1.524a1.369,1.369,0,0,1,1.367-1.338,1.348,1.348,0,0,1,1.471,1.226,26.239,26.239,0,0,1,0,3.3,1.4,1.4,0,0,1-1.48,1.236,1.463,1.463,0,0,1-1.361-1.375c-.005-.056-.006-.113-.006-.169q0-.678,0-1.355h.006" transform="translate(-6570.451 1743.903)" fill="#373737"/>
    <path id="Path_4841" data-name="Path 4841" d="M1672.792,213.819c0,.48.023.961-.005,1.44a1.448,1.448,0,0,1-1.406,1.416,1.415,1.415,0,0,1-1.442-1.285,28.024,28.024,0,0,1,0-3.217,1.363,1.363,0,0,1,1.525-1.26,1.391,1.391,0,0,1,1.33,1.382c0,.056.005.113.005.169q0,.678,0,1.355Z" transform="translate(-6599.995 1743.903)" fill="#373737"/>
    <path id="Path_4842" data-name="Path 4842" d="M1797.8,220.016c0-.48-.023-.961.005-1.44a1.423,1.423,0,0,1,1.322-1.4,1.381,1.381,0,0,1,1.5,1.207,22.822,22.822,0,0,1,0,3.38,1.336,1.336,0,0,1-1.51,1.173,1.372,1.372,0,0,1-1.309-1.395c-.027-.507-.005-1.016,0-1.525" transform="translate(-6698.899 1739.061)" fill="#373737"/>
    <path id="Path_4843" data-name="Path 4843" d="M1800.655,258.353c0,.48.024.961-.005,1.439a1.427,1.427,0,0,1-1.5,1.486,1.39,1.39,0,0,1-1.375-1.506c-.022-.931-.024-1.863,0-2.794a1.422,1.422,0,0,1,1.35-1.459,1.448,1.448,0,0,1,1.514,1.4c.043.476.008.959.008,1.439h.006" transform="translate(-6698.874 1709.408)" fill="#373737"/>
    <path id="Path_4844" data-name="Path 4844" d="M1762.286,220.1a13.72,13.72,0,0,1-.012,1.605,1.363,1.363,0,0,1-1.439,1.263,1.336,1.336,0,0,1-1.381-1.315c-.052-1.041-.051-2.089,0-3.13a1.41,1.41,0,0,1,2.8-.111,12.583,12.583,0,0,1,.015,1.688h.015" transform="translate(-6669.225 1739.034)" fill="#373737"/>
    <path id="Path_4845" data-name="Path 4845" d="M1797.8,296.822c0-.508-.026-1.018.006-1.524a1.37,1.37,0,0,1,1.347-1.356,1.336,1.336,0,0,1,1.48,1.212,23.938,23.938,0,0,1,0,3.3,1.391,1.391,0,0,1-1.464,1.251,1.432,1.432,0,0,1-1.371-1.44c-.024-.479,0-.959,0-1.439h0" transform="translate(-6698.898 1679.694)" fill="#373737"/>
    <path id="Path_4846" data-name="Path 4846" d="M1762.286,258.392c0,.508.04,1.019-.009,1.522a1.391,1.391,0,0,1-1.44,1.362,1.362,1.362,0,0,1-1.407-1.383c-.044-.985-.043-1.975,0-2.961a1.407,1.407,0,0,1,1.389-1.42,1.436,1.436,0,0,1,1.459,1.358c.051.5.009,1.014.01,1.522" transform="translate(-6669.209 1709.411)" fill="#373737"/>
    <path id="Path_4847" data-name="Path 4847" d="M1759.5,296.737c0-.507-.039-1.019.009-1.521a1.344,1.344,0,0,1,1.345-1.261,1.258,1.258,0,0,1,1.437,1.141,22.646,22.646,0,0,1,0,3.457,1.336,1.336,0,0,1-1.44,1.162,1.393,1.393,0,0,1-1.341-1.286c-.051-.559-.01-1.127-.01-1.69" transform="translate(-6669.278 1679.684)" fill="#373737"/>
    <path id="Path_4848" data-name="Path 4848" d="M1506.7,220.079c0,.48.02.961,0,1.44a1.377,1.377,0,0,1-1.286,1.417,1.361,1.361,0,0,1-1.551-1.229,23.913,23.913,0,0,1,0-3.3,1.394,1.394,0,0,1,1.484-1.232,1.42,1.42,0,0,1,1.346,1.378c.032.506.006,1.016.006,1.524h0" transform="translate(-6471.561 1739.058)" fill="#373737"/>
    <path id="Path_4849" data-name="Path 4849" d="M1506.709,258.5c0,.452.02.9,0,1.354a1.384,1.384,0,0,1-1.373,1.422,1.349,1.349,0,0,1-1.465-1.234,24.479,24.479,0,0,1,0-3.3,1.382,1.382,0,0,1,1.482-1.228,1.415,1.415,0,0,1,1.346,1.374c.032.534.006,1.072.006,1.608h0" transform="translate(-6471.566 1709.408)" fill="#373737"/>
    <path id="Path_4850" data-name="Path 4850" d="M1506.719,296.772c0,.508.023,1.017-.005,1.524a1.422,1.422,0,0,1-1.32,1.4,1.372,1.372,0,0,1-1.5-1.2,23.12,23.12,0,0,1,0-3.38,1.337,1.337,0,0,1,1.509-1.175,1.368,1.368,0,0,1,1.314,1.39c.028.478.005.959,0,1.439" transform="translate(-6471.578 1679.695)" fill="#373737"/>
    <path id="Path_4851" data-name="Path 4851" d="M1545.075,220.06c0,.508.033,1.019-.008,1.523a1.369,1.369,0,0,1-1.351,1.355,1.324,1.324,0,0,1-1.465-1.222,24.492,24.492,0,0,1,0-3.3,1.377,1.377,0,0,1,1.459-1.249,1.414,1.414,0,0,1,1.358,1.365c.042.5.008,1.015.009,1.523" transform="translate(-6501.247 1739.061)" fill="#373737"/>
    <path id="Path_4852" data-name="Path 4852" d="M1545.091,258.465c0,.508.038,1.019-.009,1.522a1.352,1.352,0,0,1-1.324,1.286,1.325,1.325,0,0,1-1.478-1.206,24.3,24.3,0,0,1,.011-3.376,1.343,1.343,0,0,1,1.425-1.181,1.384,1.384,0,0,1,1.359,1.264c.054.558.011,1.126.011,1.69h0" transform="translate(-6501.272 1709.413)" fill="#373737"/>
    <path id="Path_4853" data-name="Path 4853" d="M1545.066,296.883c0,.507.038,1.018-.009,1.521a1.411,1.411,0,0,1-2.8.059,24.584,24.584,0,0,1,0-3.293,1.336,1.336,0,0,1,1.456-1.235,1.4,1.4,0,0,1,1.37,1.34,1.444,1.444,0,0,1,.013.169c0,.479,0,.959,0,1.439h-.021" transform="translate(-6501.247 1679.699)" fill="#373737"/>
  </g>
</svg>
