<svg xmlns="http://www.w3.org/2000/svg" xmlns:xlink="http://www.w3.org/1999/xlink" width="1640" height="69" viewBox="0 0 1640 69">
  <defs>
    <clipPath id="clip-path">
      <rect id="Rectangle_868" data-name="Rectangle 868" width="1640" height="69" transform="translate(-1916 5568)" fill="#123e43"/>
    </clipPath>
  </defs>
  <g id="Group_478" data-name="Group 478" transform="translate(-140 -4800)">
    <rect id="Rectangle_922" data-name="Rectangle 922" width="1640" height="69" transform="translate(140 4800)" fill="#0c5e54"/>
    <g id="Mask_Group_22" data-name="Mask Group 22" transform="translate(2056 -768)" opacity="0.52" clip-path="url(#clip-path)">
      <path id="Path_6104" data-name="Path 6104" d="M682.535,252.049a1.385,1.385,0,0,0,1.367-1.185h25.676a1.384,1.384,0,1,0,2.476-1.026L722.3,239.6a1.375,1.375,0,0,0,2.19-.908h78.435a1.375,1.375,0,0,0,2.19.908l10.24,10.241a1.373,1.373,0,0,0-.276.824,1.384,1.384,0,0,0,2.754.2H843.5a1.387,1.387,0,1,0,0-.4H817.829a1.377,1.377,0,0,0-2.191-.908L805.4,239.31a1.383,1.383,0,1,0-2.477-1.027H724.486a1.384,1.384,0,1,0-2.477,1.027l-10.242,10.241a1.376,1.376,0,0,0-2.189.908H683.9a1.385,1.385,0,1,0-1.367,1.59m121.752-12.581a.983.983,0,0,1-.959-.779h.875l.618.619a.975.975,0,0,1-.534.16m0-1.963a.982.982,0,0,1,.981.981.97.97,0,0,1-.16.535l-.737-.738h-1.044a.984.984,0,0,1,.96-.778m-81.168,1.963a.972.972,0,0,1-.533-.16l.617-.619h.876a.983.983,0,0,1-.96.779m0-1.963a.985.985,0,0,1,.961.778h-1.045l-.736.738a.963.963,0,0,1-.161-.535.982.982,0,0,1,.981-.981" transform="translate(-1864.121 5209.165)" fill="#fff"/>
      <path id="Path_6105" data-name="Path 6105" d="M1461.746,334.5a1.379,1.379,0,0,0-1.365,1.183h-33.793a1.385,1.385,0,0,0-1.165-1.164V158.686a1.385,1.385,0,1,0-1.568-1.57H1337.3a1.384,1.384,0,1,0-1.568,1.57V396.918a11.989,11.989,0,0,0-8.068,3.287l0-1.815-1.141-1.14v4.185a11.992,11.992,0,0,0-2.615,7.3h-39.367a1.384,1.384,0,0,0-1.165-1.164V357.546a1.384,1.384,0,1,0-1.57-1.57h-22.451l-4.287-4.285a.608.608,0,0,0-.859.861l3.423,3.424h-15.195a12,12,0,0,0-3.289-8.066h1.816l1.139-1.139h-4.185a11.978,11.978,0,0,0-7.3-2.613V272.321a1.385,1.385,0,1,0-1.57-1.57H1204.57l-4.285-4.287a.609.609,0,0,0-.862.861l3.426,3.426h-17.226a12,12,0,0,0-3.288-8.067h1.815l1.139-1.139H1181.1a11.988,11.988,0,0,0-7.3-2.614V199.269a1.384,1.384,0,1,0-1.569-1.57H1069.449a1.384,1.384,0,1,0-1.569,1.571V384.742a12,12,0,0,0-8.068,3.287v-1.815l-1.14-1.14v4.185a11.985,11.985,0,0,0-2.614,7.3h-47.485a1.379,1.379,0,0,0-1.163-1.164V337.255a1.384,1.384,0,1,0-1.57-1.57H962.408a12,12,0,0,0-3.284-7.863h1.815l1.139-1.141h-4.184a11.986,11.986,0,0,0-7.3-2.613v-27.4a1.384,1.384,0,1,0-1.568-1.57H854.354a1.384,1.384,0,1,0-1.569,1.57v94.668a1.379,1.379,0,0,0-1.164,1.165H831.2l-4.287-4.288a.609.609,0,1,0-.861.862l3.425,3.426H816.31a12,12,0,0,0-3.289-8.069h1.817l1.138-1.138h-4.184a11.978,11.978,0,0,0-7.3-2.614V252.028a1.384,1.384,0,1,0-1.569-1.569H724.486a1.384,1.384,0,1,0-1.57,1.569v82.493a1.381,1.381,0,0,0-1.163,1.164H666.146a11.994,11.994,0,0,0-3.285-7.863h1.816l1.139-1.141h-4.185a11.978,11.978,0,0,0-7.3-2.613V308.846a1.384,1.384,0,1,0-1.571-1.57H480.982a1.387,1.387,0,1,0,0,.406H652.759a1.382,1.382,0,0,0,1.164,1.164v15.222a12.006,12.006,0,0,0-8.067,3.287v-1.814l-1.14-1.139v4.184a11.993,11.993,0,0,0-2.608,7.1H480.982a1.387,1.387,0,1,0,0,.406H642.1a12.006,12.006,0,0,0,3.293,8.27h-1.815l-1.14,1.139h4.186a11.992,11.992,0,0,0,7.3,2.615v43.224a1.384,1.384,0,1,0,1.57,1.569h136.77a12.01,12.01,0,0,0,3.289,8.068h-1.814l-1.141,1.139h4.186a11.992,11.992,0,0,0,7.3,2.615v47.484a1.384,1.384,0,1,0,1.57,1.571h90.609a1.384,1.384,0,1,0,1.57-1.571V337.255A1.379,1.379,0,0,0,899,336.091h25.853l-3.426,3.424a.61.61,0,0,0,.862.862l4.285-4.286h11.793a12.014,12.014,0,0,0,3.291,8.27H939.84L938.7,345.5h4.184a12,12,0,0,0,7.3,2.615v79.75a1.384,1.384,0,1,0,1.57,1.568h114.96a1.384,1.384,0,1,0,1.569-1.568V408.787a12.01,12.01,0,0,0,8.068-3.287l0,1.814,1.141,1.139v-4.184a11.984,11.984,0,0,0,2.613-7.3h15.2l-3.424,3.426a.609.609,0,0,0,.86.862l4.286-4.288h22.451a1.384,1.384,0,1,0,1.571-1.568V272.321a1.384,1.384,0,0,0,1.164-1.165h39.369a12,12,0,0,0,3.287,8.067h-1.815l-1.139,1.14h4.184a11.993,11.993,0,0,0,7.3,2.614v71.837a1.384,1.384,0,1,0,1.568,1.568H1218.4a12,12,0,0,0,3.288,8.067h-1.814l-1.141,1.14h4.186a11.987,11.987,0,0,0,7.3,2.616V488.74a1.384,1.384,0,1,0,1.571,1.57H1334.57a1.384,1.384,0,1,0,1.568-1.57V420.963a12.007,12.007,0,0,0,8.069-3.29v1.815l1.138,1.141v-4.184a12,12,0,0,0,2.616-7.3h75.894a1.387,1.387,0,1,0,0-.406h-75.9a12.007,12.007,0,0,0-3.287-8.066h1.814l1.139-1.139-4.184,0a12,12,0,0,0-7.3-2.613V158.686a1.379,1.379,0,0,0,1.164-1.164h86.553a1.38,1.38,0,0,0,1.162,1.164V334.521a1.384,1.384,0,1,0,1.571,1.57h33.793a1.383,1.383,0,1,0,1.365-1.589m-134.764,67.306h4.1l-1.141-1.138h-1.916a11.4,11.4,0,0,1,7.7-3.161v7.483a3.95,3.95,0,0,0-3.744,3.744h-7.483a11.416,11.416,0,0,1,2.475-6.928m-2.475,7.334h7.483a3.95,3.95,0,0,0,3.744,3.744v7.483a11.406,11.406,0,0,1-6.928-2.475l0-4.1-1.138,1.138v1.918a11.392,11.392,0,0,1-3.159-7.7m-86.959-61.916v4.1l1.141-1.141v-1.916a11.4,11.4,0,0,1,3.158,7.7h-7.482a3.952,3.952,0,0,0-3.744-3.744v-7.48a11.379,11.379,0,0,1,6.927,2.474m-1.14,17.225h1.918a11.409,11.409,0,0,1-7.705,3.158v-7.482a3.949,3.949,0,0,0,3.744-3.745h7.482a11.409,11.409,0,0,1-2.474,6.928l-4.1,0Zm-11.981-16.541h-1.918a11.391,11.391,0,0,1,7.7-3.158v7.48a3.955,3.955,0,0,0-3.744,3.744h-7.481a11.4,11.4,0,0,1,2.475-6.928h4.1ZM1180.732,262v4.1l1.139-1.14v-1.916a11.4,11.4,0,0,1,3.158,7.7h-7.482a3.951,3.951,0,0,0-3.744-3.745v-7.481a11.4,11.4,0,0,1,6.929,2.474m-1.141,17.225h1.916a11.4,11.4,0,0,1-7.7,3.159V274.9a3.952,3.952,0,0,0,3.744-3.745h7.482a11.4,11.4,0,0,1-2.474,6.928h-4.1Zm-11.982-16.541h-1.916a11.406,11.406,0,0,1,7.7-3.159v7.482a3.953,3.953,0,0,0-3.745,3.745h-7.481a11.4,11.4,0,0,1,2.474-6.928h4.1Zm-91.256,128.09v-1.916a11.4,11.4,0,0,1,3.158,7.705h-7.482a3.949,3.949,0,0,0-3.744-3.744v-7.482a11.388,11.388,0,0,1,6.929,2.474v4.1Zm-17.225-1.141h4.1l-1.139-1.138h-1.917a11.389,11.389,0,0,1,7.706-3.158v7.482a3.953,3.953,0,0,0-3.746,3.744h-7.48a11.4,11.4,0,0,1,2.474-6.93m-2.475,7.334h7.481a3.956,3.956,0,0,0,3.746,3.747v7.48a11.388,11.388,0,0,1-6.929-2.473v-4.1l-1.14,1.138v1.916a11.4,11.4,0,0,1-3.158-7.7m-99.132-69.83v4.1l1.139-1.141v-1.914a11.393,11.393,0,0,1,3.158,7.5h-7.482a3.951,3.951,0,0,0-3.745-3.744v-7.279a11.413,11.413,0,0,1,6.93,2.474m-1.14,17.225H958.3a11.409,11.409,0,0,1-7.706,3.16v-7.685a3.951,3.951,0,0,0,3.745-3.745h7.482a11.393,11.393,0,0,1-2.474,7.129l-4.1,0ZM944.4,327.82h-1.916a11.405,11.405,0,0,1,7.7-3.158v7.279a3.954,3.954,0,0,0-3.745,3.744h-7.48a11.392,11.392,0,0,1,2.474-6.724l4.1,0ZM811.419,383.752v4.1l1.139-1.141V384.8a11.411,11.411,0,0,1,3.158,7.706h-7.482a3.95,3.95,0,0,0-3.744-3.745v-7.482a11.4,11.4,0,0,1,6.929,2.475m-1.141,17.224H812.2a11.39,11.39,0,0,1-7.705,3.158v-7.48a3.953,3.953,0,0,0,3.744-3.746h7.482a11.406,11.406,0,0,1-2.474,6.928l-4.1,0ZM798.3,384.435H796.38a11.4,11.4,0,0,1,7.7-3.158v7.482a3.952,3.952,0,0,0-3.744,3.745h-7.481a11.39,11.39,0,0,1,2.474-6.93h4.1Zm-137.04-57.3v4.1L662.4,330.1v-1.914a11.4,11.4,0,0,1,3.158,7.5h-7.482a3.953,3.953,0,0,0-3.744-3.744v-7.279a11.4,11.4,0,0,1,6.927,2.474m-1.14,17.225h1.917a11.406,11.406,0,0,1-7.7,3.16v-7.685a3.953,3.953,0,0,0,3.744-3.745h7.482a11.4,11.4,0,0,1-2.474,7.129l-4.1,0Zm-14.945-15.4,4.1,0-1.139-1.139h-1.918a11.415,11.415,0,0,1,7.7-3.158v7.279a3.951,3.951,0,0,0-3.744,3.744H642.7a11.4,11.4,0,0,1,2.474-6.724M647,345.046v-4.1l-1.139,1.139V344a11.408,11.408,0,0,1-3.158-7.907h7.482a3.953,3.953,0,0,0,3.744,3.745v7.685A11.4,11.4,0,0,1,647,345.046m7.334,46.293V348.115a12.012,12.012,0,0,0,8.068-3.289l0,1.814,1.14,1.141V343.6a11.993,11.993,0,0,0,2.616-7.5h55.6a1.384,1.384,0,1,0,1.569-1.57V252.028a1.381,1.381,0,0,0,1.164-1.164h78.435a1.378,1.378,0,0,0,1.163,1.164V380.683a12,12,0,0,0-8.067,3.287v-1.814l-1.138-1.141,0,4.186a11.991,11.991,0,0,0-2.614,7.3H655.493a1.379,1.379,0,0,0-1.163-1.165m142.826,10.323v-4.1l-1.14,1.139v1.916a11.414,11.414,0,0,1-3.158-7.705h7.483a3.953,3.953,0,0,0,3.744,3.746v7.48a11.405,11.405,0,0,1-6.928-2.472M922.285,331.4a.608.608,0,0,0-.862.859l3.426,3.426H899a1.384,1.384,0,1,0-1.569,1.57V452.214a1.382,1.382,0,0,0-1.164,1.165H805.654a1.384,1.384,0,0,0-1.164-1.165V404.728a12,12,0,0,0,8.068-3.287l0,1.814,1.14,1.139v-4.183a11.984,11.984,0,0,0,2.613-7.3h13.166l-3.425,3.426a.608.608,0,0,0,.431,1.039.6.6,0,0,0,.43-.178l4.287-4.287h20.422a1.384,1.384,0,1,0,1.57-1.569V296.671a1.38,1.38,0,0,0,1.163-1.164h94.669a1.379,1.379,0,0,0,1.163,1.164v27.4a12,12,0,0,0-8.067,3.287l0-1.814L940.98,324.4v4.184a11.981,11.981,0,0,0-2.609,7.1h-11.8Zm20.973,13.646v-4.1l-1.138,1.139V344a11.4,11.4,0,0,1-3.157-7.907h7.48a3.956,3.956,0,0,0,3.745,3.745v7.685a11.4,11.4,0,0,1-6.928-2.475m123.458,83.983H951.756a1.378,1.378,0,0,0-1.165-1.164v-79.75a12.011,12.011,0,0,0,8.069-3.289v1.814l1.139,1.141V343.6a11.978,11.978,0,0,0,2.618-7.5h43.424a1.38,1.38,0,0,0,1.164,1.164V395.4a1.384,1.384,0,1,0,1.569,1.568h47.486a12.011,12.011,0,0,0,3.288,8.069h-1.814l-1.141,1.138h4.186a11.988,11.988,0,0,0,7.3,2.616v19.076a1.376,1.376,0,0,0-1.164,1.164m10.321-25.135-4.1,0,1.14,1.139h1.917a11.4,11.4,0,0,1-7.7,3.158v-7.48a3.953,3.953,0,0,0,3.744-3.747h7.482a11.407,11.407,0,0,1-2.474,6.928m43.8-134.328a1.385,1.385,0,0,0-.2,2.755V395.4a1.381,1.381,0,0,0-1.164,1.164h-22.451l-4.286-4.287a.609.609,0,0,0-.86.861l3.424,3.426h-15.2a12,12,0,0,0-3.289-8.068h1.816l1.139-1.139h-4.183a11.986,11.986,0,0,0-7.3-2.613V199.27a1.382,1.382,0,0,0,1.164-1.164h102.785a1.379,1.379,0,0,0,1.164,1.163v59.662a12,12,0,0,0-8.068,3.287l0-1.814-1.141-1.14v4.185a11.982,11.982,0,0,0-2.614,7.3h-39.368a1.386,1.386,0,0,0-1.368-1.185m45.628,10.343v-4.1l-1.138,1.139v1.917a11.386,11.386,0,0,1-3.158-7.7h7.481a3.953,3.953,0,0,0,3.745,3.745v7.482a11.4,11.4,0,0,1-6.929-2.474m7.334,74.9V282.977a12.009,12.009,0,0,0,8.068-3.288V281.5l1.139,1.14v-4.184a11.988,11.988,0,0,0,2.615-7.3h17.225l-3.426,3.426a.609.609,0,1,0,.862.86l4.285-4.286h24.481a1.382,1.382,0,0,0,1.163,1.165v71.837a12,12,0,0,0-8.066,3.287V345.63l-1.139-1.14,0,4.185a11.982,11.982,0,0,0-2.613,7.3h-43.428a1.374,1.374,0,0,0-1.163-1.162m49.484,10.322v-4.1l-1.14,1.14v1.917a11.416,11.416,0,0,1-3.158-7.706h7.482a3.952,3.952,0,0,0,3.744,3.745v7.482a11.385,11.385,0,0,1-6.927-2.473M1334.57,489.9H1231.785a1.384,1.384,0,0,0-1.164-1.164V368.2a12.01,12.01,0,0,0,8.068-3.287l0,1.814,1.139,1.139,0-4.184a11.984,11.984,0,0,0,2.613-7.3h15.195l-3.423,3.426a.608.608,0,0,0,.859.862l4.287-4.288h22.451a1.379,1.379,0,0,0,1.164,1.164v50.026a1.384,1.384,0,1,0,1.571,1.57h39.369a11.994,11.994,0,0,0,3.287,8.067h-1.815l-1.138,1.14h4.183a11.991,11.991,0,0,0,7.3,2.614V488.74a1.38,1.38,0,0,0-1.164,1.164m10.322-73.834h-4.1l1.14,1.141h1.916a11.408,11.408,0,0,1-7.705,3.158v-7.483a3.953,3.953,0,0,0,3.746-3.744h7.481a11.4,11.4,0,0,1-2.473,6.928m-1.824-16.086v4.1l1.139-1.139v-1.916a11.39,11.39,0,0,1,3.158,7.7h-7.481a3.953,3.953,0,0,0-3.746-3.744v-7.481a11.4,11.4,0,0,1,6.93,2.473" transform="translate(-1864.121 5209.165)" fill="#fff"/>
      <path id="Path_6106" data-name="Path 6106" d="M942.273,452.2a1.384,1.384,0,0,0-1.367,1.184H911.172a1.384,1.384,0,1,0-2.477,1.027l-10.242,10.24a1.367,1.367,0,0,0-.822-.277,1.383,1.383,0,0,0-1.367,1.185h-90.61a1.385,1.385,0,0,0-1.367-1.185,1.37,1.37,0,0,0-.823.277l-10.241-10.24a1.373,1.373,0,0,0,.276-.824,1.384,1.384,0,0,0-2.753-.2H761.012a1.387,1.387,0,1,0,0,.406h29.734a1.377,1.377,0,0,0,2.19.908l10.241,10.24a1.383,1.383,0,1,0,2.477,1.028h90.61a1.384,1.384,0,1,0,2.476-1.028l10.243-10.24a1.367,1.367,0,0,0,.822.276,1.385,1.385,0,0,0,1.367-1.184h29.734a1.385,1.385,0,1,0,1.367-1.59M804.287,466.738a.98.98,0,0,1-.98-.98.968.968,0,0,1,.16-.536l.736.739h1.043a.981.981,0,0,1-.959.777m.084-1.184-.618-.619a.977.977,0,0,1,1.493.619Zm93.26-.779a.983.983,0,0,1,.533.16l-.617.619h-.877a.985.985,0,0,1,.961-.779m0,1.963a.984.984,0,0,1-.961-.777h1.045l.736-.739a.979.979,0,0,1-.82,1.516" transform="translate(-1864.121 5209.165)" fill="#fff"/>
      <path id="Path_6107" data-name="Path 6107" d="M731.643,236.457h3.246a2.436,2.436,0,0,0,2.436-2.435v-3.247a2.436,2.436,0,0,0-2.436-2.435h-3.246a2.436,2.436,0,0,0-2.436,2.435v3.247a2.435,2.435,0,0,0,2.436,2.435m-1.624-5.682a1.626,1.626,0,0,1,1.624-1.624h3.246a1.626,1.626,0,0,1,1.623,1.624v3.247a1.625,1.625,0,0,1-1.623,1.623h-3.246a1.626,1.626,0,0,1-1.624-1.623Z" transform="translate(-1864.121 5209.165)" fill="#fff"/>
      <path id="Path_6108" data-name="Path 6108" d="M743.817,236.457h3.247a2.435,2.435,0,0,0,2.435-2.435v-3.247a2.436,2.436,0,0,0-2.435-2.435h-3.247a2.435,2.435,0,0,0-2.435,2.435v3.247a2.435,2.435,0,0,0,2.435,2.435" transform="translate(-1864.121 5209.165)" fill="#fff"/>
      <path id="Path_6109" data-name="Path 6109" d="M755.992,236.457h3.247a2.435,2.435,0,0,0,2.435-2.435v-3.247a2.435,2.435,0,0,0-2.435-2.435h-3.247a2.435,2.435,0,0,0-2.435,2.435v3.247a2.435,2.435,0,0,0,2.435,2.435m-1.623-5.682a1.626,1.626,0,0,1,1.623-1.624h3.247a1.625,1.625,0,0,1,1.623,1.624v3.247a1.624,1.624,0,0,1-1.623,1.623h-3.247a1.625,1.625,0,0,1-1.623-1.623Z" transform="translate(-1864.121 5209.165)" fill="#fff"/>
      <path id="Path_6110" data-name="Path 6110" d="M768.168,236.457h3.246a2.435,2.435,0,0,0,2.436-2.435v-3.247a2.436,2.436,0,0,0-2.436-2.435h-3.246a2.435,2.435,0,0,0-2.435,2.435v3.247a2.434,2.434,0,0,0,2.435,2.435m-1.623-5.682a1.626,1.626,0,0,1,1.623-1.624h3.246a1.626,1.626,0,0,1,1.623,1.624v3.247a1.625,1.625,0,0,1-1.623,1.623h-3.246a1.625,1.625,0,0,1-1.623-1.623Z" transform="translate(-1864.121 5209.165)" fill="#fff"/>
      <path id="Path_6111" data-name="Path 6111" d="M780.343,236.457h3.247a2.435,2.435,0,0,0,2.435-2.435v-3.247a2.436,2.436,0,0,0-2.435-2.435h-3.247a2.435,2.435,0,0,0-2.435,2.435v3.247a2.435,2.435,0,0,0,2.435,2.435" transform="translate(-1864.121 5209.165)" fill="#fff"/>
      <path id="Path_6112" data-name="Path 6112" d="M816.057,467.786h-3.246a2.435,2.435,0,0,0-2.436,2.434v3.248a2.435,2.435,0,0,0,2.436,2.434h3.246a2.435,2.435,0,0,0,2.435-2.434V470.22a2.435,2.435,0,0,0-2.435-2.434m1.623,5.682a1.626,1.626,0,0,1-1.623,1.623h-3.246a1.626,1.626,0,0,1-1.624-1.623V470.22a1.625,1.625,0,0,1,1.624-1.623h3.246a1.625,1.625,0,0,1,1.623,1.623Z" transform="translate(-1864.121 5209.165)" fill="#fff"/>
      <path id="Path_6113" data-name="Path 6113" d="M828.232,467.786h-3.248a2.436,2.436,0,0,0-2.435,2.434v3.248a2.436,2.436,0,0,0,2.435,2.434h3.248a2.435,2.435,0,0,0,2.435-2.434V470.22a2.435,2.435,0,0,0-2.435-2.434m1.624,5.682a1.626,1.626,0,0,1-1.624,1.623h-3.248a1.625,1.625,0,0,1-1.622-1.623V470.22a1.624,1.624,0,0,1,1.622-1.623h3.248a1.626,1.626,0,0,1,1.624,1.623Z" transform="translate(-1864.121 5209.165)" fill="#fff"/>
      <path id="Path_6114" data-name="Path 6114" d="M840.406,467.786H837.16a2.436,2.436,0,0,0-2.436,2.435v3.248a2.435,2.435,0,0,0,2.436,2.433h3.246a2.435,2.435,0,0,0,2.436-2.433v-3.248a2.436,2.436,0,0,0-2.436-2.435" transform="translate(-1864.121 5209.165)" fill="#fff"/>
      <path id="Path_6115" data-name="Path 6115" d="M852.582,467.786h-3.246a2.435,2.435,0,0,0-2.436,2.434v3.248a2.435,2.435,0,0,0,2.436,2.434h3.246a2.435,2.435,0,0,0,2.435-2.434V470.22a2.435,2.435,0,0,0-2.435-2.434m1.623,5.682a1.626,1.626,0,0,1-1.623,1.623h-3.246a1.626,1.626,0,0,1-1.624-1.623V470.22a1.625,1.625,0,0,1,1.624-1.623h3.246a1.625,1.625,0,0,1,1.623,1.623Z" transform="translate(-1864.121 5209.165)" fill="#fff"/>
      <path id="Path_6116" data-name="Path 6116" d="M864.758,467.786h-3.247a2.435,2.435,0,0,0-2.435,2.435v3.248a2.434,2.434,0,0,0,2.435,2.433h3.247a2.435,2.435,0,0,0,2.435-2.433v-3.248a2.436,2.436,0,0,0-2.435-2.435" transform="translate(-1864.121 5209.165)" fill="#fff"/>
      <path id="Path_6117" data-name="Path 6117" d="M876.933,467.786h-3.247a2.435,2.435,0,0,0-2.436,2.434v3.248a2.435,2.435,0,0,0,2.436,2.434h3.247a2.434,2.434,0,0,0,2.434-2.434V470.22a2.434,2.434,0,0,0-2.434-2.434m1.623,5.682a1.626,1.626,0,0,1-1.623,1.623h-3.247a1.625,1.625,0,0,1-1.623-1.623V470.22a1.625,1.625,0,0,1,1.623-1.623h3.247a1.625,1.625,0,0,1,1.623,1.623Z" transform="translate(-1864.121 5209.165)" fill="#fff"/>
      <path id="Path_6118" data-name="Path 6118" d="M889.107,467.786h-3.245a2.436,2.436,0,0,0-2.437,2.434v3.248a2.436,2.436,0,0,0,2.437,2.434h3.245a2.434,2.434,0,0,0,2.435-2.434V470.22a2.434,2.434,0,0,0-2.435-2.434m1.624,5.682a1.626,1.626,0,0,1-1.624,1.623h-3.245a1.625,1.625,0,0,1-1.623-1.623V470.22a1.624,1.624,0,0,1,1.623-1.623h3.245a1.626,1.626,0,0,1,1.624,1.623Z" transform="translate(-1864.121 5209.165)" fill="#fff"/>
      <path id="Path_6119" data-name="Path 6119" d="M792.517,236.457h3.247a2.435,2.435,0,0,0,2.435-2.435v-3.247a2.435,2.435,0,0,0-2.435-2.435h-3.247a2.435,2.435,0,0,0-2.434,2.435v3.247a2.435,2.435,0,0,0,2.434,2.435m-1.623-5.682a1.626,1.626,0,0,1,1.623-1.624h3.247a1.626,1.626,0,0,1,1.624,1.624v3.247a1.625,1.625,0,0,1-1.624,1.623h-3.247a1.625,1.625,0,0,1-1.623-1.623Z" transform="translate(-1864.121 5209.165)" fill="#fff"/>
      <path id="Path_6120" data-name="Path 6120" d="M1153.055,201.961h-8.116l8.116,8.117-8.369,8.116h8.369l8.117-8.116Z" transform="translate(-1864.121 5209.165)" fill="#fff"/>
      <path id="Path_6121" data-name="Path 6121" d="M1136.949,201.961h-8.117l8.117,8.117-8.371,8.116h8.371l8.116-8.116Z" transform="translate(-1864.121 5209.165)" fill="#fff"/>
      <path id="Path_6122" data-name="Path 6122" d="M1120.842,201.961h-8.117l8.117,8.117-8.371,8.116h8.371l8.117-8.116Z" transform="translate(-1864.121 5209.165)" fill="#fff"/>
      <path id="Path_6123" data-name="Path 6123" d="M1104.734,201.961h-8.116l8.116,8.117-8.369,8.116h8.369l8.117-8.116Z" transform="translate(-1864.121 5209.165)" fill="#fff"/>
      <path id="Path_6124" data-name="Path 6124" d="M1088.629,201.961h-8.117l8.117,8.117-8.371,8.116h8.371l8.116-8.116Z" transform="translate(-1864.121 5209.165)" fill="#fff"/>
      <path id="Path_6125" data-name="Path 6125" d="M1031.43,408.939l8.117,8.117-8.37,8.117h8.37l8.117-8.117-8.117-8.117Z" transform="translate(-1864.121 5209.165)" fill="#fff"/>
      <path id="Path_6126" data-name="Path 6126" d="M1023.44,408.939h-8.116l8.116,8.117-8.37,8.117h8.37l8.116-8.117Z" transform="translate(-1864.121 5209.165)" fill="#fff"/>
      <path id="Path_6127" data-name="Path 6127" d="M1007.334,408.939h-8.117l8.117,8.117-8.371,8.117h8.371l8.117-8.117Z" transform="translate(-1864.121 5209.165)" fill="#fff"/>
      <path id="Path_6128" data-name="Path 6128" d="M991.227,408.939H983.11l8.117,8.117-8.37,8.117h8.37l8.117-8.117Z" transform="translate(-1864.121 5209.165)" fill="#fff"/>
      <path id="Path_6129" data-name="Path 6129" d="M975.12,408.939H967l8.116,8.117-8.37,8.117h8.37l8.116-8.117Z" transform="translate(-1864.121 5209.165)" fill="#fff"/>
      <path id="Path_6130" data-name="Path 6130" d="M1239.549,487.535l6.088-3.516-6.088-3.513Z" transform="translate(-1864.121 5209.165)" fill="#fff"/>
      <path id="Path_6131" data-name="Path 6131" d="M1247.667,487.535l6.086-3.516-6.086-3.513Zm.812-5.624,3.651,2.108-3.651,2.11Z" transform="translate(-1864.121 5209.165)" fill="#fff"/>
      <path id="Path_6132" data-name="Path 6132" d="M663.258,390.132l6.088-3.514-6.088-3.515Z" transform="translate(-1864.121 5209.165)" fill="#fff"/>
      <path id="Path_6133" data-name="Path 6133" d="M671.375,390.132l6.087-3.514-6.087-3.515Zm.812-5.623,3.652,2.109-3.652,2.11Z" transform="translate(-1864.121 5209.165)" fill="#fff"/>
      <path id="Path_6134" data-name="Path 6134" d="M679.493,390.132l6.086-3.514-6.086-3.515Zm.81-5.623,3.653,2.109-3.653,2.11Z" transform="translate(-1864.121 5209.165)" fill="#fff"/>
      <path id="Path_6135" data-name="Path 6135" d="M687.609,390.132l6.087-3.514-6.087-3.515Zm.811-5.623,3.652,2.109-3.652,2.11Z" transform="translate(-1864.121 5209.165)" fill="#fff"/>
      <path id="Path_6136" data-name="Path 6136" d="M695.725,390.132l6.088-3.514-6.088-3.515Z" transform="translate(-1864.121 5209.165)" fill="#fff"/>
      <path id="Path_6137" data-name="Path 6137" d="M703.842,390.132l6.088-3.514-6.088-3.515Z" transform="translate(-1864.121 5209.165)" fill="#fff"/>
      <path id="Path_6138" data-name="Path 6138" d="M711.958,390.132l6.088-3.514-6.088-3.515Zm.813-5.623,3.652,2.109-3.652,2.11Z" transform="translate(-1864.121 5209.165)" fill="#fff"/>
      <path id="Path_6139" data-name="Path 6139" d="M720.076,390.132l6.087-3.514-6.087-3.515Z" transform="translate(-1864.121 5209.165)" fill="#fff"/>
      <path id="Path_6140" data-name="Path 6140" d="M728.192,390.132l6.087-3.514-6.087-3.515Z" transform="translate(-1864.121 5209.165)" fill="#fff"/>
      <path id="Path_6141" data-name="Path 6141" d="M736.309,390.132l6.087-3.514-6.087-3.515Zm.812-5.623,3.652,2.109-3.652,2.11Z" transform="translate(-1864.121 5209.165)" fill="#fff"/>
      <path id="Path_6142" data-name="Path 6142" d="M744.426,390.132l6.088-3.514-6.088-3.515Z" transform="translate(-1864.121 5209.165)" fill="#fff"/>
      <path id="Path_6143" data-name="Path 6143" d="M752.543,390.132l6.088-3.514-6.088-3.515Z" transform="translate(-1864.121 5209.165)" fill="#fff"/>
      <path id="Path_6144" data-name="Path 6144" d="M760.66,390.132l6.087-3.514L760.66,383.1Zm.811-5.623,3.652,2.109-3.652,2.11Z" transform="translate(-1864.121 5209.165)" fill="#fff"/>
      <path id="Path_6145" data-name="Path 6145" d="M768.776,390.132l6.087-3.514-6.087-3.515Zm.812-5.623,3.652,2.109-3.652,2.11Z" transform="translate(-1864.121 5209.165)" fill="#fff"/>
      <path id="Path_6146" data-name="Path 6146" d="M776.893,390.132l6.087-3.514-6.087-3.515Zm.812-5.623,3.652,2.109-3.652,2.11Z" transform="translate(-1864.121 5209.165)" fill="#fff"/>
      <path id="Path_6147" data-name="Path 6147" d="M785.01,383.1v7.029l6.088-3.513Z" transform="translate(-1864.121 5209.165)" fill="#fff"/>
      <path id="Path_6148" data-name="Path 6148" d="M1255.784,487.535l6.087-3.516-6.087-3.513Zm.812-5.624,3.652,2.108-3.652,2.11Z" transform="translate(-1864.121 5209.165)" fill="#fff"/>
      <path id="Path_6149" data-name="Path 6149" d="M1263.9,487.535l6.088-3.516-6.088-3.513Z" transform="translate(-1864.121 5209.165)" fill="#fff"/>
      <path id="Path_6150" data-name="Path 6150" d="M1272.018,487.535l6.086-3.516-6.086-3.513Z" transform="translate(-1864.121 5209.165)" fill="#fff"/>
      <path id="Path_6151" data-name="Path 6151" d="M1280.133,487.535l6.087-3.516-6.087-3.513Zm.812-5.624,3.652,2.108-3.652,2.11Z" transform="translate(-1864.121 5209.165)" fill="#fff"/>
      <path id="Path_6152" data-name="Path 6152" d="M1288.25,487.535l6.088-3.516-6.088-3.513Z" transform="translate(-1864.121 5209.165)" fill="#fff"/>
      <path id="Path_6153" data-name="Path 6153" d="M1296.367,487.535l6.088-3.516-6.088-3.513Z" transform="translate(-1864.121 5209.165)" fill="#fff"/>
      <path id="Path_6154" data-name="Path 6154" d="M1304.484,487.535l6.088-3.516-6.088-3.513Zm.811-5.624,3.652,2.108-3.652,2.11Z" transform="translate(-1864.121 5209.165)" fill="#fff"/>
      <path id="Path_6155" data-name="Path 6155" d="M1312.6,487.535l6.086-3.516-6.086-3.513Zm.811-5.624,3.652,2.108-3.652,2.11Z" transform="translate(-1864.121 5209.165)" fill="#fff"/>
      <path id="Path_6156" data-name="Path 6156" d="M1320.717,487.535l6.088-3.516-6.088-3.513Z" transform="translate(-1864.121 5209.165)" fill="#fff"/>
      <path id="Path_6157" data-name="Path 6157" d="M1350.141,155.285a4.054,4.054,0,1,0-4.053-4.054,4.055,4.055,0,0,0,4.053,4.054m0-7.3a3.242,3.242,0,1,1-3.242,3.242,3.247,3.247,0,0,1,3.242-3.242" transform="translate(-1864.121 5209.165)" fill="#fff"/>
      <path id="Path_6158" data-name="Path 6158" d="M1362.316,155.285a4.054,4.054,0,1,0-4.055-4.054,4.054,4.054,0,0,0,4.055,4.054" transform="translate(-1864.121 5209.165)" fill="#fff"/>
      <path id="Path_6159" data-name="Path 6159" d="M865.163,291.241a4.053,4.053,0,1,0-4.054-4.054,4.054,4.054,0,0,0,4.054,4.054" transform="translate(-1864.121 5209.165)" fill="#fff"/>
      <path id="Path_6160" data-name="Path 6160" d="M877.338,291.241a4.053,4.053,0,1,0-4.053-4.054,4.055,4.055,0,0,0,4.053,4.054" transform="translate(-1864.121 5209.165)" fill="#fff"/>
      <path id="Path_6161" data-name="Path 6161" d="M889.514,291.241a4.053,4.053,0,1,0-4.054-4.054,4.054,4.054,0,0,0,4.054,4.054m0-7.3a3.242,3.242,0,1,1-3.242,3.242,3.246,3.246,0,0,1,3.242-3.242" transform="translate(-1864.121 5209.165)" fill="#fff"/>
      <path id="Path_6162" data-name="Path 6162" d="M901.688,291.241a4.053,4.053,0,1,0-4.054-4.054,4.054,4.054,0,0,0,4.054,4.054m0-7.3a3.242,3.242,0,1,1-3.241,3.242,3.246,3.246,0,0,1,3.241-3.242" transform="translate(-1864.121 5209.165)" fill="#fff"/>
      <path id="Path_6163" data-name="Path 6163" d="M913.863,291.241a4.053,4.053,0,1,0-4.053-4.054,4.055,4.055,0,0,0,4.053,4.054m0-7.3a3.242,3.242,0,1,1-3.241,3.242,3.246,3.246,0,0,1,3.241-3.242" transform="translate(-1864.121 5209.165)" fill="#fff"/>
      <path id="Path_6164" data-name="Path 6164" d="M926.039,291.241a4.053,4.053,0,1,0-4.054-4.054,4.055,4.055,0,0,0,4.054,4.054" transform="translate(-1864.121 5209.165)" fill="#fff"/>
      <path id="Path_6165" data-name="Path 6165" d="M938.215,291.241a4.053,4.053,0,1,0-4.055-4.054,4.054,4.054,0,0,0,4.055,4.054" transform="translate(-1864.121 5209.165)" fill="#fff"/>
      <path id="Path_6166" data-name="Path 6166" d="M1374.492,155.285a4.054,4.054,0,1,0-4.055-4.054,4.054,4.054,0,0,0,4.055,4.054m0-7.3a3.242,3.242,0,1,1-3.242,3.242,3.245,3.245,0,0,1,3.242-3.242" transform="translate(-1864.121 5209.165)" fill="#fff"/>
      <path id="Path_6167" data-name="Path 6167" d="M1386.666,155.285a4.054,4.054,0,1,0-4.053-4.054,4.055,4.055,0,0,0,4.053,4.054m0-7.3a3.242,3.242,0,1,1-3.242,3.242,3.246,3.246,0,0,1,3.242-3.242" transform="translate(-1864.121 5209.165)" fill="#fff"/>
      <path id="Path_6168" data-name="Path 6168" d="M1398.842,155.285a4.054,4.054,0,1,0-4.055-4.054,4.054,4.054,0,0,0,4.055,4.054" transform="translate(-1864.121 5209.165)" fill="#fff"/>
      <path id="Path_6169" data-name="Path 6169" d="M1411.018,155.285a4.054,4.054,0,1,0-4.055-4.054,4.054,4.054,0,0,0,4.055,4.054m0-7.3a3.242,3.242,0,1,1-3.242,3.242,3.245,3.245,0,0,1,3.242-3.242" transform="translate(-1864.121 5209.165)" fill="#fff"/>
      <path id="Path_6170" data-name="Path 6170" d="M768.578,259.979a4.164,4.164,0,1,0-5.764,6.01l8.481,8.133H743.9a4.164,4.164,0,0,0,0,8.328h28.228l-9.435,9.821a4.164,4.164,0,1,0,6.006,5.77l18.975-19.754Zm-.465,37.5a3.353,3.353,0,0,1-4.836-4.646l9.434-9.821,1.32-1.374H743.9a3.352,3.352,0,0,1,0-6.7h29.416l-1.458-1.4-8.481-8.133a3.352,3.352,0,1,1,4.64-4.838l18.51,17.746Z" transform="translate(-1864.121 5209.165)" fill="#fff"/>
      <path id="Path_6171" data-name="Path 6171" d="M1288.053,430.431a4.165,4.165,0,1,0-5.766,6.012l8.483,8.131h-27.4a4.165,4.165,0,0,0,0,8.33H1291.6l-9.434,9.82a4.164,4.164,0,1,0,6.006,5.769l18.975-19.753Zm-.465,37.5a3.353,3.353,0,0,1-4.836-4.645l9.434-9.822,1.32-1.373h-30.133a3.353,3.353,0,1,1,0-6.705h29.416l-1.459-1.4-8.48-8.135a3.352,3.352,0,0,1,4.64-4.838L1306,448.763Z" transform="translate(-1864.121 5209.165)" fill="#fff"/>
      <path id="Path_6172" data-name="Path 6172" d="M755.693,409.1l.484.484.014-.013h.231v-.231l.088-.09-.088-.088V409.1Z" transform="translate(-1864.121 5209.165)" fill="#fff"/>
      <rect id="Rectangle_980" data-name="Rectangle 980" width="1.412" height="0.471" transform="translate(-1100.639 5618.26)" fill="#fff"/>
      <path id="Path_6173" data-name="Path 6173" d="M757.176,410.578l1,1,.333-.332-1-1Z" transform="translate(-1864.121 5209.165)" fill="#fff"/>
      <rect id="Rectangle_981" data-name="Rectangle 981" width="1.413" height="0.471" transform="translate(-1100.802 5641.838)" fill="#fff"/>
      <rect id="Rectangle_982" data-name="Rectangle 982" width="1.412" height="0.472" transform="matrix(0.707, -0.707, 0.707, 0.707, -1106.83, 5640.711)" fill="#fff"/>
      <rect id="Rectangle_983" data-name="Rectangle 983" width="1.412" height="0.471" transform="translate(-1106.45 5641.838)" fill="#fff"/>
      <path id="Path_6174" data-name="Path 6174" d="M764.613,424.89l-.332-.332-.242.242h0l0,0h0v0l0,0h0l-.746.748.332.334Z" transform="translate(-1864.121 5209.165)" fill="#fff"/>
      <path id="Path_6175" data-name="Path 6175" d="M778.451,419.829l-.006-.005v0l0,0v0l-.539-.537-.332.332,1,1,.333-.334s-.216-.215-.446-.447l0,0" transform="translate(-1864.121 5209.165)" fill="#fff"/>
      <path id="Path_6176" data-name="Path 6176" d="M778.588,422.275l.284-.283v0h0v0l0,0,0,0v0l.011-.01.01-.011h0c.293-.291.682-.682.682-.682l-.332-.332-1,1Z" transform="translate(-1864.121 5209.165)" fill="#fff"/>
      <path id="Path_6177" data-name="Path 6177" d="M766.307,409.1v.471h1.34l-.062.06,1,1,.332-.334-.312-.312,0,0,0,0v0h0v0h0v-.006h0l-.672-.672-.2.2v-.4Z" transform="translate(-1864.121 5209.165)" fill="#fff"/>
      <rect id="Rectangle_984" data-name="Rectangle 984" width="1.411" height="0.471" transform="translate(-1103.463 5618.26)" fill="#fff"/>
      <rect id="Rectangle_985" data-name="Rectangle 985" width="1.412" height="0.472" transform="translate(-1102.836 5636.717) rotate(-44.972)" fill="#fff"/>
      <rect id="Rectangle_986" data-name="Rectangle 986" width="1.412" height="0.471" transform="translate(-1106.287 5618.26)" fill="#fff"/>
      <path id="Path_6178" data-name="Path 6178" d="M761.17,414.572l1,1,.333-.332-1-1Z" transform="translate(-1864.121 5209.165)" fill="#fff"/>
      <rect id="Rectangle_987" data-name="Rectangle 987" width="1.411" height="0.471" transform="translate(-1103.625 5641.838)" fill="#fff"/>
      <rect id="Rectangle_988" data-name="Rectangle 988" width="0.47" height="1.412" transform="translate(-1104.947 5621.738) rotate(-44.942)" fill="#fff"/>
      <path id="Path_6179" data-name="Path 6179" d="M759.688,429.152h0l0,0v0h0l-.391.392.333.332,1-1-.332-.334Z" transform="translate(-1864.121 5209.165)" fill="#fff"/>
      <path id="Path_6180" data-name="Path 6180" d="M764.166,417.568l.332-.334-1-1-.332.334Z" transform="translate(-1864.121 5209.165)" fill="#fff"/>
      <rect id="Rectangle_989" data-name="Rectangle 989" width="1.413" height="0.471" transform="translate(-1097.977 5641.838)" fill="#fff"/>
      <path id="Path_6181" data-name="Path 6181" d="M766.278,422.56s-.309.311-.585.584l-.414.414.333.334,1-1Z" transform="translate(-1864.121 5209.165)" fill="#fff"/>
      <path id="Path_6182" data-name="Path 6182" d="M768.269,431.927l.332.334,1-1-.332-.334Z" transform="translate(-1864.121 5209.165)" fill="#fff"/>
      <path id="Path_6183" data-name="Path 6183" d="M768.051,421.453l.333-.332-.333-.332-.557-.559-.333.334.553.553h0v0h0v0h0v0l0,0h0v0h0l0,0,0,0,0,0h0v0h0l-.005.006v0l0,0,0,0h0l0,0h0l-.4.4.332.332Z" transform="translate(-1864.121 5209.165)" fill="#fff"/>
      <path id="Path_6184" data-name="Path 6184" d="M769.582,411.624l1,1,.334-.332-1-1Z" transform="translate(-1864.121 5209.165)" fill="#fff"/>
      <path id="Path_6185" data-name="Path 6185" d="M755.693,433.144h.666l.266-.266-.332-.334Z" transform="translate(-1864.121 5209.165)" fill="#fff"/>
      <path id="Path_6186" data-name="Path 6186" d="M765.164,418.566l.516.516,0,0,0,0h0v0l.475.475.334-.332-1-1Z" transform="translate(-1864.121 5209.165)" fill="#fff"/>
      <rect id="Rectangle_990" data-name="Rectangle 990" width="1.412" height="0.47" transform="matrix(0.705, -0.709, 0.709, 0.705, -1089.859, 5635.104)" fill="#fff"/>
      <rect id="Rectangle_991" data-name="Rectangle 991" width="0.47" height="1.412" transform="translate(-1090.544 5624.783) rotate(-45)" fill="#fff"/>
      <rect id="Rectangle_992" data-name="Rectangle 992" width="1.412" height="0.471" transform="matrix(0.707, -0.707, 0.707, 0.707, -1087.863, 5633.105)" fill="#fff"/>
      <path id="Path_6187" data-name="Path 6187" d="M775.572,417.615l1,1,.332-.334-1-1Z" transform="translate(-1864.121 5209.165)" fill="#fff"/>
      <path id="Path_6188" data-name="Path 6188" d="M770.266,429.931l.334.332.58-.58.006-.006h0l.411-.412-.332-.332Z" transform="translate(-1864.121 5209.165)" fill="#fff"/>
      <path id="Path_6189" data-name="Path 6189" d="M772.264,427.933l.332.334.631-.631h0v0l0,0v0l0,0,0,0h0v0l0-.005.35-.35-.333-.332Z" transform="translate(-1864.121 5209.165)" fill="#fff"/>
      <rect id="Rectangle_993" data-name="Rectangle 993" width="0.471" height="1.412" transform="matrix(0.707, -0.707, 0.707, 0.707, -1092.541, 5622.786)" fill="#fff"/>
      <path id="Path_6190" data-name="Path 6190" d="M722.869,409.138l.427.428h.985V409.1h-1.412Z" transform="translate(-1864.121 5209.165)" fill="#fff"/>
      <path id="Path_6191" data-name="Path 6191" d="M723.94,432.031l-1,1,.115.115h.434l.782-.781Z" transform="translate(-1864.121 5209.165)" fill="#fff"/>
      <rect id="Rectangle_994" data-name="Rectangle 994" width="1.412" height="0.471" transform="translate(-1107.74 5632.139) rotate(-45.056)" fill="#fff"/>
      <rect id="Rectangle_995" data-name="Rectangle 995" width="1.412" height="0.471" transform="translate(-1140.048 5641.838)" fill="#fff"/>
      <path id="Path_6192" data-name="Path 6192" d="M723.793,410.064l1,1,.333-.334-1-1Z" transform="translate(-1864.121 5209.165)" fill="#fff"/>
      <path id="Path_6193" data-name="Path 6193" d="M758.873,421.093h0l0,0,0,0-.779-.779-.332.332.809.81.333-.332-.009-.007v0h0v0h0v0h0l0,0v0l-.006-.006" transform="translate(-1864.121 5209.165)" fill="#fff"/>
      <path id="Path_6194" data-name="Path 6194" d="M748.393,430.962l.333.332.22-.221h0l.011-.011.766-.766-.333-.334Z" transform="translate(-1864.121 5209.165)" fill="#fff"/>
      <rect id="Rectangle_996" data-name="Rectangle 996" width="1.412" height="0.471" transform="translate(-1120.277 5641.838)" fill="#fff"/>
      <rect id="Rectangle_997" data-name="Rectangle 997" width="1.412" height="0.471" transform="translate(-1121.482 5618.26)" fill="#fff"/>
      <rect id="Rectangle_998" data-name="Rectangle 998" width="1.412" height="0.471" transform="translate(-1124.306 5618.26)" fill="#fff"/>
      <path id="Path_6195" data-name="Path 6195" d="M746.875,409.1h-1.412v.471h1.217l.093.093.094-.093h.008v-.008l.232-.231-.224-.224,0,0,0,0Z" transform="translate(-1864.121 5209.165)" fill="#fff"/>
      <rect id="Rectangle_999" data-name="Rectangle 999" width="1.412" height="0.471" transform="translate(-1127.131 5618.26)" fill="#fff"/>
      <rect id="Rectangle_1000" data-name="Rectangle 1000" width="1.412" height="0.471" transform="translate(-1123.102 5641.838)" fill="#fff"/>
      <rect id="Rectangle_1001" data-name="Rectangle 1001" width="1.413" height="0.471" transform="translate(-1125.927 5641.838)" fill="#fff"/>
      <path id="Path_6196" data-name="Path 6196" d="M746.68,432.673h-.012v.014l-.125.125.125.125v.207h.207l.037-.035a.1.1,0,0,1,.02-.02l.01-.012.011-.011h0l.005-.006.008-.006.012-.014,0,0,0,0h0v0h0v0h0v0l0,0,0,0v0h0v0l.015-.014h0l.005-.006h0l0,0,0-.006h0v0l0,0v0l0,0,0,0,0,0,0,0v0l0,0h0l0,0,0,0v0h0v0l0,0,0,0h0l.665-.666-.333-.332Z" transform="translate(-1864.121 5209.165)" fill="#fff"/>
      <path id="Path_6197" data-name="Path 6197" d="M755.1,417.314l-.482-.482h0v0l0,0v0l0,0h0l0,0v0l0,0,0,0-.5-.5-.332.332,1,1Z" transform="translate(-1864.121 5209.165)" fill="#fff"/>
      <path id="Path_6198" data-name="Path 6198" d="M755.383,423.972l-1,1,.333.332.123-.121.008-.008v0l0,0v0h0v0l.861-.861Z" transform="translate(-1864.121 5209.165)" fill="#fff"/>
      <path id="Path_6199" data-name="Path 6199" d="M724.938,431.033l.334.332,1-1-.332-.334Z" transform="translate(-1864.121 5209.165)" fill="#fff"/>
      <rect id="Rectangle_1002" data-name="Rectangle 1002" width="1.412" height="0.471" transform="translate(-1111.734 5636.133) rotate(-45.082)" fill="#fff"/>
      <rect id="Rectangle_1003" data-name="Rectangle 1003" width="1.413" height="0.471" transform="translate(-1128.751 5641.838)" fill="#fff"/>
      <path id="Path_6200" data-name="Path 6200" d="M752.1,414.32l-.333.332,1,1,.332-.332-.316-.316c-.007-.008-.014-.014-.022-.022l-.021-.021,0,0s-.006-.008-.01-.01v0l-.012-.01v0l-.006,0-.005,0,0,0v0h0v0h0l-.016-.016Z" transform="translate(-1864.121 5209.165)" fill="#fff"/>
      <path id="Path_6201" data-name="Path 6201" d="M755.76,418.646l1,1,.334-.332-1-1Z" transform="translate(-1864.121 5209.165)" fill="#fff"/>
      <path id="Path_6202" data-name="Path 6202" d="M749.024,411.244h0v0l0,0h0l-.914-.914-.334.332,1,1,.333-.332v0h0v0l0,0-.005-.006h0v0l0,0,0,0h0v0l0,0h0l0,0,0,0,0,0h0v0h0v0l0,0,0,0-.005-.006h0l-.008-.01h0l0,0h0l0,0,0-.006h0v0h0v0h0v0h0v0h0v0Z" transform="translate(-1864.121 5209.165)" fill="#fff"/>
      <path id="Path_6203" data-name="Path 6203" d="M751.1,413.32l-.6-.6,0,0v0l0,0h0l0,0h0l-.005,0v0l-.383-.383-.332.334,1,1Z" transform="translate(-1864.121 5209.165)" fill="#fff"/>
      <path id="Path_6204" data-name="Path 6204" d="M750.391,428.964l.332.334.479-.479h0v0h0l0-.006h0l.511-.512-.333-.332Z" transform="translate(-1864.121 5209.165)" fill="#fff"/>
      <rect id="Rectangle_1004" data-name="Rectangle 1004" width="1.412" height="0.471" transform="translate(-1135.603 5618.26)" fill="#fff"/>
      <rect id="Rectangle_1005" data-name="Rectangle 1005" width="1.412" height="0.471" transform="translate(-1137.224 5641.838)" fill="#fff"/>
      <rect id="Rectangle_1006" data-name="Rectangle 1006" width="0.471" height="1.412" transform="matrix(0.708, -0.706, 0.706, 0.708, -1136.333, 5623.221)" fill="#fff"/>
      <path id="Path_6205" data-name="Path 6205" d="M730.414,416.683l.368.369.333-.332-1-1-.333.334Z" transform="translate(-1864.121 5209.165)" fill="#fff"/>
      <path id="Path_6206" data-name="Path 6206" d="M728.268,428.369l-.334-.332-.125.125,0,0-.006.006,0,0-.861.861.332.332Z" transform="translate(-1864.121 5209.165)" fill="#fff"/>
      <path id="Path_6207" data-name="Path 6207" d="M729.932,426.039l-1,1,.334.332,1-1Z" transform="translate(-1864.121 5209.165)" fill="#fff"/>
      <path id="Path_6208" data-name="Path 6208" d="M726.123,411.726l-.332.334,1,1,.332-.334Z" transform="translate(-1864.121 5209.165)" fill="#fff"/>
      <rect id="Rectangle_1007" data-name="Rectangle 1007" width="1.412" height="0.471" transform="translate(-1138.428 5618.26)" fill="#fff"/>
      <rect id="Rectangle_1008" data-name="Rectangle 1008" width="1.412" height="0.471" transform="translate(-1131.575 5641.838)" fill="#fff"/>
      <rect id="Rectangle_1009" data-name="Rectangle 1009" width="1.412" height="0.471" transform="translate(-1134.399 5641.838)" fill="#fff"/>
      <path id="Path_6209" data-name="Path 6209" d="M733.49,422.48l0,0,0,0c-.268.265-.559.558-.559.558l.333.332,1-1-.332-.334Z" transform="translate(-1864.121 5209.165)" fill="#fff"/>
      <rect id="Rectangle_1010" data-name="Rectangle 1010" width="0.471" height="1.412" transform="translate(-1132.339 5627.215) rotate(-44.942)" fill="#fff"/>
      <rect id="Rectangle_1011" data-name="Rectangle 1011" width="0.47" height="1.412" transform="translate(-1130.342 5629.213) rotate(-45.028)" fill="#fff"/>
      <path id="Path_6210" data-name="Path 6210" d="M730.93,425.04l.333.332,1-1-.334-.332Z" transform="translate(-1864.121 5209.165)" fill="#fff"/>
      <rect id="Rectangle_1012" data-name="Rectangle 1012" width="1.412" height="0.471" transform="translate(-1132.779 5618.26)" fill="#fff"/>
      <rect id="Rectangle_1013" data-name="Rectangle 1013" width="1.412" height="0.471" transform="translate(-1129.955 5618.26)" fill="#fff"/>
      <rect id="Rectangle_1014" data-name="Rectangle 1014" width="1.413" height="0.471" transform="matrix(0.705, -0.709, 0.709, 0.705, -1193.073, 5637.173)" fill="#fff"/>
      <rect id="Rectangle_1015" data-name="Rectangle 1015" width="1.413" height="0.471" transform="translate(-1193.89 5618.26)" fill="#fff"/>
      <path id="Path_6211" data-name="Path 6211" d="M674.664,417.851h0l0,0h0v0l.164.164.332-.334-1-1-.333.332.811.812Z" transform="translate(-1864.121 5209.165)" fill="#fff"/>
      <rect id="Rectangle_1016" data-name="Rectangle 1016" width="1.412" height="0.47" transform="translate(-1195.07 5639.169) rotate(-45.082)" fill="#fff"/>
      <rect id="Rectangle_1017" data-name="Rectangle 1017" width="1.413" height="0.471" transform="translate(-1192.771 5641.838)" fill="#fff"/>
      <path id="Path_6212" data-name="Path 6212" d="M672.171,414.693l-.333.332.414.414.584.584.334-.332Z" transform="translate(-1864.121 5209.165)" fill="#fff"/>
      <path id="Path_6213" data-name="Path 6213" d="M667.178,409.7l-.6-.6h-.665l.086.086.851.852Z" transform="translate(-1864.121 5209.165)" fill="#fff"/>
      <path id="Path_6214" data-name="Path 6214" d="M665.908,433.144h1.2v-.471h-.734Z" transform="translate(-1864.121 5209.165)" fill="#fff"/>
      <rect id="Rectangle_1018" data-name="Rectangle 1018" width="1.412" height="0.471" transform="translate(-1195.596 5641.838)" fill="#fff"/>
      <rect id="Rectangle_1019" data-name="Rectangle 1019" width="1.412" height="0.471" transform="translate(-1197.069 5641.164) rotate(-44.908)" fill="#fff"/>
      <rect id="Rectangle_1020" data-name="Rectangle 1020" width="1.411" height="0.471" transform="translate(-1191.065 5618.26)" fill="#fff"/>
      <path id="Path_6215" data-name="Path 6215" d="M669.175,411.7l-1-1-.333.334.636.637h0v0l0,0v0l.356.355Z" transform="translate(-1864.121 5209.165)" fill="#fff"/>
      <rect id="Rectangle_1021" data-name="Rectangle 1021" width="1.412" height="0.471" transform="translate(-1196.715 5618.26)" fill="#fff"/>
      <path id="Path_6216" data-name="Path 6216" d="M670.174,412.7l-.333.332.7.7h0l0,0,0,0,.3.3.332-.334Z" transform="translate(-1864.121 5209.165)" fill="#fff"/>
      <rect id="Rectangle_1022" data-name="Rectangle 1022" width="1.412" height="0.471" transform="translate(-1153.23 5641.838)" fill="#fff"/>
      <path id="Path_6217" data-name="Path 6217" d="M713.813,432.673h-.1v.1l-.039.041.039.039v.293h.293l.033-.034h0l.017-.017.02-.02v0l.005,0,.005-.006h0l0-.006h0l0,0h0l0,0,0,0,0,0h0v0l0,0h0v0l0,0h0v0l0,0,.674-.674-.333-.332Z" transform="translate(-1864.121 5209.165)" fill="#fff"/>
      <rect id="Rectangle_1023" data-name="Rectangle 1023" width="1.412" height="0.471" transform="translate(-1154.349 5618.26)" fill="#fff"/>
      <path id="Path_6218" data-name="Path 6218" d="M715.465,431.021l.333.334,1-1-.333-.334Z" transform="translate(-1864.121 5209.165)" fill="#fff"/>
      <path id="Path_6219" data-name="Path 6219" d="M713.967,409.72l.333-.334-.292-.291H712.6v.471h1.217Z" transform="translate(-1864.121 5209.165)" fill="#fff"/>
      <path id="Path_6220" data-name="Path 6220" d="M716.3,411.384l-.349-.35,0,0h0l-.647-.646-.333.332,1,1Z" transform="translate(-1864.121 5209.165)" fill="#fff"/>
      <rect id="Rectangle_1024" data-name="Rectangle 1024" width="1.412" height="0.471" transform="translate(-1162.822 5618.26)" fill="#fff"/>
      <rect id="Rectangle_1025" data-name="Rectangle 1025" width="1.412" height="0.471" transform="translate(-1158.879 5641.838)" fill="#fff"/>
      <rect id="Rectangle_1026" data-name="Rectangle 1026" width="1.412" height="0.471" transform="translate(-1159.998 5618.26)" fill="#fff"/>
      <rect id="Rectangle_1027" data-name="Rectangle 1027" width="1.412" height="0.471" transform="translate(-1156.055 5641.838)" fill="#fff"/>
      <rect id="Rectangle_1028" data-name="Rectangle 1028" width="1.412" height="0.471" transform="translate(-1157.174 5618.26)" fill="#fff"/>
      <rect id="Rectangle_1029" data-name="Rectangle 1029" width="1.412" height="0.47" transform="translate(-1191.076 5635.173) rotate(-44.971)" fill="#fff"/>
      <path id="Path_6221" data-name="Path 6221" d="M722.287,417.374l-.457-.457,0,0,0,0v0h0l-.535-.535-.333.334,1,1Z" transform="translate(-1864.121 5209.165)" fill="#fff"/>
      <rect id="Rectangle_1030" data-name="Rectangle 1030" width="1.412" height="0.471" transform="translate(-1142.665 5634.195) rotate(-44.908)" fill="#fff"/>
      <path id="Path_6222" data-name="Path 6222" d="M726.029,421.117h0l-.745-.746-.332.334.748.748.084-.084s.2-.2.24-.24l0,0,0,0,0,0,0,0Z" transform="translate(-1864.121 5209.165)" fill="#fff"/>
      <rect id="Rectangle_1031" data-name="Rectangle 1031" width="1.411" height="0.471" transform="translate(-1161.703 5641.838)" fill="#fff"/>
      <rect id="Rectangle_1032" data-name="Rectangle 1032" width="1.412" height="0.471" transform="translate(-1144.662 5636.191) rotate(-44.908)" fill="#fff"/>
      <path id="Path_6223" data-name="Path 6223" d="M719.342,414.429l-.049-.049-.334.332,1,1,.333-.332-.842-.842,0,0-.015-.015h0l-.016-.016v0a.058.058,0,0,0-.015-.013v0l-.012-.012v0h0l0,0,0,0h0l0,0-.006-.006,0,0,0,0,0,0h0v0l0,0,0,0h0v0h0v0l0,0Z" transform="translate(-1864.121 5209.165)" fill="#fff"/>
      <rect id="Rectangle_1033" data-name="Rectangle 1033" width="0.471" height="1.412" transform="translate(-1147.158 5621.881) rotate(-45.03)" fill="#fff"/>
      <path id="Path_6224" data-name="Path 6224" d="M717.462,429.025l.333.334.514-.516,0,0,0,0,0,0,0,0,0,0h0l0-.006h0l.01-.012h0l.452-.453-.333-.332Z" transform="translate(-1864.121 5209.165)" fill="#fff"/>
      <path id="Path_6225" data-name="Path 6225" d="M724.414,422.74v0h0v0l.006,0v0l0,0h0v0l.006,0,.009-.01,0,0a.126.126,0,0,0,.02-.02l0,0,.316-.316-.334-.332-1,1,.332.332Z" transform="translate(-1864.121 5209.165)" fill="#fff"/>
      <rect id="Rectangle_1034" data-name="Rectangle 1034" width="0.471" height="1.412" transform="matrix(0.708, -0.706, 0.706, 0.708, -1141.167, 5627.871)" fill="#fff"/>
      <rect id="Rectangle_1035" data-name="Rectangle 1035" width="1.412" height="0.471" transform="translate(-1185.417 5618.26)" fill="#fff"/>
      <rect id="Rectangle_1036" data-name="Rectangle 1036" width="1.411" height="0.471" transform="translate(-1187.122 5641.838)" fill="#fff"/>
      <rect id="Rectangle_1037" data-name="Rectangle 1037" width="1.412" height="0.471" transform="translate(-1184.298 5641.838)" fill="#fff"/>
      <rect id="Rectangle_1038" data-name="Rectangle 1038" width="1.412" height="0.471" transform="translate(-1165.646 5618.26)" fill="#fff"/>
      <rect id="Rectangle_1039" data-name="Rectangle 1039" width="1.413" height="0.471" transform="translate(-1181.475 5641.838)" fill="#fff"/>
      <rect id="Rectangle_1040" data-name="Rectangle 1040" width="1.413" height="0.471" transform="translate(-1182.594 5618.26)" fill="#fff"/>
      <path id="Path_6226" data-name="Path 6226" d="M678.162,420.683l-.334.332.1.1a.144.144,0,0,1-.017.016l-.877.879.332.332.894-.894.333-.333-.333-.332Z" transform="translate(-1864.121 5209.165)" fill="#fff"/>
      <path id="Path_6227" data-name="Path 6227" d="M675.764,423.29h0v0l0,0h0l0,0v0c-.3.295-.714.715-.714.715l.334.332,1-1-.334-.334Z" transform="translate(-1864.121 5209.165)" fill="#fff"/>
      <rect id="Rectangle_1041" data-name="Rectangle 1041" width="1.411" height="0.471" transform="translate(-1188.241 5618.26)" fill="#fff"/>
      <rect id="Rectangle_1042" data-name="Rectangle 1042" width="1.412" height="0.471" transform="translate(-1189.947 5641.838)" fill="#fff"/>
      <rect id="Rectangle_1043" data-name="Rectangle 1043" width="0.47" height="1.412" transform="matrix(0.707, -0.707, 0.707, 0.707, -1188.289, 5628.184)" fill="#fff"/>
      <rect id="Rectangle_1044" data-name="Rectangle 1044" width="1.413" height="0.471" transform="translate(-1178.65 5641.838)" fill="#fff"/>
      <rect id="Rectangle_1045" data-name="Rectangle 1045" width="1.412" height="0.471" transform="translate(-1171.295 5618.26)" fill="#fff"/>
      <rect id="Rectangle_1046" data-name="Rectangle 1046" width="1.413" height="0.471" transform="translate(-1167.352 5641.838)" fill="#fff"/>
      <rect id="Rectangle_1047" data-name="Rectangle 1047" width="1.413" height="0.471" transform="translate(-1164.528 5641.838)" fill="#fff"/>
      <rect id="Rectangle_1048" data-name="Rectangle 1048" width="1.411" height="0.471" transform="translate(-1170.176 5641.838)" fill="#fff"/>
      <rect id="Rectangle_1049" data-name="Rectangle 1049" width="1.413" height="0.471" transform="translate(-1168.472 5618.26)" fill="#fff"/>
      <rect id="Rectangle_1050" data-name="Rectangle 1050" width="1.411" height="0.471" transform="translate(-1173 5641.838)" fill="#fff"/>
      <rect id="Rectangle_1051" data-name="Rectangle 1051" width="1.411" height="0.471" transform="translate(-1174.119 5618.26)" fill="#fff"/>
      <rect id="Rectangle_1052" data-name="Rectangle 1052" width="1.412" height="0.471" transform="translate(-1176.944 5618.26)" fill="#fff"/>
      <rect id="Rectangle_1053" data-name="Rectangle 1053" width="1.412" height="0.471" transform="translate(-1175.825 5641.838)" fill="#fff"/>
      <rect id="Rectangle_1054" data-name="Rectangle 1054" width="1.413" height="0.471" transform="translate(-1179.768 5618.26)" fill="#fff"/>
      <rect id="Rectangle_1055" data-name="Rectangle 1055" width="1.413" height="0.471" transform="translate(-570.813 5445.968) rotate(-44.972)" fill="#fff"/>
      <rect id="Rectangle_1056" data-name="Rectangle 1056" width="0.471" height="1.412" transform="matrix(0.707, -0.707, 0.707, 0.707, -568.932, 5434.984)" fill="#fff"/>
      <path id="Path_6228" data-name="Path 6228" d="M1293.191,223.821l1,1,.332-.333-1-1Z" transform="translate(-1864.121 5209.165)" fill="#fff"/>
      <rect id="Rectangle_1057" data-name="Rectangle 1057" width="1.412" height="0.471" transform="translate(-571.603 5451.089)" fill="#fff"/>
      <rect id="Rectangle_1058" data-name="Rectangle 1058" width="1.412" height="0.471" transform="translate(-568.617 5427.51)" fill="#fff"/>
      <rect id="Rectangle_1059" data-name="Rectangle 1059" width="1.412" height="0.471" transform="translate(-571.441 5427.51)" fill="#fff"/>
      <rect id="Rectangle_1060" data-name="Rectangle 1060" width="1.412" height="0.471" transform="translate(-568.779 5451.089)" fill="#fff"/>
      <path id="Path_6229" data-name="Path 6229" d="M1296.635,234.14l-.332-.333s-.1.1-.242.243h0l0,0,0,0h0l-.746.748.332.333Z" transform="translate(-1864.121 5209.165)" fill="#fff"/>
      <rect id="Rectangle_1061" data-name="Rectangle 1061" width="1.412" height="0.471" transform="translate(-574.428 5451.089)" fill="#fff"/>
      <path id="Path_6230" data-name="Path 6230" d="M1288.213,218.816h.23v-.23l.09-.09-.09-.089v-.062h-.728l.484.484Z" transform="translate(-1864.121 5209.165)" fill="#fff"/>
      <path id="Path_6231" data-name="Path 6231" d="M1290.645,240.132l-.334-.333-1,1,.334.333Z" transform="translate(-1864.121 5209.165)" fill="#fff"/>
      <rect id="Rectangle_1062" data-name="Rectangle 1062" width="0.471" height="1.413" transform="translate(-572.925 5430.988) rotate(-44.913)" fill="#fff"/>
      <path id="Path_6232" data-name="Path 6232" d="M1287.715,242.395h.666l.266-.267-.332-.333Z" transform="translate(-1864.121 5209.165)" fill="#fff"/>
      <path id="Path_6233" data-name="Path 6233" d="M1291.709,238.4h0l0,0h0l-.39.391.332.333,1-1-.332-.333Z" transform="translate(-1864.121 5209.165)" fill="#fff"/>
      <rect id="Rectangle_1063" data-name="Rectangle 1063" width="1.412" height="0.471" transform="translate(-574.265 5427.51)" fill="#fff"/>
      <rect id="Rectangle_1064" data-name="Rectangle 1064" width="0.471" height="1.412" transform="matrix(0.707, -0.707, 0.707, 0.707, -574.922, 5428.992)" fill="#fff"/>
      <path id="Path_6234" data-name="Path 6234" d="M1306.93,225.534l-1-1-.332.334,1,1Z" transform="translate(-1864.121 5209.165)" fill="#fff"/>
      <rect id="Rectangle_1065" data-name="Rectangle 1065" width="1.413" height="0.471" transform="translate(-557.839 5444.352) rotate(-45.031)" fill="#fff"/>
      <rect id="Rectangle_1066" data-name="Rectangle 1066" width="0.47" height="1.411" transform="translate(-560.519 5432.037) rotate(-45.031)" fill="#fff"/>
      <path id="Path_6235" data-name="Path 6235" d="M1304.617,237.517l.631-.63,0,0v0h0l0,0h0l.005,0h0l.35-.349-.334-.333-1,1Z" transform="translate(-1864.121 5209.165)" fill="#fff"/>
      <path id="Path_6236" data-name="Path 6236" d="M1310.609,231.526l.285-.285h0l0,0,0,0h0l0,0,.01-.01.011-.011.682-.683-.332-.333-1,1Z" transform="translate(-1864.121 5209.165)" fill="#fff"/>
      <path id="Path_6237" data-name="Path 6237" d="M1297.7,228.333h0l0,0c.242.242.474.476.474.476l.334-.334-1-1-.334.333.516.517Z" transform="translate(-1864.121 5209.165)" fill="#fff"/>
      <path id="Path_6238" data-name="Path 6238" d="M1308.926,227.532l-1-1-.332.333,1,1Z" transform="translate(-1864.121 5209.165)" fill="#fff"/>
      <rect id="Rectangle_1067" data-name="Rectangle 1067" width="1.413" height="0.471" transform="translate(-555.842 5442.354) rotate(-44.942)" fill="#fff"/>
      <path id="Path_6239" data-name="Path 6239" d="M1310.924,229.528s-.217-.215-.447-.446l0,0-.006-.006h0l0,0h0l-.539-.539-.332.334,1,1Z" transform="translate(-1864.121 5209.165)" fill="#fff"/>
      <path id="Path_6240" data-name="Path 6240" d="M1302.621,239.514l.58-.581.006-.006h0l.41-.412-.332-.332-1,1Z" transform="translate(-1864.121 5209.165)" fill="#fff"/>
      <path id="Path_6241" data-name="Path 6241" d="M1298.3,231.81l-.586.585-.414.415.334.332,1-1Z" transform="translate(-1864.121 5209.165)" fill="#fff"/>
      <path id="Path_6242" data-name="Path 6242" d="M1299.607,218.877l1,1,.332-.334s-.139-.137-.312-.311h0l0,0h0l0,0h0l-.672-.673-.2.2v-.4h-1.412v.471h1.34Z" transform="translate(-1864.121 5209.165)" fill="#fff"/>
      <path id="Path_6243" data-name="Path 6243" d="M1300.072,230.7l.334-.333-.334-.332-.557-.558-.332.333.553.553h0l0,0h0l0,0,0,0,0,0h-.005l0,.006h0l0,0h0l0,0,0,0h0l-.4.4.332.332Z" transform="translate(-1864.121 5209.165)" fill="#fff"/>
      <rect id="Rectangle_1068" data-name="Rectangle 1068" width="1.413" height="0.471" transform="matrix(0.707, -0.707, 0.707, 0.707, -563.83, 5450.342)" fill="#fff"/>
      <rect id="Rectangle_1069" data-name="Rectangle 1069" width="0.471" height="1.413" transform="matrix(0.707, -0.707, 0.707, 0.707, -562.516, 5430.039)" fill="#fff"/>
      <rect id="Rectangle_1070" data-name="Rectangle 1070" width="1.412" height="0.471" transform="translate(-565.955 5451.089)" fill="#fff"/>
      <rect id="Rectangle_1071" data-name="Rectangle 1071" width="1.412" height="0.471" transform="translate(-597.933 5427.51)" fill="#fff"/>
      <rect id="Rectangle_1072" data-name="Rectangle 1072" width="1.412" height="0.471" transform="translate(-596.728 5451.089)" fill="#fff"/>
      <rect id="Rectangle_1073" data-name="Rectangle 1073" width="1.412" height="0.471" transform="translate(-595.109 5427.51)" fill="#fff"/>
      <rect id="Rectangle_1074" data-name="Rectangle 1074" width="1.412" height="0.471" transform="translate(-591.08 5451.089)" fill="#fff"/>
      <rect id="Rectangle_1075" data-name="Rectangle 1075" width="1.412" height="0.471" transform="translate(-593.904 5451.089)" fill="#fff"/>
      <rect id="Rectangle_1076" data-name="Rectangle 1076" width="0.47" height="1.412" transform="matrix(0.707, -0.707, 0.707, 0.707, -598.32, 5438.462)" fill="#fff"/>
      <path id="Path_6244" data-name="Path 6244" d="M1262.436,225.933l.368.369.332-.333-1-1-.331.333Z" transform="translate(-1864.121 5209.165)" fill="#fff"/>
      <path id="Path_6245" data-name="Path 6245" d="M1264.283,233.625l-.334-.333-1,1,.334.333Z" transform="translate(-1864.121 5209.165)" fill="#fff"/>
      <rect id="Rectangle_1077" data-name="Rectangle 1077" width="1.412" height="0.471" transform="translate(-600.758 5427.51)" fill="#fff"/>
      <path id="Path_6246" data-name="Path 6246" d="M1261.953,235.288l-1,1,.332.333,1-1Z" transform="translate(-1864.121 5209.165)" fill="#fff"/>
      <rect id="Rectangle_1078" data-name="Rectangle 1078" width="1.412" height="0.471" transform="translate(-592.285 5427.51)" fill="#fff"/>
      <path id="Path_6247" data-name="Path 6247" d="M1265.281,232.627l1-1-.332-.333-.436.436h0l0,0-.559.56Z" transform="translate(-1864.121 5209.165)" fill="#fff"/>
      <rect id="Rectangle_1079" data-name="Rectangle 1079" width="1.412" height="0.471" transform="translate(-602.377 5451.089)" fill="#fff"/>
      <rect id="Rectangle_1080" data-name="Rectangle 1080" width="1.412" height="0.471" transform="translate(-599.553 5451.089)" fill="#fff"/>
      <path id="Path_6248" data-name="Path 6248" d="M1263.8,227.3l1,1,.334-.333-1-1Z" transform="translate(-1864.121 5209.165)" fill="#fff"/>
      <path id="Path_6249" data-name="Path 6249" d="M1281.125,220.574h0v0h0l0,0h0l0-.005h0l0,0h0l0,0h0l0,0h0v0l0,0h0v0h0l0,0h0l0-.005h0l-.008-.009h-.007l0-.006h-.01l0,0h0v0h0l-.914-.915-.332.334,1,1Z" transform="translate(-1864.121 5209.165)" fill="#fff"/>
      <path id="Path_6250" data-name="Path 6250" d="M1286.738,234.553l.123-.123.008-.008,0,0h0l.861-.862-.332-.333-1,1Z" transform="translate(-1864.121 5209.165)" fill="#fff"/>
      <path id="Path_6251" data-name="Path 6251" d="M1287.117,226.565l-.482-.483h0l0,0,0,0h0l0,0h0l0,0,0,0h0c-.25-.248-.5-.5-.5-.5l-.334.333,1,1Z" transform="translate(-1864.121 5209.165)" fill="#fff"/>
      <rect id="Rectangle_1081" data-name="Rectangle 1081" width="0.471" height="1.413" transform="translate(-576.339 5437.061) rotate(-45.028)" fill="#fff"/>
      <path id="Path_6252" data-name="Path 6252" d="M1290.895,230.343h0v0h0l-.779-.779-.332.333.81.81.332-.333-.007-.009h0l0,0h0l0,0h0l0,0h0l-.006-.006" transform="translate(-1864.121 5209.165)" fill="#fff"/>
      <path id="Path_6253" data-name="Path 6253" d="M1289.734,231.557l-.334-.333-1,1,.334.333Z" transform="translate(-1864.121 5209.165)" fill="#fff"/>
      <rect id="Rectangle_1082" data-name="Rectangle 1082" width="1.412" height="0.471" transform="translate(-603.582 5427.51)" fill="#fff"/>
      <rect id="Rectangle_1083" data-name="Rectangle 1083" width="1.412" height="0.472" transform="translate(-579.712 5445.382) rotate(-45.031)" fill="#fff"/>
      <path id="Path_6254" data-name="Path 6254" d="M1278.689,241.924v.013l-.125.125.125.125v.208h.207l.037-.036h0l.02-.019.009-.011.012-.011h0l.006-.006.006-.006h0l.012-.013h0l0,0,0,0h0l0,0,0-.005,0,0h0l0,0h0l.016-.014.006-.005h0l0,0,0,0h0l0,0h0l0,0h0l0,0,0,0,0,0,0,0,0,0,0,0h0l0,0v0h0l.664-.666-.332-.333-.715.714Z" transform="translate(-1864.121 5209.165)" fill="#fff"/>
      <rect id="Rectangle_1084" data-name="Rectangle 1084" width="1.412" height="0.471" transform="translate(-589.461 5427.51)" fill="#fff"/>
      <path id="Path_6255" data-name="Path 6255" d="M1278.795,218.909l.094-.093h.008v-.009l.232-.231-.225-.224,0,0,0,0,0,0h-1.413v.471h1.217Z" transform="translate(-1864.121 5209.165)" fill="#fff"/>
      <path id="Path_6256" data-name="Path 6256" d="M1280.748,240.544l.219-.22h0l.011-.011.766-.767-.334-.333-1,1Z" transform="translate(-1864.121 5209.165)" fill="#fff"/>
      <path id="Path_6257" data-name="Path 6257" d="M1285.119,224.567s-.139-.141-.317-.315a.114.114,0,0,0-.021-.023l-.021-.022h0l-.01-.01h0l-.012-.01v0l-.006-.005,0,0,0,0h0l-.015-.015-.582-.583-.332.333,1,1Z" transform="translate(-1864.121 5209.165)" fill="#fff"/>
      <path id="Path_6258" data-name="Path 6258" d="M1283.123,222.571l-.6-.6h0l0,0,0,0,0,0h0l0-.005h0l-.383-.384-.332.333,1,1Z" transform="translate(-1864.121 5209.165)" fill="#fff"/>
      <path id="Path_6259" data-name="Path 6259" d="M1282.744,238.547l.478-.478h0v0h0l.006-.005h0l.512-.511-.334-.333-1,1Z" transform="translate(-1864.121 5209.165)" fill="#fff"/>
      <rect id="Rectangle_1085" data-name="Rectangle 1085" width="1.412" height="0.471" transform="translate(-588.256 5451.089)" fill="#fff"/>
      <rect id="Rectangle_1086" data-name="Rectangle 1086" width="1.412" height="0.471" transform="translate(-606.406 5427.51)" fill="#fff"/>
      <rect id="Rectangle_1087" data-name="Rectangle 1087" width="1.412" height="0.471" transform="translate(-608.025 5451.089)" fill="#fff"/>
      <rect id="Rectangle_1088" data-name="Rectangle 1088" width="1.412" height="0.47" transform="translate(-607.16 5449.447) rotate(-45.028)" fill="#fff"/>
      <path id="Path_6260" data-name="Path 6260" d="M1255.814,219.313l1,1,.334-.333-1-1Z" transform="translate(-1864.121 5209.165)" fill="#fff"/>
      <path id="Path_6261" data-name="Path 6261" d="M1261.141,223.972l-1-1-.334.333,1,1Z" transform="translate(-1864.121 5209.165)" fill="#fff"/>
      <path id="Path_6262" data-name="Path 6262" d="M1256.3,218.816v-.471h-1.412v.044l.428.427Z" transform="translate(-1864.121 5209.165)" fill="#fff"/>
      <path id="Path_6263" data-name="Path 6263" d="M1259.289,238.618l1-1-.334-.334-.125.126h0l-.006.006h0l0,0-.861.863Z" transform="translate(-1864.121 5209.165)" fill="#fff"/>
      <rect id="Rectangle_1089" data-name="Rectangle 1089" width="0.47" height="1.411" transform="matrix(0.707, -0.707, 0.707, 0.707, -606.308, 5430.474)" fill="#fff"/>
      <path id="Path_6264" data-name="Path 6264" d="M1255.078,242.395h.434l.783-.783-.334-.332-1,1Z" transform="translate(-1864.121 5209.165)" fill="#fff"/>
      <rect id="Rectangle_1090" data-name="Rectangle 1090" width="1.412" height="0.471" transform="translate(-605.201 5451.089)" fill="#fff"/>
      <path id="Path_6265" data-name="Path 6265" d="M1209.061,231.264l.331.333.9-.894.334-.333-.334-.333-.1-.1-.333.333.1.1-.017.016-.877.878" transform="translate(-1864.121 5209.165)" fill="#fff"/>
      <rect id="Rectangle_1091" data-name="Rectangle 1091" width="1.411" height="0.471" transform="translate(-656.219 5427.51)" fill="#fff"/>
      <rect id="Rectangle_1092" data-name="Rectangle 1092" width="1.411" height="0.471" transform="translate(-655.1 5451.089)" fill="#fff"/>
      <rect id="Rectangle_1093" data-name="Rectangle 1093" width="1.412" height="0.471" transform="translate(-652.276 5451.089)" fill="#fff"/>
      <path id="Path_6266" data-name="Path 6266" d="M1207.4,233.6l1-1-.333-.333-.276.277h0l0,0h0l0,0,0,0-.714.713Z" transform="translate(-1864.121 5209.165)" fill="#fff"/>
      <rect id="Rectangle_1094" data-name="Rectangle 1094" width="0.471" height="1.412" transform="matrix(0.707, -0.707, 0.707, 0.707, -656.267, 5437.434)" fill="#fff"/>
      <rect id="Rectangle_1095" data-name="Rectangle 1095" width="1.412" height="0.471" transform="translate(-653.394 5427.51)" fill="#fff"/>
      <rect id="Rectangle_1096" data-name="Rectangle 1096" width="1.412" height="0.471" transform="translate(-643.804 5451.089)" fill="#fff"/>
      <rect id="Rectangle_1097" data-name="Rectangle 1097" width="1.412" height="0.471" transform="translate(-657.926 5451.089)" fill="#fff"/>
      <rect id="Rectangle_1098" data-name="Rectangle 1098" width="1.412" height="0.471" transform="translate(-647.746 5427.51)" fill="#fff"/>
      <rect id="Rectangle_1099" data-name="Rectangle 1099" width="1.412" height="0.471" transform="translate(-644.922 5427.51)" fill="#fff"/>
      <rect id="Rectangle_1100" data-name="Rectangle 1100" width="1.413" height="0.471" transform="translate(-649.453 5451.089)" fill="#fff"/>
      <rect id="Rectangle_1101" data-name="Rectangle 1101" width="1.413" height="0.471" transform="translate(-646.629 5451.089)" fill="#fff"/>
      <rect id="Rectangle_1102" data-name="Rectangle 1102" width="1.413" height="0.471" transform="translate(-650.571 5427.51)" fill="#fff"/>
      <path id="Path_6267" data-name="Path 6267" d="M1204.858,225.273l.333-.333-1-1-.333.333.414.415Z" transform="translate(-1864.121 5209.165)" fill="#fff"/>
      <rect id="Rectangle_1103" data-name="Rectangle 1103" width="1.412" height="0.471" transform="matrix(0.707, -0.707, 0.707, 0.707, -665.046, 5450.415)" fill="#fff"/>
      <path id="Path_6268" data-name="Path 6268" d="M1199.865,220.281l.636.636,0,0h0l0,0v0c.194.193.355.356.355.356l.334-.334-1-1Z" transform="translate(-1864.121 5209.165)" fill="#fff"/>
      <rect id="Rectangle_1104" data-name="Rectangle 1104" width="1.412" height="0.471" transform="translate(-663.574 5451.089)" fill="#fff"/>
      <rect id="Rectangle_1105" data-name="Rectangle 1105" width="1.413" height="0.471" transform="translate(-663.049 5448.417) rotate(-45)" fill="#fff"/>
      <rect id="Rectangle_1106" data-name="Rectangle 1106" width="1.412" height="0.471" transform="translate(-664.692 5427.51)" fill="#fff"/>
      <rect id="Rectangle_1107" data-name="Rectangle 1107" width="1.412" height="0.471" transform="translate(-659.054 5444.424) rotate(-44.999)" fill="#fff"/>
      <path id="Path_6269" data-name="Path 6269" d="M1199.135,242.395v-.471h-.734l-.471.471h1.205Z" transform="translate(-1864.121 5209.165)" fill="#fff"/>
      <path id="Path_6270" data-name="Path 6270" d="M1198.867,219.282l.332-.333-.6-.6h-.666l.086.086.851.851" transform="translate(-1864.121 5209.165)" fill="#fff"/>
      <rect id="Rectangle_1108" data-name="Rectangle 1108" width="1.413" height="0.471" transform="translate(-660.75 5451.089)" fill="#fff"/>
      <path id="Path_6271" data-name="Path 6271" d="M1202.561,222.977l0,0h0l.293.293.333-.333-1-1-.331.332.7.7Z" transform="translate(-1864.121 5209.165)" fill="#fff"/>
      <path id="Path_6272" data-name="Path 6272" d="M1205.857,226.272l.811.811.017.017h0l0,0h0c.1.1.164.163.164.163l.333-.332-1-1Z" transform="translate(-1864.121 5209.165)" fill="#fff"/>
      <rect id="Rectangle_1109" data-name="Rectangle 1109" width="1.411" height="0.471" transform="translate(-659.043 5427.51)" fill="#fff"/>
      <rect id="Rectangle_1110" data-name="Rectangle 1110" width="1.413" height="0.471" transform="translate(-661.868 5427.51)" fill="#fff"/>
      <rect id="Rectangle_1111" data-name="Rectangle 1111" width="1.413" height="0.471" transform="translate(-661.052 5446.421) rotate(-45.003)" fill="#fff"/>
      <rect id="Rectangle_1112" data-name="Rectangle 1112" width="1.411" height="0.471" transform="translate(-640.978 5451.089)" fill="#fff"/>
      <path id="Path_6273" data-name="Path 6273" d="M1252.313,224.628l-.843-.843h0l-.015-.015h0l-.015-.016h0l-.014-.015h0l-.011-.013h0l0,0h0v0l0,0h0l-.006-.005,0,0,0,0,0,0h0l0,0,0,0,0,0h0v0l0,0h0l-.006-.006-.049-.05-.334.333,1,1Z" transform="translate(-1864.121 5209.165)" fill="#fff"/>
      <path id="Path_6274" data-name="Path 6274" d="M1249.816,238.607l.514-.514h0l0,0,0,0,0,0,0,0h0l0,0,0,0,.01-.011h0l.451-.453-.332-.332-1,1Z" transform="translate(-1864.121 5209.165)" fill="#fff"/>
      <path id="Path_6275" data-name="Path 6275" d="M1247.82,240.6l1-1-.334-.332-1,1Z" transform="translate(-1864.121 5209.165)" fill="#fff"/>
      <rect id="Rectangle_1113" data-name="Rectangle 1113" width="0.471" height="1.412" transform="translate(-615.137 5431.131) rotate(-45.058)" fill="#fff"/>
      <path id="Path_6276" data-name="Path 6276" d="M1245.988,218.97l.334-.333-.293-.292h-1.412v.471h1.217Z" transform="translate(-1864.121 5209.165)" fill="#fff"/>
      <path id="Path_6277" data-name="Path 6277" d="M1245.736,241.924v.1l-.039.039.039.04v.293h.293l.033-.034h0l.018-.018c.006,0,.011-.012.019-.018h0l.006-.005,0-.006h0l0,0,0,0,0,0h0l0,0h0v-.005h0l0,0,0,0,0,0v0l0,0,.674-.673-.332-.333-.654.653Z" transform="translate(-1864.121 5209.165)" fill="#fff"/>
      <path id="Path_6278" data-name="Path 6278" d="M1248.318,220.634l-.348-.349,0,0h0l-.646-.647-.334.333,1,1Z" transform="translate(-1864.121 5209.165)" fill="#fff"/>
      <rect id="Rectangle_1114" data-name="Rectangle 1114" width="1.412" height="0.47" transform="translate(-610.642 5443.446) rotate(-45.031)" fill="#fff"/>
      <path id="Path_6279" data-name="Path 6279" d="M1257.721,230.7l.084-.083.242-.242,0,0,0,0,0,0,0,0h0c-.059-.058-.746-.746-.746-.746l-.332.334Z" transform="translate(-1864.121 5209.165)" fill="#fff"/>
      <path id="Path_6280" data-name="Path 6280" d="M1255.807,232.617l.629-.628h0l0,0h0l.006-.006h0l0,0v0l.006,0,.01-.011,0,0a.119.119,0,0,0,.02-.019v0l.317-.316-.334-.333-1,1Z" transform="translate(-1864.121 5209.165)" fill="#fff"/>
      <rect id="Rectangle_1115" data-name="Rectangle 1115" width="0.472" height="1.412" transform="matrix(0.707, -0.707, 0.707, 0.707, -609.146, 5437.122)" fill="#fff"/>
      <rect id="Rectangle_1116" data-name="Rectangle 1116" width="1.412" height="0.472" transform="translate(-612.64 5445.442) rotate(-45.031)" fill="#fff"/>
      <rect id="Rectangle_1117" data-name="Rectangle 1117" width="1.412" height="0.471" transform="translate(-622.328 5427.51)" fill="#fff"/>
      <path id="Path_6281" data-name="Path 6281" d="M1254.309,226.626l-.457-.458h0v0h0l-.535-.536-.332.333,1,1Z" transform="translate(-1864.121 5209.165)" fill="#fff"/>
      <rect id="Rectangle_1118" data-name="Rectangle 1118" width="1.412" height="0.471" transform="translate(-642.097 5427.51)" fill="#fff"/>
      <rect id="Rectangle_1119" data-name="Rectangle 1119" width="1.412" height="0.471" transform="translate(-636.449 5427.51)" fill="#fff"/>
      <rect id="Rectangle_1120" data-name="Rectangle 1120" width="1.412" height="0.471" transform="translate(-632.506 5451.089)" fill="#fff"/>
      <rect id="Rectangle_1121" data-name="Rectangle 1121" width="1.413" height="0.471" transform="translate(-635.331 5451.089)" fill="#fff"/>
      <rect id="Rectangle_1122" data-name="Rectangle 1122" width="1.412" height="0.471" transform="translate(-633.625 5427.51)" fill="#fff"/>
      <rect id="Rectangle_1123" data-name="Rectangle 1123" width="1.411" height="0.471" transform="translate(-638.154 5451.089)" fill="#fff"/>
      <rect id="Rectangle_1124" data-name="Rectangle 1124" width="1.412" height="0.471" transform="translate(-639.273 5427.51)" fill="#fff"/>
      <rect id="Rectangle_1125" data-name="Rectangle 1125" width="1.412" height="0.471" transform="translate(-626.857 5451.089)" fill="#fff"/>
      <rect id="Rectangle_1126" data-name="Rectangle 1126" width="1.412" height="0.471" transform="translate(-624.033 5451.089)" fill="#fff"/>
      <rect id="Rectangle_1127" data-name="Rectangle 1127" width="1.412" height="0.471" transform="translate(-627.976 5427.51)" fill="#fff"/>
      <rect id="Rectangle_1128" data-name="Rectangle 1128" width="1.412" height="0.471" transform="translate(-629.682 5451.089)" fill="#fff"/>
      <rect id="Rectangle_1129" data-name="Rectangle 1129" width="1.412" height="0.471" transform="translate(-625.152 5427.51)" fill="#fff"/>
      <rect id="Rectangle_1130" data-name="Rectangle 1130" width="1.412" height="0.471" transform="translate(-621.209 5451.089)" fill="#fff"/>
      <rect id="Rectangle_1131" data-name="Rectangle 1131" width="1.412" height="0.471" transform="translate(-630.801 5427.51)" fill="#fff"/>
      <path id="Path_6282" data-name="Path 6282" d="M1379.129,170.245l5.639,5.639h-13.785v3.452h13.785l-5.639,5.639h3.682l7.365-7.365-7.365-7.365Z" transform="translate(-1864.121 5209.165)" fill="#fff"/>
      <path id="Path_6283" data-name="Path 6283" d="M1362.742,165.441c-2.047,0-3.7,2.334-3.7,5.215v13.909c0,2.88,1.658,5.216,3.7,5.216h35.674c2.047,0,3.7-2.336,3.7-5.216V170.656c0-2.881-1.658-5.215-3.7-5.215Zm38.8,5.215v13.909c0,2.555-1.4,4.634-3.123,4.634h-35.674c-1.723,0-3.123-2.079-3.123-4.634V170.656c0-2.556,1.4-4.634,3.123-4.634h35.674c1.723,0,3.123,2.078,3.123,4.634" transform="translate(-1864.121 5209.165)" fill="#fff"/>
      <path id="Path_6284" data-name="Path 6284" d="M847.479,425.925l5.639,5.639H839.333v3.451h13.784l-5.639,5.64h3.682l7.365-7.367-7.365-7.363Z" transform="translate(-1864.121 5209.165)" fill="#fff"/>
      <path id="Path_6285" data-name="Path 6285" d="M866.766,421.121H831.092c-2.046,0-3.7,2.332-3.7,5.215v13.908c0,2.881,1.658,5.217,3.7,5.217h35.674c2.047,0,3.706-2.336,3.706-5.217V426.336c0-2.883-1.659-5.215-3.706-5.215m3.125,19.123c0,2.555-1.4,4.635-3.125,4.635H831.092c-1.722,0-3.123-2.08-3.123-4.635V426.336c0-2.555,1.4-4.633,3.123-4.633h35.674c1.723,0,3.125,2.078,3.125,4.633Z" transform="translate(-1864.121 5209.165)" fill="#fff"/>
    </g>
  </g>
</svg>
