<svg xmlns="http://www.w3.org/2000/svg" width="50.345" height="58.096" viewBox="0 0 50.345 58.096">
  <g id="Group_180" data-name="Group 180" transform="translate(-673.655 -1843.247)">
    <path id="Path_4782" data-name="Path 4782" d="M471.879,49.326c-1.419,0-2.752.013-4.084,0a4.509,4.509,0,0,1-4.569-3.459,6.178,6.178,0,0,1-.139-1.42q-.011-16.063-.013-32.127a2.362,2.362,0,0,1,.741-1.8q4.943-4.9,9.845-9.834A2.158,2.158,0,0,1,475.3,0q12.3.019,24.608.01a4.477,4.477,0,0,1,4.706,4.738c0,1.311,0,2.623,0,4,.239.012.447.031.656.031,1.115,0,2.23,0,3.345,0a4.518,4.518,0,0,1,4.793,4.791c.011,4.777,0,9.554,0,14.332q0,12.659,0,25.319a4.656,4.656,0,0,1-1.859,4,4.593,4.593,0,0,1-2.856.872c-4.679-.012-9.358-.005-14.036-.005q-8.959,0-17.918,0a4.507,4.507,0,0,1-4.87-4.876c0-1.27,0-2.54,0-3.889m-5.735-35.919v.678q0,15.165,0,30.331c0,1.337.5,1.839,1.834,1.839H499.69c1.391,0,1.863-.47,1.864-1.863q0-19.733,0-39.466c0-1.387-.485-1.877-1.859-1.877q-11.257,0-22.514,0c-.208,0-.417.02-.6.029a1.158,1.158,0,0,0-.049.19c0,1.771.006,3.543-.016,5.313a6.279,6.279,0,0,1-.166,1.475,4.425,4.425,0,0,1-4.281,3.345c-1.947.022-3.895,0-5.923,0m8.8,35.919c0,1.3,0,2.534,0,3.763,0,1.506.454,1.961,1.956,1.961h31.479c1.5,0,1.973-.471,1.973-1.951q0-19.678,0-39.356a5.38,5.38,0,0,0-.013-.6,1.342,1.342,0,0,0-1.167-1.259c-1.5-.052-3.009-.017-4.553-.017v.761q0,15.886-.008,31.771a6.262,6.262,0,0,1-.2,1.706,4.5,4.5,0,0,1-4.632,3.215q-11.977.007-23.953,0h-.877m-1.5-43.9-4.881,4.887c1.191,0,2.458.042,3.72-.017a1.267,1.267,0,0,0,1.154-1.31c.024-1.192.007-2.384.007-3.56" transform="translate(210.581 1843.247)" fill="#0075bf"/>
    <path id="Path_4783" data-name="Path 4783" d="M538.946,147.954c-2.886,0-5.772,0-8.658,0a1.54,1.54,0,0,1-1.59-1.179,1.481,1.481,0,0,1,.811-1.691,2.367,2.367,0,0,1,.924-.184q8.539-.016,17.077,0c1.229,0,1.958.815,1.73,1.872a1.529,1.529,0,0,1-1.635,1.187q-4.329.007-8.658,0" transform="translate(155.461 1721.475)" fill="#0075bf"/>
    <path id="Path_4784" data-name="Path 4784" d="M577.8,76.448c-1.792,0-3.585.022-5.376-.008a1.5,1.5,0,0,1-1.451-2.063,1.536,1.536,0,0,1,1.567-.962q4.451-.007,8.9,0c.558,0,1.115-.007,1.673,0a1.521,1.521,0,1,1,0,3.032c-1.772.016-3.544,0-5.317,0Z" transform="translate(119.987 1781.549)" fill="#0075bf"/>
    <path id="Path_4785" data-name="Path 4785" d="M535.393,216.537q2.506,0,5.013,0a1.489,1.489,0,0,1,1.445.872,1.291,1.291,0,0,1-.175,1.557,2.143,2.143,0,0,1-1.282.611c-3.361.049-6.723.041-10.085.018a1.5,1.5,0,0,1-1.595-1.565,1.527,1.527,0,0,1,1.665-1.491c1.671-.008,3.342,0,5.013,0" transform="translate(155.413 1661.259)" fill="#0075bf"/>
  </g>
</svg>
