<svg xmlns="http://www.w3.org/2000/svg" width="81" height="81" viewBox="0 0 81 81">
  <g id="Group_213" data-name="Group 213" transform="translate(-1000 -4273)">
    <circle id="Ellipse_6" data-name="Ellipse 6" cx="40.5" cy="40.5" r="40.5" transform="translate(1000 4273)" fill="#6095ff"/>
    <g id="Group_208" data-name="Group 208" transform="translate(1018 4287)">
      <path id="Path_4966" data-name="Path 4966" d="M539.406,57.464c-7.994-1.99-17.052-10.446-20.339-19.648a29.957,29.957,0,0,1-1.978-9.176c-.141-4.8-.113-9.607-.145-14.411,0-.7.278-1.033,1.032-1.247a92.049,92.049,0,0,0,10.379-3.589,85.078,85.078,0,0,0,10.523-5.27,1.67,1.67,0,0,1,1.894,0,88.319,88.319,0,0,0,20.705,8.792c1.04.292,1.237.563,1.235,1.629-.006,4.089.067,8.18-.04,12.266a32.5,32.5,0,0,1-8.925,21.949,32.868,32.868,0,0,1-9.884,7.393,37.1,37.1,0,0,1-3.618,1.312ZM560.451,15c-.21-.07-.423-.143-.637-.212-1.494-.482-3-.93-4.48-1.449a90.056,90.056,0,0,1-15.019-6.869.848.848,0,0,0-.995.009c-.745.453-1.515.866-2.284,1.278a87.453,87.453,0,0,1-17.317,7.055.641.641,0,0,0-.551.755c.019,3.285,0,6.57.013,9.855a32.944,32.944,0,0,0,1.937,11.4,30.613,30.613,0,0,0,7.414,11.413,30.64,30.64,0,0,0,9.51,6.479,3.877,3.877,0,0,0,3.335.089c.489-.231,1-.42,1.482-.657a31.451,31.451,0,0,0,9.214-6.9A30.067,30.067,0,0,0,560.38,27.4c.161-4.03.069-8.071.091-12.107,0-.087-.011-.173-.02-.291" transform="translate(-516.944 -3.828)" fill="#fff"/>
      <path id="Path_4967" data-name="Path 4967" d="M651.654,103.214c.163-.168.3-.317.449-.461q1.408-1.409,2.817-2.817a1.076,1.076,0,0,1,1.669,1.357,2.076,2.076,0,0,1-.152.173q-1.978,1.981-3.958,3.959a1.074,1.074,0,0,1-1.37.22,1.349,1.349,0,0,1-.264-.209q-.933-.927-1.86-1.859a1.078,1.078,0,0,1,.056-1.658,1.039,1.039,0,0,1,1.308,0c.368.325.706.685,1.057,1.03.08.079.155.163.249.263m-.079,1.922a.524.524,0,0,0,.433-.178q1.983-1.986,3.968-3.969a.939.939,0,0,0,.093-.1.409.409,0,0,0-.214-.643.453.453,0,0,0-.477.169q-1.7,1.7-3.4,3.4c-.242.242-.4.243-.637,0-.443-.442-.883-.886-1.328-1.325a.415.415,0,1,0-.586.584q.953.96,1.915,1.912a1.035,1.035,0,0,0,.235.146" transform="translate(-629.839 -85.906)" fill="#fff"/>
      <path id="Path_4968" data-name="Path 4968" d="M548.1,81.785c0-.663-.01-1.326,0-1.989a1.2,1.2,0,0,1,.91-1.306q2.953-1.051,5.911-2.089a1.147,1.147,0,0,1,1.448.36,1.049,1.049,0,0,1-.057,1.348,2.08,2.08,0,0,1-.744.457q-2.353.868-4.722,1.691c-.344.119-.5.258-.484.651.034.959.019,1.919.008,2.879a1.167,1.167,0,0,1-.782,1.229,1.037,1.037,0,0,1-1.411-.832,23.926,23.926,0,0,1-.019-2.4H548.1" transform="translate(-543.65 -65.958)" fill="#fff"/>
      <path id="Path_4969" data-name="Path 4969" d="M720.146,257.631a1.1,1.1,0,0,1,.865,1.782c-.494.759-1.032,1.493-1.595,2.2a31.458,31.458,0,0,1-5.221,5.121,1.127,1.127,0,0,1-1.642-.032,1.144,1.144,0,0,1,.176-1.671c.65-.581,1.34-1.119,1.987-1.7a26.659,26.659,0,0,0,4.3-4.98,1.264,1.264,0,0,1,1.13-.719" transform="translate(-684.403 -221.425)" fill="#fff"/>
      <path id="Path_4970" data-name="Path 4970" d="M692.662,322.253a1.178,1.178,0,0,1,1.148-1.181,1.14,1.14,0,0,1,1.14,1.069,1.236,1.236,0,0,1-1.191,1.216,1.113,1.113,0,0,1-1.1-1.1" transform="translate(-667.596 -275.817)" fill="#fff"/>
      <path id="Path_4971" data-name="Path 4971" d="M615.421,69.085a1.15,1.15,0,0,1-1.092-1.123,1.176,1.176,0,0,1,1.142-1.132,1.161,1.161,0,0,1,1.121,1.148,1.187,1.187,0,0,1-1.171,1.106" transform="translate(-600.437 -57.844)" fill="#fff"/>
      <text id="NAAC" transform="translate(8.36 29.217)" fill="#fff" font-size="8" font-family="Poppins-Bold, Poppins" font-weight="700"><tspan x="0" y="0">NAAC</tspan></text>
    </g>
  </g>
</svg>
