<svg width="81" height="80" viewBox="0 0 81 80" fill="none" xmlns="http://www.w3.org/2000/svg">
<g clip-path="url(#clip0_306_126)">
<path d="M0.521503 45.7375C0.521503 38.186 0.536489 30.6355 0.500043 23.084C0.460685 22.7704 0.55557 22.4553 0.767243 22.1975C0.978917 21.9396 1.2929 21.7568 1.65023 21.683C5.97659 20.4871 10.2535 19.1662 14.5305 17.847C16.072 17.3714 17.6392 16.9465 19.1849 16.4865C19.461 16.4295 19.7027 16.2867 19.8633 16.0857C20.0238 15.8847 20.0919 15.6398 20.0543 15.3983C20.0125 10.7905 20.0307 6.18179 20.0329 1.57309C20.0329 0.147245 20.2065 6.08967e-05 21.8444 6.08967e-05H46.0115C46.393 -0.0162294 46.7744 0.0341572 47.1326 0.148165C47.5399 0.291669 47.6301 0.424134 47.7405 0.845448C48.4909 3.72473 47.8968 6.62518 48.0512 9.50906C48.0855 10.153 48.2934 10.2799 48.9891 10.2763C54.068 10.2523 59.148 10.2763 64.2269 10.256C65.7372 10.2505 66.2883 10.4124 66.2904 12.0553C66.3047 21.1053 66.3018 30.1556 66.2818 39.2062C66.2543 39.461 66.3205 39.7168 66.4712 39.9376C66.622 40.1584 66.8496 40.333 67.1221 40.437C69.8663 41.7525 72.5891 43.1047 75.3119 44.4505C76.6829 45.1267 78.025 45.8479 79.4206 46.4826C79.7799 46.6327 80.076 46.8749 80.268 47.1756C80.46 47.4763 80.5385 47.8208 80.4926 48.1614C80.4733 53.908 80.4808 59.6546 80.4808 65.4012C80.4808 66.2338 80.4292 67.0699 80.4957 67.8988C80.5686 68.2684 80.4844 68.6483 80.2583 68.9691C80.0323 69.2899 79.6795 69.5303 79.2641 69.6466C77.579 70.2344 76.1159 71.1791 74.5069 71.8985C73.1133 72.5222 71.784 73.3501 70.3916 73.9949C68.4171 74.9093 66.6205 76.0794 64.5495 76.8586C63.4422 77.2744 62.4838 77.9735 61.3947 78.4629C60.4953 78.8006 59.6467 79.2303 58.8672 79.7425C58.6761 79.8936 58.4299 79.9832 58.1705 79.996C57.9111 80.0087 57.6547 79.9438 57.4448 79.8124C55.034 78.4325 52.3595 77.4363 49.9412 76.0822C48.3622 75.1991 46.6557 74.5184 45.095 73.6343C44.0422 73.0325 42.9545 72.4768 41.8362 71.9693C40.1758 71.226 38.5796 70.3945 36.9395 69.6263C36.542 69.5028 36.1145 69.4683 35.6972 69.5261C24.7298 69.523 13.7623 69.523 2.79493 69.5261C2.40689 69.5261 2.01891 69.5132 1.63087 69.5095C0.8312 69.5022 0.512842 69.1839 0.513914 68.4746C0.533923 60.8959 0.538171 53.3171 0.526737 45.7384M22.4887 35.1595V58.065C22.4887 61.0915 22.5081 64.1171 22.4717 67.1435C22.4653 67.7047 22.6593 67.8353 23.2756 67.8169C24.6006 67.7783 25.9308 67.7645 27.2535 67.8169C28.0039 67.8491 28.1615 67.6329 28.1562 67.0249C28.1219 63.6663 28.1337 60.3096 28.1433 56.9474C28.1433 55.815 28.5109 55.5123 29.8122 55.5086C31.5273 55.5031 33.2425 55.4774 34.9576 55.5215C35.6672 55.5399 35.8943 55.3946 35.8793 54.7516C35.8279 52.6422 35.8859 50.532 35.8495 48.4217C35.8191 48.0644 35.9244 47.7081 36.1499 47.4066C36.3755 47.105 36.7091 46.8744 37.1004 46.7494C38.226 46.2701 39.4093 45.904 40.5102 45.3603C40.9936 45.1221 41.0536 44.6906 41.5392 44.4882C42.6808 44.0117 43.7261 43.366 44.8623 42.8784C45.1081 42.7976 45.315 42.6481 45.4496 42.454C45.5842 42.2599 45.6385 42.0325 45.604 41.8086C45.5861 28.9821 45.5887 16.1556 45.6116 3.32918C45.6116 2.58498 45.3136 2.49299 44.5621 2.49483C37.606 2.51813 30.6498 2.51813 23.6936 2.49483C22.7642 2.49023 22.4577 2.62637 22.461 3.50672C22.5049 14.0561 22.4887 24.6065 22.4887 35.1559M20.0329 43.1875V20.1238C20.0329 19.9297 20.0232 19.7347 20.0329 19.5415C20.0607 19.0659 19.915 18.8663 19.304 19.0815C18.5183 19.3575 17.696 19.5709 16.8963 19.811C12.6354 21.0814 8.38638 22.3821 4.10397 23.5973C3.92967 23.622 3.76266 23.6759 3.61275 23.7561C3.46285 23.8363 3.33292 23.9412 3.2304 24.0646C3.12789 24.1881 3.05494 24.3277 3.01554 24.4755C2.97615 24.6232 2.97113 24.7762 3.00089 24.9257C3.0259 38.6898 3.03148 52.454 3.0179 66.2181C3.06305 66.492 3.04539 66.7707 2.96556 67.0387C2.58716 67.7571 3.00307 67.8095 3.68054 67.8077C8.50427 67.7948 13.3171 67.8013 18.1366 67.8013C20.0296 67.8013 20.0308 67.8013 20.0308 66.1611V43.1875M48.0771 41.1122C48.3854 41.1124 48.6839 41.0204 48.9216 40.8519C51.609 39.5401 54.304 38.2403 56.9774 36.9101C57.3372 36.7291 57.7478 36.636 58.1647 36.6409C58.5817 36.6458 58.9893 36.7484 59.3432 36.9377C60.582 37.4822 61.787 38.0816 62.9534 38.7334C63.7981 39.2218 63.8055 38.9008 63.8045 38.2918C63.7959 30.0501 63.7991 21.8084 63.8142 13.5667C63.8142 12.9642 63.6726 12.7701 62.9223 12.7747C58.2979 12.8072 53.6737 12.8072 49.0493 12.7747C48.2154 12.7673 48.0577 12.9854 48.0588 13.6569C48.0859 22.5646 48.0921 31.4723 48.0771 40.38V41.1122ZM59.3505 68.0331H59.3592C59.3592 70.8342 59.3593 73.6353 59.3647 76.4373C59.3647 76.7022 59.2048 77.0545 59.5028 77.2155C59.8598 77.4087 60.1459 77.0877 60.4439 76.9395C66.0073 74.1798 71.5623 71.4156 77.1407 68.6834C77.4152 68.5837 77.6459 68.412 77.7999 68.1929C77.9539 67.9739 78.0232 67.7186 77.998 67.4637C77.9701 62.0832 77.9831 56.7008 77.981 51.3213C77.981 50.9653 78.1138 50.4934 77.7269 50.3149C77.2906 50.1107 76.8254 50.3958 76.4084 50.6028C72.4004 52.5944 68.3689 54.5483 64.4027 56.5978C63.6084 57.0081 62.5569 56.9041 61.9791 57.4855C61.3242 58.0787 60.5439 58.5598 59.6798 58.9031C59.5668 58.9346 59.4705 58.9995 59.4081 59.0863C59.3457 59.173 59.321 59.276 59.3388 59.3768C59.3709 62.2607 59.3581 65.1455 59.3581 68.0303M51.3722 56.3421C51.3722 58.4744 51.384 60.4724 51.3722 62.4695C51.3626 63.6544 50.4181 64.1161 49.2422 63.5495C48.0138 62.9571 46.7994 62.3334 45.5302 61.8109C44.8715 61.6217 44.312 61.2384 43.9513 60.729C43.5906 60.2196 43.452 59.617 43.5598 59.0282C43.7281 57.4588 43.6016 55.8665 43.5962 54.2833C43.5962 53.323 43.9178 52.2016 42.178 52.0526C42.1534 52.0526 42.1341 52.0149 42.1084 51.9992C41.1833 51.4372 40.2863 50.8457 39.3215 50.3232C38.3932 49.8154 38.3566 49.8476 38.3566 50.7831C38.3566 56.1415 38.3985 61.5 38.3192 66.8574C38.2488 67.2981 38.3486 67.7463 38.6037 68.1335C38.8587 68.5207 39.2546 68.8253 39.7308 69.0008C40.4512 69.3191 41.1503 69.6871 41.8663 70.0256C45.3737 71.686 48.8178 73.4439 52.2856 75.1651C53.8056 75.9194 55.3288 76.6682 56.9763 77.4814V67.9328C56.9763 65.0731 56.9763 62.2135 56.9763 59.3538C57.0291 59.1015 56.9653 58.8415 56.7986 58.6288C56.632 58.4161 56.3756 58.2674 56.0834 58.2141C54.7268 57.9012 53.4403 57.3967 52.2769 56.7211C51.9876 56.5692 51.6825 56.4405 51.3657 56.3366M39.5743 47.9931C41.2648 48.8274 42.7902 49.5468 44.2737 50.3296C44.4768 50.4591 44.7227 50.5296 44.9756 50.5309C45.2286 50.5322 45.4753 50.4643 45.6801 50.337C51.4065 47.4816 57.1414 44.6382 62.8848 41.8067C63.4948 41.5069 63.348 41.3468 62.871 41.1104C61.6104 40.4894 60.3262 39.8979 59.1085 39.2191C58.8275 39.0421 58.4868 38.9491 58.1383 38.9541C57.7899 38.959 57.4528 39.0618 57.1789 39.2467C53.9813 40.8703 50.7473 42.4479 47.5314 44.043L39.5712 47.9931M76.7225 47.9829C74.9002 47.0814 73.2397 46.2572 71.5771 45.4293C71.2469 45.2656 71.0274 45.4781 70.7883 45.5958C68.8867 46.5359 66.9913 47.4844 65.0907 48.4263C61.2625 50.3232 57.4347 52.2212 53.6072 54.1205C53.3113 54.2686 52.5063 54.4057 53.4057 54.8454C54.7992 55.528 56.1926 56.2087 57.5754 56.906C57.7561 57.0152 57.9722 57.0732 58.1933 57.0719C58.4143 57.0705 58.6293 57.01 58.8083 56.8986C60.6895 55.9557 62.4197 54.8215 64.4231 54.0166C66.9572 52.9982 69.3241 51.6727 71.7574 50.4704C73.3653 49.6746 74.973 48.8642 76.7245 47.9866M30.6227 62.6894C30.6227 64.1612 30.6431 65.6275 30.611 67.0957C30.6002 67.6016 30.7019 67.8445 31.388 67.8178C32.6453 67.7691 33.9069 67.781 35.1654 67.8178C35.7228 67.8325 35.8718 67.678 35.8686 67.2098C35.8464 64.2164 35.8464 61.2231 35.8686 58.2297C35.8686 57.7376 35.6769 57.629 35.1473 57.641C33.8889 57.6704 32.627 57.6759 31.3686 57.641C30.7779 57.6244 30.5904 57.7652 30.6055 58.2849C30.6473 59.7567 30.6193 61.2221 30.6193 62.6912M68.8276 44.1249C67.9701 43.6787 67.194 43.2574 66.3943 42.8784C66.1863 42.78 65.9869 42.6025 65.6257 42.8076C64.5452 43.4258 63.4142 43.9795 62.2876 44.537C59.5735 45.8791 56.8455 47.2047 54.1303 48.5441C52.0754 49.556 50.0323 50.5936 47.9763 51.6055C47.5658 51.8079 47.3975 51.9339 47.941 52.1805C48.6421 52.4904 49.322 52.8344 49.9776 53.2107C50.2638 53.3791 50.4063 53.2107 50.5735 53.139C51.1341 52.8934 51.7206 52.6634 52.2416 52.3828C56.1831 50.2597 60.309 48.4089 64.2902 46.3455C65.7695 45.5792 67.2915 44.8737 68.8297 44.1258M46.0554 53.7066C46.0554 55.5721 46.0768 57.2022 46.0457 58.8322C46.0329 59.5442 46.1037 60.1265 47.1263 60.2581C47.4353 60.3201 47.7189 60.4527 47.9473 60.6417C48.1531 60.7962 48.2517 61.0768 48.6183 60.937C48.9849 60.7971 48.8672 60.5166 48.8682 60.282C48.8757 58.7053 48.8682 57.1295 48.879 55.5528C48.8481 55.2604 48.7201 54.9817 48.5102 54.7497C47.9635 53.9218 46.824 54.4057 46.0554 53.7066Z" fill="black"/>
<path d="M22.4832 35.1579C22.4832 24.6085 22.4983 14.0582 22.4554 3.50875C22.4554 2.62564 22.7587 2.4895 23.6881 2.49686C30.6435 2.52997 37.5997 2.52997 44.5566 2.49686C45.307 2.49686 45.6071 2.58885 45.6061 3.3312C45.5761 16.1577 45.5737 28.9841 45.5987 41.8106C45.6333 42.0345 45.5787 42.2619 45.4441 42.456C45.3095 42.6501 45.1026 42.7997 44.8568 42.8805C43.7205 43.368 42.6756 44.0138 41.5339 44.4903C41.0484 44.6936 40.9881 45.1241 40.5047 45.3623C39.4027 45.9051 38.2194 46.2721 37.0939 46.7514C36.7026 46.8765 36.3692 47.1071 36.1436 47.4086C35.9181 47.7102 35.8125 48.0664 35.8429 48.4238C35.8794 50.5331 35.8216 52.6443 35.873 54.7536C35.888 55.3975 35.6585 55.542 34.951 55.5236C33.2359 55.4794 31.5208 55.5052 29.8057 55.5107C28.5043 55.5107 28.14 55.817 28.1368 56.9494C28.1271 60.3089 28.1143 63.6647 28.1486 67.0269C28.155 67.6368 27.9963 67.8548 27.2459 67.8189C25.9232 67.7628 24.593 67.7766 23.268 67.8189C22.6517 67.8373 22.4576 67.7067 22.4641 67.1456C22.4995 64.12 22.4811 61.0936 22.4811 58.0671L22.4832 35.1579ZM26.8987 40.6626C26.769 40.6552 26.7153 40.7049 26.7443 40.8153C26.7443 40.8705 26.7367 40.9266 26.7367 40.9818C26.7174 42.7885 26.7184 42.7885 28.8484 42.7885C30.6449 42.7885 30.6226 42.7885 30.6044 41.2485C30.599 40.7886 30.4692 40.6129 29.9043 40.6359C28.9042 40.6773 27.9008 40.6571 26.9028 40.6626M40.5164 40.8226L40.6334 40.6984L40.4908 40.6791C39.3931 40.6681 38.2954 40.6525 37.1988 40.6506C36.9641 40.6506 36.6296 40.5687 36.6286 40.9192C36.5326 41.4927 36.5631 42.0766 36.7186 42.6404C36.8987 43.0083 37.6642 42.7765 38.1627 42.7774C38.8959 42.7774 39.824 43.0534 40.3128 42.6569C40.8016 42.2604 40.3621 41.4436 40.5164 40.8226ZM28.6631 9.00975C28.2777 9.0277 27.8913 9.02525 27.5063 9.00239C26.8364 8.93064 26.7164 9.19465 26.7207 9.70979C26.7325 11.1504 26.7077 11.1504 28.3778 11.1504C28.8602 11.1504 29.3427 11.1228 29.824 11.1577C30.3846 11.1982 30.6065 11.074 30.6065 10.5331C30.6065 9.00975 30.6397 9.00975 28.8549 9.00975H28.6631ZM38.6118 9.00975C36.6137 9.00975 36.663 9.00975 36.5987 10.3068C36.5644 10.9967 36.7915 11.246 37.6008 11.1614C38.1442 11.1019 38.6943 11.1019 39.2378 11.1614C40.2368 11.2764 40.5724 10.9774 40.4952 10.0989C40.388 8.84416 40.6646 9.02998 39.1906 9.00975C38.9977 9.00975 38.8047 9.00975 38.6118 9.00975ZM28.634 34.8497C30.5892 34.8497 30.6 34.8497 30.5871 33.8489C30.57 32.5555 30.8209 32.745 29.2537 32.722C28.8357 32.7165 28.4177 32.722 28.0007 32.722C26.4678 32.7349 26.8128 32.63 26.6917 33.8185C26.5984 34.7265 27.0026 34.9822 27.9599 34.8543C28.1843 34.8395 28.4096 34.8395 28.634 34.8543M30.5712 26.9735C30.5017 26.7442 30.4472 26.5117 30.4081 26.2772C30.2763 24.8283 30.2795 24.8283 28.5859 24.8283H28.4893C26.5523 24.8283 26.5598 24.8283 26.7034 26.4786C26.7324 26.8144 26.8183 26.9846 27.2525 26.9781C28.3426 26.9625 29.4339 26.9726 30.5691 26.9726M38.572 26.9726C39.0544 26.9726 39.5368 26.9809 40.0192 26.9726C40.2186 26.9671 40.4167 27.0159 40.405 26.6783C40.3428 24.8339 40.3621 24.8329 38.2043 24.8329C38.0442 24.8458 37.8831 24.8458 37.723 24.8329C36.7583 24.6738 36.5439 25.0372 36.5953 25.8145C36.6768 26.9781 36.6157 26.9818 37.9889 26.9818C38.1819 26.9818 38.3748 26.9818 38.5678 26.9818M38.5034 34.8635C40.2989 34.8635 40.299 34.8635 40.299 33.9758C40.299 32.7349 40.2991 32.7349 38.8101 32.7349C38.4556 32.7565 38.0995 32.754 37.7455 32.7275C36.8001 32.596 36.5301 32.9115 36.5901 33.7155C36.6769 34.8598 36.6115 34.8635 37.9214 34.8644H38.5024M28.572 19.033C28.9911 19.033 29.4123 19.0063 29.8271 19.0394C30.391 19.0836 30.6086 18.9474 30.6086 18.4102C30.6086 16.9384 30.6419 16.9384 28.975 16.9384C28.6216 16.9581 28.2669 16.9559 27.9138 16.9319C26.9769 16.8133 26.6048 17.0589 26.6906 17.9438C26.7978 19.0284 26.7154 19.0339 27.9931 19.0339H28.573M38.4628 19.0339C40.3923 19.0339 40.3708 19.0339 40.3215 17.4599C40.3097 17.0727 40.2069 16.9172 39.7373 16.9374C39.1285 16.9641 38.5174 16.943 37.9075 16.9439C36.6212 16.9439 36.6909 16.9439 36.5998 18.0202C36.529 18.8481 36.8076 19.1921 37.7905 19.0394C38.0143 19.0209 38.2398 19.0194 38.4639 19.0348" fill="#E4F1FF"/>
<path d="M20.0317 43.1859V66.1632C20.0317 67.8034 20.0316 67.8033 18.1375 67.8033C13.3138 67.8033 8.49987 67.7978 3.6815 67.8098C3.00403 67.8098 2.58705 67.7592 2.96652 67.0408C3.04635 66.7728 3.06401 66.494 3.01886 66.2202C3.01886 52.4561 3.01328 38.6916 3.00185 24.9268C2.97223 24.7774 2.97731 24.6245 3.01677 24.4767C3.05622 24.329 3.12914 24.1894 3.23163 24.066C3.33412 23.9426 3.46414 23.8377 3.61398 23.7575C3.76381 23.6773 3.93044 23.6232 4.10467 23.5985C8.38707 22.3833 12.6363 21.0826 16.8973 19.8122C17.7013 19.573 18.5182 19.3605 19.3039 19.0827C19.9149 18.8665 20.0606 19.068 20.0328 19.5427C20.021 19.7368 20.0328 19.9308 20.0328 20.1249L20.0317 43.1859Z" fill="#6E7689"/>
<path d="M48.0791 41.1094V40.3735C48.0791 31.4658 48.0729 22.5581 48.0608 13.6504C48.0608 12.9789 48.2174 12.7618 49.0513 12.7682C53.675 12.8056 58.2992 12.8056 62.9243 12.7682C63.6746 12.7627 63.8183 12.9577 63.8162 13.5602C63.7933 21.8019 63.7901 30.0436 63.8065 38.2853C63.8065 38.8934 63.8001 39.2153 62.9554 38.7269C61.789 38.0751 60.584 37.4757 59.3452 36.9312C58.9914 36.7418 58.5838 36.6391 58.1668 36.6342C57.7497 36.6294 57.3391 36.7225 56.9794 36.9036C54.3049 38.2347 51.6102 39.5336 48.9239 40.8454C48.6865 41.0137 48.3881 41.1058 48.0802 41.1057" fill="#6E7689"/>
<path d="M59.3462 68.0329C59.3462 65.1481 59.359 62.2633 59.3268 59.3794C59.3091 59.2786 59.3338 59.1756 59.3962 59.0888C59.4586 59.0021 59.5548 58.9372 59.6678 58.9056C60.5319 58.5627 61.3122 58.0819 61.9672 57.489C62.5449 56.9076 63.5965 57.0116 64.3908 56.6013C68.357 54.5518 72.3917 52.5979 76.3965 50.6063C76.8135 50.3993 77.2797 50.1142 77.715 50.3184C78.1008 50.5024 77.9691 50.9678 77.9691 51.3247C77.9691 56.7052 77.9582 62.0876 77.9861 67.4671C78.0114 67.7221 77.9423 67.9774 77.7882 68.1965C77.6342 68.4156 77.4034 68.5873 77.1287 68.6869C71.5546 71.419 65.9954 74.1879 60.432 76.943C60.1383 77.0884 59.8489 77.4103 59.4909 77.219C59.1929 77.058 59.3538 76.7057 59.3538 76.4408C59.3441 73.6397 59.3472 70.8386 59.3472 68.0366L59.3462 68.0329Z" fill="#E4F1FF"/>
<path d="M51.3722 56.3394C51.6889 56.4434 51.994 56.5721 52.2834 56.7239C53.4469 57.3994 54.7331 57.9039 56.0896 58.2169C56.3819 58.27 56.6387 58.4187 56.8054 58.6315C56.9721 58.8442 57.0356 59.1043 56.9826 59.3567C56.9769 62.2163 56.9769 65.076 56.9826 67.9356V77.475C55.335 76.6618 53.8118 75.9112 52.2918 75.1587C48.823 73.4376 45.3789 71.6805 41.8726 70.0192C41.1576 69.6807 40.4577 69.3137 39.7373 68.9944C39.2611 68.819 38.8652 68.5143 38.6102 68.1271C38.3551 67.74 38.2553 67.2917 38.3257 66.8511C38.405 61.4936 38.361 56.1352 38.3631 50.7768C38.3631 49.8421 38.3962 49.8099 39.3278 50.3168C40.2818 50.8393 41.1855 51.4308 42.1149 51.9929C42.1406 52.0085 42.1599 52.0434 42.1845 52.0462C43.9275 52.1952 43.6005 53.3166 43.6027 54.277C43.6027 55.8592 43.7346 57.4525 43.5653 59.0218C43.4575 59.6108 43.5962 60.2135 43.957 60.7229C44.3179 61.2323 44.8775 61.6155 45.5364 61.8045C46.8056 62.327 48.0192 62.9498 49.2487 63.5431C50.4278 64.1107 51.3691 63.6489 51.3787 62.4641C51.3948 60.467 51.3787 58.4689 51.3787 56.3366M40.6925 66.1943C40.6357 66.7462 41.1275 67.0222 41.641 67.2807C43.0934 68.0055 44.5633 68.7047 45.9975 69.4535C46.7479 69.8472 47.2431 69.5032 47.6505 69.0662C47.7564 68.9664 47.8341 68.847 47.8776 68.7173C47.9211 68.5875 47.9292 68.451 47.9012 68.3181C47.8732 68.1853 47.8098 68.0598 47.7162 67.9513C47.6225 67.8429 47.501 67.7544 47.361 67.6928C45.7424 66.8308 44.0936 66.0038 42.4117 65.2385C42.2273 65.1548 42.0202 65.1149 41.8119 65.1229C41.6035 65.131 41.4016 65.1867 41.2267 65.2842C41.0518 65.3818 40.9103 65.5177 40.8171 65.6778C40.724 65.838 40.6825 66.0166 40.6967 66.1952" fill="#E4F1FF"/>
<path d="M39.5785 47.9958C42.3516 46.6159 44.9447 45.328 47.5387 44.0457C50.7546 42.4506 53.9854 40.873 57.1862 39.2494C57.4602 39.0645 57.7972 38.9617 58.1456 38.9567C58.4941 38.9517 58.8348 39.0448 59.1158 39.2217C60.3335 39.9006 61.6177 40.4912 62.8793 41.1131C63.3563 41.3476 63.5021 41.5095 62.8922 41.8094C57.148 44.6384 51.4134 47.4815 45.6885 50.3387C45.4838 50.4662 45.2372 50.5343 44.9843 50.5331C44.7313 50.532 44.4855 50.4616 44.2824 50.3323C42.8009 49.5495 41.2745 48.8292 39.5829 47.9948" fill="#E4F1FF"/>
<path d="M76.731 47.9857C74.9741 48.8651 73.3747 49.6764 71.7636 50.4694C69.3303 51.6717 66.9634 52.9973 64.4294 54.0156C62.4259 54.8205 60.6968 55.9548 58.8145 56.8977C58.6356 57.0091 58.4205 57.0698 58.1995 57.0711C57.9784 57.0724 57.7625 57.0144 57.5819 56.905C56.1991 56.2077 54.8043 55.5252 53.4108 54.8444C52.5125 54.4047 53.3164 54.2677 53.6134 54.1196C57.4345 52.2129 61.2622 50.3149 65.0962 48.4254C66.9967 47.4843 68.8929 46.535 70.7935 45.5948C71.0325 45.4771 71.2534 45.2646 71.5825 45.4283C73.2472 46.2563 74.9128 47.0842 76.7276 47.982" fill="#E4F1FF"/>
<path d="M30.6185 62.6877C30.6185 61.2158 30.6451 59.7495 30.6043 58.2814C30.5893 57.7598 30.7782 57.6181 31.3677 57.6374C32.6262 57.6733 33.8878 57.6678 35.1462 57.6374C35.6747 57.6255 35.872 57.7294 35.8677 58.2262C35.8413 61.2189 35.8413 64.212 35.8677 67.2053C35.8677 67.6735 35.7209 67.8281 35.1645 67.8134C33.9061 67.7803 32.6434 67.7683 31.3871 67.8134C30.7011 67.8401 30.5991 67.5972 30.6098 67.0913C30.642 65.6194 30.6206 64.154 30.6206 62.6849" fill="#6E7689"/>
<path d="M68.8265 44.1213C67.2893 44.871 65.766 45.5748 64.2867 46.341C60.3055 48.4044 56.1796 50.2552 52.2392 52.3783C51.7171 52.6589 51.132 52.8889 50.5713 53.1345C50.403 53.209 50.2616 53.3746 49.9754 53.2063C49.3198 52.83 48.6397 52.486 47.9386 52.176C47.3951 51.9304 47.5634 51.808 47.9739 51.601C50.031 50.5891 52.073 49.5543 54.1279 48.5396C56.8431 47.1993 59.5702 45.8719 62.2855 44.5325C63.4121 43.976 64.543 43.4213 65.6235 42.8031C65.9848 42.597 66.1842 42.7755 66.3921 42.8739C67.1918 43.2539 67.9647 43.6743 68.8255 44.1204" fill="#6E7689"/>
<path d="M46.052 53.7012C46.8196 54.4003 47.9591 53.9128 48.5058 54.7443C48.7156 54.9763 48.8435 55.255 48.8745 55.5474C48.8595 57.1241 48.8745 58.6999 48.8638 60.2766C48.8638 60.5112 48.9711 60.7954 48.6141 60.9316C48.2572 61.0677 48.1489 60.7908 47.9431 60.6363C47.7147 60.4472 47.4309 60.3147 47.1219 60.2527C46.0993 60.1212 46.0274 59.5388 46.0413 58.8268C46.0724 57.1968 46.052 55.5667 46.052 53.7012Z" fill="#6E7689"/>
<path d="M28.663 9.00969H28.8559C30.6417 9.00969 30.6085 9.00969 30.6075 10.533C30.6075 11.073 30.3856 11.1981 29.825 11.1577C29.3458 11.1236 28.8604 11.1503 28.3791 11.1503C26.7079 11.1503 26.7335 11.1503 26.7217 9.70973C26.7217 9.19459 26.8376 8.93058 27.5076 9.00233C27.8926 9.02519 28.2777 9.02765 28.663 9.00969Z" fill="#1664B2"/>
<path d="M38.6117 9.00977C38.8047 9.00977 38.9977 9.00977 39.1906 9.00977C40.6645 9.03 40.3859 8.84419 40.4952 10.0989C40.5713 10.9765 40.2368 11.2764 39.2377 11.1614C38.6943 11.1019 38.1444 11.1019 37.601 11.1614C36.7928 11.247 36.5655 10.9967 36.5987 10.3068C36.663 9.01161 36.6147 9.00977 38.6117 9.00977Z" fill="#1664B2"/>
<path d="M40.5165 40.8225C40.3621 41.4435 40.8081 42.2557 40.3129 42.6568C39.8177 43.0579 38.8957 42.7773 38.1625 42.7773C37.664 42.7773 36.8998 43.0064 36.7187 42.6402C36.5631 42.0765 36.5325 41.4926 36.6286 40.9191C36.6286 40.5677 36.9641 40.6496 37.1989 40.6505C38.2966 40.6505 39.3943 40.6689 40.4909 40.679C40.4896 40.7277 40.499 40.7762 40.5165 40.8225Z" fill="#1664B2"/>
<path d="M28.6352 34.8458C28.4108 34.8311 28.1852 34.8311 27.9608 34.8458C27.0025 34.9746 26.5985 34.7179 26.6918 33.81C26.8129 32.6242 26.4677 32.7263 28.0006 32.7135C28.4186 32.7135 28.8366 32.7089 29.2536 32.7135C30.8208 32.7328 30.569 32.547 30.5873 33.8404C30.6012 34.8412 30.5872 34.8412 28.6342 34.8412" fill="#1664B2"/>
<path d="M26.8989 40.6625C27.9012 40.657 28.9043 40.6772 29.9002 40.6358C30.4651 40.6128 30.5938 40.7857 30.6002 41.2484C30.6185 42.7884 30.6421 42.7884 28.8445 42.7884C26.7134 42.7884 26.7135 42.7884 26.7317 40.9817C26.7317 40.9265 26.7315 40.8704 26.739 40.8152L26.8934 40.6625" fill="#1664B2"/>
<path d="M30.572 26.97C29.4358 26.97 28.3456 26.9598 27.2544 26.9755C26.8256 26.9819 26.7332 26.8117 26.7053 26.476C26.566 24.8248 26.5542 24.8257 28.4912 24.8257H28.5888C30.2814 24.8257 30.2781 24.8257 30.4111 26.2745C30.4502 26.5091 30.5047 26.7416 30.5741 26.9709" fill="#1664B2"/>
<path d="M38.5739 26.9696H37.995C36.6176 26.9696 36.6789 26.9696 36.6017 25.8023C36.5471 25.025 36.7679 24.6607 37.7294 24.8207C37.8895 24.8335 38.0506 24.8335 38.2107 24.8207C40.3685 24.8207 40.3492 24.8207 40.4103 26.6661C40.421 27.0037 40.2237 26.9549 40.0243 26.9604C39.543 26.9733 39.0597 26.9604 38.5773 26.9669" fill="#1664B2"/>
<path d="M38.5109 34.8494H37.93C36.62 34.8494 36.6855 34.8494 36.5987 33.7004C36.5376 32.8973 36.8129 32.5809 37.7541 32.7124C38.1081 32.739 38.4642 32.7414 38.8187 32.7198C40.3098 32.7198 40.3097 32.7198 40.3075 33.9608C40.3075 34.8485 40.3075 34.8485 38.512 34.8485" fill="#1664B2"/>
<path d="M28.5719 19.0329H27.992C26.7142 19.0329 26.7956 19.0264 26.6895 17.9428C26.6037 17.0625 26.9758 16.8168 27.9127 16.9309C28.2657 16.9552 28.6204 16.9576 28.9739 16.9383C30.6397 16.9383 30.6064 16.9383 30.6074 18.4101C30.6074 18.9464 30.393 19.0835 29.826 19.0393C29.4111 19.0071 28.9899 19.0329 28.5719 19.0329Z" fill="#1664B2"/>
<path d="M38.4606 19.0327C38.2365 19.0173 38.0113 19.0188 37.7875 19.0373C36.8045 19.1909 36.5257 18.8478 36.5965 18.019C36.6876 16.9464 36.6189 16.9427 37.9042 16.9418C38.5141 16.9418 39.1252 16.9629 39.734 16.9353C40.2035 16.9151 40.3064 17.0706 40.3182 17.4578C40.3675 19.0327 40.3858 19.0318 38.4595 19.0318" fill="#1664B2"/>
<path d="M26.8985 40.6623L26.7441 40.815C26.7162 40.7046 26.7688 40.655 26.8985 40.6623Z" fill="#689FF2"/>
<path d="M40.5165 40.8222C40.499 40.7759 40.4907 40.7274 40.4919 40.6787L40.6346 40.698L40.5165 40.8222Z" fill="#689FF2"/>
<path d="M40.6847 66.1978C40.6704 66.0192 40.7122 65.8406 40.8054 65.6804C40.8985 65.5203 41.0398 65.3844 41.2147 65.2868C41.3896 65.1893 41.5917 65.1336 41.8001 65.1255C42.0085 65.1175 42.2155 65.1574 42.3999 65.2411C44.0818 66.0074 45.7314 66.8334 47.349 67.6954C47.489 67.757 47.6105 67.8454 47.7041 67.9539C47.7978 68.0623 47.8612 68.1879 47.8892 68.3207C47.9172 68.4535 47.9091 68.5901 47.8656 68.7199C47.8221 68.8496 47.7444 68.969 47.6385 69.0688C47.23 69.5066 46.7402 69.8498 45.9855 69.4561C44.5502 68.7073 43.0806 68.0081 41.6292 67.2833C41.1147 67.0266 40.6237 66.7479 40.6805 66.1969" fill="#1664B2"/>
</g>
<defs>
<clipPath id="clip0_306_126">
<rect width="80" height="80" fill="white" transform="translate(0.5)"/>
</clipPath>
</defs>
</svg>
