<svg width="81" height="80" viewBox="0 0 81 80" fill="none" xmlns="http://www.w3.org/2000/svg">
<g clip-path="url(#clip0_306_152)">
<path d="M53.1688 61.6681C56.4947 61.8654 59.8012 62.2156 63.0697 62.7167C66.7085 63.183 70.2558 63.9864 73.6299 65.1085C75.9372 65.8895 78.2175 66.745 79.6235 68.4293C80.2793 69.1466 80.5842 70.0115 80.4867 70.8778C80.3891 71.7441 79.8951 72.5586 79.0881 73.1834C76.4898 75.2862 73.0847 76.3156 69.5655 77.2217C66.8278 77.8768 64.0329 78.3892 61.2008 78.7552C59.9867 79.0981 58.672 79.1903 57.3942 79.022C57.0528 78.9382 56.5678 79.2483 56.1318 79.3044C55.319 79.4092 54.3464 79.2639 53.703 79.3964C52.5315 79.6438 51.3871 79.4883 50.2648 79.6622C49.0912 79.8331 47.8993 79.9236 46.7038 79.9327C42.503 79.9925 38.2949 80.0375 34.0978 79.9235C31.8543 79.8627 29.6011 79.6604 27.3576 79.5058C24.253 79.2948 21.1671 78.9508 18.115 78.4755C13.1001 77.6909 8.11343 76.7995 3.83162 74.4832C2.17269 73.6622 1.00253 72.392 0.566539 70.9388C0.404166 70.0706 0.691514 69.1888 1.36961 68.4744C2.97452 66.5527 5.59125 65.6126 8.25587 64.8086C10.5523 64.0898 12.929 63.5243 15.3582 63.1187C17.5047 62.7821 19.6634 62.4794 21.8147 62.1657C23.5081 61.9192 25.2173 61.9275 26.8996 61.7113C27.1342 61.6809 27.4878 61.6331 27.5516 61.52C27.6511 61.3433 27.4375 61.1437 27.252 60.9864C23.9685 58.2138 20.8385 55.3465 17.8976 52.3669C15.9566 50.5265 14.1458 48.6111 12.4726 46.6286C10.5928 44.4085 8.87126 42.1154 7.31527 39.7588C5.73702 37.3245 4.5673 34.7531 3.83285 32.1034C3.34622 30.4064 3.20505 28.664 3.41412 26.9354C3.54919 26.09 3.39939 25.1784 3.52586 24.2879C3.84977 22.2988 4.47048 20.3431 5.37636 18.4576C6.69599 15.5914 8.67132 12.9191 11.214 10.5603C13.6729 8.21636 16.6162 6.18194 19.9323 4.53401C23.1687 2.92448 26.7281 1.7133 30.4754 0.9464C33.06 0.358666 35.7437 0.0516675 38.4447 0.0347797C39.5916 0.0550175 40.736 -0.00569603 41.8829 0.00718257C50.1041 0.175841 58.0137 2.39979 64.3529 6.32505C70.1738 10.0464 74.4127 14.9632 76.5463 20.4685C77.0473 21.5261 77.3461 22.6314 77.4341 23.7516C77.4672 25.1315 78.0014 26.4764 77.8835 27.8397C77.7493 29.7789 77.3769 31.7047 76.771 33.5927C75.819 36.4421 74.3209 39.1732 72.3234 41.7007C71.6137 42.5939 71.3595 43.6757 70.3587 44.4163C69.1516 45.3058 68.8852 46.5872 67.8488 47.554C66.8124 48.5208 65.959 49.5778 64.984 50.5759C62.6571 52.9538 60.2516 55.2867 57.7245 57.5487C56.2374 58.8798 54.7701 60.222 53.1737 61.6681M40.4818 68.502C41.153 68.0081 41.7907 67.4892 42.3925 66.9474C45.2278 64.4553 48.1282 62.0038 50.9794 59.5219C54.091 56.8128 57.1375 54.0697 60.0207 51.2143C62.9039 48.3589 65.5624 45.4024 68.0588 42.3667C69.3627 40.7711 70.5118 39.1073 71.497 37.3882C72.7076 35.3842 73.5455 33.2652 73.9873 31.0906C74.3083 29.9107 74.439 28.7062 74.3765 27.503C74.2377 26.5914 74.1616 25.6356 73.9676 24.7194C73.7625 23.7544 73.652 22.7407 73.3733 21.7619C72.5723 19.2216 71.227 16.7953 69.3899 14.5775C67.6009 12.3449 65.3217 10.3545 62.6485 8.69011C59.3478 6.5254 55.4961 4.88382 51.3257 3.86432C47.3811 2.95455 43.2687 2.51985 39.1421 2.57646C35.9548 2.66713 32.801 3.09863 29.7767 3.85788C25.1038 4.94819 20.8335 6.83777 17.3033 9.37728C14.9212 11.1151 12.8593 13.0833 11.1722 15.2297C10.1043 16.6138 9.22792 18.0761 8.55671 19.5937C7.74842 21.2397 7.20952 22.9531 6.9518 24.6964C6.62588 26.4483 6.59906 28.2242 6.87199 29.9812C7.37176 32.8339 8.49172 35.6061 10.1874 38.1876C11.939 40.8694 13.8967 43.4728 16.0508 45.9847C17.9627 48.1593 20.0256 50.2567 22.1696 52.3035C24.4646 54.4947 26.7572 56.6905 29.2376 58.7704C30.802 60.0821 32.3259 61.4197 33.862 62.7508C36.0723 64.6648 38.2793 66.5834 40.483 68.5066M48.7102 77.2061C51.4301 77.0313 54.1463 76.8519 56.8563 76.5796C60.9862 76.2476 65.0572 75.5873 69.0006 74.6101C71.6087 73.9082 74.2427 73.2229 76.2651 71.7088C77.385 70.8698 77.2155 70.0999 76.0637 69.2508C74.2598 68.068 72.1171 67.2116 69.8012 66.7477C67.5631 66.1316 65.2532 65.6731 62.9015 65.378C61.1136 65.1857 59.3306 64.8261 57.528 64.6421C55.2907 64.4195 53.0571 64.149 50.794 64.0607C50.5104 64.0497 50.3274 64.0414 50.1604 64.1867C49.1252 65.091 48.1073 66.0054 47.0648 66.905C45.3186 68.4109 43.5885 69.9278 41.792 71.3997C41.6551 71.5531 41.4706 71.6794 41.2543 71.7677C41.0379 71.856 40.7962 71.9036 40.5498 71.9065C40.3035 71.9094 40.0599 71.8675 39.8399 71.7843C39.62 71.7012 39.4303 71.5793 39.287 71.4291C38.3047 70.6242 37.4304 69.7512 36.4787 68.927C34.7064 67.3938 32.9194 65.8692 31.1176 64.3532C30.9309 64.1969 30.7492 63.9706 30.3256 64.0285C28.7624 64.2419 27.171 64.3137 25.5955 64.4333C21.9075 64.7052 18.2551 65.2012 14.6743 65.9162C11.5611 66.39 8.60436 67.3221 5.97559 68.6584C3.69409 69.9711 3.20906 70.6242 5.58634 72.1991C7.33491 73.2257 9.32802 73.9939 11.4596 74.4629C15.8027 75.6004 20.3117 76.345 24.8907 76.6808C29.0114 77.106 33.1642 77.333 37.3236 77.3606C41.1167 77.3109 44.9122 77.3818 48.7041 77.1987" fill="black"/>
<path d="M40.4816 68.5022C38.2713 66.5784 36.0643 64.6598 33.8605 62.7464C32.3256 61.4153 30.8005 60.0787 29.2361 58.766C26.7545 56.687 24.4632 54.4894 22.1669 52.3C20.0229 50.2532 17.96 48.1559 16.0481 45.9812C13.8941 43.4693 11.9363 40.8659 10.1847 38.1842C8.48899 35.6026 7.36902 32.8304 6.8693 29.9777C6.59638 28.2207 6.6232 26.4448 6.94911 24.6929C7.20685 22.9497 7.74575 21.2363 8.55403 19.5902C9.22523 18.0726 10.1016 16.6104 11.1695 15.2262C12.8559 13.0785 14.9174 11.1091 17.2994 9.37013C20.8296 6.83063 25.0999 4.94104 29.7727 3.85073C32.7971 3.09137 35.9508 2.65987 39.1382 2.56931C43.2648 2.51292 47.3772 2.94761 51.3218 3.85717C55.4922 4.87669 59.3439 6.51827 62.6446 8.68297C65.3179 10.3473 67.597 12.3377 69.3859 14.5703C71.2231 16.7882 72.5683 19.2145 73.3694 21.7547C73.6481 22.7335 73.7586 23.7463 73.9637 24.7122C74.1577 25.6321 74.2338 26.5842 74.3726 27.4958C74.4351 28.6991 74.3044 29.9036 73.9833 31.0834C73.5417 33.2581 72.7038 35.3771 71.4931 37.3811C70.508 39.1002 69.3589 40.764 68.0549 42.3596C65.5585 45.4017 62.8975 48.3555 60.0168 51.2099C57.1361 54.0644 54.0871 56.8094 50.9755 59.5175C48.1242 62.0013 45.2239 64.451 42.3886 66.943C41.7869 67.4849 41.1492 68.0037 40.4779 68.4976M40.2716 50.5982C43.4427 50.6336 46.6002 50.2812 49.6199 49.555C55.4052 48.1503 60.5173 45.5112 64.3293 41.9613C68.4613 38.1491 70.789 33.4179 70.9479 28.5086C71.0741 25.6492 70.4193 22.8006 69.0237 20.1376C68.3445 18.7206 67.5069 17.3491 66.5199 16.0376C64.2484 13.1067 61.0536 10.637 57.2147 8.84395C53.4024 6.9855 49.092 5.77681 44.5878 5.30326C42.0349 5.06592 39.471 5.31889 36.9488 4.96289C36.9027 4.95486 36.8547 4.95572 36.8092 4.96537C36.7636 4.97502 36.7221 4.99316 36.6885 5.01809C36.0532 5.27287 35.3573 5.43165 34.6403 5.4854C31.5065 6.02725 28.4876 6.8906 25.669 8.051C21.4968 9.78762 17.9265 12.2332 15.245 15.1913C14.6679 15.803 14.313 16.492 13.7715 17.1138C13.0529 17.9102 12.4844 18.7769 12.0819 19.6896C11.6988 20.6095 11.6288 21.5892 11.1634 22.4548C10.6635 23.4027 10.3704 24.4047 10.2952 25.4224C9.95561 28.2486 10.2739 31.0976 11.2358 33.8422C12.9177 38.3818 16.4353 42.4197 21.3049 45.4008C26.6064 48.7608 33.3274 50.6025 40.2716 50.5982Z" fill="#60B7FF"/>
<path d="M48.7002 77.2022C44.9083 77.3862 41.1128 77.3144 37.3197 77.3641C33.1603 77.3365 29.0075 77.1094 24.8868 76.6843C20.3078 76.3484 15.7988 75.6039 11.4557 74.4664C9.32414 73.9974 7.33103 73.2292 5.58246 72.2025C3.20518 70.6286 3.69021 69.9754 5.97172 68.6618C8.60049 67.3255 11.5572 66.3935 14.6704 65.9196C18.2478 65.2035 21.897 64.706 25.5818 64.4321C27.1573 64.3135 28.7487 64.2408 30.3119 64.0274C30.7392 63.9694 30.9172 64.1948 31.1039 64.3521C32.9048 65.8663 34.6919 67.3908 36.465 68.9259C37.4167 69.7538 38.2947 70.6231 39.2733 71.428C39.4166 71.5782 39.6063 71.7001 39.8262 71.7832C40.0462 71.8664 40.2898 71.9083 40.5361 71.9054C40.7825 71.9025 41.0242 71.8549 41.2406 71.7666C41.4569 71.6783 41.6415 71.552 41.7783 71.3985C43.5736 69.9267 45.3049 68.4098 47.0511 66.9039C48.0936 66.0043 49.1115 65.0899 50.1467 64.1856C50.3125 64.0403 50.4954 64.0485 50.7803 64.0596C53.0422 64.1516 55.277 64.4184 57.5143 64.641C59.3169 64.8203 61.0999 65.1819 62.8878 65.3769C65.2395 65.6719 67.5494 66.1305 69.7875 66.7466C72.1035 67.2105 74.2461 68.0669 76.05 69.2496C77.2018 70.0987 77.3713 70.8687 76.2514 71.7076C74.229 73.2227 71.5951 73.9071 68.9869 74.609C65.0435 75.5865 60.9725 76.2471 56.8426 76.5794C54.1326 76.8554 51.4152 77.0302 48.6965 77.2049" fill="#6E7689"/>
<path d="M40.2715 50.598C33.3281 50.6018 26.6081 48.7601 21.3073 45.4005C16.4376 42.4194 12.9201 38.3816 11.2382 33.842C10.2761 31.0974 9.95782 28.2484 10.2976 25.4221C10.3726 24.4045 10.6657 23.4025 11.1658 22.4546C11.6311 21.5889 11.7024 20.6065 12.0842 19.6893C12.4865 18.7766 13.0551 17.9098 13.7739 17.1136C14.3179 16.4918 14.6727 15.8028 15.2474 15.191C17.9288 12.233 21.4991 9.78738 25.6714 8.05076C28.4899 6.89033 31.5089 6.02698 34.6426 5.48516C35.3597 5.43143 36.0556 5.27265 36.6908 5.01785C36.7246 4.99277 36.7663 4.97454 36.8121 4.96489C36.8578 4.95523 36.9061 4.95446 36.9524 4.96266C39.4746 5.31958 42.0385 5.0666 44.5914 5.30394C49.0943 5.77664 53.4039 6.98406 57.2158 8.84095C61.0548 10.6339 64.2495 13.1037 66.5211 16.0346C67.5083 17.3463 68.3458 18.7182 69.0248 20.1355C70.4205 22.7986 71.0752 25.6472 70.949 28.5066C70.7902 33.4158 68.4625 38.147 64.3304 41.9592C60.5184 45.5096 55.4057 48.1492 49.6198 49.5539C46.6001 50.2801 43.4426 50.6333 40.2715 50.598ZM40.5281 47.9983C47.6432 48.0031 54.4722 45.9002 59.526 42.1482C64.5797 38.3962 67.4482 33.2994 67.5059 27.9693C67.531 25.1692 66.7786 22.3957 65.2966 19.8251C63.8145 17.2544 61.6351 14.9426 58.8968 13.0366C54.809 9.93655 49.4417 8.68917 44.0069 7.69476C42.9096 7.57163 41.7965 7.54723 40.6915 7.62209C37.1228 7.60944 33.5863 8.12736 30.2868 9.14584C26.9872 10.1643 23.9902 11.6631 21.4694 13.5554C18.6738 15.6228 16.5252 18.1291 15.1786 20.8936C13.8319 23.6581 13.3207 26.612 13.6818 29.5424C14.5536 38.7966 25.4958 48.1455 40.5281 48.0011" fill="black"/>
<path d="M40.5231 48.0001C25.4895 48.1463 14.5462 38.8011 13.6731 29.5441C13.312 26.6138 13.8232 23.6599 15.1699 20.8954C16.5165 18.1309 18.6651 15.6246 21.4607 13.5572C23.9814 11.665 26.9782 10.1663 30.2775 9.14778C33.5769 8.1293 37.1131 7.61132 40.6815 7.62384C41.7866 7.54909 42.8996 7.57348 43.997 7.69652C49.4318 8.69093 54.8028 9.93831 58.8869 13.0384C61.6252 14.9444 63.8046 17.2561 65.2867 19.8268C66.7687 22.3975 67.5211 25.171 67.496 27.9711C67.4383 33.3005 64.5705 38.3967 59.5178 42.1486C54.4651 45.9006 47.6374 48.0039 40.5231 48.0001ZM45.3845 23.5307L45.2531 23.3376C46.917 22.7488 47.4831 21.5051 48.07 20.4426C48.8185 19.2529 49.1883 17.9493 49.1503 16.6343C49.1124 15.3194 48.6678 14.0289 47.8514 12.8645C47.3598 12.0686 46.5512 11.4063 45.5368 10.9686C43.5875 10.3056 41.4387 10.0409 39.3087 10.2014C38.3572 10.2195 37.4197 10.3781 36.5501 10.6681C35.6805 10.9581 34.8958 11.3737 34.241 11.8913C33.0984 12.8357 32.3631 14.0165 32.1314 15.2792C31.8411 16.584 31.926 17.9201 32.3804 19.1983C32.8349 20.4765 33.6484 21.6672 34.7666 22.6909C34.9839 22.8933 35.3879 23.0496 35.1742 23.3606C35.0762 23.4858 34.9371 23.5902 34.7701 23.6639C34.6032 23.7376 34.4139 23.7782 34.2201 23.7819C32.0185 24.0168 29.8804 24.5113 27.8852 25.2473C26.602 25.6519 25.5108 26.3361 24.753 27.211C23.9952 28.0859 23.6058 29.1113 23.6353 30.154C23.6439 33.4086 23.6353 36.6632 23.6353 39.9178C23.6353 41.398 24.0553 41.7162 26.0126 41.7162C35.7428 41.7162 45.4725 41.7162 55.2019 41.7162C56.9369 41.7162 57.5939 41.2241 57.5951 39.9252C57.5951 36.8325 57.5767 33.7389 57.6013 30.6462C57.632 26.9114 54.5032 25.3052 50.5505 24.4341C48.8584 24.0606 47.1122 23.8334 45.387 23.539" fill="#E4F1FF"/>
<path d="M45.3897 23.5327C47.1088 23.8261 48.8611 24.0543 50.5531 24.4277C54.5046 25.2989 57.6334 26.905 57.604 30.6398C57.5782 33.7325 57.604 36.8261 57.604 39.9188C57.604 41.2177 56.9458 41.7099 55.2107 41.7099C45.4805 41.7099 35.7508 41.7099 26.0215 41.7099C24.0629 41.7099 23.6442 41.3916 23.6429 39.9115C23.6429 36.6569 23.6491 33.4023 23.6429 30.1477C23.6132 29.1049 24.0025 28.0795 24.7604 27.2046C25.5182 26.3296 26.6096 25.6455 27.8928 25.2409C29.8893 24.5074 32.0282 24.0156 34.2302 23.7838C34.4241 23.7802 34.6136 23.7396 34.7808 23.6659C34.9479 23.5922 35.0872 23.4878 35.1855 23.3625C35.3992 23.0516 34.9952 22.8952 34.7779 22.6928C33.6598 21.6692 32.8464 20.4786 32.392 19.2006C31.9376 17.9226 31.8526 16.5867 32.1427 15.2821C32.3749 14.0193 33.1106 12.8384 34.2535 11.8941C34.9083 11.3765 35.693 10.9609 36.5626 10.6709C37.4322 10.3809 38.3697 10.2223 39.3212 10.2042C41.4512 10.0439 43.6 10.3086 45.5493 10.9714C46.5637 11.4091 47.3723 12.0714 47.864 12.8674C48.6803 14.0316 49.1249 15.3219 49.1628 16.6367C49.2008 17.9515 48.831 19.255 48.0825 20.4446C47.4956 21.5061 46.9307 22.7508 45.2669 23.3395L45.3983 23.5327M40.6474 39.1305C42.4439 39.1305 44.2416 39.0937 46.0343 39.1461C46.9406 39.1719 47.2967 39.0357 47.2451 38.2805C47.1505 36.885 47.2144 35.4831 47.2205 34.0839C47.2205 33.44 47.2046 32.7905 47.2709 32.1521C47.2787 31.8768 47.4252 31.6138 47.6809 31.4159C47.9366 31.218 48.2827 31.0998 48.6499 31.085C48.9344 31.0917 49.2141 31.1419 49.4718 31.2325C49.7295 31.3231 49.9598 31.4523 50.1484 31.612C50.337 31.7717 50.48 31.9587 50.5686 32.1614C50.6573 32.364 50.6896 32.5782 50.6637 32.7905C50.6784 34.2707 50.6637 35.7508 50.6637 37.2309C50.6637 39.1691 50.6637 39.1415 53.2264 39.1507C54.027 39.1507 54.1571 38.9373 54.1498 38.4047C54.1154 35.8759 54.0466 33.3452 54.1633 30.8174C54.2424 30.0144 53.9492 29.2156 53.333 28.5559C52.7169 27.8962 51.8156 27.4161 50.7815 27.1966C49.6116 26.8644 48.3977 26.6266 47.1604 26.4874C43.5726 26.01 39.9142 25.9051 36.2882 26.1755C34.6824 26.3008 33.094 26.5301 31.541 26.8609C28.3484 27.5627 26.8896 28.5222 27.0492 31.0188C27.2052 33.4621 27.118 35.9154 27.0603 38.3642C27.0443 39.0293 27.3403 39.1581 28.1507 39.148C30.5599 39.1185 30.5611 39.1434 30.5611 37.3588C30.5611 35.852 30.5525 34.3452 30.5611 32.8384C30.5697 31.6839 31.0327 31.2166 32.1403 31.2019C33.3436 31.1862 33.992 31.7538 34.0079 32.8439C34.0079 33.0049 34.0079 33.1668 34.0079 33.3287C34.0079 34.9974 34.0411 36.6661 33.9895 38.3329C33.9711 38.9428 34.1455 39.1783 35.037 39.1507C36.9022 39.0946 38.7723 39.1333 40.64 39.1333M45.5518 16.5902C45.6597 16.0743 45.6057 15.5466 45.3941 15.0491C45.1824 14.5515 44.8189 14.0978 44.3324 13.7238C43.8399 13.3493 43.2349 13.0685 42.568 12.905C41.9011 12.7414 41.1916 12.6998 40.4988 12.7836C39.9508 12.7482 39.4002 12.7412 38.8509 12.7625C37.8929 12.9735 37.0487 13.4064 36.4392 13.999C35.8297 14.5915 35.4863 15.3135 35.4581 16.0612C35.1544 17.6412 35.6829 19.2478 36.9317 20.5412C39.0044 22.7333 41.8618 22.7535 44.0242 20.6414C45.1885 19.4819 45.7324 18.0383 45.5493 16.5939" fill="black"/>
<path d="M40.6483 39.1308C38.7807 39.1308 36.9105 39.0912 35.0453 39.1483C34.1526 39.1749 33.9782 38.9404 33.9966 38.3305C34.0482 36.6627 34.015 34.994 34.015 33.3253C34.015 33.1643 34.015 33.0024 34.015 32.8405C33.9991 31.7523 33.352 31.1847 32.1486 31.1985C31.0434 31.2123 30.578 31.6805 30.5694 32.835C30.5584 34.3418 30.5694 35.8486 30.5694 37.3554C30.5694 39.14 30.5695 39.1151 28.159 39.1446C27.3473 39.1547 27.0539 39.0259 27.0674 38.3608C27.1251 35.913 27.2123 33.4587 27.0563 31.0163C26.8967 28.5188 28.3592 27.5603 31.5481 26.8575C33.1011 26.5267 34.6895 26.2974 36.2953 26.1722C39.9213 25.9017 43.5797 26.0066 47.1675 26.484C48.4048 26.6232 49.6187 26.861 50.7886 27.1933C51.8229 27.4125 52.7245 27.8926 53.3408 28.5523C53.9572 29.212 54.2507 30.0109 54.1716 30.814C54.0488 33.34 54.1237 35.8734 54.1569 38.4013C54.1642 38.9339 54.0341 39.1501 53.2335 39.1473C50.672 39.1381 50.672 39.1657 50.672 37.2275C50.672 35.7474 50.6818 34.2673 50.672 32.7872C50.6981 32.5747 50.6659 32.3605 50.5774 32.1577C50.4888 31.9549 50.3458 31.7678 50.1572 31.608C49.9686 31.4482 49.7383 31.3189 49.4805 31.2282C49.2227 31.1376 48.9428 31.0874 48.6582 31.0807C48.291 31.0955 47.9449 31.2137 47.6892 31.4116C47.4335 31.6095 47.287 31.8725 47.2792 32.1478C47.2129 32.7918 47.2313 33.4357 47.2289 34.0796C47.2289 35.4788 47.1601 36.8807 47.2534 38.2762C47.305 39.0314 46.9489 39.1676 46.0427 39.1418C44.2486 39.0903 42.451 39.1262 40.6557 39.1262" fill="#60B7FF"/>
<path d="M45.565 16.5867C45.748 18.0312 45.2041 19.4747 44.0399 20.6343C41.8787 22.7501 39.0214 22.7262 36.9474 20.534C35.6986 19.2406 35.1701 17.6341 35.4738 16.0541C35.502 15.3063 35.8454 14.5844 36.4549 13.9918C37.0644 13.3993 37.9086 12.9664 38.8666 12.7554C39.4159 12.7341 39.9665 12.7411 40.5145 12.7765C41.2073 12.6927 41.9168 12.7343 42.5837 12.8979C43.2506 13.0614 43.8556 13.3422 44.3481 13.7167C44.8346 14.0907 45.1981 14.5444 45.4098 15.042C45.6214 15.5395 45.6754 16.0672 45.5675 16.5831" fill="#FFECE3"/>
</g>
<defs>
<clipPath id="clip0_306_152">
<rect width="80" height="80" fill="white" transform="translate(0.5)"/>
</clipPath>
</defs>
</svg>
