<svg xmlns="http://www.w3.org/2000/svg" xmlns:xlink="http://www.w3.org/1999/xlink" width="1920" height="311" viewBox="0 0 1920 311">
  <defs>
    <clipPath id="clip-path">
      <rect id="Rectangle_276" data-name="Rectangle 276" width="1920" height="311" transform="translate(0 3638)" fill="#6095ff"/>
    </clipPath>
    <clipPath id="clip-path-2">
      <rect id="Rectangle_190" data-name="Rectangle 190" width="966.102" height="1115.493" fill="none" stroke="#fff" stroke-width="1"/>
    </clipPath>
  </defs>
  <g id="Mask_Group_11" data-name="Mask Group 11" transform="translate(0 -3638)" clip-path="url(#clip-path)">
    <rect id="Rectangle_275" data-name="Rectangle 275" width="1920" height="311" transform="translate(0 3638)" fill="#6095ff"/>
    <g id="Group_248" data-name="Group 248" transform="translate(743.646 4163.433) rotate(-66)" opacity="0.13">
      <g id="Group_222" data-name="Group 222">
        <g id="Group_221" data-name="Group 221" clip-path="url(#clip-path-2)">
          <path id="Path_3714" data-name="Path 3714" d="M237.825,162.679v42.707l24.441,27.081V265.8l-22.4,21.785V484.435L266.34,509.6V946.833" transform="translate(246.569 168.66)" fill="none" stroke="#fff" stroke-width="1"/>
        </g>
      </g>
      <path id="Path_3715" data-name="Path 3715" d="M226.988,152.02l9.852,10.514v53.9l26.478,27.081v33.332l-22.4,21.785V495.485l24.441,25.162V831.6l-8.147,10.184V520.648l-24.441-25.162V298.634l22.4-21.785V242.98l-13.414-13.239H227.675" transform="translate(235.333 157.609)" fill="none" stroke="#fff" stroke-width="1"/>
      <path id="Path_3716" data-name="Path 3716" d="M249.212,120.3l-28.276,28.022V312.941l18.331,18v76.3l-24.441,25.268V558.972L241.3,584.935v381.39" transform="translate(222.723 124.727)" fill="none" stroke="#fff" stroke-width="1"/>
      <path id="Path_3717" data-name="Path 3717" d="M136.325,140.179H151.97l58.7,59.691V316.149l34.625,33.315v93.174l-8.8,8.8" transform="translate(141.337 145.333)" fill="none" stroke="#fff" stroke-width="1"/>
      <path id="Path_3718" data-name="Path 3718" d="M137.825,118.679v22.7l79.434,80.782V338.44l34.625,33.315V664.532" transform="translate(142.892 123.042)" fill="none" stroke="#fff" stroke-width="1"/>
      <path id="Path_3719" data-name="Path 3719" d="M629.147,323.891l-12.826,13.117H575.437l-31.421,31.57v22.553l-10.184,10.035v48.882l-44.958,45.827H471.711l-61.592,61.1H347.468l-27.5,26.68v59.883l-8.147-9V578.364l30.743-31.57h57.856l31.57-31.912V427.644l-10.021-10.021-24.441,24.441-.163,64.822-21.386,21.578H362.6l20.516-21.386V394.186l26.478-25.608V343.945l32.588-32.4V273.363l13.239-13.752h18.351L489.024,243.4V181.2l14.257-14.109V132.313L551.674,83.92" transform="translate(323.289 87.005)" fill="none" stroke="#fff" stroke-width="1"/>
      <path id="Path_3720" data-name="Path 3720" d="M388.249,197.873,377.075,209.7V381.17l-69.25,68.8v82.027L338.8,562.6l26.034-26h21.406l23.95-24.441h55.483l23.612-24.441H506.41" transform="translate(319.142 205.148)" fill="none" stroke="#fff" stroke-width="1"/>
      <g id="Group_224" data-name="Group 224">
        <g id="Group_223" data-name="Group 223" clip-path="url(#clip-path-2)">
          <path id="Path_3721" data-name="Path 3721" d="M477.987,129.679V142.16l12.221,13.155v35.727l-12.023,12.978H458.277l-29,28.515H406.134l-32.022,32.1v187.24l-71.287,68.8V712.193L329.3,739.176v15.789l-18.331,17.8V934.2l12.221,11.705v35.14" transform="translate(313.958 134.447)" fill="none" stroke="#fff" stroke-width="1"/>
        </g>
      </g>
      <path id="Path_3722" data-name="Path 3722" d="M461.864,167.169l-35.8,35.631h-66.9l-9.353,10.155v39.106l24.441,24.183V436.152l-71.287,70.234V713.01l12.221,11.365v13.076l-10.184,10.333v42.623l-10.184,8.147V500.634l69.25-70.236V282l-24.441-24.184v-53.49l10.907-9.671h66.893l34.222-33.234v-20.74" transform="translate(305.664 145.851)" fill="none" stroke="#fff" stroke-width="1"/>
      <path id="Path_3723" data-name="Path 3723" d="M201.1,324.419l21.836,19.561V471.787L204.61,487.821V591.765l18.331,17.476v27.333l-20.368,19.5v99.653l22.4-17.679V720.081" transform="translate(208.498 336.346)" fill="none" stroke="#fff" stroke-width="1"/>
      <path id="Path_3724" data-name="Path 3724" d="M222.377,345.679v97.594l-22.4,22.506v269.94h-8.147V465.779l22.4-22.506V345.679" transform="translate(198.877 358.388)" fill="none" stroke="#fff" stroke-width="1"/>
      <path id="Path_3725" data-name="Path 3725" d="M165.825,232.355v24.388l30.551,32.837V431.748l36.662,33.315V605.083l26.478-23.789V516.973l22.4-21.875V427.371l-16.294-15.781V358.608L239.149,332.3V319.555l-40.735-40.269V247.635l42.772-42.644V150.885l-12.221-13.361V104.039L214.707,88.927v-13.4L182.119,43.78v-15.1" transform="translate(171.922 29.733)" fill="none" stroke="#fff" stroke-width="1"/>
      <path id="Path_3726" data-name="Path 3726" d="M227.765,344.23l-39.939-40.269V272.312L230.6,229.666V139.977l14.257-13.155V56.551L193.885,4.879" transform="translate(194.731 5.058)" fill="none" stroke="#fff" stroke-width="1"/>
      <path id="Path_3727" data-name="Path 3727" d="M216.494,310.907l-17.669-17.989v-26.05l30.551-30.977V131.816l14.257-13.155V48.39L220.791,24.234l11.485-11.485" transform="translate(206.135 13.218)" fill="none" stroke="#fff" stroke-width="1"/>
      <g id="Group_226" data-name="Group 226">
        <g id="Group_225" data-name="Group 225" clip-path="url(#clip-path-2)">
          <path id="Path_3728" data-name="Path 3728" d="M71.325,217.179H86.764l25.3,24.441h40.56l13.414,13.239V287.61l12.221,12.058v60.588l75.36,75.876v82.8L227.138,544.64v29.991l61.1,61.606V786.454L269.91,804.934v85.4" transform="translate(73.947 225.163)" fill="none" stroke="#fff" stroke-width="1"/>
        </g>
      </g>
      <path id="Path_3729" data-name="Path 3729" d="M248.145,255.879l25.826-26.311V216.824l40.735-40.267V144.906l-42.772-42.646v-54.1l12.724-12.724" transform="translate(257.268 36.735)" fill="none" stroke="#fff" stroke-width="1"/>
      <path id="Path_3730" data-name="Path 3730" d="M257.413,194.1V176.826l-16.294-18.488V106.344L224.825,92.17V31.163l12.412-12.738" transform="translate(233.091 19.102)" fill="none" stroke="#fff" stroke-width="1"/>
      <g id="Group_228" data-name="Group 228">
        <g id="Group_227" data-name="Group 227" clip-path="url(#clip-path-2)">
          <path id="Path_3731" data-name="Path 3731" d="M277.825,1020.187V470.927l14.257-13.155V396.131L312.45,376.5V338.594l16.294-15.312V232.155l18.331-16.033V148.727l-20.368-19.41v-27.71l-9.681-9.681" transform="translate(288.039 95.306)" fill="none" stroke="#fff" stroke-width="1"/>
        </g>
      </g>
      <path id="Path_3732" data-name="Path 3732" d="M326.062,119.848l12.638,12.63V276.109l-46.846,46.442V486.113l-14.257,14.6V615.193l26.478,26.981v390.189l-10.184-7.78V643.193L269.45,619.267V497.831l14.257-14.593V313.716l38.7-40.485V226.907L311.54,214.2,300,225.98v16.486L269.45,272.147v77.562l-14.257-18.331V281.816L238.9,263.349V245.443l22.4-23.005V153.386l-16.294-16.031V72.962l-10.184-8.84V32.679" transform="translate(243.458 33.88)" fill="none" stroke="#fff" stroke-width="1"/>
      <path id="Path_3733" data-name="Path 3733" d="M324.5,110.5l16.8,16.651v62.991l-48.882,49.031v66.5l14.257,13.656v32.152l-32.588,31.138v22.8l-14.257,14.6V530.434l8.147,10.184V422.9l14.257-14.6V385.5l32.588-31.138v-35.03L300.56,305.677V253.434l19.71-19.71" transform="translate(269.377 114.567)" fill="none" stroke="#fff" stroke-width="1"/>
      <path id="Path_3734" data-name="Path 3734" d="M97.266,108.679v15.09l-24.441,26.1v24.7l8.147,9.821v41.481l15.255,16.213h18.351l13.754,13.754" transform="translate(75.503 112.674)" fill="none" stroke="#fff" stroke-width="1"/>
      <path id="Path_3735" data-name="Path 3735" d="M120.683,108.679v15.09l-24.441,26.1v24.7l8.147,9.821v41.481l15.255,16.213H138l13.754,14.257H107.444L90.634,240.05H64.672L50.239,225.618" transform="translate(52.086 112.674)" fill="none" stroke="#fff" stroke-width="1"/>
      <path id="Path_3736" data-name="Path 3736" d="M398.733,305.862l26.1,24.441h24.7l9.823-8.147h41.479l16.215-14.74V289.065l13.752-14.013" transform="translate(413.392 285.164)" fill="none" stroke="#fff" stroke-width="1"/>
      <path id="Path_3737" data-name="Path 3737" d="M34.8,150.176l10.669,10.669,1.177,35.741,17.465,17.465,12.705,1.183,29.329,29.331,21.889,1.041,12.976-12.976,19.632-.183" transform="translate(36.08 155.697)" fill="none" stroke="#fff" stroke-width="1"/>
      <path id="Path_3738" data-name="Path 3738" d="M10.381,264.154l13.125,13.805V296.31l16.728,14.74H81.713l44.033,42.772h18.948" transform="translate(10.763 273.865)" fill="none" stroke="#fff" stroke-width="1"/>
      <path id="Path_3739" data-name="Path 3739" d="M93.046,133.679V146.16L80.825,159.316v35.727l12.023,12.978h19.907l29,28.515H164.9l32.022,32.1v187.24l71.287,68.8v82.025L239.029,636.9l-11.98.371,30.975-30.58V524.668l-69.25-68.8V272.179l-11.2-11.2H157.2" transform="translate(83.797 138.594)" fill="none" stroke="#fff" stroke-width="1"/>
      <path id="Path_3740" data-name="Path 3740" d="M99.06,157.64l35.3,35.723h66.9l9.353,10.155v39.106l-24.441,24.183V426.715l71.287,70.234V611.918l-18.141,18.139" transform="translate(102.701 163.435)" fill="none" stroke="#fff" stroke-width="1"/>
      <g id="Group_230" data-name="Group 230">
        <g id="Group_229" data-name="Group 229" clip-path="url(#clip-path-2)">
          <path id="Path_3741" data-name="Path 3741" d="M260.656,965.495V504.634L191.406,434.4V286l24.441-24.185v-53.49l-10.907-9.671H138.047l-34.222-33.234v-20.74" transform="translate(107.642 149.998)" fill="none" stroke="#fff" stroke-width="1"/>
        </g>
      </g>
      <path id="Path_3742" data-name="Path 3742" d="M153.825,319.056v42.792l67.213,67.836V559.394l8-8,.149-77.546V423.931l-59.066-61.6V334.749l8.147-9.316v-13.7L157.9,290.887V225.432L170.119,214.2v54.39l16.357,16.095" transform="translate(159.48 222.07)" fill="none" stroke="#fff" stroke-width="1"/>
      <path id="Path_3743" data-name="Path 3743" d="M547.776,180.328l-11.752,11.917H501.384l-25.46,24.59v19.2l-26.478,27.3v46.019l-14.257,14.746v28.026l-30.362,29.533h-17.5" transform="translate(401.565 186.958)" fill="none" stroke="#fff" stroke-width="1"/>
      <path id="Path_3744" data-name="Path 3744" d="M442.789,101.316l-26.706,26.009v46.017L401.826,188.09v37.189h33.607l23.272-22.4h17.463l14.785-14.785" transform="translate(416.598 105.04)" fill="none" stroke="#fff" stroke-width="1"/>
      <path id="Path_3745" data-name="Path 3745" d="M465.1,162.525l-11.174,11.516H419.285l-25.46,24.592v19.2" transform="translate(408.304 168.5)" fill="none" stroke="#fff" stroke-width="1"/>
      <path id="Path_3746" data-name="Path 3746" d="M323.1,21.525,311.926,33.041H277.285l-25.46,24.592v19.2" transform="translate(261.083 22.316)" fill="none" stroke="#fff" stroke-width="1"/>
      <path id="Path_3747" data-name="Path 3747" d="M13.828,211.525,25,223.041H59.637l25.472,24.592" transform="translate(14.336 219.301)" fill="none" stroke="#fff" stroke-width="1"/>
      <path id="Path_3748" data-name="Path 3748" d="M57.319,115.179l25.472,24.59v19.2l-18.48,18.48" transform="translate(59.427 119.413)" fill="none" stroke="#fff" stroke-width="1"/>
      <path id="Path_3749" data-name="Path 3749" d="M159.828,74.525,171,86.041h34.641l25.472,24.592v19.2" transform="translate(165.704 77.265)" fill="none" stroke="#fff" stroke-width="1"/>
      <path id="Path_3750" data-name="Path 3750" d="M528.767,372.4l-11.5-11.263H482.63l-25.478-24.9V317.345l-8.662-9.165H411.325" transform="translate(426.447 319.509)" fill="none" stroke="#fff" stroke-width="1"/>
      <path id="Path_3751" data-name="Path 3751" d="M105.833,444.113h15.779l45.324,44.809H197.99l13.754,14.257h33.961l18.846,18.663,9.314-9.5V426.8l-14.094-13.239H211.744l-66.71-67.213H120.09l-53.974-54.49V249.6L43.76,226.179H22.325" transform="translate(23.146 234.494)" fill="none" stroke="#fff" stroke-width="1"/>
      <path id="Path_3752" data-name="Path 3752" d="M25.987,160.632l11.891,10.931v23.789l16.8,17.312H73.521l27.321,27.321" transform="translate(26.943 166.538)" fill="none" stroke="#fff" stroke-width="1"/>
      <path id="Path_3753" data-name="Path 3753" d="M5.112,412.486l10.465-12.758H39.365l18.119-16.679V365.1H93.127l34.11,34.625h59.581l24.266,24.441h55.168l9.165,9.671V470l8.147-9.53V425.187L269.47,411.948H221.443l-66.71-67.213H129.789l-53.974-54.49V247.988l-12.4-12.4" transform="translate(5.3 244.254)" fill="none" stroke="#fff" stroke-width="1"/>
      <path id="Path_3754" data-name="Path 3754" d="M513.226,378.547H488.785L468.92,358.179H397.13l-20.516,20.368H352.322l-27.5,27.645v44.66" transform="translate(336.767 371.347)" fill="none" stroke="#fff" stroke-width="1"/>
      <g id="Group_232" data-name="Group 232">
        <g id="Group_231" data-name="Group 231" clip-path="url(#clip-path-2)">
          <path id="Path_3755" data-name="Path 3755" d="M115.007,195.5a9.5,9.5,0,1,1-9.5-9.5,9.5,9.5,0,0,1,9.5,9.5" transform="translate(99.529 192.838)" fill="#fff" stroke="#fff" stroke-width="1"/>
          <circle id="Ellipse_3" data-name="Ellipse 3" cx="9.504" cy="9.504" r="9.504" transform="translate(192.616 393.486) rotate(-67.5)" fill="none" stroke="#fff" stroke-width="1"/>
          <path id="Path_3756" data-name="Path 3756" d="M111.007,160.5a9.5,9.5,0,1,1-9.5-9.5,9.5,9.5,0,0,1,9.5,9.5" transform="translate(95.382 156.551)" fill="#fff" stroke="#fff" stroke-width="1"/>
          <circle id="Ellipse_4" data-name="Ellipse 4" cx="9.504" cy="9.504" r="9.504" transform="translate(184.469 322.199) rotate(-67.5)" fill="none" stroke="#fff" stroke-width="1"/>
          <path id="Path_3757" data-name="Path 3757" d="M70.007,117.5a9.5,9.5,0,1,1-9.5-9.5,9.5,9.5,0,0,1,9.5,9.5" transform="translate(52.875 111.971)" fill="#fff" stroke="#fff" stroke-width="1"/>
          <circle id="Ellipse_5" data-name="Ellipse 5" cx="9.504" cy="9.504" r="9.504" transform="translate(100.961 234.618) rotate(-67.5)" fill="none" stroke="#fff" stroke-width="1"/>
          <path id="Path_3758" data-name="Path 3758" d="M65.007,170.5a9.5,9.5,0,1,1-9.5-9.5,9.5,9.5,0,0,1,9.5,9.5" transform="translate(47.691 166.919)" fill="#fff" stroke="#fff" stroke-width="1"/>
          <circle id="Ellipse_6" data-name="Ellipse 6" cx="9.504" cy="9.504" r="9.504" transform="translate(90.778 342.566) rotate(-67.5)" fill="none" stroke="#fff" stroke-width="1"/>
          <path id="Path_3759" data-name="Path 3759" d="M99.007,109.5a9.5,9.5,0,1,1-9.5-9.5,9.5,9.5,0,0,1,9.5,9.5" transform="translate(82.941 103.676)" fill="#fff" stroke="#fff" stroke-width="1"/>
          <circle id="Ellipse_7" data-name="Ellipse 7" cx="9.504" cy="9.504" r="9.504" transform="translate(160.028 218.324) rotate(-67.5)" fill="none" stroke="#fff" stroke-width="1"/>
          <path id="Path_3760" data-name="Path 3760" d="M223.007,177.5a9.5,9.5,0,1,1-9.5-9.5,9.5,9.5,0,0,1,9.5,9.5" transform="translate(211.5 174.176)" fill="#fff" stroke="#fff" stroke-width="1"/>
          <circle id="Ellipse_8" data-name="Ellipse 8" cx="9.504" cy="9.504" r="9.504" transform="translate(412.586 356.824) rotate(-67.5)" fill="none" stroke="#fff" stroke-width="1"/>
          <path id="Path_3761" data-name="Path 3761" d="M385.007,269.5a9.5,9.5,0,1,1-9.5-9.5,9.5,9.5,0,0,1,9.5,9.5" transform="translate(379.456 269.559)" fill="#fff" stroke="#fff" stroke-width="1"/>
          <circle id="Ellipse_9" data-name="Ellipse 9" cx="9.504" cy="9.504" r="9.504" transform="translate(743.526 546.129) rotate(-76.718)" fill="none" stroke="#fff" stroke-width="1"/>
          <path id="Path_3762" data-name="Path 3762" d="M393.007,156.5a9.5,9.5,0,1,1-9.5-9.5,9.5,9.5,0,0,1,9.5,9.5" transform="translate(387.75 152.404)" fill="#fff" stroke="#fff" stroke-width="1"/>
          <circle id="Ellipse_10" data-name="Ellipse 10" cx="9.504" cy="9.504" r="9.504" transform="translate(759.82 315.974) rotate(-76.718)" fill="none" stroke="#fff" stroke-width="1"/>
          <path id="Path_3763" data-name="Path 3763" d="M305.007,174.5a9.5,9.5,0,1,1-9.5-9.5,9.5,9.5,0,0,1,9.5,9.5" transform="translate(296.514 171.066)" fill="#fff" stroke="#fff" stroke-width="1"/>
          <circle id="Ellipse_11" data-name="Ellipse 11" cx="9.504" cy="9.504" r="9.504" transform="translate(580.585 352.636) rotate(-76.718)" fill="none" stroke="#fff" stroke-width="1"/>
          <path id="Path_3764" data-name="Path 3764" d="M240.007,155.5a9.5,9.5,0,1,1-9.5-9.5,9.5,9.5,0,0,1,9.5,9.5" transform="translate(229.125 151.368)" fill="#fff" stroke="#fff" stroke-width="1"/>
          <circle id="Ellipse_12" data-name="Ellipse 12" cx="9.504" cy="9.504" r="9.504" transform="translate(447.211 312.015) rotate(-67.5)" fill="none" stroke="#fff" stroke-width="1"/>
          <path id="Path_3765" data-name="Path 3765" d="M116.007,234.5a9.5,9.5,0,1,1-9.5-9.5,9.5,9.5,0,0,1,9.5,9.5" transform="translate(100.566 233.272)" fill="#fff" stroke="#fff" stroke-width="1"/>
          <circle id="Ellipse_13" data-name="Ellipse 13" cx="9.504" cy="9.504" r="9.504" transform="translate(194.653 472.919) rotate(-67.5)" fill="none" stroke="#fff" stroke-width="1"/>
          <path id="Path_3766" data-name="Path 3766" d="M241.007,194.5a9.5,9.5,0,1,1-9.5-9.5,9.5,9.5,0,0,1,9.5,9.5" transform="translate(230.162 191.801)" fill="#fff" stroke="#fff" stroke-width="1"/>
          <circle id="Ellipse_14" data-name="Ellipse 14" cx="9.504" cy="9.504" r="9.504" transform="translate(449.248 391.449) rotate(-67.5)" fill="none" stroke="#fff" stroke-width="1"/>
          <path id="Path_3767" data-name="Path 3767" d="M229.007,17.5A9.5,9.5,0,1,1,219.5,8a9.5,9.5,0,0,1,9.5,9.5" transform="translate(217.72 8.294)" fill="#fff" stroke="#fff" stroke-width="1"/>
          <circle id="Ellipse_15" data-name="Ellipse 15" cx="9.504" cy="9.504" r="9.504" transform="translate(423.784 25.798) rotate(-45)" fill="none" stroke="#fff" stroke-width="1"/>
          <path id="Path_3768" data-name="Path 3768" d="M301.007,24.5a9.5,9.5,0,1,1-9.5-9.5,9.5,9.5,0,0,1,9.5,9.5" transform="translate(292.367 15.551)" fill="#fff" stroke="#fff" stroke-width="1"/>
          <circle id="Ellipse_16" data-name="Ellipse 16" cx="9.504" cy="9.504" r="9.504" transform="matrix(0.526, -0.851, 0.851, 0.526, 570.79, 43.144)" fill="none" stroke="#fff" stroke-width="1"/>
          <path id="Path_3769" data-name="Path 3769" d="M293.007,78.5a9.5,9.5,0,1,1-9.5-9.5,9.5,9.5,0,0,1,9.5,9.5" transform="translate(284.073 71.537)" fill="#fff" stroke="#fff" stroke-width="1"/>
          <circle id="Ellipse_17" data-name="Ellipse 17" cx="9.504" cy="9.504" r="9.504" transform="translate(556.144 157.107) rotate(-76.718)" fill="none" stroke="#fff" stroke-width="1"/>
          <path id="Path_3770" data-name="Path 3770" d="M443.007,167.5a9.5,9.5,0,1,1-9.5-9.5,9.5,9.5,0,0,1,9.5,9.5" transform="translate(439.588 163.809)" fill="#fff" stroke="#fff" stroke-width="1"/>
          <circle id="Ellipse_18" data-name="Ellipse 18" cx="9.504" cy="9.504" r="9.504" transform="translate(861.659 338.379) rotate(-76.718)" fill="none" stroke="#fff" stroke-width="1"/>
          <path id="Path_3771" data-name="Path 3771" d="M209.007,106.5a9.5,9.5,0,1,1-9.5-9.5,9.5,9.5,0,0,1,9.5,9.5" transform="translate(196.985 100.566)" fill="#fff" stroke="#fff" stroke-width="1"/>
          <circle id="Ellipse_19" data-name="Ellipse 19" cx="9.504" cy="9.504" r="9.504" transform="translate(384.072 212.214) rotate(-67.5)" fill="none" stroke="#fff" stroke-width="1"/>
          <path id="Path_3772" data-name="Path 3772" d="M80.007,207.5a9.5,9.5,0,1,1-9.5-9.5,9.5,9.5,0,0,1,9.5,9.5" transform="translate(63.243 205.279)" fill="#fff" stroke="#fff" stroke-width="1"/>
          <circle id="Ellipse_20" data-name="Ellipse 20" cx="9.504" cy="9.504" r="9.504" transform="translate(121.329 417.927) rotate(-67.5)" fill="none" stroke="#fff" stroke-width="1"/>
          <path id="Path_3773" data-name="Path 3773" d="M33.007,231.5a9.5,9.5,0,1,1-9.5-9.5,9.5,9.5,0,0,1,9.5,9.5" transform="translate(14.515 230.162)" fill="#fff" stroke="#fff" stroke-width="1"/>
          <circle id="Ellipse_21" data-name="Ellipse 21" cx="9.504" cy="9.504" r="9.504" transform="translate(25.719 467.086) rotate(-68.782)" fill="none" stroke="#fff" stroke-width="1"/>
          <path id="Path_3774" data-name="Path 3774" d="M63.007,234.5a9.5,9.5,0,1,1-9.5-9.5,9.5,9.5,0,0,1,9.5,9.5" transform="translate(45.618 233.272)" fill="#fff" stroke="#fff" stroke-width="1"/>
          <circle id="Ellipse_22" data-name="Ellipse 22" cx="9.504" cy="9.504" r="9.504" transform="translate(86.704 472.919) rotate(-67.5)" fill="none" stroke="#fff" stroke-width="1"/>
          <path id="Path_3775" data-name="Path 3775" d="M95.007,313.5a9.5,9.5,0,1,1-9.5-9.5,9.5,9.5,0,0,1,9.5,9.5" transform="translate(78.794 315.176)" fill="#fff" stroke="#fff" stroke-width="1"/>
          <circle id="Ellipse_23" data-name="Ellipse 23" cx="9.504" cy="9.504" r="9.504" transform="translate(154.794 619.177)" fill="none" stroke="#fff" stroke-width="1"/>
          <path id="Path_3776" data-name="Path 3776" d="M168.007,268.5a9.5,9.5,0,1,1-9.5-9.5,9.5,9.5,0,0,1,9.5,9.5" transform="translate(154.478 268.522)" fill="#fff" stroke="#fff" stroke-width="1"/>
          <circle id="Ellipse_24" data-name="Ellipse 24" cx="9.504" cy="9.504" r="9.504" transform="translate(300.564 542.169) rotate(-67.5)" fill="none" stroke="#fff" stroke-width="1"/>
          <path id="Path_3777" data-name="Path 3777" d="M198.007,299.5a9.5,9.5,0,1,1-9.5-9.5,9.5,9.5,0,0,1,9.5,9.5" transform="translate(185.581 300.662)" fill="#fff" stroke="#fff" stroke-width="1"/>
          <circle id="Ellipse_25" data-name="Ellipse 25" cx="9.504" cy="9.504" r="9.504" transform="translate(364.581 590.662)" fill="none" stroke="#fff" stroke-width="1"/>
          <path id="Path_3778" data-name="Path 3778" d="M299.007,261.5a9.5,9.5,0,1,1-9.5-9.5,9.5,9.5,0,0,1,9.5,9.5" transform="translate(290.294 261.265)" fill="#fff" stroke="#fff" stroke-width="1"/>
          <circle id="Ellipse_26" data-name="Ellipse 26" cx="9.504" cy="9.504" r="9.504" transform="translate(568.365 529.835) rotate(-76.718)" fill="none" stroke="#fff" stroke-width="1"/>
          <path id="Path_3779" data-name="Path 3779" d="M242.007,444.5a9.5,9.5,0,1,1-9.5-9.5,9.5,9.5,0,0,1,9.5,9.5" transform="translate(231.198 450.992)" fill="#fff" stroke="#fff" stroke-width="1"/>
          <circle id="Ellipse_27" data-name="Ellipse 27" cx="9.504" cy="9.504" r="9.504" transform="translate(454.198 885.993)" fill="none" stroke="#fff" stroke-width="1"/>
          <path id="Path_3780" data-name="Path 3780" d="M242.007,538.5a9.5,9.5,0,1,1-9.5-9.5,9.5,9.5,0,0,1,9.5,9.5" transform="translate(231.198 548.448)" fill="#fff" stroke="#fff" stroke-width="1"/>
          <circle id="Ellipse_28" data-name="Ellipse 28" cx="9.504" cy="9.504" r="9.504" transform="translate(454.198 1077.449)" fill="none" stroke="#fff" stroke-width="1"/>
          <path id="Path_3781" data-name="Path 3781" d="M292.007,464.5a9.5,9.5,0,1,1-9.5-9.5,9.5,9.5,0,0,1,9.5,9.5" transform="translate(283.037 471.728)" fill="#fff" stroke="#fff" stroke-width="1"/>
          <circle id="Ellipse_29" data-name="Ellipse 29" cx="9.504" cy="9.504" r="9.504" transform="translate(556.036 926.728)" fill="none" stroke="#fff" stroke-width="1"/>
          <path id="Path_3782" data-name="Path 3782" d="M180.007,398.5a9.5,9.5,0,1,1-9.5-9.5,9.5,9.5,0,0,1,9.5,9.5" transform="translate(166.919 403.301)" fill="#fff" stroke="#fff" stroke-width="1"/>
          <circle id="Ellipse_30" data-name="Ellipse 30" cx="9.504" cy="9.504" r="9.504" transform="translate(327.919 792.302)" fill="none" stroke="#fff" stroke-width="1"/>
          <path id="Path_3783" data-name="Path 3783" d="M208.007,395.5a9.5,9.5,0,1,1-9.5-9.5,9.5,9.5,0,0,1,9.5,9.5" transform="translate(195.948 400.191)" fill="#fff" stroke="#fff" stroke-width="1"/>
          <circle id="Ellipse_31" data-name="Ellipse 31" cx="9.504" cy="9.504" r="9.504" transform="translate(384.948 786.192)" fill="none" stroke="#fff" stroke-width="1"/>
          <path id="Path_3784" data-name="Path 3784" d="M339.007,412.5a9.5,9.5,0,1,1-9.5-9.5,9.5,9.5,0,0,1,9.5,9.5" transform="translate(331.764 417.816)" fill="#fff" stroke="#fff" stroke-width="1"/>
          <circle id="Ellipse_32" data-name="Ellipse 32" cx="9.504" cy="9.504" r="9.504" transform="translate(651.764 820.817)" fill="none" stroke="#fff" stroke-width="1"/>
          <path id="Path_3818" data-name="Path 3818" d="M250.007,36.5a9.5,9.5,0,1,1-9.5-9.5,9.5,9.5,0,0,1,9.5,9.5" transform="translate(239.492 27.993)" fill="#fff" stroke="#fff" stroke-width="1"/>
          <circle id="Ellipse_33" data-name="Ellipse 33" cx="9.504" cy="9.504" r="9.504" transform="translate(466.556 64.497) rotate(-45)" fill="none" stroke="#fff" stroke-width="1"/>
          <path id="Path_3819" data-name="Path 3819" d="M307.007,115.5a9.5,9.5,0,1,1-9.5-9.5,9.5,9.5,0,0,1,9.5,9.5" transform="translate(298.588 109.897)" fill="#fff" stroke="#fff" stroke-width="1"/>
          <circle id="Ellipse_34" data-name="Ellipse 34" cx="9.504" cy="9.504" r="9.504" transform="translate(584.659 232.467) rotate(-76.718)" fill="none" stroke="#fff" stroke-width="1"/>
          <path id="Path_3820" data-name="Path 3820" d="M307.007,94.5a9.5,9.5,0,1,1-9.5-9.5,9.5,9.5,0,0,1,9.5,9.5" transform="translate(298.588 88.125)" fill="#fff" stroke="#fff" stroke-width="1"/>
          <circle id="Ellipse_35" data-name="Ellipse 35" cx="9.504" cy="9.504" r="9.504" transform="translate(584.659 189.695) rotate(-76.718)" fill="none" stroke="#fff" stroke-width="1"/>
          <path id="Path_3821" data-name="Path 3821" d="M95.007,347.5a9.5,9.5,0,1,1-9.5-9.5,9.5,9.5,0,0,1,9.5,9.5" transform="translate(78.794 350.426)" fill="#fff" stroke="#fff" stroke-width="1"/>
          <circle id="Ellipse_36" data-name="Ellipse 36" cx="9.504" cy="9.504" r="9.504" transform="translate(154.794 688.427)" fill="none" stroke="#fff" stroke-width="1"/>
          <path id="Path_3822" data-name="Path 3822" d="M415.007,297.5a9.5,9.5,0,1,1-9.5-9.5,9.5,9.5,0,0,1,9.5,9.5" transform="translate(410.559 298.588)" fill="#fff" stroke="#fff" stroke-width="1"/>
          <circle id="Ellipse_37" data-name="Ellipse 37" cx="9.504" cy="9.504" r="9.504" transform="translate(806.559 586.589)" fill="none" stroke="#fff" stroke-width="1"/>
          <path id="Path_3823" data-name="Path 3823" d="M252.007,166.5a9.5,9.5,0,1,1-9.5-9.5,9.5,9.5,0,0,1,9.5,9.5" transform="translate(241.566 162.772)" fill="#fff" stroke="#fff" stroke-width="1"/>
          <circle id="Ellipse_38" data-name="Ellipse 38" cx="9.504" cy="9.504" r="9.504" transform="translate(471.653 334.419) rotate(-67.5)" fill="none" stroke="#fff" stroke-width="1"/>
          <path id="Path_3827" data-name="Path 3827" d="M131.007,200.5a9.5,9.5,0,1,1-9.5-9.5,9.5,9.5,0,0,1,9.5,9.5" transform="translate(116.118 198.022)" fill="#8bc5ff" stroke="#fff" stroke-width="1"/>
          <path id="Path_3836" data-name="Path 3836" d="M227.007,524.5a9.5,9.5,0,1,1-9.5-9.5,9.5,9.5,0,0,1,9.5,9.5" transform="translate(215.647 533.934)" fill="#fff" stroke="#fff" stroke-width="1"/>
          <circle id="Ellipse_39" data-name="Ellipse 39" cx="9.504" cy="9.504" r="9.504" transform="translate(423.647 1048.934)" fill="none" stroke="#fff" stroke-width="1"/>
          <path id="Path_3837" data-name="Path 3837" d="M320.595,221.589l8.656,8.982v72.672l-12.624,12.878" transform="translate(328.268 229.736)" fill="none" stroke="#fff" stroke-width="1"/>
          <g id="Group_234" data-name="Group 234">
            <path id="Path_3785" data-name="Path 3785" d="M83.007,221.5a9.5,9.5,0,1,1-9.5-9.5,9.5,9.5,0,0,1,9.5,9.5" transform="translate(66.353 219.794)" fill="#fff"/>
            <path id="Path_3786" data-name="Path 3786" d="M27.007,213.5a9.5,9.5,0,1,1-9.5-9.5,9.5,9.5,0,0,1,9.5,9.5" transform="translate(8.294 211.5)" fill="#fff"/>
            <path id="Path_3787" data-name="Path 3787" d="M216.007,329.5a9.5,9.5,0,1,1-9.5-9.5,9.5,9.5,0,0,1,9.5,9.5" transform="translate(204.243 331.764)" fill="#fff"/>
            <path id="Path_3788" data-name="Path 3788" d="M184.007,253.5a9.5,9.5,0,1,1-9.5-9.5,9.5,9.5,0,0,1,9.5,9.5" transform="translate(171.067 252.97)" fill="#fff"/>
            <path id="Path_3789" data-name="Path 3789" d="M331.007,224.5a9.5,9.5,0,1,1-9.5-9.5,9.5,9.5,0,0,1,9.5,9.5" transform="translate(323.47 222.904)" fill="#fff"/>
            <path id="Path_3790" data-name="Path 3790" d="M262.007,147.5a9.5,9.5,0,1,1-9.5-9.5,9.5,9.5,0,0,1,9.5,9.5" transform="translate(251.933 143.073)" fill="#fff"/>
            <path id="Path_3791" data-name="Path 3791" d="M247.007,123.5a9.5,9.5,0,1,1-9.5-9.5,9.5,9.5,0,0,1,9.5,9.5" transform="translate(236.382 118.191)" fill="#fff"/>
            <path id="Path_3792" data-name="Path 3792" d="M247.007,22.5a9.5,9.5,0,1,1-9.5-9.5,9.5,9.5,0,0,1,9.5,9.5" transform="translate(236.382 13.478)" fill="#fff"/>
            <path id="Path_3793" data-name="Path 3793" d="M205.007,9.5A9.5,9.5,0,1,1,195.5,0a9.5,9.5,0,0,1,9.5,9.5" transform="translate(192.838)" fill="#fff"/>
            <path id="Path_3794" data-name="Path 3794" d="M223.007,163.5a9.5,9.5,0,1,1-9.5-9.5,9.5,9.5,0,0,1,9.5,9.5" transform="translate(211.5 159.662)" fill="#fff"/>
            <path id="Path_3795" data-name="Path 3795" d="M180.007,132.5a9.5,9.5,0,1,1-9.5-9.5,9.5,9.5,0,0,1,9.5,9.5" transform="translate(166.919 127.522)" fill="#fff"/>
            <path id="Path_3796" data-name="Path 3796" d="M172.007,76.5a9.5,9.5,0,1,1-9.5-9.5,9.5,9.5,0,0,1,9.5,9.5" transform="translate(158.625 69.463)" fill="#fff"/>
            <path id="Path_3797" data-name="Path 3797" d="M188.007,31.5a9.5,9.5,0,1,1-9.5-9.5,9.5,9.5,0,0,1,9.5,9.5" transform="translate(175.213 22.809)" fill="#fff"/>
            <path id="Path_3798" data-name="Path 3798" d="M152.007,123.5a9.5,9.5,0,1,1-9.5-9.5,9.5,9.5,0,0,1,9.5,9.5" transform="translate(137.89 118.191)" fill="#fff"/>
            <path id="Path_3799" data-name="Path 3799" d="M149.007,144.5a9.5,9.5,0,1,1-9.5-9.5,9.5,9.5,0,0,1,9.5,9.5" transform="translate(134.779 139.963)" fill="#fff"/>
            <path id="Path_3800" data-name="Path 3800" d="M101.007,135.5a9.5,9.5,0,1,1-9.5-9.5,9.5,9.5,0,0,1,9.5,9.5" transform="translate(85.015 130.632)" fill="#fff"/>
            <path id="Path_3801" data-name="Path 3801" d="M77.007,338.5a9.5,9.5,0,1,1-9.5-9.5,9.5,9.5,0,0,1,9.5,9.5" transform="translate(60.133 341.095)" fill="#fff"/>
            <path id="Path_3802" data-name="Path 3802" d="M423.007,344.5a9.5,9.5,0,1,1-9.5-9.5,9.5,9.5,0,0,1,9.5,9.5" transform="translate(418.852 347.316)" fill="#fff"/>
            <path id="Path_3803" data-name="Path 3803" d="M434.007,372.5a9.5,9.5,0,1,1-9.5-9.5,9.5,9.5,0,0,1,9.5,9.5" transform="translate(430.256 376.345)" fill="#fff"/>
            <path id="Path_3804" data-name="Path 3804" d="M423.007,312.5a9.5,9.5,0,1,1-9.5-9.5,9.5,9.5,0,0,1,9.5,9.5" transform="translate(418.852 314.139)" fill="#fff"/>
            <path id="Path_3805" data-name="Path 3805" d="M484.007,345.5a9.5,9.5,0,1,1-9.5-9.5,9.5,9.5,0,0,1,9.5,9.5" transform="translate(482.095 348.353)" fill="#fff"/>
            <path id="Path_3806" data-name="Path 3806" d="M478.007,279.5a9.5,9.5,0,1,1-9.5-9.5,9.5,9.5,0,0,1,9.5,9.5" transform="translate(475.875 279.926)" fill="#fff"/>
            <path id="Path_3807" data-name="Path 3807" d="M399.007,283.5a9.5,9.5,0,1,1-9.5-9.5,9.5,9.5,0,0,1,9.5,9.5" transform="translate(393.97 284.073)" fill="#fff"/>
            <path id="Path_3808" data-name="Path 3808" d="M386.007,145.5a9.5,9.5,0,1,1-9.5-9.5,9.5,9.5,0,0,1,9.5,9.5" transform="translate(380.492 141)" fill="#fff"/>
            <path id="Path_3809" data-name="Path 3809" d="M363.007,201.5a9.5,9.5,0,1,1-9.5-9.5,9.5,9.5,0,0,1,9.5,9.5" transform="translate(356.647 199.059)" fill="#fff"/>
            <path id="Path_3810" data-name="Path 3810" d="M483.007,182.5a9.5,9.5,0,1,1-9.5-9.5,9.5,9.5,0,0,1,9.5,9.5" transform="translate(481.058 179.36)" fill="#fff"/>
            <path id="Path_3811" data-name="Path 3811" d="M461.007,146.5a9.5,9.5,0,1,1-9.5-9.5,9.5,9.5,0,0,1,9.5,9.5" transform="translate(458.249 142.037)" fill="#fff"/>
            <path id="Path_3812" data-name="Path 3812" d="M403.007,132.5a9.5,9.5,0,1,1-9.5-9.5,9.5,9.5,0,0,1,9.5,9.5" transform="translate(398.118 127.522)" fill="#fff"/>
            <path id="Path_3813" data-name="Path 3813" d="M336.007,27.5a9.5,9.5,0,1,1-9.5-9.5,9.5,9.5,0,0,1,9.5,9.5" transform="translate(328.654 18.662)" fill="#fff"/>
            <path id="Path_3814" data-name="Path 3814" d="M289.007,64.5a9.5,9.5,0,1,1-9.5-9.5,9.5,9.5,0,0,1,9.5,9.5" transform="translate(279.926 57.022)" fill="#fff"/>
            <path id="Path_3815" data-name="Path 3815" d="M266.007,53.5a9.5,9.5,0,1,1-9.5-9.5,9.5,9.5,0,0,1,9.5,9.5" transform="translate(256.08 45.618)" fill="#fff"/>
            <path id="Path_3816" data-name="Path 3816" d="M281.007,40.5a9.5,9.5,0,1,1-9.5-9.5,9.5,9.5,0,0,1,9.5,9.5" transform="translate(271.632 32.14)" fill="#fff"/>
            <path id="Path_3817" data-name="Path 3817" d="M255.007,109.5a9.5,9.5,0,1,1-9.5-9.5,9.5,9.5,0,0,1,9.5,9.5" transform="translate(244.676 103.676)" fill="#fff"/>
            <path id="Path_3824" data-name="Path 3824" d="M75.007,150.5a9.5,9.5,0,1,1-9.5-9.5,9.5,9.5,0,0,1,9.5,9.5" transform="translate(58.059 146.184)" fill="#fff"/>
            <path id="Path_3825" data-name="Path 3825" d="M49.007,154.5a9.5,9.5,0,1,1-9.5-9.5,9.5,9.5,0,0,1,9.5,9.5" transform="translate(31.102 150.331)" fill="#fff"/>
            <path id="Path_3826" data-name="Path 3826" d="M40.007,165.5a9.5,9.5,0,1,1-9.5-9.5,9.5,9.5,0,0,1,9.5,9.5" transform="translate(21.773 161.735)" fill="#fff"/>
            <path id="Path_3828" data-name="Path 3828" d="M436.007,106.5a9.5,9.5,0,1,1-9.5-9.5,9.5,9.5,0,0,1,9.5,9.5" transform="translate(432.331 100.566)" fill="#fff"/>
            <path id="Path_3829" data-name="Path 3829" d="M444.007,88.5a9.5,9.5,0,1,1-9.5-9.5,9.5,9.5,0,0,1,9.5,9.5" transform="translate(440.625 81.904)" fill="#fff"/>
            <path id="Path_3830" data-name="Path 3830" d="M483.007,205.5a9.5,9.5,0,1,1-9.5-9.5,9.5,9.5,0,0,1,9.5,9.5" transform="translate(481.058 203.206)" fill="#fff"/>
            <path id="Path_3831" data-name="Path 3831" d="M408.007,195.5a9.5,9.5,0,1,1-9.5-9.5,9.5,9.5,0,0,1,9.5,9.5" transform="translate(403.301 192.838)" fill="#fff"/>
            <path id="Path_3832" data-name="Path 3832" d="M48.007,240.5a9.5,9.5,0,1,1-9.5-9.5,9.5,9.5,0,0,1,9.5,9.5" transform="translate(30.066 239.492)" fill="#fff"/>
            <path id="Path_3833" data-name="Path 3833" d="M23.007,266.5a9.5,9.5,0,1,1-9.5-9.5,9.5,9.5,0,0,1,9.5,9.5" transform="translate(4.147 266.448)" fill="#fff"/>
            <path id="Path_3834" data-name="Path 3834" d="M19.007,328.5A9.5,9.5,0,1,1,9.5,319a9.5,9.5,0,0,1,9.5,9.5" transform="translate(0 330.728)" fill="#fff"/>
            <path id="Path_3835" data-name="Path 3835" d="M118.007,149.5a9.5,9.5,0,1,1-9.5-9.5,9.5,9.5,0,0,1,9.5,9.5" transform="translate(102.639 145.147)" fill="#fff"/>
            <path id="Path_3838" data-name="Path 3838" d="M329.007,273.5a9.5,9.5,0,1,1-9.5-9.5,9.5,9.5,0,0,1,9.5,9.5" transform="translate(321.397 273.706)" fill="#fff"/>
          </g>
          <path id="Path_3839" data-name="Path 3839" d="M293.208,1051.635V573l22.4-22.765V503.746L325.8,493.711V379.5l18.331-18.691V269.518l10.184-11.054V161.57l-20.368-19.355V118.8l-57.2-57.2" transform="translate(286.913 63.857)" fill="none" stroke="#fff" stroke-width="1"/>
          <path id="Path_3840" data-name="Path 3840" d="M287.825,1092.163V619.634l24.441-23.783v-49.54l10.184-10.544V420.031L338.744,404.4V312.083l10.184-10.544V200.061L328.56,179.178V155.252l-28.515-28.521V94.149l46.846-46.188V33.046L357.436,22.5" transform="translate(298.407 23.329)" fill="none" stroke="#fff" stroke-width="1"/>
        </g>
      </g>
    </g>
  </g>
</svg>
