<svg xmlns="http://www.w3.org/2000/svg" width="90" height="90" viewBox="0 0 90 90">
  <g id="Group_218" data-name="Group 218" transform="translate(0 0.062)">
    <rect id="Rectangle_210" data-name="Rectangle 210" width="90" height="90" transform="translate(0 -0.062)" fill="rgba(255,255,255,0)"/>
    <g id="Group_199" data-name="Group 199" transform="translate(14.805 15)">
      <path id="Path_4924" data-name="Path 4924" d="M1362.579,30.745c-.909,0-1.781-.009-2.653,0a1.1,1.1,0,0,1-1.131-.559A1.082,1.082,0,0,1,1359,29q4.254-6.138,8.5-12.28c.6-.87,1.346-.871,1.951-.01.667.95,1.323,1.908,2.006,2.894,2.827-4.086,5.655-8.106,8.4-12.18,1.032-1.53,1.713-1.484,2.72.009,2.738,4.059,5.556,8.065,8.395,12.168.591-.851,1.213-1.644,1.723-2.5.844-1.421,1.681-1.251,2.5-.03,2.692,3.992,5.458,7.935,8.2,11.891.332.478.541.967.079,1.431a1.407,1.407,0,0,1-.865.342c-.9.044-1.794.016-2.787.016v.664c0,5.7-.005,11.394.013,17.091a1.864,1.864,0,0,0,.316,1q5.483,7.819,11,15.617a2.371,2.371,0,0,1,.408.806.935.935,0,0,1-.844,1.076,4.98,4.98,0,0,1-.673.013h-57.681A4.36,4.36,0,0,1,1351.7,67a.972.972,0,0,1-.624-1.589c.771-1.129,1.57-2.239,2.358-3.356q4.429-6.277,8.852-12.559a1.563,1.563,0,0,0,.3-.824q.025-8.821.011-17.642c0-.061-.01-.122-.023-.283m12.851-1.96-6.948-10.041-6.944,10.041h1.617c1.123,0,1.407.285,1.407,1.41,0,6.187-.008,12.374.012,18.56a2.748,2.748,0,0,1-.54,1.7q-4.963,6.987-9.89,14c-.122.173-.231.355-.368.564a2.215,2.215,0,0,0,.25.037c4.429,0,8.858-.005,13.287.014.426,0,.492-.211.584-.526q1.57-5.37,3.158-10.734c.46-1.559.92-3.118,1.393-4.719l1.865.575-4.51,15.355h22.833l-4.513-15.365L1390,49.1l4.683,15.9h14c-.194-.28-.342-.5-.494-.713q-4.941-7-9.872-14.012a2.108,2.108,0,0,1-.419-1.1q-.038-9.617-.016-19.234c0-.8.362-1.145,1.168-1.155.579-.007,1.158,0,1.859,0l-6.95-10.04-6.944,10.04h1.633c1.094,0,1.392.292,1.392,1.364q0,8.453,0,16.906c0,1.029-.312,1.332-1.362,1.334H1387.1c0,3.877,0,7.654,0,11.431,0,1-.319,1.312-1.322,1.312q-4.561,0-9.123,0c-1,0-1.31-.317-1.311-1.322q0-5.36,0-10.72v-.7c-.656,0-1.245.009-1.832,0a.985.985,0,0,1-1.1-1.1q-.009-8.7,0-17.4a.984.984,0,0,1,1.091-1.107c.591-.013,1.183,0,1.933,0M1387.1,38.6v7.8h.98v-.563q0-4.013,0-8.025a2.939,2.939,0,0,0-3.136-3.145q-3.7-.007-7.41,0a2.948,2.948,0,0,0-3.17,3.173q-.005,3.982,0,7.964c0,.2.016.395.024.579h.974V38.628h1.969V59.139h2.927V47.459h1.969V59.13h2.949V38.6Zm-5.878-29.662-6.947,10.043c.75,0,1.359,0,1.967,0a.909.909,0,0,1,1.029.839c.061,1.009.017,2.024.017,3.035h-1.961V20.976h-2.916l3.284,4.743c1.166-2.443,2.966-3.791,5.576-3.776a5.864,5.864,0,0,1,5.487,3.766l3.268-4.726h-2.954v1.886h-1.93c0-.906,0-1.779,0-2.652s.34-1.226,1.212-1.234c.562-.005,1.124,0,1.815,0l-6.947-10.042m-.005,14.943a3.921,3.921,0,1,0,3.922,3.931,3.924,3.924,0,0,0-3.922-3.931m-6.815,6.862v2.937a5.161,5.161,0,0,1,3.362-.983c-.53-.623-1.032-1.225-1.553-1.811a.559.559,0,0,0-.368-.137c-.466-.016-.933-.006-1.441-.006m13.652,0c-.458,0-.881-.011-1.3.005-.171.006-.4.012-.5.117-.538.59-1.042,1.211-1.581,1.849a5.215,5.215,0,0,1,3.384.948Z" transform="translate(-1350.861 -6.293)" fill="#ff5600"/>
    </g>
  </g>
</svg>
