<svg xmlns="http://www.w3.org/2000/svg" width="90" height="90" viewBox="0 0 90 90">
  <g id="Group_204" data-name="Group 204" transform="translate(0 0.062)">
    <rect id="Rectangle_211" data-name="Rectangle 211" width="90" height="90" transform="translate(0 -0.062)" fill="rgba(255,255,255,0)"/>
    <g id="Group_201" data-name="Group 201" transform="translate(14.195 14)">
      <path id="Path_4935" data-name="Path 4935" d="M30.856,0h.979a2.589,2.589,0,0,0,.327.136Q38.741,1.91,45.321,3.677a2.108,2.108,0,0,1,.946,3.669.993.993,0,0,0-.284.613c-.032.835-.006,1.673-.016,2.509a1.5,1.5,0,0,0,.534,1.239,1.04,1.04,0,1,1-1.363,1.563,3.249,3.249,0,0,1-1.262-2.725c0-.751,0-1.5,0-2.327-.583.152-1.084.314-1.6.407-.411.074-.507.276-.5.668.018,1.918.023,3.836,0,5.754-.007.5.056.823.6,1.018a2.938,2.938,0,0,1,.966.728c1.569,1.548,3.1,3.136,4.692,4.658a2.646,2.646,0,0,1,1.094,2.426c0,.029.04.065.091.145h.634c2.02,0,4.04.005,6.061,0a3.256,3.256,0,0,1,3.181,1.961c.7,1.448,1.466,2.868,2.137,4.33a4.21,4.21,0,0,1,.4,1.686q.039,11.509.012,23.018a1.42,1.42,0,0,0,.364.965,3.767,3.767,0,0,1,.664,1.512,7.652,7.652,0,0,1,.025,1.587c0,1.817-.742,2.562-2.559,2.562-4.265,0-8.53-.007-12.794.017a2.522,2.522,0,0,0-.888.357c-.489.22-.97.458-1.464.665a1.18,1.18,0,0,1-.425.011q-13.223,0-26.446.005a2.174,2.174,0,0,1-1.829-.662,1.074,1.074,0,0,0-.949-.4c-4.244.009-8.489-.018-12.733.02A2.39,2.39,0,0,1,0,60V56.936a3.384,3.384,0,0,1,.6-.888,1.269,1.269,0,0,0,.452-1.174q-.011-11.5.01-23.005A3.577,3.577,0,0,1,1.4,30.413c.69-1.475,1.457-2.915,2.166-4.382a3.317,3.317,0,0,1,3.272-2.014c2.019.017,4.038,0,6.057,0h.753c-.37-1.238.368-1.952,1.018-2.717,1.135-1.337,2.274-2.671,3.365-4.044a3.6,3.6,0,0,1,2.792-1.6c.033-.07.065-.107.065-.144.007-2.141.02-4.283,0-6.423,0-.153-.255-.387-.434-.44-1.014-.3-2.041-.558-3.064-.833a2.11,2.11,0,0,1-.01-4.144c2.93-.785,5.863-1.559,8.79-2.353C27.736.9,29.294.443,30.856,0M42.81,32.429H19.882v22.9h6.23v-.763q0-5.661,0-11.321c0-1.122.337-1.455,1.467-1.456q3.733,0,7.466,0c1.215,0,1.533.314,1.534,1.514q0,5.661,0,11.321v.7H42.81Zm2.159,22.9H59.505V32.43H44.97Zm-41.785,0H17.723v-22.9H3.184ZM16.9,21.89H45.439c-1.314-1.326-2.56-2.608-3.843-3.852a1.308,1.308,0,0,0-.841-.268q-9.88-.022-19.761,0a1.361,1.361,0,0,0-.924.356c-1.064,1.2-2.073,2.449-3.167,3.76M44.652,5.821c0-.044,0-.089,0-.134-.075-.026-.15-.056-.226-.077q-6.4-1.721-12.8-3.433a1.321,1.321,0,0,0-.647.022Q26.1,3.49,21.237,4.8c-1.077.289-2.151.589-3.367.923.229.09.3.126.375.146,4.168,1.123,8.335,2.252,12.509,3.352a2.549,2.549,0,0,0,1.234,0c2.642-.683,5.273-1.4,7.908-2.114l4.755-1.281M23.022,15.637H39.657V9.359c-.22.053-.4.091-.572.138-2.281.609-4.554,1.25-6.847,1.81a3.892,3.892,0,0,1-1.784-.009c-2.293-.562-4.566-1.2-6.847-1.809-.184-.049-.375-.071-.585-.11ZM44.891,57.508H17.809V60.59H44.891ZM28.2,55.32h6.232a1.231,1.231,0,0,0,.048-.219c0-3.589,0-7.178.013-10.766,0-.4-.177-.467-.519-.465-1.713.011-3.426.024-5.138-.007-.514-.009-.65.15-.646.654.021,3.283.011,6.566.011,9.849v.954m-12.5-29.251H46.968V24.053H15.706Zm2.072,4.175H44.894V28.253H17.778Zm29.269.006H58.882c-.571-1.144-1.126-2.205-1.633-3.289a1.364,1.364,0,0,0-1.4-.857c-2.06.019-4.12.006-6.18.009-.177,0-.353.021-.537.033a2.194,2.194,0,0,1-2.084,2.093Zm-43.244,0h11.84V28.231a2.214,2.214,0,0,1-2.106-2.117c-2.355,0-4.679-.017-7,.021a1.163,1.163,0,0,0-.86.465c-.655,1.167-1.231,2.378-1.873,3.647M2.116,59.507H15.622V57.5H2.116Zm58.469-2H47.053V59.5H60.585Z" fill="#ff5600"/>
      <path id="Path_4936" data-name="Path 4936" d="M166.116,212.975c0-.367-.02-.735,0-1.1a.988.988,0,0,1,.987-.965.973.973,0,0,1,1.061.885,18.919,18.919,0,0,1,0,2.381,1.013,1.013,0,0,1-1.068.892,1.056,1.056,0,0,1-.982-.992c0-.041,0-.081,0-.122q0-.489,0-.978h0" transform="translate(-138.937 -176.409)" fill="#ff5600"/>
      <path id="Path_4937" data-name="Path 4937" d="M206.405,213.009c0,.346.017.694,0,1.039a1.045,1.045,0,0,1-1.014,1.022,1.021,1.021,0,0,1-1.041-.927,20.237,20.237,0,0,1,0-2.321.983.983,0,0,1,1.1-.909,1,1,0,0,1,.96,1c0,.041,0,.081,0,.122q0,.489,0,.978Z" transform="translate(-170.891 -176.409)" fill="#ff5600"/>
      <path id="Path_4938" data-name="Path 4938" d="M332.217,219.224c0-.346-.017-.694,0-1.039a1.027,1.027,0,0,1,.954-1.012,1,1,0,0,1,1.082.871,16.49,16.49,0,0,1,0,2.439.964.964,0,0,1-1.09.847.99.99,0,0,1-.944-1.006c-.02-.366,0-.733,0-1.1" transform="translate(-277.868 -181.646)" fill="#ff5600"/>
      <path id="Path_4939" data-name="Path 4939" d="M334.268,257.563c0,.346.017.693,0,1.038a1.03,1.03,0,0,1-1.083,1.072,1,1,0,0,1-.992-1.087c-.016-.672-.018-1.344,0-2.016a1.026,1.026,0,0,1,.974-1.053,1.045,1.045,0,0,1,1.093,1.007c.031.344.005.692.005,1.038h0" transform="translate(-277.841 -213.72)" fill="#ff5600"/>
      <path id="Path_4940" data-name="Path 4940" d="M295.907,219.292a9.945,9.945,0,0,1-.008,1.158.983.983,0,0,1-1.038.911.964.964,0,0,1-1-.949c-.037-.751-.037-1.507,0-2.259a1.017,1.017,0,0,1,2.021-.08,9.068,9.068,0,0,1,.01,1.218h.011" transform="translate(-245.771 -181.676)" fill="#ff5600"/>
      <path id="Path_4941" data-name="Path 4941" d="M332.217,296.02c0-.367-.019-.734,0-1.1a.988.988,0,0,1,.972-.978.964.964,0,0,1,1.068.874,17.271,17.271,0,0,1,0,2.379,1,1,0,0,1-1.057.9,1.033,1.033,0,0,1-.99-1.039c-.018-.345,0-.692,0-1.039h0" transform="translate(-277.868 -245.859)" fill="#ff5600"/>
      <path id="Path_4942" data-name="Path 4942" d="M295.9,257.59c0,.366.029.735-.006,1.1a1,1,0,0,1-1.039.983.983.983,0,0,1-1.016-1c-.032-.711-.031-1.425,0-2.136a1.015,1.015,0,0,1,1-1.024,1.036,1.036,0,0,1,1.053.98c.037.362.007.732.007,1.1" transform="translate(-245.755 -213.717)" fill="#ff5600"/>
      <path id="Path_4943" data-name="Path 4943" d="M293.916,295.962c0-.366-.028-.735.007-1.1a.969.969,0,0,1,.97-.91.908.908,0,0,1,1.037.823,16.345,16.345,0,0,1,0,2.494.964.964,0,0,1-1.039.838,1,1,0,0,1-.967-.928c-.037-.4-.007-.813-.008-1.22" transform="translate(-245.829 -245.87)" fill="#ff5600"/>
      <path id="Path_4944" data-name="Path 4944" d="M40.318,219.27c0,.346.015.694,0,1.039a.993.993,0,0,1-.928,1.023.982.982,0,0,1-1.119-.887,17.25,17.25,0,0,1,0-2.38,1.006,1.006,0,0,1,1.07-.889,1.025,1.025,0,0,1,.971.994c.023.365,0,.733,0,1.1h0" transform="translate(-31.974 -181.649)" fill="#ff5600"/>
      <path id="Path_4945" data-name="Path 4945" d="M40.324,257.67c0,.326.014.652,0,.977a1,1,0,0,1-.991,1.026.973.973,0,0,1-1.057-.89,17.63,17.63,0,0,1,0-2.379,1,1,0,0,1,1.069-.886,1.021,1.021,0,0,1,.971.992c.023.386,0,.774,0,1.161h0" transform="translate(-31.98 -213.719)" fill="#ff5600"/>
      <path id="Path_4946" data-name="Path 4946" d="M40.336,295.983c0,.367.017.734,0,1.1a1.026,1.026,0,0,1-.953,1.011.99.99,0,0,1-1.085-.865,16.7,16.7,0,0,1,0-2.439.965.965,0,0,1,1.089-.848.987.987,0,0,1,.948,1c.02.345,0,.692,0,1.038" transform="translate(-31.994 -245.858)" fill="#ff5600"/>
      <path id="Path_4947" data-name="Path 4947" d="M78.694,219.256c0,.367.024.735-.006,1.1a.988.988,0,0,1-.975.978.955.955,0,0,1-1.057-.882,17.637,17.637,0,0,1,0-2.378.993.993,0,0,1,1.053-.9,1.021,1.021,0,0,1,.98.985c.03.364.005.732.006,1.1" transform="translate(-64.082 -181.646)" fill="#ff5600"/>
      <path id="Path_4948" data-name="Path 4948" d="M78.715,257.642c0,.366.027.735-.006,1.1a.976.976,0,0,1-.956.928.956.956,0,0,1-1.066-.87,17.547,17.547,0,0,1,.008-2.436.969.969,0,0,1,1.028-.852,1,1,0,0,1,.98.912c.039.4.008.813.008,1.22h0" transform="translate(-64.11 -213.714)" fill="#ff5600"/>
      <path id="Path_4949" data-name="Path 4949" d="M78.687,296.062c0,.366.027.735-.006,1.1a1.018,1.018,0,0,1-2.024.043,17.752,17.752,0,0,1,0-2.376.964.964,0,0,1,1.05-.891,1.008,1.008,0,0,1,.988.967,1.045,1.045,0,0,1,.009.122q0,.519,0,1.038h-.015" transform="translate(-64.083 -245.853)" fill="#ff5600"/>
    </g>
  </g>
</svg>
