<svg xmlns="http://www.w3.org/2000/svg" width="81" height="81" viewBox="0 0 81 81">
  <g id="Group_351" data-name="Group 351" transform="translate(-620 -4273)">
    <circle id="Ellipse_5" data-name="Ellipse 5" cx="40.5" cy="40.5" r="40.5" transform="translate(620 4273)" fill="#f50"/>
    <g id="Group_211" data-name="Group 211" transform="translate(636 4286)">
      <path id="Path_4962" data-name="Path 4962" d="M1549.724,54.67a1.533,1.533,0,0,1-.848-1.146c-.41-1.619-.847-3.23-1.275-4.844-.031-.117-.074-.231-.127-.394l-4.427,1.192c-.36.1-.721.193-1.08.291a1.073,1.073,0,0,1-1.219-1.623c.687-1.184,1.368-2.371,2.052-3.556l5.652-9.79c.088-.152.17-.307.314-.568a6.206,6.206,0,0,0-1.18-.591,4.343,4.343,0,0,1-2.9-6.022,2.055,2.055,0,0,0-.6-2.6,4.26,4.26,0,0,1,0-6.629,2.148,2.148,0,0,0,.594-2.654,4.255,4.255,0,0,1,2.851-5.935,2.248,2.248,0,0,0,1.738-2.382,4.18,4.18,0,0,1,3.249-3.829,5.977,5.977,0,0,1,1.848-.046,2.221,2.221,0,0,0,2.552-1.277,4.218,4.218,0,0,1,3.95-2.258,4.064,4.064,0,0,1,2.289.776,2.215,2.215,0,0,0,3.021,0,4.254,4.254,0,0,1,6.184,1.384,2.223,2.223,0,0,0,2.709,1.347,4.241,4.241,0,0,1,5,4,2.227,2.227,0,0,0,1.885,2.314,4.279,4.279,0,0,1,2.763,5.75,2.192,2.192,0,0,0,.646,2.908,4.265,4.265,0,0,1-.037,6.452,2.164,2.164,0,0,0-.629,2.82,4.279,4.279,0,0,1-2.791,5.819,11.286,11.286,0,0,0-1.343.63c.17.305.27.491.376.674q3.76,6.511,7.516,13.023a2.172,2.172,0,0,1,.313.781,1.045,1.045,0,0,1-1.394,1.067c-1.651-.427-3.293-.885-4.939-1.329-.171-.046-.343-.087-.562-.143-.067.2-.145.393-.2.592-.409,1.545-.824,3.089-1.213,4.64a1.533,1.533,0,0,1-.848,1.147h-.641a7.033,7.033,0,0,1-.8-.954q-3.178-5.456-6.323-10.931c-.093-.16-.2-.315-.293-.473-1.967,1.344-3.723,1.438-5.375.308a2.206,2.206,0,0,0-3.022,0,4.312,4.312,0,0,1-2.928.751,4.55,4.55,0,0,1-2.45-1.078c-.13.218-.242.4-.348.583q-3.13,5.422-6.267,10.84a7.008,7.008,0,0,1-.8.953Zm26.057-16.907a2.02,2.02,0,0,0,2.162-2,4.351,4.351,0,0,1,3.4-4.25,2.127,2.127,0,0,0,1.358-3.02,4.225,4.225,0,0,1,1.146-5.079,2.148,2.148,0,0,0,0-3.427,4.215,4.215,0,0,1-1.144-5.079,2.15,2.15,0,0,0-1.464-3.057,4.135,4.135,0,0,1-3.247-4,2.3,2.3,0,0,0-2.8-2.211,4.114,4.114,0,0,1-4.586-2.249,2.147,2.147,0,0,0-3.339-.753,4.248,4.248,0,0,1-5.209-.015,2.142,2.142,0,0,0-3.3.744,4.261,4.261,0,0,1-4.683,2.289,2.137,2.137,0,0,0-2.688,2.114,4.243,4.243,0,0,1-3.349,4.1,2.144,2.144,0,0,0-1.417,2.961,4.249,4.249,0,0,1-1.212,5.245,2.139,2.139,0,0,0-.006,3.248,4.255,4.255,0,0,1,1.222,5.244,2.13,2.13,0,0,0,1.4,2.959,4.269,4.269,0,0,1,3.361,4.156,2.151,2.151,0,0,0,2.729,2.07,4.26,4.26,0,0,1,4.559,2.143,2.172,2.172,0,0,0,3.509.8,4.113,4.113,0,0,1,4.936,0,2.3,2.3,0,0,0,3.577-.816,3.718,3.718,0,0,1,2.861-2.1,14.473,14.473,0,0,1,2.222-.02m-31.852,9.143.085.1q1.535-.419,3.071-.837c1.792-.492,1.961-.393,2.436,1.411.274,1.041.556,2.079.865,3.236l6-10.4a2.189,2.189,0,0,0-2.1-.538,4.274,4.274,0,0,1-4.51-2.142c-.08-.144-.163-.287-.278-.489l-5.574,9.656m35.908-9.663c-1.235,2.223-2.551,2.882-5.053,2.594a2.026,2.026,0,0,0-1.826.587l5.985,10.365c.072-.224.119-.354.155-.488.308-1.149.608-2.3.924-3.447a1.077,1.077,0,0,1,1.523-.87c.927.245,1.85.5,2.776.751.345.092.7.17,1.161.283l-5.645-9.776" transform="translate(-1540.556 -0.001)" fill="#fff"/>
      <path id="Path_4963" data-name="Path 4963" d="M1634.81,62.264a15.139,15.139,0,0,1-9.557,13.891,2.543,2.543,0,0,1-.612.174,1.009,1.009,0,0,1-1.106-.724,1.022,1.022,0,0,1,.48-1.234,4.416,4.416,0,0,1,.538-.23,12.817,12.817,0,1,0-9.346.045c.05.02.1.043.146.064a1.07,1.07,0,1,1-.783,1.979,14.537,14.537,0,0,1-5.632-3.749,14.94,14.94,0,1,1,25.612-12.653c.123.807.175,1.624.26,2.437" transform="translate(-1595.692 -40.529)" fill="#fff"/>
      <path id="Path_4964" data-name="Path 4964" d="M1653.81,98.587l-4.142,2.989c-.685.494-1.091.553-1.552.229s-.543-.769-.281-1.589c.471-1.472.933-2.947,1.427-4.411a.523.523,0,0,0-.231-.705c-1.243-.892-2.467-1.809-3.706-2.706-.494-.358-.957-.723-.756-1.433.16-.566.579-.782,1.463-.782,1.495,0,2.99-.014,4.484.009.413.006.617-.085.749-.521.458-1.513.972-3.008,1.469-4.509.21-.633.564-.933,1.091-.913a1.1,1.1,0,0,1,1.055.895c.5,1.538,1.011,3.07,1.5,4.611a.52.52,0,0,0,.595.436c1.583-.021,3.167-.011,4.751-.009.741,0,1.147.241,1.316.766.158.491-.027.906-.616,1.34-1.274.94-2.543,1.886-3.832,2.8a.552.552,0,0,0-.229.751c.5,1.5.972,3.008,1.452,4.515.219.688.121,1.133-.308,1.442s-.861.279-1.464-.154c-1.4-1.007-2.8-2.019-4.235-3.057m-4.8-6.273c.023.089.02.136.041.151q.92.683,1.845,1.361c.88.648.955.891.618,1.939-.24.747-.476,1.5-.763,2.4l2.125-1.533c.78-.563,1.091-.564,1.861-.008l2,1.439a22.748,22.748,0,0,0-.679-2.441,1.2,1.2,0,0,1,.536-1.691c.6-.443,1.2-.882,1.8-1.327a2.575,2.575,0,0,0,.27-.286c-.944,0-1.8,0-2.65,0-.825,0-1.09-.2-1.354-.993l-.795-2.4a20.459,20.459,0,0,0-.907,2.39c-.271.817-.527,1-1.4,1-.844,0-1.689,0-2.549,0" transform="translate(-1629.689 -72.228)" fill="#fff"/>
      <path id="Path_4965" data-name="Path 4965" d="M1703.2,244.077a1.051,1.051,0,0,1-1.036-1.067,1.064,1.064,0,1,1,2.127.054,1.051,1.051,0,0,1-1.091,1.012" transform="translate(-1679.108 -207.442)" fill="#fff"/>
    </g>
  </g>
</svg>
