<svg xmlns="http://www.w3.org/2000/svg" width="70.086" height="70.1" viewBox="0 0 70.086 70.1">
  <g id="Group_278" data-name="Group 278" transform="translate(5220.462 -11839.021)">
    <path id="Path_4773" data-name="Path 4773" d="M0,32.886c.171-1.261.3-2.53.52-3.782A34.949,34.949,0,0,1,26.281,1.141,33.775,33.775,0,0,1,39.1.28c.942.115,1.492.717,1.4,1.508a1.422,1.422,0,0,1-1.754,1.2A32.288,32.288,0,0,0,13.235,58.872a31.366,31.366,0,0,0,17.887,8.253A32.178,32.178,0,0,0,66.3,43.158c2.469-9.559.744-18.484-4.821-26.652-.1-.151-.212-.3-.325-.44-.024-.03-.075-.039-.219-.109,0,.465.015.884,0,1.3A1.361,1.361,0,0,1,59.6,18.636a1.332,1.332,0,0,1-1.375-1.259q-.067-2.7,0-5.406a1.287,1.287,0,0,1,1.365-1.258c1.734-.019,3.468-.022,5.2,0a1.31,1.31,0,0,1,1.335,1.355,1.345,1.345,0,0,1-1.337,1.363c-.341.023-.684.007-1.026.007h-1.13c.352.482.634.856.9,1.238a34.616,34.616,0,0,1,6.38,23.847A35.035,35.035,0,0,1,42.16,69.4c-1.427.286-2.887.4-4.331.6-.2.028-.4.079-.594.119H32.854c-.152-.037-.3-.087-.458-.11-1.6-.234-3.214-.388-4.8-.7A35.049,35.049,0,0,1,.548,41.252C.333,39.929.181,38.6,0,37.267V32.886" transform="translate(-5220.462 11839)" fill="#ff5700"/>
    <path id="Path_4774" data-name="Path 4774" d="M74.8,51.5A23.709,23.709,0,0,0,63,54.773c-.256.149-.5.321-.768.446a1.348,1.348,0,0,1-1.78-.534,1.311,1.311,0,0,1,.485-1.844,36.786,36.786,0,0,1,3.821-1.97A26.116,26.116,0,1,1,49.13,79.713a25.7,25.7,0,0,1,3.446-18.457,1.4,1.4,0,0,1,2-.68,1.384,1.384,0,0,1,.338,2.087A23.386,23.386,0,1,0,77.795,51.727c-.993-.127-2-.155-3-.23" transform="translate(-5260.234 11799.107)" fill="#ff5700"/>
    <path id="Path_4775" data-name="Path 4775" d="M145.83,129.292a8.934,8.934,0,0,1,.358-1.444.735.735,0,0,0-.22-.941c-1.385-1.357-2.75-2.733-4.12-4.106a1.346,1.346,0,0,1-.327-1.68,1.211,1.211,0,0,1,1.418-.7,2.221,2.221,0,0,1,.968.584q2.011,1.956,3.969,3.966a.771.771,0,0,0,1,.217,4.178,4.178,0,0,1,3.267-.024.912.912,0,0,0,1.167-.279q4.188-4.231,8.411-8.427c.921-.921,1.716-1.046,2.355-.373.621.653.487,1.409-.414,2.31-2.79,2.79-5.574,5.588-8.382,8.359a1.041,1.041,0,0,0-.313,1.28,4.49,4.49,0,0,1-1.245,5,4.614,4.614,0,0,1-5.091.827,4.739,4.739,0,0,1-2.8-4.564m4.744-1.682a1.96,1.96,0,0,0-.083,3.918,1.96,1.96,0,1,0,.083-3.918" transform="translate(-5335.967 11744.511)" fill="#ff5700"/>
    <path id="Path_4776" data-name="Path 4776" d="M283.661,187c-.3,0-.591.013-.885,0a1.336,1.336,0,0,1-1.33-1.285,1.31,1.31,0,0,1,1.131-1.4,10.418,10.418,0,0,1,2.172.011,1.277,1.277,0,0,1,1.086,1.423,1.318,1.318,0,0,1-1.29,1.247c-.294.019-.59,0-.885,0" transform="translate(-5450.437 11688.448)" fill="#ff5700"/>
    <path id="Path_4777" data-name="Path 4777" d="M184.072,283.69c0-.272-.012-.546,0-.817a1.34,1.34,0,0,1,1.271-1.343,1.321,1.321,0,0,1,1.423,1.183,10.635,10.635,0,0,1,0,2.039,1.3,1.3,0,0,1-1.429,1.168,1.325,1.325,0,0,1-1.264-1.344c-.015-.294,0-.59,0-.885" transform="translate(-5370.867 11608.976)" fill="#ff5700"/>
    <path id="Path_4778" data-name="Path 4778" d="M186.888,80.072c0,.3.017.592,0,.885a1.351,1.351,0,0,1-2.689.123,10.76,10.76,0,0,1-.005-2.039,1.306,1.306,0,0,1,1.417-1.183,1.321,1.321,0,0,1,1.28,1.328c.016.294,0,.59,0,.885h0" transform="translate(-5370.931 11775.398)" fill="#ff5700"/>
    <path id="Path_4779" data-name="Path 4779" d="M79.968,184.162c.3,0,.591-.014.885,0a1.353,1.353,0,0,1,.094,2.7,11.611,11.611,0,0,1-1.973,0,1.353,1.353,0,0,1,.108-2.7c.294-.017.59,0,.885,0" transform="translate(-5284.009 11688.538)" fill="#ff5700"/>
    <path id="Path_4780" data-name="Path 4780" d="M238.677,8.909a1.363,1.363,0,0,1-1.348,1.354,1.407,1.407,0,0,1-1.371-1.349,1.378,1.378,0,0,1,1.4-1.375,1.335,1.335,0,0,1,1.318,1.371" transform="translate(-5413.267 11832.857)" fill="#ff5700"/>
    <path id="Path_4781" data-name="Path 4781" d="M89.789,91.215a1.378,1.378,0,0,1-1.383-1.325,1.4,1.4,0,0,1,1.386-1.4,1.375,1.375,0,0,1,1.339,1.368,1.355,1.355,0,0,1-1.342,1.355" transform="translate(-5292.7 11766.709)" fill="#ff5700"/>
  </g>
</svg>
