<svg xmlns="http://www.w3.org/2000/svg" xmlns:xlink="http://www.w3.org/1999/xlink" width="1920" height="311" viewBox="0 0 1920 311">
  <defs>
    <clipPath id="clip-path">
      <rect id="Rectangle_337" data-name="Rectangle 337" width="1920" height="311" transform="translate(0 3673)" fill="#fff"/>
    </clipPath>
    <clipPath id="clip-path-2">
      <path id="Path_4976" data-name="Path 4976" d="M2413.942,313.439a11.975,11.975,0,1,1,11.977,12.043,12.023,12.023,0,0,1-11.977-12.043m-.783,0a12.758,12.758,0,1,0,12.76-12.824,12.807,12.807,0,0,0-12.76,12.824m2.037-31.819a33.012,33.012,0,0,1,4.123-1.119l.259-.052,1.3-6.953,4.526-.317,2.245,6.707.264.016a33.146,33.146,0,0,1,4.658.616l.26.053,3.88-5.9,4.3,1.477-.525,7.06.235.117a33.6,33.6,0,0,1,3.7,2.138l.221.147,5.806-3.995,3.427,2.994-3.13,6.335.174.2a33.664,33.664,0,0,1,2.865,3.75l.146.222,6.969-1.449,2,4.1-5.413,4.65.085.251a33.759,33.759,0,0,1,1.115,4.149l.052.258,6.912,1.3.316,4.555-6.667,2.252-.016.263a34.035,34.035,0,0,1-.615,4.686l-.053.258,5.875,3.907-1.473,4.319-7.024-.53-.117.239a33.148,33.148,0,0,1-2.124,3.719l-.144.219,3.974,5.84-2.977,3.445-6.3-3.147-.2.177a33.024,33.024,0,0,1-3.729,2.881l-.22.146,1.443,7.007-4.073,2.009-4.625-5.439-.252.086a33.564,33.564,0,0,1-4.126,1.119l-.258.052-1.295,6.951-4.526.317-2.243-6.7-.263-.016a33.123,33.123,0,0,1-4.656-.62l-.26-.054-3.887,5.907-4.29-1.476.523-7.058-.235-.117a34.342,34.342,0,0,1-3.7-2.14l-.22-.147-5.806,3.994-3.423-3,3.129-6.333-.174-.2a33.1,33.1,0,0,1-2.866-3.752l-.146-.223-6.971,1.453-2-4.1,5.412-4.649-.085-.25a33,33,0,0,1-1.113-4.15l-.051-.259-6.914-1.3-.316-4.556,6.668-2.256.016-.263a34.253,34.253,0,0,1,.615-4.684l.052-.258-5.874-3.907,1.469-4.319,7.022.529.117-.238a34.489,34.489,0,0,1,2.13-3.722l.144-.219-3.977-5.836,2.98-3.446,6.3,3.148.2-.177a32.976,32.976,0,0,1,3.732-2.878l.22-.146-1.443-7.012,4.073-2.005,4.624,5.439Zm5.019-8.863-1.31,7.03a33.827,33.827,0,0,0-3.709,1.007l-4.675-5.5-5.163,2.542,1.459,7.087a33.782,33.782,0,0,0-3.4,2.623l-6.368-3.183-3.772,4.361,4.021,5.9a35.43,35.43,0,0,0-1.917,3.35l-7.1-.535-1.858,5.463,5.939,3.95a34.965,34.965,0,0,0-.561,4.27l-6.742,2.281.4,5.762,6.99,1.316a33.734,33.734,0,0,0,1,3.738l-5.47,4.7,2.527,5.19,7.047-1.469a33.929,33.929,0,0,0,2.613,3.421l-3.164,6.4,4.334,3.792,5.872-4.04a35.107,35.107,0,0,0,3.329,1.924l-.529,7.137,5.435,1.87,3.93-5.971a33.932,33.932,0,0,0,4.241.564l2.269,6.781,5.735-.4,1.31-7.029a34.427,34.427,0,0,0,3.711-1.006l4.676,5.5,5.164-2.546-1.459-7.083a33.868,33.868,0,0,0,3.4-2.625l6.371,3.182,3.769-4.36-4.018-5.9a33.951,33.951,0,0,0,1.914-3.349l7.1.536,1.863-5.463-5.939-3.95a34.865,34.865,0,0,0,.561-4.273l6.742-2.278-.4-5.762-6.989-1.317a34.463,34.463,0,0,0-1-3.736l5.471-4.7-2.532-5.187-7.045,1.465a34.417,34.417,0,0,0-2.611-3.418l3.164-6.4-4.339-3.79-5.871,4.039a34.441,34.441,0,0,0-3.327-1.923l.531-7.138-5.442-1.871-3.924,5.97a33.963,33.963,0,0,0-4.243-.561l-2.27-6.782Z" transform="translate(-2385.057 -272.356)" fill="#ff5600"/>
    </clipPath>
    <clipPath id="clip-path-3">
      <path id="Path_4977" data-name="Path 4977" d="M2232.986,794.57a43.484,43.484,0,0,0,9.742-21.64h21.428a64.536,64.536,0,0,1-16.089,36.8Zm9.063-22.423-.047.337a42.707,42.707,0,0,1-9.844,21.853l-.234.275,16.173,16.262.277-.308a65.333,65.333,0,0,0,16.6-37.991l.039-.427Z" transform="translate(-2231.923 -772.147)" fill="#ff5600"/>
    </clipPath>
    <clipPath id="clip-path-4">
      <path id="Path_4978" data-name="Path 4978" d="M2146.383,879.821a42.245,42.245,0,0,1-21.565,8.65l-.352.036v6.864h.783v-6.158a43.03,43.03,0,0,0,21.339-8.562l14.64,14.72h1.1l-15.676-15.762Z" transform="translate(-2124.466 -879.609)" fill="#ff5600"/>
    </clipPath>
    <clipPath id="clip-path-5">
      <path id="Path_4979" data-name="Path 4979" d="M1845.224,385.723a4.708,4.708,0,0,0-1.549,3.491v2.325a6.428,6.428,0,1,1-12.855,0v-1.88a4.7,4.7,0,0,0-1.622-3.557,4.638,4.638,0,0,0-3.7-1.089c-1.287.182-2.563.391-3.793.62a4.663,4.663,0,0,0-3.122,2.14,4.716,4.716,0,0,0-.512,3.791l.6,2.054a6.638,6.638,0,0,1-3.261,7.8,6.434,6.434,0,0,1-9.019-3.974l-.531-1.818a4.66,4.66,0,0,0-6.415-2.95c-1.131.52-2.3,1.085-3.467,1.679a4.706,4.706,0,0,0-1.814,6.72l1.26,1.971a6.488,6.488,0,0,1-1.933,8.933,6.426,6.426,0,0,1-8.881-1.941l-1.006-1.575a4.651,4.651,0,0,0-6.982-1.016c-.957.835-1.915,1.705-2.849,2.587a4.707,4.707,0,0,0,.14,6.961l1.745,1.521a6.5,6.5,0,0,1,.649,9.12,6.422,6.422,0,0,1-9.068.651l-1.412-1.23a4.654,4.654,0,0,0-6.98,1c-.678,1.058-1.356,2.165-2.015,3.29a4.709,4.709,0,0,0,2.085,6.649l2.108.968a6.485,6.485,0,0,1,3.178,8.565,6.433,6.433,0,0,1-8.515,3.195l-1.714-.786a4.661,4.661,0,0,0-6.418,2.939c-.358,1.224-.7,2.48-1.006,3.731a4.72,4.72,0,0,0,.662,3.768,4.669,4.669,0,0,0,3.2,2.016l2.3.333a6.469,6.469,0,0,1,2.933,11.57,6.356,6.356,0,0,1-4.759,1.23l-1.852-.267a4.661,4.661,0,0,0-5.329,4.6v.05c0,1.286.026,2.59.079,3.874a4.667,4.667,0,0,0,5.326,4.426l2.287-.331a6.454,6.454,0,0,1,7.276,5.479,6.465,6.465,0,0,1-5.447,7.319l-1.866.27a4.691,4.691,0,0,0-3.819,5.953c.357,1.234.745,2.476,1.152,3.692a4.665,4.665,0,0,0,6.366,2.77l2.123-.976a6.429,6.429,0,0,1,8.514,3.194,6.49,6.49,0,0,1-3.177,8.569l-1.7.78a4.683,4.683,0,0,0-2.717,4.566h.785a3.9,3.9,0,0,1,2.259-3.855l1.7-.78a7.275,7.275,0,0,0,3.564-9.605,7.212,7.212,0,0,0-9.554-3.582l-2.123.976a3.882,3.882,0,0,1-5.3-2.307c-.4-1.206-.788-2.437-1.142-3.661a3.908,3.908,0,0,1,3.179-4.96l1.866-.271a7.251,7.251,0,0,0,3.277-12.978,7.133,7.133,0,0,0-5.331-1.369l-2.286.332a3.885,3.885,0,0,1-4.432-3.683c-.052-1.274-.078-2.567-.078-3.842v-.05a3.878,3.878,0,0,1,4.433-3.827l1.853.267a7.131,7.131,0,0,0,5.342-1.379,7.251,7.251,0,0,0-3.291-12.97l-2.3-.333a3.883,3.883,0,0,1-2.665-1.677,3.936,3.936,0,0,1-.552-3.142c.307-1.241.643-2.486,1-3.7a3.878,3.878,0,0,1,5.34-2.447l1.714.786a7.216,7.216,0,0,0,9.555-3.583,7.268,7.268,0,0,0-3.564-9.6l-2.107-.968a3.926,3.926,0,0,1-1.737-5.542c.654-1.116,1.327-2.213,2-3.263a3.872,3.872,0,0,1,5.807-.829l1.412,1.23a7.205,7.205,0,0,0,10.176-.731,7.286,7.286,0,0,0-.727-10.221l-1.745-1.521a3.924,3.924,0,0,1-.116-5.8c.927-.875,1.877-1.738,2.826-2.566a3.868,3.868,0,0,1,5.807.847l1.007,1.576a7.209,7.209,0,0,0,9.965,2.177,7.272,7.272,0,0,0,2.168-10.013l-1.26-1.971a3.924,3.924,0,0,1,1.509-5.6c1.16-.589,2.317-1.15,3.438-1.665a3.855,3.855,0,0,1,3.213,0,3.9,3.9,0,0,1,2.123,2.461l.531,1.818a7.217,7.217,0,0,0,10.115,4.457,7.428,7.428,0,0,0,3.667-8.726l-.6-2.054a3.93,3.93,0,0,1,.427-3.162,3.881,3.881,0,0,1,2.6-1.781c1.22-.227,2.485-.434,3.762-.615a3.855,3.855,0,0,1,3.075.906,3.919,3.919,0,0,1,1.351,2.965v1.88a7.211,7.211,0,1,0,14.421,0v-2.325a3.925,3.925,0,0,1,1.29-2.91,3.885,3.885,0,0,1,2.992-.98c1.278.131,2.551.289,3.783.467a3.865,3.865,0,0,1,2.7,1.738,3.931,3.931,0,0,1,.469,3.232l-.528,1.807a7.262,7.262,0,0,0,4.608,8.9l.281.091a7.226,7.226,0,0,0,8.95-4.912l.655-2.246a3.881,3.881,0,0,1,5.2-2.517c1.152.474,2.33.988,3.5,1.526a3.887,3.887,0,0,1,2.1,2.441,3.928,3.928,0,0,1-.457,3.223l-1.018,1.593a7.281,7.281,0,0,0,2.166,10.016,7.215,7.215,0,0,0,9.968-2.181l1.244-1.951a3.874,3.874,0,0,1,5.7-.94c.965.774,1.95,1.6,2.927,2.45a3.923,3.923,0,0,1-.009,5.9l-4.638,4.044a4.3,4.3,0,0,0,2.619,7.539,7.205,7.205,0,0,0,10.056.6l1.75-1.523a3.87,3.87,0,0,1,5.723.706c.731,1.044,1.447,2.113,2.129,3.178a3.918,3.918,0,0,1-1.659,5.668l-1.7.784a7.242,7.242,0,1,0,6.169,13.1l1.944-.893a3.877,3.877,0,0,1,5.3,2.3c.4,1.2.789,2.434,1.145,3.663a3.906,3.906,0,0,1-3.178,4.958l-1.867.269a7.2,7.2,0,0,0-5.076,3.329,7.289,7.289,0,0,0-.751,6.1,7.379,7.379,0,0,0,8.073,4.893l2.092-.3h0a3.881,3.881,0,0,1,4.432,3.684c.051,1.247.078,2.539.078,3.838v.051a3.88,3.88,0,0,1-4.434,3.83l-1.658-.24a7.381,7.381,0,0,0-8.076,4.892,7.3,7.3,0,0,0,.755,6.1,7.2,7.2,0,0,0,5.075,3.328l2.3.331a3.9,3.9,0,0,1,2.665,1.681,3.943,3.943,0,0,1,.554,3.139c-.315,1.262-.652,2.507-1,3.7a3.88,3.88,0,0,1-5.34,2.447l-3.929-1.8a5.21,5.21,0,0,0-7.374,4.675,7.271,7.271,0,0,0,3.6,9.525l2.106.97a3.924,3.924,0,0,1,1.736,5.542c-.275.47-.56.944-.85,1.419h.916c.206-.342.411-.684.609-1.023a4.707,4.707,0,0,0-2.084-6.649l-2.107-.97a6.487,6.487,0,0,1-3.179-8.568l.035-.077v-.085a4.436,4.436,0,0,1,2.046-3.752,4.39,4.39,0,0,1,4.22-.3l3.928,1.8a4.663,4.663,0,0,0,6.418-2.939c.353-1.2.692-2.461,1.01-3.733a4.7,4.7,0,0,0-3.867-5.783l-2.3-.331a6.422,6.422,0,0,1-4.524-2.968,6.515,6.515,0,0,1-.673-5.447,6.59,6.59,0,0,1,7.218-4.355l1.658.24a4.662,4.662,0,0,0,5.328-4.6v-.051c0-1.31-.026-2.613-.078-3.87a4.663,4.663,0,0,0-5.327-4.426l-2.092.3a6.587,6.587,0,0,1-7.216-4.357,6.508,6.508,0,0,1,.669-5.446,6.42,6.42,0,0,1,4.524-2.969l1.866-.269a4.688,4.688,0,0,0,3.819-5.952c-.359-1.239-.747-2.482-1.155-3.694a4.66,4.66,0,0,0-6.365-2.767l-1.944.893a6.581,6.581,0,0,1-8.147-2.135,6.5,6.5,0,0,1,2.632-9.546l1.7-.784a4.7,4.7,0,0,0,1.992-6.8c-.687-1.073-1.409-2.151-2.146-3.2a4.653,4.653,0,0,0-6.879-.848l-1.75,1.523a6.421,6.421,0,0,1-9.065-.652l-.117-.136h-.179a3.516,3.516,0,0,1-2.284-6.169l4.638-4.044a4.7,4.7,0,0,0,.009-7.083c-.985-.859-1.978-1.691-2.951-2.471a4.657,4.657,0,0,0-6.846,1.129l-1.244,1.951a6.431,6.431,0,0,1-8.883,1.945,6.5,6.5,0,0,1-1.931-8.936l1.018-1.593a4.7,4.7,0,0,0-1.977-6.8c-1.181-.543-2.369-1.061-3.531-1.539a4.665,4.665,0,0,0-6.249,3.022l-.655,2.245a6.412,6.412,0,0,1-3.106,3.853,6.344,6.344,0,0,1-4.7.577l-.175-.051a6.476,6.476,0,0,1-4.358-8.023l.528-1.807a4.714,4.714,0,0,0-.562-3.875,4.646,4.646,0,0,0-3.244-2.09c-1.243-.18-2.526-.339-3.815-.471a4.655,4.655,0,0,0-3.6,1.178" transform="translate(-1743.702 -384.521)" fill="#ff5600"/>
    </clipPath>
    <clipPath id="clip-path-6">
      <path id="Path_4980" data-name="Path 4980" d="M1874.214,588l15.134,15.218a43.5,43.5,0,0,0-8.657,23.092h-21.3A64.484,64.484,0,0,1,1874.214,588m-.326-.832a65.285,65.285,0,0,0-15.3,39.517l-.017.408h22.855l.024-.366a42.726,42.726,0,0,1,8.73-23.305l.208-.271-16.221-16.311Z" transform="translate(-1858.568 -586.842)" fill="#ff5600"/>
    </clipPath>
    <clipPath id="clip-path-7">
      <path id="Path_4981" data-name="Path 4981" d="M1860.182,772.93h21.424a43.513,43.513,0,0,0,9.744,21.64l-15.079,15.163a64.522,64.522,0,0,1-16.089-36.8m-.859-.783.039.427a65.32,65.32,0,0,0,16.6,37.991l.276.308,16.172-16.262-.234-.274a42.734,42.734,0,0,1-9.846-21.853l-.047-.337Z" transform="translate(-1859.323 -772.147)" fill="#ff5600"/>
    </clipPath>
    <clipPath id="clip-path-8">
      <path id="Path_4982" data-name="Path 4982" d="M1948.486,895.371h1.1l14.641-14.72a43.023,43.023,0,0,0,21.339,8.562v6.158h.783v-6.864l-.351-.036a42.245,42.245,0,0,1-21.565-8.65l-.273-.212Z" transform="translate(-1948.486 -879.609)" fill="#ff5600"/>
    </clipPath>
    <clipPath id="clip-path-9">
      <path id="Path_4983" data-name="Path 4983" d="M1940.92,516a64.622,64.622,0,0,1,38.221-16.325v21.468A42.913,42.913,0,0,0,1956,531.16Zm38.586-17.135a65.4,65.4,0,0,0-39.417,16.83l-.3.276,16.172,16.259.276-.238a42.144,42.144,0,0,1,23.338-10.107l.351-.036V498.835Z" transform="translate(-1939.786 -498.835)" fill="#ff5600"/>
    </clipPath>
    <clipPath id="clip-path-10">
      <path id="Path_4984" data-name="Path 4984" d="M2125.249,521.142V499.674A64.623,64.623,0,0,1,2163.469,516l-15.08,15.161a42.925,42.925,0,0,0-23.14-10.018m-.783.705.352.036a42.16,42.16,0,0,1,23.337,10.107l.276.238,16.172-16.259-.3-.276a65.4,65.4,0,0,0-39.417-16.83l-.418-.029Z" transform="translate(-2124.466 -498.835)" fill="#ff5600"/>
    </clipPath>
    <clipPath id="clip-path-11">
      <path id="Path_4985" data-name="Path 4985" d="M2039.981,698.487a17.44,17.44,0,1,1,17.44,17.538,17.507,17.507,0,0,1-17.44-17.538m-.783,0a18.223,18.223,0,1,0,18.223-18.318,18.293,18.293,0,0,0-18.223,18.318" transform="translate(-2039.198 -680.169)" fill="#ff5600"/>
    </clipPath>
    <clipPath id="clip-path-12">
      <path id="Path_4986" data-name="Path 4986" d="M2238.6,603.222,2253.734,588a64.469,64.469,0,0,1,14.829,38.31h-21.307a43.494,43.494,0,0,0-8.656-23.092m-1.036-.068.208.271a42.724,42.724,0,0,1,8.729,23.305l.024.366h22.857l-.017-.408a65.272,65.272,0,0,0-15.3-39.517l-.276-.329Z" transform="translate(-2237.564 -586.843)" fill="#ff5600"/>
    </clipPath>
    <clipPath id="clip-path-13">
      <path id="Path_4987" data-name="Path 4987" d="M2807.923,779.8a14.819,14.819,0,1,1,14.822,14.9,14.878,14.878,0,0,1-14.822-14.9m-.783,0a15.6,15.6,0,1,0,15.6-15.683,15.664,15.664,0,0,0-15.6,15.683" transform="translate(-2807.14 -764.12)" fill="#ff5600"/>
    </clipPath>
    <clipPath id="clip-path-14">
      <path id="Path_4988" data-name="Path 4988" d="M2551.5,562.5l-2.186,11.734a57.12,57.12,0,0,0-6.524,1.769l-7.8-9.179-8.273,4.074,2.438,11.83a57.354,57.354,0,0,0-5.945,4.587L2512.571,582l-6.045,6.988,6.711,9.857a58.106,58.106,0,0,0-3.365,5.883l-11.854-.892-2.979,8.758,9.913,6.6a57.652,57.652,0,0,0-.978,7.462l-11.257,3.809.639,9.233,11.669,2.2a57.782,57.782,0,0,0,1.761,6.564l-9.131,7.847,4.052,8.315,11.767-2.449a57.434,57.434,0,0,0,4.561,5.976l-3.722,7.538h.874l3.783-7.661-.173-.2a56.611,56.611,0,0,1-4.814-6.308l-.146-.223-11.69,2.434-3.521-7.224,9.073-7.8-.084-.25a56.985,56.985,0,0,1-1.873-6.977l-.052-.259-11.593-2.184-.556-8.028,11.184-3.784.016-.263a56.867,56.867,0,0,1,1.031-7.875l.052-.258-9.849-6.553,2.59-7.614,11.776.886.117-.238a57.194,57.194,0,0,1,3.577-6.255l.144-.219-6.667-9.792,5.253-6.073,10.563,5.277.2-.176a56.535,56.535,0,0,1,6.276-4.842l.22-.146-2.422-11.754,7.183-3.537,7.754,9.12.252-.086a56.325,56.325,0,0,1,6.938-1.881l.259-.052,2.172-11.657,7.979-.56,3.763,11.247.264.016a56.081,56.081,0,0,1,7.831,1.037l.26.053,6.516-9.9,7.569,2.6-.881,11.841.236.117a56.329,56.329,0,0,1,6.219,3.594l.22.147,9.739-6.7,6.037,5.278-5.245,10.624.174.2a56.962,56.962,0,0,1,4.817,6.308l.146.222,11.686-2.433,3.523,7.222-9.073,7.8.084.25a56.309,56.309,0,0,1,1.87,6.973l.052.259,11.6,2.186.554,8.029-11.183,3.78-.016.263a57.357,57.357,0,0,1-1.031,7.879l-.052.258,9.849,6.551-.056.163h.827l.164-.481-9.913-6.594a58.108,58.108,0,0,0,.977-7.465l11.257-3.8-.637-9.235-11.673-2.2a57.1,57.1,0,0,0-1.759-6.56l9.131-7.851-4.054-8.313-11.762,2.449a57.692,57.692,0,0,0-4.563-5.976l5.279-10.693-6.948-6.074-9.8,6.744a57.174,57.174,0,0,0-5.849-3.38l.886-11.918-8.714-3-6.559,9.968a56.822,56.822,0,0,0-7.417-.982l-3.788-11.321Z" transform="translate(-2492.718 -561.854)" fill="#ff5600"/>
    </clipPath>
    <clipPath id="clip-path-15">
      <path id="Path_4989" data-name="Path 4989" d="M2694.649,665.909a14.819,14.819,0,1,1,14.822,14.9,14.881,14.881,0,0,1-14.822-14.9m-.783,0a15.6,15.6,0,1,0,15.6-15.687,15.662,15.662,0,0,0-15.6,15.687" transform="translate(-2693.866 -650.222)" fill="#ff5600"/>
    </clipPath>
    <clipPath id="clip-path-16">
      <path id="Path_4990" data-name="Path 4990" d="M2735.936,810.479a4.044,4.044,0,1,1,4.044,4.067,4.061,4.061,0,0,1-4.044-4.067m-.783,0a4.827,4.827,0,1,0,4.827-4.852,4.844,4.844,0,0,0-4.827,4.852" transform="translate(-2735.153 -805.628)" fill="#ff5600"/>
    </clipPath>
    <clipPath id="clip-path-17">
      <path id="Path_4991" data-name="Path 4991" d="M2694.649,893.7a14.819,14.819,0,1,1,14.822,14.9,14.88,14.88,0,0,1-14.822-14.9m-.783,0a15.669,15.669,0,0,0,14.358,15.628h2.493a15.68,15.68,0,1,0-16.851-15.628" transform="translate(-2693.866 -878.012)" fill="#ff5600"/>
    </clipPath>
    <clipPath id="clip-path-18">
      <path id="Path_4992" data-name="Path 4992" d="M2581.379,779.8a14.819,14.819,0,1,1,14.821,14.9,14.877,14.877,0,0,1-14.821-14.9m-.783,0a15.6,15.6,0,1,0,15.6-15.683,15.664,15.664,0,0,0-15.6,15.683" transform="translate(-2580.596 -764.12)" fill="#ff5600"/>
    </clipPath>
  </defs>
  <g id="Mask_Group_6" data-name="Mask Group 6" transform="translate(0 -3673)" clip-path="url(#clip-path)">
    <rect id="Rectangle_284" data-name="Rectangle 284" width="1920" height="311" transform="translate(0 3673)" fill="#fff"/>
    <g id="Group_340" data-name="Group 340" transform="matrix(0.995, -0.105, 0.105, 0.995, 815.122, 3664.058)">
      <g id="Group_307" data-name="Group 307" transform="translate(944.686 272.356)">
        <g id="Group_306" data-name="Group 306" transform="translate(0)" clip-path="url(#clip-path-2)">
          <rect id="Rectangle_285" data-name="Rectangle 285" width="155.812" height="155.812" transform="translate(0.768 -71.083)" fill="#ff5600"/>
          <rect id="Rectangle_286" data-name="Rectangle 286" width="155.812" height="155.812" transform="translate(-155.044 -71.083)" fill="#ff5600"/>
          <rect id="Rectangle_287" data-name="Rectangle 287" width="155.812" height="155.812" transform="translate(0.768 -71.083)" fill="#ff5600"/>
          <rect id="Rectangle_288" data-name="Rectangle 288" width="155.812" height="155.812" transform="translate(0.768 -71.083)" fill="#ff5600"/>
          <rect id="Rectangle_289" data-name="Rectangle 289" width="155.812" height="155.812" transform="translate(0.768 -71.083)" fill="#ff5600"/>
        </g>
      </g>
      <g id="Group_309" data-name="Group 309" transform="translate(904.719 402.797)">
        <g id="Group_308" data-name="Group 308" transform="translate(0)" clip-path="url(#clip-path-3)">
          <rect id="Rectangle_290" data-name="Rectangle 290" width="155.812" height="155.812" transform="translate(-115.077 -45.712)" fill="#ff5600"/>
          <rect id="Rectangle_291" data-name="Rectangle 291" width="155.812" height="155.812" transform="translate(-115.077 -45.712)" fill="#ff5600"/>
        </g>
      </g>
      <g id="Group_311" data-name="Group 311" transform="translate(876.674 430.844)">
        <g id="Group_310" data-name="Group 310" clip-path="url(#clip-path-4)">
          <rect id="Rectangle_292" data-name="Rectangle 292" width="155.812" height="155.812" transform="translate(-87.032 -73.758)" fill="#ff5600"/>
        </g>
      </g>
      <g id="Group_313" data-name="Group 313" transform="translate(777.298 301.63)">
        <g id="Group_312" data-name="Group 312" transform="translate(0 0)" clip-path="url(#clip-path-5)">
          <rect id="Rectangle_293" data-name="Rectangle 293" width="155.812" height="155.812" transform="translate(168.156 -100.357)" fill="#ff5600"/>
          <rect id="Rectangle_294" data-name="Rectangle 294" width="155.812" height="155.812" transform="translate(168.156 55.455)" fill="#ff5600"/>
          <rect id="Rectangle_295" data-name="Rectangle 295" width="155.812" height="155.812" transform="translate(12.344 -100.357)" fill="#ff5600"/>
          <rect id="Rectangle_296" data-name="Rectangle 296" width="155.812" height="155.812" transform="translate(12.344 55.455)" fill="#ff5600"/>
          <rect id="Rectangle_297" data-name="Rectangle 297" width="155.812" height="155.812" transform="translate(-143.467 -100.357)" fill="#ff5600"/>
          <rect id="Rectangle_298" data-name="Rectangle 298" width="155.812" height="155.812" transform="translate(-143.467 55.455)" fill="#ff5600"/>
        </g>
      </g>
      <g id="Group_315" data-name="Group 315" transform="translate(807.277 354.434)">
        <g id="Group_314" data-name="Group 314" clip-path="url(#clip-path-6)">
          <rect id="Rectangle_299" data-name="Rectangle 299" width="155.812" height="155.812" transform="translate(-17.635 -153.161)" fill="#ff5600"/>
          <rect id="Rectangle_300" data-name="Rectangle 300" width="155.812" height="155.812" transform="translate(-17.635 2.651)" fill="#ff5600"/>
          <rect id="Rectangle_301" data-name="Rectangle 301" width="155.812" height="155.812" transform="translate(-17.635 -153.161)" fill="#ff5600"/>
          <rect id="Rectangle_302" data-name="Rectangle 302" width="155.812" height="155.812" transform="translate(-17.635 2.651)" fill="#ff5600"/>
        </g>
      </g>
      <g id="Group_317" data-name="Group 317" transform="translate(807.474 402.797)">
        <g id="Group_316" data-name="Group 316" clip-path="url(#clip-path-7)">
          <rect id="Rectangle_303" data-name="Rectangle 303" width="155.812" height="155.812" transform="translate(-17.832 -45.712)" fill="#ff5600"/>
          <rect id="Rectangle_304" data-name="Rectangle 304" width="155.812" height="155.812" transform="translate(-17.832 -45.712)" fill="#ff5600"/>
        </g>
      </g>
      <g id="Group_319" data-name="Group 319" transform="translate(830.745 430.844)">
        <g id="Group_318" data-name="Group 318" transform="translate(0)" clip-path="url(#clip-path-8)">
          <rect id="Rectangle_305" data-name="Rectangle 305" width="155.812" height="155.812" transform="translate(-41.102 -73.758)" fill="#ff5600"/>
        </g>
      </g>
      <g id="Group_321" data-name="Group 321" transform="translate(828.474 331.465)">
        <g id="Group_320" data-name="Group 320" clip-path="url(#clip-path-9)">
          <rect id="Rectangle_306" data-name="Rectangle 306" width="155.812" height="155.812" transform="translate(-38.832 -130.192)" fill="#ff5600"/>
          <rect id="Rectangle_307" data-name="Rectangle 307" width="155.812" height="155.812" transform="translate(-38.832 25.62)" fill="#ff5600"/>
          <rect id="Rectangle_308" data-name="Rectangle 308" width="155.812" height="155.812" transform="translate(-38.832 -130.192)" fill="#ff5600"/>
          <rect id="Rectangle_309" data-name="Rectangle 309" width="155.812" height="155.812" transform="translate(-38.832 25.62)" fill="#ff5600"/>
        </g>
      </g>
      <g id="Group_323" data-name="Group 323" transform="translate(876.674 331.465)">
        <g id="Group_322" data-name="Group 322" clip-path="url(#clip-path-10)">
          <rect id="Rectangle_310" data-name="Rectangle 310" width="155.812" height="155.812" transform="translate(-87.032 -130.192)" fill="#ff5600"/>
          <rect id="Rectangle_311" data-name="Rectangle 311" width="155.812" height="155.812" transform="translate(-87.032 25.62)" fill="#ff5600"/>
          <rect id="Rectangle_312" data-name="Rectangle 312" width="155.812" height="155.812" transform="translate(-87.032 -130.192)" fill="#ff5600"/>
          <rect id="Rectangle_313" data-name="Rectangle 313" width="155.812" height="155.812" transform="translate(-87.032 25.62)" fill="#ff5600"/>
        </g>
      </g>
      <g id="Group_325" data-name="Group 325" transform="translate(854.42 378.792)">
        <g id="Group_324" data-name="Group 324" transform="translate(0)" clip-path="url(#clip-path-11)">
          <rect id="Rectangle_314" data-name="Rectangle 314" width="155.812" height="155.812" transform="translate(-64.778 -21.706)" fill="#ff5600"/>
          <rect id="Rectangle_315" data-name="Rectangle 315" width="155.812" height="155.812" transform="translate(-64.778 -21.706)" fill="#ff5600"/>
        </g>
      </g>
      <g id="Group_327" data-name="Group 327" transform="translate(906.191 354.434)">
        <g id="Group_326" data-name="Group 326" transform="translate(0 0)" clip-path="url(#clip-path-12)">
          <rect id="Rectangle_316" data-name="Rectangle 316" width="155.812" height="155.812" transform="translate(-116.549 -153.161)" fill="#ff5600"/>
          <rect id="Rectangle_317" data-name="Rectangle 317" width="155.812" height="155.812" transform="translate(-116.549 2.651)" fill="#ff5600"/>
          <rect id="Rectangle_318" data-name="Rectangle 318" width="155.812" height="155.812" transform="translate(-116.549 -153.161)" fill="#ff5600"/>
          <rect id="Rectangle_319" data-name="Rectangle 319" width="155.812" height="155.812" transform="translate(-116.549 2.651)" fill="#ff5600"/>
        </g>
      </g>
      <g id="Group_329" data-name="Group 329" transform="translate(1054.846 400.702)">
        <g id="Group_328" data-name="Group 328" transform="translate(0)" clip-path="url(#clip-path-13)">
          <rect id="Rectangle_320" data-name="Rectangle 320" width="155.812" height="155.812" transform="translate(-109.392 -43.617)" fill="#ff5600"/>
          <rect id="Rectangle_321" data-name="Rectangle 321" width="155.812" height="155.812" transform="translate(-109.392 -43.617)" fill="#ff5600"/>
        </g>
      </g>
      <g id="Group_331" data-name="Group 331" transform="translate(972.784 347.912)">
        <g id="Group_330" data-name="Group 330" transform="translate(0 0)" clip-path="url(#clip-path-14)">
          <rect id="Rectangle_322" data-name="Rectangle 322" width="155.812" height="155.812" transform="translate(128.481 -146.639)" fill="#ff5600"/>
          <rect id="Rectangle_323" data-name="Rectangle 323" width="155.812" height="155.812" transform="translate(128.481 9.173)" fill="#ff5600"/>
          <rect id="Rectangle_324" data-name="Rectangle 324" width="155.812" height="155.812" transform="translate(-27.33 -146.639)" fill="#ff5600"/>
          <rect id="Rectangle_325" data-name="Rectangle 325" width="155.812" height="155.812" transform="translate(-27.33 9.173)" fill="#ff5600"/>
        </g>
      </g>
      <g id="Group_333" data-name="Group 333" transform="translate(1025.282 370.976)">
        <g id="Group_332" data-name="Group 332" clip-path="url(#clip-path-15)">
          <rect id="Rectangle_326" data-name="Rectangle 326" width="155.812" height="155.812" transform="translate(-79.828 -13.89)" fill="#ff5600"/>
          <rect id="Rectangle_327" data-name="Rectangle 327" width="155.812" height="155.812" transform="translate(-79.828 -13.89)" fill="#ff5600"/>
        </g>
      </g>
      <g id="Group_335" data-name="Group 335" transform="translate(1036.058 411.535)">
        <g id="Group_334" data-name="Group 334" transform="translate(0)" clip-path="url(#clip-path-16)">
          <rect id="Rectangle_328" data-name="Rectangle 328" width="155.812" height="155.812" transform="translate(-90.604 -54.45)" fill="#ff5600"/>
          <rect id="Rectangle_329" data-name="Rectangle 329" width="155.812" height="155.812" transform="translate(-90.604 -54.45)" fill="#ff5600"/>
        </g>
      </g>
      <g id="Group_337" data-name="Group 337" transform="translate(1025.282 430.427)">
        <g id="Group_336" data-name="Group 336" clip-path="url(#clip-path-17)">
          <rect id="Rectangle_330" data-name="Rectangle 330" width="155.812" height="155.812" transform="translate(-79.828 -73.342)" fill="#ff5600"/>
          <rect id="Rectangle_331" data-name="Rectangle 331" width="155.812" height="155.812" transform="translate(-79.828 -73.342)" fill="#ff5600"/>
        </g>
      </g>
      <g id="Group_339" data-name="Group 339" transform="translate(995.72 400.702)">
        <g id="Group_338" data-name="Group 338" clip-path="url(#clip-path-18)">
          <rect id="Rectangle_332" data-name="Rectangle 332" width="155.812" height="155.812" transform="translate(-50.266 -43.617)" fill="#ff5600"/>
          <rect id="Rectangle_333" data-name="Rectangle 333" width="155.812" height="155.812" transform="translate(-50.266 -43.617)" fill="#ff5600"/>
        </g>
      </g>
      <path id="Path_4993" data-name="Path 4993" d="M2423,938.5v16.052l39.767-.077v-.783l-38.982.075V938.5Z" transform="translate(-1468.411 -492.286)" fill="#ff5600"/>
      <rect id="Rectangle_334" data-name="Rectangle 334" width="2.871" height="0.522" transform="translate(789.642 445.824)" fill="#ff5600"/>
      <path id="Path_4994" data-name="Path 4994" d="M1194,937.244v.522l155.812-.228v-.522Z" transform="translate(-560.17 -491.19)" fill="#ff5600"/>
      <path id="Path_4995" data-name="Path 4995" d="M597,938.119v.522l155.812-.228v-.522Z" transform="translate(-118.981 -491.836)" fill="#ff5600"/>
      <rect id="Rectangle_335" data-name="Rectangle 335" width="42.02" height="0.522" transform="matrix(1, -0.001, 0.001, 1, 435.999, 446.345)" fill="#ff5600"/>
      <rect id="Rectangle_336" data-name="Rectangle 336" width="132.585" height="0.522" transform="translate(1106.223 434.598) rotate(-0.224)" fill="#ff5600"/>
    </g>
    <g id="Group_341" data-name="Group 341" transform="translate(1090.887 3954.683) rotate(171)">
      <g id="Group_307-2" data-name="Group 307" transform="translate(944.686 272.356)">
        <g id="Group_306-2" data-name="Group 306" transform="translate(0)" clip-path="url(#clip-path-2)">
          <rect id="Rectangle_285-2" data-name="Rectangle 285" width="155.812" height="155.812" transform="translate(0.768 -71.083)" fill="#ff5600"/>
          <rect id="Rectangle_286-2" data-name="Rectangle 286" width="155.812" height="155.812" transform="translate(-155.044 -71.083)" fill="#ff5600"/>
          <rect id="Rectangle_287-2" data-name="Rectangle 287" width="155.812" height="155.812" transform="translate(0.768 -71.083)" fill="#ff5600"/>
          <rect id="Rectangle_288-2" data-name="Rectangle 288" width="155.812" height="155.812" transform="translate(0.768 -71.083)" fill="#ff5600"/>
          <rect id="Rectangle_289-2" data-name="Rectangle 289" width="155.812" height="155.812" transform="translate(0.768 -71.083)" fill="#ff5600"/>
        </g>
      </g>
      <g id="Group_309-2" data-name="Group 309" transform="translate(904.719 402.797)">
        <g id="Group_308-2" data-name="Group 308" transform="translate(0)" clip-path="url(#clip-path-3)">
          <rect id="Rectangle_290-2" data-name="Rectangle 290" width="155.812" height="155.812" transform="translate(-115.077 -45.712)" fill="#ff5600"/>
          <rect id="Rectangle_291-2" data-name="Rectangle 291" width="155.812" height="155.812" transform="translate(-115.077 -45.712)" fill="#ff5600"/>
        </g>
      </g>
      <g id="Group_311-2" data-name="Group 311" transform="translate(876.674 430.844)">
        <g id="Group_310-2" data-name="Group 310" clip-path="url(#clip-path-4)">
          <rect id="Rectangle_292-2" data-name="Rectangle 292" width="155.812" height="155.812" transform="translate(-87.032 -73.758)" fill="#ff5600"/>
        </g>
      </g>
      <g id="Group_313-2" data-name="Group 313" transform="translate(777.298 301.63)">
        <g id="Group_312-2" data-name="Group 312" transform="translate(0 0)" clip-path="url(#clip-path-5)">
          <rect id="Rectangle_293-2" data-name="Rectangle 293" width="155.812" height="155.812" transform="translate(168.156 -100.357)" fill="#ff5600"/>
          <rect id="Rectangle_294-2" data-name="Rectangle 294" width="155.812" height="155.812" transform="translate(168.156 55.455)" fill="#ff5600"/>
          <rect id="Rectangle_295-2" data-name="Rectangle 295" width="155.812" height="155.812" transform="translate(12.344 -100.357)" fill="#ff5600"/>
          <rect id="Rectangle_296-2" data-name="Rectangle 296" width="155.812" height="155.812" transform="translate(12.344 55.455)" fill="#ff5600"/>
          <rect id="Rectangle_297-2" data-name="Rectangle 297" width="155.812" height="155.812" transform="translate(-143.467 -100.357)" fill="#ff5600"/>
          <rect id="Rectangle_298-2" data-name="Rectangle 298" width="155.812" height="155.812" transform="translate(-143.467 55.455)" fill="#ff5600"/>
        </g>
      </g>
      <g id="Group_315-2" data-name="Group 315" transform="translate(807.277 354.434)">
        <g id="Group_314-2" data-name="Group 314" clip-path="url(#clip-path-6)">
          <rect id="Rectangle_299-2" data-name="Rectangle 299" width="155.812" height="155.812" transform="translate(-17.635 -153.161)" fill="#ff5600"/>
          <rect id="Rectangle_300-2" data-name="Rectangle 300" width="155.812" height="155.812" transform="translate(-17.635 2.651)" fill="#ff5600"/>
          <rect id="Rectangle_301-2" data-name="Rectangle 301" width="155.812" height="155.812" transform="translate(-17.635 -153.161)" fill="#ff5600"/>
          <rect id="Rectangle_302-2" data-name="Rectangle 302" width="155.812" height="155.812" transform="translate(-17.635 2.651)" fill="#ff5600"/>
        </g>
      </g>
      <g id="Group_317-2" data-name="Group 317" transform="translate(807.474 402.797)">
        <g id="Group_316-2" data-name="Group 316" clip-path="url(#clip-path-7)">
          <rect id="Rectangle_303-2" data-name="Rectangle 303" width="155.812" height="155.812" transform="translate(-17.832 -45.712)" fill="#ff5600"/>
          <rect id="Rectangle_304-2" data-name="Rectangle 304" width="155.812" height="155.812" transform="translate(-17.832 -45.712)" fill="#ff5600"/>
        </g>
      </g>
      <g id="Group_319-2" data-name="Group 319" transform="translate(830.745 430.844)">
        <g id="Group_318-2" data-name="Group 318" transform="translate(0)" clip-path="url(#clip-path-8)">
          <rect id="Rectangle_305-2" data-name="Rectangle 305" width="155.812" height="155.812" transform="translate(-41.102 -73.758)" fill="#ff5600"/>
        </g>
      </g>
      <g id="Group_321-2" data-name="Group 321" transform="translate(828.474 331.465)">
        <g id="Group_320-2" data-name="Group 320" clip-path="url(#clip-path-9)">
          <rect id="Rectangle_306-2" data-name="Rectangle 306" width="155.812" height="155.812" transform="translate(-38.832 -130.192)" fill="#ff5600"/>
          <rect id="Rectangle_307-2" data-name="Rectangle 307" width="155.812" height="155.812" transform="translate(-38.832 25.62)" fill="#ff5600"/>
          <rect id="Rectangle_308-2" data-name="Rectangle 308" width="155.812" height="155.812" transform="translate(-38.832 -130.192)" fill="#ff5600"/>
          <rect id="Rectangle_309-2" data-name="Rectangle 309" width="155.812" height="155.812" transform="translate(-38.832 25.62)" fill="#ff5600"/>
        </g>
      </g>
      <g id="Group_323-2" data-name="Group 323" transform="translate(876.674 331.465)">
        <g id="Group_322-2" data-name="Group 322" clip-path="url(#clip-path-10)">
          <rect id="Rectangle_310-2" data-name="Rectangle 310" width="155.812" height="155.812" transform="translate(-87.032 -130.192)" fill="#ff5600"/>
          <rect id="Rectangle_311-2" data-name="Rectangle 311" width="155.812" height="155.812" transform="translate(-87.032 25.62)" fill="#ff5600"/>
          <rect id="Rectangle_312-2" data-name="Rectangle 312" width="155.812" height="155.812" transform="translate(-87.032 -130.192)" fill="#ff5600"/>
          <rect id="Rectangle_313-2" data-name="Rectangle 313" width="155.812" height="155.812" transform="translate(-87.032 25.62)" fill="#ff5600"/>
        </g>
      </g>
      <g id="Group_325-2" data-name="Group 325" transform="translate(854.42 378.792)">
        <g id="Group_324-2" data-name="Group 324" transform="translate(0)" clip-path="url(#clip-path-11)">
          <rect id="Rectangle_314-2" data-name="Rectangle 314" width="155.812" height="155.812" transform="translate(-64.778 -21.706)" fill="#ff5600"/>
          <rect id="Rectangle_315-2" data-name="Rectangle 315" width="155.812" height="155.812" transform="translate(-64.778 -21.706)" fill="#ff5600"/>
        </g>
      </g>
      <g id="Group_327-2" data-name="Group 327" transform="translate(906.191 354.434)">
        <g id="Group_326-2" data-name="Group 326" transform="translate(0 0)" clip-path="url(#clip-path-12)">
          <rect id="Rectangle_316-2" data-name="Rectangle 316" width="155.812" height="155.812" transform="translate(-116.549 -153.161)" fill="#ff5600"/>
          <rect id="Rectangle_317-2" data-name="Rectangle 317" width="155.812" height="155.812" transform="translate(-116.549 2.651)" fill="#ff5600"/>
          <rect id="Rectangle_318-2" data-name="Rectangle 318" width="155.812" height="155.812" transform="translate(-116.549 -153.161)" fill="#ff5600"/>
          <rect id="Rectangle_319-2" data-name="Rectangle 319" width="155.812" height="155.812" transform="translate(-116.549 2.651)" fill="#ff5600"/>
        </g>
      </g>
      <g id="Group_329-2" data-name="Group 329" transform="translate(1054.846 400.702)">
        <g id="Group_328-2" data-name="Group 328" transform="translate(0)" clip-path="url(#clip-path-13)">
          <rect id="Rectangle_320-2" data-name="Rectangle 320" width="155.812" height="155.812" transform="translate(-109.392 -43.617)" fill="#ff5600"/>
          <rect id="Rectangle_321-2" data-name="Rectangle 321" width="155.812" height="155.812" transform="translate(-109.392 -43.617)" fill="#ff5600"/>
        </g>
      </g>
      <g id="Group_331-2" data-name="Group 331" transform="translate(972.784 347.912)">
        <g id="Group_330-2" data-name="Group 330" transform="translate(0 0)" clip-path="url(#clip-path-14)">
          <rect id="Rectangle_322-2" data-name="Rectangle 322" width="155.812" height="155.812" transform="translate(128.481 -146.639)" fill="#ff5600"/>
          <rect id="Rectangle_323-2" data-name="Rectangle 323" width="155.812" height="155.812" transform="translate(128.481 9.173)" fill="#ff5600"/>
          <rect id="Rectangle_324-2" data-name="Rectangle 324" width="155.812" height="155.812" transform="translate(-27.33 -146.639)" fill="#ff5600"/>
          <rect id="Rectangle_325-2" data-name="Rectangle 325" width="155.812" height="155.812" transform="translate(-27.33 9.173)" fill="#ff5600"/>
        </g>
      </g>
      <g id="Group_333-2" data-name="Group 333" transform="translate(1025.282 370.976)">
        <g id="Group_332-2" data-name="Group 332" clip-path="url(#clip-path-15)">
          <rect id="Rectangle_326-2" data-name="Rectangle 326" width="155.812" height="155.812" transform="translate(-79.828 -13.89)" fill="#ff5600"/>
          <rect id="Rectangle_327-2" data-name="Rectangle 327" width="155.812" height="155.812" transform="translate(-79.828 -13.89)" fill="#ff5600"/>
        </g>
      </g>
      <g id="Group_335-2" data-name="Group 335" transform="translate(1036.058 411.535)">
        <g id="Group_334-2" data-name="Group 334" transform="translate(0)" clip-path="url(#clip-path-16)">
          <rect id="Rectangle_328-2" data-name="Rectangle 328" width="155.812" height="155.812" transform="translate(-90.604 -54.45)" fill="#ff5600"/>
          <rect id="Rectangle_329-2" data-name="Rectangle 329" width="155.812" height="155.812" transform="translate(-90.604 -54.45)" fill="#ff5600"/>
        </g>
      </g>
      <g id="Group_337-2" data-name="Group 337" transform="translate(1025.282 430.427)">
        <g id="Group_336-2" data-name="Group 336" clip-path="url(#clip-path-17)">
          <rect id="Rectangle_330-2" data-name="Rectangle 330" width="155.812" height="155.812" transform="translate(-79.828 -73.342)" fill="#ff5600"/>
          <rect id="Rectangle_331-2" data-name="Rectangle 331" width="155.812" height="155.812" transform="translate(-79.828 -73.342)" fill="#ff5600"/>
        </g>
      </g>
      <g id="Group_339-2" data-name="Group 339" transform="translate(995.72 400.702)">
        <g id="Group_338-2" data-name="Group 338" clip-path="url(#clip-path-18)">
          <rect id="Rectangle_332-2" data-name="Rectangle 332" width="155.812" height="155.812" transform="translate(-50.266 -43.617)" fill="#ff5600"/>
          <rect id="Rectangle_333-2" data-name="Rectangle 333" width="155.812" height="155.812" transform="translate(-50.266 -43.617)" fill="#ff5600"/>
        </g>
      </g>
      <path id="Path_4993-2" data-name="Path 4993" d="M2423,938.5v16.052l39.767-.077v-.783l-38.982.075V938.5Z" transform="translate(-1468.411 -492.286)" fill="#ff5600"/>
      <rect id="Rectangle_334-2" data-name="Rectangle 334" width="2.871" height="0.522" transform="translate(789.642 445.824)" fill="#ff5600"/>
      <path id="Path_4994-2" data-name="Path 4994" d="M1194,937.244v.522l155.812-.228v-.522Z" transform="translate(-560.17 -491.19)" fill="#ff5600"/>
      <path id="Path_4995-2" data-name="Path 4995" d="M597,938.119v.522l155.812-.228v-.522Z" transform="translate(-118.981 -491.836)" fill="#ff5600"/>
      <rect id="Rectangle_335-2" data-name="Rectangle 335" width="42.02" height="0.522" transform="matrix(1, -0.001, 0.001, 1, 435.999, 446.345)" fill="#ff5600"/>
      <rect id="Rectangle_336-2" data-name="Rectangle 336" width="132.585" height="0.522" transform="translate(1106.223 434.598) rotate(-0.224)" fill="#ff5600"/>
    </g>
  </g>
</svg>
