<svg width="101" height="100" viewBox="0 0 101 100" fill="none" xmlns="http://www.w3.org/2000/svg">
<g clip-path="url(#clip0_307_69)">
<path d="M49.6948 0H51.2559C51.4244 0.084209 51.5986 0.156872 51.777 0.217486C58.7693 2.10237 65.7624 3.98456 72.7562 5.86408C73.373 5.99041 73.942 6.28748 74.3983 6.72145C74.8546 7.15543 75.1799 7.70886 75.3371 8.31871C75.4943 8.92856 75.4771 9.5703 75.2875 10.1709C75.0979 10.7714 74.7433 11.3066 74.2645 11.7155C74.0039 11.9782 73.8436 12.3238 73.8113 12.6925C73.7607 14.025 73.8009 15.3598 73.7871 16.6947C73.7647 17.0676 73.8298 17.4407 73.9777 17.7838C74.1255 18.127 74.3519 18.4307 74.6384 18.6705C74.8226 18.8067 74.9764 18.9796 75.0905 19.1783C75.2045 19.377 75.2762 19.5971 75.301 19.8248C75.3258 20.0526 75.3032 20.283 75.2346 20.5016C75.166 20.7202 75.0528 20.9222 74.9023 21.0949C74.7518 21.2675 74.5672 21.4072 74.3601 21.505C74.153 21.6028 73.9279 21.6567 73.6989 21.6632C73.47 21.6697 73.2422 21.6287 73.0299 21.5428C72.8176 21.4569 72.6253 21.3279 72.4652 21.1641C71.8048 20.6552 71.277 19.9943 70.9266 19.2376C70.5763 18.4809 70.4138 17.6508 70.4531 16.8178C70.4531 15.6199 70.4531 14.422 70.4531 13.1067C69.5235 13.3495 68.7275 13.6084 67.9061 13.7557C67.2503 13.8708 67.1008 14.1964 67.1008 14.8201C67.1307 17.8788 67.1376 20.9385 67.1008 23.9971C67.0905 24.7865 67.1894 25.3101 68.0534 25.6208C68.6418 25.8968 69.1664 26.2922 69.5938 26.7819C72.096 29.2502 74.5337 31.7841 77.0716 34.2098C78.214 35.2995 79.0814 36.4019 78.8156 38.0785C78.8076 38.1246 78.8788 38.1832 78.9617 38.3087H79.9718C83.193 38.3087 86.4142 38.3167 89.6355 38.3087C90.6995 38.2461 91.7569 38.5128 92.6642 39.0723C93.5714 39.6319 94.2845 40.4573 94.7065 41.4363C95.8293 43.7447 97.0442 46.0104 98.1152 48.3407C98.5109 49.1834 98.7272 50.0992 98.7503 51.0299C98.7909 63.2659 98.7974 75.5019 98.7698 87.7379C98.7638 88.3055 98.9711 88.8546 99.3508 89.2764C99.8785 89.9935 100.24 90.8189 100.41 91.6929C100.511 92.5332 100.524 93.3816 100.449 94.2245C100.449 97.122 99.2656 98.3096 96.3699 98.3107C89.5697 98.3107 82.7707 98.2992 75.9717 98.3372C75.4673 98.4349 74.9862 98.6282 74.5545 98.9068C73.7745 99.252 73.0082 99.6375 72.2202 99.9678C71.9972 100.015 71.7676 100.02 71.5426 99.985C57.4874 99.985 43.4326 99.9877 29.3782 99.9931C28.8437 100.056 28.302 99.9929 27.796 99.8098C27.29 99.6266 26.8335 99.3281 26.4629 98.9379C26.2839 98.7137 26.0515 98.538 25.787 98.427C25.5225 98.3161 25.2344 98.2733 24.949 98.3027C18.1822 98.3176 11.4142 98.2739 4.64854 98.3349C2.60538 98.3533 1.19716 97.656 0.5 95.6882V90.7988C0.74276 90.2785 1.06714 89.8003 1.4607 89.3823C1.73304 89.1597 1.94263 88.87 2.06892 88.5417C2.19521 88.2134 2.2338 87.8578 2.18085 87.5101C2.16934 75.281 2.17426 63.0519 2.19573 50.8228C2.21118 50.019 2.39666 49.2276 2.73991 48.5006C3.83972 46.1474 5.06263 43.8528 6.1912 41.5134C6.62048 40.503 7.35327 39.6511 8.28801 39.0757C9.22275 38.5003 10.3132 38.2298 11.4084 38.3018C14.6296 38.3282 17.8509 38.3087 21.0652 38.3087H22.2651C21.676 36.3352 22.8518 35.2017 23.8883 33.975C25.698 31.8428 27.5145 29.7174 29.2528 27.531C29.7461 26.7897 30.405 26.1734 31.1775 25.7309C31.95 25.2883 32.815 25.0316 33.7038 24.981C33.7567 24.8659 33.8073 24.8107 33.8073 24.7509C33.8176 21.3367 33.8395 17.9213 33.8004 14.5094C33.8004 14.2655 33.3932 13.8927 33.1102 13.8087C31.4927 13.3277 29.8556 12.918 28.2255 12.4807C27.4588 12.3332 26.7671 11.9236 26.2691 11.3221C25.7711 10.7206 25.4978 9.96461 25.4959 9.18364C25.494 8.40267 25.7637 7.64534 26.2587 7.04141C26.7537 6.43747 27.4433 6.02451 28.2093 5.87328C32.8801 4.62245 37.5554 3.38772 42.2239 2.12078C44.7215 1.443 47.2064 0.713447 49.7017 0.00805505M68.7609 51.7238H32.2048V88.2304H42.1364V87.0129C42.1364 80.9947 42.1364 74.9764 42.1364 68.9581C42.1364 67.1688 42.6737 66.6371 44.4764 66.636C48.4439 66.636 52.4113 66.636 56.3787 66.636C58.316 66.636 58.8234 67.1365 58.8234 69.0525C58.8234 75.0708 58.8234 81.089 58.8234 87.1073V88.2166H68.7574L68.7609 51.7238ZM72.2029 88.25H95.3783V51.7169H72.1949L72.2029 88.25ZM5.58383 88.25H28.7626V51.7192H5.58383V88.25ZM27.458 34.914H72.9529C70.858 32.8002 68.8724 30.7553 66.827 28.7715C66.4431 28.4783 65.9693 28.3275 65.4867 28.3446C54.9855 28.3216 44.484 28.3235 33.9821 28.3503C33.4375 28.3479 32.9119 28.5504 32.5097 28.9176C30.8139 30.8324 29.2045 32.8232 27.4593 34.914M71.6979 9.28862V9.06999C71.5829 9.02856 71.4598 8.98023 71.3378 8.94686C64.5349 7.11721 57.7305 5.29217 50.9246 3.47173C50.5819 3.39721 50.2259 3.40948 49.8892 3.5074C44.7115 4.87829 39.5345 6.25916 34.3583 7.65C32.6419 8.11028 30.9289 8.59014 28.9904 9.12292C29.3551 9.26561 29.4679 9.32315 29.5875 9.35306C36.2336 11.1436 42.8761 12.9445 49.5313 14.6982C50.1777 14.857 50.8534 14.8547 51.4987 14.6913C55.7104 13.6027 59.906 12.4508 64.1062 11.3196L71.6875 9.27712M37.2034 24.9269H63.7254V14.9157C63.3802 14.9997 63.0926 15.0606 62.8142 15.1354C59.1777 16.1078 55.5538 17.1285 51.8978 18.0214C50.9615 18.2371 49.9881 18.2324 49.054 18.0076C45.3991 17.1112 41.7741 16.0905 38.1375 15.1216C37.8442 15.0434 37.5393 15.0066 37.2045 14.9456L37.2034 24.9269ZM72.0717 91.7125H28.8938V96.6261H72.0717V91.7125ZM45.4634 88.2235H55.3998C55.4358 88.111 55.4616 87.9954 55.4769 87.8783C55.4769 82.1558 55.4768 76.4321 55.4975 70.7084C55.4975 70.0651 55.2145 69.9639 54.6703 69.9673C51.9392 69.9846 49.2081 70.0053 46.4782 69.9558C45.6579 69.9408 45.4428 70.1963 45.4428 70.9995C45.4761 76.2353 45.46 81.4711 45.46 86.7057L45.4634 88.2235ZM25.5391 41.5756H75.3816V38.3593H25.5391V41.5756ZM28.8432 48.2325H72.0764V45.0565H28.8432V48.2325ZM75.5081 48.2417H94.3752C93.4641 46.4178 92.5793 44.7251 91.7717 42.9967C91.5984 42.5575 91.2869 42.1866 90.8843 41.94C90.4817 41.6933 90.0099 41.5844 89.54 41.6296C86.2555 41.6607 82.9709 41.64 79.6864 41.6435C79.4046 41.6435 79.1227 41.6768 78.8305 41.6964C78.7912 42.5666 78.4288 43.3909 77.8142 44.008C77.1995 44.6252 76.3769 44.9908 75.507 45.0335L75.5081 48.2417ZM6.56391 48.2417H25.4403V45.022C24.5606 44.9797 23.7285 44.6101 23.1074 43.9856C22.4863 43.3611 22.1209 42.527 22.0832 41.6469C18.3282 41.6469 14.6239 41.6204 10.9241 41.6803C10.6554 41.6967 10.3936 41.7715 10.1568 41.8995C9.91993 42.0275 9.71376 42.2056 9.55276 42.4213C8.50817 44.2821 7.589 46.2187 6.56167 48.2371M3.87082 94.8988H25.4035V91.6952H3.87082V94.8988ZM97.0913 91.7079H75.5161V94.8862H97.0913V91.7079Z" fill="black"/>
<path d="M68.7548 51.7158V88.2144H58.8208V87.104C58.8208 81.0857 58.8208 75.0674 58.8208 69.0491C58.8208 67.1343 58.3134 66.6326 56.3761 66.6326C52.4087 66.6326 48.4408 66.6326 44.4726 66.6326C42.671 66.6326 42.1338 67.1654 42.1327 68.9548C42.1327 74.9731 42.1327 80.9913 42.1327 87.0096V88.2271H32.2009V51.7158H68.7548ZM43.833 58.3129H43.826C43.826 58.8323 43.826 59.352 43.826 59.8721C43.826 59.9366 43.826 60.0022 43.8318 60.0666C43.8555 60.4758 44.0276 60.8623 44.3158 61.1536C44.6041 61.4449 44.9888 61.621 45.3976 61.6489C45.8095 61.6752 46.2159 61.5423 46.5327 61.2776C46.8496 61.013 47.0527 60.6367 47.1002 60.2266C47.1797 58.962 47.1797 57.6937 47.1002 56.4292C47.0826 56.2251 47.0246 56.0265 46.9299 55.8448C46.8351 55.6632 46.7054 55.5021 46.548 55.371C46.3907 55.2398 46.2089 55.1411 46.0133 55.0806C45.8176 55.0201 45.6117 54.9989 45.4078 55.0184C44.9966 55.0189 44.602 55.1802 44.3081 55.4679C44.0143 55.7556 43.8446 56.1469 43.8353 56.5581C43.7962 57.1403 43.8284 57.7272 43.8284 58.3118M57.1158 58.3658H57.1215C57.1215 57.8457 57.1215 57.326 57.1215 56.8066C57.1215 56.7422 57.1215 56.6766 57.1215 56.6121C57.1193 56.2013 56.9592 55.8071 56.6744 55.511C56.3896 55.215 56.0019 55.0399 55.5915 55.0218C55.3801 54.996 55.1658 55.0136 54.9614 55.0733C54.757 55.1331 54.5669 55.2339 54.4027 55.3696C54.2386 55.5053 54.1037 55.673 54.0064 55.8624C53.9092 56.0519 53.8516 56.2593 53.8371 56.4718C53.7663 57.7047 53.7663 58.9407 53.8371 60.1736C53.8746 60.5846 54.0668 60.9659 54.3748 61.2404C54.6828 61.515 55.0836 61.6622 55.496 61.6523C55.9231 61.64 56.3291 61.464 56.6302 61.1608C56.9312 60.8575 57.1043 60.4502 57.1135 60.0229C57.1457 59.4728 57.1193 58.9182 57.1193 58.3658" fill="#FFC0A1"/>
<path d="M72.1957 51.7178H95.3711V88.2463H72.1957V51.7178ZM87.1513 59.9259C87.1513 60.5104 87.126 61.0973 87.157 61.6807C87.1494 62.0918 87.3025 62.4896 87.5838 62.7895C87.8651 63.0893 88.2523 63.2675 88.6629 63.286C88.8659 63.314 89.0726 63.3011 89.2706 63.248C89.4685 63.195 89.6539 63.1029 89.8157 62.9771C89.9776 62.8513 90.1127 62.6945 90.213 62.5157C90.3133 62.3369 90.377 62.1399 90.4001 61.9362C90.4959 60.6415 90.4959 59.3414 90.4001 58.0467C90.3498 57.6361 90.1413 57.2613 89.8191 57.0019C89.4968 56.7425 89.0862 56.6191 88.6744 56.6578C88.2652 56.6869 87.8819 56.8686 87.6002 57.1669C87.3186 57.4653 87.1591 57.8585 87.1535 58.2688C87.1213 58.8189 87.1478 59.3735 87.1466 59.9259M90.4621 69.9187H90.4552C90.4552 69.3664 90.4956 68.8106 90.4461 68.264C90.439 68.0433 90.3881 67.8263 90.2964 67.6254C90.2047 67.4246 90.0741 67.244 89.9121 67.0941C89.75 66.9442 89.5598 66.828 89.3524 66.7523C89.1451 66.6766 88.9248 66.6428 88.7043 66.653C88.2775 66.6745 87.876 66.8622 87.5858 67.1759C87.2955 67.4897 87.1396 67.9046 87.1513 68.3319C87.1202 69.4032 87.1225 70.4757 87.1513 71.547C87.1329 71.7666 87.16 71.9875 87.231 72.1961C87.302 72.4047 87.4153 72.5963 87.5639 72.759C87.7124 72.9217 87.8929 73.052 88.0941 73.1416C88.2953 73.2313 88.5129 73.2784 88.7331 73.28C88.9614 73.2919 89.1897 73.256 89.4033 73.1745C89.6169 73.0931 89.8111 72.968 89.9736 72.8071C90.136 72.6462 90.263 72.4532 90.3466 72.2404C90.4301 72.0275 90.4684 71.7996 90.4588 71.5712C90.4921 71.0211 90.4645 70.4676 90.4645 69.9153M80.4328 59.9846H80.4155C80.4532 59.3374 80.4475 58.6885 80.3983 58.0421C80.3379 57.6479 80.1344 57.2898 79.8268 57.0361C79.5192 56.7823 79.129 56.6508 78.7306 56.6666C78.3322 56.6824 77.9535 56.8444 77.667 57.1217C77.3804 57.399 77.206 57.7721 77.177 58.1699C77.1172 59.3678 77.116 60.5737 77.177 61.7716C77.1801 61.9759 77.2239 62.1775 77.3058 62.3647C77.3877 62.5519 77.506 62.7208 77.6539 62.8617C77.8018 63.0026 77.9764 63.1126 78.1673 63.1852C78.3582 63.2579 78.5616 63.2917 78.7657 63.2848C79.1773 63.3089 79.5817 63.1699 79.8916 62.8979C80.2014 62.6259 80.3917 62.2428 80.4213 61.8315C80.4619 61.2166 80.4665 60.5999 80.435 59.9846M87.1535 79.9899C87.1535 80.5422 87.1305 81.0946 87.1535 81.6458C87.1504 82.0727 87.3132 82.4841 87.6074 82.7934C87.9016 83.1027 88.3043 83.2858 88.7307 83.3039C89.1429 83.3276 89.5483 83.1911 89.8622 82.9228C90.1761 82.6545 90.3742 82.2753 90.4151 81.8644C90.5023 80.6001 90.5023 79.3313 90.4151 78.067C90.3973 77.8626 90.3388 77.6639 90.2431 77.4825C90.1473 77.3011 90.0162 77.1406 89.8576 77.0107C89.6989 76.8807 89.5158 76.7838 89.3191 76.7257C89.1225 76.6676 88.9161 76.6494 88.7123 76.6723C88.3017 76.6792 87.91 76.8461 87.6206 77.1376C87.3312 77.429 87.1669 77.8219 87.1628 78.2327C87.1271 78.815 87.1559 79.4018 87.1559 79.9864M80.4534 69.9602C80.4794 69.3766 80.4759 68.792 80.443 68.2088C80.4199 67.7816 80.2321 67.3801 79.9191 67.0887C79.6061 66.7973 79.1922 66.6386 78.7646 66.6461C78.3363 66.6516 77.9276 66.8266 77.6281 67.1329C77.3285 67.4391 77.1626 67.8517 77.1666 68.2801C77.1194 69.4136 77.1183 70.5528 77.1666 71.6874C77.1632 71.8997 77.2031 72.1104 77.2836 72.3069C77.3641 72.5033 77.4836 72.6813 77.6349 72.8301C77.7863 72.979 77.9664 73.0955 78.1641 73.1726C78.3618 73.2497 78.5732 73.2859 78.7854 73.2788C78.9974 73.2864 79.2088 73.2516 79.4074 73.1767C79.6059 73.1017 79.7875 72.9879 79.9417 72.8421C80.0959 72.6962 80.2194 72.5212 80.3053 72.3271C80.3912 72.133 80.4376 71.9238 80.4419 71.7116C80.4983 71.1362 80.4523 70.5447 80.4512 69.9602M77.169 79.8771C77.169 80.5261 77.1218 81.1786 77.1805 81.8218C77.2106 82.2151 77.3846 82.5835 77.6692 82.8566C77.9538 83.1296 78.329 83.2881 78.7232 83.3016C79.1184 83.3354 79.5114 83.2152 79.8201 82.966C80.1288 82.7169 80.3294 82.358 80.3799 81.9645C80.4813 80.6404 80.4813 79.3105 80.3799 77.9864C80.3636 77.7892 80.307 77.5975 80.2137 77.423C80.1204 77.2485 79.9924 77.095 79.8375 76.9719C79.6826 76.8489 79.504 76.7589 79.313 76.7076C79.1219 76.6563 78.9224 76.6446 78.7267 76.6735C78.3322 76.6724 77.9524 76.8222 77.6647 77.0922C77.3771 77.3622 77.2034 77.7319 77.1794 78.1257C77.123 78.701 77.169 79.2925 77.169 79.8759" fill="#FFC0A1"/>
<path d="M5.5769 51.7192H28.7557V88.2397H5.5769V51.7192ZM13.8025 59.9952C13.8025 59.4107 13.8323 58.8238 13.7955 58.2404C13.7839 57.8298 13.6182 57.4386 13.3312 57.1447C13.0443 56.8509 12.6572 56.6759 12.2471 56.6547C11.8348 56.6253 11.4272 56.7564 11.1093 57.0206C10.7914 57.2848 10.5877 57.6616 10.5409 58.0724C10.4537 59.3367 10.4537 60.6055 10.5409 61.8698C10.5596 62.0821 10.6213 62.2884 10.7224 62.476C10.8234 62.6637 10.9618 62.8287 11.1288 62.9611C11.2958 63.0935 11.488 63.1904 11.6938 63.2459C11.8995 63.3014 12.1144 63.3144 12.3253 63.284C12.7355 63.2573 13.1193 63.0722 13.3955 62.7677C13.6718 62.4632 13.819 62.0633 13.8059 61.6523C13.8346 61.1011 13.8059 60.5476 13.8059 59.9952M13.8059 70.0894C13.8059 69.4726 13.8358 68.8535 13.799 68.239C13.7879 67.8284 13.622 67.4371 13.3346 67.1437C13.0472 66.8503 12.6595 66.6763 12.2493 66.6568C11.8373 66.6247 11.429 66.7545 11.111 67.0185C10.7929 67.2825 10.5901 67.66 10.5456 68.071C10.46 69.3353 10.46 70.604 10.5456 71.8684C10.5622 72.0726 10.6191 72.2715 10.713 72.4536C10.8069 72.6358 10.9359 72.7975 11.0926 72.9295C11.2492 73.0615 11.4305 73.1612 11.6259 73.2228C11.8213 73.2844 12.0269 73.3067 12.2309 73.2884C12.4427 73.2869 12.6522 73.2432 12.8469 73.1597C13.0415 73.0763 13.2175 72.9548 13.3646 72.8024C13.5118 72.65 13.6271 72.4697 13.7036 72.2722C13.7802 72.0746 13.8165 71.8638 13.8105 71.652C13.8381 71.1342 13.8105 70.6164 13.8105 70.094M13.8105 79.9418C13.8105 79.3895 13.8358 78.836 13.8048 78.286C13.8114 77.8748 13.657 77.4774 13.3745 77.1787C13.092 76.88 12.7039 76.7038 12.2931 76.6876C12.09 76.6599 11.8834 76.6731 11.6855 76.7265C11.4876 76.7798 11.3023 76.8722 11.1406 76.9981C10.9789 77.1241 10.8439 77.2811 10.7437 77.46C10.6435 77.6389 10.5801 77.836 10.5571 78.0397C10.4625 79.3344 10.4625 80.6344 10.5571 81.9291C10.6068 82.3394 10.8154 82.7138 11.1381 82.972C11.4607 83.2302 11.8716 83.3516 12.2827 83.31C12.6916 83.2806 13.0746 83.0988 13.3558 82.8004C13.637 82.5021 13.796 82.109 13.8012 81.699C13.8346 81.1167 13.8083 80.5299 13.8083 79.9453M23.7997 59.9849C23.7997 59.4003 23.8389 58.8123 23.7906 58.2323C23.7766 57.8215 23.6078 57.4313 23.318 57.1399C23.0282 56.8485 22.6388 56.6776 22.2282 56.6616C21.8164 56.635 21.4103 56.7704 21.0968 57.0388C20.7832 57.3073 20.587 57.6877 20.5498 58.0988C20.4641 59.3632 20.4641 60.6319 20.5498 61.8962C20.5643 62.1007 20.62 62.3001 20.7134 62.4825C20.8068 62.6649 20.936 62.8266 21.0934 62.9579C21.2507 63.0892 21.433 63.1874 21.6291 63.2466C21.8253 63.3058 22.0314 63.3247 22.2351 63.3024C22.6464 63.297 23.0393 63.1309 23.3298 62.8395C23.6202 62.5481 23.7851 62.1546 23.7893 61.7432C23.8353 61.1678 23.7975 60.5752 23.7963 59.9906M23.7882 70.0675H23.7824C23.7824 69.4185 23.833 68.7649 23.7709 68.1228C23.7365 67.7298 23.5576 67.3635 23.2688 67.0948C22.98 66.8261 22.6018 66.6742 22.2074 66.6683C21.812 66.6413 21.4213 66.7672 21.116 67.0201C20.8107 67.273 20.6142 67.6336 20.567 68.0273C20.4733 69.3204 20.4689 70.6184 20.5543 71.9121C20.5737 72.1143 20.6334 72.3105 20.7297 72.4893C20.8259 72.6681 20.9569 72.8258 21.115 72.9533C21.2731 73.0807 21.455 73.1753 21.6501 73.2315C21.8452 73.2876 22.0496 73.3042 22.2513 73.2803C22.6456 73.2729 23.0222 73.1159 23.3052 72.8412C23.5882 72.5665 23.7563 72.1945 23.7755 71.8005C23.8296 71.2251 23.7859 70.6336 23.7859 70.0491M23.7859 80.0604H23.8101C23.8101 79.508 23.8101 78.9561 23.8101 78.4045C23.8088 78.3394 23.8038 78.2745 23.795 78.21C23.7776 77.8007 23.6049 77.4135 23.3121 77.127C23.0193 76.8406 22.6284 76.6764 22.219 76.668C22.0153 76.6491 21.8099 76.6711 21.6148 76.7326C21.4197 76.7942 21.2389 76.8941 21.0829 77.0264C20.9268 77.1588 20.7987 77.321 20.7062 77.5035C20.6137 77.6859 20.5586 77.8851 20.544 78.0892C20.4595 79.3509 20.4595 80.6168 20.544 81.8785C20.6009 82.2705 20.7991 82.6281 21.1013 82.8841C21.4034 83.1401 21.7887 83.2768 22.1846 83.2684C22.5804 83.2601 22.9596 83.1073 23.2507 82.8388C23.5418 82.5703 23.7248 82.2046 23.7651 81.8106C23.8192 81.2352 23.7755 80.6438 23.7755 80.0604" fill="#FFC0A1"/>
<path d="M27.4508 34.9082C29.1949 32.8173 30.8054 30.8266 32.4999 28.9118C32.9026 28.5443 33.4286 28.3418 33.9737 28.3445C44.4748 28.313 54.9763 28.3111 65.4782 28.3387C65.9609 28.3216 66.4346 28.4725 66.8185 28.7656C68.864 30.7495 70.8449 32.7931 72.9445 34.9082H27.4508Z" fill="#FF5500"/>
<path d="M71.6899 9.28281L64.1086 11.3253C59.9072 12.4565 55.7104 13.6072 51.4998 14.697C50.8545 14.8603 50.179 14.8627 49.5326 14.7039C42.8774 12.9502 36.2347 11.1493 29.5887 9.35876C29.4736 9.32654 29.3587 9.269 28.9917 9.12861C30.9302 8.59583 32.6432 8.11713 34.3596 7.65569C39.5335 6.26715 44.7104 4.88628 49.8904 3.51309C50.2272 3.41497 50.583 3.40271 50.9257 3.47742C57.734 5.28942 64.5384 7.11408 71.339 8.9514C71.4609 8.98477 71.5795 9.0331 71.7003 9.07453V9.28741" fill="#FF5500"/>
<path d="M37.2053 24.9361V14.9547C37.5401 15.0169 37.845 15.0525 38.1384 15.1308C41.7749 16.0997 45.3999 17.1204 49.0548 18.0168C49.9893 18.2415 50.9631 18.2462 51.8997 18.0306C55.5546 17.1376 59.1796 16.117 62.8162 15.1446C63.0957 15.0698 63.3777 15.0088 63.7286 14.9248V24.9361H37.2053Z" fill="#FF5500"/>
<path d="M72.0719 91.71H28.8939V96.6247H72.0719V91.71Z" fill="#FF5500"/>
<path d="M45.4644 88.2224V86.7011C45.4644 81.4653 45.4805 76.2296 45.4471 70.9949C45.4471 70.1894 45.6577 69.9374 46.4826 69.9512C49.2125 69.9995 51.9436 69.9788 54.6747 69.9616C55.2189 69.9616 55.5042 70.0605 55.5019 70.7026C55.48 76.4252 55.487 82.1489 55.4812 87.8726C55.4661 87.9897 55.4402 88.1053 55.4042 88.2178L45.4644 88.2224Z" fill="#FFEBE1"/>
<path d="M75.3828 38.3579H25.5404V41.573H75.3828V38.3579Z" fill="#FFEBE1"/>
<path d="M72.0772 45.0566H28.844V48.2315H72.0772V45.0566Z" fill="#FF5500"/>
<path d="M75.5139 48.2407V45.0325C76.3838 44.9898 77.2064 44.6242 77.8211 44.007C78.4357 43.3899 78.7982 42.5656 78.8376 41.6954C79.1298 41.677 79.4128 41.6436 79.6935 41.6425C82.978 41.6425 86.2624 41.6597 89.5469 41.6287C90.0168 41.5834 90.4888 41.6923 90.8914 41.939C91.294 42.1856 91.6054 42.5565 91.7788 42.9957C92.5841 44.7218 93.471 46.4168 94.3821 48.2407H75.5139Z" fill="#FF5500"/>
<path d="M6.56506 48.2361C7.5878 46.2132 8.50581 44.2811 9.55615 42.4204C9.71727 42.2047 9.92335 42.0267 10.1602 41.8988C10.397 41.7708 10.6588 41.6959 10.9275 41.6793C14.6307 41.6195 18.335 41.646 22.0866 41.646C22.1243 42.526 22.4897 43.3602 23.1108 43.9847C23.7319 44.6091 24.564 44.9788 25.4437 45.021V48.2361H6.56506Z" fill="#FF5500"/>
<path d="M25.4058 91.6953H3.87317V94.8978H25.4058V91.6953Z" fill="#FF5500"/>
<path d="M97.0924 91.7065H75.5172V94.8848H97.0924V91.7065Z" fill="#FF5500"/>
<path d="M43.8355 58.3126C43.8355 57.728 43.8034 57.1411 43.8425 56.5589C43.8518 56.1477 44.0215 55.7564 44.3154 55.4687C44.6092 55.181 45.0039 55.0197 45.4151 55.0192C45.619 54.9998 45.8247 55.0209 46.0204 55.0814C46.2161 55.1419 46.3979 55.2406 46.5553 55.3718C46.7126 55.503 46.8423 55.664 46.9371 55.8456C47.0319 56.0273 47.0897 56.2259 47.1073 56.43C47.187 57.6945 47.187 58.9628 47.1073 60.2274C47.0598 60.6375 46.8567 61.0138 46.5398 61.2785C46.223 61.5431 45.8167 61.676 45.4047 61.6497C44.9959 61.6218 44.6114 61.4457 44.3231 61.1544C44.0348 60.8631 43.8627 60.4766 43.839 60.0674C43.8333 60.003 43.8321 59.9374 43.8321 59.873C43.8321 59.3528 43.8321 58.8331 43.8321 58.3137H43.839" fill="black"/>
<path d="M57.1209 58.3668C57.1209 58.9191 57.1473 59.4726 57.1151 60.0238C57.1059 60.4511 56.9328 60.8585 56.6318 61.1617C56.3307 61.465 55.9247 61.641 55.4976 61.6533C55.0853 61.6629 54.6846 61.5155 54.3767 61.2411C54.0687 60.9666 53.8765 60.5854 53.8387 60.1746C53.7678 58.9416 53.7678 57.7056 53.8387 56.4727C53.8532 56.2602 53.9109 56.0529 54.0082 55.8634C54.1054 55.6739 54.2402 55.5062 54.4043 55.3706C54.5685 55.2349 54.7586 55.1341 54.963 55.0743C55.1674 55.0145 55.3817 54.997 55.5931 55.0228C56.0035 55.0408 56.3912 55.216 56.676 55.512C56.9608 55.808 57.1209 56.2023 57.1231 56.6131C57.1231 56.6775 57.1289 56.7431 57.1289 56.8076C57.1289 57.3277 57.1289 57.8474 57.1289 58.3668H57.1209Z" fill="black"/>
<path d="M87.1515 59.9259C87.1515 59.3736 87.125 58.8201 87.1572 58.2689C87.1628 57.8586 87.3221 57.4653 87.6038 57.167C87.8854 56.8686 88.2688 56.6869 88.678 56.6579C89.0898 56.6191 89.5005 56.7426 89.8228 57.0019C90.145 57.2613 90.3533 57.6361 90.4036 58.0468C90.4997 59.3415 90.4997 60.6415 90.4036 61.9362C90.3805 62.1399 90.317 62.337 90.2167 62.5157C90.1163 62.6945 89.9813 62.8514 89.8194 62.9772C89.6575 63.1029 89.4721 63.195 89.2741 63.2481C89.0761 63.3011 88.8695 63.314 88.6665 63.286C88.2559 63.2672 87.869 63.089 87.5878 62.7892C87.3066 62.4894 87.1533 62.0918 87.1606 61.6808C87.1295 61.0973 87.1548 60.5116 87.1606 59.9259" fill="black"/>
<path d="M90.4648 69.9192C90.4648 70.4715 90.4924 71.025 90.4591 71.575C90.4688 71.8036 90.4308 72.0317 90.3473 72.2446C90.2638 72.4576 90.1367 72.6507 89.9743 72.8117C89.8118 72.9727 89.6175 73.098 89.4038 73.1795C89.1902 73.261 88.9618 73.297 88.7334 73.285C88.5132 73.2834 88.2955 73.2363 88.0943 73.1466C87.8931 73.057 87.7127 72.9268 87.5642 72.764C87.4156 72.6013 87.3023 72.4097 87.2313 72.2012C87.1603 71.9926 87.1332 71.7716 87.1516 71.552C87.1263 70.4807 87.124 69.4082 87.1516 68.3369C87.1399 67.9096 87.2958 67.4947 87.5861 67.181C87.8763 66.8672 88.2778 66.6795 88.7046 66.658C88.9251 66.6478 89.1454 66.6816 89.3527 66.7573C89.5601 66.8331 89.7503 66.9492 89.9123 67.0991C90.0744 67.249 90.205 67.4296 90.2967 67.6305C90.3884 67.8313 90.4393 68.0484 90.4464 68.269C90.4959 68.8168 90.4555 69.3726 90.4555 69.9249H90.4624" fill="black"/>
<path d="M80.4331 59.9916C80.4645 60.6069 80.46 61.2236 80.4193 61.8385C80.3898 62.2498 80.1995 62.6329 79.8896 62.9049C79.5798 63.1769 79.1753 63.3159 78.7638 63.2918C78.5596 63.2987 78.3563 63.2649 78.1654 63.1922C77.9745 63.1196 77.7999 63.0096 77.652 62.8687C77.504 62.7278 77.3857 62.5589 77.3038 62.3717C77.2219 62.1845 77.1781 61.9829 77.1751 61.7786C77.1152 60.5807 77.1164 59.3748 77.1751 58.1769C77.204 57.7791 77.3785 57.406 77.665 57.1287C77.9516 56.8514 78.3303 56.6894 78.7287 56.6736C79.1271 56.6578 79.5173 56.7894 79.8249 57.0431C80.1325 57.2968 80.3359 57.6549 80.3963 58.0491C80.4455 58.6955 80.4513 59.3444 80.4136 59.9916H80.4309" fill="black"/>
<path d="M87.1525 79.9936C87.1525 79.409 87.1225 78.8222 87.1594 78.2399C87.1635 77.8291 87.3277 77.4362 87.6172 77.1448C87.9066 76.8533 88.2983 76.6864 88.7089 76.6795C88.9127 76.6566 89.119 76.6748 89.3157 76.7329C89.5124 76.791 89.6955 76.8879 89.8541 77.0179C90.0128 77.1478 90.1439 77.3083 90.2396 77.4897C90.3354 77.6711 90.3939 77.8698 90.4117 78.0742C90.499 79.3385 90.499 80.6073 90.4117 81.8716C90.3708 82.2825 90.1726 82.6617 89.8588 82.93C89.5449 83.1983 89.1395 83.3348 88.7273 83.3111C88.3011 83.293 87.8986 83.1101 87.6044 82.801C87.3102 82.492 87.1473 82.0808 87.1501 81.6541C87.1225 81.1029 87.1501 80.5505 87.1501 79.9982" fill="black"/>
<path d="M80.4514 69.9672C80.4514 70.5517 80.4974 71.1398 80.441 71.7186C80.4367 71.9308 80.3903 72.14 80.3044 72.3341C80.2185 72.5282 80.095 72.7033 79.9408 72.8491C79.7866 72.9949 79.605 73.1087 79.4064 73.1837C79.2079 73.2586 78.9965 73.2934 78.7845 73.2859C78.5723 73.2929 78.3609 73.2568 78.1632 73.1796C77.9654 73.1025 77.7854 72.986 77.634 72.8372C77.4827 72.6883 77.3632 72.5103 77.2827 72.3139C77.2022 72.1174 77.1624 71.9067 77.1658 71.6944C77.1152 70.5609 77.1164 69.4217 77.1658 68.2871C77.1618 67.8587 77.3278 67.4462 77.6273 67.1399C77.9268 66.8336 78.3354 66.6585 78.7637 66.6531C79.1913 66.6456 79.6052 66.8043 79.9182 67.0957C80.2312 67.3871 80.419 67.7886 80.4421 68.2158C80.5008 68.7911 80.4525 69.3826 80.4537 69.9672" fill="black"/>
<path d="M77.167 79.8842C77.167 79.3008 77.1221 78.7117 77.1774 78.134C77.2017 77.7404 77.3754 77.371 77.663 77.1012C77.9506 76.8315 78.3304 76.6819 78.7247 76.6829C78.9204 76.6541 79.1199 76.6657 79.311 76.7171C79.502 76.7684 79.6806 76.8584 79.8355 76.9814C79.9904 77.1045 80.1184 77.258 80.2117 77.4325C80.305 77.607 80.3616 77.7987 80.3778 77.9959C80.4792 79.32 80.4792 80.6499 80.3778 81.974C80.3276 82.3676 80.1271 82.7266 79.8184 82.9758C79.5096 83.225 79.1164 83.3452 78.7211 83.3111C78.327 83.2975 77.9518 83.139 77.6672 82.866C77.3826 82.593 77.2085 82.2246 77.1785 81.8312C77.1198 81.188 77.167 80.5344 77.167 79.8866" fill="black"/>
<path d="M13.7977 59.9952C13.7977 60.5475 13.8208 61.101 13.7977 61.6522C13.8106 62.0628 13.6635 62.4623 13.3875 62.7665C13.1115 63.0707 12.7281 63.2558 12.3183 63.2828C12.1073 63.3133 11.8924 63.3005 11.6866 63.245C11.4808 63.1896 11.2886 63.0927 11.1215 62.9603C10.9545 62.8279 10.8161 62.6628 10.7151 62.475C10.6141 62.2873 10.5525 62.0809 10.5341 61.8685C10.4467 60.6043 10.4467 59.3354 10.5341 58.0712C10.5811 57.6603 10.7849 57.2835 11.103 57.0193C11.4211 56.7552 11.8289 56.6241 12.2413 56.6535C12.6514 56.6747 13.0385 56.8497 13.3255 57.1435C13.6124 57.4374 13.7781 57.8285 13.7897 58.2392C13.8266 58.8214 13.7966 59.4083 13.7966 59.9929" fill="black"/>
<path d="M13.8026 70.0879C13.8026 70.608 13.8256 71.1236 13.8026 71.646C13.8084 71.8577 13.7719 72.0685 13.6953 72.2659C13.6187 72.4634 13.5035 72.6436 13.3565 72.796C13.2094 72.9483 13.0334 73.0698 12.8388 73.1534C12.6442 73.2369 12.4349 73.2807 12.2232 73.2823C12.0191 73.3006 11.8134 73.2783 11.618 73.2167C11.4227 73.1551 11.2413 73.0554 11.0847 72.9234C10.928 72.7914 10.799 72.6297 10.7051 72.4476C10.6112 72.2654 10.5543 72.0665 10.5377 71.8623C10.4523 70.5979 10.4523 69.3293 10.5377 68.0649C10.5825 67.6539 10.7855 67.2765 11.1038 67.0127C11.422 66.7489 11.8306 66.6195 12.2427 66.6519C12.6525 66.6717 13.0397 66.8456 13.3268 67.1388C13.6139 67.4319 13.7797 67.8227 13.7911 68.2329C13.8279 68.8474 13.798 69.4665 13.798 70.0833" fill="black"/>
<path d="M13.8003 79.9373C13.8003 80.5219 13.8268 81.1076 13.7946 81.691C13.7893 82.101 13.6303 82.4941 13.3491 82.7924C13.0679 83.0908 12.6849 83.2726 12.276 83.302C11.865 83.3436 11.4539 83.2222 11.1312 82.964C10.8086 82.7059 10.6001 82.3314 10.5504 81.9211C10.4555 80.6264 10.4555 79.3264 10.5504 78.0317C10.5734 77.8279 10.6367 77.6308 10.7369 77.452C10.8371 77.2731 10.972 77.1161 11.1338 76.9901C11.2955 76.8641 11.4809 76.7718 11.6788 76.7185C11.8767 76.6651 12.0832 76.6519 12.2863 76.6796C12.6972 76.6958 13.0855 76.8722 13.3681 77.1711C13.6506 77.4701 13.805 77.8678 13.7981 78.2791C13.8303 78.8291 13.8038 79.3826 13.7981 79.935" fill="black"/>
<path d="M23.7936 59.9768C23.7936 60.5613 23.8317 61.1494 23.7845 61.7293C23.7803 62.1408 23.6153 62.5343 23.3249 62.8256C23.0344 63.117 22.6415 63.2832 22.2302 63.2886C22.0265 63.3109 21.8204 63.2919 21.6242 63.2327C21.428 63.1735 21.2458 63.0753 21.0885 62.9441C20.9311 62.8128 20.8019 62.6511 20.7085 62.4686C20.615 62.2862 20.5594 62.0868 20.5448 61.8824C20.4595 60.618 20.4595 59.3493 20.5448 58.085C20.5824 57.674 20.7788 57.2938 21.0923 57.0253C21.4057 56.7569 21.8115 56.6215 22.2233 56.6478C22.6339 56.6638 23.0233 56.8347 23.3131 57.126C23.6029 57.4174 23.7717 57.8077 23.7856 58.2185C23.8339 58.7938 23.7949 59.3865 23.796 59.971" fill="black"/>
<path d="M23.7833 70.0539C23.7833 70.6384 23.8271 71.2265 23.773 71.8053C23.7539 72.1991 23.5859 72.5709 23.3031 72.8456C23.0204 73.1203 22.644 73.2774 22.2499 73.2851C22.0465 73.3095 21.8402 73.2926 21.6435 73.2354C21.4468 73.1783 21.2636 73.0821 21.1049 72.9526C20.9462 72.823 20.8151 72.6628 20.7197 72.4815C20.6243 72.3002 20.5665 72.1015 20.5495 71.8973C20.4637 70.6036 20.4679 69.3056 20.5622 68.0125C20.609 67.6189 20.8053 67.2584 21.1104 67.0054C21.4155 66.7525 21.8061 66.6265 22.2014 66.6535C22.5959 66.6591 22.9743 66.8111 23.2631 67.0798C23.552 67.3485 23.7307 67.7149 23.7649 68.108C23.827 68.7501 23.7777 69.4037 23.7777 70.0527" fill="black"/>
<path d="M23.7833 80.0693C23.7833 80.6527 23.827 81.2407 23.7729 81.8195C23.7326 82.2136 23.5496 82.5793 23.2585 82.8477C22.9674 83.1162 22.5882 83.269 22.1923 83.2774C21.7965 83.2857 21.4112 83.149 21.109 82.893C20.8069 82.6371 20.6086 82.2794 20.5517 81.8875C20.467 80.6258 20.467 79.3598 20.5517 78.0981C20.5663 77.894 20.6215 77.6949 20.714 77.5124C20.8065 77.3299 20.9345 77.1677 21.0905 77.0354C21.2465 76.903 21.4274 76.8031 21.6225 76.7416C21.8176 76.6801 22.0231 76.6581 22.2268 76.677C22.6362 76.6854 23.0271 76.8495 23.3199 77.136C23.6127 77.4224 23.7854 77.8097 23.8028 78.2189C23.8116 78.2834 23.8165 78.3484 23.8177 78.4134C23.8177 78.9646 23.8177 79.517 23.8177 80.0693H23.7936" fill="black"/>
</g>
<defs>
<clipPath id="clip0_307_69">
<rect width="100" height="100" fill="white" transform="translate(0.5)"/>
</clipPath>
</defs>
</svg>
