<svg width="101" height="100" viewBox="0 0 101 100" fill="none" xmlns="http://www.w3.org/2000/svg">
<g clip-path="url(#clip0_307_100)">
<path d="M8.83464 58.4037C6.62302 58.4037 4.57047 58.3899 2.52826 58.4106C2.12961 58.4697 1.72268 58.3913 1.37465 58.1884C1.02662 57.9855 0.758273 57.6701 0.613971 57.2944C0.48667 56.9314 0.484454 56.5363 0.60764 56.1719C0.730826 55.8075 0.972354 55.4946 1.29393 55.2829C6.69102 50.443 12.0708 45.5823 17.499 40.7769C18.035 40.3616 18.6934 40.1347 19.3718 40.1314C24.3356 40.0796 29.3005 40.1026 34.2654 40.1026H35.4444C35.4444 37.327 35.4444 34.6378 35.4444 31.9497C34.0268 31.3663 33.8159 31.0372 33.839 29.4527C33.9354 25.6382 35.4499 21.9959 38.0876 19.2349C40.7253 16.4738 44.2975 14.7914 48.109 14.5151C48.3107 14.5025 48.5113 14.4806 48.8409 14.4507C48.8409 12.5198 48.8409 10.6246 48.8409 8.73046C48.8409 6.47735 48.8259 4.22539 48.8409 1.97228C48.8501 0.434913 49.711 -0.263576 51.1908 0.0919974C55.1184 1.04924 59.219 1.04924 63.1467 0.0919974C64.6288 -0.263576 65.4873 0.437214 65.4977 1.97113C65.5127 4.085 65.5092 6.19888 65.4977 8.3139C65.5369 8.55634 65.5251 8.80427 65.4628 9.04185C65.4006 9.27944 65.2894 9.50144 65.1364 9.69368C64.9833 9.88591 64.7918 10.0441 64.574 10.1583C64.3562 10.2724 64.117 10.3399 63.8716 10.3564C60.2933 11.2621 56.5668 11.4247 52.923 10.834C52.7201 10.7995 52.5115 10.7995 52.2315 10.7776V14.1285C54.3386 14.5959 56.4048 15.2316 58.41 16.0295C61.0237 17.2095 63.2397 19.1194 64.7908 21.5287C66.3419 23.938 67.1618 26.7439 67.1516 29.608C67.2115 31.0349 66.9073 31.4158 65.5381 31.9152V40.0991H66.6906C71.6555 40.0991 76.6204 40.0669 81.5841 40.1371C82.3607 40.1678 83.1055 40.4529 83.7036 40.9484C88.982 45.6088 94.2038 50.3325 99.4476 55.032C100.147 55.6592 100.791 56.2978 100.37 57.3427C99.9479 58.3876 99.0512 58.4232 98.1085 58.4083C96.7255 58.3852 95.3425 58.4025 93.8443 58.4025V59.689C93.8443 72.3048 93.8443 84.9205 93.8443 97.5363C93.8443 99.5293 93.3833 99.9976 91.4125 99.9976H11.2053C9.31409 99.9976 8.83352 99.5074 8.83352 97.5811C8.83352 84.9309 8.83352 72.2806 8.83352 59.6303L8.83464 58.4037ZM65.5 96.5973H90.4156V58.46H12.2345V96.5927H35.5066C35.5066 93.6376 35.464 90.762 35.5147 87.8886C35.6433 83.9578 37.3156 80.2353 40.1704 77.5255C43.0252 74.8157 46.8331 73.3362 50.7714 73.4066C54.7097 73.477 58.4622 75.0918 61.2179 77.9019C63.9736 80.7121 65.5114 84.4919 65.4989 88.4248C65.5127 91.1244 65.4989 93.824 65.4989 96.595M6.63227 54.9722C6.77662 55.0165 6.92419 55.0496 7.07366 55.0712C15.1626 55.0712 23.2519 55.0681 31.3416 55.062C31.7528 55.0382 32.1549 54.9305 32.5228 54.7455C38.0479 52.2496 43.5763 49.7583 49.0794 47.2152C49.5212 46.9872 50.0112 46.8682 50.5085 46.8682C51.0058 46.8682 51.4959 46.9872 51.9376 47.2152C57.4112 49.7406 62.9001 52.2339 68.4043 54.6949C68.9355 54.9322 69.5097 55.0586 70.0916 55.0666C77.834 55.0896 85.5752 55.0815 93.3176 55.0815H94.3076C94.2462 54.9558 94.172 54.8366 94.0863 54.726C90.0395 51.082 85.9862 47.4453 81.9264 43.816C81.6041 43.5732 81.2099 43.4448 80.8062 43.4512C60.5993 43.4343 40.3924 43.4343 20.1855 43.4512C19.7814 43.447 19.3875 43.5778 19.0664 43.8229C14.9463 47.4879 10.8515 51.1806 6.62882 54.9791M38.6529 96.5961H62.1579C62.1579 93.6825 62.2109 90.8425 62.1463 88.0106C62.0644 85.1774 60.9516 82.4711 59.016 80.3979C57.0804 78.3246 54.4547 77.0264 51.6299 76.7462C48.8575 76.4302 46.066 77.1484 43.7917 78.7627C41.5174 80.3769 39.9208 82.7734 39.3087 85.4916C38.6253 89.0807 38.8477 92.8402 38.6529 96.5904M63.7863 28.4423C63.5197 26.2052 62.6324 24.0869 61.2244 22.3264C59.8165 20.5658 57.944 19.233 55.818 18.4782C53.5193 17.7857 51.1044 17.563 48.7176 17.8235C47.1332 17.8559 45.5726 18.2148 44.1337 18.8775C42.6947 19.5403 41.4083 20.4926 40.3551 21.6749C38.5889 23.5137 37.5101 25.9032 37.2999 28.4423H63.7863ZM60.6504 55.047L60.6908 54.8629C57.5479 53.4372 54.4143 51.9861 51.2507 50.6121C50.7614 50.4315 50.2224 50.438 49.7375 50.6305C46.8494 51.8779 43.9912 53.1955 41.125 54.497C40.8495 54.6224 40.5903 54.7846 40.1097 55.047H60.6504ZM52.2062 7.34499C55.4669 8.03926 58.8384 8.03102 62.0956 7.32083V3.94231H52.2062V7.34499ZM38.8857 40.0508H42.0885V31.8807H38.8857V40.0508ZM48.7787 31.8933H45.5586V40.0554H48.7787V31.8933ZM55.4458 31.8933H52.2188V40.0566H55.4458V31.8933ZM62.1095 31.8933H58.8906V40.0381H62.1072L62.1095 31.8933Z" fill="black"/>
<path d="M65.5003 96.5986C65.5003 93.8254 65.5119 91.1258 65.5003 88.4285C65.5128 84.4956 63.9751 80.7157 61.2193 77.9056C58.4636 75.0954 54.7111 73.4807 50.7728 73.4103C46.8345 73.3398 43.0266 74.8194 40.1718 77.5292C37.3171 80.239 35.6447 83.9615 35.5161 87.8923C35.4654 90.7691 35.508 93.6459 35.508 96.5963H12.2347V58.4614H90.4147V96.5986H65.5003ZM25.4987 66.826C25.4987 65.7167 25.524 64.6074 25.4918 63.4993C25.5098 63.2635 25.4765 63.0267 25.3941 62.805C25.3118 62.5833 25.1824 62.3821 25.0147 62.2151C24.847 62.0482 24.6451 61.9194 24.4229 61.8378C24.2007 61.7561 23.9634 61.7235 23.7273 61.7421C21.576 61.7153 19.4247 61.7153 17.2734 61.7421C17.0371 61.7217 16.7992 61.7532 16.5764 61.8344C16.3536 61.9156 16.1513 62.0445 15.9837 62.2121C15.8161 62.3796 15.6873 62.5818 15.6062 62.8044C15.5252 63.027 15.494 63.2645 15.5147 63.5004C15.4863 65.6484 15.4863 67.7965 15.5147 69.9445C15.4947 70.1804 15.5266 70.4178 15.608 70.6401C15.6895 70.8624 15.8186 71.0643 15.9863 71.2317C16.154 71.399 16.3563 71.5278 16.579 71.6089C16.8017 71.6901 17.0395 71.7218 17.2757 71.7016C19.427 71.73 21.5783 71.73 23.7296 71.7016C23.9657 71.72 24.203 71.687 24.4251 71.6051C24.6472 71.5231 24.849 71.3941 25.0164 71.2269C25.1838 71.0598 25.313 70.8584 25.395 70.6366C25.4771 70.4148 25.5101 70.1779 25.4918 69.9422C25.5229 68.9065 25.4987 67.8628 25.4987 66.8237M35.5011 61.7318C34.4247 61.7318 33.3483 61.7076 32.2742 61.7387C32.038 61.7198 31.8006 61.7523 31.5783 61.834C31.356 61.9156 31.1541 62.0445 30.9865 62.2117C30.819 62.3789 30.6898 62.5804 30.6079 62.8023C30.526 63.0242 30.4932 63.2612 30.512 63.497C30.4836 65.645 30.4836 67.793 30.512 69.941C30.4909 70.1771 30.5219 70.4149 30.6028 70.6377C30.6836 70.8605 30.8124 71.0629 30.9801 71.2306C31.1477 71.3984 31.3502 71.5273 31.5732 71.6085C31.7962 71.6897 32.0343 71.7211 32.2707 71.7005C34.422 71.7296 36.5733 71.7296 38.7246 71.7005C38.9609 71.7202 39.1988 71.6882 39.4215 71.6068C39.6442 71.5255 39.8465 71.3966 40.0143 71.2293C40.1821 71.062 40.3114 70.8601 40.3932 70.6379C40.475 70.4156 40.5073 70.1782 40.4879 69.9422C40.5164 67.7942 40.5164 65.6461 40.4879 63.4981C40.506 63.2629 40.4729 63.0266 40.3907 62.8055C40.3085 62.5843 40.1792 62.3836 40.0118 62.2171C39.8444 62.0506 39.6429 61.9224 39.4211 61.8412C39.1992 61.76 38.9624 61.7278 38.7269 61.7467C37.6517 61.7157 36.5741 61.7398 35.5 61.7387M62.1673 66.6557C62.1673 67.7305 62.1489 68.8053 62.1673 69.8777C62.1404 70.1216 62.1681 70.3684 62.2483 70.6003C62.3286 70.8323 62.4593 71.0435 62.6312 71.2189C62.8031 71.3942 63.0118 71.5293 63.2423 71.6144C63.4728 71.6995 63.7193 71.7324 63.9641 71.7108C66.0816 71.7369 68.199 71.7369 70.3165 71.7108C70.5609 71.7389 70.8086 71.7122 71.0413 71.6327C71.2741 71.5531 71.4862 71.4227 71.6621 71.2509C71.838 71.0792 71.9732 70.8704 72.058 70.6398C72.1429 70.4092 72.1751 70.1626 72.1524 69.918C72.1793 67.8045 72.1793 65.6907 72.1524 63.5764C72.1806 63.3323 72.1539 63.085 72.0742 62.8525C71.9944 62.6201 71.8637 62.4083 71.6915 62.2328C71.5193 62.0572 71.31 61.9223 71.0789 61.8378C70.8478 61.7533 70.6007 61.7214 70.3557 61.7444C68.2382 61.7176 66.1207 61.7176 64.0032 61.7444C63.7496 61.7168 63.493 61.7474 63.2529 61.8337C63.0128 61.92 62.7956 62.0598 62.6179 62.2426C62.4401 62.4253 62.3064 62.6461 62.2269 62.8882C62.1474 63.1303 62.1242 63.3873 62.1592 63.6397C62.1419 64.6443 62.1592 65.65 62.1592 66.6546M77.1623 66.627C77.1623 67.7363 77.1381 68.8455 77.1692 69.9537C77.1502 70.1896 77.1827 70.4268 77.2648 70.6488C77.3468 70.8708 77.4763 71.0724 77.6442 71.2394C77.8121 71.4064 78.0144 71.5349 78.2371 71.6159C78.4598 71.6969 78.6975 71.7285 78.9337 71.7085C81.085 71.7369 83.2363 71.7369 85.3876 71.7085C85.624 71.7283 85.8619 71.6961 86.0846 71.6144C86.3073 71.5326 86.5094 71.4032 86.6768 71.2353C86.8441 71.0673 86.9726 70.8649 87.0533 70.6421C87.134 70.4193 87.165 70.1816 87.144 69.9456C87.1724 67.7976 87.1724 65.6496 87.144 63.5016C87.164 63.2655 87.1319 63.0279 87.0501 62.8055C86.9683 62.5831 86.8387 62.3813 86.6704 62.2143C86.5021 62.0473 86.2992 61.919 86.076 61.8387C85.8528 61.7583 85.6147 61.7277 85.3784 61.749C83.2271 61.7222 81.0758 61.7222 78.9245 61.749C78.6883 61.73 78.4507 61.7625 78.2284 61.8444C78.0061 61.9263 77.8043 62.0556 77.6372 62.2233C77.47 62.391 77.3414 62.593 77.2604 62.8154C77.1794 63.0377 77.1478 63.275 77.168 63.5108C77.1392 64.5464 77.1623 65.5901 77.168 66.6304M25.4964 81.7049C24.42 81.7049 23.3435 81.6807 22.2694 81.7118C22.0334 81.693 21.7961 81.7256 21.5739 81.8074C21.3518 81.8893 21.1501 82.0183 20.9828 82.1856C20.8156 82.353 20.6867 82.5546 20.6052 82.7766C20.5237 82.9986 20.4914 83.2356 20.5107 83.4712C20.4823 85.6192 20.4823 87.7672 20.5107 89.9152C20.4905 90.1512 20.5223 90.3888 20.6036 90.6112C20.685 90.8337 20.8141 91.0357 20.9818 91.2032C21.1495 91.3707 21.3519 91.4995 21.5747 91.5808C21.7975 91.662 22.0354 91.6937 22.2717 91.6736C24.423 91.7027 26.5744 91.7027 28.7257 91.6736C28.962 91.6935 29.1998 91.6617 29.4225 91.5804C29.6452 91.4991 29.8474 91.3702 30.0151 91.2028C30.1828 91.0353 30.3119 90.8334 30.3933 90.611C30.4748 90.3886 30.5066 90.1512 30.4866 89.9152C30.5158 87.7672 30.5158 85.6192 30.4866 83.4712C30.5052 83.2354 30.4723 82.9985 30.3903 82.7766C30.3083 82.5547 30.1792 82.3532 30.0117 82.186C29.8442 82.0188 29.6424 81.8898 29.4202 81.8079C29.198 81.726 28.9606 81.6932 28.7245 81.7118C27.6492 81.6818 26.5717 81.7049 25.4975 81.706M77.1958 81.706C76.1885 81.706 75.1823 81.6968 74.1751 81.706C72.7921 81.7221 72.1824 82.3032 72.1709 83.6484C72.154 85.6929 72.154 87.7377 72.1709 89.7829C72.1356 90.0441 72.1619 90.3099 72.2476 90.5592C72.3334 90.8084 72.4763 91.0342 72.6649 91.2186C72.8535 91.403 73.0826 91.5409 73.334 91.6213C73.5854 91.7017 73.852 91.7223 74.1128 91.6816C76.1612 91.697 78.2095 91.697 80.2579 91.6816C80.5195 91.7166 80.7858 91.6902 81.0354 91.6044C81.285 91.5187 81.5111 91.3759 81.6958 91.1875C81.8804 90.9991 82.0185 90.7703 82.099 90.5193C82.1795 90.2682 82.2002 90.0019 82.1595 89.7415C82.1756 87.6963 82.1756 85.6514 82.1595 83.607C82.1468 82.3228 81.5256 81.7279 80.2153 81.7083C79.2091 81.6934 78.2018 81.7083 77.1946 81.7083" fill="#FFEBE1"/>
<path d="M6.63098 54.9722C10.8548 51.1748 14.9485 47.481 19.0686 43.8102C19.3897 43.5652 19.7836 43.4343 20.1877 43.4385C40.3946 43.4209 60.6015 43.4209 80.8084 43.4385C81.2121 43.4321 81.6063 43.5605 81.9286 43.8033C86.0007 47.4219 90.054 51.0586 94.0885 54.7133C94.1742 54.824 94.2483 54.9431 94.3097 55.0689H93.3197C85.5773 55.0689 77.8361 55.0769 70.0938 55.0539C69.5122 55.0461 68.9384 54.9196 68.4077 54.6822C62.908 52.2135 57.4191 49.7203 51.9409 47.2025C51.4992 46.9745 51.0091 46.8555 50.5118 46.8555C50.0146 46.8555 49.5245 46.9745 49.0828 47.2025C43.5785 49.7445 38.0512 52.2369 32.5262 54.7329C32.1582 54.9179 31.7562 55.0256 31.3449 55.0493C23.256 55.0669 15.1667 55.07 7.07699 55.0585C6.92747 55.0372 6.77988 55.0041 6.63559 54.9595" fill="#FF5500"/>
<path d="M38.653 96.5952C38.8431 92.845 38.6253 89.0856 39.3088 85.4965C39.9211 82.7784 41.5178 80.382 43.792 78.7678C46.0662 77.1536 48.8576 76.4353 51.63 76.751C54.4538 77.0308 57.0789 78.3279 59.0145 80.3998C60.9502 82.4716 62.0639 85.1764 62.1475 88.0085C62.212 90.8439 62.159 93.6816 62.159 96.5952H38.653ZM50.4671 80.0823C49.3853 80.0768 48.3131 80.2856 47.3126 80.6965C46.3121 81.1075 45.4031 81.7124 44.6383 82.4764C43.8735 83.2404 43.268 84.1482 42.8568 85.1474C42.4457 86.1465 42.237 87.2172 42.2429 88.2973H45.4411C45.4926 86.9844 46.0388 85.7394 46.9706 84.8116C47.9024 83.8838 49.1509 83.3418 50.4659 83.294L50.4671 80.0823Z" fill="#FFC0A1"/>
<path d="M63.7855 28.4495H37.2968C37.507 25.9104 38.5858 23.5209 40.352 21.6821C41.4052 20.4999 42.6916 19.5476 44.1306 18.8848C45.5695 18.2221 47.1301 17.8632 48.7145 17.8306C51.1013 17.5702 53.5163 17.7929 55.815 18.4854C57.941 19.2401 59.8136 20.5728 61.2215 22.3334C62.6294 24.094 63.5167 26.2123 63.7832 28.4495" fill="#FF5500"/>
<path d="M60.6505 55.0529H40.1144C40.595 54.7905 40.8543 54.6283 41.1297 54.5029C43.9948 53.2026 46.853 51.885 49.7422 50.6364C50.2273 50.4433 50.7667 50.4363 51.2566 50.6169C54.4213 51.9977 57.5538 53.4419 60.6966 54.8676L60.6562 55.0518" fill="#FFC0A1"/>
<path d="M52.2025 7.34388V3.9458H62.092V7.32432C58.8347 8.03455 55.4632 8.04279 52.2025 7.34849" fill="#FFC0A1"/>
<path d="M42.0864 31.8799H38.8848V40.0512H42.0864V31.8799Z" fill="#FFC0A1"/>
<path d="M48.7767 31.8936H45.5566V40.0556H48.7767V31.8936Z" fill="#FFC0A1"/>
<path d="M55.4435 31.8936H52.2223V40.0568H55.4435V31.8936Z" fill="#FFC0A1"/>
<path d="M62.1072 31.896H58.8906V40.035H62.1072V31.896Z" fill="#FFC0A1"/>
<path d="M25.5 66.8246C25.5 67.8602 25.5241 68.905 25.493 69.943C25.5114 70.1787 25.4784 70.4156 25.3963 70.6374C25.3142 70.8592 25.1851 71.0606 25.0177 71.2278C24.8502 71.395 24.6485 71.5239 24.4264 71.6059C24.2042 71.6878 23.967 71.7208 23.7309 71.7025C21.5796 71.7308 19.4283 71.7308 17.277 71.7025C17.0408 71.7226 16.803 71.6909 16.5803 71.6098C16.3575 71.5286 16.1553 71.3998 15.9876 71.2325C15.8199 71.0651 15.6907 70.8632 15.6093 70.6409C15.5278 70.4186 15.496 70.1812 15.516 69.9453C15.4883 67.7973 15.4883 65.6493 15.516 63.5013C15.4953 63.2654 15.5265 63.0278 15.6075 62.8052C15.6885 62.5826 15.8174 62.3805 15.985 62.2129C16.1526 62.0453 16.3549 61.9164 16.5777 61.8353C16.8005 61.7541 17.0384 61.7226 17.2747 61.743C19.426 61.7146 21.5773 61.7146 23.7286 61.743C23.9646 61.7243 24.202 61.757 24.4242 61.8386C24.6464 61.9203 24.8483 62.049 25.016 62.216C25.1836 62.3829 25.3131 62.5842 25.3955 62.8058C25.4778 63.0275 25.5111 63.2644 25.493 63.5001C25.5253 64.6083 25.5 65.7176 25.5 66.8269M22.1175 65.1215H18.9054V68.309H22.1175V65.1215Z" fill="black"/>
<path d="M35.5009 61.7326C36.5773 61.7326 37.6537 61.7084 38.7278 61.7395C38.9639 61.7205 39.2014 61.753 39.4237 61.8348C39.646 61.9165 39.8478 62.0456 40.0152 62.2129C40.1826 62.3803 40.3116 62.582 40.3932 62.804C40.4747 63.0261 40.507 63.2632 40.4877 63.499C40.5169 65.647 40.5169 67.795 40.4877 69.943C40.5071 70.179 40.4747 70.4164 40.3929 70.6387C40.3112 70.8609 40.1819 71.0628 40.0141 71.2301C39.8463 71.3974 39.644 71.5263 39.4212 71.6076C39.1985 71.689 38.9607 71.721 38.7244 71.7013C36.5731 71.7297 34.4218 71.7297 32.2705 71.7013C32.0341 71.7217 31.7962 71.6902 31.5733 71.6089C31.3505 71.5277 31.1481 71.3987 30.9806 71.2309C30.8131 71.0632 30.6844 70.8609 30.6036 70.6382C30.5228 70.4155 30.4918 70.1778 30.5129 69.9418C30.4845 67.7938 30.4845 65.6458 30.5129 63.4978C30.4941 63.262 30.5268 63.025 30.6088 62.8031C30.6907 62.5812 30.8199 62.3797 30.9875 62.2125C31.155 62.0453 31.3569 61.9164 31.5792 61.8348C31.8015 61.7531 32.0389 61.7206 32.275 61.7395C33.3503 61.7096 34.4267 61.7326 35.502 61.7395M37.0844 65.1192H33.9001V68.355H37.0844V65.1192Z" fill="black"/>
<path d="M62.1682 66.65C62.1682 65.6455 62.1544 64.6397 62.1682 63.6352C62.1332 63.3828 62.1563 63.1258 62.2358 62.8837C62.3153 62.6416 62.449 62.4208 62.6267 62.2381C62.8045 62.0553 63.0217 61.9155 63.2618 61.8291C63.5019 61.7428 63.7585 61.7123 64.0121 61.7399C66.1296 61.7169 68.2472 61.7169 70.3647 61.7399C70.6097 61.7169 70.8568 61.7488 71.0878 61.8333C71.3189 61.9177 71.5282 62.0527 71.7004 62.2282C71.8726 62.4038 72.0033 62.6155 72.083 62.848C72.1628 63.0805 72.1895 63.3278 72.1613 63.5719C72.1836 65.6854 72.1836 67.7992 72.1613 69.9135C72.184 70.1581 72.1518 70.4047 72.067 70.6353C71.9822 70.8659 71.8469 71.0746 71.671 71.2464C71.4951 71.4182 71.2831 71.5486 71.0503 71.6281C70.8175 71.7077 70.5699 71.7344 70.3255 71.7063C68.208 71.7293 66.0905 71.7293 63.973 71.7063C63.7282 71.7277 63.4818 71.6946 63.2514 71.6094C63.021 71.5243 62.8124 71.3892 62.6406 71.2139C62.4688 71.0386 62.338 70.8274 62.2577 70.5956C62.1774 70.3638 62.1495 70.1171 62.1762 69.8732C62.152 68.7996 62.1762 67.7248 62.1762 66.6512M68.7811 65.1311H65.5876V68.3358H68.7811V65.1311Z" fill="black"/>
<path d="M77.1692 66.6233C77.1692 65.5876 77.1462 64.5428 77.175 63.5037C77.1548 63.2679 77.1863 63.0306 77.2673 62.8082C77.3483 62.5859 77.4769 62.3838 77.6441 62.2161C77.8112 62.0485 78.013 61.9192 78.2354 61.8373C78.4577 61.7554 78.6952 61.7228 78.9314 61.7419C81.0827 61.7143 83.234 61.7143 85.3853 61.7419C85.6216 61.7206 85.8598 61.7512 86.0831 61.8316C86.3063 61.9119 86.5093 62.0401 86.6777 62.2071C86.846 62.3741 86.9758 62.5759 87.0577 62.7983C87.1397 63.0207 87.1719 63.2583 87.1521 63.4944C87.1813 65.6425 87.1813 67.7905 87.1521 69.9385C87.173 70.1745 87.1421 70.4122 87.0614 70.6349C86.9807 70.8577 86.8522 71.0602 86.6848 71.2281C86.5175 71.3961 86.3154 71.5255 86.0927 71.6072C85.87 71.689 85.6321 71.7211 85.3957 71.7014C83.2444 71.7305 81.093 71.7305 78.9417 71.7014C78.7056 71.7214 78.4679 71.6898 78.2452 71.6088C78.0225 71.5277 77.8201 71.3992 77.6522 71.2322C77.4843 71.0652 77.3548 70.8637 77.2728 70.6417C77.1908 70.4196 77.1582 70.1824 77.1773 69.9466C77.1461 68.8384 77.1704 67.728 77.1704 66.6198M83.7891 65.1112H80.5621V68.3114H83.7891V65.1112Z" fill="black"/>
<path d="M25.4988 81.6989C26.5752 81.6989 27.6516 81.6759 28.7257 81.7058C28.9619 81.6873 29.1992 81.7201 29.4214 81.8019C29.6436 81.8838 29.8454 82.0128 30.0129 82.1801C30.1804 82.3473 30.3096 82.5487 30.3916 82.7706C30.4736 82.9925 30.5064 83.2295 30.4879 83.4652C30.5171 85.6132 30.5171 87.7613 30.4879 89.9093C30.508 90.1453 30.4763 90.3829 30.395 90.6054C30.3136 90.8279 30.1846 91.03 30.0169 91.1976C29.8492 91.3651 29.6468 91.4941 29.424 91.5755C29.2012 91.6569 28.9633 91.6887 28.7269 91.6687C26.5756 91.6971 24.4243 91.6971 22.273 91.6687C22.0366 91.6889 21.7988 91.6572 21.576 91.576C21.3531 91.4947 21.1508 91.3659 20.983 91.1984C20.8153 91.0309 20.6862 90.8289 20.6049 90.6064C20.5235 90.384 20.4918 90.1464 20.512 89.9104C20.4843 87.7624 20.4843 85.6144 20.512 83.4664C20.4926 83.2307 20.5249 82.9936 20.6065 82.7715C20.6881 82.5494 20.817 82.3477 20.9844 82.1804C21.1518 82.013 21.3537 81.884 21.576 81.8022C21.7982 81.7205 22.0357 81.688 22.2718 81.707C23.3471 81.677 24.4235 81.7 25.4988 81.6989ZM27.0846 85.0797H23.898V88.3155H27.0846V85.0797Z" fill="black"/>
<path d="M77.1969 81.6991C78.2042 81.6991 79.2104 81.6865 80.2176 81.6991C81.5269 81.7187 82.1492 82.3136 82.1619 83.5978C82.1811 85.6423 82.1811 87.6871 82.1619 89.7323C82.2024 89.9927 82.1814 90.2589 82.1008 90.5098C82.0203 90.7608 81.8822 90.9895 81.6976 91.1778C81.5131 91.3661 81.287 91.5089 81.0375 91.5948C80.788 91.6806 80.5219 91.7072 80.2603 91.6724C78.2119 91.6908 76.1636 91.6908 74.1153 91.6724C72.8083 91.6621 72.1848 91.0579 72.1721 89.7749C72.1529 87.7304 72.1529 85.6856 72.1721 83.6404C72.1836 82.2952 72.7945 81.7141 74.1763 81.698C75.1836 81.6865 76.1897 81.698 77.1969 81.698M78.7736 85.0949H75.5801V88.3008H78.7736V85.0949Z" fill="black"/>
<path d="M50.4658 80.0821V83.2938C49.1507 83.3416 47.9023 83.8836 46.9705 84.8114C46.0387 85.7392 45.4924 86.9842 45.441 88.2971H42.2428C42.2368 87.217 42.4455 86.1463 42.8567 85.1472C43.2678 84.148 43.8733 83.2402 44.6381 82.4762C45.4029 81.7122 46.3119 81.1073 47.3124 80.6964C48.3129 80.2854 49.384 80.0766 50.4658 80.0821Z" fill="black"/>
<path d="M22.1152 65.1206H18.9032V68.3081H22.1152V65.1206Z" fill="#FFC0A1"/>
<path d="M37.0832 65.1147H33.8989V68.3506H37.0832V65.1147Z" fill="#FFC0A1"/>
<path d="M68.7746 65.1309H65.5811V68.3356H68.7746V65.1309Z" fill="#FFC0A1"/>
<path d="M83.7891 65.1138H80.5645V68.3139H83.7891V65.1138Z" fill="#FFC0A1"/>
<path d="M27.0846 85.0796H23.8979V88.3154H27.0846V85.0796Z" fill="#FFC0A1"/>
<path d="M78.7734 85.0957H75.5798V88.3016H78.7734V85.0957Z" fill="#FFC0A1"/>
</g>
<defs>
<clipPath id="clip0_307_100">
<rect width="100" height="100" fill="white" transform="translate(0.5)"/>
</clipPath>
</defs>
</svg>
