<svg width="101" height="100" viewBox="0 0 101 100" fill="none" xmlns="http://www.w3.org/2000/svg">
<g clip-path="url(#clip0_307_136)">
<path d="M0.52697 57.1716C0.52697 47.7323 0.545703 38.2941 0.500146 28.8548C0.450948 28.4628 0.569553 28.0689 0.834146 27.7466C1.09874 27.4243 1.49121 27.1957 1.93788 27.1035C7.34582 25.6087 12.692 23.9575 18.0383 22.3085C19.9651 21.7141 21.9241 21.1828 23.8563 20.6079C24.2014 20.5366 24.5035 20.3581 24.7042 20.1069C24.9049 19.8557 24.99 19.5495 24.943 19.2476C24.8907 13.4879 24.9135 7.72699 24.9162 1.96612C24.9162 0.183812 25.1332 -0.000168019 27.1806 -0.000168019H57.3894C57.8664 -0.0205309 58.3431 0.0424524 58.7908 0.184962C59.3 0.364343 59.4128 0.529924 59.5508 1.05657C60.4887 4.65567 59.7461 8.28123 59.9391 11.8861C59.9819 12.691 60.2419 12.8497 61.1115 12.8451C67.4601 12.8152 73.8101 12.8451 80.1587 12.8198C82.0466 12.8129 82.7354 13.0153 82.7381 15.0689C82.756 26.3814 82.7523 37.6943 82.7273 49.0075C82.6929 49.326 82.7757 49.6458 82.9641 49.9217C83.1526 50.1977 83.4371 50.4161 83.7777 50.546C87.2079 52.1903 90.6115 53.8807 94.0149 55.5629C95.7287 56.4081 97.4063 57.3096 99.1509 58.103C99.5999 58.2907 99.9701 58.5934 100.21 58.9693C100.45 59.3452 100.548 59.7757 100.491 60.2015C100.467 67.3848 100.476 74.5681 100.476 81.7513C100.476 82.792 100.412 83.8372 100.495 84.8732C100.586 85.3353 100.481 85.8101 100.198 86.2111C99.9154 86.6121 99.4744 86.9127 98.9552 87.058C96.8489 87.7928 95.0199 88.9737 93.0087 89.8729C91.2668 90.6525 89.6051 91.6874 87.8645 92.4934C85.3964 93.6364 83.1508 95.0991 80.562 96.073C79.1779 96.5927 77.9798 97.4667 76.6185 98.0784C75.4942 98.5006 74.4334 99.0376 73.459 99.6779C73.2203 99.8668 72.9125 99.9788 72.5882 99.9947C72.264 100.011 71.9434 99.9296 71.6811 99.7653C68.6676 98.0404 65.3245 96.7951 62.3016 95.1025C60.3279 93.9986 58.1947 93.1477 56.2438 92.0427C54.9278 91.2904 53.5682 90.5957 52.1704 89.9614C50.0948 89.0323 48.0995 87.9928 46.0494 87.0327C45.5526 86.8783 45.0182 86.8352 44.4966 86.9074C30.7873 86.9035 17.078 86.9035 3.36875 86.9074C2.8837 86.9074 2.39873 86.8913 1.91368 86.8867C0.914091 86.8775 0.516144 86.4796 0.517484 85.593C0.542496 76.1196 0.547806 66.6462 0.533513 57.1728M27.986 43.9492V72.5811C27.986 76.3642 28.0103 80.1461 27.9647 83.9292C27.9567 84.6306 28.1992 84.7939 28.9696 84.7709C30.6258 84.7226 32.2886 84.7053 33.942 84.7709C34.88 84.8111 35.077 84.5409 35.0703 83.7809C35.0274 79.5827 35.0422 75.3868 35.0543 71.184C35.0543 69.7685 35.5137 69.3902 37.1404 69.3856C39.2843 69.3787 41.4282 69.3465 43.5721 69.4017C44.4591 69.4247 44.743 69.243 44.7242 68.4392C44.6599 65.8026 44.7325 63.1648 44.6869 60.5269C44.6489 60.0802 44.7805 59.6349 45.0625 59.258C45.3444 58.8811 45.7615 58.5928 46.2506 58.4365C47.6576 57.8374 49.1367 57.3797 50.5128 56.7002C51.1171 56.4023 51.1921 55.863 51.7991 55.6101C53.2261 55.0144 54.5327 54.2072 55.953 53.5978C56.2602 53.4968 56.5188 53.3099 56.6871 53.0673C56.8553 52.8246 56.9232 52.5404 56.8801 52.2605C56.8577 36.2274 56.861 20.1943 56.8896 4.16123C56.8896 3.23098 56.5171 3.11599 55.5778 3.11829C46.8825 3.14742 38.1873 3.14742 29.4921 3.11829C28.3304 3.11254 27.9473 3.28272 27.9513 4.38315C28.0062 17.5699 27.986 30.7578 27.986 43.9446M24.9162 53.9841V25.1545C24.9162 24.9119 24.9041 24.6681 24.9162 24.4266C24.951 23.8321 24.7689 23.5826 24.0051 23.8517C23.0229 24.1966 21.9951 24.4634 20.9955 24.7635C15.6693 26.3515 10.3581 27.9774 5.00506 29.4964C4.78718 29.5272 4.57841 29.5947 4.39103 29.6949C4.20365 29.7952 4.04124 29.9262 3.9131 30.0805C3.78495 30.2348 3.69377 30.4094 3.64452 30.5941C3.59528 30.7788 3.589 30.9701 3.6262 31.1568C3.65747 48.362 3.66444 65.5672 3.64747 82.7724C3.70391 83.1147 3.68183 83.4632 3.58204 83.7981C3.10905 84.6962 3.62893 84.7617 4.47576 84.7594C10.5054 84.7433 16.5215 84.7513 22.5458 84.7513C24.9121 84.7513 24.9136 84.7513 24.9136 82.7011V53.9841M59.9715 51.39C60.3568 51.3903 60.73 51.2752 61.0271 51.0646C64.3863 49.4249 67.7551 47.8001 71.0968 46.1374C71.5465 45.9112 72.0598 45.7948 72.581 45.8009C73.1023 45.807 73.6117 45.9353 74.0541 46.1719C75.6026 46.8526 77.1088 47.6018 78.5669 48.4165C79.6227 49.027 79.632 48.6257 79.6307 47.8645C79.62 37.5624 79.624 27.2603 79.6428 16.9582C79.6428 16.205 79.4659 15.9624 78.5279 15.9681C72.7475 16.0088 66.9672 16.0088 61.1867 15.9681C60.1443 15.9589 59.9472 16.2315 59.9486 17.0709C59.9825 28.2055 59.9902 39.3401 59.9715 50.4747V51.39ZM74.0632 85.0411H74.074C74.074 88.5425 74.0742 92.0438 74.0809 95.5464C74.0809 95.8775 73.8811 96.3179 74.2536 96.5192C74.6998 96.7606 75.0575 96.3593 75.43 96.1742C82.3842 92.7246 89.3279 89.2692 96.3009 85.8541C96.6441 85.7294 96.9324 85.5148 97.125 85.2409C97.3175 84.9671 97.4041 84.648 97.3726 84.3293C97.3378 77.6037 97.354 70.8758 97.3513 64.1513C97.3513 63.7063 97.5174 63.1165 97.0337 62.8934C96.4883 62.6381 95.9068 62.9946 95.3856 63.2533C90.3756 65.7428 85.3362 68.1851 80.3785 70.747C79.3856 71.2599 78.0712 71.1299 77.3489 71.8567C76.5303 72.5982 75.555 73.1995 74.4748 73.6286C74.3335 73.668 74.2132 73.7492 74.1352 73.8576C74.0572 73.9661 74.0263 74.0948 74.0485 74.2208C74.0887 77.8256 74.0727 81.4317 74.0727 85.0377M64.0904 70.4274C64.0904 73.0928 64.1051 75.5903 64.0904 78.0867C64.0783 79.5677 62.8977 80.1449 61.4278 79.4366C59.8923 78.6961 58.3743 77.9165 56.7878 77.2634C55.9644 77.0269 55.2651 76.5478 54.8142 75.9111C54.3634 75.2743 54.19 74.521 54.3249 73.785C54.5352 71.8233 54.377 69.8329 54.3703 67.8539C54.3703 66.6535 54.7723 65.2518 52.5976 65.0655C52.5668 65.0655 52.5428 65.0184 52.5106 64.9988C51.3542 64.2962 50.2329 63.5569 49.027 62.9037C47.8666 62.269 47.8209 62.3092 47.8209 63.4787C47.8209 70.1767 47.8732 76.8747 47.7741 83.5716C47.686 84.1223 47.8109 84.6827 48.1297 85.1666C48.4484 85.6506 48.9434 86.0314 49.5386 86.2508C50.439 86.6486 51.3129 87.1086 52.208 87.5317C56.5922 89.6073 60.8974 91.8047 65.232 93.9561C67.1321 94.899 69.0361 95.835 71.0955 96.8515V84.9158C71.0955 81.3412 71.0955 77.7666 71.0955 74.192C71.1614 73.8767 71.0817 73.5517 70.8734 73.2858C70.6651 73.0199 70.3445 72.834 69.9794 72.7674C68.2836 72.3763 66.6755 71.7456 65.2212 70.9011C64.8595 70.7113 64.4782 70.5504 64.0822 70.4205M49.343 59.9911C51.4561 61.034 53.3628 61.9332 55.2173 62.9118C55.471 63.0736 55.7785 63.1618 56.0946 63.1634C56.4108 63.1651 56.7192 63.0801 56.9753 62.921C64.1332 59.3518 71.3018 55.7975 78.4811 52.2582C79.2436 51.8833 79.0601 51.6833 78.4638 51.3877C76.8881 50.6116 75.2828 49.8722 73.7607 49.0236C73.4094 48.8024 72.9835 48.6861 72.548 48.6923C72.1124 48.6986 71.6911 48.827 71.3487 49.0581C67.3517 51.0876 63.3092 53.0597 59.2894 55.0535L49.3391 59.9911M95.7782 59.9784C93.5003 58.8516 91.4247 57.8213 89.3464 56.7864C88.9338 56.5817 88.6593 56.8473 88.3605 56.9945C85.9834 58.1697 83.6142 59.3552 81.2385 60.5327C76.4532 62.9037 71.6685 65.2763 66.884 67.6504C66.5142 67.8355 65.508 68.0069 66.6322 68.5565C68.3741 69.4097 70.1158 70.2606 71.8443 71.1322C72.0702 71.2687 72.3404 71.3412 72.6167 71.3396C72.893 71.3379 73.1618 71.2622 73.3854 71.123C75.737 69.9444 77.8997 68.5266 80.404 67.5205C83.5716 66.2476 86.5302 64.5906 89.5718 63.0877C91.5817 62.0931 93.5913 61.08 95.7808 59.983M38.1535 78.3615C38.1535 80.2013 38.179 82.0342 38.1388 83.8694C38.1254 84.5018 38.2525 84.8054 39.11 84.772C40.6818 84.7111 42.2588 84.726 43.8318 84.772C44.5286 84.7904 44.7148 84.5973 44.7108 84.012C44.6831 80.2703 44.6831 76.5286 44.7108 72.7869C44.7108 72.1717 44.4712 72.036 43.8093 72.051C42.2362 72.0878 40.6589 72.0947 39.0858 72.051C38.3475 72.0303 38.1131 72.2062 38.1319 72.8559C38.1842 74.6957 38.1492 76.5274 38.1492 78.3638M85.9096 55.1559C84.8377 54.5982 83.8675 54.0715 82.868 53.5978C82.608 53.4748 82.3587 53.2528 81.9072 53.5093C80.5565 54.282 79.1429 54.9742 77.7346 55.671C74.3419 57.3487 70.932 59.0057 67.538 60.6799C64.9693 61.9447 62.4155 63.2418 59.8455 64.5067C59.3323 64.7596 59.122 64.9172 59.8013 65.2253C60.6777 65.6128 61.5276 66.0428 62.3471 66.5132C62.7048 66.7236 62.8829 66.5132 63.092 66.4235C63.7927 66.1165 64.5259 65.829 65.1771 65.4783C70.104 62.8244 75.2613 60.5108 80.2378 57.9317C82.0869 56.9738 83.9894 56.0919 85.9122 55.157M57.4444 67.133C57.4444 69.4649 57.4711 71.5025 57.4323 73.5401C57.4162 74.4301 57.5047 75.1579 58.783 75.3224C59.1692 75.3999 59.5237 75.5656 59.8092 75.8019C60.0665 75.995 60.1897 76.3458 60.648 76.171C61.1062 75.9962 60.959 75.6455 60.9604 75.3523C60.9697 73.3814 60.9604 71.4117 60.9738 69.4408C60.9352 69.0752 60.7752 68.7268 60.5129 68.4369C59.8295 67.402 58.4051 68.0069 57.4444 67.133Z" fill="black"/>
<path d="M27.979 43.9468C27.979 30.76 27.9979 17.5721 27.9443 4.38532C27.9443 3.28144 28.3234 3.11126 29.4851 3.12046C38.1795 3.16185 46.8747 3.16185 55.5708 3.12046C56.5088 3.12046 56.884 3.23545 56.8826 4.16339C56.8451 20.1965 56.8422 36.2296 56.8735 52.2626C56.9166 52.5426 56.8484 52.8268 56.6801 53.0694C56.5119 53.3121 56.2533 53.499 55.946 53.6C54.5257 54.2094 53.2195 55.0166 51.7925 55.6122C51.1855 55.8664 51.1102 56.4045 50.5059 56.7023C49.1284 57.3807 47.6493 57.8395 46.2424 58.4386C45.7532 58.5949 45.3365 58.8832 45.0546 59.2602C44.7726 59.6371 44.6406 60.0824 44.6787 60.5291C44.7242 63.1658 44.652 65.8047 44.7163 68.4414C44.7351 69.2463 44.4482 69.4268 43.5638 69.4038C41.4199 69.3486 39.276 69.3808 37.1321 69.3877C35.5054 69.3877 35.05 69.7706 35.046 71.1861C35.0339 75.3855 35.0179 79.5802 35.0607 83.783C35.0688 84.5454 34.8704 84.8179 33.9325 84.7731C32.279 84.7029 30.6162 84.7202 28.9601 84.7731C28.1896 84.7961 27.9471 84.6328 27.9551 83.9313C27.9993 80.1494 27.9764 76.3663 27.9764 72.5832L27.979 43.9468ZM33.4984 50.8276C33.3362 50.8184 33.2692 50.8805 33.3053 51.0185C33.3053 51.0875 33.2959 51.1576 33.2959 51.2266C33.2717 53.485 33.273 53.485 35.9355 53.485C38.1812 53.485 38.1533 53.485 38.1305 51.5601C38.1238 50.9851 37.9616 50.7655 37.2554 50.7943C36.0053 50.846 34.7511 50.8207 33.5036 50.8276M50.5206 51.0277L50.6668 50.8724L50.4885 50.8483C49.1164 50.8345 47.7443 50.815 46.3735 50.8127C46.0801 50.8127 45.6621 50.7103 45.6607 51.1484C45.5408 51.8653 45.5789 52.5951 45.7733 53.2998C45.9984 53.7598 46.9553 53.47 47.5784 53.4712C48.4949 53.4712 49.6551 53.8161 50.2661 53.3205C50.8771 52.8249 50.3276 51.8038 50.5206 51.0277ZM35.7039 11.2616C35.2222 11.284 34.7392 11.2809 34.258 11.2524C33.4205 11.1627 33.2705 11.4927 33.2759 12.1366C33.2906 13.9373 33.2597 13.9373 35.3473 13.9373C35.9503 13.9373 36.5534 13.9028 37.155 13.9465C37.8558 13.9971 38.1331 13.8419 38.1331 13.1658C38.1331 11.2616 38.1746 11.2616 35.9437 11.2616H35.7039ZM48.1397 11.2616C45.6421 11.2616 45.7038 11.2616 45.6234 12.8829C45.5806 13.7453 45.8644 14.0569 46.876 13.9511C47.5553 13.8768 48.2429 13.8768 48.9222 13.9511C50.171 14.0949 50.5906 13.7212 50.4941 12.623C50.3601 11.0546 50.7057 11.2869 48.8633 11.2616C48.6222 11.2616 48.3809 11.2616 48.1397 11.2616ZM35.6676 43.5615C38.1116 43.5615 38.125 43.5615 38.1089 42.3105C38.0875 40.6938 38.4012 40.9306 36.4422 40.9019C35.9196 40.895 35.3971 40.9019 34.8759 40.9019C32.9598 40.918 33.391 40.7869 33.2396 42.2725C33.123 43.4075 33.6283 43.7271 34.8249 43.5673C35.1054 43.5488 35.387 43.5488 35.6676 43.5673M38.089 33.7163C38.0022 33.4297 37.934 33.1391 37.8852 32.8459C37.7204 31.0348 37.7244 31.0348 35.6074 31.0348H35.4867C33.0654 31.0348 33.0748 31.0348 33.2543 33.0977C33.2905 33.5174 33.398 33.7301 33.9406 33.7221C35.3033 33.7025 36.6674 33.7152 38.0864 33.7152M48.09 33.7152C48.693 33.7152 49.2961 33.7255 49.899 33.7152C50.1483 33.7083 50.396 33.7692 50.3812 33.3472C50.3035 31.0417 50.3277 31.0406 47.6304 31.0406C47.4303 31.0566 47.2289 31.0566 47.0288 31.0406C45.8229 30.8416 45.5549 31.2958 45.6192 32.2675C45.721 33.7221 45.6447 33.7267 47.3612 33.7267C47.6023 33.7267 47.8436 33.7267 48.0848 33.7267M48.0043 43.5788C50.2487 43.5788 50.2487 43.5788 50.2487 42.4692C50.2487 40.918 50.2488 40.918 48.3877 40.918C47.9446 40.945 47.4995 40.9419 47.0569 40.9088C45.8751 40.7444 45.5376 41.1388 45.6126 42.1438C45.7212 43.5742 45.6394 43.5788 47.2768 43.5799H48.003M35.59 23.7906C36.1139 23.7906 36.6404 23.7573 37.1589 23.7987C37.8637 23.8538 38.1358 23.6837 38.1358 23.0121C38.1358 21.1723 38.1774 21.1723 36.0938 21.1723C35.652 21.197 35.2087 21.1943 34.7673 21.1643C33.5962 21.016 33.1311 21.323 33.2383 22.4292C33.3723 23.7849 33.2692 23.7918 34.8664 23.7918H35.5913M47.9536 23.7918C50.3655 23.7918 50.3385 23.7918 50.2769 21.8243C50.2621 21.3402 50.1336 21.1459 49.5467 21.1712C48.7856 21.2045 48.0218 21.1781 47.2594 21.1792C45.6515 21.1792 45.7386 21.1792 45.6247 22.5246C45.5363 23.5595 45.8845 23.9895 47.1132 23.7987C47.3929 23.7756 47.6748 23.7736 47.9549 23.7929" fill="#FFC0A1"/>
<path d="M24.9147 53.9819V82.7035C24.9147 84.7537 24.9146 84.7537 22.5469 84.7537C16.5173 84.7537 10.4999 84.7468 4.4769 84.7617C3.63007 84.7617 3.10885 84.6985 3.58318 83.8004C3.68297 83.4655 3.70505 83.1171 3.64861 82.7748C3.64861 65.5696 3.64164 48.364 3.62734 31.158C3.59032 30.9713 3.59667 30.7801 3.64599 30.5954C3.69531 30.4108 3.78645 30.2363 3.91456 30.082C4.04268 29.9277 4.20521 29.7967 4.3925 29.6964C4.57979 29.5961 4.78808 29.5286 5.00587 29.4976C10.3589 27.9786 15.6705 26.3527 20.9967 24.7647C22.0016 24.4658 23.0228 24.2002 24.0049 23.8529C24.7687 23.5827 24.9508 23.8345 24.916 24.4278C24.9013 24.6705 24.916 24.9131 24.916 25.1557L24.9147 53.9819Z" fill="#FF5500"/>
<path d="M59.9739 51.3866V50.4667C59.9739 39.3321 59.9662 28.1975 59.951 17.0629C59.951 16.2235 60.1468 15.9521 61.1892 15.9601C66.9688 16.0069 72.7491 16.0069 78.5304 15.9601C79.4684 15.9532 79.648 16.197 79.6453 16.9502C79.6167 27.2523 79.6126 37.5544 79.6332 47.8565C79.6332 48.6166 79.6252 49.019 78.5693 48.4085C77.1113 47.5938 75.6051 46.8446 74.0566 46.1639C73.6142 45.9271 73.1048 45.7988 72.5835 45.7927C72.0622 45.7866 71.549 45.903 71.0993 46.1294C67.7562 47.7933 64.3878 49.4169 61.0299 51.0566C60.7332 51.267 60.3602 51.3821 59.9753 51.382" fill="#FF5500"/>
<path d="M74.0578 85.0411C74.0578 81.4351 74.0738 77.8291 74.0336 74.2242C74.0114 74.0982 74.0422 73.9695 74.1203 73.8611C74.1983 73.7526 74.3186 73.6715 74.4598 73.632C75.5399 73.2033 76.5153 72.6024 77.334 71.8612C78.0562 71.1345 79.3706 71.2645 80.3635 70.7516C85.3213 68.1897 90.3647 65.7474 95.3706 63.2579C95.8919 62.9992 96.4747 62.6427 97.0187 62.898C97.5011 63.1279 97.3364 63.7098 97.3364 64.1559C97.3364 70.8815 97.3228 77.6094 97.3576 84.3339C97.3893 84.6526 97.3029 84.9718 97.1103 85.2457C96.9178 85.5195 96.6293 85.7341 96.2859 85.8587C89.3183 89.2738 82.3692 92.7349 75.415 96.1788C75.0479 96.3605 74.6862 96.7629 74.2387 96.5237C73.8662 96.3225 74.0673 95.8821 74.0673 95.5509C74.0552 92.0496 74.0591 88.5482 74.0591 85.0457L74.0578 85.0411Z" fill="#FFC0A1"/>
<path d="M64.0902 70.4237C64.4862 70.5538 64.8675 70.7147 65.2293 70.9044C66.6836 71.7487 68.2914 72.3794 69.9871 72.7706C70.3524 72.837 70.6734 73.0229 70.8818 73.2888C71.0901 73.5548 71.1695 73.8799 71.1032 74.1953C71.0961 77.7699 71.0961 81.3445 71.1032 84.9191V96.8433C69.0438 95.8268 67.1398 94.8885 65.2397 93.9479C60.9037 91.7965 56.5986 89.6002 52.2157 87.5235C51.322 87.1004 50.4471 86.6416 49.5467 86.2426C48.9514 86.0232 48.4565 85.6424 48.1377 85.1584C47.8189 84.6745 47.6941 84.1141 47.7821 83.5634C47.8813 76.8665 47.8262 70.1685 47.8289 63.4705C47.8289 62.3022 47.8703 62.2619 49.0347 62.8955C50.2272 63.5486 51.3569 64.288 52.5186 64.9906C52.5508 65.0101 52.5748 65.0538 52.6056 65.0573C54.7844 65.2435 54.3757 66.6452 54.3784 67.8457C54.3784 69.8235 54.5433 71.8151 54.3316 73.7768C54.1968 74.513 54.3702 75.2663 54.8213 75.9031C55.2724 76.5399 55.9719 77.0189 56.7955 77.2551C58.382 77.9083 59.899 78.6867 61.4359 79.4284C62.9098 80.1379 64.0863 79.5606 64.0984 78.0796C64.1185 75.5832 64.0984 73.0857 64.0984 70.4203M50.7407 82.7423C50.6697 83.4323 51.2844 83.7772 51.9262 84.1003C53.7418 85.0064 55.5791 85.8804 57.3719 86.8164C58.3099 87.3085 58.9289 86.8785 59.4381 86.3323C59.5705 86.2075 59.6677 86.0583 59.722 85.8961C59.7764 85.7339 59.7865 85.5632 59.7515 85.3971C59.7165 85.2311 59.6373 85.0742 59.5202 84.9386C59.4031 84.8031 59.2512 84.6925 59.0763 84.6155C57.053 83.5381 54.9919 82.5043 52.8896 81.5476C52.6591 81.443 52.4003 81.3931 52.1398 81.4032C51.8793 81.4132 51.627 81.4828 51.4083 81.6048C51.1897 81.7267 51.0128 81.8966 50.8964 82.0968C50.7799 82.297 50.7281 82.5203 50.7459 82.7435" fill="#FFC0A1"/>
<path d="M49.3481 59.9943C52.8145 58.2695 56.0558 56.6597 59.2985 55.0568C63.3182 53.0629 67.3568 51.0909 71.3578 49.0613C71.7002 48.8303 72.1215 48.7018 72.5571 48.6956C72.9926 48.6893 73.4185 48.8057 73.7697 49.0268C75.2919 49.8754 76.8971 50.6136 78.4742 51.391C79.0705 51.6842 79.2526 51.8866 78.4902 52.2614C71.31 55.7977 64.1418 59.3515 56.9857 62.9231C56.7297 63.0824 56.4215 63.1675 56.1053 63.1661C55.7892 63.1646 55.4819 63.0767 55.228 62.915C53.3762 61.9365 51.4681 61.0361 49.3537 59.9932" fill="#FFC0A1"/>
<path d="M95.7889 59.9817C93.5928 61.081 91.5935 62.0952 89.5796 63.0864C86.538 64.5893 83.5794 66.2462 80.4118 67.5192C77.9075 68.5253 75.7461 69.9431 73.3932 71.1217C73.1696 71.2611 72.9008 71.3369 72.6245 71.3385C72.3481 71.3402 72.0783 71.2676 71.8524 71.1309C70.1239 70.2593 68.3805 69.4061 66.6386 68.5552C65.5158 68.0055 66.5207 67.8342 66.8918 67.6491C71.6682 65.2658 76.4529 62.8932 81.2453 60.5314C83.621 59.355 85.9913 58.1684 88.367 56.9932C88.6658 56.846 88.9419 56.5804 89.3533 56.7851C91.4342 57.82 93.5162 58.8548 95.7846 59.9771" fill="#FFC0A1"/>
<path d="M38.1482 78.3594C38.1482 76.5196 38.1815 74.6867 38.1305 72.8515C38.1118 72.1995 38.3478 72.0224 39.0848 72.0466C40.6579 72.0914 42.2348 72.0845 43.8079 72.0466C44.4685 72.0316 44.7151 72.1616 44.7098 72.7825C44.6767 76.5234 44.6767 80.2647 44.7098 84.0064C44.7098 84.5917 44.5262 84.7849 43.8308 84.7665C42.2577 84.7251 40.6794 84.7101 39.109 84.7665C38.2514 84.7998 38.124 84.4963 38.1374 83.8638C38.1776 82.024 38.1508 80.1923 38.1508 78.3559" fill="#FF5500"/>
<path d="M85.9082 55.1514C83.9867 56.0885 82.0826 56.9682 80.2335 57.9261C75.257 60.5052 70.0996 62.8188 65.174 65.4727C64.5215 65.8234 63.79 66.1109 63.0892 66.4179C62.8789 66.511 62.7021 66.718 62.3443 66.5076C61.5248 66.0373 60.6746 65.6073 59.7983 65.2197C59.1189 64.9127 59.3293 64.7598 59.8425 64.501C62.4138 63.2362 64.9663 61.9426 67.5349 60.6743C70.929 58.9989 74.3379 57.3396 77.7319 55.6654C79.1402 54.9697 80.5538 54.2763 81.9044 53.5036C82.356 53.2461 82.6053 53.4691 82.8652 53.5922C83.8648 54.0671 84.8309 54.5926 85.9069 55.1503" fill="#FF5500"/>
<path d="M57.4401 67.126C58.3995 67.9999 59.8239 67.3905 60.5073 68.4299C60.7695 68.7199 60.9294 69.0683 60.9682 69.4338C60.9494 71.4047 60.9682 73.3744 60.9548 75.3453C60.9548 75.6385 61.0889 75.9938 60.6427 76.164C60.1965 76.3342 60.0612 75.9881 59.8039 75.7949C59.5184 75.5586 59.1636 75.3929 58.7774 75.3154C57.4991 75.151 57.4093 74.4231 57.4267 73.5331C57.4655 71.4955 57.4401 69.4579 57.4401 67.126Z" fill="#FF5500"/>
<path d="M35.7039 11.262H35.945C38.1773 11.262 38.1358 11.262 38.1345 13.1662C38.1345 13.8412 37.8571 13.9975 37.1563 13.9469C36.5574 13.9044 35.9506 13.9377 35.3489 13.9377C33.26 13.9377 33.292 13.9377 33.2772 12.137C33.2772 11.4931 33.4221 11.1631 34.2596 11.2528C34.7408 11.2814 35.2222 11.2844 35.7039 11.262Z" fill="black"/>
<path d="M48.1397 11.2617C48.3809 11.2617 48.6221 11.2617 48.8633 11.2617C50.7057 11.287 50.3574 11.0547 50.494 12.6232C50.5892 13.7202 50.171 14.095 48.9222 13.9513C48.2429 13.8769 47.5556 13.8769 46.8763 13.9513C45.866 14.0582 45.5818 13.7454 45.6234 12.883C45.7038 11.264 45.6434 11.2617 48.1397 11.2617Z" fill="black"/>
<path d="M50.5207 51.0279C50.3278 51.8041 50.8853 52.8194 50.2662 53.3208C49.6472 53.8221 48.4947 53.4714 47.5782 53.4714C46.9551 53.4714 45.9999 53.7577 45.7734 53.3001C45.5789 52.5953 45.5408 51.8655 45.6609 51.1486C45.6609 50.7094 46.0803 50.8117 46.3737 50.8129C47.7458 50.8129 49.1179 50.8359 50.4887 50.8485C50.4871 50.9094 50.4988 50.97 50.5207 51.0279Z" fill="black"/>
<path d="M35.6691 43.5571C35.3886 43.5387 35.1066 43.5387 34.8261 43.5571C33.6282 43.7181 33.1233 43.3973 33.2399 42.2624C33.3913 40.7802 32.9597 40.9078 34.8758 40.8917C35.3984 40.8917 35.9209 40.886 36.4421 40.8917C38.4011 40.9159 38.0864 40.6836 38.1092 42.3003C38.1266 43.5514 38.1092 43.5514 35.6678 43.5514" fill="black"/>
<path d="M33.4987 50.8279C34.7516 50.821 36.0055 50.8462 37.2503 50.7945C37.9564 50.7658 38.1173 50.9819 38.1253 51.5603C38.1481 53.4852 38.1777 53.4852 35.9306 53.4852C33.2669 53.4852 33.2669 53.4852 33.2897 51.2269C33.2897 51.1579 33.2895 51.0877 33.2989 51.0187L33.4919 50.8279" fill="black"/>
<path d="M38.0902 33.7121C36.6699 33.7121 35.3072 33.6994 33.9431 33.719C33.4072 33.727 33.2917 33.5143 33.2568 33.0946C33.0826 31.0306 33.0679 31.0317 35.4892 31.0317H35.6112C37.7269 31.0317 37.7228 31.0317 37.889 32.8428C37.9379 33.136 38.006 33.4266 38.0928 33.7132" fill="black"/>
<path d="M48.0925 33.7119H47.3689C45.6471 33.7119 45.7237 33.7119 45.6272 32.2527C45.5589 31.2811 45.8349 30.8257 47.0368 31.0258C47.2369 31.0418 47.4383 31.0418 47.6384 31.0258C50.3357 31.0258 50.3116 31.0258 50.3879 33.3325C50.4013 33.7545 50.1547 33.6935 49.9054 33.7004C49.3038 33.7165 48.6997 33.7004 48.0967 33.7085" fill="black"/>
<path d="M48.0137 43.5617H47.2875C45.6501 43.5617 45.7319 43.5617 45.6234 42.1255C45.547 41.1217 45.8912 40.7261 47.0677 40.8906C47.5102 40.9237 47.9553 40.9268 48.3984 40.8997C50.2623 40.8997 50.2622 40.8998 50.2595 42.4509C50.2595 43.5606 50.2594 43.5606 48.015 43.5606" fill="black"/>
<path d="M35.5899 23.791H34.865C33.2678 23.791 33.3695 23.7829 33.2369 22.4284C33.1297 21.3279 33.5948 21.0209 34.7659 21.1635C35.2072 21.1938 35.6505 21.1969 36.0924 21.1727C38.1746 21.1727 38.133 21.1727 38.1343 23.0125C38.1343 23.6829 37.8664 23.8542 37.1575 23.799C36.639 23.7588 36.1125 23.791 35.5899 23.791Z" fill="black"/>
<path d="M47.9508 23.7909C47.6707 23.7716 47.3892 23.7735 47.1094 23.7966C45.8807 23.9887 45.5322 23.5597 45.6207 22.5237C45.7346 21.183 45.6488 21.1784 47.2553 21.1772C48.0178 21.1772 48.7816 21.2037 49.5426 21.1692C50.1295 21.1439 50.258 21.3382 50.2728 21.8223C50.3344 23.7909 50.3574 23.7897 47.9495 23.7897" fill="black"/>
<path d="M33.4982 50.828L33.3052 51.0189C33.2704 50.8809 33.3361 50.8188 33.4982 50.828Z" fill="#689FF2"/>
<path d="M50.5208 51.028C50.4988 50.9701 50.4885 50.9095 50.49 50.8486L50.6683 50.8728L50.5208 51.028Z" fill="#689FF2"/>
<path d="M50.7309 82.7473C50.7131 82.5241 50.7653 82.3008 50.8818 82.1006C50.9982 81.9004 51.1748 81.7306 51.3934 81.6086C51.612 81.4867 51.8647 81.4171 52.1252 81.407C52.3857 81.397 52.6445 81.4468 52.875 81.5515C54.9773 82.5093 57.0394 83.5419 59.0613 84.6193C59.2363 84.6963 59.3881 84.8069 59.5052 84.9425C59.6223 85.078 59.7015 85.2349 59.7365 85.401C59.7715 85.567 59.7614 85.7378 59.7071 85.9C59.6527 86.0621 59.5556 86.2113 59.4231 86.3361C58.9126 86.8834 58.3003 87.3123 57.357 86.8202C55.5628 85.8842 53.7258 85.0103 51.9116 84.1042C51.2684 83.7834 50.6547 83.435 50.7257 82.7462" fill="black"/>
</g>
<defs>
<clipPath id="clip0_307_136">
<rect width="100" height="100" fill="white" transform="translate(0.5)"/>
</clipPath>
</defs>
</svg>
