<svg width="101" height="100" viewBox="0 0 101 100" fill="none" xmlns="http://www.w3.org/2000/svg">
<g clip-path="url(#clip0_307_2)">
<path d="M92.6337 79.9494C92.4139 80.284 92.1922 80.6175 91.974 80.9532C91.5836 81.6799 91.0655 82.2632 90.4667 82.6503C89.8678 83.0374 89.2071 83.2161 88.5444 83.1702C86.0342 82.9736 83.5087 83.1702 80.9892 83.084C80.312 83.0596 79.6525 83.3773 79.1386 83.9751C77.4459 85.7689 75.7506 87.5593 74.0791 89.3887C73.9215 89.5742 73.7266 89.6921 73.5193 89.7273C73.3121 89.7625 73.1018 89.7135 72.9152 89.5865C72.7215 89.4772 72.5581 89.2884 72.4478 89.0466C72.3376 88.8049 72.2859 88.5223 72.3005 88.2388C72.337 86.9004 72.3193 85.5585 72.293 84.2143C72.2862 83.8532 72.4856 83.2254 72.1052 83.1794C71.5798 83.1081 70.9093 82.7332 70.5069 83.3864C69.0745 85.7111 67.5078 87.8778 65.8217 89.8659C64.7291 91.0711 63.5853 92.1888 62.3963 93.2132C59.999 95.3298 57.3722 96.926 54.611 97.9438C53.3492 98.6375 52.0277 99.1119 50.6779 99.3558C49.0998 99.4202 47.5812 100.26 46.0013 99.9181C44.9201 99.8142 43.8346 99.8212 42.7542 99.9388C42.3109 100.014 41.8628 99.8617 41.4986 99.5111C41.418 99.4168 41.2779 99.273 41.2202 99.3098C39.8136 100.206 38.5266 99.1305 37.2193 98.8004C34.1752 97.9143 31.2553 96.3752 28.5697 94.2412C22.1693 89.4209 17.1215 81.8753 14.2087 72.7742C13.0663 69.0996 12.2598 65.2496 11.8072 61.3099C11.5158 58.1484 11.4212 54.9593 11.5245 51.7763C11.6032 49.4297 11.8632 47.1008 12.3003 44.8276C12.3759 44.401 12.4243 43.9652 12.505 43.3972C10.5202 43.3972 8.56346 43.4328 6.60842 43.3834C5.42165 43.503 4.22855 43.4289 3.05485 43.1626C2.35914 42.9026 1.74117 42.3538 1.2877 41.5933C0.834227 40.8329 0.568151 39.899 0.52687 38.923C0.522626 27.6324 0.552289 16.3406 0.497958 5.05117C0.478125 4.39305 0.558015 3.73641 0.732777 3.12175C0.907538 2.50709 1.17351 1.94744 1.51412 1.47735C1.85473 1.00726 2.26276 0.636683 2.71319 0.388488C3.16362 0.140293 3.64683 0.0197423 4.13298 0.0342713C12.3487 -0.000224981 20.5646 -0.0243712 28.7795 0.0480709C29.2923 0.0294806 29.8023 0.15648 30.2768 0.420899C30.7512 0.685319 31.1795 1.08131 31.5342 1.5834C31.8889 2.08549 32.1621 2.68257 32.3362 3.33624C32.5103 3.98992 32.5815 4.68571 32.5452 5.37889C32.535 7.53145 32.5758 9.68517 32.5265 11.8366C32.5087 12.6288 32.8143 12.615 33.1352 12.4207C35.1025 11.3826 37.1395 10.6059 39.2176 10.1014C39.8537 9.92369 40.5004 9.82439 41.1497 9.80476C43.1579 9.53286 45.1802 9.50976 47.1915 9.73576C50.818 10.4015 54.431 11.0846 57.7893 13.1934C61.675 15.5074 65.2176 18.7597 68.2437 22.7914C71.6617 27.3145 74.2908 32.8144 75.939 38.8897C76.0009 39.1754 76.1379 39.4206 76.3239 39.5792C76.5099 39.7378 76.7322 39.7989 76.9492 39.7509C80.6368 39.7141 84.3262 39.8015 88.0122 39.7049C90.2448 39.6463 91.8171 40.7559 92.6329 43.6295L92.6337 79.9494ZM39.9163 17.7987C39.7388 17.8803 39.7694 18.1011 39.7397 18.2816C39.5801 18.3817 39.4359 18.5013 39.4223 18.7738C39.3978 18.8461 39.3843 18.9243 39.3824 19.0038C39.2126 19.09 39.238 19.3165 39.1973 19.4947C39.1332 19.5692 39.0761 19.6542 39.0275 19.7477C37.126 25.022 35.7962 30.6403 35.0792 36.429C34.9943 37.043 35.0945 37.6708 35.7023 37.5167C36.7048 37.2626 37.7295 37.4466 38.7176 37.227C40.7523 36.9423 42.7987 36.8397 44.8434 36.9199C46.4827 36.8498 48.1626 36.9728 49.8247 37.0027H50.172C50.7062 37.3826 51.3287 37.4651 51.9071 37.2327C52.1031 37.1024 52.3227 37.0515 52.5396 37.0859C52.7564 37.1204 52.9612 37.2388 53.1296 37.427C53.2883 37.5382 53.4637 37.5987 53.6423 37.6041C53.8209 37.6095 53.998 37.5595 54.1602 37.4581C54.4997 37.212 54.3656 36.5474 54.2909 36.1185C54.0761 34.887 53.9513 33.6256 53.7382 32.4055C52.734 26.7528 51.5022 21.1816 48.8511 16.4786C47.9461 14.8688 46.9657 13.0853 45.1617 13.1566C45.1295 13.0313 45.0828 12.9336 44.9665 12.9646H44.598C44.5716 12.9472 44.5426 12.9382 44.5131 12.9382C44.4837 12.9382 44.4547 12.9472 44.4283 12.9646C43.7066 13.129 43.024 13.5231 42.4367 14.1145C42.2924 14.1605 42.1158 14.126 42.059 14.3905C41.2703 15.2737 40.6062 16.3431 40.0989 17.5469L39.9197 17.7906M52.5142 17.809L52.6898 18.0781C52.9956 19.1748 53.3759 20.2307 53.8257 21.2322C53.8095 21.4127 53.7824 21.599 53.9522 21.6853L53.9674 21.714C54.009 21.9624 53.8682 22.2889 54.1288 22.4442C54.1367 22.5228 54.1512 22.6 54.1721 22.6742C54.3419 23.3342 54.5337 23.9873 54.6891 24.6554C55.1237 26.5159 55.5448 28.3821 55.9718 30.2461C55.9774 30.4761 55.9828 30.7091 55.9879 30.9452C56.2748 33.0495 56.5821 35.1491 56.8368 37.2603C56.8987 37.7732 57.0389 38.1871 57.3784 38.232C59.96 38.5769 62.3699 40.1246 65.0746 39.8107C67.8412 39.4899 70.6443 39.7394 73.5535 39.7394C71.3526 31.8919 67.4474 25.1321 62.353 20.3514C59.3063 17.379 52.2509 13.6568 50.638 14.0639L52.0167 16.8328C52.0328 17.1042 52.1729 17.226 52.335 17.3203L52.3443 17.3318C52.374 17.5101 52.3444 17.7251 52.5142 17.8113V17.809ZM37.5733 85.0698C37.5821 85.1484 37.5973 85.2255 37.6183 85.2998L38.5165 87.9951C38.4834 88.2055 38.4655 88.4067 38.6591 88.4987C38.6617 88.578 38.6749 88.6559 38.6981 88.7287C38.6735 88.8874 38.7457 88.9506 38.8399 88.992C38.8421 89.0713 38.8554 89.1494 38.879 89.222C38.8543 89.3807 38.9257 89.4428 39.0199 89.483C39.4995 90.5351 39.9316 91.6333 40.4681 92.6291C41.7949 95.091 43.345 97.0503 45.8629 96.4754C46.2067 96.2006 46.9088 96.9963 46.9495 95.8108C47.604 94.8345 48.3231 93.9227 48.9021 92.8694C50.3688 90.0846 51.4992 87.0017 52.251 83.7359C53.1169 80.2403 53.6619 76.6585 54.3011 73.0973C54.4386 72.3303 54.3316 71.7646 53.5557 71.9003C52.3307 72.1621 51.0948 72.3211 49.8553 72.3763C45.8799 72.3947 41.9028 72.5362 37.929 72.1843C37.4332 72.1406 37.0368 71.2966 36.7711 71.5714C36.2354 72.1257 35.5079 71.5289 35.1887 72.0567C34.788 72.7201 35.2999 73.5515 35.4026 74.315C35.4187 74.43 35.4162 74.5576 35.4315 74.6772C35.8354 77.9854 36.4934 81.2272 37.395 84.35C37.4714 84.5903 37.3169 84.9364 37.5809 85.0905L37.5733 85.0698ZM41.9028 40.4547C40.8221 40.3672 39.7376 40.4529 38.6718 40.7099C37.4052 40.841 36.1429 41.0399 34.8772 41.186C34.5996 41.2182 34.5427 41.3907 34.5249 41.7218C34.4137 43.7996 34.1946 45.8763 34.1853 47.9541C34.0395 54.4993 34.1529 61.0503 34.5249 67.579C34.5622 68.0746 34.6038 68.4426 35.052 68.4863C36.586 68.6346 38.1183 68.9336 39.6523 68.9463C44.4581 69.1443 49.2682 68.9907 54.0617 68.4863C54.622 68.4093 54.8631 68.1574 54.8852 67.31C54.9166 66.1107 54.9616 64.8952 55.0737 63.7097C55.3759 60.4981 55.0897 57.2704 55.369 54.0508C55.442 53.216 55.1891 52.3179 55.2162 51.4256C55.2704 48.2042 55.1543 44.9817 54.869 41.7828C54.841 41.4114 54.8147 41.2147 54.4828 41.1733C51.9254 40.717 49.3498 40.4743 46.7704 40.4466C45.1595 40.0984 43.518 40.0984 41.907 40.4466M18.3429 44.8771C18.2928 44.3631 18.2912 44.2481 18.27 44.14C17.7182 41.2964 18.4576 39.9637 20.5875 39.9625C23.315 39.9625 26.0434 39.9545 28.771 39.9706C29.2532 39.9706 29.7234 39.928 29.8269 39.1887C29.9432 38.6112 30.0172 38.0196 30.0477 37.4224C30.0279 26.7838 30.0228 16.1452 30.0324 5.50652C30.0324 3.78171 29.7531 3.4103 28.4653 3.4103C20.4618 3.4103 12.458 3.4103 4.45391 3.4103C3.2909 3.4103 3.04894 3.73687 3.04894 5.31795C3.04894 16.2801 3.04894 27.2422 3.04894 38.2044C3.04894 39.5014 3.37581 39.9545 4.3164 39.9556C6.89454 39.9614 9.47437 40.0361 12.05 39.9223C12.5927 39.8808 13.1359 39.9893 13.6466 40.2412C14.1574 40.493 14.6251 40.8829 15.0212 41.3872C16.011 42.5647 17.1027 43.5823 18.3463 44.8713M63.1289 61.4272C63.1289 66.8247 63.1289 72.2222 63.1289 77.6198C63.1289 79.601 63.2139 79.7079 64.73 79.7091H72.3701C74.3752 79.7091 74.7981 80.284 74.8228 83.0495C74.8228 83.2116 74.8228 83.3737 74.8228 83.5359C74.8228 84.0798 74.9585 84.2051 75.293 83.8337C76.2268 82.7988 77.1606 81.757 78.1139 80.7405C78.6917 80.0477 79.4383 79.6692 80.2099 79.678C82.9952 79.7574 85.7821 79.7079 88.5682 79.7068C89.8934 79.7068 90.1065 79.4538 90.1073 77.6094C90.1164 66.8144 90.1164 56.0194 90.1073 45.2243C90.1073 43.6985 89.7262 43.1488 88.62 43.1626C80.5961 43.265 72.5756 42.6509 64.5483 43.1523C63.398 43.2236 63.1272 43.5846 63.1264 45.1071C63.1264 50.5452 63.1264 55.9833 63.1264 61.4215M25.3124 43.3926C24.0246 43.3926 22.7369 43.4179 21.45 43.3799C20.9831 43.3661 20.8158 43.5478 20.8388 44.1975C20.8753 45.2094 20.8125 46.2282 20.8608 47.2378C20.8519 47.8365 20.7751 48.4299 20.6333 48.9971C20.4711 49.9319 19.4091 50.1654 18.7733 49.4754C17.6001 48.2048 17.4881 48.1565 16.4448 49.2972C15.8332 49.9509 15.2829 50.7035 14.8063 51.5383C14.318 52.3948 14.0383 53.4357 14.0057 54.517C13.9732 55.5982 14.1895 56.6665 14.6247 57.574C15.7341 59.6486 17.2142 61.3079 18.9261 62.3966C22.2849 64.6447 25.8484 66.2813 29.5239 67.264C30.2031 67.4779 30.9026 67.6331 31.5978 67.7538C31.8822 67.8033 32.1581 67.9482 32.0707 67.1042C31.8265 64.7602 31.6895 62.3981 31.6606 60.0313C31.5274 54.2181 31.6408 48.3993 32.0002 42.6038C32.0214 42.3129 32.0851 41.8299 31.9943 41.7598C31.6929 41.5298 31.4764 41.8828 31.2303 42.13C30.4533 43.0063 29.4656 43.4651 28.4551 43.419C27.411 43.3305 26.3601 43.3995 25.3142 43.4006M32.9034 74.7451C32.833 73.6182 32.5893 72.5316 32.5189 71.4104C32.5029 71.3587 32.4774 71.3134 32.4449 71.2788C32.4123 71.2442 32.3738 71.2214 32.333 71.2127C31.8491 71.2541 31.4366 70.8343 30.9816 70.8044C28.1953 70.4573 25.455 69.6133 22.8319 68.2943C20.7906 67.5265 18.8497 66.3336 17.0789 64.7584C16.4122 64.1736 15.7722 63.535 15.1621 62.8462C15.1027 62.7536 15.0225 62.6899 14.9339 62.665C14.8453 62.6401 14.7531 62.6552 14.6714 62.7082C14.5016 62.8473 14.572 63.106 14.6255 63.3544C14.943 64.8332 15.2588 66.3199 15.5967 67.7803C16.5436 71.842 17.9795 75.664 19.8463 79.0916C21.9062 83.0197 24.4643 86.4217 27.4017 89.1392C29.7591 91.4741 32.3732 93.2917 35.148 94.5252C36.2456 94.9472 37.3424 95.3704 38.4452 95.7659C38.6163 95.8309 38.7995 95.8011 38.9545 95.6831C39.0725 95.5612 38.9417 95.3382 38.8424 95.1703C37.0932 91.9543 35.7248 88.3887 34.7863 84.6018C34.1861 82.532 34.03 80.3024 33.4722 78.2131C33.2259 77.0772 33.0364 75.9201 32.9052 74.7497M50.4624 95.6498C54.5855 95.9476 64.7674 88.3492 67.2708 83.1771C66.1761 82.9428 65.0679 82.8432 63.96 82.8793C62.5245 82.9943 61.9421 82.0065 61.1874 80.8762C60.3479 79.6205 60.7893 78.0912 60.6526 76.7068C60.538 75.0089 60.5298 73.301 60.6281 71.6013C60.651 70.8021 60.4235 70.5745 59.9073 70.7033C59.0063 70.8543 58.1138 71.0871 57.2358 71.4001C57.0304 71.4909 56.8436 71.4737 56.8325 71.8761C56.7311 73.3391 56.5504 74.7899 56.2918 76.2169C55.6905 80.7588 54.673 85.1813 53.2629 89.3818C52.4826 91.5905 51.5442 93.6903 50.4614 95.6509M60.9379 42.7763C59.7937 42.2603 58.6044 41.951 57.4005 41.8564C57.3358 43.4235 57.4053 44.9955 57.6076 46.5409C57.8623 49.4386 57.7196 52.3409 57.8317 55.234C57.8758 57.0865 57.8412 58.9408 57.7282 60.7879C57.6297 62.8692 57.499 64.947 57.3733 67.0248C57.3326 67.6998 57.5338 67.8803 58.0058 67.732C58.5727 67.5231 59.1522 67.3831 59.7375 67.3134C60.4268 67.2686 60.6272 66.8891 60.6246 65.9738C60.6017 58.8665 60.617 51.7602 60.6076 44.6529C60.5694 43.9972 60.6853 43.3419 60.9387 42.7809M32.546 36.4393C33.7888 28.5052 35.232 20.7205 38.9766 13.934C38.7087 13.9028 38.4393 13.9058 38.1718 13.9432C36.7287 14.4169 35.2711 14.8631 33.8424 15.4219C32.7218 15.8565 32.5478 16.2947 32.5478 17.9965V36.4405L32.546 36.4393ZM14.6595 45.4187C14.6519 45.92 14.2893 46.5168 14.7944 46.7928C15.0864 46.9515 15.3582 46.5271 15.3845 46.2374C15.438 45.6498 14.9388 45.6981 14.6595 45.4187Z" fill="black"/>
<path d="M18.3353 44.899C17.0925 43.61 15.9999 42.5924 15.011 41.4149C14.615 40.9105 14.1473 40.5205 13.6366 40.2687C13.1258 40.0168 12.5825 39.9084 12.0398 39.95C9.46417 40.0649 6.88432 39.9891 4.30703 39.9833C3.36644 39.9833 3.03967 39.5234 3.03967 38.232C3.03967 27.2699 3.03967 16.3078 3.03967 5.34563C3.03967 3.76455 3.28153 3.43799 4.44454 3.43799C12.4486 3.43799 20.4525 3.43799 28.456 3.43799C29.743 3.43799 30.0223 3.8117 30.0232 5.53421C30.0232 16.1729 30.0282 26.8115 30.0384 37.4501C30.0076 38.0473 29.9334 38.6389 29.8168 39.2163C29.7133 39.9557 29.2421 40.0017 28.7608 39.9983C26.0332 39.981 23.3048 39.9902 20.5773 39.9902C18.4474 39.9902 17.7088 41.3241 18.2598 44.1665C18.281 44.2746 18.2827 44.3885 18.3328 44.9036M22.9169 34.2684C23.1215 34.2982 23.3285 34.258 23.5188 34.1516C23.7091 34.0452 23.8766 33.8759 24.0062 33.6593C24.1358 33.4426 24.2232 33.1854 24.2606 32.9112C24.2979 32.637 24.2839 32.3544 24.22 32.0894C23.8804 30.6705 23.4202 29.3021 23.0102 27.9142C21.2881 22.0798 19.566 16.2457 17.8438 10.412C17.7783 10.0817 17.6336 9.79028 17.4327 9.58324C17.2318 9.37621 16.9859 9.26528 16.7334 9.26785C16.1112 9.24255 15.618 9.36674 15.3548 10.2441C14.9303 11.6561 14.4634 13.0429 14.0466 14.4584C12.3403 20.2522 10.6399 26.0491 8.94547 31.8491C8.86278 32.0738 8.81537 32.3193 8.80609 32.57C8.79682 32.8208 8.82589 33.0715 8.89158 33.3062C8.95728 33.541 9.0582 33.7549 9.18785 33.9343C9.31751 34.1137 9.47318 34.2549 9.64505 34.3489C9.99395 34.4527 10.3589 34.3767 10.6687 34.1359C10.9785 33.895 11.211 33.5065 11.3208 33.0461C11.9083 31.0143 12.5178 28.9928 13.0628 26.9391C13.1901 26.4608 13.3174 26.3308 13.6671 26.3343C15.5254 26.3538 17.3837 26.3435 19.2419 26.3435C19.4805 26.3435 19.7513 26.2929 19.8676 26.6609C20.4432 28.5237 21.0306 30.3796 21.5586 32.2665C21.826 33.2209 21.9983 34.2075 22.9169 34.2684Z" fill="#FFC0A1"/>
<path d="M63.1292 61.4253C63.1292 55.9872 63.1292 50.5491 63.1292 45.1109C63.1292 43.5839 63.4006 43.224 64.5509 43.1561C72.5748 42.6548 80.5955 43.2711 88.6228 43.1665C89.7264 43.1527 90.1084 43.7023 90.1101 45.2282C90.118 56.0225 90.118 66.8175 90.1101 77.6133C90.1101 79.4531 89.8953 79.7106 88.571 79.7106C85.784 79.7106 82.9971 79.7601 80.2127 79.6807C79.4411 79.6719 78.6944 80.0504 78.1167 80.7432C77.1676 81.7597 76.2313 82.7969 75.2958 83.8364C74.9621 84.2078 74.8287 84.0825 74.8253 83.5386C74.8253 83.3764 74.8253 83.2143 74.8253 83.0522C74.8007 80.2925 74.3772 79.7176 72.3729 79.7118H64.7327C63.214 79.7118 63.1316 79.6037 63.1316 77.6225C63.1316 72.225 63.1316 66.8275 63.1316 61.4299M72.148 53.6372C71.249 53.6372 70.35 53.6165 69.451 53.643C69.2725 53.6052 69.0901 53.6197 68.9161 53.6855C68.7421 53.7513 68.5805 53.8669 68.4423 54.0245C68.3041 54.1821 68.1926 54.378 68.1151 54.599C68.0375 54.82 67.9957 55.0609 67.9928 55.3056C67.9898 55.5503 68.0257 55.7929 68.0978 56.0172C68.17 56.2415 68.2769 56.4422 68.4112 56.6058C68.5456 56.7694 68.7044 56.8921 68.8767 56.9656C69.049 57.039 69.2309 57.0616 69.4102 57.0317C69.9195 57.0616 70.4289 57.0742 70.9383 57.0443C71.3415 57.0202 71.5537 57.1363 71.6819 57.7526C72.2943 60.5687 73.2767 63.212 74.5818 65.5557C74.8984 66.1421 74.8101 66.4307 74.502 66.8826C73.4287 68.3871 72.1989 69.6713 70.8516 70.6945C70.7057 70.776 70.5733 70.8963 70.4624 71.0484C70.3515 71.2005 70.2643 71.3812 70.2058 71.5798C70.1474 71.7784 70.119 71.9908 70.1223 72.2046C70.1256 72.4183 70.1606 72.629 70.2251 72.824C70.285 73.0576 70.3846 73.2687 70.5159 73.4404C70.6472 73.6121 70.8066 73.7395 70.981 73.8124C71.1553 73.8853 71.3399 73.9015 71.5198 73.8599C71.6997 73.8182 71.8698 73.7198 72.0164 73.5726C73.4516 72.5232 74.758 71.1787 75.8891 69.5871C76.39 68.8754 76.716 68.8972 77.1897 69.6101C78.3858 71.232 79.7557 72.6001 81.2533 73.668C81.4245 73.8307 81.6334 73.9043 81.8415 73.8751C82.0495 73.846 82.2427 73.7161 82.3857 73.5094C83.2567 72.4745 83.1931 71.5189 82.1167 70.5197C80.8991 69.4473 79.7362 68.2649 78.6361 66.9804C78.5491 66.9075 78.4759 66.8083 78.4222 66.6904C78.3685 66.5725 78.3359 66.4394 78.3269 66.3014C78.3178 66.1635 78.3325 66.0246 78.37 65.8957C78.4074 65.7669 78.4667 65.6516 78.5428 65.5591C79.6275 63.7854 80.4453 61.7412 80.9503 59.5418C81.3747 57.3881 82.1388 56.7557 83.6881 57.0121C84.7603 57.188 85.1423 56.4751 85.0862 55.0573C85.0327 53.7131 84.255 53.697 83.6048 53.6683C81.9587 53.5958 80.3093 53.6027 78.6632 53.6683C78.0138 53.6924 77.839 53.3992 77.8746 52.5656C77.9303 51.5198 77.88 50.4686 77.7252 49.4413C77.6883 49.0601 77.548 48.7111 77.3316 48.4623C77.1153 48.2134 76.8383 48.0824 76.5546 48.0948C76.2951 48.0883 76.0423 48.2059 75.8404 48.427C75.6386 48.648 75.5007 48.9583 75.451 49.3034C75.1505 50.4466 75.0873 51.6795 75.2684 52.868C75.4246 53.5361 75.2684 53.6568 74.844 53.6533C73.945 53.6441 73.047 53.6533 72.148 53.6533" fill="#FFEBE1"/>
<path d="M46.7637 40.4651C49.343 40.493 51.9187 40.7357 54.476 41.1918C54.8088 41.2344 54.8341 41.431 54.8621 41.8013C55.1474 45.0002 55.2636 48.2227 55.2095 51.4441C55.1823 52.3376 55.4352 53.2345 55.3622 54.0693C55.0829 57.2809 55.37 60.5143 55.0669 63.7282C54.9557 64.9126 54.9097 66.128 54.8783 67.3285C54.8562 68.1759 54.6151 68.4278 54.0557 68.5048C49.2622 69.0094 44.4521 69.1629 39.6464 68.9647C38.1124 68.9521 36.5802 68.6531 35.0462 68.5048C34.598 68.4611 34.5555 68.092 34.5181 67.5976C34.1461 61.0688 34.0327 54.5178 34.1784 47.9726C34.1878 45.8948 34.4069 43.8181 34.5181 41.7403C34.5359 41.4092 34.5928 41.2367 34.8704 41.2045C36.1362 41.0596 37.3985 40.8595 38.665 40.7284C39.7311 40.4713 40.8158 40.3856 41.8967 40.4732H46.7602" fill="#FF5500"/>
<path d="M40.0944 17.5554C40.6015 16.3517 41.2654 15.2823 42.0537 14.399C42.2133 14.3909 42.3636 14.3599 42.4316 14.123C43.0189 13.5316 43.7014 13.1375 44.4231 12.9731C44.4799 13.0881 44.5376 13.0881 44.5928 12.9731H44.9621L45.1565 13.1652C46.9605 13.0939 47.9409 14.8819 48.8459 16.4872C51.4979 21.1901 52.7288 26.7613 53.7331 32.4141C53.9496 33.6329 54.0726 34.8943 54.2856 36.127C54.3603 36.5571 54.4912 37.2217 54.1551 37.4666C53.9929 37.5682 53.8156 37.6183 53.6369 37.6129C53.4583 37.6075 53.2831 37.5469 53.1244 37.4356C52.956 37.2474 52.7512 37.1289 52.5343 37.0945C52.3175 37.06 52.098 37.111 51.902 37.2412C51.3236 37.4737 50.7011 37.3912 50.1669 37.0113C50.0514 36.7928 49.9358 36.7951 49.8195 37.0113C48.1574 36.9814 46.4774 36.8583 44.8382 36.9285C42.7935 36.8484 40.7471 36.951 38.7124 37.2355C37.7243 37.4551 36.6996 37.2711 35.6971 37.5253C35.0892 37.6793 34.9849 37.0515 35.0741 36.4375C35.7911 30.6488 37.1208 25.0305 39.0222 19.7562C39.0707 19.6625 39.1277 19.5775 39.192 19.5033C39.2573 19.4586 39.3106 19.387 39.3439 19.2987C39.3772 19.2105 39.3887 19.1101 39.3771 19.0123C39.3791 18.9328 39.3928 18.8547 39.4171 18.7823C39.4635 18.7856 39.5099 18.7747 39.5528 18.7502C39.5957 18.7257 39.6339 18.6883 39.6645 18.6409C39.6952 18.5936 39.7173 18.5374 39.7296 18.4766C39.7419 18.4158 39.7439 18.3521 39.7354 18.2902C39.7986 18.2448 39.8495 18.1736 39.8811 18.0867C39.9126 17.9997 39.9232 17.9015 39.9111 17.8061L40.0902 17.5623" fill="#FF5500"/>
<path d="M45.8577 96.4697C43.339 97.0447 41.7889 95.0899 40.4629 92.6223C39.9264 91.6265 39.4942 90.5283 39.0146 89.4762L38.8737 89.2152C38.85 89.1426 38.8369 89.0645 38.8347 88.9852L38.6929 88.7219C38.6696 88.6491 38.6565 88.5712 38.654 88.4919C38.6656 88.3984 38.6583 88.3023 38.6333 88.2138C38.6082 88.1252 38.566 88.0474 38.5112 87.9883L37.6123 85.293C37.631 85.2654 37.6684 85.2182 37.6641 85.2113C37.6341 85.1601 37.6015 85.1117 37.5665 85.0664L37.5707 85.0722C37.5707 84.7962 37.6182 84.4973 37.3856 84.3317C36.484 81.2089 35.8259 77.9671 35.4221 74.6589C35.4076 74.5439 35.4094 74.4152 35.3941 74.2967C35.2914 73.5344 34.7787 72.7018 35.1802 72.0395C35.4994 71.5117 36.2269 72.1085 36.7626 71.5543C37.0274 71.2806 37.4239 72.1292 37.9205 72.1672C41.8943 72.519 45.8713 72.3776 49.8467 72.3592C51.0862 72.3038 52.3222 72.1448 53.5472 71.8831C54.3231 71.7486 54.43 72.3143 54.2925 73.0801C53.6533 76.6448 53.1091 80.2232 52.2432 83.7176C51.4912 86.9833 50.361 90.0662 48.8944 92.8511C48.3171 93.9055 47.5981 94.8162 46.9418 95.7925C46.3909 95.4475 46.1005 95.8833 45.8552 96.4571" fill="#FF5500"/>
<path d="M25.3152 43.3962C26.3636 43.3962 27.4146 43.3272 28.4562 43.4157C29.4664 43.4618 30.4538 43.003 31.2305 42.1267C31.4775 41.8807 31.693 41.5231 31.9944 41.7565C32.0852 41.8266 32.0217 42.3107 31.9996 42.6016C31.6403 48.3968 31.5268 54.2152 31.6599 60.028C31.689 62.3948 31.8261 64.7569 32.07 67.1009C32.1549 67.9449 31.8815 67.8 31.5971 67.7505C30.9018 67.6298 30.2059 67.4746 29.5225 67.2596C25.8469 66.2769 22.2834 64.6403 18.9247 62.3921C17.2127 61.3034 15.7327 59.6441 14.6232 57.5696C14.1879 56.6621 13.9715 55.5938 14.0041 54.5125C14.0366 53.4312 14.3165 52.3903 14.8049 51.5339C15.2824 50.7015 15.8335 49.9515 16.4458 49.3008C17.4891 48.1601 17.6012 48.2084 18.7744 49.479C19.4102 50.169 20.4722 49.939 20.6343 48.9995C20.7759 48.4326 20.8527 47.8397 20.8619 47.2414C20.8126 46.2318 20.8755 45.2118 20.839 44.2011C20.8152 43.5514 20.9824 43.3697 21.4502 43.3835C22.7371 43.4215 24.0248 43.3973 25.3126 43.3962" fill="#FF5500"/>
<path d="M32.9083 74.7417C33.0395 75.9121 33.2291 77.0692 33.4755 78.2051C34.0333 80.2944 34.1893 82.5205 34.7895 84.5938C35.7282 88.3802 37.0967 91.9454 38.8457 95.1611C38.945 95.3267 39.0765 95.5521 38.9576 95.6751C38.8026 95.793 38.6196 95.8228 38.4484 95.7579C37.3448 95.3624 36.2488 94.938 35.1512 94.5172C32.3764 93.2837 29.7623 91.4661 27.4049 89.1312C24.4675 86.4137 21.9094 83.0118 19.8495 79.0836C17.9828 75.656 16.5472 71.834 15.6007 67.7723C15.2612 66.3119 14.9463 64.8251 14.6297 63.3464C14.5762 63.0969 14.5082 62.8393 14.6755 62.7002C14.7571 62.647 14.8494 62.6318 14.938 62.6567C15.0267 62.6816 15.1069 62.7454 15.1661 62.8381C15.7763 63.5268 16.4165 64.1654 17.083 64.7504C18.8541 66.3258 20.7952 67.5186 22.8369 68.2863C25.46 69.6055 28.2002 70.4495 30.9864 70.7964C31.4414 70.8275 31.854 71.2472 32.3388 71.2046C32.3796 71.2133 32.4181 71.236 32.4507 71.2707C32.4832 71.3053 32.5087 71.3507 32.5247 71.4024C32.596 72.5281 32.8388 73.6148 32.9102 74.7371" fill="#FF5500"/>
<path d="M52.0074 16.8336L50.6288 14.0647C52.2417 13.6588 59.2962 17.381 62.3438 20.3534C67.4383 25.134 71.3433 31.8938 73.5442 39.7414C70.6358 39.7414 67.8329 39.4919 65.0655 39.8127C62.36 40.1255 59.9498 38.5824 57.3691 38.2339C57.0295 38.1879 56.8887 37.774 56.8275 37.2623C56.5729 35.1511 56.269 33.0515 55.9786 30.9472C56.0197 30.9065 56.0529 30.8529 56.0752 30.7909C56.0975 30.7289 56.1082 30.6605 56.1065 30.5915C56.1048 30.5226 56.0909 30.4553 56.0657 30.3954C56.0404 30.3356 56.0046 30.285 55.9616 30.2481C55.5372 28.3841 55.1127 26.5179 54.6789 24.6574C54.5227 23.9904 54.3393 23.3362 54.1618 22.6773C54.1797 22.6497 54.217 22.6037 54.2137 22.5956C54.1841 22.5445 54.152 22.4961 54.1177 22.4508C54.1177 22.1851 54.1678 21.9 53.9564 21.7206L53.9413 21.6918L53.8155 21.2376C53.3656 20.2362 52.9855 19.1803 52.6798 18.0835L52.504 17.8145C52.516 17.7204 52.5063 17.6236 52.4758 17.5375C52.4454 17.4513 52.3959 17.3802 52.3343 17.3338L52.3249 17.3223C52.3331 17.2607 52.3308 17.1974 52.3183 17.1371C52.3058 17.0768 52.2834 17.0211 52.2528 16.9743C52.2222 16.9274 52.1842 16.8905 52.1415 16.8663C52.0989 16.8421 52.0528 16.8314 52.0066 16.8348" fill="#FF5500"/>
<path d="M50.4606 95.6411C51.5434 93.6804 52.4817 91.5806 53.262 89.3719C54.6722 85.1715 55.6896 80.749 56.2908 76.2071C56.5495 74.7801 56.7299 73.3292 56.8307 71.8662C56.8418 71.4638 57.0286 71.4811 57.2349 71.3902C58.1128 71.077 59.0053 70.8442 59.9064 70.6934C60.4225 70.5646 60.6493 70.7923 60.6272 71.5914C60.5288 73.2911 60.5369 74.9991 60.6516 76.6969C60.7883 78.0767 60.347 79.6107 61.1857 80.8663C61.9413 81.9955 62.5227 82.9821 63.9582 82.8683C65.0661 82.8323 66.1743 82.9319 67.2691 83.1661C64.7673 88.3405 54.5854 95.9377 50.4606 95.6388" fill="#FF5500"/>
<path d="M60.9372 42.7658C60.6839 43.3269 60.5684 43.9822 60.607 44.6378C60.6155 51.7452 60.6001 58.8514 60.623 65.9588C60.623 66.8787 60.4253 67.2547 59.7368 67.2984C59.1515 67.3679 58.5719 67.508 58.005 67.7169C57.533 67.8653 57.3311 67.6836 57.3718 67.0098C57.4975 64.9319 57.6265 62.853 57.7266 60.7729C57.8397 58.9258 57.8743 57.0714 57.8303 55.219C57.7191 52.3259 57.8573 49.4224 57.606 46.5259C57.4037 44.9804 57.3342 43.4084 57.399 41.8413C58.6028 41.9359 59.7922 42.2452 60.9364 42.7612" fill="#FF5500"/>
<path d="M32.5443 36.4245V17.9793C32.5443 16.2775 32.7142 15.8394 33.839 15.4048C35.2694 14.8494 36.7251 14.4009 38.1683 13.926C38.4357 13.8887 38.7052 13.8856 38.9731 13.9168C35.2277 20.7011 33.7854 28.4926 32.5426 36.4222" fill="#FF5500"/>
<path d="M46.7619 40.4661H41.8984C43.5094 40.1181 45.1509 40.1181 46.7619 40.4661Z" fill="#FF5500"/>
<path d="M14.6577 45.4038C14.9361 45.6832 15.4361 45.6338 15.3826 46.2225C15.3563 46.5123 15.0847 46.9366 14.7927 46.7779C14.2876 46.5019 14.6492 45.9063 14.6577 45.4038Z" fill="#FF5500"/>
<path d="M45.8579 96.4713C46.1032 95.8963 46.3936 95.4617 46.9445 95.8066C46.9038 96.9922 46.2026 96.1953 45.8579 96.4713Z" fill="#FF5500"/>
<path d="M52.0074 16.8346C52.0536 16.8312 52.0997 16.842 52.1424 16.8661C52.185 16.8903 52.2233 16.9272 52.2539 16.9741C52.2845 17.021 52.3069 17.0767 52.3194 17.1369C52.3319 17.1972 52.3339 17.2605 52.3258 17.3221C52.1636 17.2279 52.0236 17.106 52.0074 16.8346Z" fill="#FF5500"/>
<path d="M53.9626 21.7217C54.174 21.9011 54.1258 22.1816 54.1241 22.4519C53.8635 22.292 54.0034 21.9701 53.9626 21.7217Z" fill="#FF5500"/>
<path d="M39.7318 18.2915C39.7403 18.3534 39.7385 18.4172 39.7262 18.4779C39.7139 18.5387 39.6916 18.5949 39.6609 18.6423C39.6303 18.6897 39.5921 18.727 39.5492 18.7515C39.5063 18.776 39.4599 18.787 39.4135 18.7836C39.4279 18.5111 39.5713 18.3915 39.7318 18.2915Z" fill="#FF5500"/>
<path d="M55.9648 30.2471C56.0078 30.2841 56.0435 30.3347 56.0687 30.3947C56.0939 30.4546 56.1079 30.5219 56.1095 30.5909C56.1111 30.6598 56.1002 30.7282 56.0778 30.7901C56.0554 30.852 56.0222 30.9056 55.981 30.9462C55.9754 30.7162 55.9699 30.4832 55.9648 30.2471Z" fill="#FF5500"/>
<path d="M37.3875 84.3447C37.6209 84.5126 37.5751 84.8047 37.5734 85.0852C37.3102 84.9311 37.4639 84.5851 37.3875 84.3447Z" fill="#FF5500"/>
<path d="M42.4318 14.123C42.3639 14.3611 42.2136 14.3921 42.054 14.399C42.1108 14.1345 42.2875 14.169 42.4318 14.123Z" fill="#FF5500"/>
<path d="M52.3358 17.3345C52.3974 17.3808 52.4469 17.452 52.4774 17.5381C52.5078 17.6242 52.5178 17.721 52.5058 17.8151C52.336 17.7289 52.3638 17.5127 52.3358 17.3345Z" fill="#FF5500"/>
<path d="M53.8208 21.2451L53.9464 21.6982C53.7766 21.6119 53.8038 21.4256 53.8208 21.2451Z" fill="#FF5500"/>
<path d="M39.3748 19.0166C39.3865 19.1145 39.3749 19.2149 39.3416 19.3032C39.3083 19.3915 39.2551 19.4631 39.1897 19.5076C39.2304 19.3294 39.2016 19.1028 39.3748 19.0166Z" fill="#FF5500"/>
<path d="M49.8214 37.017C49.9369 36.8008 50.0531 36.7985 50.1686 37.017H49.8214Z" fill="#FF5500"/>
<path d="M39.9155 17.8022C39.9273 17.8977 39.9167 17.9957 39.885 18.0824C39.8533 18.1691 39.8021 18.2401 39.7389 18.2852C39.7686 18.1047 39.7389 17.8839 39.9155 17.8022Z" fill="#FF5500"/>
<path d="M38.5125 87.9995C38.5674 88.0584 38.6097 88.1363 38.6347 88.2249C38.6598 88.3135 38.6668 88.4096 38.6551 88.5032C38.4615 88.4112 38.4794 88.2099 38.5125 87.9995Z" fill="#FF5500"/>
<path d="M45.1586 13.1689L44.9634 12.9769C45.0797 12.9447 45.1264 13.0424 45.1586 13.1689Z" fill="#FF5500"/>
<path d="M54.1215 22.4492C54.156 22.4947 54.1879 22.5435 54.2172 22.5953C54.2172 22.6022 54.1834 22.6482 54.1656 22.6758C54.1443 22.6017 54.1295 22.5245 54.1215 22.4458" fill="#FF5500"/>
<path d="M37.5681 85.0777C37.6032 85.1228 37.6358 85.1712 37.6657 85.2226C37.6657 85.2294 37.6317 85.2755 37.6139 85.3042C37.5929 85.23 37.5778 85.1528 37.5689 85.0742" fill="#FF5500"/>
<path d="M38.6937 88.729L38.8354 88.9923C38.7412 88.9509 38.6656 88.8888 38.6937 88.729Z" fill="#FF5500"/>
<path d="M38.8738 89.2163L39.0148 89.4773C38.9197 89.4371 38.845 89.3738 38.8738 89.2163Z" fill="#FF5500"/>
<path d="M44.5947 12.9783C44.5369 13.0933 44.4801 13.0933 44.4249 12.9783C44.4514 12.9611 44.4805 12.9521 44.5099 12.9521C44.5393 12.9521 44.5682 12.9611 44.5947 12.9783Z" fill="#FF5500"/>
<path d="M22.9154 34.2628C21.9977 34.2019 21.8253 33.2141 21.557 32.2597C21.0282 30.3728 20.4408 28.5169 19.8661 26.6541C19.7523 26.2861 19.4797 26.3367 19.2404 26.3367C17.3821 26.3367 15.5231 26.3471 13.6656 26.3287C13.3193 26.3287 13.1885 26.4552 13.0612 26.9335C12.5162 28.986 11.9067 31.0087 11.3192 33.0405C11.2094 33.5009 10.9769 33.8894 10.6671 34.1302C10.3573 34.3711 9.99237 34.4471 9.64347 34.3433C9.47152 34.2494 9.31571 34.1083 9.18596 33.9289C9.05621 33.7495 8.95537 33.5357 8.88959 33.3009C8.82381 33.0661 8.79457 32.8154 8.80378 32.5646C8.813 32.3138 8.86039 32.0683 8.94306 31.8435C10.646 26.0473 12.3464 20.2504 14.0442 14.4528C14.461 13.0384 14.9288 11.6505 15.3524 10.2396C15.6147 9.36228 16.1079 9.23694 16.7302 9.26339C16.9827 9.26082 17.2285 9.37175 17.4295 9.57878C17.6304 9.78582 17.775 10.0773 17.8406 10.4075C19.561 16.2427 21.2831 22.0768 23.007 27.9098C23.417 29.2988 23.8746 30.6695 24.2167 32.085C24.2814 32.3503 24.2958 32.6334 24.2588 32.9083C24.2218 33.1832 24.1344 33.4411 24.0048 33.6585C23.8752 33.8758 23.7074 34.0457 23.5167 34.1525C23.3261 34.2592 23.1187 34.2996 22.9136 34.2697M14.3481 22.886H18.6563C18.0171 20.646 17.4033 18.4842 16.776 16.3317C16.731 16.1764 16.7361 15.8901 16.5213 15.912C16.4468 15.9255 16.3771 15.969 16.3211 16.0369C16.2651 16.1048 16.2254 16.1938 16.2072 16.2926C15.5968 18.4497 14.9907 20.6092 14.3506 22.8883" fill="black"/>
<path d="M72.1452 53.631C73.0434 53.631 73.9424 53.6241 74.8414 53.631C75.2658 53.631 75.4237 53.516 75.2658 52.8467C75.0849 51.6583 75.1481 50.4254 75.4484 49.2821C75.4981 48.9371 75.636 48.6267 75.8378 48.4057C76.0397 48.1847 76.2925 48.0671 76.552 48.0736C76.8359 48.0609 77.1131 48.1917 77.3297 48.4406C77.5462 48.6895 77.6865 49.0387 77.7234 49.4201C77.8779 50.4475 77.9282 51.4986 77.8729 52.5443C77.8372 53.378 78.0121 53.6712 78.6615 53.647C80.3075 53.5849 81.9578 53.578 83.603 53.647C84.2533 53.6758 85.031 53.6919 85.0845 55.0361C85.1413 56.4562 84.7593 57.1691 83.6872 56.9909C82.1413 56.7368 81.3746 57.3692 80.9493 59.5206C80.4444 61.7199 79.6265 63.7641 78.5419 65.5379C78.4658 65.6304 78.4065 65.7456 78.369 65.8745C78.3316 66.0033 78.3169 66.1422 78.3259 66.2802C78.335 66.4181 78.3676 66.5513 78.4213 66.6692C78.475 66.787 78.5482 66.8863 78.6351 66.9591C79.7353 68.2435 80.8982 69.4259 82.1158 70.4985C83.193 71.4977 83.2558 72.4532 82.3848 73.4881C82.2418 73.6949 82.0486 73.8247 81.8405 73.8539C81.6325 73.883 81.4236 73.8095 81.2523 73.6468C79.7547 72.5789 78.3848 71.2108 77.1887 69.5889C76.715 68.8771 76.3882 68.8541 75.8882 69.5659C74.7571 71.1575 73.4507 72.5019 72.0155 73.5514C71.8689 73.6986 71.6988 73.797 71.5189 73.8386C71.339 73.8803 71.1544 73.864 70.98 73.7912C70.8056 73.7183 70.6462 73.5908 70.5149 73.4191C70.3837 73.2474 70.2841 73.0363 70.2242 72.8028C70.1596 72.6077 70.1247 72.397 70.1214 72.1833C70.1181 71.9696 70.1465 71.7571 70.2049 71.5585C70.2633 71.3599 70.3505 71.1792 70.4615 71.0272C70.5724 70.8751 70.7048 70.7548 70.8507 70.6732C72.1979 69.6505 73.4277 68.3667 74.5011 66.8625C74.8084 66.4106 74.8966 66.122 74.5809 65.5356C73.2758 63.1917 72.2932 60.5485 71.6801 57.7326C71.5519 57.1162 71.3406 57.0001 70.9365 57.0242C70.4272 57.0541 69.9178 57.0415 69.4084 57.0116C69.2291 57.0415 69.0473 57.0189 68.8749 56.9455C68.7026 56.872 68.5438 56.7493 68.4095 56.5858C68.2751 56.4222 68.1683 56.2214 68.0961 55.9971C68.0239 55.7728 67.9881 55.5302 67.991 55.2855C67.994 55.0409 68.0355 54.7999 68.1131 54.5789C68.1906 54.3579 68.3023 54.162 68.4405 54.0044C68.5787 53.8468 68.7403 53.7312 68.9143 53.6654C69.0883 53.5996 69.2708 53.5851 69.4492 53.6229C70.3474 53.5976 71.247 53.6229 72.146 53.616M74.0393 57.0656C74.8033 59.109 75.3976 61.0373 76.232 62.8012C76.3874 63.1289 76.5027 63.6578 76.8202 63.0312C77.7759 61.2044 78.5261 59.1955 79.0461 57.0702L74.0393 57.0656Z" fill="black"/>
<path d="M14.347 22.8769C14.9871 20.599 15.5933 18.4384 16.2036 16.2812C16.2218 16.1825 16.2615 16.0934 16.3175 16.0255C16.3735 15.9577 16.4432 15.9141 16.5177 15.9006C16.735 15.8787 16.7299 16.1651 16.7723 16.3203C17.3997 18.4752 18.0127 20.6369 18.6527 22.8746L14.347 22.8769Z" fill="#FFC0A1"/>
<path d="M74.0386 57.0793H79.0471C78.5271 59.2046 77.7769 61.2135 76.8212 63.0403C76.5037 63.6715 76.3883 63.1437 76.233 62.8103C75.3976 61.0464 74.806 59.118 74.0402 57.0747" fill="#FFEBE1"/>
</g>
<defs>
<clipPath id="clip0_307_2">
<rect width="100" height="100" fill="white" transform="translate(0.5)"/>
</clipPath>
</defs>
</svg>
