<svg width="101" height="100" viewBox="0 0 101 100" fill="none" xmlns="http://www.w3.org/2000/svg">
<g clip-path="url(#clip0_307_43)">
<path d="M0.5 94.7255V29.2977C0.665321 28.9911 0.925181 28.746 1.24095 28.5989C1.55672 28.4518 1.9116 28.4106 2.25271 28.4812C2.42112 28.4615 2.59175 28.4759 2.75451 28.5234C2.91727 28.571 3.06885 28.6507 3.20016 28.758C3.33148 28.8653 3.43985 28.9978 3.51891 29.1478C3.59796 29.2978 3.64608 29.4622 3.66035 29.6311C3.76053 30.0962 3.81631 30.5698 3.82705 31.0455C3.82705 51.8421 3.82705 72.6387 3.82705 93.4354C3.80961 93.7846 3.86085 94.1338 3.97776 94.4633C4.2266 95.1784 4.7108 95.7877 5.35114 96.1917C5.99148 96.5957 6.75004 96.7704 7.50261 96.6872C29.6331 96.6711 51.7631 96.6677 73.8928 96.6769C80.4664 96.6769 87.0404 96.6788 93.6147 96.6826C94.3232 96.713 95.023 96.5168 95.6124 96.1225C96.2018 95.7281 96.6503 95.1562 96.8924 94.4898C97.1024 93.5856 97.1928 92.6578 97.1614 91.7301C97.1744 67.3527 97.1779 42.9754 97.1718 18.5981C97.1718 16.6571 97.1718 16.6571 95.1696 16.6571H5.14962C4.95476 16.6715 4.75907 16.6715 4.56421 16.6571C3.93745 16.5639 3.79369 16.8549 3.81554 17.4332C3.85579 18.5383 3.75344 19.6525 3.84544 20.7506C3.94546 21.3208 3.84042 21.9079 3.54888 22.408C3.25734 22.9081 2.79817 23.2888 2.25271 23.4827C1.41203 23.454 0.970364 22.8446 0.5 22.2765V5.27332C0.763389 4.26366 1.24132 3.32259 1.90118 2.51421C2.56104 1.70582 3.38734 1.04909 4.32387 0.588736C4.86324 0.358761 5.51645 0.4611 5.96841 0H95.027C95.3881 0.492146 95.9999 0.36796 96.4761 0.587586C97.759 1.1573 98.8337 2.11088 99.5519 3.31689C100.27 4.5229 100.597 5.92197 100.486 7.32125C100.504 34.0405 100.504 60.7598 100.486 87.479C100.558 89.7449 100.507 92.0131 100.336 94.2736C100.143 95.7893 99.4241 97.1893 98.3051 98.2297C97.1861 99.2702 95.7375 99.8853 94.2116 99.9678C64.9241 100.013 35.6366 100.022 6.34907 99.9942C6.06569 99.989 5.78438 99.9449 5.51301 99.8632C4.30149 99.5207 3.20136 98.8658 2.3229 97.9641C1.44444 97.0623 0.818555 95.9455 0.508072 94.7255M50.5035 3.32199C36.1833 3.32199 21.8627 3.32199 7.54171 3.32199C7.043 3.27012 6.53896 3.32997 6.06626 3.49717C5.59357 3.66437 5.16405 3.93473 4.8089 4.28862C4.45376 4.6425 4.1819 5.07104 4.01306 5.54309C3.84423 6.01514 3.78264 6.51887 3.83281 7.01768C3.82476 8.64476 3.83281 10.273 3.83281 11.9001C3.83281 13.2983 3.83281 13.2983 5.27611 13.2983H94.7153C95.137 13.2519 95.5632 13.2674 95.9804 13.3443C96.9234 13.641 97.2213 13.3155 97.1983 12.3819C97.1581 10.7226 97.188 9.06216 97.1868 7.40174C97.1868 4.52706 95.9758 3.31854 93.08 3.31854H50.5081" fill="#373737"/>
<path d="M2.24805 28.4812V23.4724C2.79351 23.2784 3.25268 22.8977 3.54422 22.3976C3.83576 21.8975 3.9408 21.3104 3.84078 20.7403C3.74878 19.6421 3.85113 18.5279 3.81088 17.4229C3.79018 16.8479 3.93279 16.5524 4.55955 16.6467C4.75442 16.661 4.9501 16.661 5.14496 16.6467H95.1707C97.1729 16.6467 97.173 16.6467 97.173 18.5877C97.173 42.965 97.1695 67.3424 97.1626 91.7197C97.1939 92.6474 97.1034 93.5752 96.8935 94.4794C96.6513 95.1459 96.203 95.7178 95.6136 96.1121C95.0242 96.5064 94.3244 96.7026 93.6159 96.6722C87.0423 96.6722 80.4683 96.6703 73.8939 96.6665C51.7634 96.6665 29.6333 96.6699 7.50364 96.6768C6.75106 96.76 5.99258 96.5853 5.35224 96.1813C4.7119 95.7773 4.2277 95.168 3.97885 94.453C3.86144 94.1235 3.80984 93.7743 3.82703 93.425C3.82703 72.6283 3.82703 51.8317 3.82703 31.0351C3.81636 30.5594 3.7605 30.0858 3.66025 29.6207C3.64598 29.4519 3.59793 29.2877 3.51895 29.1378C3.43997 28.9878 3.33168 28.8553 3.20049 28.7481C3.0693 28.6408 2.91789 28.561 2.75526 28.5134C2.59263 28.4658 2.42213 28.4513 2.2538 28.4709M55.1783 68.2025C54.9322 68.3393 54.6826 68.4693 54.4411 68.613C53.5602 69.1373 53.7097 70.0802 53.85 70.777C53.9427 71.0982 54.1553 71.3714 54.4439 71.5401C54.7325 71.7088 55.0749 71.76 55.4002 71.6831C56.2419 71.6125 57.0876 71.6052 57.9303 71.6613C60.3695 71.6613 62.8088 71.6705 65.2468 71.6613C65.6835 71.6773 66.1112 71.5348 66.4509 71.26C66.7906 70.9852 67.0194 70.5968 67.0949 70.1665C67.1358 69.9652 67.1345 69.7576 67.0911 69.5569C67.0477 69.3562 66.9631 69.1666 66.8427 69.0002C66.7223 68.8338 66.5687 68.6942 66.3916 68.5901C66.2145 68.4861 66.0178 68.4198 65.8138 68.3957C65.5276 68.3368 65.2347 68.3175 64.9433 68.3382C61.8221 68.3274 58.7005 68.3198 55.5785 68.3152C55.498 68.0771 55.3945 67.9265 55.1737 68.2002M90.7327 84.9883C91.8252 84.5399 92.2381 83.9535 92.0898 83.0715C91.9925 82.6445 91.7453 82.2664 91.3932 82.0059C91.041 81.7453 90.6073 81.6196 90.1704 81.6514C78.5283 81.6514 66.8857 81.6514 55.2427 81.6514C54.9241 81.6352 54.611 81.7399 54.3664 81.9446C54.0729 82.2043 53.8692 82.5502 53.7845 82.9328C53.6998 83.3154 53.7384 83.7149 53.8949 84.0742C54.0881 84.7825 54.762 84.9838 55.4969 84.9815C60.8959 84.9692 66.2946 84.9692 71.6928 84.9815C77.903 84.9861 84.1131 84.9937 90.3233 85.0044C90.4705 85.4 90.6028 85.3069 90.7293 84.9918M50.4919 21.6751V21.6682H19.3513C16.4543 21.6682 13.5551 21.5854 10.6628 21.6935C8.16952 21.7866 7.21268 22.8698 7.17703 24.7901C7.08618 30.4843 7.15754 36.1808 7.16559 41.8773C7.16436 42.3503 7.28304 42.8159 7.51059 43.2307C8.31561 44.7255 9.63012 44.9946 11.1815 44.9946C37.0895 44.9754 62.997 44.9708 88.9042 44.9808C89.1963 44.9551 89.4903 44.959 89.7817 44.9923C90.2968 45.0561 90.8195 45.0085 91.3146 44.8528C91.8097 44.6971 92.2657 44.4369 92.6515 44.0897C93.0372 43.7426 93.3439 43.3166 93.5508 42.8407C93.7576 42.3647 93.8599 41.8499 93.8505 41.3311C93.8114 36.221 93.8505 31.111 93.8241 26.0009C93.8338 25.237 93.7172 24.4766 93.479 23.7506C93.2202 23.0699 92.7402 22.4958 92.116 22.1204C91.4918 21.7451 90.7596 21.5903 90.0369 21.6809C76.8552 21.664 63.6736 21.6605 50.4919 21.6705M28.8138 91.6496H33.5979C37.9922 91.6496 42.3853 91.6611 46.7796 91.6358C47.3844 91.7128 47.9984 91.6138 48.5483 91.3506C49.1903 90.9915 49.7163 90.4564 50.0643 89.8084C50.4124 89.1603 50.5679 88.4263 50.5126 87.6929C50.4953 75.9101 50.5126 64.1273 50.4976 52.3457C50.4976 49.7366 49.1751 48.305 46.5047 48.3211C43.6734 48.3384 40.8408 48.3211 38.0106 48.3211C29.0273 48.3211 20.0444 48.3211 11.0619 48.3211C8.93894 48.3211 7.83491 49.0352 7.24954 50.7646C7.10524 51.4621 7.07803 52.1786 7.16903 52.885C7.16903 64.8299 7.16903 76.7752 7.16903 88.7208C7.16302 89.1297 7.27261 89.5318 7.48525 89.8811C7.79887 90.4614 8.27417 90.9383 8.85351 91.2538C9.43285 91.5694 10.0913 91.71 10.7491 91.6588C16.7695 91.6254 22.7911 91.645 28.8127 91.645M65.401 58.2986V58.3469C67.6447 58.3469 69.8861 58.3377 72.131 58.3469C72.9663 58.3517 73.7885 58.1392 74.5169 57.7304C75.2454 57.3216 75.8551 56.7304 76.2861 56.015C76.7977 55.2935 77.094 54.4416 77.1406 53.5584C77.1872 52.6753 76.9822 51.797 76.5494 51.0257C76.1049 50.1643 75.4194 49.4508 74.5765 48.972C73.7336 48.4932 72.7696 48.2699 71.802 48.3292C67.5757 48.3108 63.3493 48.3177 59.1241 48.3292C58.1577 48.2783 57.1961 48.4968 56.3467 48.9605C55.4858 49.4239 54.7833 50.1344 54.3295 51.0004C53.8758 51.8664 53.6915 52.8483 53.8006 53.8199C53.9294 55.7183 55.8051 58.271 58.1879 58.2929C60.5927 58.3147 62.9974 58.2929 65.4021 58.2929M72.729 78.3214H74.1929C79.4969 78.3214 84.8009 78.3214 90.1049 78.3214C91.4631 78.3214 92.2807 77.4912 92.1002 76.3344C91.9691 75.4961 91.1709 74.9971 89.9438 74.9971H55.973C55.8109 74.9971 55.6475 74.9902 55.4854 74.9971C54.2203 75.0891 53.8063 75.6226 53.8189 77.1577C53.8189 77.7591 54.6424 78.3168 55.544 78.3179C61.2712 78.3179 66.998 78.3179 72.7244 78.3179M72.9543 61.6746H60.9468C59.124 61.6746 57.3013 61.6562 55.4796 61.6884C55.2449 61.6649 55.0078 61.6961 54.7871 61.7795C54.5664 61.863 54.3681 61.9965 54.2077 62.1696C54.0474 62.3426 53.9293 62.5505 53.8629 62.7769C53.7964 63.0032 53.7833 63.2419 53.8247 63.4742C53.8569 64.5217 54.4285 65.0024 55.6981 65.0024C67.1218 65.0062 78.5435 65.0062 89.9634 65.0024C90.1909 65.0146 90.4192 65.0065 90.6453 64.9782C90.9318 64.9311 91.2017 64.8126 91.4301 64.6334C91.6585 64.4543 91.8379 64.2205 91.9519 63.9536C92.0659 63.6867 92.1106 63.3953 92.082 63.1065C92.0535 62.8177 91.9526 62.5407 91.7885 62.3013C91.5705 62.0611 91.2971 61.8778 90.992 61.7676C90.6868 61.6573 90.3594 61.6234 90.0382 61.6689C84.344 61.6773 78.6493 61.6773 72.9543 61.6689M66.1025 91.6438C68.9051 91.7381 72.3126 91.4978 75.7202 91.7588C75.8142 91.7611 75.9076 91.7432 75.9941 91.7063C76.0806 91.6694 76.1582 91.6144 76.2216 91.5449C76.5739 91.3346 76.8432 91.0096 76.9845 90.6245C77.1258 90.2394 77.1305 89.8174 76.9978 89.4292C76.8338 89.0555 76.5544 88.7442 76.2004 88.541C75.8465 88.3378 75.4368 88.2533 75.0313 88.3C69.0109 88.323 62.9882 88.3115 56.9666 88.3115C56.4456 88.3115 55.9224 88.2816 55.4049 88.3287C55.1792 88.3176 54.9539 88.3569 54.7453 88.4438C54.5367 88.5307 54.3501 88.663 54.199 88.8311C54.048 88.9992 53.9364 89.1988 53.8722 89.4154C53.8081 89.632 53.793 89.8603 53.8281 90.0834C53.8649 91.0735 54.4872 91.6335 55.6349 91.6381C58.9228 91.6507 62.2096 91.6381 66.1002 91.6381M81.0943 71.6579H83.5312C85.7726 71.6579 88.0163 71.6682 90.2577 71.6579C90.6943 71.6721 91.1213 71.5277 91.4596 71.2514C91.7979 70.9751 92.0246 70.5856 92.0978 70.155C92.2024 69.2224 91.8264 68.6797 90.8086 68.3934C90.4902 68.3316 90.165 68.3126 89.8415 68.337C84.155 68.337 78.4685 68.337 72.7819 68.337C72.5224 68.3269 72.2624 68.3311 72.0034 68.3497C71.7802 68.3582 71.5611 68.4119 71.3593 68.5075C71.1575 68.6031 70.9772 68.7386 70.8293 68.9058C70.6814 69.0731 70.5689 69.2686 70.4987 69.4805C70.4285 69.6924 70.402 69.9164 70.4208 70.1389C70.4183 70.3556 70.4626 70.5703 70.5502 70.7685C70.6379 70.9667 70.767 71.1438 70.929 71.2878C71.091 71.4318 71.2821 71.5394 71.4893 71.6032C71.6964 71.667 71.9149 71.6857 72.1298 71.6579C75.1199 71.6659 78.1099 71.6579 81.1 71.6579" fill="#FFEBE1"/>
<path d="M50.4956 3.32214H93.0675C95.9633 3.32214 97.1732 4.52606 97.1743 7.40535C97.1743 9.06577 97.1456 10.7262 97.1858 12.3843C97.2088 13.3192 96.911 13.6434 95.968 13.3467C95.5507 13.2702 95.1246 13.2551 94.703 13.3019H5.26478C3.82264 13.3019 3.82264 13.3019 3.82149 11.9037C3.82149 10.2766 3.81574 8.64836 3.82149 7.02129C3.77154 6.52252 3.83332 6.01889 4.00223 5.54693C4.17115 5.07498 4.44297 4.64654 4.79807 4.2927C5.15318 3.93885 5.58263 3.66849 6.05522 3.50121C6.52782 3.33393 7.03172 3.27394 7.53039 3.32559C21.8506 3.32099 36.1712 3.32099 50.4922 3.32559M87.1782 9.97762C88.7721 9.97762 90.3662 9.98797 91.9601 9.97762C92.1956 10.0025 92.4335 9.97782 92.6588 9.9051C92.8841 9.83237 93.0917 9.71324 93.2681 9.55538C93.4445 9.39752 93.5859 9.20445 93.6831 8.98861C93.7803 8.77277 93.831 8.53895 93.8323 8.30225C93.8194 8.07385 93.7616 7.85024 93.662 7.64427C93.5625 7.43829 93.4232 7.25401 93.2522 7.10198C93.0813 6.94995 92.8819 6.83317 92.6657 6.75835C92.4495 6.68353 92.2207 6.65214 91.9923 6.66598C88.7722 6.64681 85.5521 6.64681 82.332 6.66598C82.1031 6.64006 81.8713 6.66379 81.6524 6.73553C81.4334 6.80728 81.2325 6.92536 81.0633 7.08174C80.8941 7.23811 80.7607 7.42911 80.6721 7.64171C80.5834 7.85431 80.5416 8.08353 80.5495 8.31375C80.5438 9.36358 81.1912 9.96267 82.3895 9.97417C83.9835 9.98911 85.5774 9.97417 87.1713 9.97417M9.44517 9.97417C9.84078 9.97417 10.0995 9.98337 10.3583 9.97417C11.4623 9.92587 12.0086 9.39923 12.0167 8.39309C12.051 8.16865 12.034 7.93935 11.967 7.72242C11.8999 7.50549 11.7846 7.30656 11.6296 7.14058C11.4747 6.97459 11.2842 6.84587 11.0724 6.76407C10.8605 6.68226 10.6329 6.64952 10.4066 6.66828C9.79248 6.64068 9.17609 6.65218 8.56657 6.68553C8.25451 6.6879 7.95194 6.79338 7.70608 6.98555C7.46022 7.17772 7.28485 7.44579 7.20722 7.74801C7.10587 8.04001 7.08914 8.35471 7.15893 8.65581C7.22872 8.95692 7.38222 9.23217 7.6017 9.44982C7.84967 9.67327 8.14525 9.83733 8.46605 9.92957C8.78686 10.0218 9.12444 10.0398 9.45324 9.98222M17.9371 9.98222C18.1671 9.98222 18.3901 9.98222 18.6155 9.98222C19.7656 9.95347 20.4015 9.40728 20.4418 8.41609C20.4598 8.18048 20.4264 7.94377 20.3439 7.72234C20.2614 7.50091 20.1318 7.30003 19.964 7.1336C19.7962 6.96718 19.5943 6.83916 19.3722 6.75842C19.1501 6.67768 18.9131 6.64614 18.6777 6.66598C18.2268 6.64298 17.7714 6.64413 17.3206 6.66598C17.0855 6.64955 16.8495 6.68299 16.6282 6.7641C16.4068 6.84521 16.2051 6.97216 16.0363 7.13663C15.8675 7.3011 15.7353 7.49938 15.6484 7.71849C15.5616 7.93759 15.522 8.17257 15.5323 8.40804C15.5668 9.38543 16.2223 9.95232 17.354 9.98337C17.5472 9.98337 17.7415 9.98337 17.9359 9.98337M26.3311 9.97302C26.668 9.97302 26.9947 9.99831 27.3167 9.97302C27.5281 9.96248 27.7352 9.90956 27.9257 9.81739C28.1163 9.72522 28.2863 9.5957 28.4258 9.43651C28.5652 9.27732 28.6713 9.09173 28.7376 8.89075C28.8039 8.68977 28.8291 8.47752 28.8118 8.2666C28.8071 8.06512 28.7608 7.86679 28.6757 7.68409C28.5906 7.5014 28.4686 7.33832 28.3173 7.20512C28.1661 7.07192 27.9888 6.97149 27.7968 6.91017C27.6048 6.84884 27.4022 6.82795 27.2017 6.84881C26.5209 6.84881 25.8389 6.82351 25.1592 6.85686C24.9097 6.86866 24.6674 6.94478 24.456 7.07783C24.2445 7.21087 24.071 7.39633 23.9524 7.61619C23.8338 7.83604 23.774 8.08283 23.779 8.33259C23.7839 8.58235 23.8533 8.8266 23.9805 9.04162C24.2238 9.4263 24.583 9.72385 25.0062 9.89143C25.4295 10.059 25.895 10.088 26.3357 9.97417" fill="#FF5500"/>
<path d="M50.4989 21.676C63.6806 21.676 76.8623 21.6791 90.044 21.6852C90.7667 21.5947 91.4989 21.7495 92.1231 22.1248C92.7473 22.5001 93.2272 23.0742 93.486 23.755C93.7239 24.4806 93.8405 25.2406 93.831 26.0041C93.8586 31.1142 93.8195 36.2242 93.8574 41.3343C93.8668 41.8531 93.7647 42.368 93.5578 42.8439C93.351 43.3198 93.0442 43.7458 92.6584 44.0929C92.2726 44.4401 91.8168 44.7003 91.3217 44.856C90.8265 45.0117 90.3037 45.0593 89.7886 44.9955C89.4977 44.9621 89.2041 44.9583 88.9124 44.984C63.0044 44.984 37.0964 44.9882 11.1885 44.9966C9.63821 44.9966 8.32145 44.7322 7.51873 43.2339C7.29104 42.8192 7.17235 42.3535 7.17373 41.8805C7.16568 36.184 7.09324 30.4875 7.18524 24.7933C7.21514 22.873 8.17773 21.7899 10.671 21.6967C13.5633 21.5886 16.4637 21.6714 19.3606 21.6714H50.4989V21.676ZM20.253 24.9969L20.2347 25.1233C20.7775 25.274 21.3145 25.4557 21.8642 25.5718C26.9485 26.6481 32.0397 27.6979 37.1206 28.7915C40.512 29.5182 43.8805 30.3599 47.2811 31.0349C51.1131 31.7949 54.9104 32.7068 58.7457 33.4496C64.3625 34.5454 69.9333 35.8827 75.5282 37.0924C80.164 38.0939 84.817 39.015 89.4436 40.0729C90.4648 40.3028 90.5246 39.9763 90.5212 39.1737C90.5016 34.8467 90.4786 30.5197 90.5384 26.1927C90.5522 25.2061 90.3085 24.9716 89.3184 24.9727C66.6435 25.0041 43.9683 25.0122 21.2927 24.9969H20.253ZM80.4458 41.647C80.3229 41.5526 80.1903 41.4717 80.0501 41.4056C76.3792 40.6183 72.7079 39.8337 69.0362 39.0518C62.1675 37.5753 55.2995 36.0955 48.4323 34.6121C46.5784 34.212 44.7269 33.798 42.8696 33.4105C40.2774 32.8712 37.6772 32.3756 35.0885 31.8168C32.5412 31.2706 30.0099 30.6485 27.4615 30.1092C24.5047 29.4825 21.533 28.9191 18.5728 28.3085C16.3303 27.8485 14.0877 27.3736 11.8578 26.8689C10.5468 26.5722 10.4778 26.5894 10.4778 27.8118C10.4778 32.0421 10.51 36.2737 10.4536 40.5029C10.441 41.4677 10.7227 41.6677 11.6451 41.6666C34.1972 41.6398 56.7493 41.6329 79.3015 41.6459L80.4458 41.647ZM81.0128 41.7068C80.9679 41.6229 80.9438 41.5286 80.9093 41.524C80.8254 41.5244 80.7419 41.5376 80.6619 41.5631C80.6861 41.616 80.6999 41.708 80.7344 41.7149C80.8275 41.7239 80.9203 41.7212 81.0128 41.7068Z" fill="#373737"/>
<path d="M28.8085 91.6498C22.7869 91.6498 16.7654 91.6302 10.7449 91.6636C10.0872 91.7148 9.42872 91.5741 8.84938 91.2586C8.27005 90.943 7.79474 90.4662 7.48112 89.8859C7.26871 89.5365 7.15907 89.1344 7.16483 88.7256C7.16943 76.7807 7.16943 64.8355 7.16483 52.8898C7.07377 52.1834 7.10098 51.4668 7.24534 50.7694C7.83071 49.0446 8.93362 48.3271 11.0566 48.3271C20.0399 48.3233 29.0231 48.3233 38.0064 48.3271C40.8378 48.3271 43.6692 48.3409 46.5017 48.3271C49.1733 48.311 50.4923 49.7414 50.4946 52.3517C50.5073 64.1344 50.4946 75.9172 50.5096 87.6988C50.5649 88.4323 50.4094 89.1662 50.0613 89.8143C49.7133 90.4623 49.1873 90.9974 48.5453 91.3566C47.9955 91.6199 47.3814 91.7189 46.7766 91.6417C42.3823 91.6659 37.9892 91.6555 33.5949 91.6555H28.8108M13.2059 51.6836L47.1492 85.5761C47.2562 85.3875 47.1688 85.0598 47.1688 84.7505C47.1745 74.1142 47.1607 63.4778 47.1964 52.8404C47.1964 51.9032 46.9732 51.6583 46.0268 51.6606C35.3901 51.6962 24.7512 51.6836 14.118 51.6836H13.2059ZM10.5494 54.4088C10.393 54.533 10.4919 54.779 10.4919 54.9837C10.4858 65.8201 10.4788 76.6566 10.4712 87.493C10.4712 88.2254 10.7495 88.3301 11.3809 88.3289C22.2173 88.3136 33.0532 88.3075 43.8888 88.3105C44.1108 88.3105 44.4109 88.4612 44.4431 88.3899L10.5494 54.4053" fill="#373737"/>
<path d="M65.3964 58.2989C62.9917 58.2989 60.5871 58.3161 58.1812 58.2989C55.7983 58.277 53.926 55.7243 53.7937 53.8259C53.6847 52.8543 53.869 51.8724 54.3227 51.0064C54.7765 50.1404 55.479 49.4299 56.3399 48.9665C57.1893 48.5028 58.1509 48.2843 59.1173 48.3352C63.3437 48.3249 67.5701 48.318 71.7953 48.3352C72.7631 48.2755 73.7273 48.4987 74.5704 48.9775C75.4136 49.4563 76.0993 50.17 76.5438 51.0317C76.9768 51.8029 77.182 52.6811 77.1355 53.5643C77.0891 54.4475 76.793 55.2994 76.2816 56.021C75.8506 56.7364 75.2409 57.3276 74.5124 57.7364C73.784 58.1452 72.9618 58.3577 72.1265 58.3529C69.8828 58.3414 67.6413 58.3529 65.3964 58.3529V58.2989ZM65.5368 51.6963C63.3908 51.6963 61.2449 51.6859 59.0966 51.6963C57.9029 51.7043 57.1622 52.3172 57.1357 53.2647C57.1317 53.511 57.1804 53.7553 57.2787 53.9811C57.3769 54.207 57.5225 54.4092 57.7054 54.5741C57.8884 54.739 58.1045 54.8629 58.3393 54.9373C58.5741 55.0118 58.8222 55.0351 59.0667 55.0056C63.3602 55.0355 67.6513 55.0355 71.9402 55.0056C72.1765 55.0398 72.4174 55.0198 72.6449 54.9473C72.8724 54.8747 73.0805 54.7515 73.2533 54.5868C73.4262 54.4222 73.5594 54.2204 73.6429 53.9968C73.7264 53.7731 73.7581 53.5334 73.7354 53.2958C73.7216 52.2195 73.1443 51.7032 71.8735 51.694C69.7609 51.679 67.6471 51.694 65.5333 51.694" fill="#373737"/>
<path d="M90.3302 85.0092C84.12 85.0008 77.9099 84.9931 71.6997 84.9862C66.3014 84.9824 60.9028 84.9824 55.5037 84.9862C54.7677 84.9862 54.0949 84.7861 53.9006 84.079C53.7441 83.7197 53.7055 83.3201 53.7902 82.9376C53.8749 82.555 54.0786 82.2091 54.3721 81.9494C54.6168 81.7447 54.9297 81.6399 55.2484 81.6562C66.8906 81.6608 78.5331 81.6608 90.176 81.6562C90.6131 81.6244 91.047 81.7503 91.3992 82.0111C91.7513 82.2718 91.9984 82.6502 92.0955 83.0774C92.2427 83.964 91.8309 84.5458 90.7384 84.9943L90.3324 85.0069" fill="#373737"/>
<path d="M72.7221 78.3248C66.995 78.3248 61.2682 78.3248 55.5418 78.3248C54.6356 78.3248 53.8168 77.7659 53.8168 77.1646C53.8053 75.6295 54.2158 75.0948 55.4831 75.0051C55.6453 74.9936 55.8087 75.0051 55.9708 75.0051H89.9416C91.1687 75.0051 91.9668 75.5041 92.0979 76.3424C92.2785 77.4992 91.4608 78.3271 90.1026 78.3294C84.7987 78.3355 79.4946 78.3355 74.1907 78.3294H72.7268" fill="#373737"/>
<path d="M72.958 61.6826C78.653 61.6826 84.3475 61.6826 90.0417 61.6826C90.3631 61.6372 90.6907 61.6712 90.9958 61.7817C91.3009 61.8921 91.5743 62.0757 91.7921 62.3162C91.9561 62.5556 92.0572 62.8326 92.0857 63.1214C92.1143 63.4102 92.0694 63.7015 91.9555 63.9684C91.8415 64.2354 91.662 64.4692 91.4336 64.6483C91.2053 64.8274 90.9353 64.946 90.6489 64.9931C90.4227 65.0214 90.1945 65.0294 89.9669 65.0173C78.5432 65.0173 67.1216 65.0173 55.7018 65.0173C54.4367 65.0173 53.8617 64.5366 53.8283 63.4891C53.7869 63.2568 53.8 63.0181 53.8665 62.7918C53.933 62.5654 54.0509 62.3575 54.2113 62.1845C54.3717 62.0114 54.57 61.8779 54.7907 61.7944C55.0113 61.7109 55.2484 61.6797 55.4832 61.7033C57.3048 61.6723 59.1277 61.6907 60.9493 61.6895H72.9569" fill="#373737"/>
<path d="M66.1036 91.6472C62.2108 91.6472 58.9229 91.6552 55.6384 91.6472C54.4883 91.6472 53.8696 91.0826 53.8316 90.0925C53.7965 89.8693 53.8115 89.6411 53.8757 89.4245C53.9398 89.2079 54.0515 89.0082 54.2025 88.8402C54.3535 88.6721 54.5402 88.5398 54.7487 88.4529C54.9573 88.366 55.1826 88.3267 55.4083 88.3378C55.9246 88.2907 56.4433 88.3206 56.9701 88.3206C62.9916 88.3206 69.0132 88.3309 75.0348 88.308C75.4402 88.2613 75.85 88.3457 76.2039 88.5489C76.5578 88.7521 76.8373 89.0634 77.0013 89.4371C77.134 89.8252 77.1295 90.2471 76.9884 90.6322C76.8473 91.0173 76.5783 91.3423 76.2262 91.5529C76.1629 91.6224 76.0853 91.6775 75.9988 91.7144C75.9123 91.7513 75.8188 91.7692 75.7248 91.7668C72.3195 91.5057 68.9085 91.7472 66.107 91.6518" fill="#373737"/>
<path d="M81.0968 71.6681C78.1067 71.6681 75.1165 71.6681 72.1264 71.6681C71.9114 71.6959 71.6929 71.6773 71.4857 71.6134C71.2785 71.5496 71.0874 71.4421 70.9253 71.2981C70.7632 71.1541 70.6339 70.977 70.5461 70.7788C70.4583 70.5806 70.4141 70.3659 70.4164 70.1491C70.3976 69.9266 70.424 69.7027 70.4942 69.4907C70.5644 69.2788 70.6769 69.0833 70.8248 68.9161C70.9727 68.7488 71.153 68.6133 71.3547 68.5177C71.5565 68.4221 71.7757 68.3684 71.9988 68.3599C72.2579 68.3413 72.5178 68.3371 72.7774 68.3472C78.4639 68.3472 84.1504 68.3472 89.837 68.3472C90.1604 68.3228 90.4857 68.3418 90.8041 68.4036C91.8219 68.6899 92.198 69.2326 92.0934 70.1652C92.0202 70.5958 91.7935 70.9853 91.4552 71.2616C91.1169 71.5379 90.6898 71.6823 90.2532 71.6681C88.0107 71.6842 85.7681 71.6681 83.5267 71.6681H81.0899H81.0968Z" fill="#373737"/>
<path d="M55.5822 68.322C58.7041 68.3289 61.8258 68.3366 64.947 68.345C65.2384 68.3245 65.5313 68.3438 65.8175 68.4025C66.0214 68.4268 66.218 68.4932 66.395 68.5973C66.572 68.7014 66.7256 68.841 66.846 69.0074C66.9663 69.1737 67.0509 69.3632 67.0944 69.5639C67.1379 69.7645 67.1393 69.972 67.0987 70.1733C67.0229 70.6035 66.7941 70.9918 66.4544 71.2665C66.1148 71.5413 65.6872 71.6839 65.2506 71.6681C62.8114 71.6831 60.3733 71.6681 57.934 71.6681C57.0913 71.6125 56.2456 71.6202 55.404 71.6911C55.0787 71.768 54.7362 71.7168 54.4476 71.5481C54.159 71.3794 53.9464 71.1062 53.8538 70.785C53.7135 70.0882 53.5639 69.1453 54.4448 68.6209C54.6863 68.4772 54.936 68.3461 55.1821 68.2104C55.2729 68.4094 55.4304 68.3634 55.5868 68.3254" fill="#373737"/>
<path d="M55.5798 68.3218C55.4234 68.3643 55.2658 68.4114 55.1749 68.2068C55.3957 67.9264 55.4993 68.0781 55.5798 68.3218Z" fill="#B5CEDD"/>
<path d="M90.3318 85.0092L90.7378 84.9966C90.6124 85.3115 90.4801 85.4046 90.3318 85.0092Z" fill="#B5CEDD"/>
<path d="M87.1781 9.97031C85.5841 9.97031 83.9902 9.98181 82.3963 9.97031C81.1922 9.95882 80.5447 9.35973 80.5562 8.30989C80.5483 8.07968 80.5901 7.85046 80.6788 7.63786C80.7675 7.42525 80.9009 7.23426 81.0701 7.07788C81.2392 6.92151 81.4402 6.80343 81.6591 6.73168C81.878 6.65994 82.1098 6.63621 82.3387 6.66213C85.5588 6.63606 88.7789 6.63606 91.999 6.66213C92.2274 6.64829 92.4562 6.67968 92.6724 6.7545C92.8887 6.82932 93.088 6.94609 93.259 7.09812C93.4299 7.25015 93.5692 7.43444 93.6688 7.64042C93.7683 7.84639 93.8261 8.07 93.839 8.2984C93.8376 8.53505 93.7866 8.76877 93.6894 8.98453C93.5921 9.20028 93.4508 9.39329 93.2744 9.55111C93.098 9.70893 92.8906 9.82807 92.6654 9.90087C92.4402 9.97366 92.2023 9.99849 91.9669 9.97376C90.3729 9.98871 88.7789 9.97376 87.1849 9.97376" fill="#373737"/>
<path d="M9.45196 9.96922C9.12316 10.0267 8.78563 10.0087 8.46484 9.91645C8.14405 9.82421 7.84843 9.6602 7.60042 9.43683C7.38105 9.2191 7.22764 8.94385 7.15786 8.64277C7.08807 8.34169 7.10473 8.02703 7.20594 7.73502C7.28357 7.4328 7.45901 7.16473 7.70487 6.97255C7.95073 6.78038 8.25323 6.6749 8.56529 6.67253C9.17825 6.64034 9.79586 6.62884 10.4054 6.65528C10.6322 6.63634 10.8605 6.66916 11.0728 6.75128C11.2851 6.8334 11.476 6.96267 11.631 7.12933C11.7861 7.29599 11.9012 7.49569 11.9678 7.71336C12.0344 7.93103 12.0507 8.16097 12.0154 8.38585C12.0062 9.39544 11.46 9.91978 10.3571 9.96692C10.0983 9.97842 9.83842 9.96692 9.44396 9.96692" fill="#373737"/>
<path d="M17.9371 9.97386C17.7428 9.97386 17.5496 9.97386 17.3552 9.97386C16.2213 9.94281 15.5669 9.37592 15.5335 8.39853C15.523 8.16302 15.5625 7.92795 15.6493 7.70876C15.7361 7.48957 15.8683 7.29121 16.0371 7.1267C16.206 6.96219 16.4078 6.83525 16.6292 6.75421C16.8506 6.67317 17.0866 6.63986 17.3218 6.65647C17.7738 6.63462 18.2281 6.63347 18.6789 6.65647C18.9144 6.63643 19.1515 6.66784 19.3737 6.7485C19.5959 6.82917 19.7979 6.95718 19.9657 7.12365C20.1335 7.29012 20.2631 7.49108 20.3456 7.7126C20.428 7.93413 20.4612 8.17092 20.4431 8.40658C20.4028 9.39317 19.7622 9.94281 18.6168 9.97271C18.3868 9.97271 18.1648 9.97271 17.9382 9.97271" fill="#373737"/>
<path d="M26.3333 9.96335C25.8926 10.0772 25.4271 10.0482 25.0039 9.88061C24.5806 9.71302 24.2214 9.41548 23.9781 9.0308C23.8509 8.81578 23.7816 8.57153 23.7766 8.32177C23.7717 8.07201 23.8314 7.82522 23.95 7.60537C24.0686 7.38551 24.2421 7.20005 24.4536 7.06701C24.665 6.93396 24.9073 6.85784 25.1569 6.84604C25.8366 6.81269 26.5186 6.83569 27.1994 6.83799C27.3999 6.81713 27.6025 6.83802 27.7945 6.89935C27.9865 6.96067 28.1638 7.0611 28.315 7.1943C28.4663 7.3275 28.5882 7.49058 28.6733 7.67327C28.7584 7.85597 28.8048 8.0543 28.8094 8.25578C28.8268 8.4667 28.8016 8.67895 28.7353 8.87993C28.669 9.0809 28.5629 9.2665 28.4234 9.42569C28.2839 9.58488 28.1139 9.7144 27.9233 9.80657C27.7328 9.89873 27.5257 9.95166 27.3143 9.9622C26.9935 9.99324 26.6669 9.9622 26.33 9.9622" fill="#373737"/>
<path d="M20.2578 25.0007H21.2928C43.9684 25.0007 66.6436 24.9927 89.3185 24.9766C90.304 24.9766 90.5525 25.2065 90.5387 26.1966C90.4789 30.5224 90.503 34.8505 90.5214 39.1775C90.5214 39.9824 90.4651 40.3113 89.4438 40.0767C84.8219 39.0188 80.1688 38.0978 75.5285 37.0962C69.9324 35.8877 64.3627 34.5493 58.7447 33.4534C54.9094 32.706 51.112 31.7942 47.2801 31.0387C43.8783 30.3637 40.511 29.522 37.1196 28.7953C32.0376 27.7064 26.9475 26.6565 21.8632 25.5757C21.3124 25.4607 20.7765 25.2778 20.2336 25.1272C20.2394 25.0847 20.2463 25.0433 20.2532 25.0007" fill="#FFC0A1"/>
<path d="M80.4459 41.6495H79.304C56.751 41.6495 34.1989 41.6564 11.6475 41.6702C10.7275 41.6702 10.4422 41.4713 10.456 40.5065C10.5135 36.2762 10.4802 32.0458 10.4802 27.8142C10.4802 26.5931 10.5458 26.5758 11.8602 26.8713C14.0925 27.3761 16.3327 27.8487 18.5753 28.311C21.5366 28.9204 24.5071 29.485 27.4639 30.1105C30.0124 30.6498 32.5436 31.2719 35.0909 31.8181C37.6797 32.3735 40.2798 32.8725 42.872 33.4118C44.7293 33.7982 46.5797 34.2167 48.4347 34.6123C55.302 36.0933 62.17 37.5732 69.0387 39.0519C72.7089 39.8415 76.3802 40.6261 80.0526 41.4057C80.1932 41.4718 80.3262 41.5527 80.4494 41.6472" fill="#FFC0A1"/>
<path d="M81.0172 41.7106C80.9247 41.725 80.8309 41.7277 80.7378 41.7186C80.7045 41.7117 80.6895 41.6198 80.6665 41.5669C80.7465 41.5414 80.8298 41.5282 80.9137 41.5278C80.9494 41.5278 80.9723 41.6267 81.0172 41.7106Z" fill="#6E7689"/>
<path d="M13.2032 51.6763H14.114C24.7507 51.6763 35.3897 51.689 46.0229 51.6533C46.9694 51.6533 47.1959 51.8959 47.1924 52.8331C47.1568 63.4694 47.1705 74.1058 47.1648 84.7433C47.1648 85.0526 47.2522 85.3803 47.1453 85.5689L13.202 51.6763" fill="#FFC0A1"/>
<path d="M10.5478 54.4028L44.4416 88.3874C44.4094 88.4587 44.1093 88.308 43.8873 88.308C33.051 88.3172 22.2149 88.3234 11.3793 88.3264C10.7468 88.3264 10.4685 88.2229 10.4696 87.4905C10.4926 76.654 10.4995 65.8176 10.4903 54.9812C10.4903 54.7731 10.3914 54.527 10.5478 54.4063" fill="#FFC0A1"/>
<path d="M65.5365 51.6902C67.6491 51.6902 69.7628 51.6787 71.8754 51.6902C73.1462 51.6994 73.7247 52.2157 73.7374 53.2919C73.7602 53.5296 73.7287 53.7694 73.6453 53.9932C73.5618 54.217 73.4286 54.4188 73.2557 54.5835C73.0828 54.7482 72.8747 54.8715 72.6471 54.9439C72.4196 55.0164 72.1785 55.0362 71.9421 55.0018C67.6487 55.0294 63.3575 55.0294 59.0687 55.0018C58.8241 55.0312 58.576 55.0079 58.3412 54.9335C58.1064 54.8591 57.8903 54.7352 57.7074 54.5703C57.5244 54.4053 57.379 54.2031 57.2807 53.9773C57.1825 53.7514 57.1336 53.5072 57.1377 53.2609C57.1641 52.3122 57.9048 51.7005 59.0986 51.6925C61.2434 51.6775 63.3893 51.6925 65.5387 51.6925" fill="#FF5500"/>
</g>
<defs>
<clipPath id="clip0_307_43">
<rect width="100" height="100" fill="white" transform="translate(0.5)"/>
</clipPath>
</defs>
</svg>
