<svg width="101" height="100" viewBox="0 0 101 100" fill="none" xmlns="http://www.w3.org/2000/svg">
<g clip-path="url(#clip0_307_126)">
<path d="M66.336 77.0852C70.4933 77.3318 74.6264 77.7696 78.712 78.396C83.2606 78.9788 87.6947 79.9831 91.9123 81.3857C94.7965 82.362 97.6468 83.4313 99.4043 85.5368C100.224 86.4333 100.605 87.5145 100.483 88.5974C100.361 89.6803 99.7438 90.6983 98.7351 91.4793C95.4872 94.1079 91.2308 95.3946 86.8318 96.5273C83.4097 97.3461 79.916 97.9866 76.3759 98.4441C74.8584 98.8728 73.215 98.9879 71.6176 98.7776C71.1909 98.6729 70.5846 99.0604 70.0397 99.1306C69.0236 99.2617 67.808 99.08 67.0037 99.2456C65.5394 99.5549 64.1088 99.3606 62.7059 99.5779C61.2389 99.7915 59.749 99.9047 58.2546 99.916C53.0037 99.9907 47.7435 100.047 42.4972 99.9045C39.6929 99.8286 36.8763 99.5756 34.072 99.3824C30.1912 99.1186 26.3338 98.6887 22.5186 98.0946C16.25 97.1137 10.0167 95.9995 4.66446 93.1041C2.59081 92.0779 1.1281 90.4901 0.583113 88.6736C0.380147 87.5884 0.739331 86.4862 1.58695 85.5931C3.59309 83.191 6.864 82.0159 10.1948 81.0109C13.0653 80.1123 16.0362 79.4055 19.0728 78.8985C21.7558 78.4777 24.4542 78.0994 27.1434 77.7073C29.26 77.3991 31.3966 77.4095 33.4995 77.1392C33.7926 77.1013 34.2347 77.0415 34.3145 76.9001C34.4388 76.6793 34.1718 76.4298 33.94 76.2331C29.8356 72.7674 25.9231 69.1833 22.247 65.4588C19.8207 63.1583 17.5572 60.764 15.4657 58.2859C13.1159 55.5107 10.964 52.6443 9.01903 49.6986C7.04621 46.6557 5.58407 43.4415 4.666 40.1294C4.05772 38.0081 3.88125 35.8302 4.14259 33.6694C4.31143 32.6126 4.12417 31.4731 4.28227 30.36C4.68715 27.8736 5.46304 25.429 6.59539 23.0721C8.24492 19.4894 10.7141 16.149 13.8924 13.2005C16.9661 10.2706 20.6451 7.72755 24.7903 5.66763C28.8358 3.65572 33.285 2.14175 37.9691 1.18312C41.1999 0.448455 44.5546 0.0647065 47.9308 0.0435968C49.3644 0.068894 50.7949 -0.00699797 52.2285 0.00910028C62.505 0.219923 72.3921 2.99986 80.316 7.90644C87.5922 12.5581 92.8908 18.7041 95.5578 25.5858C96.184 26.9077 96.5576 28.2894 96.6675 29.6897C96.709 31.4145 97.3767 33.0956 97.2293 34.7997C97.0616 37.2237 96.5961 39.631 95.8387 41.991C94.6486 45.5528 92.776 48.9666 90.2792 52.126C89.392 53.2425 89.0743 54.5948 87.8233 55.5204C86.3145 56.6324 85.9814 58.2341 84.6859 59.4427C83.3905 60.6512 82.3237 61.9724 81.105 63.22C78.1963 66.1924 75.1894 69.1085 72.0305 71.9361C70.1718 73.5999 68.3375 75.2776 66.3421 77.0852M50.4772 85.6276C51.3162 85.0102 52.1133 84.3616 52.8655 83.6843C56.4097 80.5693 60.0351 77.5049 63.5992 74.4025C67.4887 71.0162 71.2968 67.5872 74.9008 64.018C78.5048 60.4488 81.8279 56.7531 84.9484 52.9585C86.5784 50.964 88.0147 48.8843 89.2462 46.7354C90.7595 44.2304 91.8069 41.5817 92.359 38.8634C92.7603 37.3885 92.9236 35.8829 92.8456 34.3789C92.6721 33.2393 92.577 32.0446 92.3345 30.8993C92.0781 29.6931 91.94 28.426 91.5916 27.2025C90.5903 24.0271 88.9087 20.9943 86.6123 18.222C84.376 15.4312 81.5271 12.9432 78.1856 10.8628C74.0597 8.15687 69.2451 6.10489 64.0321 4.83052C59.1014 3.69331 53.9608 3.14993 48.8026 3.2207C44.8184 3.33403 40.8762 3.87341 37.0958 4.82248C31.2547 6.18536 25.9168 8.54734 21.5041 11.7217C18.5264 13.894 15.9491 16.3542 13.8402 19.0372C12.5053 20.7674 11.4098 22.5952 10.5708 24.4922C9.56046 26.5498 8.88683 28.6915 8.56469 30.8706C8.1573 33.0605 8.12377 35.2804 8.46492 37.4766C9.08963 41.0425 10.4896 44.5077 12.6092 47.7346C14.7987 51.0869 17.2459 54.3411 19.9384 57.481C22.3283 60.1993 24.907 62.821 27.5869 65.3795C30.4557 68.1185 33.3214 70.8632 36.4219 73.4631C38.3774 75.1028 40.2823 76.7747 42.2025 78.4386C44.9653 80.8311 47.7241 83.2294 50.4787 85.6334M60.7627 96.5077C64.1625 96.2892 67.5578 96.065 70.9454 95.7247C76.1077 95.3096 81.1964 94.4843 86.1257 93.2628C89.3859 92.3854 92.6783 91.5288 95.2063 89.6361C96.6061 88.5874 96.3943 87.6249 94.9546 86.5636C92.6996 85.0852 90.0214 84.0147 87.1265 83.4348C84.3288 82.6647 81.4414 82.0915 78.5018 81.7226C76.2669 81.4823 74.0382 81.0327 71.785 80.8027C68.9883 80.5245 66.1963 80.1864 63.3675 80.076C63.0129 80.0622 62.7842 80.0519 62.5754 80.2335C61.2815 81.3639 60.0091 82.5068 58.7059 83.6314C56.5233 85.5138 54.3605 87.4099 52.115 89.2497C51.9439 89.4416 51.7132 89.5994 51.4428 89.7098C51.1723 89.8201 50.8701 89.8797 50.5622 89.8833C50.2543 89.8869 49.9498 89.8345 49.6749 89.7305C49.3999 89.6266 49.1628 89.4742 48.9837 89.2865C47.7558 88.2804 46.6629 87.1891 45.4734 86.1588C43.258 84.2424 41.0241 82.3367 38.7719 80.4417C38.5386 80.2462 38.3114 79.9633 37.7819 80.0358C35.8279 80.3025 33.8387 80.3922 31.8694 80.5417C27.2594 80.8817 22.6938 81.5016 18.2178 82.3953C14.3263 82.9876 10.6304 84.1527 7.34443 85.8231C4.49255 87.464 3.88626 88.2804 6.85786 90.249C9.04357 91.5322 11.535 92.4925 14.1994 93.0788C19.6283 94.5006 25.2646 95.4314 30.9883 95.8511C36.1392 96.3826 41.3301 96.6664 46.5294 96.7009C51.2708 96.6388 56.0152 96.7274 60.755 96.4985" fill="black"/>
<path d="M50.4769 85.6278C47.7141 83.223 44.9553 80.8247 42.2006 78.433C40.282 76.7691 38.3756 75.0984 36.4201 73.4575C33.318 70.8588 30.4539 68.1117 27.5836 65.375C24.9036 62.8165 22.325 60.1948 19.9351 57.4765C17.2425 54.3366 14.7953 51.0824 12.6058 47.7302C10.4862 44.5033 9.08622 41.0381 8.46156 37.4722C8.12041 35.2759 8.15393 33.056 8.56133 30.8661C8.8835 28.6871 9.55713 26.5453 10.5675 24.4878C11.4065 22.5908 12.502 20.763 13.8369 19.0328C15.9448 16.3482 18.5216 13.8864 21.4992 11.7127C25.9119 8.53828 31.2498 6.17631 37.0909 4.81342C40.8713 3.86422 44.8135 3.32484 48.7977 3.21164C53.9559 3.14114 59.0964 3.68451 64.0272 4.82147C69.2402 6.09586 74.0548 8.14784 78.1807 10.8537C81.5223 12.9341 84.3712 15.4221 86.6074 18.2129C88.9038 20.9853 90.5853 24.0181 91.5867 27.1934C91.9351 28.4169 92.0732 29.6829 92.3296 30.8903C92.5721 32.0401 92.6672 33.2303 92.8407 34.3698C92.9188 35.8738 92.7554 37.3795 92.3541 38.8543C91.802 41.5726 90.7547 44.2214 89.2413 46.7263C88.0099 48.8753 86.5736 50.955 84.9435 52.9495C81.823 56.7521 78.4969 60.4443 74.8959 64.0124C71.295 67.5805 67.4838 71.0117 63.5943 74.3969C60.0303 77.5016 56.4048 80.5637 52.8606 83.6787C52.1085 84.3561 51.3114 85.0046 50.4723 85.622M50.2144 63.2477C54.1783 63.292 58.1252 62.8515 61.8998 61.9438C69.1314 60.1879 75.5216 56.8889 80.2866 52.4516C85.4516 47.6863 88.3612 41.7724 88.5598 35.6358C88.7176 32.0615 87.8991 28.5008 86.1546 25.1719C85.3055 23.4007 84.2586 21.6863 83.0249 20.047C80.1854 16.3834 76.192 13.2962 71.3933 11.0549C66.628 8.73188 61.2399 7.22101 55.6097 6.62907C52.4186 6.3324 49.2137 6.64862 46.0609 6.20362C46.0033 6.19358 45.9433 6.19465 45.8864 6.20671C45.8295 6.21878 45.7776 6.24145 45.7355 6.27261C44.9414 6.59109 44.0716 6.78956 43.1753 6.85674C39.2581 7.53407 35.4844 8.61325 31.9612 10.0637C26.7459 12.2345 22.283 15.2915 18.9312 18.9891C18.2098 19.7537 17.7662 20.615 17.0893 21.3923C16.1911 22.3877 15.4804 23.4711 14.9773 24.612C14.4984 25.7618 14.4109 26.9864 13.8292 28.0685C13.2043 29.2534 12.8379 30.5059 12.744 31.778C12.3195 35.3108 12.7173 38.872 13.9197 42.3028C16.0221 47.9773 20.419 53.0246 26.5061 56.751C33.1329 60.951 41.5342 63.2531 50.2144 63.2477Z" fill="#FFC0A1"/>
<path d="M60.7502 96.5031C56.0104 96.7331 51.2659 96.6434 46.5246 96.7055C41.3253 96.671 36.1344 96.3871 30.9835 95.8557C25.2598 95.4359 19.6235 94.5052 14.1946 93.0834C11.5301 92.4971 9.03875 91.5368 6.85305 90.2535C3.88144 88.2861 4.48774 87.4697 7.33962 85.8276C10.6256 84.1573 14.3215 82.9922 18.213 82.3999C22.6848 81.5047 27.2462 80.8829 31.8523 80.5405C33.8216 80.3922 35.8108 80.3014 37.7648 80.0346C38.2989 79.9621 38.5215 80.2439 38.7548 80.4405C41.006 82.3332 43.2398 84.2389 45.4563 86.1577C46.6458 87.1926 47.7433 88.2792 48.9666 89.2853C49.1457 89.4731 49.3828 89.6254 49.6578 89.7294C49.9327 89.8333 50.2372 89.8857 50.5451 89.8821C50.8531 89.8785 51.1552 89.819 51.4257 89.7086C51.6961 89.5983 51.9268 89.4404 52.0979 89.2485C54.3419 87.4087 56.5062 85.5126 58.6888 83.6303C59.992 82.5057 61.2644 81.3627 62.5583 80.2324C62.7656 80.0507 62.9943 80.061 63.3504 80.0748C66.1777 80.1898 68.9712 80.5233 71.7679 80.8016C74.0211 81.0258 76.2498 81.4777 78.4847 81.7215C81.4243 82.0903 84.3117 82.6635 87.1094 83.4336C90.0043 84.0135 92.6826 85.0839 94.9375 86.5624C96.3772 87.6238 96.589 88.5862 95.1892 89.6349C92.6612 91.5287 89.3688 92.3843 86.1086 93.2616C81.1794 94.4835 76.0906 95.3092 70.9283 95.7246C67.5407 96.0696 64.1439 96.2881 60.7456 96.5066" fill="#FF5500"/>
<path d="M50.2144 63.2474C41.5352 63.2523 33.1352 60.9501 26.5091 56.7507C20.4221 53.0243 16.0252 47.977 13.9228 42.3025C12.7202 38.8717 12.3223 35.3105 12.7471 31.7777C12.8408 30.5056 13.2072 29.2531 13.8323 28.0682C14.414 26.9862 14.503 25.7581 14.9804 24.6117C15.4832 23.4707 16.1939 22.3873 17.0924 21.392C17.7724 20.6147 18.216 19.7534 18.9343 18.9888C22.2861 15.2912 26.749 12.2342 31.9643 10.0634C35.4875 8.61292 39.2611 7.53373 43.1784 6.85645C44.0746 6.78929 44.9445 6.59082 45.7386 6.27231C45.7808 6.24096 45.833 6.21818 45.8902 6.20611C45.9474 6.19404 46.0077 6.19308 46.0656 6.20332C49.2183 6.64947 52.4232 6.33326 55.6143 6.62992C61.243 7.2208 66.6299 8.73007 71.3948 11.0512C76.1935 13.2924 80.187 16.3796 83.0264 20.0432C84.2604 21.6829 85.3073 23.3977 86.1561 25.1694C87.9006 28.4982 88.7191 32.0589 88.5613 35.6332C88.3628 41.7698 85.4532 47.6837 80.2881 52.449C75.5231 56.887 69.1322 60.1865 61.8998 61.9423C58.1252 62.8501 54.1783 63.2917 50.2144 63.2474ZM50.5352 59.9979C59.4291 60.0039 67.9654 57.3752 74.2825 52.6852C80.5997 47.9952 84.1853 41.6242 84.2574 34.9617C84.2888 31.4615 83.3484 27.9947 81.4958 24.7813C79.6432 21.568 76.919 18.6783 73.4961 16.2958C68.3863 12.4207 61.6772 10.8615 54.8837 9.61845C53.512 9.46454 52.1207 9.43404 50.7394 9.52761C46.2786 9.5118 41.858 10.1592 37.7335 11.4323C33.6091 12.7054 29.8629 14.5789 26.7118 16.9443C23.2173 19.5286 20.5316 22.6614 18.8483 26.117C17.165 29.5727 16.526 33.265 16.9773 36.928C18.0671 48.4957 31.7448 60.1819 50.5352 60.0014" fill="black"/>
<path d="M50.5288 60.0002C31.7367 60.1831 18.0575 48.5015 16.9662 36.9303C16.5149 33.2673 17.1539 29.575 18.8372 26.1193C20.5205 22.6637 23.2062 19.5309 26.7007 16.9466C29.8516 14.5814 33.5976 12.7079 37.7218 11.4348C41.8459 10.1617 46.2662 9.51427 50.7268 9.52992C52.1081 9.43648 53.4994 9.46698 54.871 9.62077C61.6646 10.8638 68.3783 12.423 73.4835 16.2981C76.9064 18.6806 79.6306 21.5703 81.4832 24.7836C83.3358 27.997 84.2762 31.4638 84.2448 34.964C84.1727 41.6258 80.5879 47.996 74.2721 52.6859C67.9563 57.3758 59.4216 60.005 50.5288 60.0002ZM56.6055 29.4136L56.4413 29.1721C58.5211 28.4362 59.2287 26.8815 59.9624 25.5534C60.8979 24.0662 61.3602 22.4367 61.3128 20.793C61.2654 19.1493 60.7096 17.5363 59.6892 16.0808C59.0746 15.0859 58.0639 14.258 56.7958 13.7109C54.3592 12.8821 51.6733 12.5513 49.0107 12.7519C47.8213 12.7745 46.6495 12.9728 45.5625 13.3353C44.4755 13.6977 43.4947 14.2173 42.6761 14.8642C41.2478 16.0447 40.3287 17.5208 40.0391 19.0992C39.6762 20.7301 39.7823 22.4003 40.3504 23.998C40.9184 25.5957 41.9353 27.0841 43.3331 28.3637C43.6047 28.6167 44.1097 28.8122 43.8427 29.2008C43.72 29.3573 43.5462 29.4878 43.3375 29.58C43.1288 29.6721 42.8922 29.7229 42.65 29.7275C39.8979 30.0211 37.2253 30.6393 34.7314 31.5592C33.1274 32.065 31.7633 32.9202 30.8161 34.0139C29.8688 35.1076 29.3821 36.3892 29.419 37.6927C29.4298 41.7609 29.419 45.8292 29.419 49.8974C29.419 51.7476 29.944 52.1454 32.3906 52.1454C44.5533 52.1454 56.7155 52.1454 68.8772 52.1454C71.046 52.1454 71.8672 51.5302 71.8687 49.9066C71.8687 46.0407 71.8457 42.1737 71.8764 38.3078C71.9148 33.6393 68.0038 31.6317 63.0629 30.5427C60.9478 30.0759 58.7651 29.7919 56.6086 29.4239" fill="#FFEBE1"/>
<path d="M56.612 29.4162C58.7609 29.783 60.9513 30.0682 63.0664 30.535C68.0057 31.624 71.9167 33.6316 71.8799 38.3001C71.8477 42.166 71.8799 46.033 71.8799 49.8989C71.8799 51.5225 71.0572 52.1377 68.8883 52.1377C56.7256 52.1377 44.5634 52.1377 32.4018 52.1377C29.9536 52.1377 29.4302 51.7399 29.4286 49.8897C29.4286 45.8215 29.4363 41.7532 29.4286 37.6849C29.3915 36.3815 29.8781 35.0998 30.8254 34.0061C31.7727 32.9124 33.1369 32.0572 34.741 31.5515C37.2365 30.6347 39.9102 30.0199 42.6627 29.7301C42.9051 29.7256 43.142 29.6749 43.3509 29.5828C43.5599 29.4906 43.734 29.3601 43.8569 29.2035C44.1239 28.8148 43.6189 28.6193 43.3473 28.3664C41.9498 27.0869 40.933 25.5987 40.3649 24.0012C39.7969 22.4037 39.6906 20.7337 40.0533 19.103C40.3436 17.5245 41.2632 16.0484 42.6919 14.868C43.5103 14.221 44.4912 13.7014 45.5782 13.339C46.6652 12.9765 47.837 12.7783 49.0265 12.7557C51.689 12.5552 54.3749 12.8861 56.8116 13.7147C58.0796 14.2618 59.0904 15.0897 59.7049 16.0846C60.7253 17.5399 61.2811 19.1527 61.3285 20.7962C61.3759 22.4397 60.9137 24.0691 59.9781 25.5561C59.2444 26.883 58.5384 28.4388 56.4585 29.1747L56.6228 29.4162M50.6842 48.9135C52.9298 48.9135 55.1769 48.8675 57.4179 48.933C58.5506 48.9652 58.9958 48.795 58.9313 47.851C58.8131 46.1066 58.8929 44.3542 58.9006 42.6053C58.9006 41.8003 58.8807 40.9885 58.9635 40.1905C58.9733 39.8463 59.1564 39.5176 59.4761 39.2702C59.7957 39.0229 60.2283 38.8752 60.6873 38.8567C61.0429 38.865 61.3926 38.9277 61.7147 39.041C62.0369 39.1542 62.3247 39.3157 62.5604 39.5154C62.7962 39.715 62.975 39.9487 63.0857 40.2021C63.1965 40.4554 63.2369 40.7231 63.2045 40.9885C63.2229 42.8387 63.2045 44.6888 63.2045 46.539C63.2045 48.9618 63.2045 48.9273 66.4079 48.9388C67.4087 48.9388 67.5714 48.672 67.5622 48.0062C67.5192 44.8452 67.4332 41.6819 67.579 38.5221C67.678 37.5184 67.3114 36.5198 66.5412 35.6952C65.771 34.8706 64.6445 34.2704 63.3519 33.9961C61.8894 33.5808 60.372 33.2837 58.8254 33.1096C54.3407 32.5129 49.7677 32.3817 45.2352 32.7198C43.2279 32.8764 41.2425 33.163 39.3012 33.5764C35.3104 34.4538 33.4869 35.6531 33.6865 38.7739C33.8814 41.828 33.7724 44.8947 33.7003 47.9556C33.6803 48.787 34.0503 48.948 35.0633 48.9353C38.0748 48.8985 38.0764 48.9296 38.0764 46.6988C38.0764 44.8153 38.0656 42.9318 38.0764 41.0483C38.0871 39.6052 38.6658 39.0211 40.0503 39.0027C41.5545 38.9832 42.3649 39.6926 42.3849 41.0552C42.3849 41.2565 42.3849 41.4588 42.3849 41.6612C42.3849 43.7471 42.4263 45.833 42.3618 47.9165C42.3388 48.6789 42.5568 48.9733 43.6711 48.9388C46.0027 48.8686 48.3404 48.9169 50.675 48.9169M56.8147 20.7381C56.9496 20.0932 56.8821 19.4337 56.6175 18.8117C56.353 18.1898 55.8986 17.6226 55.2905 17.1551C54.6749 16.687 53.9186 16.336 53.085 16.1316C52.2513 15.9271 51.3644 15.8751 50.4985 15.9799C49.8135 15.9357 49.1252 15.9268 48.4386 15.9535C47.2411 16.2173 46.1858 16.7583 45.4239 17.4991C44.6621 18.2398 44.2328 19.1422 44.1976 20.0769C43.818 22.0519 44.4785 24.0601 46.0395 25.6768C48.6305 28.417 52.2022 28.4423 54.9052 25.8021C56.3605 24.3527 57.0404 22.5483 56.8116 20.7427" fill="black"/>
<path d="M50.6854 48.9134C48.3508 48.9134 46.0131 48.8639 43.6816 48.9352C42.5657 48.9685 42.3477 48.6753 42.3707 47.913C42.4352 45.8282 42.3938 43.7424 42.3938 41.6565C42.3938 41.4553 42.3938 41.2529 42.3938 41.0505C42.3738 39.6902 41.5649 38.9807 40.0607 38.998C38.6793 39.0152 38.0975 39.6005 38.0868 41.0436C38.073 42.9271 38.0868 44.8106 38.0868 46.6941C38.0868 48.9249 38.0868 48.8938 35.0737 48.9306C34.0592 48.9433 33.6923 48.7823 33.7092 47.9509C33.7813 44.8911 33.8903 41.8232 33.6954 38.7703C33.4958 35.6484 35.3239 34.4502 39.3101 33.5717C41.2513 33.1582 43.2368 32.8716 45.2441 32.7151C49.7766 32.377 54.3496 32.5082 58.8343 33.1049C60.3809 33.2789 61.8983 33.5761 63.3608 33.9914C64.6536 34.2655 65.7805 34.8656 66.551 35.6902C67.3215 36.5149 67.6883 37.5135 67.5895 38.5173C67.436 41.6749 67.5296 44.8417 67.571 48.0015C67.5803 48.6673 67.4176 48.9375 66.4168 48.9341C63.2149 48.9226 63.2149 48.9571 63.2149 46.5343C63.2149 44.6841 63.2272 42.834 63.2149 40.9838C63.2476 40.7183 63.2073 40.4505 63.0967 40.197C62.986 39.9435 62.8073 39.7097 62.5715 39.5099C62.3357 39.3101 62.0478 39.1485 61.7255 39.0352C61.4033 38.9218 61.0535 38.8591 60.6977 38.8508C60.2388 38.8693 59.8061 39.017 59.4865 39.2644C59.1668 39.5117 58.9838 39.8404 58.974 40.1847C58.8911 40.9896 58.9141 41.7945 58.911 42.5994C58.911 44.3484 58.8251 46.1008 58.9417 47.8451C59.0062 48.7892 58.5611 48.9594 57.4283 48.9272C55.1858 48.8628 52.9387 48.9076 50.6946 48.9076" fill="#FF5500"/>
<path d="M56.8313 20.7334C57.06 22.539 56.3801 24.3434 54.9249 25.7929C52.2235 28.4376 48.6517 28.4077 46.0592 25.6675C44.4982 24.0508 43.8377 22.0426 44.2173 20.0677C44.2525 19.1329 44.6818 18.2305 45.4436 17.4898C46.2055 16.7491 47.2608 16.208 48.4583 15.9442C49.1449 15.9176 49.8332 15.9264 50.5182 15.9707C51.3841 15.8659 52.271 15.9179 53.1047 16.1223C53.9383 16.3268 54.6946 16.6777 55.3102 17.1458C55.9183 17.6133 56.3727 18.1805 56.6372 18.8025C56.9018 19.4244 56.9693 20.084 56.8344 20.7288" fill="#FFEBE1"/>
</g>
<defs>
<clipPath id="clip0_307_126">
<rect width="100" height="100" fill="white" transform="translate(0.5)"/>
</clipPath>
</defs>
</svg>
