<svg xmlns="http://www.w3.org/2000/svg" width="90" height="90" viewBox="0 0 90 90">
  <g id="Group_219" data-name="Group 219" transform="translate(-773 -3208)">
    <rect id="Rectangle_214" data-name="Rectangle 214" width="90" height="90" transform="translate(773 3208)" fill="rgba(255,255,255,0)"/>
    <g id="Group_198" data-name="Group 198" transform="translate(787 3222)">
      <path id="Path_4925" data-name="Path 4925" d="M735.4,29.516V33.19c-.038.217-.082.433-.113.651-.2,1.35-.308,2.718-.6,4.047a30.459,30.459,0,0,1-11.637,18.345,31.287,31.287,0,0,1-43.848-5.814,30.494,30.494,0,0,1-6.342-22.2,30.3,30.3,0,0,1,7.649-17.527A30.785,30.785,0,0,1,698.648.488c1.18-.21,2.376-.328,3.564-.488h3.674a3.331,3.331,0,0,0,.473.1,29.834,29.834,0,0,1,13.678,4.314,30.948,30.948,0,0,1,14.876,21.542c.22,1.175.328,2.372.489,3.558m-3.919,1.847a27.433,27.433,0,1,0-27.474,27.423,27.48,27.48,0,0,0,27.474-27.423" transform="translate(-672.704)" fill="#fff" stroke="#f3f5f7" stroke-width="1"/>
      <path id="Path_4926" data-name="Path 4926" d="M807.709,103.646a5.817,5.817,0,0,0-4.5-3.805,9.577,9.577,0,0,0-1.706-.109c-2.347-.011-4.693.007-7.04-.01a1.959,1.959,0,1,1,.025-3.913h5.448q6.918,0,13.835,0a1.96,1.96,0,1,1,.15,3.91c-1.264.015-2.529,0-3.758,0l1.8,3.922c.539,0,1.21-.009,1.881,0a1.96,1.96,0,1,1,0,3.914c-.671.01-1.342,0-1.983,0-1.9,6.386-6.473,8.372-12.8,7.766.284.309.422.469.57.617q5.8,5.8,11.6,11.6a2.006,2.006,0,0,1,.66,2.147,1.931,1.931,0,0,1-3.021.984,4.192,4.192,0,0,1-.452-.411q-7.62-7.617-15.241-15.233a2.111,2.111,0,0,1-.749-1.906,1.96,1.96,0,0,1,2.053-1.642c2.53-.01,5.061.025,7.591-.012a5.759,5.759,0,0,0,5.5-3.59c.033-.071.051-.15.1-.29-.239-.011-.451-.03-.662-.03-4.163,0-8.326,0-12.488,0a1.966,1.966,0,0,1-1.976-2.685,1.994,1.994,0,0,1,2-1.228q6.152-.006,12.3,0h.859" transform="translate(-772.811 -80.131)" fill="#fff" stroke="#f3f5f7" stroke-width="1"/>
    </g>
  </g>
</svg>
