<svg xmlns="http://www.w3.org/2000/svg" width="90" height="90" viewBox="0 0 90 90">
  <g id="Group_217" data-name="Group 217" transform="translate(-1000 -2870)">
    <rect id="Rectangle_212" data-name="Rectangle 212" width="90" height="90" transform="translate(1000 2870)" fill="rgba(255,255,255,0)"/>
    <g id="Group_197" data-name="Group 197" transform="translate(1018 2884)">
      <path id="Path_4930" data-name="Path 4930" d="M223.712,0c.388.108.78.2,1.163.325a6.551,6.551,0,1,1-3.273-.2A3.654,3.654,0,0,0,222,0Zm-.857,11.162a4.6,4.6,0,1,0-4.59-4.594,4.618,4.618,0,0,0,4.59,4.594" transform="translate(-180.909)" fill="#fff"/>
      <path id="Path_4931" data-name="Path 4931" d="M42.528,0c.348.1.7.184,1.045.288a6.567,6.567,0,1,1-3.035-.18A1.527,1.527,0,0,0,40.813,0ZM41.67,11.162a4.6,4.6,0,1,0-4.626-4.568,4.591,4.591,0,0,0,4.626,4.568" transform="translate(-29.364)" fill="#fff"/>
      <path id="Path_4932" data-name="Path 4932" d="M29.4,106.583a11.735,11.735,0,0,1-16.542,12.091c-.123.2-.236.415-.376.611-.4.564-.654,1.054-.081,1.741a1.7,1.7,0,0,1,0,1.972c-1.99,3.466-3.973,6.936-6,10.377a2.708,2.708,0,0,1-3.755.895,2.724,2.724,0,0,1-.995-3.683q2.942-5.187,5.96-10.332a2.145,2.145,0,0,1,2.589-.936l.954-1.644a11.763,11.763,0,0,1-4.188-13.853c-.894,0-1.705.005-2.516,0A4.2,4.2,0,0,1,.015,99.41C0,97.9-.01,96.389.018,94.879A8.856,8.856,0,0,1,9,86.046c2.184-.008,4.368,0,6.552,0a8.9,8.9,0,0,1,6.367,2.543,1.173,1.173,0,0,0,.741.264q4.466.027,8.933,0a1.175,1.175,0,0,0,.742-.263A8.892,8.892,0,0,1,38.7,86.044c2.184,0,4.368-.008,6.552,0a8.845,8.845,0,0,1,8.977,8.711c.052,1.59.04,3.184.008,4.776a4.178,4.178,0,0,1-4.369,4.285q-5.052.022-10.1,0a.8.8,0,0,0-.85.48,4.176,4.176,0,0,1-3.963,2.287c-1.612.006-3.225,0-4.838,0H29.4M17.762,117.774a9.68,9.68,0,1,0-9.626-9.745,9.676,9.676,0,0,0,9.626,9.745M16.92,96.381a26.337,26.337,0,0,1,2.99.276,11.416,11.416,0,0,1,8.854,7.509c.113.3.223.471.592.467,1.9-.02,3.795.011,5.692-.016a2.253,2.253,0,0,0,2.4-2.429c.012-1.428.008-2.856,0-4.284a6.917,6.917,0,0,0-7.008-7.162c-2.223-.043-4.448-.039-6.671,0a6.927,6.927,0,0,0-6.5,4.454c-.15.388-.237.8-.348,1.184M34.27,89.508a24.541,24.541,0,0,1,2.153,1.55,8.657,8.657,0,0,1,2.983,6.771c-.005,1.32,0,2.641,0,3.971a1.782,1.782,0,0,0,.29.058c3.487,0,6.974.016,10.46-.012a2.136,2.136,0,0,0,2.105-2.129c.037-1.793.075-3.592-.028-5.381a6.832,6.832,0,0,0-6.619-6.317c-2.446-.046-4.894-.035-7.34,0a6.491,6.491,0,0,0-4,1.488m-14.259.07a6.323,6.323,0,0,0-3.987-1.561c-2.467-.022-4.936-.044-7.4,0a6.837,6.837,0,0,0-6.615,6.452C1.93,96.182,1.95,97.9,1.98,99.61a2.2,2.2,0,0,0,2.313,2.249c1.06.016,2.121-.012,3.181.013a.827.827,0,0,0,.792-.419A11.224,11.224,0,0,1,14.3,97.008a.835.835,0,0,0,.679-.771,8.753,8.753,0,0,1,4.553-6.388l.479-.271m-9.268,32.334a7.789,7.789,0,0,1-.793-.48c-.432-.335-.66-.232-.928.239-1.8,3.172-3.636,6.326-5.459,9.486-.091.159-.262.341-.236.483.06.327.135.754.364.914.2.138.626,0,.927-.091.138-.044.225-.276.316-.434q2.783-4.818,5.561-9.639c.079-.137.146-.281.248-.479" transform="translate(0 -71.965)" fill="#fff"/>
      <path id="Path_4933" data-name="Path 4933" d="M132.293,16.809a6.563,6.563,0,1,1-6.633,6.522,6.583,6.583,0,0,1,6.633-6.522m-.052,1.955a4.609,4.609,0,1,0,4.594,4.607,4.629,4.629,0,0,0-4.594-4.607" transform="translate(-105.1 -14.058)" fill="#fff"/>
      <path id="Path_4934" data-name="Path 4934" d="M77.772,202.7l4.686-4.7q1.078-1.081,1.773-.341c.442.471.318,1.025-.387,1.73q-2.573,2.574-5.147,5.147c-.7.694-1.164.689-1.866-.011q-1.862-1.857-3.72-3.719c-.552-.555-.624-1.118-.213-1.555s1.035-.391,1.6.172c1.082,1.078,2.159,2.162,3.273,3.277" transform="translate(-60.752 -165.071)" fill="#fff"/>
    </g>
  </g>
</svg>
