<svg xmlns="http://www.w3.org/2000/svg" width="90" height="90" viewBox="0 0 90 90">
  <g id="Group_216" data-name="Group 216" transform="translate(-557 -2870)">
    <rect id="Rectangle_209" data-name="Rectangle 209" width="90" height="90" transform="translate(557 2870)" fill="rgba(255,255,255,0)"/>
    <g id="Group_200" data-name="Group 200" transform="translate(576 2884)">
      <path id="Path_4927" data-name="Path 4927" d="M2089.642,0c1.108.155,2.225.259,3.321.473,9.6,1.868,16.218,7.41,19.652,16.509a25.833,25.833,0,0,1-12.549,32.664,1.006,1.006,0,0,0-.67,1.166,19.667,19.667,0,0,1-.25,3.342c-.162,1.4-.391,2.787-.562,4.183a4.7,4.7,0,0,1-4.716,4.258c-1.878.015-3.756.008-5.634,0a5.71,5.71,0,0,1-3.616-1.131,4.192,4.192,0,0,0-3.1-.672c-.038.064-.073.1-.075.131-.119,1.542-.375,1.782-1.906,1.782q-2.6,0-5.205,0c-1.138,0-1.572-.422-1.573-1.541,0-4-.011-8,.012-12a7.2,7.2,0,0,1,.306-1.412c-.639-.517-1.416-1.1-2.147-1.744a25.185,25.185,0,0,1-8.675-15.66C2060.272,17,2068.738,3.114,2083.263.482c1.1-.2,2.211-.323,3.317-.482Zm-7.529,45.72c-.151-.062-.262-.111-.376-.154-8.4-3.145-13.173-9.156-13.77-18.119a19.412,19.412,0,0,1,8.183-17.631,19.655,19.655,0,0,1,6.279-3.087,1.208,1.208,0,0,1,1.549.72,1.231,1.231,0,0,1-.767,1.586c-.131.055-.268.1-.4.141a17.568,17.568,0,0,0-12.421,15.694A17.715,17.715,0,0,0,2082.963,43.4a.623.623,0,0,0,.876-.318c.879-1.446,1.792-2.872,2.7-4.3a1.2,1.2,0,0,1,1.607-.594,23.181,23.181,0,0,1,2.427,1.29,4,4,0,0,1,1.76,2.489,16.4,16.4,0,0,1,.24,1.644c.16-.033.317-.057.47-.1,9.018-2.334,14.577-11.974,12.672-21.055a17.435,17.435,0,0,0-9.573-12.241A26.781,26.781,0,0,0,2093.2,9.05a1.22,1.22,0,0,1-.908-1.172,1.056,1.056,0,0,1,.761-1.13,2.021,2.021,0,0,1,1.063.026c8.981,2.711,16.779,12.211,13.825,24-2.116,8.446-7.481,13.839-16.222,15.541a2.27,2.27,0,0,0-.472.211,31.435,31.435,0,0,0,3.47.133,4.469,4.469,0,0,1,2.846.955.783.783,0,0,0,.974.1c9.338-4.51,16.122-15.534,12.518-27.786-4.029-13.7-18.086-21.426-32.386-15.5-10.782,4.472-15.965,16.394-13.7,27.01a22.993,22.993,0,0,0,11.146,15.322,6.071,6.071,0,0,0,2.97.9,2.653,2.653,0,0,0,2.937-1.722l.093-.216m-.7,12.592c.314,0,.537.007.759,0a5.814,5.814,0,0,1,3.792,1.1,4.221,4.221,0,0,0,2.161.7c1.934.1,3.876.049,5.815.031a2.167,2.167,0,0,0,2.157-1.818c.33-2.2.637-4.4.886-6.608a2.252,2.252,0,0,0-2.385-2.6c-1.367-.008-2.735.006-4.1,0a1.97,1.97,0,0,1-1.8-3.027c.347-.646.723-1.277,1.071-1.923a1.79,1.79,0,0,0-.02-2.027,10.041,10.041,0,0,0-1.563-1.336c-.217.324-.344.506-.462.694-1.383,2.19-2.728,4.4-4.168,6.556a7.453,7.453,0,0,1-1.733,1.664.765.765,0,0,0-.409.7c.014,1.633.006,3.265.006,4.9Zm-6.168,1.9h3.672V50.088h-3.672Z" transform="translate(-2061.967)" fill="#fff"/>
      <path id="Path_4928" data-name="Path 4928" d="M2151.685,98.633c.047-1.04.117-2.079.124-3.119a1.425,1.425,0,0,0-.3-.812c-1.224-1.581-2.474-3.142-3.715-4.71-.8-1.018-.523-1.91.714-2.258,1.863-.524,3.723-1.058,5.593-1.558a1.709,1.709,0,0,0,1.092-.775c1.058-1.648,2.155-3.27,3.244-4.9.7-1.042,1.634-1.036,2.339.017,1.1,1.644,2.2,3.287,3.279,4.947a1.506,1.506,0,0,0,.948.68c1.908.516,3.81,1.055,5.711,1.592a1.272,1.272,0,0,1,.712,2.228c-1.236,1.572-2.494,3.127-3.712,4.712a1.578,1.578,0,0,0-.3.933c.053,2,.157,4,.232,6,.048,1.281-.736,1.849-1.926,1.407-1.872-.7-3.736-1.409-5.617-2.078a1.564,1.564,0,0,0-.973,0c-1.9.674-3.784,1.4-5.677,2.091-1.163.427-1.926-.159-1.888-1.395.03-1,.006-2,.006-3h.12m7.923-15.441c-.164.233-.284.395-.395.562-.825,1.239-1.62,2.5-2.49,3.705a2.373,2.373,0,0,1-1.087.79c-.978.343-1.994.578-2.993.861-.635.18-1.267.367-1.971.572.91,1.15,1.7,2.272,2.619,3.275a3.733,3.733,0,0,1,.977,3.121c-.125,1.325-.029,2.671-.029,4.021.1-.032.292-.086.479-.155,1.394-.516,2.775-1.071,4.187-1.532a2.407,2.407,0,0,1,1.4,0c1.393.453,2.756,1,4.13,1.507.2.074.4.143.679.241-.069-1.751-.117-3.4-.208-5.048a1.98,1.98,0,0,1,.466-1.464c.7-.847,1.377-1.719,2.06-2.583.349-.442.692-.888,1.091-1.4-1.652-.459-3.211-.908-4.78-1.321a2.2,2.2,0,0,1-1.387-1c-.874-1.375-1.8-2.719-2.75-4.149" transform="translate(-2133.369 -66.681)" fill="#fff"/>
      <path id="Path_4929" data-name="Path 4929" d="M2215.938,38.425a1.226,1.226,0,0,1-1.156-1.257,1.218,1.218,0,1,1,2.432.134,1.2,1.2,0,0,1-1.276,1.124" transform="translate(-2189.777 -30.106)" fill="#fff"/>
    </g>
  </g>
</svg>
